%TF.GenerationSoftware,KiCad,Pcbnew,8.0.3*%
%TF.CreationDate,2024-09-11T11:50:37-04:00*%
%TF.ProjectId,100064667,31303030-3634-4363-9637-2e6b69636164,1*%
%TF.SameCoordinates,Original*%
%TF.FileFunction,Copper,L3,Inr*%
%TF.FilePolarity,Positive*%
%FSLAX46Y46*%
G04 Gerber Fmt 4.6, Leading zero omitted, Abs format (unit mm)*
G04 Created by KiCad (PCBNEW 8.0.3) date 2024-09-11 11:50:37*
%MOMM*%
%LPD*%
G01*
G04 APERTURE LIST*
%ADD10C,0.254000*%
%TA.AperFunction,NonConductor*%
%ADD11C,0.254000*%
%TD*%
%TA.AperFunction,ComponentPad*%
%ADD12R,1.270000X1.270000*%
%TD*%
%TA.AperFunction,ComponentPad*%
%ADD13C,1.270000*%
%TD*%
%TA.AperFunction,ViaPad*%
%ADD14C,0.508000*%
%TD*%
%TA.AperFunction,ViaPad*%
%ADD15C,0.355600*%
%TD*%
%ADD16C,0.254000*%
%ADD17C,0.152400*%
%ADD18C,0.350000*%
G04 APERTURE END LIST*
D10*
D11*
X53234772Y-120586233D02*
X53234772Y-118554233D01*
X54202391Y-120586233D02*
X54202391Y-118554233D01*
X54202391Y-118554233D02*
X55363534Y-120586233D01*
X55363534Y-120586233D02*
X55363534Y-118554233D01*
X56331153Y-120586233D02*
X56331153Y-118554233D01*
X56331153Y-118554233D02*
X57492296Y-120586233D01*
X57492296Y-120586233D02*
X57492296Y-118554233D01*
X58459915Y-119521852D02*
X59137248Y-119521852D01*
X59427534Y-120586233D02*
X58459915Y-120586233D01*
X58459915Y-120586233D02*
X58459915Y-118554233D01*
X58459915Y-118554233D02*
X59427534Y-118554233D01*
X61459534Y-120586233D02*
X60782201Y-119618614D01*
X60298391Y-120586233D02*
X60298391Y-118554233D01*
X60298391Y-118554233D02*
X61072486Y-118554233D01*
X61072486Y-118554233D02*
X61266010Y-118650995D01*
X61266010Y-118650995D02*
X61362772Y-118747757D01*
X61362772Y-118747757D02*
X61459534Y-118941281D01*
X61459534Y-118941281D02*
X61459534Y-119231567D01*
X61459534Y-119231567D02*
X61362772Y-119425091D01*
X61362772Y-119425091D02*
X61266010Y-119521852D01*
X61266010Y-119521852D02*
X61072486Y-119618614D01*
X61072486Y-119618614D02*
X60298391Y-119618614D01*
X63781819Y-118747757D02*
X63878581Y-118650995D01*
X63878581Y-118650995D02*
X64072105Y-118554233D01*
X64072105Y-118554233D02*
X64555914Y-118554233D01*
X64555914Y-118554233D02*
X64749438Y-118650995D01*
X64749438Y-118650995D02*
X64846200Y-118747757D01*
X64846200Y-118747757D02*
X64942962Y-118941281D01*
X64942962Y-118941281D02*
X64942962Y-119134805D01*
X64942962Y-119134805D02*
X64846200Y-119425091D01*
X64846200Y-119425091D02*
X63685057Y-120586233D01*
X63685057Y-120586233D02*
X64942962Y-120586233D01*
X68523152Y-120392710D02*
X68426390Y-120489472D01*
X68426390Y-120489472D02*
X68136104Y-120586233D01*
X68136104Y-120586233D02*
X67942580Y-120586233D01*
X67942580Y-120586233D02*
X67652295Y-120489472D01*
X67652295Y-120489472D02*
X67458771Y-120295948D01*
X67458771Y-120295948D02*
X67362009Y-120102424D01*
X67362009Y-120102424D02*
X67265247Y-119715376D01*
X67265247Y-119715376D02*
X67265247Y-119425091D01*
X67265247Y-119425091D02*
X67362009Y-119038043D01*
X67362009Y-119038043D02*
X67458771Y-118844519D01*
X67458771Y-118844519D02*
X67652295Y-118650995D01*
X67652295Y-118650995D02*
X67942580Y-118554233D01*
X67942580Y-118554233D02*
X68136104Y-118554233D01*
X68136104Y-118554233D02*
X68426390Y-118650995D01*
X68426390Y-118650995D02*
X68523152Y-118747757D01*
X69781057Y-118554233D02*
X70168104Y-118554233D01*
X70168104Y-118554233D02*
X70361628Y-118650995D01*
X70361628Y-118650995D02*
X70555152Y-118844519D01*
X70555152Y-118844519D02*
X70651914Y-119231567D01*
X70651914Y-119231567D02*
X70651914Y-119908900D01*
X70651914Y-119908900D02*
X70555152Y-120295948D01*
X70555152Y-120295948D02*
X70361628Y-120489472D01*
X70361628Y-120489472D02*
X70168104Y-120586233D01*
X70168104Y-120586233D02*
X69781057Y-120586233D01*
X69781057Y-120586233D02*
X69587533Y-120489472D01*
X69587533Y-120489472D02*
X69394009Y-120295948D01*
X69394009Y-120295948D02*
X69297247Y-119908900D01*
X69297247Y-119908900D02*
X69297247Y-119231567D01*
X69297247Y-119231567D02*
X69394009Y-118844519D01*
X69394009Y-118844519D02*
X69587533Y-118650995D01*
X69587533Y-118650995D02*
X69781057Y-118554233D01*
X71522771Y-120586233D02*
X71522771Y-118554233D01*
X71522771Y-118554233D02*
X72296866Y-118554233D01*
X72296866Y-118554233D02*
X72490390Y-118650995D01*
X72490390Y-118650995D02*
X72587152Y-118747757D01*
X72587152Y-118747757D02*
X72683914Y-118941281D01*
X72683914Y-118941281D02*
X72683914Y-119231567D01*
X72683914Y-119231567D02*
X72587152Y-119425091D01*
X72587152Y-119425091D02*
X72490390Y-119521852D01*
X72490390Y-119521852D02*
X72296866Y-119618614D01*
X72296866Y-119618614D02*
X71522771Y-119618614D01*
X73554771Y-120586233D02*
X73554771Y-118554233D01*
X73554771Y-118554233D02*
X74328866Y-118554233D01*
X74328866Y-118554233D02*
X74522390Y-118650995D01*
X74522390Y-118650995D02*
X74619152Y-118747757D01*
X74619152Y-118747757D02*
X74715914Y-118941281D01*
X74715914Y-118941281D02*
X74715914Y-119231567D01*
X74715914Y-119231567D02*
X74619152Y-119425091D01*
X74619152Y-119425091D02*
X74522390Y-119521852D01*
X74522390Y-119521852D02*
X74328866Y-119618614D01*
X74328866Y-119618614D02*
X73554771Y-119618614D01*
X75586771Y-119521852D02*
X76264104Y-119521852D01*
X76554390Y-120586233D02*
X75586771Y-120586233D01*
X75586771Y-120586233D02*
X75586771Y-118554233D01*
X75586771Y-118554233D02*
X76554390Y-118554233D01*
X78586390Y-120586233D02*
X77909057Y-119618614D01*
X77425247Y-120586233D02*
X77425247Y-118554233D01*
X77425247Y-118554233D02*
X78199342Y-118554233D01*
X78199342Y-118554233D02*
X78392866Y-118650995D01*
X78392866Y-118650995D02*
X78489628Y-118747757D01*
X78489628Y-118747757D02*
X78586390Y-118941281D01*
X78586390Y-118941281D02*
X78586390Y-119231567D01*
X78586390Y-119231567D02*
X78489628Y-119425091D01*
X78489628Y-119425091D02*
X78392866Y-119521852D01*
X78392866Y-119521852D02*
X78199342Y-119618614D01*
X78199342Y-119618614D02*
X77425247Y-119618614D01*
D12*
%TO.N,/Block Diagram/Payload Power Control/VOUT*%
%TO.C,J10*%
X55880000Y-54584600D03*
D13*
%TO.N,GND*%
X58420000Y-54584600D03*
%TO.N,/Block Diagram/Payload Power Control/DETECT*%
X60960000Y-54584600D03*
%TO.N,/Block Diagram/Data Switches/GPIO_DOWN_0*%
X63500000Y-54584600D03*
%TO.N,/Block Diagram/Data Switches/GPIO_DOWN_1*%
X66040000Y-54584600D03*
%TO.N,/Block Diagram/USB_DEV_D-*%
X68580000Y-54584600D03*
%TO.N,/Block Diagram/USB_DEV_D+*%
X71120000Y-54584600D03*
%TO.N,GND*%
X73660000Y-54584600D03*
%TO.N,/Block Diagram/Payload Power Control/VOUT*%
X76200000Y-54584600D03*
%TD*%
D14*
%TO.N,/Block Diagram/VBATT*%
X62551177Y-89365827D03*
X62558818Y-88223553D03*
X63137596Y-88229283D03*
X62553087Y-88796600D03*
X63139506Y-89373468D03*
X63143326Y-88800420D03*
D15*
%TO.N,GND*%
X70612000Y-62230000D03*
X67421000Y-75060000D03*
X75819000Y-74650600D03*
D14*
X72125800Y-56515000D03*
D15*
X59436000Y-62230000D03*
X68961000Y-77470000D03*
X67208400Y-79629000D03*
D14*
X66931169Y-83693452D03*
D15*
X54152800Y-73431400D03*
X70104000Y-62230000D03*
X67945000Y-77442000D03*
X67081400Y-91033600D03*
X70612000Y-61722000D03*
X70104000Y-61722000D03*
D14*
X77531000Y-56515000D03*
D15*
X69850000Y-54615600D03*
X58928000Y-62230000D03*
X59436000Y-61722000D03*
D14*
X63500000Y-56642000D03*
D15*
X59766200Y-58216800D03*
X77241400Y-72771000D03*
X57886600Y-64871600D03*
X58928000Y-61722000D03*
X69342000Y-68858000D03*
X74320400Y-72821800D03*
X63909000Y-77343000D03*
X63119000Y-71021000D03*
D14*
%TO.N,/Block Diagram/Payload Power Control/VBATT_PROT*%
X62230000Y-82550000D03*
X62865000Y-82550000D03*
X62103000Y-74295000D03*
X62738000Y-73025000D03*
X62865000Y-81915000D03*
X62103000Y-73025000D03*
X62738000Y-73660000D03*
X62103000Y-73660000D03*
X62230000Y-81915000D03*
X63500000Y-81915000D03*
D15*
X67168000Y-78450000D03*
D14*
X62738000Y-74295000D03*
X63500000Y-82550000D03*
D15*
%TO.N,/Block Diagram/Data Switches/P3V3*%
X61595000Y-58597800D03*
X71374000Y-67181000D03*
X69723000Y-75184000D03*
X75793600Y-72085200D03*
X55608600Y-64469800D03*
X68354000Y-68859400D03*
X67338000Y-81026000D03*
X53873400Y-72974200D03*
X59512200Y-67284600D03*
D14*
%TO.N,Net-(Q1-G)*%
X63093600Y-86233000D03*
%TO.N,/Block Diagram/Payload Power Control/VOUT*%
X75184000Y-58166000D03*
D15*
X70612000Y-63754000D03*
D14*
X56388000Y-57658000D03*
D15*
X61976000Y-63754000D03*
X61468000Y-63754000D03*
D14*
X74422000Y-58166000D03*
X67183000Y-58166000D03*
X75946000Y-58166000D03*
D15*
X70104000Y-63754000D03*
D14*
X76708000Y-58166000D03*
X67945000Y-58166000D03*
D15*
X70612000Y-64262000D03*
D14*
X66421000Y-58166000D03*
D15*
X70104000Y-64262000D03*
X61976000Y-64262000D03*
X61468000Y-64262000D03*
D14*
X69342000Y-70358000D03*
X56388000Y-56896000D03*
X73660000Y-58166000D03*
D15*
%TO.N,/Block Diagram/Payload Power Control/DETECT*%
X55092600Y-74064400D03*
%TO.N,/Block Diagram/Payload Power Control/IMON*%
X54414800Y-75493400D03*
X67919600Y-75666600D03*
%TO.N,/Block Diagram/AUX2*%
X57785000Y-72821800D03*
%TO.N,/Block Diagram/AUX1*%
X57886600Y-74015600D03*
%TO.N,/Block Diagram/GPIO1*%
X65265300Y-58508900D03*
%TO.N,/Block Diagram/GPIO0*%
X64516000Y-58521600D03*
%TO.N,/Block Diagram/USB_D-*%
X75285600Y-74828400D03*
%TO.N,/Block Diagram/USB_D+*%
X76327000Y-74828400D03*
%TO.N,/Block Diagram/Payload Power Control/~{NRST}*%
X53898800Y-74015600D03*
X67818000Y-78450000D03*
X54973600Y-71454800D03*
%TO.N,/Block Diagram/Power Input/RANGE_SEL*%
X70205600Y-83566000D03*
X65201800Y-82499200D03*
%TO.N,/Block Diagram/Payload Power Control/1WIRE_TX*%
X54356000Y-74422000D03*
%TO.N,/Block Diagram/Payload Power Control/LS_PWR_GOOD*%
X56142000Y-75772800D03*
X69723000Y-74166000D03*
X58902600Y-64871600D03*
%TO.N,/Block Diagram/Payload Power Control/LS_FAULT*%
X68421000Y-75060000D03*
X55557800Y-75823600D03*
%TO.N,/Block Diagram/Payload Power Control/I_FAULT*%
X71374000Y-68224400D03*
X57310400Y-74528200D03*
%TO.N,/Block Diagram/Payload Power Control/1WIRE_RX*%
X54922800Y-75671200D03*
%TO.N,Net-(JP2-B)*%
X58343800Y-64363600D03*
X61798200Y-70205600D03*
X63879000Y-76327000D03*
%TO.N,/Block Diagram/Payload Power Control/I_SNS*%
X66624200Y-68351400D03*
X57412000Y-75061600D03*
%TO.N,Net-(U7-EN)*%
X64643000Y-75793600D03*
%TO.N,Net-(U7-FB)*%
X69723000Y-73154000D03*
%TO.N,/Block Diagram/USB_DEV_D-*%
X74904600Y-72796400D03*
%TO.N,/Block Diagram/USB_DEV_D+*%
X76682600Y-72771000D03*
%TO.N,Net-(U11-~{RESET})*%
X57683400Y-58064400D03*
%TO.N,/Block Diagram/Data Switches/RESET*%
X60172600Y-58674000D03*
X62128400Y-58064400D03*
X77927200Y-72263000D03*
%TO.N,/Block Diagram/Data Switches/DATA_ENABLE*%
X57894600Y-66348200D03*
X55143400Y-56134000D03*
%TD*%
%TA.AperFunction,Conductor*%
%TO.N,/Block Diagram/Data Switches/P3V3*%
G36*
X76725399Y-50534787D02*
G01*
X76743705Y-50578981D01*
X76743705Y-53241542D01*
X76743704Y-53241792D01*
X76743205Y-53366084D01*
X76743206Y-53366090D01*
X76758437Y-53474965D01*
X76746431Y-53521269D01*
X76705199Y-53545521D01*
X76673963Y-53541904D01*
X76662218Y-53537354D01*
X76514274Y-53480040D01*
X76514271Y-53480039D01*
X76514270Y-53480039D01*
X76305965Y-53441100D01*
X76305961Y-53441100D01*
X76094039Y-53441100D01*
X76094034Y-53441100D01*
X75885729Y-53480039D01*
X75688113Y-53556595D01*
X75688111Y-53556596D01*
X75507933Y-53668158D01*
X75351321Y-53810931D01*
X75351319Y-53810933D01*
X75223611Y-53980046D01*
X75129150Y-54169749D01*
X75071155Y-54373577D01*
X75071153Y-54373589D01*
X75051601Y-54584595D01*
X75051601Y-54584604D01*
X75071153Y-54795610D01*
X75071155Y-54795622D01*
X75116153Y-54953770D01*
X75129150Y-54999450D01*
X75223611Y-55189154D01*
X75351323Y-55358271D01*
X75507934Y-55501041D01*
X75507933Y-55501041D01*
X75688111Y-55612603D01*
X75688113Y-55612604D01*
X75688115Y-55612605D01*
X75885726Y-55689160D01*
X76094039Y-55728100D01*
X76094042Y-55728100D01*
X76305958Y-55728100D01*
X76305961Y-55728100D01*
X76514274Y-55689160D01*
X76711885Y-55612605D01*
X76892065Y-55501042D01*
X77048677Y-55358271D01*
X77176389Y-55189154D01*
X77270850Y-54999450D01*
X77324495Y-54810906D01*
X77328844Y-54795622D01*
X77328846Y-54795609D01*
X77337360Y-54703729D01*
X77359665Y-54661412D01*
X77405359Y-54647262D01*
X77440611Y-54662339D01*
X77451220Y-54671567D01*
X77665596Y-54809800D01*
X77897504Y-54916028D01*
X78025682Y-54953770D01*
X78062906Y-54983813D01*
X78070062Y-55006108D01*
X78183659Y-55931282D01*
X78170876Y-55977378D01*
X78129242Y-56000933D01*
X78083146Y-55988150D01*
X78077431Y-55983093D01*
X78009417Y-55915079D01*
X77863934Y-55823666D01*
X77863932Y-55823665D01*
X77863930Y-55823664D01*
X77755807Y-55785830D01*
X77701744Y-55766912D01*
X77531000Y-55747675D01*
X77360255Y-55766912D01*
X77243167Y-55807883D01*
X77198070Y-55823664D01*
X77198069Y-55823664D01*
X77198065Y-55823666D01*
X77052582Y-55915079D01*
X76931079Y-56036582D01*
X76839666Y-56182065D01*
X76782912Y-56344255D01*
X76763675Y-56514999D01*
X76763675Y-56515000D01*
X76782912Y-56685744D01*
X76796738Y-56725255D01*
X76839664Y-56847930D01*
X76839665Y-56847932D01*
X76839666Y-56847934D01*
X76931079Y-56993417D01*
X77052582Y-57114920D01*
X77061334Y-57120419D01*
X77198070Y-57206336D01*
X77360254Y-57263087D01*
X77531000Y-57282325D01*
X77701746Y-57263087D01*
X77863930Y-57206336D01*
X78009419Y-57114919D01*
X78130919Y-56993419D01*
X78190604Y-56898430D01*
X78229616Y-56870750D01*
X78276776Y-56878763D01*
X78304457Y-56917775D01*
X78305558Y-56924066D01*
X80675775Y-76227931D01*
X80675779Y-76227995D01*
X80683933Y-76294372D01*
X80684399Y-76301893D01*
X80684575Y-76412705D01*
X80682788Y-76427644D01*
X80657380Y-76531591D01*
X80652074Y-76545670D01*
X80602562Y-76640534D01*
X80594046Y-76652936D01*
X80523306Y-76733212D01*
X80512074Y-76743220D01*
X80424189Y-76804274D01*
X80410889Y-76811309D01*
X80310967Y-76849589D01*
X80296373Y-76853241D01*
X80186352Y-76867016D01*
X80178587Y-76867500D01*
X73526780Y-76867500D01*
X73262630Y-76902276D01*
X73262628Y-76902276D01*
X73005288Y-76971229D01*
X73005280Y-76971232D01*
X72759135Y-77073187D01*
X72759132Y-77073188D01*
X72528395Y-77206402D01*
X72528384Y-77206410D01*
X72317022Y-77368591D01*
X72128620Y-77556988D01*
X72128617Y-77556991D01*
X71966434Y-77768347D01*
X71966427Y-77768357D01*
X71833212Y-77999083D01*
X71833208Y-77999092D01*
X71731248Y-78245233D01*
X71662286Y-78502581D01*
X71662284Y-78502590D01*
X71627503Y-78766732D01*
X71627502Y-78766741D01*
X71627501Y-78830425D01*
X71627500Y-78830451D01*
X71627500Y-78899953D01*
X71627498Y-78971235D01*
X71627500Y-78971264D01*
X71627500Y-97689081D01*
X71627497Y-97689131D01*
X71627499Y-97756392D01*
X71627110Y-97763354D01*
X71615684Y-97865325D01*
X71612602Y-97878904D01*
X71580035Y-97972502D01*
X71574023Y-97985061D01*
X71521547Y-98069117D01*
X71512903Y-98080034D01*
X71443111Y-98150393D01*
X71432264Y-98159125D01*
X71348626Y-98212286D01*
X71336117Y-98218399D01*
X71242795Y-98251721D01*
X71229241Y-98254914D01*
X71158767Y-98263389D01*
X71128300Y-98267053D01*
X71120839Y-98267500D01*
X61031328Y-98267500D01*
X61031299Y-98267498D01*
X61026960Y-98267498D01*
X61022726Y-98267498D01*
X60963517Y-98267499D01*
X60956535Y-98267108D01*
X60854304Y-98255618D01*
X60840687Y-98252517D01*
X60746893Y-98219776D01*
X60734304Y-98213729D01*
X60650117Y-98160975D01*
X60639186Y-98152284D01*
X60568817Y-98082156D01*
X60560088Y-98071254D01*
X60507047Y-97987250D01*
X60500957Y-97974682D01*
X60467895Y-97881002D01*
X60464748Y-97867400D01*
X60452914Y-97765278D01*
X60452500Y-97758089D01*
X60452500Y-94990845D01*
X61429400Y-94990845D01*
X61429400Y-95153554D01*
X61461141Y-95313133D01*
X61461142Y-95313136D01*
X61514910Y-95442942D01*
X61523408Y-95463458D01*
X61613804Y-95598745D01*
X61728855Y-95713796D01*
X61864142Y-95804192D01*
X62014465Y-95866458D01*
X62174046Y-95898200D01*
X62336754Y-95898200D01*
X62496335Y-95866458D01*
X62646658Y-95804192D01*
X62781945Y-95713796D01*
X62896996Y-95598745D01*
X62987392Y-95463458D01*
X63049658Y-95313135D01*
X63081400Y-95153554D01*
X63081400Y-94990846D01*
X63081400Y-94990845D01*
X63232800Y-94990845D01*
X63232800Y-95153554D01*
X63264541Y-95313133D01*
X63264542Y-95313136D01*
X63318310Y-95442942D01*
X63326808Y-95463458D01*
X63417204Y-95598745D01*
X63532255Y-95713796D01*
X63667542Y-95804192D01*
X63817865Y-95866458D01*
X63977446Y-95898200D01*
X64140154Y-95898200D01*
X64299735Y-95866458D01*
X64450058Y-95804192D01*
X64526904Y-95752845D01*
X65036200Y-95752845D01*
X65036200Y-95915554D01*
X65067941Y-96075133D01*
X65067942Y-96075135D01*
X65130208Y-96225458D01*
X65220604Y-96360745D01*
X65335655Y-96475796D01*
X65470942Y-96566192D01*
X65621265Y-96628458D01*
X65780846Y-96660200D01*
X65943554Y-96660200D01*
X66103135Y-96628458D01*
X66253458Y-96566192D01*
X66388745Y-96475796D01*
X66503796Y-96360745D01*
X66594192Y-96225458D01*
X66656458Y-96075135D01*
X66688200Y-95915554D01*
X66688200Y-95752846D01*
X66656458Y-95593265D01*
X66594192Y-95442942D01*
X66503796Y-95307655D01*
X66388745Y-95192604D01*
X66330303Y-95153554D01*
X66253460Y-95102209D01*
X66253458Y-95102208D01*
X66103136Y-95039942D01*
X66103133Y-95039941D01*
X65943554Y-95008200D01*
X65780846Y-95008200D01*
X65621266Y-95039941D01*
X65621263Y-95039942D01*
X65470941Y-95102208D01*
X65470939Y-95102209D01*
X65335655Y-95192603D01*
X65220603Y-95307655D01*
X65130209Y-95442939D01*
X65130208Y-95442941D01*
X65067942Y-95593263D01*
X65067941Y-95593266D01*
X65036200Y-95752845D01*
X64526904Y-95752845D01*
X64585345Y-95713796D01*
X64700396Y-95598745D01*
X64790792Y-95463458D01*
X64853058Y-95313135D01*
X64884800Y-95153554D01*
X64884800Y-94990846D01*
X64884800Y-94990845D01*
X67195200Y-94990845D01*
X67195200Y-95153554D01*
X67226941Y-95313133D01*
X67226942Y-95313136D01*
X67280710Y-95442942D01*
X67289208Y-95463458D01*
X67379604Y-95598745D01*
X67494655Y-95713796D01*
X67629942Y-95804192D01*
X67780265Y-95866458D01*
X67939846Y-95898200D01*
X68102554Y-95898200D01*
X68262135Y-95866458D01*
X68412458Y-95804192D01*
X68547745Y-95713796D01*
X68662796Y-95598745D01*
X68753192Y-95463458D01*
X68815458Y-95313135D01*
X68847200Y-95153554D01*
X68847200Y-94990846D01*
X68847200Y-94990845D01*
X68998600Y-94990845D01*
X68998600Y-95153554D01*
X69030341Y-95313133D01*
X69030342Y-95313136D01*
X69084110Y-95442942D01*
X69092608Y-95463458D01*
X69183004Y-95598745D01*
X69298055Y-95713796D01*
X69433342Y-95804192D01*
X69583665Y-95866458D01*
X69743246Y-95898200D01*
X69905954Y-95898200D01*
X70065535Y-95866458D01*
X70215858Y-95804192D01*
X70351145Y-95713796D01*
X70466196Y-95598745D01*
X70556592Y-95463458D01*
X70618858Y-95313135D01*
X70650600Y-95153554D01*
X70650600Y-94990846D01*
X70618858Y-94831265D01*
X70556592Y-94680942D01*
X70466196Y-94545655D01*
X70351145Y-94430604D01*
X70351144Y-94430603D01*
X70215860Y-94340209D01*
X70215858Y-94340208D01*
X70065536Y-94277942D01*
X70065533Y-94277941D01*
X69905954Y-94246200D01*
X69743246Y-94246200D01*
X69583666Y-94277941D01*
X69583663Y-94277942D01*
X69433341Y-94340208D01*
X69433339Y-94340209D01*
X69298055Y-94430603D01*
X69183003Y-94545655D01*
X69092609Y-94680939D01*
X69092608Y-94680941D01*
X69030342Y-94831263D01*
X69030341Y-94831266D01*
X68998600Y-94990845D01*
X68847200Y-94990845D01*
X68815458Y-94831265D01*
X68753192Y-94680942D01*
X68662796Y-94545655D01*
X68547745Y-94430604D01*
X68547744Y-94430603D01*
X68412460Y-94340209D01*
X68412458Y-94340208D01*
X68262136Y-94277942D01*
X68262133Y-94277941D01*
X68102554Y-94246200D01*
X67939846Y-94246200D01*
X67780266Y-94277941D01*
X67780263Y-94277942D01*
X67629941Y-94340208D01*
X67629939Y-94340209D01*
X67494655Y-94430603D01*
X67379603Y-94545655D01*
X67289209Y-94680939D01*
X67289208Y-94680941D01*
X67226942Y-94831263D01*
X67226941Y-94831266D01*
X67195200Y-94990845D01*
X64884800Y-94990845D01*
X64853058Y-94831265D01*
X64790792Y-94680942D01*
X64700396Y-94545655D01*
X64585345Y-94430604D01*
X64585344Y-94430603D01*
X64450060Y-94340209D01*
X64450058Y-94340208D01*
X64299736Y-94277942D01*
X64299733Y-94277941D01*
X64140154Y-94246200D01*
X63977446Y-94246200D01*
X63817866Y-94277941D01*
X63817863Y-94277942D01*
X63667541Y-94340208D01*
X63667539Y-94340209D01*
X63532255Y-94430603D01*
X63417203Y-94545655D01*
X63326809Y-94680939D01*
X63326808Y-94680941D01*
X63264542Y-94831263D01*
X63264541Y-94831266D01*
X63232800Y-94990845D01*
X63081400Y-94990845D01*
X63049658Y-94831265D01*
X62987392Y-94680942D01*
X62896996Y-94545655D01*
X62781945Y-94430604D01*
X62781944Y-94430603D01*
X62646660Y-94340209D01*
X62646658Y-94340208D01*
X62496336Y-94277942D01*
X62496333Y-94277941D01*
X62336754Y-94246200D01*
X62174046Y-94246200D01*
X62014466Y-94277941D01*
X62014463Y-94277942D01*
X61864141Y-94340208D01*
X61864139Y-94340209D01*
X61728855Y-94430603D01*
X61613803Y-94545655D01*
X61523409Y-94680939D01*
X61523408Y-94680941D01*
X61461142Y-94831263D01*
X61461141Y-94831266D01*
X61429400Y-94990845D01*
X60452500Y-94990845D01*
X60452500Y-93974845D01*
X65010800Y-93974845D01*
X65010800Y-94137554D01*
X65042541Y-94297133D01*
X65042542Y-94297135D01*
X65104808Y-94447458D01*
X65195204Y-94582745D01*
X65310255Y-94697796D01*
X65445542Y-94788192D01*
X65595865Y-94850458D01*
X65755446Y-94882200D01*
X65918154Y-94882200D01*
X66077735Y-94850458D01*
X66228058Y-94788192D01*
X66363345Y-94697796D01*
X66478396Y-94582745D01*
X66568792Y-94447458D01*
X66631058Y-94297135D01*
X66662800Y-94137554D01*
X66662800Y-93974846D01*
X66631058Y-93815265D01*
X66568792Y-93664942D01*
X66478396Y-93529655D01*
X66363345Y-93414604D01*
X66363344Y-93414603D01*
X66228060Y-93324209D01*
X66228058Y-93324208D01*
X66077736Y-93261942D01*
X66077733Y-93261941D01*
X65918154Y-93230200D01*
X65755446Y-93230200D01*
X65595866Y-93261941D01*
X65595863Y-93261942D01*
X65445541Y-93324208D01*
X65445539Y-93324209D01*
X65310255Y-93414603D01*
X65195203Y-93529655D01*
X65104809Y-93664939D01*
X65104808Y-93664941D01*
X65042542Y-93815263D01*
X65042541Y-93815266D01*
X65010800Y-93974845D01*
X60452500Y-93974845D01*
X60452500Y-92416807D01*
X62051700Y-92416807D01*
X62051700Y-92596792D01*
X62051701Y-92596808D01*
X62079856Y-92774567D01*
X62079856Y-92774568D01*
X62135476Y-92945750D01*
X62135480Y-92945758D01*
X62217192Y-93106127D01*
X62322986Y-93251739D01*
X62322993Y-93251747D01*
X62450252Y-93379006D01*
X62450260Y-93379013D01*
X62499246Y-93414604D01*
X62595875Y-93484809D01*
X62756248Y-93566523D01*
X62927430Y-93622143D01*
X63002353Y-93634009D01*
X63105191Y-93650298D01*
X63105197Y-93650298D01*
X63105205Y-93650300D01*
X63105207Y-93650300D01*
X63285193Y-93650300D01*
X63285195Y-93650300D01*
X63462970Y-93622143D01*
X63634152Y-93566523D01*
X63794525Y-93484809D01*
X63940140Y-93379013D01*
X64067413Y-93251740D01*
X64173209Y-93106125D01*
X64254923Y-92945752D01*
X64310543Y-92774570D01*
X64338700Y-92596795D01*
X64338700Y-92416807D01*
X67741300Y-92416807D01*
X67741300Y-92596792D01*
X67741301Y-92596808D01*
X67769456Y-92774567D01*
X67769456Y-92774568D01*
X67825076Y-92945750D01*
X67825080Y-92945758D01*
X67906792Y-93106127D01*
X68012586Y-93251739D01*
X68012593Y-93251747D01*
X68139852Y-93379006D01*
X68139860Y-93379013D01*
X68188846Y-93414604D01*
X68285475Y-93484809D01*
X68445848Y-93566523D01*
X68617030Y-93622143D01*
X68691953Y-93634009D01*
X68794791Y-93650298D01*
X68794797Y-93650298D01*
X68794805Y-93650300D01*
X68794807Y-93650300D01*
X68974793Y-93650300D01*
X68974795Y-93650300D01*
X69152570Y-93622143D01*
X69323752Y-93566523D01*
X69484125Y-93484809D01*
X69629740Y-93379013D01*
X69757013Y-93251740D01*
X69862809Y-93106125D01*
X69944523Y-92945752D01*
X70000143Y-92774570D01*
X70028300Y-92596795D01*
X70028300Y-92416805D01*
X70000143Y-92239030D01*
X69944523Y-92067848D01*
X69862809Y-91907475D01*
X69757013Y-91761860D01*
X69757006Y-91761852D01*
X69629747Y-91634593D01*
X69629739Y-91634586D01*
X69484127Y-91528792D01*
X69323758Y-91447080D01*
X69323750Y-91447076D01*
X69152568Y-91391456D01*
X68974808Y-91363301D01*
X68974796Y-91363300D01*
X68974795Y-91363300D01*
X68794805Y-91363300D01*
X68794803Y-91363300D01*
X68794791Y-91363301D01*
X68617032Y-91391456D01*
X68617031Y-91391456D01*
X68445849Y-91447076D01*
X68445841Y-91447080D01*
X68285472Y-91528792D01*
X68139860Y-91634586D01*
X68139852Y-91634593D01*
X68012593Y-91761852D01*
X68012586Y-91761860D01*
X67906792Y-91907472D01*
X67825080Y-92067841D01*
X67825076Y-92067849D01*
X67769456Y-92239031D01*
X67769456Y-92239032D01*
X67741301Y-92416791D01*
X67741300Y-92416807D01*
X64338700Y-92416807D01*
X64338700Y-92416805D01*
X64310543Y-92239030D01*
X64254923Y-92067848D01*
X64173209Y-91907475D01*
X64067413Y-91761860D01*
X64067406Y-91761852D01*
X63940147Y-91634593D01*
X63940139Y-91634586D01*
X63794527Y-91528792D01*
X63634158Y-91447080D01*
X63634150Y-91447076D01*
X63462968Y-91391456D01*
X63285208Y-91363301D01*
X63285196Y-91363300D01*
X63285195Y-91363300D01*
X63105205Y-91363300D01*
X63105203Y-91363300D01*
X63105191Y-91363301D01*
X62927432Y-91391456D01*
X62927431Y-91391456D01*
X62756249Y-91447076D01*
X62756241Y-91447080D01*
X62595872Y-91528792D01*
X62450260Y-91634586D01*
X62450252Y-91634593D01*
X62322993Y-91761852D01*
X62322986Y-91761860D01*
X62217192Y-91907472D01*
X62135480Y-92067841D01*
X62135476Y-92067849D01*
X62079856Y-92239031D01*
X62079856Y-92239032D01*
X62051701Y-92416791D01*
X62051700Y-92416807D01*
X60452500Y-92416807D01*
X60452500Y-89365826D01*
X61783852Y-89365826D01*
X61783852Y-89365827D01*
X61803089Y-89536571D01*
X61822007Y-89590634D01*
X61859841Y-89698757D01*
X61859842Y-89698759D01*
X61859843Y-89698761D01*
X61951256Y-89844244D01*
X62072759Y-89965747D01*
X62218242Y-90057160D01*
X62218247Y-90057163D01*
X62380431Y-90113914D01*
X62551177Y-90133152D01*
X62721923Y-90113914D01*
X62813781Y-90081771D01*
X62855065Y-90081771D01*
X62968760Y-90121555D01*
X63139506Y-90140793D01*
X63310252Y-90121555D01*
X63472436Y-90064804D01*
X63617925Y-89973387D01*
X63739425Y-89851887D01*
X63830842Y-89706398D01*
X63887593Y-89544214D01*
X63903783Y-89400518D01*
X64375800Y-89400518D01*
X64375800Y-89618681D01*
X64404275Y-89834969D01*
X64404275Y-89834970D01*
X64460733Y-90045675D01*
X64460739Y-90045693D01*
X64544219Y-90247230D01*
X64544225Y-90247242D01*
X64653297Y-90436161D01*
X64759952Y-90575158D01*
X64786103Y-90609238D01*
X64940362Y-90763497D01*
X65113436Y-90896301D01*
X65302364Y-91005378D01*
X65503913Y-91088863D01*
X65503923Y-91088865D01*
X65503924Y-91088866D01*
X65714629Y-91145324D01*
X65714631Y-91145324D01*
X65714634Y-91145325D01*
X65930923Y-91173800D01*
X65930929Y-91173800D01*
X66149071Y-91173800D01*
X66149077Y-91173800D01*
X66340458Y-91148604D01*
X66386664Y-91160984D01*
X66409298Y-91195603D01*
X66410146Y-91199043D01*
X66469249Y-91354885D01*
X66563921Y-91492041D01*
X66563924Y-91492044D01*
X66688674Y-91602562D01*
X66836247Y-91680015D01*
X66998068Y-91719900D01*
X66998070Y-91719900D01*
X67164730Y-91719900D01*
X67164732Y-91719900D01*
X67326553Y-91680015D01*
X67474126Y-91602562D01*
X67598876Y-91492044D01*
X67687741Y-91363301D01*
X67693550Y-91354885D01*
X67693550Y-91354884D01*
X67693552Y-91354882D01*
X67752652Y-91199049D01*
X67766031Y-91088863D01*
X67772741Y-91033603D01*
X67772741Y-91033596D01*
X67752653Y-90868158D01*
X67752652Y-90868155D01*
X67752652Y-90868151D01*
X67693552Y-90712318D01*
X67693550Y-90712316D01*
X67693550Y-90712314D01*
X67598878Y-90575158D01*
X67598874Y-90575154D01*
X67471296Y-90462131D01*
X67472562Y-90460701D01*
X67449935Y-90425676D01*
X67457289Y-90383183D01*
X67535768Y-90247253D01*
X67535778Y-90247236D01*
X67619263Y-90045687D01*
X67671192Y-89851885D01*
X67675724Y-89834970D01*
X67675724Y-89834969D01*
X67675725Y-89834966D01*
X67704200Y-89618677D01*
X67704200Y-89400523D01*
X67675725Y-89184234D01*
X67619263Y-88973513D01*
X67586677Y-88894845D01*
X68871600Y-88894845D01*
X68871600Y-89057554D01*
X68903341Y-89217133D01*
X68903342Y-89217136D01*
X68965608Y-89367458D01*
X68965609Y-89367460D01*
X68987698Y-89400518D01*
X69056004Y-89502745D01*
X69171055Y-89617796D01*
X69306342Y-89708192D01*
X69456665Y-89770458D01*
X69616246Y-89802200D01*
X69778954Y-89802200D01*
X69938535Y-89770458D01*
X70088858Y-89708192D01*
X70224145Y-89617796D01*
X70339196Y-89502745D01*
X70429592Y-89367458D01*
X70491858Y-89217135D01*
X70523600Y-89057554D01*
X70523600Y-88894846D01*
X70491858Y-88735265D01*
X70429592Y-88584942D01*
X70339196Y-88449655D01*
X70224145Y-88334604D01*
X70224144Y-88334603D01*
X70088860Y-88244209D01*
X70088858Y-88244208D01*
X69938536Y-88181942D01*
X69938533Y-88181941D01*
X69778954Y-88150200D01*
X69616246Y-88150200D01*
X69456666Y-88181941D01*
X69456663Y-88181942D01*
X69306341Y-88244208D01*
X69306339Y-88244209D01*
X69171055Y-88334603D01*
X69056003Y-88449655D01*
X68965609Y-88584939D01*
X68965608Y-88584941D01*
X68903342Y-88735263D01*
X68903341Y-88735266D01*
X68871600Y-88894845D01*
X67586677Y-88894845D01*
X67535778Y-88771964D01*
X67426701Y-88583036D01*
X67293897Y-88409962D01*
X67139638Y-88255703D01*
X67139634Y-88255700D01*
X67139632Y-88255698D01*
X66966561Y-88122897D01*
X66777642Y-88013825D01*
X66777630Y-88013819D01*
X66576093Y-87930339D01*
X66576075Y-87930333D01*
X66365370Y-87873875D01*
X66149081Y-87845400D01*
X66149077Y-87845400D01*
X65930923Y-87845400D01*
X65930918Y-87845400D01*
X65714630Y-87873875D01*
X65714629Y-87873875D01*
X65503924Y-87930333D01*
X65503906Y-87930339D01*
X65302369Y-88013819D01*
X65302357Y-88013825D01*
X65113438Y-88122897D01*
X64940367Y-88255698D01*
X64940357Y-88255707D01*
X64786107Y-88409957D01*
X64786098Y-88409967D01*
X64653297Y-88583038D01*
X64544225Y-88771957D01*
X64544219Y-88771969D01*
X64460739Y-88973506D01*
X64460733Y-88973524D01*
X64404275Y-89184229D01*
X64404275Y-89184230D01*
X64375800Y-89400518D01*
X63903783Y-89400518D01*
X63906831Y-89373468D01*
X63887593Y-89202722D01*
X63856213Y-89113043D01*
X63856213Y-89071759D01*
X63861184Y-89057554D01*
X63891413Y-88971166D01*
X63910651Y-88800420D01*
X63910220Y-88796599D01*
X63891413Y-88629675D01*
X63855592Y-88527306D01*
X63855593Y-88486020D01*
X63885682Y-88400032D01*
X63885682Y-88400031D01*
X63885683Y-88400029D01*
X63904921Y-88229283D01*
X63904275Y-88223553D01*
X63885683Y-88058538D01*
X63870035Y-88013819D01*
X63828932Y-87896353D01*
X63825332Y-87890623D01*
X63737516Y-87750865D01*
X63616013Y-87629362D01*
X63470530Y-87537949D01*
X63470528Y-87537948D01*
X63470526Y-87537947D01*
X63362403Y-87500113D01*
X63308340Y-87481195D01*
X63137596Y-87461958D01*
X62966850Y-87481196D01*
X62877036Y-87512622D01*
X62835752Y-87512622D01*
X62729564Y-87475466D01*
X62558818Y-87456228D01*
X62388073Y-87475465D01*
X62281887Y-87512622D01*
X62225888Y-87532217D01*
X62225887Y-87532217D01*
X62225883Y-87532219D01*
X62080400Y-87623632D01*
X61958897Y-87745135D01*
X61867484Y-87890618D01*
X61810730Y-88052808D01*
X61791493Y-88223552D01*
X61791493Y-88223553D01*
X61810731Y-88394299D01*
X61841154Y-88481245D01*
X61841154Y-88522529D01*
X61805000Y-88625853D01*
X61804999Y-88625856D01*
X61785762Y-88796599D01*
X61785762Y-88796600D01*
X61804999Y-88967343D01*
X61805000Y-88967346D01*
X61836665Y-89057842D01*
X61836665Y-89099126D01*
X61803090Y-89195080D01*
X61803089Y-89195083D01*
X61783852Y-89365826D01*
X60452500Y-89365826D01*
X60452500Y-86232999D01*
X62326275Y-86232999D01*
X62326275Y-86233000D01*
X62345512Y-86403744D01*
X62345513Y-86403746D01*
X62402264Y-86565930D01*
X62402265Y-86565932D01*
X62402266Y-86565934D01*
X62493679Y-86711417D01*
X62615182Y-86832920D01*
X62760665Y-86924333D01*
X62760670Y-86924336D01*
X62922854Y-86981087D01*
X63093600Y-87000325D01*
X63264346Y-86981087D01*
X63426530Y-86924336D01*
X63572019Y-86832919D01*
X63693519Y-86711419D01*
X63784936Y-86565930D01*
X63841687Y-86403746D01*
X63860925Y-86233000D01*
X63841687Y-86062254D01*
X63784936Y-85900070D01*
X63693519Y-85754581D01*
X63572019Y-85633081D01*
X63572017Y-85633079D01*
X63426534Y-85541666D01*
X63426532Y-85541665D01*
X63426530Y-85541664D01*
X63318407Y-85503830D01*
X63264344Y-85484912D01*
X63093600Y-85465675D01*
X62922855Y-85484912D01*
X62805767Y-85525883D01*
X62760670Y-85541664D01*
X62760669Y-85541664D01*
X62760665Y-85541666D01*
X62615182Y-85633079D01*
X62493679Y-85754582D01*
X62402266Y-85900065D01*
X62345512Y-86062255D01*
X62326275Y-86232999D01*
X60452500Y-86232999D01*
X60452500Y-83693451D01*
X66163844Y-83693451D01*
X66163844Y-83693452D01*
X66183081Y-83864196D01*
X66201999Y-83918259D01*
X66239833Y-84026382D01*
X66239834Y-84026384D01*
X66239835Y-84026386D01*
X66331248Y-84171869D01*
X66452751Y-84293372D01*
X66598234Y-84384785D01*
X66598239Y-84384788D01*
X66760423Y-84441539D01*
X66931169Y-84460777D01*
X67101915Y-84441539D01*
X67264099Y-84384788D01*
X67409588Y-84293371D01*
X67531088Y-84171871D01*
X67622505Y-84026382D01*
X67679256Y-83864198D01*
X67698494Y-83693452D01*
X67684133Y-83565996D01*
X69514259Y-83565996D01*
X69514259Y-83566003D01*
X69534346Y-83731441D01*
X69534347Y-83731444D01*
X69534348Y-83731449D01*
X69584693Y-83864196D01*
X69593449Y-83887285D01*
X69688121Y-84024441D01*
X69688125Y-84024445D01*
X69690316Y-84026386D01*
X69812874Y-84134962D01*
X69960447Y-84212415D01*
X70122268Y-84252300D01*
X70122270Y-84252300D01*
X70288930Y-84252300D01*
X70288932Y-84252300D01*
X70450753Y-84212415D01*
X70598326Y-84134962D01*
X70723076Y-84024444D01*
X70817752Y-83887282D01*
X70876852Y-83731449D01*
X70896941Y-83566000D01*
X70891684Y-83522707D01*
X70876853Y-83400558D01*
X70876852Y-83400555D01*
X70876852Y-83400551D01*
X70817752Y-83244718D01*
X70817750Y-83244716D01*
X70817750Y-83244714D01*
X70723078Y-83107558D01*
X70723074Y-83107554D01*
X70598325Y-82997037D01*
X70450754Y-82919585D01*
X70288934Y-82879700D01*
X70288932Y-82879700D01*
X70122268Y-82879700D01*
X70122265Y-82879700D01*
X69960445Y-82919585D01*
X69812874Y-82997037D01*
X69688125Y-83107554D01*
X69688121Y-83107558D01*
X69593449Y-83244714D01*
X69573208Y-83298087D01*
X69534348Y-83400551D01*
X69534347Y-83400553D01*
X69534347Y-83400555D01*
X69534346Y-83400558D01*
X69514259Y-83565996D01*
X67684133Y-83565996D01*
X67679256Y-83522706D01*
X67622505Y-83360522D01*
X67622502Y-83360517D01*
X67531089Y-83215034D01*
X67409586Y-83093531D01*
X67264103Y-83002118D01*
X67264101Y-83002117D01*
X67264099Y-83002116D01*
X67136998Y-82957641D01*
X67101913Y-82945364D01*
X66931169Y-82926127D01*
X66760424Y-82945364D01*
X66643336Y-82986335D01*
X66598239Y-83002116D01*
X66598238Y-83002116D01*
X66598234Y-83002118D01*
X66452751Y-83093531D01*
X66331248Y-83215034D01*
X66239835Y-83360517D01*
X66183081Y-83522707D01*
X66163844Y-83693451D01*
X60452500Y-83693451D01*
X60452500Y-81914999D01*
X61462675Y-81914999D01*
X61462675Y-81915000D01*
X61481913Y-82085745D01*
X61526041Y-82211858D01*
X61526041Y-82253142D01*
X61481913Y-82379254D01*
X61462675Y-82549999D01*
X61462675Y-82550000D01*
X61481912Y-82720744D01*
X61481913Y-82720746D01*
X61538664Y-82882930D01*
X61538665Y-82882932D01*
X61538666Y-82882934D01*
X61630079Y-83028417D01*
X61751582Y-83149920D01*
X61897065Y-83241333D01*
X61897070Y-83241336D01*
X62059254Y-83298087D01*
X62230000Y-83317325D01*
X62400746Y-83298087D01*
X62526858Y-83253958D01*
X62568142Y-83253958D01*
X62694254Y-83298087D01*
X62865000Y-83317325D01*
X63035746Y-83298087D01*
X63161858Y-83253958D01*
X63203142Y-83253958D01*
X63329254Y-83298087D01*
X63500000Y-83317325D01*
X63670746Y-83298087D01*
X63832930Y-83241336D01*
X63978419Y-83149919D01*
X64099919Y-83028419D01*
X64191336Y-82882930D01*
X64248087Y-82720746D01*
X64267325Y-82550000D01*
X64261601Y-82499196D01*
X64510459Y-82499196D01*
X64510459Y-82499203D01*
X64530546Y-82664641D01*
X64530547Y-82664644D01*
X64530548Y-82664649D01*
X64551823Y-82720746D01*
X64589649Y-82820485D01*
X64684321Y-82957641D01*
X64684324Y-82957644D01*
X64809074Y-83068162D01*
X64956647Y-83145615D01*
X65118468Y-83185500D01*
X65118470Y-83185500D01*
X65285130Y-83185500D01*
X65285132Y-83185500D01*
X65446953Y-83145615D01*
X65594526Y-83068162D01*
X65719276Y-82957644D01*
X65813952Y-82820482D01*
X65873052Y-82664649D01*
X65893141Y-82499200D01*
X65873052Y-82333751D01*
X65813952Y-82177918D01*
X65813950Y-82177916D01*
X65813950Y-82177914D01*
X65719278Y-82040758D01*
X65719274Y-82040754D01*
X65594525Y-81930237D01*
X65446954Y-81852785D01*
X65285134Y-81812900D01*
X65285132Y-81812900D01*
X65118468Y-81812900D01*
X65118465Y-81812900D01*
X64956645Y-81852785D01*
X64809074Y-81930237D01*
X64684325Y-82040754D01*
X64684321Y-82040758D01*
X64589649Y-82177914D01*
X64576776Y-82211858D01*
X64530548Y-82333751D01*
X64530547Y-82333753D01*
X64530547Y-82333755D01*
X64530546Y-82333758D01*
X64510459Y-82499196D01*
X64261601Y-82499196D01*
X64248087Y-82379254D01*
X64203958Y-82253141D01*
X64203958Y-82211857D01*
X64215834Y-82177918D01*
X64248087Y-82085746D01*
X64267325Y-81915000D01*
X64248087Y-81744254D01*
X64191336Y-81582070D01*
X64099919Y-81436581D01*
X63978419Y-81315081D01*
X63978417Y-81315079D01*
X63832934Y-81223666D01*
X63832932Y-81223665D01*
X63832930Y-81223664D01*
X63724807Y-81185830D01*
X63670744Y-81166912D01*
X63500000Y-81147675D01*
X63329254Y-81166913D01*
X63203142Y-81211041D01*
X63161858Y-81211041D01*
X63035746Y-81166913D01*
X62865000Y-81147675D01*
X62694254Y-81166913D01*
X62568142Y-81211041D01*
X62526858Y-81211041D01*
X62400746Y-81166913D01*
X62230000Y-81147675D01*
X62059255Y-81166912D01*
X61942167Y-81207883D01*
X61897070Y-81223664D01*
X61897069Y-81223664D01*
X61897065Y-81223666D01*
X61751582Y-81315079D01*
X61630079Y-81436582D01*
X61538666Y-81582065D01*
X61481912Y-81744255D01*
X61462675Y-81914999D01*
X60452500Y-81914999D01*
X60452500Y-78766791D01*
X60452500Y-78766785D01*
X60417724Y-78502633D01*
X60417723Y-78502629D01*
X60417723Y-78502627D01*
X60403621Y-78449996D01*
X66476659Y-78449996D01*
X66476659Y-78450003D01*
X66496746Y-78615441D01*
X66496747Y-78615444D01*
X66496748Y-78615449D01*
X66537779Y-78723639D01*
X66555849Y-78771285D01*
X66650521Y-78908441D01*
X66650525Y-78908445D01*
X66765850Y-79010613D01*
X66786791Y-79053621D01*
X66771187Y-79098840D01*
X66765850Y-79104177D01*
X66690925Y-79170554D01*
X66690921Y-79170558D01*
X66596249Y-79307714D01*
X66566698Y-79385634D01*
X66537148Y-79463551D01*
X66537147Y-79463553D01*
X66537147Y-79463555D01*
X66537146Y-79463558D01*
X66517059Y-79628996D01*
X66517059Y-79629003D01*
X66537146Y-79794441D01*
X66537147Y-79794444D01*
X66537148Y-79794449D01*
X66588375Y-79929523D01*
X66596249Y-79950285D01*
X66690921Y-80087441D01*
X66690924Y-80087444D01*
X66815674Y-80197962D01*
X66963247Y-80275415D01*
X67125068Y-80315300D01*
X67125070Y-80315300D01*
X67291730Y-80315300D01*
X67291732Y-80315300D01*
X67453553Y-80275415D01*
X67601126Y-80197962D01*
X67725876Y-80087444D01*
X67820552Y-79950282D01*
X67879652Y-79794449D01*
X67899741Y-79629000D01*
X67879652Y-79463551D01*
X67820552Y-79307718D01*
X67769877Y-79234303D01*
X67759839Y-79187534D01*
X67785811Y-79147363D01*
X67821315Y-79136300D01*
X67901330Y-79136300D01*
X67901332Y-79136300D01*
X68063153Y-79096415D01*
X68210726Y-79018962D01*
X68335476Y-78908444D01*
X68430152Y-78771282D01*
X68489252Y-78615449D01*
X68496876Y-78552661D01*
X68509341Y-78450003D01*
X68509341Y-78449996D01*
X68489253Y-78284558D01*
X68489252Y-78284555D01*
X68489252Y-78284551D01*
X68430152Y-78128718D01*
X68430150Y-78128716D01*
X68430150Y-78128714D01*
X68376095Y-78050403D01*
X68366055Y-78003633D01*
X68386085Y-77968118D01*
X68395753Y-77959553D01*
X68440971Y-77943951D01*
X68478641Y-77959555D01*
X68568274Y-78038962D01*
X68715847Y-78116415D01*
X68877668Y-78156300D01*
X68877670Y-78156300D01*
X69044330Y-78156300D01*
X69044332Y-78156300D01*
X69206153Y-78116415D01*
X69353726Y-78038962D01*
X69478476Y-77928444D01*
X69573152Y-77791282D01*
X69632252Y-77635449D01*
X69641775Y-77557018D01*
X69652341Y-77470003D01*
X69652341Y-77469996D01*
X69632253Y-77304558D01*
X69632252Y-77304555D01*
X69632252Y-77304551D01*
X69573152Y-77148718D01*
X69573150Y-77148716D01*
X69573150Y-77148714D01*
X69478478Y-77011558D01*
X69478474Y-77011554D01*
X69353725Y-76901037D01*
X69206154Y-76823585D01*
X69044334Y-76783700D01*
X69044332Y-76783700D01*
X68877668Y-76783700D01*
X68877665Y-76783700D01*
X68715845Y-76823585D01*
X68568275Y-76901037D01*
X68510246Y-76952445D01*
X68465027Y-76968048D01*
X68427358Y-76952444D01*
X68351357Y-76885114D01*
X68337725Y-76873037D01*
X68190154Y-76795585D01*
X68028334Y-76755700D01*
X68028332Y-76755700D01*
X67861668Y-76755700D01*
X67861665Y-76755700D01*
X67699845Y-76795585D01*
X67552274Y-76873037D01*
X67427525Y-76983554D01*
X67427521Y-76983558D01*
X67332849Y-77120714D01*
X67322230Y-77148714D01*
X67273748Y-77276551D01*
X67273747Y-77276553D01*
X67273747Y-77276555D01*
X67273746Y-77276558D01*
X67253659Y-77441996D01*
X67253659Y-77442003D01*
X67273746Y-77607441D01*
X67273747Y-77607445D01*
X67273747Y-77607446D01*
X67273748Y-77607449D01*
X67284367Y-77635449D01*
X67300898Y-77679037D01*
X67299453Y-77726851D01*
X67264622Y-77759639D01*
X67242459Y-77763700D01*
X67084665Y-77763700D01*
X66922845Y-77803585D01*
X66775274Y-77881037D01*
X66650525Y-77991554D01*
X66650521Y-77991558D01*
X66555849Y-78128714D01*
X66545388Y-78156299D01*
X66496748Y-78284551D01*
X66496747Y-78284553D01*
X66496747Y-78284555D01*
X66496746Y-78284558D01*
X66476659Y-78449996D01*
X60403621Y-78449996D01*
X60348770Y-78245286D01*
X60348769Y-78245283D01*
X60348749Y-78245235D01*
X60246810Y-77999130D01*
X60113596Y-77768393D01*
X59951405Y-77557018D01*
X59763012Y-77368621D01*
X59763007Y-77368617D01*
X59763004Y-77368614D01*
X59551647Y-77206431D01*
X59551637Y-77206424D01*
X59320910Y-77073209D01*
X59320901Y-77073205D01*
X59074758Y-76971245D01*
X59074754Y-76971244D01*
X59074752Y-76971243D01*
X58817409Y-76902284D01*
X58553259Y-76867503D01*
X58553249Y-76867502D01*
X58490071Y-76867501D01*
X58490049Y-76867500D01*
X58486975Y-76867500D01*
X58420040Y-76867500D01*
X58353095Y-76867499D01*
X58353094Y-76867499D01*
X58349271Y-76867499D01*
X58349255Y-76867500D01*
X51970628Y-76867500D01*
X51970599Y-76867498D01*
X51966260Y-76867498D01*
X51961994Y-76867498D01*
X51903081Y-76867499D01*
X51895577Y-76867047D01*
X51785819Y-76853774D01*
X51771241Y-76850195D01*
X51671360Y-76812475D01*
X51658056Y-76805525D01*
X51570050Y-76745080D01*
X51558787Y-76735157D01*
X51487731Y-76655471D01*
X51479159Y-76643149D01*
X51429152Y-76548821D01*
X51423765Y-76534811D01*
X51421286Y-76524968D01*
X51397690Y-76431276D01*
X51395799Y-76416398D01*
X51395140Y-76306100D01*
X51395604Y-76298141D01*
X51675865Y-74015596D01*
X53207459Y-74015596D01*
X53207459Y-74015603D01*
X53227546Y-74181041D01*
X53227547Y-74181044D01*
X53227548Y-74181049D01*
X53270764Y-74294999D01*
X53286649Y-74336885D01*
X53381321Y-74474041D01*
X53381324Y-74474044D01*
X53506074Y-74584562D01*
X53653647Y-74662015D01*
X53687299Y-74670309D01*
X53725829Y-74698659D01*
X53730781Y-74708830D01*
X53743847Y-74743281D01*
X53838521Y-74880441D01*
X53838524Y-74880444D01*
X53902322Y-74936963D01*
X53923263Y-74979971D01*
X53907659Y-75025190D01*
X53902326Y-75030524D01*
X53897324Y-75034955D01*
X53897321Y-75034958D01*
X53802649Y-75172114D01*
X53790618Y-75203838D01*
X53743548Y-75327951D01*
X53743547Y-75327953D01*
X53743547Y-75327955D01*
X53743546Y-75327958D01*
X53723459Y-75493396D01*
X53723459Y-75493403D01*
X53743546Y-75658841D01*
X53743547Y-75658844D01*
X53743548Y-75658849D01*
X53781166Y-75758038D01*
X53802649Y-75814685D01*
X53897321Y-75951841D01*
X53897325Y-75951845D01*
X54022074Y-76062362D01*
X54127314Y-76117597D01*
X54169647Y-76139815D01*
X54331468Y-76179700D01*
X54438123Y-76179700D01*
X54479568Y-76195418D01*
X54530074Y-76240162D01*
X54668882Y-76313015D01*
X54677647Y-76317615D01*
X54839468Y-76357500D01*
X54839470Y-76357500D01*
X55006132Y-76357500D01*
X55067665Y-76342333D01*
X55114956Y-76349530D01*
X55124067Y-76356234D01*
X55165074Y-76392562D01*
X55312647Y-76470015D01*
X55474468Y-76509900D01*
X55474470Y-76509900D01*
X55641130Y-76509900D01*
X55641132Y-76509900D01*
X55802953Y-76470015D01*
X55877828Y-76430715D01*
X55921830Y-76425372D01*
X56058668Y-76459100D01*
X56225330Y-76459100D01*
X56225332Y-76459100D01*
X56387153Y-76419215D01*
X56534726Y-76341762D01*
X56551393Y-76326996D01*
X63187659Y-76326996D01*
X63187659Y-76327003D01*
X63207746Y-76492441D01*
X63207747Y-76492444D01*
X63207748Y-76492449D01*
X63258975Y-76627523D01*
X63266849Y-76648285D01*
X63361521Y-76785441D01*
X63361524Y-76785444D01*
X63381146Y-76802827D01*
X63402088Y-76845835D01*
X63391139Y-76885113D01*
X63296848Y-77021718D01*
X63237748Y-77177551D01*
X63237747Y-77177553D01*
X63237747Y-77177555D01*
X63237746Y-77177558D01*
X63217659Y-77342996D01*
X63217659Y-77343003D01*
X63237746Y-77508441D01*
X63237747Y-77508444D01*
X63237748Y-77508449D01*
X63275294Y-77607449D01*
X63296849Y-77664285D01*
X63391521Y-77801441D01*
X63391525Y-77801445D01*
X63516274Y-77911962D01*
X63623265Y-77968116D01*
X63663847Y-77989415D01*
X63825668Y-78029300D01*
X63825670Y-78029300D01*
X63992330Y-78029300D01*
X63992332Y-78029300D01*
X64154153Y-77989415D01*
X64301726Y-77911962D01*
X64426476Y-77801444D01*
X64521152Y-77664282D01*
X64580252Y-77508449D01*
X64588321Y-77441996D01*
X64600341Y-77343003D01*
X64600341Y-77342996D01*
X64580253Y-77177558D01*
X64580252Y-77177555D01*
X64580252Y-77177551D01*
X64521152Y-77021718D01*
X64521150Y-77021716D01*
X64521150Y-77021714D01*
X64426478Y-76884558D01*
X64413473Y-76873037D01*
X64406851Y-76867170D01*
X64385912Y-76824162D01*
X64396862Y-76784885D01*
X64428602Y-76738901D01*
X64491152Y-76648282D01*
X64530068Y-76545670D01*
X64539714Y-76520237D01*
X64572501Y-76485406D01*
X64598152Y-76479900D01*
X64726330Y-76479900D01*
X64726332Y-76479900D01*
X64888153Y-76440015D01*
X65035726Y-76362562D01*
X65160476Y-76252044D01*
X65255152Y-76114882D01*
X65314252Y-75959049D01*
X65325240Y-75868554D01*
X65334341Y-75793603D01*
X65334341Y-75793596D01*
X65314253Y-75628158D01*
X65314252Y-75628155D01*
X65314252Y-75628151D01*
X65255152Y-75472318D01*
X65255150Y-75472316D01*
X65255150Y-75472314D01*
X65160478Y-75335158D01*
X65160474Y-75335154D01*
X65035725Y-75224637D01*
X64888154Y-75147185D01*
X64726334Y-75107300D01*
X64726332Y-75107300D01*
X64559668Y-75107300D01*
X64559665Y-75107300D01*
X64397845Y-75147185D01*
X64250274Y-75224637D01*
X64125525Y-75335154D01*
X64125521Y-75335158D01*
X64030847Y-75472318D01*
X63982286Y-75600363D01*
X63949499Y-75635194D01*
X63923848Y-75640700D01*
X63795665Y-75640700D01*
X63633845Y-75680585D01*
X63486274Y-75758037D01*
X63361525Y-75868554D01*
X63361521Y-75868558D01*
X63266849Y-76005714D01*
X63245366Y-76062362D01*
X63207748Y-76161551D01*
X63207747Y-76161553D01*
X63207747Y-76161555D01*
X63207746Y-76161558D01*
X63187659Y-76326996D01*
X56551393Y-76326996D01*
X56659476Y-76231244D01*
X56732780Y-76125045D01*
X56754150Y-76094085D01*
X56754150Y-76094084D01*
X56754152Y-76094082D01*
X56813252Y-75938249D01*
X56821714Y-75868556D01*
X56833341Y-75772803D01*
X56833341Y-75772796D01*
X56813253Y-75607358D01*
X56813252Y-75607356D01*
X56813252Y-75607351D01*
X56812182Y-75604529D01*
X56813626Y-75556716D01*
X56848456Y-75523928D01*
X56896270Y-75525372D01*
X56912065Y-75535584D01*
X57019274Y-75630562D01*
X57163796Y-75706414D01*
X57166847Y-75708015D01*
X57328668Y-75747900D01*
X57328670Y-75747900D01*
X57495330Y-75747900D01*
X57495332Y-75747900D01*
X57657153Y-75708015D01*
X57804726Y-75630562D01*
X57929476Y-75520044D01*
X58024152Y-75382882D01*
X58083252Y-75227049D01*
X58086070Y-75203838D01*
X58103341Y-75061603D01*
X58103341Y-75061596D01*
X58083253Y-74896158D01*
X58083251Y-74896147D01*
X58031209Y-74758925D01*
X58032653Y-74711111D01*
X58067484Y-74678324D01*
X58074675Y-74676082D01*
X58131753Y-74662015D01*
X58279326Y-74584562D01*
X58404076Y-74474044D01*
X58498752Y-74336882D01*
X58557852Y-74181049D01*
X58571365Y-74069758D01*
X58577941Y-74015603D01*
X58577941Y-74015596D01*
X58557853Y-73850158D01*
X58557852Y-73850155D01*
X58557852Y-73850151D01*
X58498752Y-73694318D01*
X58498750Y-73694316D01*
X58498750Y-73694314D01*
X58404078Y-73557158D01*
X58404074Y-73557154D01*
X58348703Y-73508100D01*
X58279326Y-73446638D01*
X58276895Y-73445362D01*
X58256091Y-73434442D01*
X58225467Y-73397694D01*
X58229798Y-73350055D01*
X58243690Y-73332322D01*
X58302476Y-73280244D01*
X58397152Y-73143082D01*
X58441935Y-73025000D01*
X61335675Y-73025000D01*
X61354913Y-73195746D01*
X61379479Y-73265951D01*
X61399041Y-73321858D01*
X61399041Y-73363142D01*
X61375158Y-73431396D01*
X61354913Y-73489254D01*
X61335675Y-73660000D01*
X61354913Y-73830746D01*
X61362380Y-73852085D01*
X61399041Y-73956858D01*
X61399041Y-73998142D01*
X61354913Y-74124254D01*
X61335675Y-74294999D01*
X61335675Y-74295000D01*
X61354912Y-74465744D01*
X61357817Y-74474045D01*
X61411664Y-74627930D01*
X61411665Y-74627932D01*
X61411666Y-74627934D01*
X61503079Y-74773417D01*
X61624582Y-74894920D01*
X61770065Y-74986333D01*
X61770070Y-74986336D01*
X61932254Y-75043087D01*
X62103000Y-75062325D01*
X62273746Y-75043087D01*
X62399858Y-74998958D01*
X62441142Y-74998958D01*
X62567254Y-75043087D01*
X62738000Y-75062325D01*
X62758671Y-75059996D01*
X66729659Y-75059996D01*
X66729659Y-75060003D01*
X66749746Y-75225441D01*
X66749747Y-75225444D01*
X66749748Y-75225449D01*
X66792016Y-75336900D01*
X66808849Y-75381285D01*
X66903521Y-75518441D01*
X66903525Y-75518445D01*
X67028274Y-75628962D01*
X67126632Y-75680585D01*
X67175847Y-75706415D01*
X67192970Y-75710635D01*
X67231500Y-75738984D01*
X67240058Y-75763785D01*
X67248346Y-75832042D01*
X67248347Y-75832043D01*
X67248348Y-75832049D01*
X67288622Y-75938241D01*
X67307449Y-75987885D01*
X67402121Y-76125041D01*
X67402124Y-76125044D01*
X67526874Y-76235562D01*
X67674447Y-76313015D01*
X67836268Y-76352900D01*
X67836270Y-76352900D01*
X68002930Y-76352900D01*
X68002932Y-76352900D01*
X68164753Y-76313015D01*
X68312326Y-76235562D01*
X68437076Y-76125044D01*
X68519441Y-76005718D01*
X68531750Y-75987885D01*
X68531750Y-75987884D01*
X68531752Y-75987882D01*
X68590852Y-75832049D01*
X68595521Y-75793600D01*
X68599054Y-75764497D01*
X68622552Y-75722832D01*
X68646135Y-75711348D01*
X68666153Y-75706415D01*
X68813726Y-75628962D01*
X68938476Y-75518444D01*
X69033152Y-75381282D01*
X69092252Y-75225449D01*
X69092253Y-75225441D01*
X69112341Y-75060003D01*
X69112341Y-75059996D01*
X69092253Y-74894558D01*
X69092252Y-74894555D01*
X69092252Y-74894551D01*
X69033152Y-74738718D01*
X69033150Y-74738716D01*
X69033150Y-74738714D01*
X68938478Y-74601558D01*
X68938474Y-74601554D01*
X68813725Y-74491037D01*
X68666154Y-74413585D01*
X68504334Y-74373700D01*
X68504332Y-74373700D01*
X68337668Y-74373700D01*
X68337665Y-74373700D01*
X68175845Y-74413585D01*
X68028274Y-74491037D01*
X67962445Y-74549356D01*
X67917226Y-74564960D01*
X67879555Y-74549356D01*
X67849625Y-74522841D01*
X67813726Y-74491038D01*
X67813724Y-74491037D01*
X67813725Y-74491037D01*
X67666154Y-74413585D01*
X67504334Y-74373700D01*
X67504332Y-74373700D01*
X67337668Y-74373700D01*
X67337665Y-74373700D01*
X67175845Y-74413585D01*
X67028274Y-74491037D01*
X66903525Y-74601554D01*
X66903521Y-74601558D01*
X66808849Y-74738714D01*
X66794532Y-74776465D01*
X66749748Y-74894551D01*
X66749747Y-74894553D01*
X66749747Y-74894555D01*
X66749746Y-74894558D01*
X66729659Y-75059996D01*
X62758671Y-75059996D01*
X62908746Y-75043087D01*
X63070930Y-74986336D01*
X63216419Y-74894919D01*
X63337919Y-74773419D01*
X63429336Y-74627930D01*
X63486087Y-74465746D01*
X63505325Y-74295000D01*
X63486087Y-74124254D01*
X63441958Y-73998141D01*
X63441958Y-73956857D01*
X63462219Y-73898955D01*
X63486087Y-73830746D01*
X63505325Y-73660000D01*
X63486087Y-73489254D01*
X63441958Y-73363141D01*
X63441958Y-73321857D01*
X63442801Y-73319449D01*
X63486087Y-73195746D01*
X63490791Y-73153996D01*
X69031659Y-73153996D01*
X69031659Y-73154003D01*
X69051746Y-73319441D01*
X69051747Y-73319444D01*
X69051748Y-73319449D01*
X69098535Y-73442815D01*
X69110849Y-73475285D01*
X69205521Y-73612441D01*
X69205527Y-73612448D01*
X69206400Y-73613221D01*
X69206628Y-73613691D01*
X69208032Y-73615275D01*
X69207590Y-73615666D01*
X69227338Y-73656230D01*
X69211731Y-73701448D01*
X69206400Y-73706779D01*
X69205527Y-73707551D01*
X69205521Y-73707558D01*
X69110849Y-73844714D01*
X69090277Y-73898958D01*
X69051748Y-74000551D01*
X69051747Y-74000553D01*
X69051747Y-74000555D01*
X69051746Y-74000558D01*
X69031659Y-74165996D01*
X69031659Y-74166003D01*
X69051746Y-74331441D01*
X69051747Y-74331444D01*
X69051748Y-74331449D01*
X69102680Y-74465744D01*
X69110849Y-74487285D01*
X69205521Y-74624441D01*
X69205524Y-74624444D01*
X69330274Y-74734962D01*
X69477847Y-74812415D01*
X69639668Y-74852300D01*
X69639670Y-74852300D01*
X69806330Y-74852300D01*
X69806332Y-74852300D01*
X69903315Y-74828396D01*
X74594259Y-74828396D01*
X74594259Y-74828403D01*
X74614346Y-74993841D01*
X74614347Y-74993844D01*
X74614348Y-74993849D01*
X74655455Y-75102238D01*
X74673449Y-75149685D01*
X74768121Y-75286841D01*
X74768125Y-75286845D01*
X74814529Y-75327955D01*
X74892874Y-75397362D01*
X75040447Y-75474815D01*
X75202268Y-75514700D01*
X75202270Y-75514700D01*
X75368930Y-75514700D01*
X75368932Y-75514700D01*
X75530753Y-75474815D01*
X75678326Y-75397362D01*
X75728832Y-75352618D01*
X75770277Y-75336900D01*
X75842323Y-75336900D01*
X75883768Y-75352618D01*
X75934274Y-75397362D01*
X76081847Y-75474815D01*
X76243668Y-75514700D01*
X76243670Y-75514700D01*
X76410330Y-75514700D01*
X76410332Y-75514700D01*
X76572153Y-75474815D01*
X76719726Y-75397362D01*
X76844476Y-75286844D01*
X76939152Y-75149682D01*
X76998252Y-74993849D01*
X77005804Y-74931654D01*
X77018341Y-74828403D01*
X77018341Y-74828396D01*
X76998253Y-74662958D01*
X76998252Y-74662955D01*
X76998252Y-74662951D01*
X76939152Y-74507118D01*
X76939150Y-74507116D01*
X76939150Y-74507114D01*
X76844478Y-74369958D01*
X76844474Y-74369954D01*
X76719725Y-74259437D01*
X76572154Y-74181985D01*
X76410334Y-74142100D01*
X76410332Y-74142100D01*
X76303677Y-74142100D01*
X76262232Y-74126382D01*
X76211725Y-74081637D01*
X76064154Y-74004185D01*
X75902334Y-73964300D01*
X75902332Y-73964300D01*
X75735668Y-73964300D01*
X75735665Y-73964300D01*
X75573845Y-74004185D01*
X75426274Y-74081637D01*
X75375768Y-74126382D01*
X75334323Y-74142100D01*
X75202265Y-74142100D01*
X75040445Y-74181985D01*
X74892874Y-74259437D01*
X74768125Y-74369954D01*
X74768121Y-74369958D01*
X74673449Y-74507114D01*
X74665451Y-74528203D01*
X74614348Y-74662951D01*
X74614347Y-74662953D01*
X74614347Y-74662955D01*
X74614346Y-74662958D01*
X74594259Y-74828396D01*
X69903315Y-74828396D01*
X69968153Y-74812415D01*
X70115726Y-74734962D01*
X70240476Y-74624444D01*
X70335152Y-74487282D01*
X70394252Y-74331449D01*
X70402996Y-74259437D01*
X70414341Y-74166003D01*
X70414341Y-74165996D01*
X70394253Y-74000558D01*
X70394252Y-74000555D01*
X70394252Y-74000551D01*
X70335152Y-73844718D01*
X70240476Y-73707556D01*
X70239604Y-73706783D01*
X70239375Y-73706314D01*
X70237971Y-73704729D01*
X70238413Y-73704337D01*
X70218661Y-73663778D01*
X70234262Y-73618558D01*
X70239599Y-73613220D01*
X70240476Y-73612444D01*
X70335152Y-73475282D01*
X70394252Y-73319449D01*
X70402096Y-73254845D01*
X70414341Y-73154003D01*
X70414341Y-73153996D01*
X70394253Y-72988558D01*
X70394252Y-72988555D01*
X70394252Y-72988551D01*
X70335152Y-72832718D01*
X70335150Y-72832716D01*
X70335150Y-72832714D01*
X70327614Y-72821796D01*
X73629059Y-72821796D01*
X73629059Y-72821803D01*
X73649146Y-72987241D01*
X73649147Y-72987244D01*
X73649148Y-72987249D01*
X73688982Y-73092281D01*
X73708249Y-73143085D01*
X73802921Y-73280241D01*
X73802925Y-73280245D01*
X73927674Y-73390762D01*
X74032672Y-73445870D01*
X74075247Y-73468215D01*
X74237068Y-73508100D01*
X74237070Y-73508100D01*
X74403730Y-73508100D01*
X74403732Y-73508100D01*
X74565553Y-73468215D01*
X74608127Y-73445869D01*
X74655765Y-73441541D01*
X74659333Y-73442772D01*
X74659443Y-73442814D01*
X74659446Y-73442814D01*
X74659447Y-73442815D01*
X74821268Y-73482700D01*
X74821270Y-73482700D01*
X74987930Y-73482700D01*
X74987932Y-73482700D01*
X75149753Y-73442815D01*
X75297326Y-73365362D01*
X75422076Y-73254844D01*
X75516752Y-73117682D01*
X75575852Y-72961849D01*
X75588916Y-72854255D01*
X75595941Y-72796403D01*
X75595941Y-72796396D01*
X75592857Y-72770996D01*
X75991259Y-72770996D01*
X75991259Y-72771003D01*
X76011346Y-72936441D01*
X76011347Y-72936444D01*
X76011348Y-72936449D01*
X76031520Y-72989637D01*
X76070449Y-73092285D01*
X76165121Y-73229441D01*
X76165125Y-73229445D01*
X76193795Y-73254844D01*
X76289874Y-73339962D01*
X76437447Y-73417415D01*
X76599268Y-73457300D01*
X76599270Y-73457300D01*
X76765930Y-73457300D01*
X76765932Y-73457300D01*
X76927753Y-73417415D01*
X76932950Y-73414686D01*
X76980588Y-73410353D01*
X76991043Y-73414683D01*
X76996247Y-73417415D01*
X77158068Y-73457300D01*
X77158070Y-73457300D01*
X77324730Y-73457300D01*
X77324732Y-73457300D01*
X77486553Y-73417415D01*
X77634126Y-73339962D01*
X77758876Y-73229444D01*
X77853552Y-73092282D01*
X77879069Y-73025000D01*
X77892481Y-72989637D01*
X77925268Y-72954806D01*
X77950919Y-72949300D01*
X78010530Y-72949300D01*
X78010532Y-72949300D01*
X78172353Y-72909415D01*
X78319926Y-72831962D01*
X78444676Y-72721444D01*
X78539352Y-72584282D01*
X78598452Y-72428449D01*
X78598861Y-72425079D01*
X78618541Y-72263003D01*
X78618541Y-72262996D01*
X78598453Y-72097558D01*
X78598452Y-72097555D01*
X78598452Y-72097551D01*
X78539352Y-71941718D01*
X78539350Y-71941716D01*
X78539350Y-71941714D01*
X78444678Y-71804558D01*
X78444674Y-71804554D01*
X78319925Y-71694037D01*
X78172354Y-71616585D01*
X78010534Y-71576700D01*
X78010532Y-71576700D01*
X77843868Y-71576700D01*
X77843865Y-71576700D01*
X77682045Y-71616585D01*
X77534474Y-71694037D01*
X77409725Y-71804554D01*
X77409721Y-71804558D01*
X77315047Y-71941718D01*
X77276119Y-72044363D01*
X77243332Y-72079194D01*
X77217681Y-72084700D01*
X77158065Y-72084700D01*
X76996246Y-72124585D01*
X76991043Y-72127316D01*
X76943404Y-72131643D01*
X76932957Y-72127316D01*
X76927753Y-72124585D01*
X76765934Y-72084700D01*
X76765932Y-72084700D01*
X76599268Y-72084700D01*
X76599265Y-72084700D01*
X76437445Y-72124585D01*
X76289874Y-72202037D01*
X76165125Y-72312554D01*
X76165121Y-72312558D01*
X76070449Y-72449714D01*
X76051182Y-72500518D01*
X76011348Y-72605551D01*
X76011347Y-72605553D01*
X76011347Y-72605555D01*
X76011346Y-72605558D01*
X75991259Y-72770996D01*
X75592857Y-72770996D01*
X75575853Y-72630958D01*
X75575852Y-72630955D01*
X75575852Y-72630951D01*
X75516752Y-72475118D01*
X75516750Y-72475116D01*
X75516750Y-72475114D01*
X75422078Y-72337958D01*
X75422074Y-72337954D01*
X75297325Y-72227437D01*
X75149754Y-72149985D01*
X74987934Y-72110100D01*
X74987932Y-72110100D01*
X74821268Y-72110100D01*
X74821265Y-72110100D01*
X74659448Y-72149984D01*
X74616870Y-72172330D01*
X74569230Y-72176657D01*
X74565668Y-72175428D01*
X74565558Y-72175386D01*
X74403734Y-72135500D01*
X74403732Y-72135500D01*
X74237068Y-72135500D01*
X74237065Y-72135500D01*
X74075245Y-72175385D01*
X73927674Y-72252837D01*
X73802925Y-72363354D01*
X73802921Y-72363358D01*
X73708249Y-72500514D01*
X73690778Y-72546582D01*
X73649148Y-72656351D01*
X73649147Y-72656353D01*
X73649147Y-72656355D01*
X73649146Y-72656358D01*
X73629059Y-72821796D01*
X70327614Y-72821796D01*
X70240478Y-72695558D01*
X70240474Y-72695554D01*
X70115725Y-72585037D01*
X69968154Y-72507585D01*
X69806334Y-72467700D01*
X69806332Y-72467700D01*
X69639668Y-72467700D01*
X69639665Y-72467700D01*
X69477845Y-72507585D01*
X69330274Y-72585037D01*
X69205525Y-72695554D01*
X69205521Y-72695558D01*
X69110849Y-72832714D01*
X69081761Y-72909414D01*
X69051748Y-72988551D01*
X69051747Y-72988553D01*
X69051747Y-72988555D01*
X69051746Y-72988558D01*
X69031659Y-73153996D01*
X63490791Y-73153996D01*
X63505325Y-73025000D01*
X63486087Y-72854254D01*
X63429336Y-72692070D01*
X63390935Y-72630955D01*
X63337920Y-72546582D01*
X63216417Y-72425079D01*
X63070934Y-72333666D01*
X63070932Y-72333665D01*
X63070930Y-72333664D01*
X62962807Y-72295830D01*
X62908744Y-72276912D01*
X62738000Y-72257675D01*
X62567254Y-72276913D01*
X62441142Y-72321041D01*
X62399858Y-72321041D01*
X62375614Y-72312558D01*
X62368769Y-72310162D01*
X62273746Y-72276913D01*
X62103000Y-72257675D01*
X61932255Y-72276912D01*
X61830393Y-72312556D01*
X61770070Y-72333664D01*
X61770069Y-72333664D01*
X61770065Y-72333666D01*
X61624582Y-72425079D01*
X61503079Y-72546582D01*
X61411666Y-72692065D01*
X61411664Y-72692069D01*
X61411664Y-72692070D01*
X61401387Y-72721441D01*
X61354912Y-72854255D01*
X61339781Y-72988555D01*
X61335675Y-73025000D01*
X58441935Y-73025000D01*
X58456252Y-72987249D01*
X58457987Y-72972958D01*
X58476341Y-72821803D01*
X58476341Y-72821796D01*
X58456253Y-72656358D01*
X58456252Y-72656355D01*
X58456252Y-72656351D01*
X58397152Y-72500518D01*
X58397150Y-72500516D01*
X58397150Y-72500514D01*
X58302478Y-72363358D01*
X58302474Y-72363354D01*
X58177725Y-72252837D01*
X58030154Y-72175385D01*
X57868334Y-72135500D01*
X57868332Y-72135500D01*
X57701668Y-72135500D01*
X57701665Y-72135500D01*
X57539845Y-72175385D01*
X57392274Y-72252837D01*
X57267525Y-72363354D01*
X57267521Y-72363358D01*
X57172849Y-72500514D01*
X57155378Y-72546582D01*
X57113748Y-72656351D01*
X57113747Y-72656353D01*
X57113747Y-72656355D01*
X57113746Y-72656358D01*
X57093659Y-72821796D01*
X57093659Y-72821803D01*
X57113746Y-72987241D01*
X57113747Y-72987244D01*
X57113748Y-72987249D01*
X57153582Y-73092281D01*
X57172849Y-73143085D01*
X57267521Y-73280241D01*
X57267525Y-73280245D01*
X57392275Y-73390763D01*
X57392277Y-73390764D01*
X57415507Y-73402957D01*
X57446131Y-73439704D01*
X57441801Y-73487343D01*
X57427906Y-73505079D01*
X57369125Y-73557154D01*
X57369121Y-73557158D01*
X57274447Y-73694318D01*
X57229222Y-73813564D01*
X57196434Y-73848395D01*
X57185742Y-73852085D01*
X57134319Y-73864759D01*
X57065247Y-73881785D01*
X57065246Y-73881785D01*
X57065244Y-73881786D01*
X56917674Y-73959237D01*
X56792925Y-74069754D01*
X56792921Y-74069758D01*
X56698249Y-74206914D01*
X56689554Y-74229841D01*
X56639148Y-74362751D01*
X56639147Y-74362753D01*
X56639147Y-74362755D01*
X56639146Y-74362758D01*
X56619059Y-74528196D01*
X56619059Y-74528203D01*
X56639146Y-74693641D01*
X56639147Y-74693644D01*
X56639148Y-74693649D01*
X56669401Y-74773419D01*
X56698249Y-74849485D01*
X56725743Y-74889316D01*
X56736351Y-74932353D01*
X56720659Y-75061597D01*
X56720659Y-75061603D01*
X56740746Y-75227041D01*
X56740748Y-75227050D01*
X56741819Y-75229874D01*
X56740371Y-75277688D01*
X56705538Y-75310473D01*
X56657724Y-75309025D01*
X56641934Y-75298815D01*
X56534725Y-75203837D01*
X56387154Y-75126385D01*
X56225334Y-75086500D01*
X56225332Y-75086500D01*
X56058668Y-75086500D01*
X56058665Y-75086500D01*
X55896844Y-75126385D01*
X55821969Y-75165683D01*
X55777967Y-75171026D01*
X55641135Y-75137300D01*
X55641132Y-75137300D01*
X55474468Y-75137300D01*
X55474463Y-75137300D01*
X55412931Y-75152466D01*
X55365641Y-75145268D01*
X55356533Y-75138566D01*
X55315526Y-75102238D01*
X55315524Y-75102237D01*
X55315525Y-75102237D01*
X55167954Y-75024785D01*
X55006134Y-74984900D01*
X55006132Y-74984900D01*
X54919805Y-74984900D01*
X54875611Y-74966594D01*
X54857305Y-74922400D01*
X54871890Y-74883943D01*
X54871328Y-74883555D01*
X54872902Y-74881273D01*
X54873024Y-74880954D01*
X54873470Y-74880449D01*
X54873476Y-74880444D01*
X54945248Y-74776463D01*
X54985417Y-74750493D01*
X55005407Y-74751097D01*
X55005511Y-74750244D01*
X55009268Y-74750700D01*
X55175930Y-74750700D01*
X55175932Y-74750700D01*
X55337753Y-74710815D01*
X55485326Y-74633362D01*
X55610076Y-74522844D01*
X55704752Y-74385682D01*
X55763852Y-74229849D01*
X55776415Y-74126382D01*
X55783941Y-74064403D01*
X55783941Y-74064396D01*
X55763853Y-73898958D01*
X55763852Y-73898955D01*
X55763852Y-73898951D01*
X55704752Y-73743118D01*
X55704750Y-73743116D01*
X55704750Y-73743114D01*
X55610078Y-73605958D01*
X55610074Y-73605954D01*
X55485325Y-73495437D01*
X55337754Y-73417985D01*
X55175934Y-73378100D01*
X55175932Y-73378100D01*
X55009268Y-73378100D01*
X55009264Y-73378100D01*
X54911152Y-73402282D01*
X54863861Y-73395084D01*
X54835511Y-73356555D01*
X54834151Y-73349130D01*
X54830547Y-73319449D01*
X54825788Y-73280245D01*
X54824053Y-73265956D01*
X54824052Y-73265954D01*
X54824052Y-73265951D01*
X54764952Y-73110118D01*
X54764950Y-73110116D01*
X54764950Y-73110114D01*
X54670278Y-72972958D01*
X54670274Y-72972954D01*
X54545525Y-72862437D01*
X54397954Y-72784985D01*
X54236134Y-72745100D01*
X54236132Y-72745100D01*
X54069468Y-72745100D01*
X54069465Y-72745100D01*
X53907645Y-72784985D01*
X53760074Y-72862437D01*
X53635325Y-72972954D01*
X53635321Y-72972958D01*
X53540649Y-73110114D01*
X53511098Y-73188034D01*
X53481548Y-73265951D01*
X53481547Y-73265953D01*
X53481547Y-73265955D01*
X53481546Y-73265958D01*
X53461459Y-73431396D01*
X53461459Y-73431402D01*
X53463508Y-73448280D01*
X53450662Y-73494359D01*
X53442910Y-73502594D01*
X53381325Y-73557153D01*
X53381321Y-73557158D01*
X53286649Y-73694314D01*
X53268142Y-73743114D01*
X53227548Y-73850151D01*
X53227547Y-73850153D01*
X53227547Y-73850155D01*
X53227546Y-73850158D01*
X53207459Y-74015596D01*
X51675865Y-74015596D01*
X52092921Y-70618950D01*
X53487200Y-70618950D01*
X53487200Y-70766649D01*
X53516013Y-70911507D01*
X53516014Y-70911510D01*
X53572534Y-71047961D01*
X53572537Y-71047966D01*
X53629701Y-71133518D01*
X53654592Y-71170770D01*
X53759030Y-71275208D01*
X53881836Y-71357264D01*
X54018291Y-71413786D01*
X54163151Y-71442600D01*
X54225407Y-71442600D01*
X54269601Y-71460906D01*
X54287451Y-71497567D01*
X54302346Y-71620241D01*
X54302347Y-71620244D01*
X54302348Y-71620249D01*
X54353575Y-71755323D01*
X54361449Y-71776085D01*
X54456121Y-71913241D01*
X54456125Y-71913245D01*
X54580874Y-72023762D01*
X54721473Y-72097555D01*
X54728447Y-72101215D01*
X54890268Y-72141100D01*
X54890270Y-72141100D01*
X55056930Y-72141100D01*
X55056932Y-72141100D01*
X55218753Y-72101215D01*
X55366326Y-72023762D01*
X55491076Y-71913244D01*
X55585752Y-71776082D01*
X55644852Y-71620249D01*
X55645297Y-71616585D01*
X55664941Y-71454803D01*
X55664941Y-71454796D01*
X55644527Y-71286670D01*
X55657372Y-71240592D01*
X55699038Y-71217093D01*
X55745116Y-71229938D01*
X55750765Y-71234943D01*
X55791030Y-71275208D01*
X55913836Y-71357264D01*
X56050291Y-71413786D01*
X56195151Y-71442600D01*
X56342849Y-71442600D01*
X56487709Y-71413786D01*
X56624164Y-71357264D01*
X56746970Y-71275208D01*
X56851408Y-71170770D01*
X56933464Y-71047964D01*
X56944635Y-71020996D01*
X62427659Y-71020996D01*
X62427659Y-71021003D01*
X62447746Y-71186441D01*
X62447747Y-71186444D01*
X62447748Y-71186449D01*
X62468282Y-71240592D01*
X62506849Y-71342285D01*
X62601521Y-71479441D01*
X62601525Y-71479445D01*
X62726274Y-71589962D01*
X62783980Y-71620249D01*
X62873847Y-71667415D01*
X63035668Y-71707300D01*
X63035670Y-71707300D01*
X63202330Y-71707300D01*
X63202332Y-71707300D01*
X63364153Y-71667415D01*
X63511726Y-71589962D01*
X63636476Y-71479444D01*
X63731152Y-71342282D01*
X63790252Y-71186449D01*
X63800010Y-71106087D01*
X63810341Y-71021003D01*
X63810341Y-71020996D01*
X63790253Y-70855558D01*
X63790252Y-70855555D01*
X63790252Y-70855551D01*
X63731152Y-70699718D01*
X63731150Y-70699716D01*
X63731150Y-70699714D01*
X63636478Y-70562558D01*
X63636474Y-70562554D01*
X63511725Y-70452037D01*
X63364154Y-70374585D01*
X63296862Y-70357999D01*
X68574675Y-70357999D01*
X68574675Y-70358000D01*
X68593912Y-70528744D01*
X68593913Y-70528746D01*
X68650664Y-70690930D01*
X68650665Y-70690932D01*
X68650666Y-70690934D01*
X68742079Y-70836417D01*
X68863582Y-70957920D01*
X69009065Y-71049333D01*
X69009070Y-71049336D01*
X69171254Y-71106087D01*
X69342000Y-71125325D01*
X69512746Y-71106087D01*
X69674930Y-71049336D01*
X69820419Y-70957919D01*
X69941919Y-70836419D01*
X70033336Y-70690930D01*
X70090087Y-70528746D01*
X70109325Y-70358000D01*
X70090087Y-70187254D01*
X70033336Y-70025070D01*
X69999873Y-69971814D01*
X69941920Y-69879582D01*
X69820417Y-69758079D01*
X69674934Y-69666666D01*
X69674932Y-69666665D01*
X69674930Y-69666664D01*
X69564919Y-69628169D01*
X69529252Y-69596294D01*
X69526570Y-69548534D01*
X69558446Y-69512866D01*
X69570605Y-69508493D01*
X69587153Y-69504415D01*
X69734726Y-69426962D01*
X69859476Y-69316444D01*
X69954152Y-69179282D01*
X70013252Y-69023449D01*
X70033341Y-68858000D01*
X70027493Y-68809841D01*
X70013253Y-68692558D01*
X70013252Y-68692555D01*
X70013252Y-68692551D01*
X69954152Y-68536718D01*
X69954150Y-68536716D01*
X69954150Y-68536714D01*
X69859478Y-68399558D01*
X69859474Y-68399554D01*
X69734725Y-68289037D01*
X69611563Y-68224396D01*
X70682659Y-68224396D01*
X70682659Y-68224403D01*
X70702746Y-68389841D01*
X70702747Y-68389844D01*
X70702748Y-68389849D01*
X70750910Y-68516841D01*
X70761849Y-68545685D01*
X70856521Y-68682841D01*
X70856525Y-68682845D01*
X70867489Y-68692558D01*
X70981274Y-68793362D01*
X71128847Y-68870815D01*
X71290668Y-68910700D01*
X71290670Y-68910700D01*
X71457330Y-68910700D01*
X71457332Y-68910700D01*
X71619153Y-68870815D01*
X71766726Y-68793362D01*
X71891476Y-68682844D01*
X71986152Y-68545682D01*
X72045252Y-68389849D01*
X72065341Y-68224400D01*
X72060673Y-68185958D01*
X72045253Y-68058958D01*
X72045252Y-68058955D01*
X72045252Y-68058951D01*
X71986152Y-67903118D01*
X71986150Y-67903116D01*
X71986150Y-67903114D01*
X71891478Y-67765958D01*
X71891474Y-67765954D01*
X71766725Y-67655437D01*
X71619154Y-67577985D01*
X71457334Y-67538100D01*
X71457332Y-67538100D01*
X71290668Y-67538100D01*
X71290665Y-67538100D01*
X71128845Y-67577985D01*
X70981274Y-67655437D01*
X70856525Y-67765954D01*
X70856521Y-67765958D01*
X70761849Y-67903114D01*
X70732298Y-67981034D01*
X70702748Y-68058951D01*
X70702747Y-68058953D01*
X70702747Y-68058955D01*
X70702746Y-68058958D01*
X70682659Y-68224396D01*
X69611563Y-68224396D01*
X69587154Y-68211585D01*
X69425334Y-68171700D01*
X69425332Y-68171700D01*
X69258668Y-68171700D01*
X69258665Y-68171700D01*
X69096845Y-68211585D01*
X68949274Y-68289037D01*
X68824525Y-68399554D01*
X68824521Y-68399558D01*
X68729849Y-68536714D01*
X68726448Y-68545682D01*
X68670748Y-68692551D01*
X68670747Y-68692553D01*
X68670747Y-68692555D01*
X68670746Y-68692558D01*
X68650659Y-68857996D01*
X68650659Y-68858003D01*
X68670746Y-69023441D01*
X68670747Y-69023444D01*
X68670748Y-69023449D01*
X68721975Y-69158523D01*
X68729849Y-69179285D01*
X68824521Y-69316441D01*
X68824524Y-69316444D01*
X68949274Y-69426962D01*
X69096847Y-69504415D01*
X69113393Y-69508493D01*
X69151922Y-69536843D01*
X69159120Y-69584134D01*
X69130770Y-69622663D01*
X69119079Y-69628169D01*
X69009070Y-69666664D01*
X69009069Y-69666664D01*
X69009065Y-69666666D01*
X68863582Y-69758079D01*
X68742079Y-69879582D01*
X68650666Y-70025065D01*
X68650664Y-70025069D01*
X68650664Y-70025070D01*
X68634883Y-70070167D01*
X68593912Y-70187255D01*
X68574675Y-70357999D01*
X63296862Y-70357999D01*
X63202334Y-70334700D01*
X63202332Y-70334700D01*
X63035668Y-70334700D01*
X63035665Y-70334700D01*
X62873845Y-70374585D01*
X62726274Y-70452037D01*
X62601525Y-70562554D01*
X62601521Y-70562558D01*
X62506849Y-70699714D01*
X62487705Y-70750194D01*
X62447748Y-70855551D01*
X62447747Y-70855553D01*
X62447747Y-70855555D01*
X62447746Y-70855558D01*
X62427659Y-71020996D01*
X56944635Y-71020996D01*
X56989986Y-70911509D01*
X57018800Y-70766649D01*
X57018800Y-70618951D01*
X56989986Y-70474091D01*
X56933464Y-70337636D01*
X56851408Y-70214830D01*
X56842174Y-70205596D01*
X61106859Y-70205596D01*
X61106859Y-70205603D01*
X61126946Y-70371041D01*
X61126947Y-70371044D01*
X61126948Y-70371049D01*
X61166026Y-70474089D01*
X61186049Y-70526885D01*
X61280721Y-70664041D01*
X61280724Y-70664044D01*
X61405474Y-70774562D01*
X61553047Y-70852015D01*
X61714868Y-70891900D01*
X61714870Y-70891900D01*
X61881530Y-70891900D01*
X61881532Y-70891900D01*
X62043353Y-70852015D01*
X62190926Y-70774562D01*
X62315676Y-70664044D01*
X62410352Y-70526882D01*
X62469452Y-70371049D01*
X62473509Y-70337636D01*
X62489541Y-70205603D01*
X62489541Y-70205596D01*
X62469453Y-70040158D01*
X62469452Y-70040155D01*
X62469452Y-70040151D01*
X62410352Y-69884318D01*
X62410350Y-69884316D01*
X62410350Y-69884314D01*
X62315678Y-69747158D01*
X62315674Y-69747154D01*
X62190925Y-69636637D01*
X62043354Y-69559185D01*
X61881534Y-69519300D01*
X61881532Y-69519300D01*
X61714868Y-69519300D01*
X61714865Y-69519300D01*
X61553045Y-69559185D01*
X61405474Y-69636637D01*
X61280725Y-69747154D01*
X61280721Y-69747158D01*
X61186049Y-69884314D01*
X61163793Y-69943000D01*
X61126948Y-70040151D01*
X61126947Y-70040153D01*
X61126947Y-70040155D01*
X61126946Y-70040158D01*
X61106859Y-70205596D01*
X56842174Y-70205596D01*
X56746970Y-70110392D01*
X56641857Y-70040158D01*
X56624166Y-70028337D01*
X56624161Y-70028334D01*
X56487710Y-69971814D01*
X56487707Y-69971813D01*
X56342849Y-69943000D01*
X56195151Y-69943000D01*
X56050292Y-69971813D01*
X56050289Y-69971814D01*
X55913838Y-70028334D01*
X55913833Y-70028337D01*
X55791030Y-70110391D01*
X55686591Y-70214830D01*
X55604537Y-70337633D01*
X55604534Y-70337638D01*
X55548014Y-70474089D01*
X55548013Y-70474092D01*
X55519200Y-70618950D01*
X55519200Y-70766649D01*
X55544462Y-70893654D01*
X55535130Y-70940570D01*
X55495356Y-70967146D01*
X55448440Y-70957814D01*
X55441718Y-70952629D01*
X55366325Y-70885837D01*
X55218754Y-70808385D01*
X55056934Y-70768500D01*
X55056932Y-70768500D01*
X55049300Y-70768500D01*
X55005106Y-70750194D01*
X54986800Y-70706000D01*
X54986800Y-70618951D01*
X54957986Y-70474091D01*
X54901464Y-70337636D01*
X54819408Y-70214830D01*
X54714970Y-70110392D01*
X54609857Y-70040158D01*
X54592166Y-70028337D01*
X54592161Y-70028334D01*
X54455710Y-69971814D01*
X54455707Y-69971813D01*
X54310849Y-69943000D01*
X54163151Y-69943000D01*
X54018292Y-69971813D01*
X54018289Y-69971814D01*
X53881838Y-70028334D01*
X53881833Y-70028337D01*
X53759030Y-70110391D01*
X53654591Y-70214830D01*
X53572537Y-70337633D01*
X53572534Y-70337638D01*
X53516014Y-70474089D01*
X53516013Y-70474092D01*
X53487200Y-70618950D01*
X52092921Y-70618950D01*
X52371341Y-68351396D01*
X65932859Y-68351396D01*
X65932859Y-68351403D01*
X65952946Y-68516841D01*
X65952947Y-68516844D01*
X65952948Y-68516849D01*
X66004175Y-68651923D01*
X66012049Y-68672685D01*
X66106721Y-68809841D01*
X66106724Y-68809844D01*
X66231474Y-68920362D01*
X66379047Y-68997815D01*
X66540868Y-69037700D01*
X66540870Y-69037700D01*
X66707530Y-69037700D01*
X66707532Y-69037700D01*
X66869353Y-68997815D01*
X67016926Y-68920362D01*
X67141676Y-68809844D01*
X67236352Y-68672682D01*
X67295452Y-68516849D01*
X67309694Y-68399554D01*
X67315541Y-68351403D01*
X67315541Y-68351396D01*
X67295453Y-68185958D01*
X67295452Y-68185955D01*
X67295452Y-68185951D01*
X67236352Y-68030118D01*
X67236350Y-68030116D01*
X67236350Y-68030114D01*
X67141678Y-67892958D01*
X67141674Y-67892954D01*
X67016925Y-67782437D01*
X66869354Y-67704985D01*
X66707534Y-67665100D01*
X66707532Y-67665100D01*
X66540868Y-67665100D01*
X66540865Y-67665100D01*
X66379045Y-67704985D01*
X66231474Y-67782437D01*
X66106725Y-67892954D01*
X66106721Y-67892958D01*
X66012049Y-68030114D01*
X66001110Y-68058958D01*
X65952948Y-68185951D01*
X65952947Y-68185953D01*
X65952947Y-68185955D01*
X65952946Y-68185958D01*
X65932859Y-68351396D01*
X52371341Y-68351396D01*
X52716666Y-65538950D01*
X54503200Y-65538950D01*
X54503200Y-65686649D01*
X54532013Y-65831507D01*
X54532014Y-65831510D01*
X54588534Y-65967961D01*
X54588537Y-65967966D01*
X54670591Y-66090769D01*
X54670592Y-66090770D01*
X54775030Y-66195208D01*
X54897836Y-66277264D01*
X55034291Y-66333786D01*
X55179151Y-66362600D01*
X55326849Y-66362600D01*
X55471709Y-66333786D01*
X55608164Y-66277264D01*
X55730970Y-66195208D01*
X55835408Y-66090770D01*
X55917464Y-65967964D01*
X55973986Y-65831509D01*
X56002800Y-65686649D01*
X56002800Y-65538951D01*
X55973986Y-65394091D01*
X55922877Y-65270704D01*
X55917465Y-65257638D01*
X55917462Y-65257633D01*
X55835408Y-65134830D01*
X55730969Y-65030391D01*
X55608166Y-64948337D01*
X55608161Y-64948334D01*
X55471710Y-64891814D01*
X55471707Y-64891813D01*
X55370066Y-64871596D01*
X57195259Y-64871596D01*
X57195259Y-64871603D01*
X57215346Y-65037041D01*
X57215347Y-65037044D01*
X57215348Y-65037049D01*
X57266575Y-65172123D01*
X57274449Y-65192885D01*
X57369121Y-65330041D01*
X57369124Y-65330044D01*
X57493874Y-65440562D01*
X57641447Y-65518015D01*
X57772035Y-65550201D01*
X57810563Y-65578551D01*
X57817761Y-65625842D01*
X57789411Y-65664371D01*
X57772035Y-65671569D01*
X57674892Y-65695513D01*
X57649447Y-65701785D01*
X57649446Y-65701785D01*
X57649444Y-65701786D01*
X57501874Y-65779237D01*
X57377125Y-65889754D01*
X57377121Y-65889758D01*
X57282449Y-66026914D01*
X57258232Y-66090769D01*
X57223348Y-66182751D01*
X57223347Y-66182753D01*
X57223347Y-66182755D01*
X57223346Y-66182758D01*
X57203259Y-66348196D01*
X57203259Y-66348203D01*
X57223346Y-66513641D01*
X57223347Y-66513644D01*
X57223348Y-66513649D01*
X57274575Y-66648723D01*
X57282449Y-66669485D01*
X57377121Y-66806641D01*
X57377124Y-66806644D01*
X57501874Y-66917162D01*
X57649447Y-66994615D01*
X57811268Y-67034500D01*
X57811270Y-67034500D01*
X57977930Y-67034500D01*
X57977932Y-67034500D01*
X58139753Y-66994615D01*
X58287326Y-66917162D01*
X58412076Y-66806644D01*
X58506752Y-66669482D01*
X58565852Y-66513649D01*
X58585941Y-66348200D01*
X58565852Y-66182751D01*
X58506752Y-66026918D01*
X58506750Y-66026916D01*
X58506750Y-66026914D01*
X58412078Y-65889758D01*
X58412074Y-65889754D01*
X58287325Y-65779237D01*
X58139754Y-65701785D01*
X58009165Y-65669598D01*
X57970636Y-65641248D01*
X57963438Y-65593957D01*
X57991788Y-65555428D01*
X58009165Y-65548230D01*
X58131753Y-65518015D01*
X58279326Y-65440562D01*
X58353155Y-65375154D01*
X58398374Y-65359551D01*
X58436044Y-65375154D01*
X58509874Y-65440562D01*
X58657447Y-65518015D01*
X58819268Y-65557900D01*
X58819270Y-65557900D01*
X58985930Y-65557900D01*
X58985932Y-65557900D01*
X59147753Y-65518015D01*
X59295326Y-65440562D01*
X59420076Y-65330044D01*
X59514752Y-65192882D01*
X59573852Y-65037049D01*
X59593941Y-64871600D01*
X59575587Y-64720444D01*
X59573853Y-64706158D01*
X59573852Y-64706155D01*
X59573852Y-64706151D01*
X59514752Y-64550318D01*
X59514750Y-64550316D01*
X59514750Y-64550314D01*
X59420078Y-64413158D01*
X59420074Y-64413154D01*
X59295325Y-64302637D01*
X59147754Y-64225185D01*
X59044528Y-64199742D01*
X59005999Y-64171391D01*
X59001047Y-64161221D01*
X58955952Y-64042318D01*
X58861278Y-63905158D01*
X58861274Y-63905154D01*
X58736525Y-63794637D01*
X58659091Y-63753996D01*
X60776659Y-63753996D01*
X60776659Y-63754003D01*
X60796746Y-63919445D01*
X60821925Y-63985838D01*
X60821925Y-64030162D01*
X60796746Y-64096554D01*
X60776659Y-64261996D01*
X60776659Y-64262003D01*
X60796746Y-64427441D01*
X60796747Y-64427444D01*
X60796748Y-64427449D01*
X60843345Y-64550314D01*
X60855849Y-64583285D01*
X60950521Y-64720441D01*
X60950525Y-64720445D01*
X61075274Y-64830962D01*
X61152702Y-64871600D01*
X61222847Y-64908415D01*
X61384668Y-64948300D01*
X61384670Y-64948300D01*
X61551330Y-64948300D01*
X61551332Y-64948300D01*
X61707043Y-64909921D01*
X61736957Y-64909921D01*
X61892668Y-64948300D01*
X61892670Y-64948300D01*
X62059330Y-64948300D01*
X62059332Y-64948300D01*
X62221153Y-64908415D01*
X62368726Y-64830962D01*
X62493476Y-64720444D01*
X62588152Y-64583282D01*
X62632166Y-64467225D01*
X62664953Y-64432396D01*
X62712767Y-64430951D01*
X62747598Y-64463739D01*
X62750826Y-64472669D01*
X62785250Y-64596655D01*
X62785251Y-64596656D01*
X62913299Y-64918032D01*
X62922902Y-64942132D01*
X62922906Y-64942140D01*
X63097094Y-65270693D01*
X63097101Y-65270704D01*
X63305782Y-65578483D01*
X63305785Y-65578488D01*
X63305788Y-65578491D01*
X63305789Y-65578493D01*
X63318924Y-65593957D01*
X63489202Y-65794424D01*
X63546542Y-65861929D01*
X63788125Y-66090769D01*
X63816527Y-66117673D01*
X64112581Y-66342728D01*
X64145609Y-66362600D01*
X64431234Y-66534455D01*
X64768747Y-66690605D01*
X64768758Y-66690608D01*
X64768761Y-66690610D01*
X65113130Y-66806641D01*
X65121164Y-66809348D01*
X65484354Y-66889292D01*
X65854058Y-66929500D01*
X65854062Y-66929500D01*
X66225938Y-66929500D01*
X66225942Y-66929500D01*
X66595646Y-66889292D01*
X66958836Y-66809348D01*
X67311253Y-66690605D01*
X67648766Y-66534455D01*
X67967418Y-66342728D01*
X68263472Y-66117674D01*
X68533458Y-65861929D01*
X68774211Y-65578493D01*
X68982908Y-65270689D01*
X69157101Y-64942125D01*
X69294750Y-64596653D01*
X69329173Y-64472668D01*
X69358635Y-64434984D01*
X69406115Y-64429168D01*
X69443801Y-64458630D01*
X69447833Y-64467227D01*
X69491847Y-64583281D01*
X69586521Y-64720441D01*
X69586525Y-64720445D01*
X69711274Y-64830962D01*
X69788702Y-64871600D01*
X69858847Y-64908415D01*
X70020668Y-64948300D01*
X70020670Y-64948300D01*
X70187330Y-64948300D01*
X70187332Y-64948300D01*
X70343043Y-64909921D01*
X70372957Y-64909921D01*
X70528668Y-64948300D01*
X70528670Y-64948300D01*
X70695330Y-64948300D01*
X70695332Y-64948300D01*
X70857153Y-64908415D01*
X71004726Y-64830962D01*
X71129476Y-64720444D01*
X71224152Y-64583282D01*
X71283252Y-64427449D01*
X71284987Y-64413158D01*
X71303341Y-64262003D01*
X71303341Y-64261996D01*
X71283253Y-64096558D01*
X71283252Y-64096554D01*
X71283252Y-64096551D01*
X71258073Y-64030161D01*
X71258073Y-63985838D01*
X71283252Y-63919449D01*
X71284987Y-63905158D01*
X71303341Y-63754003D01*
X71303341Y-63753996D01*
X71283253Y-63588558D01*
X71283252Y-63588555D01*
X71283252Y-63588551D01*
X71224152Y-63432718D01*
X71224150Y-63432716D01*
X71224150Y-63432714D01*
X71129478Y-63295558D01*
X71129474Y-63295554D01*
X71004725Y-63185037D01*
X70857154Y-63107585D01*
X70695334Y-63067700D01*
X70695332Y-63067700D01*
X70528668Y-63067700D01*
X70528664Y-63067700D01*
X70372957Y-63106079D01*
X70343043Y-63106079D01*
X70187335Y-63067700D01*
X70187332Y-63067700D01*
X70020668Y-63067700D01*
X70020665Y-63067700D01*
X69858845Y-63107585D01*
X69711274Y-63185037D01*
X69586525Y-63295554D01*
X69586521Y-63295558D01*
X69576354Y-63310289D01*
X69536184Y-63336261D01*
X69489414Y-63326221D01*
X69463442Y-63286051D01*
X69462510Y-63278168D01*
X69457712Y-63189690D01*
X69454404Y-63128661D01*
X69394239Y-62761676D01*
X69388411Y-62740687D01*
X69352654Y-62611900D01*
X69294750Y-62403347D01*
X69157101Y-62057875D01*
X69125444Y-61998164D01*
X68982905Y-61729306D01*
X68982898Y-61729295D01*
X68977949Y-61721996D01*
X69412659Y-61721996D01*
X69412659Y-61722003D01*
X69432746Y-61887445D01*
X69457925Y-61953838D01*
X69457925Y-61998162D01*
X69432746Y-62064554D01*
X69412659Y-62229996D01*
X69412659Y-62230003D01*
X69432746Y-62395441D01*
X69432747Y-62395444D01*
X69432748Y-62395449D01*
X69460512Y-62468656D01*
X69491849Y-62551285D01*
X69586521Y-62688441D01*
X69586524Y-62688444D01*
X69711274Y-62798962D01*
X69858847Y-62876415D01*
X70020668Y-62916300D01*
X70020670Y-62916300D01*
X70187330Y-62916300D01*
X70187332Y-62916300D01*
X70343043Y-62877921D01*
X70372957Y-62877921D01*
X70528668Y-62916300D01*
X70528670Y-62916300D01*
X70695330Y-62916300D01*
X70695332Y-62916300D01*
X70857153Y-62876415D01*
X71004726Y-62798962D01*
X71129476Y-62688444D01*
X71224152Y-62551282D01*
X71283252Y-62395449D01*
X71290256Y-62337769D01*
X71303341Y-62230003D01*
X71303341Y-62229996D01*
X71287012Y-62095518D01*
X73900800Y-62095518D01*
X73900800Y-62313681D01*
X73929275Y-62529969D01*
X73929275Y-62529970D01*
X73985733Y-62740675D01*
X73985739Y-62740693D01*
X74069219Y-62942230D01*
X74069225Y-62942242D01*
X74178297Y-63131161D01*
X74304442Y-63295558D01*
X74311103Y-63304238D01*
X74465362Y-63458497D01*
X74638436Y-63591301D01*
X74827364Y-63700378D01*
X75028913Y-63783863D01*
X75028923Y-63783865D01*
X75028924Y-63783866D01*
X75239629Y-63840324D01*
X75239631Y-63840324D01*
X75239634Y-63840325D01*
X75455923Y-63868800D01*
X75455929Y-63868800D01*
X75674071Y-63868800D01*
X75674077Y-63868800D01*
X75890366Y-63840325D01*
X76101087Y-63783863D01*
X76302636Y-63700378D01*
X76491564Y-63591301D01*
X76664638Y-63458497D01*
X76818897Y-63304238D01*
X76951701Y-63131164D01*
X77060778Y-62942236D01*
X77144263Y-62740687D01*
X77200725Y-62529966D01*
X77229200Y-62313677D01*
X77229200Y-62095523D01*
X77200725Y-61879234D01*
X77158595Y-61722003D01*
X77144266Y-61668524D01*
X77144265Y-61668523D01*
X77144263Y-61668513D01*
X77060778Y-61466964D01*
X76951701Y-61278036D01*
X76818897Y-61104962D01*
X76664638Y-60950703D01*
X76664634Y-60950700D01*
X76664632Y-60950698D01*
X76491561Y-60817897D01*
X76302642Y-60708825D01*
X76302630Y-60708819D01*
X76101093Y-60625339D01*
X76101075Y-60625333D01*
X75890370Y-60568875D01*
X75674081Y-60540400D01*
X75674077Y-60540400D01*
X75455923Y-60540400D01*
X75455918Y-60540400D01*
X75239630Y-60568875D01*
X75239629Y-60568875D01*
X75028924Y-60625333D01*
X75028906Y-60625339D01*
X74827369Y-60708819D01*
X74827357Y-60708825D01*
X74638438Y-60817897D01*
X74465367Y-60950698D01*
X74465357Y-60950707D01*
X74311107Y-61104957D01*
X74311098Y-61104967D01*
X74178297Y-61278038D01*
X74069225Y-61466957D01*
X74069219Y-61466969D01*
X73985739Y-61668506D01*
X73985733Y-61668524D01*
X73929275Y-61879229D01*
X73929275Y-61879230D01*
X73900800Y-62095518D01*
X71287012Y-62095518D01*
X71283253Y-62064558D01*
X71283252Y-62064554D01*
X71283252Y-62064551D01*
X71258073Y-61998161D01*
X71258073Y-61953838D01*
X71283252Y-61887449D01*
X71283253Y-61887441D01*
X71303341Y-61722003D01*
X71303341Y-61721996D01*
X71283253Y-61556558D01*
X71283252Y-61556555D01*
X71283252Y-61556551D01*
X71224152Y-61400718D01*
X71224150Y-61400716D01*
X71224150Y-61400714D01*
X71129478Y-61263558D01*
X71129474Y-61263554D01*
X71004725Y-61153037D01*
X70857154Y-61075585D01*
X70695334Y-61035700D01*
X70695332Y-61035700D01*
X70528668Y-61035700D01*
X70528664Y-61035700D01*
X70372957Y-61074079D01*
X70343043Y-61074079D01*
X70187335Y-61035700D01*
X70187332Y-61035700D01*
X70020668Y-61035700D01*
X70020665Y-61035700D01*
X69858845Y-61075585D01*
X69711274Y-61153037D01*
X69586525Y-61263554D01*
X69586521Y-61263558D01*
X69491849Y-61400714D01*
X69483962Y-61421511D01*
X69432748Y-61556551D01*
X69432747Y-61556553D01*
X69432747Y-61556555D01*
X69432746Y-61556558D01*
X69412659Y-61721996D01*
X68977949Y-61721996D01*
X68774217Y-61421516D01*
X68774214Y-61421511D01*
X68756552Y-61400718D01*
X68533458Y-61138071D01*
X68263472Y-60882326D01*
X68178717Y-60817897D01*
X67967418Y-60657271D01*
X67820501Y-60568875D01*
X67648766Y-60465545D01*
X67311253Y-60309395D01*
X67311245Y-60309392D01*
X67311238Y-60309389D01*
X66958847Y-60190655D01*
X66958836Y-60190652D01*
X66595644Y-60110707D01*
X66225945Y-60070500D01*
X66225942Y-60070500D01*
X65854058Y-60070500D01*
X65854054Y-60070500D01*
X65484355Y-60110707D01*
X65121163Y-60190652D01*
X65121152Y-60190655D01*
X64768761Y-60309389D01*
X64768750Y-60309393D01*
X64768747Y-60309395D01*
X64561226Y-60405404D01*
X64431242Y-60465541D01*
X64431239Y-60465542D01*
X64431234Y-60465545D01*
X64323912Y-60530118D01*
X64112581Y-60657271D01*
X63816527Y-60882326D01*
X63546545Y-61138068D01*
X63546534Y-61138079D01*
X63305785Y-61421511D01*
X63305782Y-61421516D01*
X63097101Y-61729295D01*
X63097094Y-61729306D01*
X62922906Y-62057859D01*
X62922902Y-62057867D01*
X62785251Y-62403343D01*
X62785249Y-62403348D01*
X62685761Y-62761672D01*
X62625595Y-63128666D01*
X62617489Y-63278168D01*
X62596818Y-63321306D01*
X62551697Y-63337192D01*
X62508559Y-63316521D01*
X62503645Y-63310289D01*
X62493476Y-63295556D01*
X62368726Y-63185038D01*
X62368725Y-63185037D01*
X62221154Y-63107585D01*
X62059334Y-63067700D01*
X62059332Y-63067700D01*
X61892668Y-63067700D01*
X61892664Y-63067700D01*
X61736957Y-63106079D01*
X61707043Y-63106079D01*
X61551335Y-63067700D01*
X61551332Y-63067700D01*
X61384668Y-63067700D01*
X61384665Y-63067700D01*
X61222845Y-63107585D01*
X61075274Y-63185037D01*
X60950525Y-63295554D01*
X60950521Y-63295558D01*
X60855849Y-63432714D01*
X60837511Y-63481069D01*
X60796748Y-63588551D01*
X60796747Y-63588553D01*
X60796747Y-63588555D01*
X60796746Y-63588558D01*
X60776659Y-63753996D01*
X58659091Y-63753996D01*
X58588954Y-63717185D01*
X58427134Y-63677300D01*
X58427132Y-63677300D01*
X58260468Y-63677300D01*
X58260465Y-63677300D01*
X58098645Y-63717185D01*
X57951074Y-63794637D01*
X57826325Y-63905154D01*
X57826321Y-63905158D01*
X57731647Y-64042318D01*
X57675771Y-64189648D01*
X57644499Y-64222867D01*
X57644794Y-64223428D01*
X57643169Y-64224280D01*
X57642983Y-64224479D01*
X57642070Y-64224857D01*
X57493874Y-64302637D01*
X57369125Y-64413154D01*
X57369121Y-64413158D01*
X57274449Y-64550314D01*
X57256874Y-64596656D01*
X57215348Y-64706151D01*
X57215347Y-64706153D01*
X57215347Y-64706155D01*
X57215346Y-64706158D01*
X57195259Y-64871596D01*
X55370066Y-64871596D01*
X55326849Y-64863000D01*
X55179151Y-64863000D01*
X55034292Y-64891813D01*
X55034289Y-64891814D01*
X54897838Y-64948334D01*
X54897833Y-64948337D01*
X54775030Y-65030391D01*
X54670591Y-65134830D01*
X54588537Y-65257633D01*
X54588534Y-65257638D01*
X54532014Y-65394089D01*
X54532013Y-65394092D01*
X54503200Y-65538950D01*
X52716666Y-65538950D01*
X53139466Y-62095518D01*
X54850800Y-62095518D01*
X54850800Y-62313681D01*
X54879275Y-62529969D01*
X54879275Y-62529970D01*
X54935733Y-62740675D01*
X54935739Y-62740693D01*
X55019219Y-62942230D01*
X55019225Y-62942242D01*
X55128297Y-63131161D01*
X55254442Y-63295558D01*
X55261103Y-63304238D01*
X55415362Y-63458497D01*
X55588436Y-63591301D01*
X55777364Y-63700378D01*
X55978913Y-63783863D01*
X55978923Y-63783865D01*
X55978924Y-63783866D01*
X56189629Y-63840324D01*
X56189631Y-63840324D01*
X56189634Y-63840325D01*
X56405923Y-63868800D01*
X56405929Y-63868800D01*
X56624071Y-63868800D01*
X56624077Y-63868800D01*
X56840366Y-63840325D01*
X57051087Y-63783863D01*
X57252636Y-63700378D01*
X57441564Y-63591301D01*
X57614638Y-63458497D01*
X57768897Y-63304238D01*
X57901701Y-63131164D01*
X58010778Y-62942236D01*
X58094263Y-62740687D01*
X58150725Y-62529966D01*
X58158796Y-62468654D01*
X58182713Y-62427229D01*
X58228918Y-62414848D01*
X58270345Y-62438765D01*
X58279199Y-62454650D01*
X58315847Y-62551281D01*
X58410521Y-62688441D01*
X58410524Y-62688444D01*
X58535274Y-62798962D01*
X58682847Y-62876415D01*
X58844668Y-62916300D01*
X58844670Y-62916300D01*
X59011330Y-62916300D01*
X59011332Y-62916300D01*
X59167043Y-62877921D01*
X59196957Y-62877921D01*
X59352668Y-62916300D01*
X59352670Y-62916300D01*
X59519330Y-62916300D01*
X59519332Y-62916300D01*
X59681153Y-62876415D01*
X59828726Y-62798962D01*
X59953476Y-62688444D01*
X60048152Y-62551282D01*
X60107252Y-62395449D01*
X60114256Y-62337769D01*
X60127341Y-62230003D01*
X60127341Y-62229996D01*
X60107253Y-62064558D01*
X60107252Y-62064554D01*
X60107252Y-62064551D01*
X60082073Y-61998161D01*
X60082073Y-61953838D01*
X60107252Y-61887449D01*
X60107253Y-61887441D01*
X60127341Y-61722003D01*
X60127341Y-61721996D01*
X60107253Y-61556558D01*
X60107252Y-61556555D01*
X60107252Y-61556551D01*
X60048152Y-61400718D01*
X60048150Y-61400716D01*
X60048150Y-61400714D01*
X59953478Y-61263558D01*
X59953474Y-61263554D01*
X59828725Y-61153037D01*
X59681154Y-61075585D01*
X59519334Y-61035700D01*
X59519332Y-61035700D01*
X59352668Y-61035700D01*
X59352664Y-61035700D01*
X59196957Y-61074079D01*
X59167043Y-61074079D01*
X59011335Y-61035700D01*
X59011332Y-61035700D01*
X58844668Y-61035700D01*
X58844665Y-61035700D01*
X58682845Y-61075585D01*
X58535274Y-61153037D01*
X58410525Y-61263554D01*
X58410521Y-61263558D01*
X58315849Y-61400714D01*
X58307962Y-61421511D01*
X58256748Y-61556551D01*
X58256747Y-61556553D01*
X58256747Y-61556555D01*
X58256746Y-61556558D01*
X58236659Y-61721996D01*
X58236659Y-61725207D01*
X58218353Y-61769401D01*
X58174159Y-61787707D01*
X58129965Y-61769401D01*
X58113789Y-61741383D01*
X58094266Y-61668524D01*
X58094265Y-61668523D01*
X58094263Y-61668513D01*
X58010778Y-61466964D01*
X57901701Y-61278036D01*
X57768897Y-61104962D01*
X57614638Y-60950703D01*
X57614634Y-60950700D01*
X57614632Y-60950698D01*
X57441561Y-60817897D01*
X57252642Y-60708825D01*
X57252630Y-60708819D01*
X57051093Y-60625339D01*
X57051075Y-60625333D01*
X56840370Y-60568875D01*
X56624081Y-60540400D01*
X56624077Y-60540400D01*
X56405923Y-60540400D01*
X56405918Y-60540400D01*
X56189630Y-60568875D01*
X56189629Y-60568875D01*
X55978924Y-60625333D01*
X55978906Y-60625339D01*
X55777369Y-60708819D01*
X55777357Y-60708825D01*
X55588438Y-60817897D01*
X55415367Y-60950698D01*
X55415357Y-60950707D01*
X55261107Y-61104957D01*
X55261098Y-61104967D01*
X55128297Y-61278038D01*
X55019225Y-61466957D01*
X55019219Y-61466969D01*
X54935739Y-61668506D01*
X54935733Y-61668524D01*
X54879275Y-61879229D01*
X54879275Y-61879230D01*
X54850800Y-62095518D01*
X53139466Y-62095518D01*
X54009934Y-55006123D01*
X54033489Y-54964491D01*
X54054354Y-54953776D01*
X54180954Y-54916601D01*
X54180960Y-54916598D01*
X54180964Y-54916597D01*
X54412374Y-54810906D01*
X54412374Y-54810905D01*
X54412378Y-54810904D01*
X54626402Y-54673347D01*
X54633068Y-54667569D01*
X54678454Y-54652460D01*
X54721231Y-54673868D01*
X54736500Y-54714801D01*
X54736500Y-55268245D01*
X54743011Y-55328802D01*
X54794111Y-55465804D01*
X54796101Y-55469449D01*
X54801213Y-55517010D01*
X54771196Y-55554256D01*
X54770293Y-55554739D01*
X54750678Y-55565034D01*
X54750675Y-55565036D01*
X54625925Y-55675554D01*
X54625921Y-55675558D01*
X54531249Y-55812714D01*
X54527096Y-55823666D01*
X54472148Y-55968551D01*
X54472147Y-55968553D01*
X54472147Y-55968555D01*
X54472146Y-55968558D01*
X54452059Y-56133996D01*
X54452059Y-56134003D01*
X54472146Y-56299441D01*
X54472147Y-56299444D01*
X54472148Y-56299449D01*
X54489141Y-56344255D01*
X54531249Y-56455285D01*
X54625921Y-56592441D01*
X54625924Y-56592444D01*
X54750674Y-56702962D01*
X54898247Y-56780415D01*
X55060068Y-56820300D01*
X55060070Y-56820300D01*
X55226730Y-56820300D01*
X55226732Y-56820300D01*
X55388553Y-56780415D01*
X55536126Y-56702962D01*
X55536133Y-56702955D01*
X55538399Y-56701392D01*
X55585168Y-56691345D01*
X55625342Y-56717311D01*
X55636018Y-56759820D01*
X55620675Y-56895998D01*
X55620675Y-56896000D01*
X55639912Y-57066744D01*
X55656770Y-57114920D01*
X55696664Y-57228930D01*
X55705973Y-57243746D01*
X55705975Y-57243748D01*
X55713987Y-57290908D01*
X55705975Y-57310250D01*
X55703328Y-57314463D01*
X55696665Y-57325067D01*
X55639912Y-57487255D01*
X55620675Y-57657999D01*
X55620675Y-57658000D01*
X55639912Y-57828744D01*
X55639913Y-57828746D01*
X55696664Y-57990930D01*
X55696665Y-57990932D01*
X55696666Y-57990934D01*
X55788079Y-58136417D01*
X55909582Y-58257920D01*
X55909584Y-58257921D01*
X56055070Y-58349336D01*
X56217254Y-58406087D01*
X56388000Y-58425325D01*
X56558746Y-58406087D01*
X56720930Y-58349336D01*
X56866419Y-58257919D01*
X56911443Y-58212894D01*
X56955634Y-58194590D01*
X56999829Y-58212895D01*
X57014073Y-58234927D01*
X57071247Y-58385681D01*
X57165921Y-58522841D01*
X57165925Y-58522845D01*
X57290674Y-58633362D01*
X57392955Y-58687044D01*
X57438247Y-58710815D01*
X57600068Y-58750700D01*
X57600070Y-58750700D01*
X57766730Y-58750700D01*
X57766732Y-58750700D01*
X57928553Y-58710815D01*
X58076126Y-58633362D01*
X58200876Y-58522844D01*
X58268188Y-58425325D01*
X58295550Y-58385685D01*
X58295550Y-58385684D01*
X58295552Y-58385682D01*
X58354652Y-58229849D01*
X58356237Y-58216796D01*
X59074859Y-58216796D01*
X59074859Y-58216803D01*
X59094946Y-58382241D01*
X59094947Y-58382244D01*
X59094948Y-58382249D01*
X59103989Y-58406087D01*
X59154049Y-58538085D01*
X59248721Y-58675241D01*
X59248725Y-58675245D01*
X59288876Y-58710815D01*
X59373474Y-58785762D01*
X59486718Y-58845197D01*
X59516109Y-58878372D01*
X59549851Y-58967341D01*
X59560449Y-58995285D01*
X59655121Y-59132441D01*
X59655125Y-59132445D01*
X59695276Y-59168015D01*
X59779874Y-59242962D01*
X59927447Y-59320415D01*
X60089268Y-59360300D01*
X60089270Y-59360300D01*
X60255930Y-59360300D01*
X60255932Y-59360300D01*
X60417753Y-59320415D01*
X60565326Y-59242962D01*
X60690076Y-59132444D01*
X60784752Y-58995282D01*
X60843852Y-58839449D01*
X60862357Y-58687049D01*
X60863941Y-58674003D01*
X60863941Y-58673996D01*
X60843853Y-58508558D01*
X60843852Y-58508555D01*
X60843852Y-58508551D01*
X60784752Y-58352718D01*
X60784750Y-58352716D01*
X60784750Y-58352714D01*
X60690078Y-58215558D01*
X60690074Y-58215554D01*
X60565325Y-58105037D01*
X60487891Y-58064396D01*
X61437059Y-58064396D01*
X61437059Y-58064403D01*
X61457146Y-58229841D01*
X61457147Y-58229844D01*
X61457148Y-58229849D01*
X61497688Y-58336744D01*
X61516249Y-58385685D01*
X61610921Y-58522841D01*
X61610925Y-58522845D01*
X61735674Y-58633362D01*
X61837955Y-58687044D01*
X61883247Y-58710815D01*
X62045068Y-58750700D01*
X62045070Y-58750700D01*
X62211730Y-58750700D01*
X62211732Y-58750700D01*
X62373553Y-58710815D01*
X62521126Y-58633362D01*
X62645876Y-58522844D01*
X62646737Y-58521596D01*
X63824659Y-58521596D01*
X63824659Y-58521603D01*
X63844746Y-58687041D01*
X63844747Y-58687044D01*
X63844748Y-58687049D01*
X63868888Y-58750700D01*
X63903849Y-58842885D01*
X63998521Y-58980041D01*
X63998524Y-58980044D01*
X64123274Y-59090562D01*
X64270847Y-59168015D01*
X64432668Y-59207900D01*
X64432670Y-59207900D01*
X64599330Y-59207900D01*
X64599332Y-59207900D01*
X64761153Y-59168015D01*
X64873703Y-59108942D01*
X64921341Y-59104614D01*
X64931792Y-59108942D01*
X65020147Y-59155315D01*
X65181968Y-59195200D01*
X65181970Y-59195200D01*
X65348630Y-59195200D01*
X65348632Y-59195200D01*
X65510453Y-59155315D01*
X65658026Y-59077862D01*
X65782776Y-58967344D01*
X65830114Y-58898763D01*
X65877450Y-58830185D01*
X65877450Y-58830184D01*
X65877452Y-58830182D01*
X65882601Y-58816603D01*
X65915388Y-58781772D01*
X65963201Y-58780326D01*
X65974292Y-58785845D01*
X66086281Y-58856212D01*
X66088070Y-58857336D01*
X66250254Y-58914087D01*
X66421000Y-58933325D01*
X66591746Y-58914087D01*
X66753930Y-58857336D01*
X66768748Y-58848024D01*
X66815906Y-58840011D01*
X66835247Y-58848022D01*
X66850070Y-58857336D01*
X67012254Y-58914087D01*
X67183000Y-58933325D01*
X67353746Y-58914087D01*
X67515930Y-58857336D01*
X67530748Y-58848024D01*
X67577906Y-58840011D01*
X67597247Y-58848022D01*
X67612070Y-58857336D01*
X67774254Y-58914087D01*
X67945000Y-58933325D01*
X68115746Y-58914087D01*
X68277930Y-58857336D01*
X68423419Y-58765919D01*
X68544919Y-58644419D01*
X68636336Y-58498930D01*
X68693087Y-58336746D01*
X68712325Y-58166000D01*
X68712325Y-58165999D01*
X72892675Y-58165999D01*
X72892675Y-58166000D01*
X72911912Y-58336744D01*
X72927835Y-58382249D01*
X72968664Y-58498930D01*
X72968665Y-58498932D01*
X72968666Y-58498934D01*
X73060079Y-58644417D01*
X73181582Y-58765920D01*
X73325281Y-58856212D01*
X73327070Y-58857336D01*
X73489254Y-58914087D01*
X73660000Y-58933325D01*
X73830746Y-58914087D01*
X73992930Y-58857336D01*
X74007748Y-58848024D01*
X74054906Y-58840011D01*
X74074247Y-58848022D01*
X74089070Y-58857336D01*
X74251254Y-58914087D01*
X74422000Y-58933325D01*
X74592746Y-58914087D01*
X74754930Y-58857336D01*
X74769748Y-58848024D01*
X74816906Y-58840011D01*
X74836247Y-58848022D01*
X74851070Y-58857336D01*
X75013254Y-58914087D01*
X75184000Y-58933325D01*
X75354746Y-58914087D01*
X75516930Y-58857336D01*
X75531748Y-58848024D01*
X75578906Y-58840011D01*
X75598247Y-58848022D01*
X75613070Y-58857336D01*
X75775254Y-58914087D01*
X75946000Y-58933325D01*
X76116746Y-58914087D01*
X76278930Y-58857336D01*
X76293748Y-58848024D01*
X76340906Y-58840011D01*
X76360247Y-58848022D01*
X76375070Y-58857336D01*
X76537254Y-58914087D01*
X76708000Y-58933325D01*
X76878746Y-58914087D01*
X77040930Y-58857336D01*
X77186419Y-58765919D01*
X77307919Y-58644419D01*
X77399336Y-58498930D01*
X77456087Y-58336746D01*
X77475325Y-58166000D01*
X77456087Y-57995254D01*
X77399336Y-57833070D01*
X77352389Y-57758354D01*
X77307920Y-57687582D01*
X77186417Y-57566079D01*
X77040934Y-57474666D01*
X77040932Y-57474665D01*
X77040930Y-57474664D01*
X76932807Y-57436830D01*
X76878744Y-57417912D01*
X76708000Y-57398675D01*
X76537255Y-57417912D01*
X76375067Y-57474665D01*
X76364463Y-57481328D01*
X76360251Y-57483975D01*
X76313092Y-57491987D01*
X76293749Y-57483975D01*
X76285184Y-57478593D01*
X76278932Y-57474665D01*
X76278931Y-57474664D01*
X76278930Y-57474664D01*
X76197838Y-57446288D01*
X76116744Y-57417912D01*
X75946000Y-57398675D01*
X75775255Y-57417912D01*
X75613067Y-57474665D01*
X75602463Y-57481328D01*
X75598251Y-57483975D01*
X75551092Y-57491987D01*
X75531749Y-57483975D01*
X75523184Y-57478593D01*
X75516932Y-57474665D01*
X75516931Y-57474664D01*
X75516930Y-57474664D01*
X75435838Y-57446288D01*
X75354744Y-57417912D01*
X75184000Y-57398675D01*
X75013255Y-57417912D01*
X74851067Y-57474665D01*
X74840463Y-57481328D01*
X74836251Y-57483975D01*
X74789092Y-57491987D01*
X74769749Y-57483975D01*
X74761184Y-57478593D01*
X74754932Y-57474665D01*
X74754931Y-57474664D01*
X74754930Y-57474664D01*
X74673838Y-57446288D01*
X74592744Y-57417912D01*
X74422000Y-57398675D01*
X74251255Y-57417912D01*
X74089067Y-57474665D01*
X74078463Y-57481328D01*
X74074251Y-57483975D01*
X74027092Y-57491987D01*
X74007749Y-57483975D01*
X73999184Y-57478593D01*
X73992932Y-57474665D01*
X73992931Y-57474664D01*
X73992930Y-57474664D01*
X73911838Y-57446288D01*
X73830744Y-57417912D01*
X73660000Y-57398675D01*
X73489255Y-57417912D01*
X73372167Y-57458883D01*
X73327070Y-57474664D01*
X73327069Y-57474664D01*
X73327065Y-57474666D01*
X73181582Y-57566079D01*
X73060079Y-57687582D01*
X72968666Y-57833065D01*
X72911912Y-57995255D01*
X72892675Y-58165999D01*
X68712325Y-58165999D01*
X68693087Y-57995254D01*
X68636336Y-57833070D01*
X68589389Y-57758354D01*
X68544920Y-57687582D01*
X68423417Y-57566079D01*
X68277934Y-57474666D01*
X68277932Y-57474665D01*
X68277930Y-57474664D01*
X68169807Y-57436830D01*
X68115744Y-57417912D01*
X67945000Y-57398675D01*
X67774255Y-57417912D01*
X67612067Y-57474665D01*
X67601463Y-57481328D01*
X67597251Y-57483975D01*
X67550092Y-57491987D01*
X67530749Y-57483975D01*
X67522184Y-57478593D01*
X67515932Y-57474665D01*
X67515931Y-57474664D01*
X67515930Y-57474664D01*
X67434838Y-57446288D01*
X67353744Y-57417912D01*
X67183000Y-57398675D01*
X67012255Y-57417912D01*
X66850067Y-57474665D01*
X66839463Y-57481328D01*
X66835251Y-57483975D01*
X66788092Y-57491987D01*
X66768749Y-57483975D01*
X66760184Y-57478593D01*
X66753932Y-57474665D01*
X66753931Y-57474664D01*
X66753930Y-57474664D01*
X66672838Y-57446288D01*
X66591744Y-57417912D01*
X66421000Y-57398675D01*
X66250255Y-57417912D01*
X66133167Y-57458883D01*
X66088070Y-57474664D01*
X66088069Y-57474664D01*
X66088065Y-57474666D01*
X65942582Y-57566079D01*
X65821079Y-57687582D01*
X65729664Y-57833067D01*
X65710872Y-57886771D01*
X65678997Y-57922438D01*
X65631236Y-57925119D01*
X65622835Y-57921468D01*
X65510454Y-57862485D01*
X65348634Y-57822600D01*
X65348632Y-57822600D01*
X65181968Y-57822600D01*
X65181965Y-57822600D01*
X65020144Y-57862485D01*
X64907596Y-57921555D01*
X64859957Y-57925884D01*
X64849506Y-57921555D01*
X64761153Y-57875185D01*
X64761156Y-57875185D01*
X64599334Y-57835300D01*
X64599332Y-57835300D01*
X64432668Y-57835300D01*
X64432665Y-57835300D01*
X64270845Y-57875185D01*
X64123274Y-57952637D01*
X63998525Y-58063154D01*
X63998521Y-58063158D01*
X63903849Y-58200314D01*
X63897597Y-58216800D01*
X63844748Y-58356151D01*
X63844747Y-58356153D01*
X63844747Y-58356155D01*
X63844746Y-58356158D01*
X63824659Y-58521596D01*
X62646737Y-58521596D01*
X62713188Y-58425325D01*
X62740550Y-58385685D01*
X62740550Y-58385684D01*
X62740552Y-58385682D01*
X62799652Y-58229849D01*
X62801387Y-58215558D01*
X62819741Y-58064403D01*
X62819741Y-58064396D01*
X62799653Y-57898958D01*
X62799652Y-57898955D01*
X62799652Y-57898951D01*
X62740552Y-57743118D01*
X62740550Y-57743116D01*
X62740550Y-57743114D01*
X62645878Y-57605958D01*
X62645874Y-57605954D01*
X62521125Y-57495437D01*
X62373554Y-57417985D01*
X62211734Y-57378100D01*
X62211732Y-57378100D01*
X62045068Y-57378100D01*
X62045065Y-57378100D01*
X61883245Y-57417985D01*
X61735674Y-57495437D01*
X61610925Y-57605954D01*
X61610921Y-57605958D01*
X61516249Y-57743114D01*
X61510469Y-57758356D01*
X61457148Y-57898951D01*
X61457147Y-57898953D01*
X61457147Y-57898955D01*
X61457146Y-57898958D01*
X61437059Y-58064396D01*
X60487891Y-58064396D01*
X60452082Y-58045602D01*
X60422689Y-58012425D01*
X60378352Y-57895518D01*
X60378350Y-57895516D01*
X60378350Y-57895514D01*
X60283678Y-57758358D01*
X60283674Y-57758354D01*
X60158925Y-57647837D01*
X60011354Y-57570385D01*
X59849534Y-57530500D01*
X59849532Y-57530500D01*
X59682868Y-57530500D01*
X59682865Y-57530500D01*
X59521045Y-57570385D01*
X59373474Y-57647837D01*
X59248725Y-57758354D01*
X59248721Y-57758358D01*
X59154049Y-57895514D01*
X59132385Y-57952637D01*
X59094948Y-58051351D01*
X59094947Y-58051353D01*
X59094947Y-58051355D01*
X59094946Y-58051358D01*
X59074859Y-58216796D01*
X58356237Y-58216796D01*
X58356387Y-58215558D01*
X58374741Y-58064403D01*
X58374741Y-58064396D01*
X58354653Y-57898958D01*
X58354652Y-57898955D01*
X58354652Y-57898951D01*
X58295552Y-57743118D01*
X58295550Y-57743116D01*
X58295550Y-57743114D01*
X58200878Y-57605958D01*
X58200874Y-57605954D01*
X58076125Y-57495437D01*
X57928554Y-57417985D01*
X57766734Y-57378100D01*
X57766732Y-57378100D01*
X57600068Y-57378100D01*
X57600065Y-57378100D01*
X57438245Y-57417985D01*
X57290674Y-57495437D01*
X57241033Y-57539415D01*
X57195814Y-57555019D01*
X57152806Y-57534078D01*
X57137481Y-57499629D01*
X57136087Y-57487257D01*
X57136087Y-57487255D01*
X57136087Y-57487254D01*
X57079336Y-57325070D01*
X57070024Y-57310251D01*
X57062011Y-57263094D01*
X57070022Y-57243752D01*
X57079336Y-57228930D01*
X57136087Y-57066746D01*
X57155325Y-56896000D01*
X57136087Y-56725254D01*
X57106955Y-56641999D01*
X62732675Y-56641999D01*
X62732675Y-56642000D01*
X62751912Y-56812744D01*
X62751913Y-56812746D01*
X62808664Y-56974930D01*
X62808665Y-56974932D01*
X62808666Y-56974934D01*
X62900079Y-57120417D01*
X63021582Y-57241920D01*
X63099546Y-57290908D01*
X63167070Y-57333336D01*
X63329254Y-57390087D01*
X63500000Y-57409325D01*
X63670746Y-57390087D01*
X63832930Y-57333336D01*
X63978419Y-57241919D01*
X64099919Y-57120419D01*
X64191336Y-56974930D01*
X64248087Y-56812746D01*
X64267325Y-56642000D01*
X64253016Y-56514999D01*
X71358475Y-56514999D01*
X71358475Y-56515000D01*
X71377712Y-56685744D01*
X71391538Y-56725255D01*
X71434464Y-56847930D01*
X71434465Y-56847932D01*
X71434466Y-56847934D01*
X71525879Y-56993417D01*
X71647382Y-57114920D01*
X71656134Y-57120419D01*
X71792870Y-57206336D01*
X71955054Y-57263087D01*
X72125800Y-57282325D01*
X72296546Y-57263087D01*
X72458730Y-57206336D01*
X72604219Y-57114919D01*
X72725719Y-56993419D01*
X72817136Y-56847930D01*
X72873887Y-56685746D01*
X72893125Y-56515000D01*
X72873887Y-56344254D01*
X72817136Y-56182070D01*
X72795673Y-56147912D01*
X72725720Y-56036582D01*
X72604217Y-55915079D01*
X72458734Y-55823666D01*
X72458732Y-55823665D01*
X72458730Y-55823664D01*
X72350607Y-55785830D01*
X72296544Y-55766912D01*
X72125800Y-55747675D01*
X71955055Y-55766912D01*
X71837967Y-55807883D01*
X71792870Y-55823664D01*
X71792869Y-55823664D01*
X71792865Y-55823666D01*
X71647382Y-55915079D01*
X71525879Y-56036582D01*
X71434466Y-56182065D01*
X71377712Y-56344255D01*
X71358475Y-56514999D01*
X64253016Y-56514999D01*
X64248087Y-56471254D01*
X64191336Y-56309070D01*
X64184740Y-56298572D01*
X64099920Y-56163582D01*
X63978417Y-56042079D01*
X63832934Y-55950666D01*
X63832932Y-55950665D01*
X63832930Y-55950664D01*
X63724807Y-55912830D01*
X63670744Y-55893912D01*
X63500000Y-55874675D01*
X63329255Y-55893912D01*
X63222460Y-55931282D01*
X63167070Y-55950664D01*
X63167069Y-55950664D01*
X63167065Y-55950666D01*
X63021582Y-56042079D01*
X62900079Y-56163582D01*
X62808666Y-56309065D01*
X62751912Y-56471255D01*
X62732675Y-56641999D01*
X57106955Y-56641999D01*
X57079336Y-56563070D01*
X56987919Y-56417581D01*
X56866419Y-56296081D01*
X56866417Y-56296079D01*
X56720934Y-56204666D01*
X56720932Y-56204665D01*
X56720930Y-56204664D01*
X56603522Y-56163581D01*
X56558744Y-56147912D01*
X56388000Y-56128675D01*
X56217255Y-56147912D01*
X56100167Y-56188883D01*
X56055070Y-56204664D01*
X56055069Y-56204664D01*
X56055065Y-56204666D01*
X55918368Y-56290559D01*
X55871208Y-56298572D01*
X55832196Y-56270891D01*
X55823072Y-56230105D01*
X55834741Y-56134002D01*
X55834741Y-56133996D01*
X55814653Y-55968558D01*
X55814652Y-55968555D01*
X55814652Y-55968551D01*
X55755569Y-55812762D01*
X55757014Y-55764949D01*
X55791845Y-55732161D01*
X55814008Y-55728100D01*
X56563632Y-55728100D01*
X56563638Y-55728100D01*
X56624201Y-55721589D01*
X56761204Y-55670489D01*
X56878261Y-55582861D01*
X56965889Y-55465804D01*
X57016989Y-55328801D01*
X57023500Y-55268238D01*
X57023500Y-54584595D01*
X57271601Y-54584595D01*
X57271601Y-54584604D01*
X57291153Y-54795610D01*
X57291155Y-54795622D01*
X57336153Y-54953770D01*
X57349150Y-54999450D01*
X57443611Y-55189154D01*
X57571323Y-55358271D01*
X57727934Y-55501041D01*
X57727933Y-55501041D01*
X57908111Y-55612603D01*
X57908113Y-55612604D01*
X57908115Y-55612605D01*
X58105726Y-55689160D01*
X58314039Y-55728100D01*
X58314042Y-55728100D01*
X58525958Y-55728100D01*
X58525961Y-55728100D01*
X58734274Y-55689160D01*
X58931885Y-55612605D01*
X59112065Y-55501042D01*
X59268677Y-55358271D01*
X59396389Y-55189154D01*
X59490850Y-54999450D01*
X59544495Y-54810906D01*
X59548844Y-54795622D01*
X59548846Y-54795610D01*
X59568399Y-54584604D01*
X59568399Y-54584595D01*
X59811601Y-54584595D01*
X59811601Y-54584604D01*
X59831153Y-54795610D01*
X59831155Y-54795622D01*
X59876153Y-54953770D01*
X59889150Y-54999450D01*
X59983611Y-55189154D01*
X60111323Y-55358271D01*
X60267934Y-55501041D01*
X60267933Y-55501041D01*
X60448111Y-55612603D01*
X60448113Y-55612604D01*
X60448115Y-55612605D01*
X60645726Y-55689160D01*
X60854039Y-55728100D01*
X60854042Y-55728100D01*
X61065958Y-55728100D01*
X61065961Y-55728100D01*
X61274274Y-55689160D01*
X61471885Y-55612605D01*
X61652065Y-55501042D01*
X61808677Y-55358271D01*
X61936389Y-55189154D01*
X62030850Y-54999450D01*
X62084495Y-54810906D01*
X62088844Y-54795622D01*
X62088846Y-54795610D01*
X62108399Y-54584604D01*
X62108399Y-54584595D01*
X62351601Y-54584595D01*
X62351601Y-54584604D01*
X62371153Y-54795610D01*
X62371155Y-54795622D01*
X62416153Y-54953770D01*
X62429150Y-54999450D01*
X62523611Y-55189154D01*
X62651323Y-55358271D01*
X62807934Y-55501041D01*
X62807933Y-55501041D01*
X62988111Y-55612603D01*
X62988113Y-55612604D01*
X62988115Y-55612605D01*
X63185726Y-55689160D01*
X63394039Y-55728100D01*
X63394042Y-55728100D01*
X63605958Y-55728100D01*
X63605961Y-55728100D01*
X63814274Y-55689160D01*
X64011885Y-55612605D01*
X64192065Y-55501042D01*
X64348677Y-55358271D01*
X64476389Y-55189154D01*
X64570850Y-54999450D01*
X64624495Y-54810906D01*
X64628844Y-54795622D01*
X64628846Y-54795610D01*
X64648399Y-54584604D01*
X64648399Y-54584595D01*
X64891601Y-54584595D01*
X64891601Y-54584604D01*
X64911153Y-54795610D01*
X64911155Y-54795622D01*
X64956153Y-54953770D01*
X64969150Y-54999450D01*
X65063611Y-55189154D01*
X65191323Y-55358271D01*
X65347934Y-55501041D01*
X65347933Y-55501041D01*
X65528111Y-55612603D01*
X65528113Y-55612604D01*
X65528115Y-55612605D01*
X65725726Y-55689160D01*
X65934039Y-55728100D01*
X65934042Y-55728100D01*
X66145958Y-55728100D01*
X66145961Y-55728100D01*
X66354274Y-55689160D01*
X66551885Y-55612605D01*
X66732065Y-55501042D01*
X66888677Y-55358271D01*
X67016389Y-55189154D01*
X67110850Y-54999450D01*
X67164495Y-54810906D01*
X67168844Y-54795622D01*
X67168846Y-54795610D01*
X67188399Y-54584604D01*
X67188399Y-54584595D01*
X67431601Y-54584595D01*
X67431601Y-54584604D01*
X67451153Y-54795610D01*
X67451155Y-54795622D01*
X67496153Y-54953770D01*
X67509150Y-54999450D01*
X67603611Y-55189154D01*
X67731323Y-55358271D01*
X67887934Y-55501041D01*
X67887933Y-55501041D01*
X68068111Y-55612603D01*
X68068113Y-55612604D01*
X68068115Y-55612605D01*
X68265726Y-55689160D01*
X68474039Y-55728100D01*
X68474042Y-55728100D01*
X68685958Y-55728100D01*
X68685961Y-55728100D01*
X68894274Y-55689160D01*
X69091885Y-55612605D01*
X69272065Y-55501042D01*
X69428677Y-55358271D01*
X69498777Y-55265442D01*
X69540018Y-55241206D01*
X69577698Y-55247765D01*
X69604847Y-55262015D01*
X69766668Y-55301900D01*
X69766670Y-55301900D01*
X69933330Y-55301900D01*
X69933332Y-55301900D01*
X70095153Y-55262015D01*
X70122299Y-55247766D01*
X70169937Y-55243436D01*
X70201221Y-55265442D01*
X70203332Y-55268238D01*
X70271323Y-55358271D01*
X70427934Y-55501041D01*
X70427933Y-55501041D01*
X70608111Y-55612603D01*
X70608113Y-55612604D01*
X70608115Y-55612605D01*
X70805726Y-55689160D01*
X71014039Y-55728100D01*
X71014042Y-55728100D01*
X71225958Y-55728100D01*
X71225961Y-55728100D01*
X71434274Y-55689160D01*
X71631885Y-55612605D01*
X71812065Y-55501042D01*
X71968677Y-55358271D01*
X72096389Y-55189154D01*
X72190850Y-54999450D01*
X72244495Y-54810906D01*
X72248844Y-54795622D01*
X72248846Y-54795610D01*
X72268399Y-54584604D01*
X72268399Y-54584595D01*
X72511601Y-54584595D01*
X72511601Y-54584604D01*
X72531153Y-54795610D01*
X72531155Y-54795622D01*
X72576153Y-54953770D01*
X72589150Y-54999450D01*
X72683611Y-55189154D01*
X72811323Y-55358271D01*
X72967934Y-55501041D01*
X72967933Y-55501041D01*
X73148111Y-55612603D01*
X73148113Y-55612604D01*
X73148115Y-55612605D01*
X73345726Y-55689160D01*
X73554039Y-55728100D01*
X73554042Y-55728100D01*
X73765958Y-55728100D01*
X73765961Y-55728100D01*
X73974274Y-55689160D01*
X74171885Y-55612605D01*
X74352065Y-55501042D01*
X74508677Y-55358271D01*
X74636389Y-55189154D01*
X74730850Y-54999450D01*
X74784495Y-54810906D01*
X74788844Y-54795622D01*
X74788846Y-54795610D01*
X74808399Y-54584604D01*
X74808399Y-54584595D01*
X74788846Y-54373589D01*
X74788844Y-54373577D01*
X74749343Y-54234747D01*
X74730850Y-54169750D01*
X74636389Y-53980046D01*
X74508677Y-53810929D01*
X74352065Y-53668158D01*
X74352066Y-53668158D01*
X74171888Y-53556596D01*
X74171886Y-53556595D01*
X74080698Y-53521269D01*
X73974274Y-53480040D01*
X73974271Y-53480039D01*
X73974270Y-53480039D01*
X73765965Y-53441100D01*
X73765961Y-53441100D01*
X73554039Y-53441100D01*
X73554034Y-53441100D01*
X73345729Y-53480039D01*
X73148113Y-53556595D01*
X73148111Y-53556596D01*
X72967933Y-53668158D01*
X72811321Y-53810931D01*
X72811319Y-53810933D01*
X72683611Y-53980046D01*
X72589150Y-54169749D01*
X72531155Y-54373577D01*
X72531153Y-54373589D01*
X72511601Y-54584595D01*
X72268399Y-54584595D01*
X72248846Y-54373589D01*
X72248844Y-54373577D01*
X72209343Y-54234747D01*
X72190850Y-54169750D01*
X72096389Y-53980046D01*
X71968677Y-53810929D01*
X71812065Y-53668158D01*
X71812066Y-53668158D01*
X71631888Y-53556596D01*
X71631886Y-53556595D01*
X71540698Y-53521269D01*
X71434274Y-53480040D01*
X71434271Y-53480039D01*
X71434270Y-53480039D01*
X71225965Y-53441100D01*
X71225961Y-53441100D01*
X71014039Y-53441100D01*
X71014034Y-53441100D01*
X70805729Y-53480039D01*
X70608113Y-53556595D01*
X70608111Y-53556596D01*
X70427933Y-53668158D01*
X70271321Y-53810931D01*
X70271319Y-53810933D01*
X70167431Y-53948502D01*
X70126189Y-53972738D01*
X70098926Y-53969673D01*
X70098824Y-53970090D01*
X70095634Y-53969303D01*
X70095396Y-53969277D01*
X70095155Y-53969185D01*
X69933334Y-53929300D01*
X69933332Y-53929300D01*
X69766668Y-53929300D01*
X69766665Y-53929300D01*
X69604842Y-53969186D01*
X69604598Y-53969279D01*
X69604480Y-53969275D01*
X69601176Y-53970090D01*
X69600948Y-53969168D01*
X69556784Y-53967827D01*
X69532568Y-53948502D01*
X69428680Y-53810933D01*
X69428677Y-53810929D01*
X69272065Y-53668158D01*
X69272066Y-53668158D01*
X69091888Y-53556596D01*
X69091886Y-53556595D01*
X69000698Y-53521269D01*
X68894274Y-53480040D01*
X68894271Y-53480039D01*
X68894270Y-53480039D01*
X68685965Y-53441100D01*
X68685961Y-53441100D01*
X68474039Y-53441100D01*
X68474034Y-53441100D01*
X68265729Y-53480039D01*
X68068113Y-53556595D01*
X68068111Y-53556596D01*
X67887933Y-53668158D01*
X67731321Y-53810931D01*
X67731319Y-53810933D01*
X67603611Y-53980046D01*
X67509150Y-54169749D01*
X67451155Y-54373577D01*
X67451153Y-54373589D01*
X67431601Y-54584595D01*
X67188399Y-54584595D01*
X67168846Y-54373589D01*
X67168844Y-54373577D01*
X67129343Y-54234747D01*
X67110850Y-54169750D01*
X67016389Y-53980046D01*
X66888677Y-53810929D01*
X66732065Y-53668158D01*
X66732066Y-53668158D01*
X66551888Y-53556596D01*
X66551886Y-53556595D01*
X66460698Y-53521269D01*
X66354274Y-53480040D01*
X66354271Y-53480039D01*
X66354270Y-53480039D01*
X66145965Y-53441100D01*
X66145961Y-53441100D01*
X65934039Y-53441100D01*
X65934034Y-53441100D01*
X65725729Y-53480039D01*
X65528113Y-53556595D01*
X65528111Y-53556596D01*
X65347933Y-53668158D01*
X65191321Y-53810931D01*
X65191319Y-53810933D01*
X65063611Y-53980046D01*
X64969150Y-54169749D01*
X64911155Y-54373577D01*
X64911153Y-54373589D01*
X64891601Y-54584595D01*
X64648399Y-54584595D01*
X64628846Y-54373589D01*
X64628844Y-54373577D01*
X64589343Y-54234747D01*
X64570850Y-54169750D01*
X64476389Y-53980046D01*
X64348677Y-53810929D01*
X64192065Y-53668158D01*
X64192066Y-53668158D01*
X64011888Y-53556596D01*
X64011886Y-53556595D01*
X63920698Y-53521269D01*
X63814274Y-53480040D01*
X63814271Y-53480039D01*
X63814270Y-53480039D01*
X63605965Y-53441100D01*
X63605961Y-53441100D01*
X63394039Y-53441100D01*
X63394034Y-53441100D01*
X63185729Y-53480039D01*
X62988113Y-53556595D01*
X62988111Y-53556596D01*
X62807933Y-53668158D01*
X62651321Y-53810931D01*
X62651319Y-53810933D01*
X62523611Y-53980046D01*
X62429150Y-54169749D01*
X62371155Y-54373577D01*
X62371153Y-54373589D01*
X62351601Y-54584595D01*
X62108399Y-54584595D01*
X62088846Y-54373589D01*
X62088844Y-54373577D01*
X62049343Y-54234747D01*
X62030850Y-54169750D01*
X61936389Y-53980046D01*
X61808677Y-53810929D01*
X61652065Y-53668158D01*
X61652066Y-53668158D01*
X61471888Y-53556596D01*
X61471886Y-53556595D01*
X61380698Y-53521269D01*
X61274274Y-53480040D01*
X61274271Y-53480039D01*
X61274270Y-53480039D01*
X61065965Y-53441100D01*
X61065961Y-53441100D01*
X60854039Y-53441100D01*
X60854034Y-53441100D01*
X60645729Y-53480039D01*
X60448113Y-53556595D01*
X60448111Y-53556596D01*
X60267933Y-53668158D01*
X60111321Y-53810931D01*
X60111319Y-53810933D01*
X59983611Y-53980046D01*
X59889150Y-54169749D01*
X59831155Y-54373577D01*
X59831153Y-54373589D01*
X59811601Y-54584595D01*
X59568399Y-54584595D01*
X59548846Y-54373589D01*
X59548844Y-54373577D01*
X59509343Y-54234747D01*
X59490850Y-54169750D01*
X59396389Y-53980046D01*
X59268677Y-53810929D01*
X59112065Y-53668158D01*
X59112066Y-53668158D01*
X58931888Y-53556596D01*
X58931886Y-53556595D01*
X58840698Y-53521269D01*
X58734274Y-53480040D01*
X58734271Y-53480039D01*
X58734270Y-53480039D01*
X58525965Y-53441100D01*
X58525961Y-53441100D01*
X58314039Y-53441100D01*
X58314034Y-53441100D01*
X58105729Y-53480039D01*
X57908113Y-53556595D01*
X57908111Y-53556596D01*
X57727933Y-53668158D01*
X57571321Y-53810931D01*
X57571319Y-53810933D01*
X57443611Y-53980046D01*
X57349150Y-54169749D01*
X57291155Y-54373577D01*
X57291153Y-54373589D01*
X57271601Y-54584595D01*
X57023500Y-54584595D01*
X57023500Y-53900962D01*
X57016989Y-53840399D01*
X56965889Y-53703396D01*
X56878261Y-53586339D01*
X56761204Y-53498711D01*
X56761202Y-53498710D01*
X56761200Y-53498709D01*
X56624202Y-53447611D01*
X56563645Y-53441100D01*
X56563638Y-53441100D01*
X55398569Y-53441100D01*
X55354375Y-53422794D01*
X55336069Y-53378600D01*
X55336228Y-53374143D01*
X55336306Y-53373034D01*
X55336309Y-53373017D01*
X55336296Y-53245808D01*
X55336296Y-53242809D01*
X55336296Y-50578981D01*
X55354602Y-50534787D01*
X55398796Y-50516481D01*
X76681205Y-50516481D01*
X76725399Y-50534787D01*
G37*
%TD.AperFunction*%
%TD*%
D16*
X62551177Y-89365827D03*
X62558818Y-88223553D03*
X63137596Y-88229283D03*
X62553087Y-88796600D03*
X63139506Y-89373468D03*
X63143326Y-88800420D03*
D17*
X70612000Y-62230000D03*
X67421000Y-75060000D03*
X75819000Y-74650600D03*
D16*
X72125800Y-56515000D03*
D17*
X59436000Y-62230000D03*
X68961000Y-77470000D03*
X67208400Y-79629000D03*
D16*
X66931169Y-83693452D03*
D17*
X54152800Y-73431400D03*
X70104000Y-62230000D03*
X67945000Y-77442000D03*
X67081400Y-91033600D03*
X70612000Y-61722000D03*
X70104000Y-61722000D03*
D16*
X77531000Y-56515000D03*
D17*
X69850000Y-54615600D03*
X58928000Y-62230000D03*
X59436000Y-61722000D03*
D16*
X63500000Y-56642000D03*
D17*
X59766200Y-58216800D03*
X77241400Y-72771000D03*
X57886600Y-64871600D03*
X58928000Y-61722000D03*
X69342000Y-68858000D03*
X74320400Y-72821800D03*
X63909000Y-77343000D03*
X63119000Y-71021000D03*
D16*
X62230000Y-82550000D03*
X62865000Y-82550000D03*
X62103000Y-74295000D03*
X62738000Y-73025000D03*
X62865000Y-81915000D03*
X62103000Y-73025000D03*
X62738000Y-73660000D03*
X62103000Y-73660000D03*
X62230000Y-81915000D03*
X63500000Y-81915000D03*
D17*
X67168000Y-78450000D03*
D16*
X62738000Y-74295000D03*
X63500000Y-82550000D03*
D17*
X61595000Y-58597800D03*
X71374000Y-67181000D03*
X69723000Y-75184000D03*
X75793600Y-72085200D03*
X55608600Y-64469800D03*
X68354000Y-68859400D03*
X67338000Y-81026000D03*
X53873400Y-72974200D03*
X59512200Y-67284600D03*
D16*
X63093600Y-86233000D03*
X75184000Y-58166000D03*
D17*
X70612000Y-63754000D03*
D16*
X56388000Y-57658000D03*
D17*
X61976000Y-63754000D03*
X61468000Y-63754000D03*
D16*
X74422000Y-58166000D03*
X67183000Y-58166000D03*
X75946000Y-58166000D03*
D17*
X70104000Y-63754000D03*
D16*
X76708000Y-58166000D03*
X67945000Y-58166000D03*
D17*
X70612000Y-64262000D03*
D16*
X66421000Y-58166000D03*
D17*
X70104000Y-64262000D03*
X61976000Y-64262000D03*
X61468000Y-64262000D03*
D16*
X69342000Y-70358000D03*
X56388000Y-56896000D03*
X73660000Y-58166000D03*
D17*
X55092600Y-74064400D03*
X54414800Y-75493400D03*
X67919600Y-75666600D03*
X57785000Y-72821800D03*
X57886600Y-74015600D03*
X65265300Y-58508900D03*
X64516000Y-58521600D03*
X75285600Y-74828400D03*
X76327000Y-74828400D03*
X53898800Y-74015600D03*
X67818000Y-78450000D03*
X54973600Y-71454800D03*
X70205600Y-83566000D03*
X65201800Y-82499200D03*
X54356000Y-74422000D03*
X56142000Y-75772800D03*
X69723000Y-74166000D03*
X58902600Y-64871600D03*
X68421000Y-75060000D03*
X55557800Y-75823600D03*
X71374000Y-68224400D03*
X57310400Y-74528200D03*
X54922800Y-75671200D03*
X58343800Y-64363600D03*
X61798200Y-70205600D03*
X63879000Y-76327000D03*
X66624200Y-68351400D03*
X57412000Y-75061600D03*
X64643000Y-75793600D03*
X69723000Y-73154000D03*
X74904600Y-72796400D03*
X76682600Y-72771000D03*
X57683400Y-58064400D03*
X60172600Y-58674000D03*
X62128400Y-58064400D03*
X77927200Y-72263000D03*
X57894600Y-66348200D03*
X55143400Y-56134000D03*
D18*
X68884800Y-92506800D03*
X56515000Y-62204600D03*
X63195200Y-92506800D03*
X68021200Y-95072200D03*
X69824600Y-95072200D03*
X65862200Y-95834200D03*
X65836800Y-94056200D03*
X62255400Y-95072200D03*
X64058800Y-95072200D03*
X69697600Y-88976200D03*
X75565000Y-62204600D03*
X66040000Y-89509600D03*
X55253000Y-65612800D03*
X56269000Y-70692800D03*
X54237000Y-70692800D03*
X55880000Y-54584600D03*
X58420000Y-54584600D03*
X60960000Y-54584600D03*
X63500000Y-54584600D03*
X66040000Y-54584600D03*
X68580000Y-54584600D03*
X71120000Y-54584600D03*
X73660000Y-54584600D03*
X76200000Y-54584600D03*
M02*
