%TF.GenerationSoftware,KiCad,Pcbnew,8.0.3*%
%TF.CreationDate,2024-09-11T11:50:36-04:00*%
%TF.ProjectId,100064667,31303030-3634-4363-9637-2e6b69636164,1*%
%TF.SameCoordinates,Original*%
%TF.FileFunction,Paste,Top*%
%TF.FilePolarity,Positive*%
%FSLAX46Y46*%
G04 Gerber Fmt 4.6, Leading zero omitted, Abs format (unit mm)*
G04 Created by KiCad (PCBNEW 8.0.3) date 2024-09-11 11:50:36*
%MOMM*%
%LPD*%
G01*
G04 APERTURE LIST*
G04 Aperture macros list*
%AMRoundRect*
0 Rectangle with rounded corners*
0 $1 Rounding radius*
0 $2 $3 $4 $5 $6 $7 $8 $9 X,Y pos of 4 corners*
0 Add a 4 corners polygon primitive as box body*
4,1,4,$2,$3,$4,$5,$6,$7,$8,$9,$2,$3,0*
0 Add four circle primitives for the rounded corners*
1,1,$1+$1,$2,$3*
1,1,$1+$1,$4,$5*
1,1,$1+$1,$6,$7*
1,1,$1+$1,$8,$9*
0 Add four rect primitives between the rounded corners*
20,1,$1+$1,$2,$3,$4,$5,0*
20,1,$1+$1,$4,$5,$6,$7,0*
20,1,$1+$1,$6,$7,$8,$9,0*
20,1,$1+$1,$8,$9,$2,$3,0*%
%AMRotRect*
0 Rectangle, with rotation*
0 The origin of the aperture is its center*
0 $1 length*
0 $2 width*
0 $3 Rotation angle, in degrees counterclockwise*
0 Add horizontal line*
21,1,$1,$2,0,0,$3*%
%AMOutline5P*
0 Free polygon, 5 corners , with rotation*
0 The origin of the aperture is its center*
0 number of corners: always 5*
0 $1 to $10 corner X, Y*
0 $11 Rotation angle, in degrees counterclockwise*
0 create outline with 5 corners*
4,1,5,$1,$2,$3,$4,$5,$6,$7,$8,$9,$10,$1,$2,$11*%
%AMOutline6P*
0 Free polygon, 6 corners , with rotation*
0 The origin of the aperture is its center*
0 number of corners: always 6*
0 $1 to $12 corner X, Y*
0 $13 Rotation angle, in degrees counterclockwise*
0 create outline with 6 corners*
4,1,6,$1,$2,$3,$4,$5,$6,$7,$8,$9,$10,$11,$12,$1,$2,$13*%
%AMOutline7P*
0 Free polygon, 7 corners , with rotation*
0 The origin of the aperture is its center*
0 number of corners: always 7*
0 $1 to $14 corner X, Y*
0 $15 Rotation angle, in degrees counterclockwise*
0 create outline with 7 corners*
4,1,7,$1,$2,$3,$4,$5,$6,$7,$8,$9,$10,$11,$12,$13,$14,$1,$2,$15*%
%AMOutline8P*
0 Free polygon, 8 corners , with rotation*
0 The origin of the aperture is its center*
0 number of corners: always 8*
0 $1 to $16 corner X, Y*
0 $17 Rotation angle, in degrees counterclockwise*
0 create outline with 8 corners*
4,1,8,$1,$2,$3,$4,$5,$6,$7,$8,$9,$10,$11,$12,$13,$14,$15,$16,$1,$2,$17*%
%AMFreePoly0*
4,1,37,-0.764646,1.750354,-0.764500,1.750000,-0.764500,1.300500,-0.535500,1.300500,-0.535500,1.750000,-0.535354,1.750354,-0.535000,1.750500,-0.115000,1.750500,-0.114646,1.750354,-0.114500,1.750000,-0.114500,1.300500,0.114500,1.300500,0.114500,1.750000,0.114646,1.750354,0.115000,1.750500,0.535000,1.750500,0.535354,1.750354,0.535500,1.750000,0.535500,1.300500,0.764500,1.300500,
0.764500,1.750000,0.764646,1.750354,0.765000,1.750500,1.185000,1.750500,1.185354,1.750354,1.185500,1.750000,1.185500,-0.400000,1.185354,-0.400354,1.185000,-0.400500,-1.185000,-0.400500,-1.185354,-0.400354,-1.185500,-0.400000,-1.185500,1.750000,-1.185354,1.750354,-1.185000,1.750500,-0.765000,1.750500,-0.764646,1.750354,-0.764646,1.750354,$1*%
%AMFreePoly1*
4,1,29,3.175000,-0.635000,0.000000,-0.635000,-0.004630,-0.630370,-0.076541,-0.630370,-0.225174,-0.593735,-0.360721,-0.522595,-0.475304,-0.421083,-0.562265,-0.295099,-0.616548,-0.151965,-0.635000,0.000000,-0.616548,0.151965,-0.562265,0.295099,-0.475304,0.421083,-0.360721,0.522595,-0.225174,0.593735,-0.076541,0.630370,-0.004630,0.630370,0.000000,0.635000,0.904421,0.635000,0.907452,0.659965,
0.961735,0.803099,1.048696,0.929083,1.163279,1.030595,1.298826,1.101735,1.447459,1.138370,1.506091,1.138370,1.511300,1.143000,3.175000,1.143000,3.175000,-0.635000,3.175000,-0.635000,$1*%
%AMFreePoly2*
4,1,27,0.099336,1.198682,0.252189,1.154274,0.389196,1.073248,0.501748,0.960696,0.582774,0.823689,0.627182,0.670836,0.635000,0.571500,0.635000,-1.206500,-2.540000,-1.206500,-2.544630,-1.201870,-2.616541,-1.201870,-2.765174,-1.165235,-2.900721,-1.094095,-3.015304,-0.992583,-3.102265,-0.866599,-3.156548,-0.723465,-3.175000,-0.571500,-3.175000,0.571500,-0.635000,0.571500,-0.627182,0.670836,
-0.582774,0.823689,-0.501748,0.960696,-0.389196,1.073248,-0.252189,1.154274,-0.099336,1.198682,0.000000,1.206500,0.099336,1.198682,0.099336,1.198682,$1*%
%AMFreePoly3*
4,1,26,0.225174,0.593735,0.360721,0.522595,0.475304,0.421083,0.562265,0.295099,0.616548,0.151965,0.635000,0.000000,3.175000,0.000000,3.175000,-1.143000,3.156548,-1.294965,3.102265,-1.438099,3.015304,-1.564083,2.900721,-1.665595,2.765174,-1.736735,2.616541,-1.773370,2.544630,-1.773370,2.540000,-1.778000,-0.635000,-1.778000,-0.635000,0.000000,-0.616548,0.151965,-0.562265,0.295099,
-0.475304,0.421083,-0.360721,0.522595,-0.225174,0.593735,-0.076541,0.630370,0.076541,0.630370,0.225174,0.593735,0.225174,0.593735,$1*%
%AMFreePoly4*
4,1,29,3.175000,-1.143000,1.511300,-1.143000,1.506091,-1.138370,1.447459,-1.138370,1.298826,-1.101735,1.163279,-1.030595,1.048696,-0.929083,0.961735,-0.803099,0.907452,-0.659965,0.904421,-0.635000,0.000000,-0.635000,-0.004630,-0.630370,-0.076541,-0.630370,-0.225174,-0.593735,-0.360721,-0.522595,-0.475304,-0.421083,-0.562265,-0.295099,-0.616548,-0.151965,-0.635000,0.000000,-0.616548,0.151965,
-0.562265,0.295099,-0.475304,0.421083,-0.360721,0.522595,-0.225174,0.593735,-0.076541,0.630370,-0.004630,0.630370,0.000000,0.635000,3.175000,0.635000,3.175000,-1.143000,3.175000,-1.143000,$1*%
%AMFreePoly5*
4,1,6,0.325000,0.000000,0.325000,-0.150000,-0.175000,-0.150000,-0.175000,0.150000,0.175000,0.150000,0.325000,0.000000,0.325000,0.000000,$1*%
%AMFreePoly6*
4,1,6,0.325000,0.000000,0.175000,-0.150000,-0.175000,-0.150000,-0.175000,0.150000,0.325000,0.150000,0.325000,0.000000,0.325000,0.000000,$1*%
%AMFreePoly7*
4,1,6,0.150000,-0.175000,-0.150000,-0.175000,-0.150000,0.175000,0.000000,0.325000,0.150000,0.325000,0.150000,-0.175000,0.150000,-0.175000,$1*%
%AMFreePoly8*
4,1,6,0.150000,0.175000,0.150000,-0.175000,-0.150000,-0.175000,-0.150000,0.325000,0.000000,0.325000,0.150000,0.175000,0.150000,0.175000,$1*%
%AMFreePoly9*
4,1,6,0.175000,-0.150000,-0.175000,-0.150000,-0.325000,0.000000,-0.325000,0.150000,0.175000,0.150000,0.175000,-0.150000,0.175000,-0.150000,$1*%
%AMFreePoly10*
4,1,7,0.175000,-0.150000,-0.175000,-0.150000,-0.325000,-0.150000,-0.325000,0.000000,-0.175000,0.150000,0.175000,0.150000,0.175000,-0.150000,0.175000,-0.150000,$1*%
%AMFreePoly11*
4,1,6,0.150000,-0.175000,0.000000,-0.325000,-0.150000,-0.325000,-0.150000,0.175000,0.150000,0.175000,0.150000,-0.175000,0.150000,-0.175000,$1*%
%AMFreePoly12*
4,1,6,0.150000,-0.325000,0.000000,-0.325000,-0.150000,-0.175000,-0.150000,0.175000,0.150000,0.175000,0.150000,-0.325000,0.150000,-0.325000,$1*%
G04 Aperture macros list end*
%ADD10C,0.254000*%
%ADD11RoundRect,0.135000X-0.185000X0.135000X-0.185000X-0.135000X0.185000X-0.135000X0.185000X0.135000X0*%
%ADD12R,0.420000X0.700000*%
%ADD13FreePoly0,0.000000*%
%ADD14RoundRect,0.050000X-0.100000X0.285000X-0.100000X-0.285000X0.100000X-0.285000X0.100000X0.285000X0*%
%ADD15RoundRect,0.140000X-0.170000X0.140000X-0.170000X-0.140000X0.170000X-0.140000X0.170000X0.140000X0*%
%ADD16RoundRect,0.135000X0.135000X0.185000X-0.135000X0.185000X-0.135000X-0.185000X0.135000X-0.185000X0*%
%ADD17RoundRect,0.140000X-0.140000X-0.170000X0.140000X-0.170000X0.140000X0.170000X-0.140000X0.170000X0*%
%ADD18R,0.250000X0.400000*%
%ADD19R,0.700000X0.400000*%
%ADD20RoundRect,0.050000X-0.125000X-0.050000X0.125000X-0.050000X0.125000X0.050000X-0.125000X0.050000X0*%
%ADD21RoundRect,0.050000X-0.100000X-0.050000X0.100000X-0.050000X0.100000X0.050000X-0.100000X0.050000X0*%
%ADD22FreePoly1,270.000000*%
%ADD23R,0.713000X0.225000*%
%ADD24R,0.225000X0.563000*%
%ADD25FreePoly2,90.000000*%
%ADD26RoundRect,0.162560X-0.650240X-1.361440X0.650240X-1.361440X0.650240X1.361440X-0.650240X1.361440X0*%
%ADD27RoundRect,0.162560X0.650240X1.361440X-0.650240X1.361440X-0.650240X-1.361440X0.650240X-1.361440X0*%
%ADD28RoundRect,0.140000X0.140000X0.170000X-0.140000X0.170000X-0.140000X-0.170000X0.140000X-0.170000X0*%
%ADD29FreePoly3,270.000000*%
%ADD30RoundRect,0.140000X0.170000X-0.140000X0.170000X0.140000X-0.170000X0.140000X-0.170000X-0.140000X0*%
%ADD31RoundRect,0.135000X-0.135000X-0.185000X0.135000X-0.185000X0.135000X0.185000X-0.135000X0.185000X0*%
%ADD32FreePoly4,270.000000*%
%ADD33Outline5P,-0.425000X0.125000X0.300000X0.125000X0.425000X0.000000X0.425000X-0.125000X-0.425000X-0.125000X90.000000*%
%ADD34R,0.250000X0.800000*%
%ADD35R,0.800000X0.250000*%
%ADD36R,0.850000X0.250000*%
%ADD37R,0.250000X1.250000*%
%ADD38C,1.016000*%
%ADD39RoundRect,0.254000X1.016000X-1.016000X1.016000X1.016000X-1.016000X1.016000X-1.016000X-1.016000X0*%
%ADD40R,0.275000X0.713000*%
%ADD41R,0.400000X0.450000*%
%ADD42R,1.720000X1.120000*%
%ADD43R,0.640000X1.000000*%
%ADD44R,0.700000X0.250000*%
%ADD45FreePoly5,0.000000*%
%ADD46R,0.700000X0.300000*%
%ADD47FreePoly6,0.000000*%
%ADD48FreePoly7,0.000000*%
%ADD49R,0.300000X0.700000*%
%ADD50FreePoly8,0.000000*%
%ADD51FreePoly9,0.000000*%
%ADD52FreePoly10,0.000000*%
%ADD53FreePoly11,0.000000*%
%ADD54FreePoly12,0.000000*%
%ADD55RoundRect,0.135000X0.185000X-0.135000X0.185000X0.135000X-0.185000X0.135000X-0.185000X-0.135000X0*%
%ADD56R,0.800000X1.070000*%
%ADD57RotRect,0.282800X0.282800X135.000000*%
%ADD58R,0.600000X0.200000*%
%ADD59R,0.850000X0.300000*%
%ADD60R,0.300000X0.850000*%
G04 APERTURE END LIST*
D10*
X56911724Y-119521852D02*
X56234391Y-119521852D01*
X56234391Y-120586233D02*
X56234391Y-118554233D01*
X56234391Y-118554233D02*
X57202010Y-118554233D01*
X59137248Y-120586233D02*
X58459915Y-119618614D01*
X57976105Y-120586233D02*
X57976105Y-118554233D01*
X57976105Y-118554233D02*
X58750200Y-118554233D01*
X58750200Y-118554233D02*
X58943724Y-118650995D01*
X58943724Y-118650995D02*
X59040486Y-118747757D01*
X59040486Y-118747757D02*
X59137248Y-118941281D01*
X59137248Y-118941281D02*
X59137248Y-119231567D01*
X59137248Y-119231567D02*
X59040486Y-119425091D01*
X59040486Y-119425091D02*
X58943724Y-119521852D01*
X58943724Y-119521852D02*
X58750200Y-119618614D01*
X58750200Y-119618614D02*
X57976105Y-119618614D01*
X60395153Y-118554233D02*
X60782200Y-118554233D01*
X60782200Y-118554233D02*
X60975724Y-118650995D01*
X60975724Y-118650995D02*
X61169248Y-118844519D01*
X61169248Y-118844519D02*
X61266010Y-119231567D01*
X61266010Y-119231567D02*
X61266010Y-119908900D01*
X61266010Y-119908900D02*
X61169248Y-120295948D01*
X61169248Y-120295948D02*
X60975724Y-120489472D01*
X60975724Y-120489472D02*
X60782200Y-120586233D01*
X60782200Y-120586233D02*
X60395153Y-120586233D01*
X60395153Y-120586233D02*
X60201629Y-120489472D01*
X60201629Y-120489472D02*
X60008105Y-120295948D01*
X60008105Y-120295948D02*
X59911343Y-119908900D01*
X59911343Y-119908900D02*
X59911343Y-119231567D01*
X59911343Y-119231567D02*
X60008105Y-118844519D01*
X60008105Y-118844519D02*
X60201629Y-118650995D01*
X60201629Y-118650995D02*
X60395153Y-118554233D01*
X62136867Y-120586233D02*
X62136867Y-118554233D01*
X62136867Y-118554233D02*
X63298010Y-120586233D01*
X63298010Y-120586233D02*
X63298010Y-118554233D01*
X63975343Y-118554233D02*
X65136486Y-118554233D01*
X64555915Y-120586233D02*
X64555915Y-118554233D01*
X67362009Y-120586233D02*
X67362009Y-118554233D01*
X67362009Y-118554233D02*
X68136104Y-118554233D01*
X68136104Y-118554233D02*
X68329628Y-118650995D01*
X68329628Y-118650995D02*
X68426390Y-118747757D01*
X68426390Y-118747757D02*
X68523152Y-118941281D01*
X68523152Y-118941281D02*
X68523152Y-119231567D01*
X68523152Y-119231567D02*
X68426390Y-119425091D01*
X68426390Y-119425091D02*
X68329628Y-119521852D01*
X68329628Y-119521852D02*
X68136104Y-119618614D01*
X68136104Y-119618614D02*
X67362009Y-119618614D01*
X69297247Y-120005662D02*
X70264866Y-120005662D01*
X69103723Y-120586233D02*
X69781057Y-118554233D01*
X69781057Y-118554233D02*
X70458390Y-120586233D01*
X71038961Y-120489472D02*
X71329247Y-120586233D01*
X71329247Y-120586233D02*
X71813056Y-120586233D01*
X71813056Y-120586233D02*
X72006580Y-120489472D01*
X72006580Y-120489472D02*
X72103342Y-120392710D01*
X72103342Y-120392710D02*
X72200104Y-120199186D01*
X72200104Y-120199186D02*
X72200104Y-120005662D01*
X72200104Y-120005662D02*
X72103342Y-119812138D01*
X72103342Y-119812138D02*
X72006580Y-119715376D01*
X72006580Y-119715376D02*
X71813056Y-119618614D01*
X71813056Y-119618614D02*
X71426009Y-119521852D01*
X71426009Y-119521852D02*
X71232485Y-119425091D01*
X71232485Y-119425091D02*
X71135723Y-119328329D01*
X71135723Y-119328329D02*
X71038961Y-119134805D01*
X71038961Y-119134805D02*
X71038961Y-118941281D01*
X71038961Y-118941281D02*
X71135723Y-118747757D01*
X71135723Y-118747757D02*
X71232485Y-118650995D01*
X71232485Y-118650995D02*
X71426009Y-118554233D01*
X71426009Y-118554233D02*
X71909818Y-118554233D01*
X71909818Y-118554233D02*
X72200104Y-118650995D01*
X72780675Y-118554233D02*
X73941818Y-118554233D01*
X73361247Y-120586233D02*
X73361247Y-118554233D01*
X74619151Y-119521852D02*
X75296484Y-119521852D01*
X75586770Y-120586233D02*
X74619151Y-120586233D01*
X74619151Y-120586233D02*
X74619151Y-118554233D01*
X74619151Y-118554233D02*
X75586770Y-118554233D01*
D11*
%TO.C,R15*%
X68961000Y-76452000D03*
X68961000Y-77472000D03*
%TD*%
D12*
%TO.C,Q1*%
X61128000Y-86236000D03*
X61778000Y-86236000D03*
X62428000Y-86236000D03*
X63078000Y-86236000D03*
D13*
X62103000Y-84836000D03*
%TD*%
D11*
%TO.C,R21*%
X59029600Y-57198800D03*
X59029600Y-58218800D03*
%TD*%
D14*
%TO.C,U12*%
X58894600Y-64868200D03*
X58394600Y-64868200D03*
X57894600Y-64868200D03*
X57894600Y-66348200D03*
X58894600Y-66348200D03*
%TD*%
D11*
%TO.C,R2*%
X64389000Y-83945000D03*
X64389000Y-84965000D03*
%TD*%
D15*
%TO.C,C14*%
X66929000Y-76482000D03*
X66929000Y-77442000D03*
%TD*%
D16*
%TO.C,R5*%
X58176000Y-72470800D03*
X57156000Y-72470800D03*
%TD*%
D11*
%TO.C,R20*%
X71374000Y-67181000D03*
X71374000Y-68201000D03*
%TD*%
D17*
%TO.C,C4*%
X67338000Y-81026000D03*
X68298000Y-81026000D03*
%TD*%
D18*
%TO.C,U1*%
X69625000Y-55315600D03*
X70075000Y-55315600D03*
D19*
X69850000Y-54615600D03*
%TD*%
D20*
%TO.C,U13*%
X60504800Y-57767600D03*
D21*
X60479800Y-58267600D03*
X60479800Y-58767600D03*
X61079800Y-58767600D03*
X61079800Y-58267600D03*
X61079800Y-57767600D03*
%TD*%
D22*
%TO.C,J3*%
X68021200Y-95072200D03*
%TD*%
D23*
%TO.C,U9*%
X75300100Y-73155200D03*
X75300100Y-73555200D03*
D24*
X75393600Y-74123700D03*
X75793600Y-74123700D03*
X76193600Y-74123700D03*
D23*
X76287100Y-73555200D03*
X76287100Y-73155200D03*
D24*
X76193600Y-72586700D03*
X75793600Y-72586700D03*
X75393600Y-72586700D03*
%TD*%
D25*
%TO.C,J4*%
X70396100Y-95072200D03*
%TD*%
D16*
%TO.C,R6*%
X58176000Y-73486800D03*
X57156000Y-73486800D03*
%TD*%
D26*
%TO.C,J8*%
X66040000Y-96723200D03*
%TD*%
D27*
%TO.C,J7*%
X66014600Y-93167200D03*
%TD*%
D28*
%TO.C,C8*%
X60195400Y-55753000D03*
X59235400Y-55753000D03*
%TD*%
D29*
%TO.C,J6*%
X62255400Y-95072200D03*
%TD*%
D30*
%TO.C,C5*%
X66294000Y-80109000D03*
X66294000Y-79149000D03*
%TD*%
D15*
%TO.C,C10*%
X64897000Y-76482000D03*
X64897000Y-77442000D03*
%TD*%
D30*
%TO.C,C13*%
X63119000Y-71981000D03*
X63119000Y-71021000D03*
%TD*%
D11*
%TO.C,R1*%
X64389000Y-82040000D03*
X64389000Y-83060000D03*
%TD*%
D31*
%TO.C,R8*%
X53473000Y-76280800D03*
X54493000Y-76280800D03*
%TD*%
D32*
%TO.C,J5*%
X64058800Y-95072200D03*
%TD*%
D30*
%TO.C,C18*%
X67945000Y-77442000D03*
X67945000Y-76482000D03*
%TD*%
D11*
%TO.C,R16*%
X69723000Y-72134000D03*
X69723000Y-73154000D03*
%TD*%
D33*
%TO.C,U7*%
X64421000Y-75060000D03*
D34*
X64921000Y-75060000D03*
X65421000Y-75060000D03*
X65921000Y-75060000D03*
X66421000Y-75060000D03*
X66921000Y-75060000D03*
X67421000Y-75060000D03*
X67921000Y-75060000D03*
X68421000Y-75060000D03*
D35*
X68821000Y-74160000D03*
X68821000Y-73160000D03*
D34*
X68421000Y-72260000D03*
X67921000Y-72260000D03*
X67421000Y-72260000D03*
X66921000Y-72260000D03*
X66421000Y-72260000D03*
X65921000Y-72260000D03*
X65421000Y-72260000D03*
X64921000Y-72260000D03*
X64421000Y-72260000D03*
D36*
X64046000Y-73160000D03*
X64046000Y-74160000D03*
D37*
X64421000Y-73660000D03*
X65321000Y-73660000D03*
X66221000Y-73660000D03*
X67121000Y-73660000D03*
X68021000Y-73660000D03*
%TD*%
D38*
%TO.C,FID3*%
X76149200Y-51054000D03*
%TD*%
D17*
%TO.C,C32*%
X56924000Y-53340000D03*
X57884000Y-53340000D03*
%TD*%
D30*
%TO.C,C7*%
X52763800Y-69064600D03*
X52763800Y-68104600D03*
%TD*%
D39*
%TO.C,J9*%
X70332600Y-88976200D03*
%TD*%
D40*
%TO.C,U10*%
X65016000Y-56581000D03*
X64516000Y-56581000D03*
X64016000Y-56581000D03*
X64016000Y-57719000D03*
X64516000Y-57719000D03*
X65016000Y-57719000D03*
%TD*%
D41*
%TO.C,U4*%
X67168000Y-80300000D03*
X67818000Y-80300000D03*
X68468000Y-80300000D03*
X68468000Y-78450000D03*
X67818000Y-78450000D03*
X67168000Y-78450000D03*
D42*
X67818000Y-79375000D03*
%TD*%
D11*
%TO.C,R7*%
X58148600Y-69319200D03*
X58148600Y-70339200D03*
%TD*%
D28*
%TO.C,C23*%
X65402400Y-70612000D03*
X64442400Y-70612000D03*
%TD*%
D43*
%TO.C,U3*%
X66895000Y-82717000D03*
X66895000Y-83907000D03*
X67725000Y-82717000D03*
X67725000Y-83907000D03*
D44*
X65910000Y-82562000D03*
X65910000Y-83062000D03*
X65910000Y-83562000D03*
X65910000Y-84062000D03*
X68710000Y-84062000D03*
X68710000Y-83562000D03*
X68710000Y-83062000D03*
X68710000Y-82562000D03*
%TD*%
D31*
%TO.C,R3*%
X64387000Y-85979000D03*
X65407000Y-85979000D03*
%TD*%
D45*
%TO.C,U5*%
X53397000Y-72486800D03*
D46*
X53572000Y-72986800D03*
X53572000Y-73486800D03*
X53572000Y-73986800D03*
D47*
X53397000Y-74486800D03*
D48*
X53872000Y-74961800D03*
D49*
X54372000Y-74786800D03*
X54872000Y-74786800D03*
X55372000Y-74786800D03*
D50*
X55872000Y-74961800D03*
D51*
X56347000Y-74486800D03*
D46*
X56172000Y-73986800D03*
X56172000Y-73486800D03*
X56172000Y-72986800D03*
D52*
X56347000Y-72486800D03*
D53*
X55872000Y-72011800D03*
D49*
X55372000Y-72186800D03*
X54872000Y-72186800D03*
X54372000Y-72186800D03*
D54*
X53872000Y-72011800D03*
%TD*%
D55*
%TO.C,R18*%
X69723000Y-75186000D03*
X69723000Y-74166000D03*
%TD*%
D30*
%TO.C,C2*%
X65278000Y-80109000D03*
X65278000Y-79149000D03*
%TD*%
%TO.C,C29*%
X62890400Y-58188800D03*
X62890400Y-57228800D03*
%TD*%
D15*
%TO.C,C6*%
X52586000Y-73032200D03*
X52586000Y-73992200D03*
%TD*%
D11*
%TO.C,R14*%
X65913000Y-76452000D03*
X65913000Y-77472000D03*
%TD*%
D28*
%TO.C,C33*%
X75460800Y-53009800D03*
X74500800Y-53009800D03*
%TD*%
D30*
%TO.C,C30*%
X60071000Y-66316800D03*
X60071000Y-65356800D03*
%TD*%
D38*
%TO.C,FID1*%
X56311800Y-51130200D03*
%TD*%
D31*
%TO.C,R4*%
X64895000Y-81026000D03*
X65915000Y-81026000D03*
%TD*%
D38*
%TO.C,FID5*%
X71094600Y-91846400D03*
%TD*%
D56*
%TO.C,U8*%
X68207000Y-70408000D03*
D57*
X68007000Y-69873000D03*
D58*
X68307000Y-69773000D03*
D56*
X69207000Y-70408000D03*
D57*
X69407000Y-69873000D03*
D58*
X69107000Y-69773000D03*
D59*
X70157000Y-68858000D03*
X70157000Y-68358000D03*
D60*
X69457000Y-67658000D03*
X68957000Y-67658000D03*
X68457000Y-67658000D03*
X67957000Y-67658000D03*
D59*
X67257000Y-68358000D03*
X67257000Y-68858000D03*
%TD*%
M02*
