%TF.GenerationSoftware,KiCad,Pcbnew,8.0.3*%
%TF.CreationDate,2024-09-11T11:50:37-04:00*%
%TF.ProjectId,100064667,31303030-3634-4363-9637-2e6b69636164,1*%
%TF.SameCoordinates,Original*%
%TF.FileFunction,Copper,L7,Inr*%
%TF.FilePolarity,Positive*%
%FSLAX46Y46*%
G04 Gerber Fmt 4.6, Leading zero omitted, Abs format (unit mm)*
G04 Created by KiCad (PCBNEW 8.0.3) date 2024-09-11 11:50:37*
%MOMM*%
%LPD*%
G01*
G04 APERTURE LIST*
%ADD10C,0.254000*%
%TA.AperFunction,NonConductor*%
%ADD11C,0.254000*%
%TD*%
%TA.AperFunction,ComponentPad*%
%ADD12C,2.540000*%
%TD*%
%TA.AperFunction,ComponentPad*%
%ADD13C,1.270000*%
%TD*%
%TA.AperFunction,ComponentPad*%
%ADD14R,1.270000X1.270000*%
%TD*%
%TA.AperFunction,ViaPad*%
%ADD15C,0.508000*%
%TD*%
%TA.AperFunction,ViaPad*%
%ADD16C,0.355600*%
%TD*%
%TA.AperFunction,Conductor*%
%ADD17C,0.177800*%
%TD*%
%ADD18C,0.254000*%
%ADD19C,0.152400*%
%ADD20C,0.350000*%
G04 APERTURE END LIST*
D10*
D11*
X53234772Y-120586233D02*
X53234772Y-118554233D01*
X54202391Y-120586233D02*
X54202391Y-118554233D01*
X54202391Y-118554233D02*
X55363534Y-120586233D01*
X55363534Y-120586233D02*
X55363534Y-118554233D01*
X56331153Y-120586233D02*
X56331153Y-118554233D01*
X56331153Y-118554233D02*
X57492296Y-120586233D01*
X57492296Y-120586233D02*
X57492296Y-118554233D01*
X58459915Y-119521852D02*
X59137248Y-119521852D01*
X59427534Y-120586233D02*
X58459915Y-120586233D01*
X58459915Y-120586233D02*
X58459915Y-118554233D01*
X58459915Y-118554233D02*
X59427534Y-118554233D01*
X61459534Y-120586233D02*
X60782201Y-119618614D01*
X60298391Y-120586233D02*
X60298391Y-118554233D01*
X60298391Y-118554233D02*
X61072486Y-118554233D01*
X61072486Y-118554233D02*
X61266010Y-118650995D01*
X61266010Y-118650995D02*
X61362772Y-118747757D01*
X61362772Y-118747757D02*
X61459534Y-118941281D01*
X61459534Y-118941281D02*
X61459534Y-119231567D01*
X61459534Y-119231567D02*
X61362772Y-119425091D01*
X61362772Y-119425091D02*
X61266010Y-119521852D01*
X61266010Y-119521852D02*
X61072486Y-119618614D01*
X61072486Y-119618614D02*
X60298391Y-119618614D01*
X64749438Y-118554233D02*
X64362391Y-118554233D01*
X64362391Y-118554233D02*
X64168867Y-118650995D01*
X64168867Y-118650995D02*
X64072105Y-118747757D01*
X64072105Y-118747757D02*
X63878581Y-119038043D01*
X63878581Y-119038043D02*
X63781819Y-119425091D01*
X63781819Y-119425091D02*
X63781819Y-120199186D01*
X63781819Y-120199186D02*
X63878581Y-120392710D01*
X63878581Y-120392710D02*
X63975343Y-120489472D01*
X63975343Y-120489472D02*
X64168867Y-120586233D01*
X64168867Y-120586233D02*
X64555914Y-120586233D01*
X64555914Y-120586233D02*
X64749438Y-120489472D01*
X64749438Y-120489472D02*
X64846200Y-120392710D01*
X64846200Y-120392710D02*
X64942962Y-120199186D01*
X64942962Y-120199186D02*
X64942962Y-119715376D01*
X64942962Y-119715376D02*
X64846200Y-119521852D01*
X64846200Y-119521852D02*
X64749438Y-119425091D01*
X64749438Y-119425091D02*
X64555914Y-119328329D01*
X64555914Y-119328329D02*
X64168867Y-119328329D01*
X64168867Y-119328329D02*
X63975343Y-119425091D01*
X63975343Y-119425091D02*
X63878581Y-119521852D01*
X63878581Y-119521852D02*
X63781819Y-119715376D01*
X68523152Y-120392710D02*
X68426390Y-120489472D01*
X68426390Y-120489472D02*
X68136104Y-120586233D01*
X68136104Y-120586233D02*
X67942580Y-120586233D01*
X67942580Y-120586233D02*
X67652295Y-120489472D01*
X67652295Y-120489472D02*
X67458771Y-120295948D01*
X67458771Y-120295948D02*
X67362009Y-120102424D01*
X67362009Y-120102424D02*
X67265247Y-119715376D01*
X67265247Y-119715376D02*
X67265247Y-119425091D01*
X67265247Y-119425091D02*
X67362009Y-119038043D01*
X67362009Y-119038043D02*
X67458771Y-118844519D01*
X67458771Y-118844519D02*
X67652295Y-118650995D01*
X67652295Y-118650995D02*
X67942580Y-118554233D01*
X67942580Y-118554233D02*
X68136104Y-118554233D01*
X68136104Y-118554233D02*
X68426390Y-118650995D01*
X68426390Y-118650995D02*
X68523152Y-118747757D01*
X69781057Y-118554233D02*
X70168104Y-118554233D01*
X70168104Y-118554233D02*
X70361628Y-118650995D01*
X70361628Y-118650995D02*
X70555152Y-118844519D01*
X70555152Y-118844519D02*
X70651914Y-119231567D01*
X70651914Y-119231567D02*
X70651914Y-119908900D01*
X70651914Y-119908900D02*
X70555152Y-120295948D01*
X70555152Y-120295948D02*
X70361628Y-120489472D01*
X70361628Y-120489472D02*
X70168104Y-120586233D01*
X70168104Y-120586233D02*
X69781057Y-120586233D01*
X69781057Y-120586233D02*
X69587533Y-120489472D01*
X69587533Y-120489472D02*
X69394009Y-120295948D01*
X69394009Y-120295948D02*
X69297247Y-119908900D01*
X69297247Y-119908900D02*
X69297247Y-119231567D01*
X69297247Y-119231567D02*
X69394009Y-118844519D01*
X69394009Y-118844519D02*
X69587533Y-118650995D01*
X69587533Y-118650995D02*
X69781057Y-118554233D01*
X71522771Y-120586233D02*
X71522771Y-118554233D01*
X71522771Y-118554233D02*
X72296866Y-118554233D01*
X72296866Y-118554233D02*
X72490390Y-118650995D01*
X72490390Y-118650995D02*
X72587152Y-118747757D01*
X72587152Y-118747757D02*
X72683914Y-118941281D01*
X72683914Y-118941281D02*
X72683914Y-119231567D01*
X72683914Y-119231567D02*
X72587152Y-119425091D01*
X72587152Y-119425091D02*
X72490390Y-119521852D01*
X72490390Y-119521852D02*
X72296866Y-119618614D01*
X72296866Y-119618614D02*
X71522771Y-119618614D01*
X73554771Y-120586233D02*
X73554771Y-118554233D01*
X73554771Y-118554233D02*
X74328866Y-118554233D01*
X74328866Y-118554233D02*
X74522390Y-118650995D01*
X74522390Y-118650995D02*
X74619152Y-118747757D01*
X74619152Y-118747757D02*
X74715914Y-118941281D01*
X74715914Y-118941281D02*
X74715914Y-119231567D01*
X74715914Y-119231567D02*
X74619152Y-119425091D01*
X74619152Y-119425091D02*
X74522390Y-119521852D01*
X74522390Y-119521852D02*
X74328866Y-119618614D01*
X74328866Y-119618614D02*
X73554771Y-119618614D01*
X75586771Y-119521852D02*
X76264104Y-119521852D01*
X76554390Y-120586233D02*
X75586771Y-120586233D01*
X75586771Y-120586233D02*
X75586771Y-118554233D01*
X75586771Y-118554233D02*
X76554390Y-118554233D01*
X78586390Y-120586233D02*
X77909057Y-119618614D01*
X77425247Y-120586233D02*
X77425247Y-118554233D01*
X77425247Y-118554233D02*
X78199342Y-118554233D01*
X78199342Y-118554233D02*
X78392866Y-118650995D01*
X78392866Y-118650995D02*
X78489628Y-118747757D01*
X78489628Y-118747757D02*
X78586390Y-118941281D01*
X78586390Y-118941281D02*
X78586390Y-119231567D01*
X78586390Y-119231567D02*
X78489628Y-119425091D01*
X78489628Y-119425091D02*
X78392866Y-119521852D01*
X78392866Y-119521852D02*
X78199342Y-119618614D01*
X78199342Y-119618614D02*
X77425247Y-119618614D01*
D12*
%TO.N,GND*%
%TO.C,J2*%
X68884800Y-92506800D03*
%TD*%
D13*
%TO.N,/Block Diagram/AUX1*%
%TO.C,J3*%
X68021200Y-95072200D03*
%TD*%
%TO.N,GND*%
%TO.C,J9*%
X69697600Y-88976200D03*
%TD*%
D14*
%TO.N,/Block Diagram/Payload Power Control/VOUT*%
%TO.C,J10*%
X55880000Y-54584600D03*
D13*
%TO.N,GND*%
X58420000Y-54584600D03*
%TO.N,/Block Diagram/Payload Power Control/DETECT*%
X60960000Y-54584600D03*
%TO.N,/Block Diagram/Data Switches/GPIO_DOWN_0*%
X63500000Y-54584600D03*
%TO.N,/Block Diagram/Data Switches/GPIO_DOWN_1*%
X66040000Y-54584600D03*
%TO.N,/Block Diagram/USB_DEV_D-*%
X68580000Y-54584600D03*
%TO.N,/Block Diagram/USB_DEV_D+*%
X71120000Y-54584600D03*
%TO.N,GND*%
X73660000Y-54584600D03*
%TO.N,/Block Diagram/Payload Power Control/VOUT*%
X76200000Y-54584600D03*
%TD*%
D15*
%TO.N,/Block Diagram/VBATT*%
X62551177Y-89365827D03*
X62558818Y-88223553D03*
X63137596Y-88229283D03*
X62553087Y-88796600D03*
X63139506Y-89373468D03*
X63143326Y-88800420D03*
D16*
%TO.N,GND*%
X70612000Y-62230000D03*
X67421000Y-75060000D03*
X75819000Y-74650600D03*
D15*
X72125800Y-56515000D03*
D16*
X59436000Y-62230000D03*
X68961000Y-77470000D03*
X67208400Y-79629000D03*
D15*
X66931169Y-83693452D03*
D16*
X54152800Y-73431400D03*
X70104000Y-62230000D03*
X67945000Y-77442000D03*
X67081400Y-91033600D03*
X70612000Y-61722000D03*
X70104000Y-61722000D03*
D15*
X77531000Y-56515000D03*
D16*
X69850000Y-54615600D03*
X58928000Y-62230000D03*
X59436000Y-61722000D03*
D15*
X63500000Y-56642000D03*
D16*
X59766200Y-58216800D03*
X77241400Y-72771000D03*
X57886600Y-64871600D03*
X58928000Y-61722000D03*
X69342000Y-68858000D03*
X74320400Y-72821800D03*
X63909000Y-77343000D03*
X63119000Y-71021000D03*
D15*
%TO.N,/Block Diagram/Payload Power Control/VBATT_PROT*%
X62230000Y-82550000D03*
X62865000Y-82550000D03*
X62103000Y-74295000D03*
X62738000Y-73025000D03*
X62865000Y-81915000D03*
X62103000Y-73025000D03*
X62738000Y-73660000D03*
X62103000Y-73660000D03*
X62230000Y-81915000D03*
X63500000Y-81915000D03*
D16*
X67168000Y-78450000D03*
D15*
X62738000Y-74295000D03*
X63500000Y-82550000D03*
D16*
%TO.N,/Block Diagram/Data Switches/P3V3*%
X61595000Y-58597800D03*
X71374000Y-67181000D03*
X69723000Y-75184000D03*
X75793600Y-72085200D03*
X55608600Y-64469800D03*
X68354000Y-68859400D03*
X67338000Y-81026000D03*
X53873400Y-72974200D03*
X59512200Y-67284600D03*
D15*
%TO.N,Net-(Q1-G)*%
X63093600Y-86233000D03*
%TO.N,/Block Diagram/Payload Power Control/VOUT*%
X75184000Y-58166000D03*
D16*
X70612000Y-63754000D03*
D15*
X56388000Y-57658000D03*
D16*
X61976000Y-63754000D03*
X61468000Y-63754000D03*
D15*
X74422000Y-58166000D03*
X67183000Y-58166000D03*
X75946000Y-58166000D03*
D16*
X70104000Y-63754000D03*
D15*
X76708000Y-58166000D03*
X67945000Y-58166000D03*
D16*
X70612000Y-64262000D03*
D15*
X66421000Y-58166000D03*
D16*
X70104000Y-64262000D03*
X61976000Y-64262000D03*
X61468000Y-64262000D03*
D15*
X69342000Y-70358000D03*
X56388000Y-56896000D03*
X73660000Y-58166000D03*
D16*
%TO.N,/Block Diagram/Payload Power Control/DETECT*%
X55092600Y-74064400D03*
%TO.N,/Block Diagram/Payload Power Control/IMON*%
X54414800Y-75493400D03*
X67919600Y-75666600D03*
%TO.N,/Block Diagram/AUX2*%
X57785000Y-72821800D03*
%TO.N,/Block Diagram/AUX1*%
X57886600Y-74015600D03*
%TO.N,/Block Diagram/GPIO1*%
X65265300Y-58508900D03*
%TO.N,/Block Diagram/GPIO0*%
X64516000Y-58521600D03*
%TO.N,/Block Diagram/USB_D-*%
X75285600Y-74828400D03*
%TO.N,/Block Diagram/USB_D+*%
X76327000Y-74828400D03*
%TO.N,/Block Diagram/Payload Power Control/~{NRST}*%
X53898800Y-74015600D03*
X67818000Y-78450000D03*
X54973600Y-71454800D03*
%TO.N,/Block Diagram/Power Input/RANGE_SEL*%
X70205600Y-83566000D03*
X65201800Y-82499200D03*
%TO.N,/Block Diagram/Payload Power Control/1WIRE_TX*%
X54356000Y-74422000D03*
%TO.N,/Block Diagram/Payload Power Control/LS_PWR_GOOD*%
X56142000Y-75772800D03*
X69723000Y-74166000D03*
X58902600Y-64871600D03*
%TO.N,/Block Diagram/Payload Power Control/LS_FAULT*%
X68421000Y-75060000D03*
X55557800Y-75823600D03*
%TO.N,/Block Diagram/Payload Power Control/I_FAULT*%
X71374000Y-68224400D03*
X57310400Y-74528200D03*
%TO.N,/Block Diagram/Payload Power Control/1WIRE_RX*%
X54922800Y-75671200D03*
%TO.N,Net-(JP2-B)*%
X58343800Y-64363600D03*
X61798200Y-70205600D03*
X63879000Y-76327000D03*
%TO.N,/Block Diagram/Payload Power Control/I_SNS*%
X66624200Y-68351400D03*
X57412000Y-75061600D03*
%TO.N,Net-(U7-EN)*%
X64643000Y-75793600D03*
%TO.N,Net-(U7-FB)*%
X69723000Y-73154000D03*
%TO.N,/Block Diagram/USB_DEV_D-*%
X74904600Y-72796400D03*
%TO.N,/Block Diagram/USB_DEV_D+*%
X76682600Y-72771000D03*
%TO.N,Net-(U11-~{RESET})*%
X57683400Y-58064400D03*
%TO.N,/Block Diagram/Data Switches/RESET*%
X60172600Y-58674000D03*
X62128400Y-58064400D03*
X77927200Y-72263000D03*
%TO.N,/Block Diagram/Data Switches/DATA_ENABLE*%
X57894600Y-66348200D03*
X55143400Y-56134000D03*
%TD*%
D17*
%TO.N,/Block Diagram/Payload Power Control/IMON*%
X57607200Y-72288400D02*
X54414800Y-75480800D01*
X67919600Y-75666600D02*
X67919600Y-74803000D01*
X65405000Y-72288400D02*
X57607200Y-72288400D01*
X67919600Y-74803000D02*
X65405000Y-72288400D01*
X54414800Y-75480800D02*
X54414800Y-75493400D01*
%TO.N,/Block Diagram/AUX1*%
X60934600Y-77063600D02*
X57886600Y-74015600D01*
X67233800Y-97688400D02*
X61823600Y-97688400D01*
X61823600Y-97688400D02*
X60934600Y-96799400D01*
X60934600Y-96799400D02*
X60934600Y-77063600D01*
X68021200Y-96901000D02*
X67233800Y-97688400D01*
X68021200Y-95072200D02*
X68021200Y-96901000D01*
%TO.N,/Block Diagram/Payload Power Control/~{NRST}*%
X69022400Y-78450000D02*
X67818000Y-78450000D01*
X70840600Y-76631800D02*
X69022400Y-78450000D01*
X69011800Y-71704200D02*
X70840600Y-73533000D01*
X54973600Y-71454800D02*
X55223000Y-71704200D01*
X70840600Y-73533000D02*
X70840600Y-76631800D01*
X55223000Y-71704200D02*
X69011800Y-71704200D01*
%TO.N,/Block Diagram/Power Input/RANGE_SEL*%
X69138800Y-82499200D02*
X65201800Y-82499200D01*
X70205600Y-83566000D02*
X69138800Y-82499200D01*
%TO.N,/Block Diagram/Payload Power Control/LS_FAULT*%
X62611000Y-76784200D02*
X59283600Y-73456800D01*
X59283600Y-73456800D02*
X57632600Y-73456800D01*
X68421000Y-75060000D02*
X68421000Y-76587600D01*
X57632600Y-73456800D02*
X55557800Y-75531600D01*
X55557800Y-75531600D02*
X55557800Y-75823600D01*
X68421000Y-76587600D02*
X68224400Y-76784200D01*
X68224400Y-76784200D02*
X62611000Y-76784200D01*
%TD*%
%TA.AperFunction,Conductor*%
%TO.N,GND*%
G36*
X78780961Y-60949423D02*
G01*
X78804893Y-60990841D01*
X78804965Y-60991404D01*
X80675775Y-76227931D01*
X80675779Y-76227995D01*
X80683933Y-76294372D01*
X80684399Y-76301893D01*
X80684575Y-76412705D01*
X80682788Y-76427644D01*
X80657380Y-76531591D01*
X80652074Y-76545670D01*
X80602562Y-76640534D01*
X80594046Y-76652936D01*
X80523306Y-76733212D01*
X80512074Y-76743220D01*
X80424189Y-76804274D01*
X80410889Y-76811309D01*
X80310967Y-76849589D01*
X80296373Y-76853241D01*
X80186352Y-76867016D01*
X80178587Y-76867500D01*
X73526780Y-76867500D01*
X73262630Y-76902276D01*
X73262628Y-76902276D01*
X73005288Y-76971229D01*
X73005280Y-76971232D01*
X72759135Y-77073187D01*
X72759132Y-77073188D01*
X72528395Y-77206402D01*
X72528384Y-77206410D01*
X72317022Y-77368591D01*
X72128620Y-77556988D01*
X72128617Y-77556991D01*
X71966434Y-77768347D01*
X71966427Y-77768357D01*
X71833212Y-77999083D01*
X71833208Y-77999092D01*
X71731248Y-78245233D01*
X71662286Y-78502581D01*
X71662284Y-78502590D01*
X71627503Y-78766732D01*
X71627502Y-78766741D01*
X71627501Y-78830425D01*
X71627500Y-78830451D01*
X71627500Y-78899951D01*
X71627498Y-78971235D01*
X71627500Y-78971264D01*
X71627500Y-97689081D01*
X71627497Y-97689131D01*
X71627499Y-97756392D01*
X71627110Y-97763354D01*
X71615684Y-97865325D01*
X71612602Y-97878904D01*
X71580035Y-97972502D01*
X71574023Y-97985061D01*
X71555858Y-98014156D01*
X71524235Y-98064812D01*
X71521547Y-98069117D01*
X71512903Y-98080034D01*
X71443111Y-98150393D01*
X71432264Y-98159125D01*
X71348626Y-98212286D01*
X71336117Y-98218399D01*
X71242795Y-98251721D01*
X71229241Y-98254914D01*
X71158767Y-98263389D01*
X71128300Y-98267053D01*
X71120839Y-98267500D01*
X67364788Y-98267500D01*
X67320594Y-98249194D01*
X67302288Y-98205000D01*
X67320594Y-98160806D01*
X67348605Y-98144631D01*
X67355544Y-98142772D01*
X67355548Y-98142772D01*
X67415364Y-98126744D01*
X67415362Y-98126744D01*
X67415368Y-98126743D01*
X67522632Y-98064814D01*
X67610214Y-97977232D01*
X68397614Y-97189832D01*
X68456272Y-97088233D01*
X68459543Y-97082568D01*
X68462660Y-97070934D01*
X68475569Y-97022758D01*
X68475571Y-97022748D01*
X68491600Y-96962930D01*
X68491600Y-96839070D01*
X68491600Y-96010823D01*
X68509906Y-95966629D01*
X68524638Y-95955703D01*
X68588663Y-95921481D01*
X68588661Y-95921481D01*
X68588669Y-95921478D01*
X68743452Y-95794452D01*
X68870478Y-95639669D01*
X68964867Y-95463080D01*
X68968097Y-95452428D01*
X68998443Y-95415452D01*
X69046048Y-95410763D01*
X69083026Y-95441109D01*
X69085640Y-95446637D01*
X69092452Y-95463081D01*
X69092610Y-95463462D01*
X69179341Y-95593263D01*
X69183004Y-95598745D01*
X69298055Y-95713796D01*
X69433342Y-95804192D01*
X69583665Y-95866458D01*
X69743246Y-95898200D01*
X69905954Y-95898200D01*
X70065535Y-95866458D01*
X70215858Y-95804192D01*
X70351145Y-95713796D01*
X70466196Y-95598745D01*
X70556592Y-95463458D01*
X70618858Y-95313135D01*
X70650600Y-95153554D01*
X70650600Y-94990846D01*
X70618858Y-94831265D01*
X70556592Y-94680942D01*
X70466196Y-94545655D01*
X70351145Y-94430604D01*
X70305436Y-94400062D01*
X70215860Y-94340209D01*
X70215858Y-94340208D01*
X70065536Y-94277942D01*
X70065533Y-94277941D01*
X69905954Y-94246200D01*
X69743246Y-94246200D01*
X69583666Y-94277941D01*
X69583663Y-94277942D01*
X69433341Y-94340208D01*
X69433339Y-94340209D01*
X69298055Y-94430603D01*
X69183003Y-94545655D01*
X69092609Y-94680939D01*
X69092608Y-94680942D01*
X69085648Y-94697745D01*
X69051823Y-94731570D01*
X69003988Y-94731569D01*
X68970163Y-94697744D01*
X68968101Y-94691981D01*
X68964867Y-94681320D01*
X68870478Y-94504731D01*
X68743452Y-94349948D01*
X68655710Y-94277941D01*
X68588674Y-94222926D01*
X68588672Y-94222925D01*
X68588669Y-94222922D01*
X68588667Y-94222920D01*
X68588663Y-94222918D01*
X68477398Y-94163446D01*
X68412080Y-94128533D01*
X68289609Y-94091381D01*
X68220467Y-94070407D01*
X68021200Y-94050782D01*
X67821932Y-94070407D01*
X67699460Y-94107559D01*
X67630320Y-94128533D01*
X67630318Y-94128533D01*
X67630318Y-94128534D01*
X67453736Y-94222918D01*
X67453725Y-94222926D01*
X67298949Y-94349946D01*
X67298946Y-94349949D01*
X67171926Y-94504725D01*
X67171918Y-94504736D01*
X67106774Y-94626614D01*
X67077533Y-94681320D01*
X67072535Y-94697796D01*
X67019407Y-94872932D01*
X66999782Y-95072199D01*
X66999782Y-95072200D01*
X67019407Y-95271467D01*
X67040381Y-95340609D01*
X67077533Y-95463080D01*
X67106774Y-95517786D01*
X67171918Y-95639663D01*
X67171926Y-95639674D01*
X67279865Y-95771200D01*
X67298948Y-95794452D01*
X67453731Y-95921478D01*
X67453734Y-95921479D01*
X67453736Y-95921481D01*
X67517762Y-95955703D01*
X67548109Y-95992680D01*
X67550800Y-96010823D01*
X67550800Y-96680266D01*
X67532494Y-96724460D01*
X67057260Y-97199694D01*
X67013066Y-97218000D01*
X62044335Y-97218000D01*
X62000141Y-97199694D01*
X61423306Y-96622859D01*
X61405000Y-96578665D01*
X61405000Y-95003354D01*
X61556400Y-95003354D01*
X61556400Y-95141045D01*
X61583261Y-95276089D01*
X61583262Y-95276092D01*
X61635954Y-95403301D01*
X61635955Y-95403303D01*
X61712450Y-95517785D01*
X61809814Y-95615149D01*
X61846510Y-95639669D01*
X61924299Y-95691646D01*
X62051509Y-95744338D01*
X62186555Y-95771200D01*
X62324245Y-95771200D01*
X62459291Y-95744338D01*
X62586501Y-95691646D01*
X62700986Y-95615149D01*
X62798349Y-95517786D01*
X62874846Y-95403301D01*
X62927538Y-95276091D01*
X62954400Y-95141045D01*
X62954400Y-95003355D01*
X62954400Y-95003354D01*
X63359800Y-95003354D01*
X63359800Y-95141045D01*
X63386661Y-95276089D01*
X63386662Y-95276092D01*
X63439354Y-95403301D01*
X63439355Y-95403303D01*
X63515850Y-95517785D01*
X63613214Y-95615149D01*
X63649910Y-95639669D01*
X63727699Y-95691646D01*
X63854909Y-95744338D01*
X63989955Y-95771200D01*
X64127645Y-95771200D01*
X64219923Y-95752845D01*
X65036200Y-95752845D01*
X65036200Y-95915554D01*
X65067941Y-96075133D01*
X65067942Y-96075135D01*
X65130208Y-96225458D01*
X65220604Y-96360745D01*
X65335655Y-96475796D01*
X65470942Y-96566192D01*
X65621265Y-96628458D01*
X65780846Y-96660200D01*
X65943554Y-96660200D01*
X66103135Y-96628458D01*
X66253458Y-96566192D01*
X66388745Y-96475796D01*
X66503796Y-96360745D01*
X66594192Y-96225458D01*
X66656458Y-96075135D01*
X66688200Y-95915554D01*
X66688200Y-95752846D01*
X66656458Y-95593265D01*
X66594192Y-95442942D01*
X66503796Y-95307655D01*
X66388745Y-95192604D01*
X66311582Y-95141045D01*
X66253460Y-95102209D01*
X66253458Y-95102208D01*
X66103136Y-95039942D01*
X66103133Y-95039941D01*
X65943554Y-95008200D01*
X65780846Y-95008200D01*
X65621266Y-95039941D01*
X65621263Y-95039942D01*
X65470941Y-95102208D01*
X65470939Y-95102209D01*
X65335655Y-95192603D01*
X65220603Y-95307655D01*
X65130209Y-95442939D01*
X65130208Y-95442941D01*
X65067942Y-95593263D01*
X65067941Y-95593266D01*
X65036200Y-95752845D01*
X64219923Y-95752845D01*
X64262691Y-95744338D01*
X64389901Y-95691646D01*
X64504386Y-95615149D01*
X64601749Y-95517786D01*
X64678246Y-95403301D01*
X64730938Y-95276091D01*
X64757800Y-95141045D01*
X64757800Y-95003355D01*
X64730938Y-94868309D01*
X64678246Y-94741099D01*
X64601749Y-94626614D01*
X64504386Y-94529251D01*
X64467697Y-94504736D01*
X64389903Y-94452755D01*
X64389901Y-94452754D01*
X64262692Y-94400062D01*
X64262689Y-94400061D01*
X64127645Y-94373200D01*
X63989955Y-94373200D01*
X63854910Y-94400061D01*
X63854907Y-94400062D01*
X63727698Y-94452754D01*
X63727696Y-94452755D01*
X63613214Y-94529250D01*
X63515850Y-94626614D01*
X63439355Y-94741096D01*
X63439354Y-94741098D01*
X63386662Y-94868307D01*
X63386661Y-94868310D01*
X63359800Y-95003354D01*
X62954400Y-95003354D01*
X62927538Y-94868309D01*
X62874846Y-94741099D01*
X62798349Y-94626614D01*
X62700986Y-94529251D01*
X62664297Y-94504736D01*
X62586503Y-94452755D01*
X62586501Y-94452754D01*
X62459292Y-94400062D01*
X62459289Y-94400061D01*
X62324245Y-94373200D01*
X62186555Y-94373200D01*
X62051510Y-94400061D01*
X62051507Y-94400062D01*
X61924298Y-94452754D01*
X61924296Y-94452755D01*
X61809814Y-94529250D01*
X61712450Y-94626614D01*
X61635955Y-94741096D01*
X61635954Y-94741098D01*
X61583262Y-94868307D01*
X61583261Y-94868310D01*
X61556400Y-95003354D01*
X61405000Y-95003354D01*
X61405000Y-93974845D01*
X65010800Y-93974845D01*
X65010800Y-94137554D01*
X65042541Y-94297133D01*
X65042542Y-94297136D01*
X65104808Y-94447458D01*
X65104809Y-94447460D01*
X65159460Y-94529251D01*
X65195204Y-94582745D01*
X65310255Y-94697796D01*
X65445542Y-94788192D01*
X65595865Y-94850458D01*
X65755446Y-94882200D01*
X65918154Y-94882200D01*
X66077735Y-94850458D01*
X66228058Y-94788192D01*
X66363345Y-94697796D01*
X66478396Y-94582745D01*
X66568792Y-94447458D01*
X66631058Y-94297135D01*
X66662800Y-94137554D01*
X66662800Y-93974846D01*
X66631058Y-93815265D01*
X66568792Y-93664942D01*
X66478396Y-93529655D01*
X66363345Y-93414604D01*
X66363344Y-93414603D01*
X66228060Y-93324209D01*
X66228058Y-93324208D01*
X66077736Y-93261942D01*
X66077733Y-93261941D01*
X65918154Y-93230200D01*
X65755446Y-93230200D01*
X65595866Y-93261941D01*
X65595863Y-93261942D01*
X65445541Y-93324208D01*
X65445539Y-93324209D01*
X65310255Y-93414603D01*
X65195203Y-93529655D01*
X65104809Y-93664939D01*
X65104808Y-93664941D01*
X65042542Y-93815263D01*
X65042541Y-93815266D01*
X65010800Y-93974845D01*
X61405000Y-93974845D01*
X61405000Y-92416807D01*
X62051700Y-92416807D01*
X62051700Y-92596792D01*
X62051701Y-92596808D01*
X62079856Y-92774567D01*
X62079856Y-92774568D01*
X62135476Y-92945750D01*
X62135480Y-92945758D01*
X62217192Y-93106127D01*
X62322986Y-93251739D01*
X62322993Y-93251747D01*
X62450252Y-93379006D01*
X62450260Y-93379013D01*
X62499246Y-93414604D01*
X62595875Y-93484809D01*
X62756248Y-93566523D01*
X62927430Y-93622143D01*
X63002353Y-93634009D01*
X63105191Y-93650298D01*
X63105197Y-93650298D01*
X63105205Y-93650300D01*
X63105207Y-93650300D01*
X63285193Y-93650300D01*
X63285195Y-93650300D01*
X63462970Y-93622143D01*
X63634152Y-93566523D01*
X63794525Y-93484809D01*
X63940140Y-93379013D01*
X64067413Y-93251740D01*
X64173209Y-93106125D01*
X64254923Y-92945752D01*
X64310543Y-92774570D01*
X64338700Y-92596795D01*
X64338700Y-92506795D01*
X67356087Y-92506795D01*
X67356087Y-92506804D01*
X67374906Y-92745936D01*
X67374907Y-92745940D01*
X67430906Y-92979191D01*
X67522708Y-93200822D01*
X67640061Y-93392326D01*
X67640061Y-93392327D01*
X68293581Y-92738806D01*
X68322071Y-92807585D01*
X68391564Y-92911589D01*
X68480011Y-93000036D01*
X68584015Y-93069529D01*
X68652791Y-93098017D01*
X67999271Y-93751536D01*
X67999272Y-93751537D01*
X68190777Y-93868891D01*
X68412408Y-93960693D01*
X68645659Y-94016692D01*
X68645663Y-94016693D01*
X68884796Y-94035513D01*
X68884804Y-94035513D01*
X69123936Y-94016693D01*
X69123940Y-94016692D01*
X69357191Y-93960693D01*
X69578825Y-93868890D01*
X69770326Y-93751536D01*
X69770327Y-93751536D01*
X69116808Y-93098017D01*
X69185585Y-93069529D01*
X69289589Y-93000036D01*
X69378036Y-92911589D01*
X69447529Y-92807585D01*
X69476017Y-92738808D01*
X70129536Y-93392327D01*
X70129536Y-93392326D01*
X70246890Y-93200825D01*
X70338693Y-92979191D01*
X70394692Y-92745940D01*
X70394693Y-92745936D01*
X70413513Y-92506804D01*
X70413513Y-92506795D01*
X70394693Y-92267663D01*
X70394692Y-92267659D01*
X70338693Y-92034408D01*
X70246891Y-91812777D01*
X70129537Y-91621272D01*
X70129536Y-91621271D01*
X69476017Y-92274791D01*
X69447529Y-92206015D01*
X69378036Y-92102011D01*
X69289589Y-92013564D01*
X69185585Y-91944071D01*
X69116806Y-91915581D01*
X69770327Y-91262061D01*
X69578822Y-91144708D01*
X69357191Y-91052906D01*
X69123940Y-90996907D01*
X69123936Y-90996906D01*
X68884804Y-90978087D01*
X68884796Y-90978087D01*
X68645663Y-90996906D01*
X68645659Y-90996907D01*
X68412408Y-91052906D01*
X68190777Y-91144708D01*
X67999271Y-91262061D01*
X68652792Y-91915582D01*
X68584015Y-91944071D01*
X68480011Y-92013564D01*
X68391564Y-92102011D01*
X68322071Y-92206015D01*
X68293582Y-92274792D01*
X67640061Y-91621271D01*
X67522708Y-91812777D01*
X67430906Y-92034408D01*
X67374907Y-92267659D01*
X67374906Y-92267663D01*
X67356087Y-92506795D01*
X64338700Y-92506795D01*
X64338700Y-92416805D01*
X64310543Y-92239030D01*
X64254923Y-92067848D01*
X64173209Y-91907475D01*
X64165019Y-91896203D01*
X64067413Y-91761860D01*
X64067406Y-91761852D01*
X63940147Y-91634593D01*
X63940139Y-91634586D01*
X63794527Y-91528792D01*
X63634158Y-91447080D01*
X63634150Y-91447076D01*
X63462968Y-91391456D01*
X63285208Y-91363301D01*
X63285196Y-91363300D01*
X63285195Y-91363300D01*
X63105205Y-91363300D01*
X63105203Y-91363300D01*
X63105191Y-91363301D01*
X62927432Y-91391456D01*
X62927431Y-91391456D01*
X62756249Y-91447076D01*
X62756241Y-91447080D01*
X62595872Y-91528792D01*
X62450260Y-91634586D01*
X62450252Y-91634593D01*
X62322993Y-91761852D01*
X62322986Y-91761860D01*
X62217192Y-91907472D01*
X62135480Y-92067841D01*
X62135476Y-92067849D01*
X62079856Y-92239031D01*
X62079856Y-92239032D01*
X62051701Y-92416791D01*
X62051700Y-92416807D01*
X61405000Y-92416807D01*
X61405000Y-89365823D01*
X61911009Y-89365823D01*
X61911009Y-89365830D01*
X61929609Y-89519023D01*
X61984337Y-89663331D01*
X62072001Y-89790334D01*
X62072005Y-89790338D01*
X62080629Y-89797978D01*
X62187520Y-89892675D01*
X62324168Y-89964393D01*
X62324169Y-89964393D01*
X62324170Y-89964394D01*
X62474013Y-90001327D01*
X62628341Y-90001327D01*
X62778184Y-89964394D01*
X62778184Y-89964393D01*
X62778187Y-89964393D01*
X62809016Y-89948212D01*
X62856655Y-89943882D01*
X62867101Y-89948208D01*
X62912499Y-89972035D01*
X63062342Y-90008968D01*
X63216670Y-90008968D01*
X63366513Y-89972035D01*
X63503163Y-89900316D01*
X63618679Y-89797978D01*
X63706347Y-89670969D01*
X63761072Y-89526670D01*
X63764114Y-89501617D01*
X63776390Y-89400518D01*
X64375800Y-89400518D01*
X64375800Y-89618681D01*
X64404275Y-89834969D01*
X64404275Y-89834970D01*
X64460733Y-90045675D01*
X64460739Y-90045693D01*
X64544219Y-90247230D01*
X64544222Y-90247236D01*
X64653299Y-90436164D01*
X64786103Y-90609238D01*
X64940362Y-90763497D01*
X65113436Y-90896301D01*
X65302364Y-91005378D01*
X65503913Y-91088863D01*
X65503923Y-91088865D01*
X65503924Y-91088866D01*
X65714629Y-91145324D01*
X65714631Y-91145324D01*
X65714634Y-91145325D01*
X65930923Y-91173800D01*
X65930929Y-91173800D01*
X66149071Y-91173800D01*
X66149077Y-91173800D01*
X66365366Y-91145325D01*
X66576087Y-91088863D01*
X66777636Y-91005378D01*
X66966564Y-90896301D01*
X67139638Y-90763497D01*
X67293897Y-90609238D01*
X67426701Y-90436164D01*
X67535778Y-90247236D01*
X67619263Y-90045687D01*
X67675725Y-89834966D01*
X67704200Y-89618677D01*
X67704200Y-89400523D01*
X67681777Y-89230200D01*
X68845379Y-89230200D01*
X68880982Y-89339776D01*
X68974421Y-89501617D01*
X68974420Y-89501617D01*
X69099465Y-89640494D01*
X69099465Y-89640495D01*
X69250645Y-89750334D01*
X69421374Y-89826348D01*
X69443599Y-89831070D01*
X69443600Y-89831070D01*
X69951600Y-89831070D01*
X69973825Y-89826348D01*
X70144554Y-89750334D01*
X70295734Y-89640495D01*
X70295734Y-89640494D01*
X70420778Y-89501617D01*
X70514217Y-89339776D01*
X70549821Y-89230200D01*
X69951600Y-89230200D01*
X69951600Y-89831070D01*
X69443600Y-89831070D01*
X69443600Y-89230200D01*
X68845379Y-89230200D01*
X67681777Y-89230200D01*
X67675725Y-89184234D01*
X67672219Y-89171150D01*
X67619266Y-88973524D01*
X67619265Y-88973523D01*
X67619263Y-88973513D01*
X67603062Y-88934400D01*
X69380100Y-88934400D01*
X69380100Y-89018000D01*
X69401737Y-89098751D01*
X69443537Y-89171150D01*
X69502650Y-89230263D01*
X69575049Y-89272063D01*
X69655800Y-89293700D01*
X69739400Y-89293700D01*
X69820151Y-89272063D01*
X69892550Y-89230263D01*
X69951663Y-89171150D01*
X69993463Y-89098751D01*
X70015100Y-89018000D01*
X70015100Y-88934400D01*
X69993463Y-88853649D01*
X69951663Y-88781250D01*
X69892613Y-88722200D01*
X69951600Y-88722200D01*
X70549821Y-88722200D01*
X70549821Y-88722199D01*
X70514217Y-88612623D01*
X70420778Y-88450782D01*
X70420779Y-88450782D01*
X70295734Y-88311905D01*
X70295734Y-88311904D01*
X70144554Y-88202065D01*
X69973827Y-88126052D01*
X69951600Y-88121327D01*
X69951600Y-88722200D01*
X69892613Y-88722200D01*
X69892550Y-88722137D01*
X69820151Y-88680337D01*
X69739400Y-88658700D01*
X69655800Y-88658700D01*
X69575049Y-88680337D01*
X69502650Y-88722137D01*
X69443537Y-88781250D01*
X69401737Y-88853649D01*
X69380100Y-88934400D01*
X67603062Y-88934400D01*
X67535778Y-88771964D01*
X67507046Y-88722199D01*
X68845378Y-88722199D01*
X68845379Y-88722200D01*
X69443600Y-88722200D01*
X69443600Y-88121328D01*
X69443599Y-88121327D01*
X69421373Y-88126052D01*
X69421371Y-88126052D01*
X69250650Y-88202063D01*
X69099462Y-88311907D01*
X68974421Y-88450782D01*
X68880982Y-88612623D01*
X68845378Y-88722199D01*
X67507046Y-88722199D01*
X67426701Y-88583036D01*
X67293897Y-88409962D01*
X67139638Y-88255703D01*
X67139634Y-88255700D01*
X67139632Y-88255698D01*
X66966561Y-88122897D01*
X66777642Y-88013825D01*
X66777630Y-88013819D01*
X66576093Y-87930339D01*
X66576075Y-87930333D01*
X66365370Y-87873875D01*
X66149081Y-87845400D01*
X66149077Y-87845400D01*
X65930923Y-87845400D01*
X65930918Y-87845400D01*
X65714630Y-87873875D01*
X65714629Y-87873875D01*
X65503924Y-87930333D01*
X65503906Y-87930339D01*
X65302369Y-88013819D01*
X65302357Y-88013825D01*
X65113438Y-88122897D01*
X64940367Y-88255698D01*
X64940357Y-88255707D01*
X64786107Y-88409957D01*
X64786098Y-88409967D01*
X64653297Y-88583038D01*
X64544225Y-88771957D01*
X64544219Y-88771969D01*
X64460739Y-88973506D01*
X64460733Y-88973524D01*
X64404275Y-89184229D01*
X64404275Y-89184230D01*
X64375800Y-89400518D01*
X63776390Y-89400518D01*
X63779674Y-89373471D01*
X63779674Y-89373464D01*
X63761073Y-89220273D01*
X63761071Y-89220262D01*
X63720824Y-89114143D01*
X63720824Y-89069817D01*
X63764891Y-88953625D01*
X63764893Y-88953614D01*
X63783494Y-88800423D01*
X63783494Y-88800416D01*
X63764893Y-88647225D01*
X63764892Y-88647221D01*
X63764892Y-88647218D01*
X63720232Y-88529459D01*
X63720232Y-88485134D01*
X63759162Y-88382485D01*
X63777764Y-88229283D01*
X63777068Y-88223553D01*
X63759163Y-88076086D01*
X63759162Y-88076084D01*
X63759162Y-88076081D01*
X63704437Y-87931782D01*
X63704435Y-87931780D01*
X63704435Y-87931778D01*
X63616771Y-87804775D01*
X63616767Y-87804771D01*
X63501252Y-87702434D01*
X63364603Y-87630716D01*
X63364606Y-87630716D01*
X63214763Y-87593783D01*
X63214760Y-87593783D01*
X63060432Y-87593783D01*
X63060428Y-87593783D01*
X62910590Y-87630715D01*
X62882709Y-87645348D01*
X62835069Y-87649675D01*
X62824620Y-87645347D01*
X62785826Y-87624986D01*
X62635985Y-87588053D01*
X62635982Y-87588053D01*
X62481654Y-87588053D01*
X62481650Y-87588053D01*
X62331809Y-87624986D01*
X62195161Y-87696704D01*
X62079646Y-87799041D01*
X62079642Y-87799045D01*
X61991978Y-87926048D01*
X61937250Y-88070356D01*
X61918650Y-88223549D01*
X61918650Y-88223556D01*
X61937250Y-88376751D01*
X61976543Y-88480358D01*
X61976543Y-88524682D01*
X61931519Y-88643401D01*
X61912919Y-88796596D01*
X61912919Y-88796603D01*
X61931519Y-88949798D01*
X61971998Y-89056533D01*
X61971998Y-89100857D01*
X61929609Y-89212628D01*
X61911009Y-89365823D01*
X61405000Y-89365823D01*
X61405000Y-86232996D01*
X62453432Y-86232996D01*
X62453432Y-86233003D01*
X62472032Y-86386196D01*
X62526760Y-86530504D01*
X62614424Y-86657507D01*
X62614427Y-86657510D01*
X62729943Y-86759848D01*
X62866591Y-86831566D01*
X62866592Y-86831566D01*
X62866593Y-86831567D01*
X63016436Y-86868500D01*
X63170764Y-86868500D01*
X63320607Y-86831567D01*
X63457257Y-86759848D01*
X63572773Y-86657510D01*
X63660441Y-86530501D01*
X63715166Y-86386202D01*
X63733768Y-86233000D01*
X63715166Y-86079798D01*
X63660441Y-85935499D01*
X63660439Y-85935497D01*
X63660439Y-85935495D01*
X63572775Y-85808492D01*
X63572771Y-85808488D01*
X63457256Y-85706151D01*
X63320607Y-85634433D01*
X63320610Y-85634433D01*
X63170767Y-85597500D01*
X63170764Y-85597500D01*
X63016436Y-85597500D01*
X63016432Y-85597500D01*
X62866591Y-85634433D01*
X62729943Y-85706151D01*
X62614428Y-85808488D01*
X62614424Y-85808492D01*
X62526760Y-85935495D01*
X62472032Y-86079803D01*
X62453432Y-86232996D01*
X61405000Y-86232996D01*
X61405000Y-81914996D01*
X61589832Y-81914996D01*
X61589832Y-81915003D01*
X61608432Y-82068196D01*
X61608433Y-82068200D01*
X61608434Y-82068202D01*
X61662339Y-82210338D01*
X61662339Y-82254661D01*
X61624973Y-82353189D01*
X61608432Y-82396803D01*
X61589832Y-82549996D01*
X61589832Y-82550003D01*
X61608432Y-82703196D01*
X61663160Y-82847504D01*
X61750824Y-82974507D01*
X61750828Y-82974511D01*
X61765770Y-82987748D01*
X61866343Y-83076848D01*
X62002991Y-83148566D01*
X62002992Y-83148566D01*
X62002993Y-83148567D01*
X62152836Y-83185500D01*
X62307164Y-83185500D01*
X62457007Y-83148567D01*
X62518455Y-83116315D01*
X62566093Y-83111987D01*
X62576539Y-83116313D01*
X62637993Y-83148567D01*
X62787836Y-83185500D01*
X62942164Y-83185500D01*
X63092007Y-83148567D01*
X63153455Y-83116315D01*
X63201093Y-83111987D01*
X63211539Y-83116313D01*
X63272993Y-83148567D01*
X63422836Y-83185500D01*
X63577164Y-83185500D01*
X63727007Y-83148567D01*
X63863657Y-83076848D01*
X63979173Y-82974510D01*
X64066841Y-82847501D01*
X64121566Y-82703202D01*
X64121567Y-82703196D01*
X64140168Y-82550003D01*
X64140168Y-82549996D01*
X64134000Y-82499198D01*
X64637674Y-82499198D01*
X64637674Y-82499201D01*
X64656894Y-82645200D01*
X64656897Y-82645210D01*
X64713251Y-82781260D01*
X64802902Y-82898097D01*
X64871760Y-82950933D01*
X64919737Y-82987747D01*
X64919738Y-82987747D01*
X64919739Y-82987748D01*
X64954634Y-83002202D01*
X65055793Y-83044104D01*
X65055797Y-83044104D01*
X65055799Y-83044105D01*
X65201798Y-83063326D01*
X65201800Y-83063326D01*
X65201802Y-83063326D01*
X65347800Y-83044105D01*
X65347800Y-83044104D01*
X65347807Y-83044104D01*
X65483863Y-82987747D01*
X65490683Y-82982513D01*
X65528728Y-82969600D01*
X68918066Y-82969600D01*
X68962260Y-82987906D01*
X69641802Y-83667448D01*
X69659573Y-83703479D01*
X69660696Y-83712009D01*
X69660697Y-83712011D01*
X69717051Y-83848060D01*
X69717050Y-83848060D01*
X69806702Y-83964897D01*
X69875560Y-84017733D01*
X69923537Y-84054547D01*
X70059593Y-84110904D01*
X70059597Y-84110904D01*
X70059599Y-84110905D01*
X70205598Y-84130126D01*
X70205600Y-84130126D01*
X70205602Y-84130126D01*
X70351600Y-84110905D01*
X70351600Y-84110904D01*
X70351607Y-84110904D01*
X70487663Y-84054547D01*
X70604497Y-83964897D01*
X70694147Y-83848063D01*
X70750504Y-83712007D01*
X70769726Y-83566000D01*
X70750504Y-83419993D01*
X70694147Y-83283937D01*
X70618613Y-83185499D01*
X70604497Y-83167102D01*
X70487660Y-83077451D01*
X70351611Y-83021097D01*
X70351609Y-83021096D01*
X70343079Y-83019973D01*
X70307048Y-83002202D01*
X69427633Y-82122787D01*
X69427632Y-82122786D01*
X69333080Y-82068196D01*
X69320367Y-82060856D01*
X69320364Y-82060855D01*
X69260548Y-82044828D01*
X69248584Y-82041622D01*
X69200734Y-82028800D01*
X69200730Y-82028800D01*
X69200729Y-82028800D01*
X65528728Y-82028800D01*
X65490683Y-82015886D01*
X65483863Y-82010653D01*
X65483859Y-82010651D01*
X65347810Y-81954297D01*
X65347800Y-81954294D01*
X65201802Y-81935074D01*
X65201798Y-81935074D01*
X65055799Y-81954294D01*
X65055789Y-81954297D01*
X64919739Y-82010651D01*
X64802902Y-82100302D01*
X64713251Y-82217139D01*
X64656897Y-82353189D01*
X64656894Y-82353199D01*
X64637674Y-82499198D01*
X64134000Y-82499198D01*
X64121567Y-82396803D01*
X64121566Y-82396801D01*
X64121566Y-82396798D01*
X64067661Y-82254661D01*
X64067661Y-82210338D01*
X64121566Y-82068202D01*
X64124404Y-82044828D01*
X64140168Y-81915003D01*
X64140168Y-81914996D01*
X64121567Y-81761803D01*
X64121566Y-81761801D01*
X64121566Y-81761798D01*
X64066841Y-81617499D01*
X64066839Y-81617497D01*
X64066839Y-81617495D01*
X63979175Y-81490492D01*
X63979171Y-81490488D01*
X63863656Y-81388151D01*
X63727007Y-81316433D01*
X63727010Y-81316433D01*
X63577167Y-81279500D01*
X63577164Y-81279500D01*
X63422836Y-81279500D01*
X63422832Y-81279500D01*
X63272991Y-81316433D01*
X63211545Y-81348683D01*
X63163906Y-81353012D01*
X63153455Y-81348683D01*
X63092007Y-81316433D01*
X63092010Y-81316433D01*
X62942167Y-81279500D01*
X62942164Y-81279500D01*
X62787836Y-81279500D01*
X62787832Y-81279500D01*
X62637991Y-81316433D01*
X62576545Y-81348683D01*
X62528906Y-81353012D01*
X62518455Y-81348683D01*
X62457007Y-81316433D01*
X62457010Y-81316433D01*
X62307167Y-81279500D01*
X62307164Y-81279500D01*
X62152836Y-81279500D01*
X62152832Y-81279500D01*
X62002991Y-81316433D01*
X61866343Y-81388151D01*
X61750828Y-81490488D01*
X61750824Y-81490492D01*
X61663160Y-81617495D01*
X61608432Y-81761803D01*
X61589832Y-81914996D01*
X61405000Y-81914996D01*
X61405000Y-81025998D01*
X66773874Y-81025998D01*
X66773874Y-81026001D01*
X66793094Y-81172000D01*
X66793097Y-81172010D01*
X66849451Y-81308060D01*
X66939102Y-81424897D01*
X67007960Y-81477733D01*
X67055937Y-81514547D01*
X67191993Y-81570904D01*
X67191997Y-81570904D01*
X67191999Y-81570905D01*
X67337998Y-81590126D01*
X67338000Y-81590126D01*
X67338002Y-81590126D01*
X67484000Y-81570905D01*
X67484000Y-81570904D01*
X67484007Y-81570904D01*
X67620063Y-81514547D01*
X67736897Y-81424897D01*
X67826547Y-81308063D01*
X67882904Y-81172007D01*
X67902126Y-81026000D01*
X67882904Y-80879993D01*
X67826547Y-80743937D01*
X67789733Y-80695960D01*
X67736897Y-80627102D01*
X67620060Y-80537451D01*
X67484010Y-80481097D01*
X67484000Y-80481094D01*
X67338002Y-80461874D01*
X67337998Y-80461874D01*
X67191999Y-80481094D01*
X67191989Y-80481097D01*
X67055939Y-80537451D01*
X66939102Y-80627102D01*
X66849451Y-80743939D01*
X66793097Y-80879989D01*
X66793094Y-80879999D01*
X66773874Y-81025998D01*
X61405000Y-81025998D01*
X61405000Y-77001671D01*
X61404999Y-77001668D01*
X61400796Y-76985982D01*
X61396847Y-76971245D01*
X61396847Y-76971243D01*
X61378333Y-76902147D01*
X61372943Y-76882032D01*
X61372940Y-76882026D01*
X61311016Y-76774771D01*
X61311009Y-76774762D01*
X61223432Y-76687186D01*
X58570140Y-74033894D01*
X58551834Y-73989700D01*
X58570140Y-73945506D01*
X58614334Y-73927200D01*
X59062866Y-73927200D01*
X59107060Y-73945506D01*
X62234586Y-77073032D01*
X62322162Y-77160609D01*
X62322166Y-77160612D01*
X62322168Y-77160614D01*
X62429432Y-77222543D01*
X62489251Y-77238571D01*
X62549064Y-77254599D01*
X62549070Y-77254600D01*
X68286330Y-77254600D01*
X68346148Y-77238571D01*
X68346149Y-77238571D01*
X68405964Y-77222544D01*
X68405962Y-77222544D01*
X68405968Y-77222543D01*
X68513232Y-77160614D01*
X68600814Y-77073032D01*
X68797413Y-76876433D01*
X68802569Y-76867504D01*
X68802572Y-76867500D01*
X68833824Y-76813368D01*
X68859343Y-76769168D01*
X68871909Y-76722270D01*
X68889808Y-76655471D01*
X68891399Y-76649535D01*
X68891400Y-76649529D01*
X68891400Y-75386928D01*
X68904315Y-75348880D01*
X68909547Y-75342063D01*
X68965904Y-75206007D01*
X68977011Y-75121642D01*
X68985126Y-75060001D01*
X68985126Y-75059998D01*
X68965905Y-74913999D01*
X68965904Y-74913997D01*
X68965904Y-74913993D01*
X68909547Y-74777937D01*
X68853058Y-74704319D01*
X68819897Y-74661102D01*
X68703060Y-74571451D01*
X68567010Y-74515097D01*
X68567000Y-74515094D01*
X68421003Y-74495874D01*
X68420998Y-74495874D01*
X68324946Y-74508519D01*
X68278740Y-74496138D01*
X68272594Y-74490748D01*
X66063140Y-72281294D01*
X66044834Y-72237100D01*
X66063140Y-72192906D01*
X66107334Y-72174600D01*
X68791066Y-72174600D01*
X68835260Y-72192906D01*
X69317194Y-72674840D01*
X69335500Y-72719034D01*
X69322585Y-72757080D01*
X69256303Y-72843462D01*
X69234450Y-72871941D01*
X69178097Y-73007989D01*
X69178094Y-73007999D01*
X69158874Y-73153998D01*
X69158874Y-73154001D01*
X69178094Y-73300000D01*
X69178097Y-73300010D01*
X69234451Y-73436060D01*
X69234452Y-73436062D01*
X69234453Y-73436063D01*
X69324103Y-73552897D01*
X69354020Y-73575853D01*
X69399062Y-73610415D01*
X69422979Y-73651842D01*
X69410599Y-73698048D01*
X69399062Y-73709585D01*
X69324101Y-73767104D01*
X69234451Y-73883939D01*
X69178097Y-74019989D01*
X69178094Y-74019999D01*
X69158874Y-74165998D01*
X69158874Y-74166001D01*
X69178094Y-74312000D01*
X69178097Y-74312010D01*
X69234451Y-74448060D01*
X69320730Y-74560502D01*
X69324103Y-74564897D01*
X69402972Y-74625415D01*
X69426889Y-74666842D01*
X69414509Y-74713048D01*
X69402973Y-74724583D01*
X69369591Y-74750198D01*
X69324101Y-74785104D01*
X69234451Y-74901939D01*
X69178097Y-75037989D01*
X69178094Y-75037999D01*
X69158874Y-75183998D01*
X69158874Y-75184001D01*
X69178094Y-75330000D01*
X69178097Y-75330010D01*
X69234451Y-75466060D01*
X69324102Y-75582897D01*
X69379919Y-75625726D01*
X69440937Y-75672547D01*
X69576993Y-75728904D01*
X69576997Y-75728904D01*
X69576999Y-75728905D01*
X69722998Y-75748126D01*
X69723000Y-75748126D01*
X69723002Y-75748126D01*
X69869000Y-75728905D01*
X69869000Y-75728904D01*
X69869007Y-75728904D01*
X70005063Y-75672547D01*
X70121897Y-75582897D01*
X70211547Y-75466063D01*
X70249958Y-75373330D01*
X70283782Y-75339508D01*
X70331618Y-75339507D01*
X70365442Y-75373332D01*
X70370200Y-75397250D01*
X70370200Y-76411066D01*
X70351894Y-76455260D01*
X68845860Y-77961294D01*
X68801666Y-77979600D01*
X68144928Y-77979600D01*
X68106883Y-77966686D01*
X68100063Y-77961453D01*
X68100059Y-77961451D01*
X67964010Y-77905097D01*
X67964000Y-77905094D01*
X67818002Y-77885874D01*
X67817998Y-77885874D01*
X67671999Y-77905094D01*
X67671989Y-77905097D01*
X67535940Y-77961451D01*
X67535936Y-77961453D01*
X67531044Y-77965207D01*
X67484837Y-77977584D01*
X67454956Y-77965207D01*
X67450063Y-77961453D01*
X67450059Y-77961451D01*
X67314010Y-77905097D01*
X67314000Y-77905094D01*
X67168002Y-77885874D01*
X67167998Y-77885874D01*
X67021999Y-77905094D01*
X67021989Y-77905097D01*
X66885939Y-77961451D01*
X66769102Y-78051102D01*
X66679451Y-78167939D01*
X66623097Y-78303989D01*
X66623094Y-78303999D01*
X66603874Y-78449998D01*
X66603874Y-78450001D01*
X66623094Y-78596000D01*
X66623097Y-78596010D01*
X66679451Y-78732060D01*
X66769102Y-78848897D01*
X66820510Y-78888343D01*
X66885937Y-78938547D01*
X67021993Y-78994904D01*
X67021997Y-78994904D01*
X67021999Y-78994905D01*
X67167998Y-79014126D01*
X67168000Y-79014126D01*
X67168002Y-79014126D01*
X67314000Y-78994905D01*
X67314000Y-78994904D01*
X67314007Y-78994904D01*
X67450063Y-78938547D01*
X67454950Y-78934796D01*
X67501154Y-78922413D01*
X67531050Y-78934797D01*
X67535937Y-78938547D01*
X67535938Y-78938548D01*
X67614852Y-78971235D01*
X67671993Y-78994904D01*
X67671997Y-78994904D01*
X67671999Y-78994905D01*
X67817998Y-79014126D01*
X67818000Y-79014126D01*
X67818002Y-79014126D01*
X67964000Y-78994905D01*
X67964000Y-78994904D01*
X67964007Y-78994904D01*
X68100063Y-78938547D01*
X68106883Y-78933313D01*
X68144928Y-78920400D01*
X69084328Y-78920400D01*
X69084330Y-78920400D01*
X69160463Y-78900000D01*
X69203968Y-78888343D01*
X69311232Y-78826414D01*
X69398814Y-78738832D01*
X71217013Y-76920633D01*
X71217014Y-76920632D01*
X71278943Y-76813368D01*
X71311000Y-76693729D01*
X71311000Y-74828398D01*
X74721474Y-74828398D01*
X74721474Y-74828401D01*
X74740694Y-74974400D01*
X74740697Y-74974410D01*
X74797051Y-75110460D01*
X74886702Y-75227297D01*
X74921469Y-75253974D01*
X75003537Y-75316947D01*
X75139593Y-75373304D01*
X75139597Y-75373304D01*
X75139599Y-75373305D01*
X75285598Y-75392526D01*
X75285600Y-75392526D01*
X75285602Y-75392526D01*
X75431600Y-75373305D01*
X75431600Y-75373304D01*
X75431607Y-75373304D01*
X75567663Y-75316947D01*
X75684497Y-75227297D01*
X75756716Y-75133179D01*
X75798142Y-75109262D01*
X75844347Y-75121642D01*
X75855882Y-75133177D01*
X75883239Y-75168829D01*
X75928102Y-75227297D01*
X75962869Y-75253974D01*
X76044937Y-75316947D01*
X76180993Y-75373304D01*
X76180997Y-75373304D01*
X76180999Y-75373305D01*
X76326998Y-75392526D01*
X76327000Y-75392526D01*
X76327002Y-75392526D01*
X76473000Y-75373305D01*
X76473000Y-75373304D01*
X76473007Y-75373304D01*
X76609063Y-75316947D01*
X76725897Y-75227297D01*
X76815547Y-75110463D01*
X76871904Y-74974407D01*
X76874877Y-74951823D01*
X76891126Y-74828401D01*
X76891126Y-74828398D01*
X76871905Y-74682399D01*
X76871904Y-74682397D01*
X76871904Y-74682393D01*
X76821415Y-74560503D01*
X76815548Y-74546339D01*
X76815547Y-74546338D01*
X76815547Y-74546337D01*
X76772892Y-74490748D01*
X76725897Y-74429502D01*
X76636159Y-74360644D01*
X76609063Y-74339853D01*
X76609062Y-74339852D01*
X76609060Y-74339851D01*
X76473010Y-74283497D01*
X76473000Y-74283494D01*
X76327002Y-74264274D01*
X76326998Y-74264274D01*
X76180999Y-74283494D01*
X76180989Y-74283497D01*
X76044939Y-74339851D01*
X75928102Y-74429502D01*
X75855885Y-74523619D01*
X75814458Y-74547537D01*
X75768253Y-74535157D01*
X75756715Y-74523619D01*
X75684497Y-74429502D01*
X75594759Y-74360644D01*
X75567663Y-74339853D01*
X75567662Y-74339852D01*
X75567660Y-74339851D01*
X75431610Y-74283497D01*
X75431600Y-74283494D01*
X75285602Y-74264274D01*
X75285598Y-74264274D01*
X75139599Y-74283494D01*
X75139589Y-74283497D01*
X75003539Y-74339851D01*
X74886702Y-74429502D01*
X74797051Y-74546339D01*
X74740697Y-74682389D01*
X74740694Y-74682399D01*
X74721474Y-74828398D01*
X71311000Y-74828398D01*
X71311000Y-73471071D01*
X71282488Y-73364663D01*
X71278944Y-73351435D01*
X71278943Y-73351432D01*
X71269529Y-73335126D01*
X71217014Y-73244168D01*
X71217012Y-73244166D01*
X71217009Y-73244162D01*
X71129432Y-73156586D01*
X70769244Y-72796398D01*
X74340474Y-72796398D01*
X74340474Y-72796401D01*
X74359694Y-72942400D01*
X74359697Y-72942410D01*
X74416051Y-73078460D01*
X74416052Y-73078462D01*
X74416053Y-73078463D01*
X74436844Y-73105559D01*
X74505702Y-73195297D01*
X74569385Y-73244162D01*
X74622537Y-73284947D01*
X74622538Y-73284947D01*
X74622539Y-73284948D01*
X74658902Y-73300010D01*
X74758593Y-73341304D01*
X74758597Y-73341304D01*
X74758599Y-73341305D01*
X74904598Y-73360526D01*
X74904600Y-73360526D01*
X74904602Y-73360526D01*
X75050600Y-73341305D01*
X75050600Y-73341304D01*
X75050607Y-73341304D01*
X75186663Y-73284947D01*
X75303497Y-73195297D01*
X75393147Y-73078463D01*
X75449504Y-72942407D01*
X75449505Y-72942400D01*
X75468726Y-72796401D01*
X75468726Y-72796398D01*
X75449384Y-72649477D01*
X75461765Y-72603271D01*
X75503191Y-72579354D01*
X75535267Y-72583577D01*
X75582813Y-72603271D01*
X75647593Y-72630104D01*
X75647597Y-72630104D01*
X75647599Y-72630105D01*
X75793598Y-72649326D01*
X75793600Y-72649326D01*
X75793602Y-72649326D01*
X75939600Y-72630105D01*
X75939600Y-72630104D01*
X75939607Y-72630104D01*
X76005843Y-72602667D01*
X76048396Y-72585042D01*
X76096232Y-72585041D01*
X76130056Y-72618866D01*
X76134279Y-72650942D01*
X76118474Y-72770998D01*
X76118474Y-72771001D01*
X76137694Y-72917000D01*
X76137697Y-72917010D01*
X76194051Y-73053060D01*
X76283702Y-73169897D01*
X76352560Y-73222733D01*
X76400537Y-73259547D01*
X76536593Y-73315904D01*
X76536597Y-73315904D01*
X76536599Y-73315905D01*
X76682598Y-73335126D01*
X76682600Y-73335126D01*
X76682602Y-73335126D01*
X76828600Y-73315905D01*
X76828600Y-73315904D01*
X76828607Y-73315904D01*
X76964663Y-73259547D01*
X77081497Y-73169897D01*
X77171147Y-73053063D01*
X77227504Y-72917007D01*
X77233438Y-72871937D01*
X77246726Y-72771001D01*
X77246726Y-72770998D01*
X77227505Y-72624999D01*
X77227504Y-72624997D01*
X77227504Y-72624993D01*
X77171147Y-72488937D01*
X77125381Y-72429294D01*
X77081497Y-72372102D01*
X76964660Y-72282451D01*
X76917697Y-72262998D01*
X77363074Y-72262998D01*
X77363074Y-72263001D01*
X77382294Y-72409000D01*
X77382297Y-72409010D01*
X77438651Y-72545060D01*
X77528302Y-72661897D01*
X77567712Y-72692137D01*
X77645137Y-72751547D01*
X77645138Y-72751547D01*
X77645139Y-72751548D01*
X77658499Y-72757082D01*
X77781193Y-72807904D01*
X77781197Y-72807904D01*
X77781199Y-72807905D01*
X77927198Y-72827126D01*
X77927200Y-72827126D01*
X77927202Y-72827126D01*
X78073200Y-72807905D01*
X78073200Y-72807904D01*
X78073207Y-72807904D01*
X78209263Y-72751547D01*
X78326097Y-72661897D01*
X78415747Y-72545063D01*
X78472104Y-72409007D01*
X78473619Y-72397502D01*
X78491326Y-72263001D01*
X78491326Y-72262998D01*
X78472105Y-72116999D01*
X78472104Y-72116997D01*
X78472104Y-72116993D01*
X78434532Y-72026289D01*
X78415748Y-71980939D01*
X78415747Y-71980938D01*
X78415747Y-71980937D01*
X78378933Y-71932960D01*
X78326097Y-71864102D01*
X78209260Y-71774451D01*
X78073210Y-71718097D01*
X78073200Y-71718094D01*
X77927202Y-71698874D01*
X77927198Y-71698874D01*
X77781199Y-71718094D01*
X77781189Y-71718097D01*
X77645139Y-71774451D01*
X77528302Y-71864102D01*
X77438651Y-71980939D01*
X77382297Y-72116989D01*
X77382294Y-72116999D01*
X77363074Y-72262998D01*
X76917697Y-72262998D01*
X76828610Y-72226097D01*
X76828600Y-72226094D01*
X76682602Y-72206874D01*
X76682598Y-72206874D01*
X76536599Y-72226094D01*
X76536593Y-72226096D01*
X76427802Y-72271158D01*
X76379967Y-72271157D01*
X76346142Y-72237332D01*
X76341920Y-72205257D01*
X76345957Y-72174599D01*
X76357726Y-72085200D01*
X76357122Y-72080614D01*
X76338505Y-71939199D01*
X76338504Y-71939197D01*
X76338504Y-71939193D01*
X76282147Y-71803137D01*
X76231291Y-71736860D01*
X76192497Y-71686302D01*
X76102759Y-71617444D01*
X76075663Y-71596653D01*
X76075662Y-71596652D01*
X76075660Y-71596651D01*
X75939610Y-71540297D01*
X75939600Y-71540294D01*
X75793602Y-71521074D01*
X75793598Y-71521074D01*
X75647599Y-71540294D01*
X75647589Y-71540297D01*
X75511539Y-71596651D01*
X75394702Y-71686302D01*
X75305051Y-71803139D01*
X75248697Y-71939189D01*
X75248694Y-71939199D01*
X75229474Y-72085198D01*
X75229474Y-72085203D01*
X75248815Y-72232123D01*
X75236434Y-72278328D01*
X75195007Y-72302245D01*
X75162932Y-72298023D01*
X75125338Y-72282451D01*
X75050607Y-72251496D01*
X75050604Y-72251495D01*
X75050603Y-72251495D01*
X75050600Y-72251494D01*
X74904602Y-72232274D01*
X74904598Y-72232274D01*
X74758599Y-72251494D01*
X74758589Y-72251497D01*
X74622539Y-72307851D01*
X74505702Y-72397502D01*
X74416051Y-72514339D01*
X74359697Y-72650389D01*
X74359694Y-72650399D01*
X74340474Y-72796398D01*
X70769244Y-72796398D01*
X69421479Y-71448633D01*
X69403173Y-71404439D01*
X69421479Y-71360245D01*
X69465589Y-71341939D01*
X73852241Y-71336185D01*
X73881841Y-71335011D01*
X73999440Y-71306848D01*
X74043444Y-71288650D01*
X74096875Y-71261526D01*
X74189019Y-71183218D01*
X74252454Y-71080269D01*
X74270868Y-71036120D01*
X74281442Y-71007671D01*
X74282821Y-70999104D01*
X74292095Y-70941458D01*
X74300651Y-70888282D01*
X74318792Y-63462660D01*
X74337206Y-63418513D01*
X74381445Y-63400315D01*
X74425486Y-63418621D01*
X74465362Y-63458497D01*
X74638436Y-63591301D01*
X74827364Y-63700378D01*
X75028913Y-63783863D01*
X75028923Y-63783865D01*
X75028924Y-63783866D01*
X75239629Y-63840324D01*
X75239631Y-63840324D01*
X75239634Y-63840325D01*
X75455923Y-63868800D01*
X75455929Y-63868800D01*
X75674071Y-63868800D01*
X75674077Y-63868800D01*
X75890366Y-63840325D01*
X76101087Y-63783863D01*
X76302636Y-63700378D01*
X76491564Y-63591301D01*
X76664638Y-63458497D01*
X76818897Y-63304238D01*
X76951701Y-63131164D01*
X77060778Y-62942236D01*
X77144263Y-62740687D01*
X77200725Y-62529966D01*
X77229200Y-62313677D01*
X77229200Y-62095523D01*
X77200725Y-61879234D01*
X77172717Y-61774707D01*
X77144266Y-61668524D01*
X77144265Y-61668523D01*
X77144263Y-61668513D01*
X77060778Y-61466964D01*
X76951701Y-61278036D01*
X76818897Y-61104962D01*
X76764192Y-61050257D01*
X76745887Y-61006062D01*
X76764193Y-60961868D01*
X76808308Y-60943563D01*
X78681262Y-60941242D01*
X78704625Y-60940506D01*
X78712165Y-60940040D01*
X78734751Y-60937059D01*
X78780961Y-60949423D01*
G37*
%TD.AperFunction*%
%TA.AperFunction,Conductor*%
G36*
X53344421Y-60956521D02*
G01*
X53355944Y-60958334D01*
X53396859Y-60964772D01*
X55252222Y-60962891D01*
X55296434Y-60981152D01*
X55314785Y-61025328D01*
X55296524Y-61069540D01*
X55296480Y-61069585D01*
X55261098Y-61104967D01*
X55128297Y-61278038D01*
X55019225Y-61466957D01*
X55019219Y-61466969D01*
X54935739Y-61668506D01*
X54935733Y-61668524D01*
X54879275Y-61879229D01*
X54879275Y-61879230D01*
X54850800Y-62095518D01*
X54850800Y-62313681D01*
X54879275Y-62529969D01*
X54879275Y-62529970D01*
X54935733Y-62740675D01*
X54935739Y-62740693D01*
X55019219Y-62942230D01*
X55019222Y-62942236D01*
X55128299Y-63131164D01*
X55261103Y-63304238D01*
X55415362Y-63458497D01*
X55588436Y-63591301D01*
X55777364Y-63700378D01*
X55978913Y-63783863D01*
X55978923Y-63783865D01*
X55978924Y-63783866D01*
X56189629Y-63840324D01*
X56189631Y-63840324D01*
X56189634Y-63840325D01*
X56405923Y-63868800D01*
X56405929Y-63868800D01*
X56624071Y-63868800D01*
X56624077Y-63868800D01*
X56840366Y-63840325D01*
X57051087Y-63783863D01*
X57252636Y-63700378D01*
X57441564Y-63591301D01*
X57614638Y-63458497D01*
X57768897Y-63304238D01*
X57901701Y-63131164D01*
X58010778Y-62942236D01*
X58094263Y-62740687D01*
X58150725Y-62529966D01*
X58179200Y-62313677D01*
X58179200Y-62095523D01*
X58150725Y-61879234D01*
X58122717Y-61774707D01*
X58094266Y-61668524D01*
X58094265Y-61668523D01*
X58094263Y-61668513D01*
X58010778Y-61466964D01*
X57901701Y-61278036D01*
X57768897Y-61104962D01*
X57730963Y-61067028D01*
X57712657Y-61022834D01*
X57730963Y-60978640D01*
X57775093Y-60960334D01*
X59748937Y-60958334D01*
X59793149Y-60976595D01*
X59811500Y-61020771D01*
X59811500Y-66709654D01*
X59793194Y-66753848D01*
X59749000Y-66772154D01*
X59725083Y-66767397D01*
X59676074Y-66747097D01*
X59658207Y-66739696D01*
X59658205Y-66739695D01*
X59658200Y-66739694D01*
X59512202Y-66720474D01*
X59512198Y-66720474D01*
X59366199Y-66739694D01*
X59366189Y-66739697D01*
X59230139Y-66796051D01*
X59113302Y-66885702D01*
X59023651Y-67002539D01*
X58967297Y-67138589D01*
X58967294Y-67138599D01*
X58948074Y-67284598D01*
X58948074Y-67284601D01*
X58967294Y-67430600D01*
X58967297Y-67430610D01*
X59023651Y-67566660D01*
X59113302Y-67683497D01*
X59182160Y-67736333D01*
X59230137Y-67773147D01*
X59366193Y-67829504D01*
X59366197Y-67829504D01*
X59366199Y-67829505D01*
X59512198Y-67848726D01*
X59512200Y-67848726D01*
X59512202Y-67848726D01*
X59658200Y-67829505D01*
X59658200Y-67829504D01*
X59658207Y-67829504D01*
X59725082Y-67801802D01*
X59772917Y-67801802D01*
X59806742Y-67835627D01*
X59811500Y-67859545D01*
X59811500Y-70905102D01*
X59812731Y-70935929D01*
X59820053Y-70966251D01*
X59841116Y-71053476D01*
X59841117Y-71053480D01*
X59841118Y-71053481D01*
X59859478Y-71097643D01*
X59882589Y-71142853D01*
X59886404Y-71190536D01*
X59855385Y-71226951D01*
X59826938Y-71233800D01*
X56926222Y-71233800D01*
X56882028Y-71215494D01*
X56863722Y-71171300D01*
X56874255Y-71136577D01*
X56896372Y-71103476D01*
X56933464Y-71047964D01*
X56989986Y-70911509D01*
X57018800Y-70766649D01*
X57018800Y-70618951D01*
X56989986Y-70474091D01*
X56933464Y-70337636D01*
X56851408Y-70214830D01*
X56746970Y-70110392D01*
X56746969Y-70110391D01*
X56624166Y-70028337D01*
X56624161Y-70028334D01*
X56487710Y-69971814D01*
X56487707Y-69971813D01*
X56342849Y-69943000D01*
X56195151Y-69943000D01*
X56050292Y-69971813D01*
X56050289Y-69971814D01*
X55913838Y-70028334D01*
X55913833Y-70028337D01*
X55791030Y-70110391D01*
X55686591Y-70214830D01*
X55604537Y-70337633D01*
X55604534Y-70337638D01*
X55548014Y-70474089D01*
X55548013Y-70474092D01*
X55519200Y-70618950D01*
X55519200Y-70766649D01*
X55548013Y-70911507D01*
X55548014Y-70911510D01*
X55604534Y-71047961D01*
X55604537Y-71047966D01*
X55663745Y-71136577D01*
X55673077Y-71183493D01*
X55646501Y-71223267D01*
X55611778Y-71233800D01*
X55529202Y-71233800D01*
X55485008Y-71215494D01*
X55471460Y-71195219D01*
X55462147Y-71172737D01*
X55462146Y-71172736D01*
X55460637Y-71170770D01*
X55404528Y-71097646D01*
X55372497Y-71055902D01*
X55255660Y-70966251D01*
X55119610Y-70909897D01*
X55119608Y-70909896D01*
X55119607Y-70909896D01*
X55119605Y-70909895D01*
X55119599Y-70909894D01*
X55028581Y-70897911D01*
X54987154Y-70873993D01*
X54974774Y-70827788D01*
X54975432Y-70823793D01*
X54986800Y-70766649D01*
X54986800Y-70618951D01*
X54957986Y-70474091D01*
X54901464Y-70337636D01*
X54819408Y-70214830D01*
X54714970Y-70110392D01*
X54714969Y-70110391D01*
X54592166Y-70028337D01*
X54592161Y-70028334D01*
X54455710Y-69971814D01*
X54455707Y-69971813D01*
X54310849Y-69943000D01*
X54163151Y-69943000D01*
X54018292Y-69971813D01*
X54018289Y-69971814D01*
X53881838Y-70028334D01*
X53881833Y-70028337D01*
X53759030Y-70110391D01*
X53654591Y-70214830D01*
X53572537Y-70337633D01*
X53572534Y-70337638D01*
X53516014Y-70474089D01*
X53516013Y-70474092D01*
X53487200Y-70618950D01*
X53487200Y-70766649D01*
X53516013Y-70911507D01*
X53516014Y-70911510D01*
X53572534Y-71047961D01*
X53572537Y-71047966D01*
X53654591Y-71170769D01*
X53759030Y-71275208D01*
X53881833Y-71357262D01*
X53881838Y-71357265D01*
X53950063Y-71385525D01*
X54018291Y-71413786D01*
X54163151Y-71442600D01*
X54310847Y-71442600D01*
X54310849Y-71442600D01*
X54339943Y-71436812D01*
X54386858Y-71446143D01*
X54413435Y-71485916D01*
X54414101Y-71489953D01*
X54428694Y-71600800D01*
X54428697Y-71600810D01*
X54485051Y-71736860D01*
X54574702Y-71853697D01*
X54588264Y-71864103D01*
X54691537Y-71943347D01*
X54827591Y-71999703D01*
X54827593Y-71999704D01*
X54836112Y-72000825D01*
X54872150Y-72018596D01*
X54934167Y-72080614D01*
X54987800Y-72111578D01*
X55041432Y-72142543D01*
X55101251Y-72158571D01*
X55161064Y-72174599D01*
X55161070Y-72174600D01*
X55161071Y-72174600D01*
X56904866Y-72174600D01*
X56949060Y-72192906D01*
X56967366Y-72237100D01*
X56949060Y-72281294D01*
X55571759Y-73658593D01*
X55527565Y-73676899D01*
X55489518Y-73663984D01*
X55374660Y-73575851D01*
X55238610Y-73519497D01*
X55238600Y-73519494D01*
X55092602Y-73500274D01*
X55092598Y-73500274D01*
X54946599Y-73519494D01*
X54946589Y-73519497D01*
X54810539Y-73575851D01*
X54693702Y-73665502D01*
X54604051Y-73782339D01*
X54579503Y-73841602D01*
X54545678Y-73875427D01*
X54505583Y-73878054D01*
X54502004Y-73877094D01*
X54479402Y-73874119D01*
X54437976Y-73850201D01*
X54429820Y-73836076D01*
X54387347Y-73733537D01*
X54317528Y-73642547D01*
X54297698Y-73616704D01*
X54297697Y-73616703D01*
X54190878Y-73534738D01*
X54166962Y-73493312D01*
X54179342Y-73447106D01*
X54190873Y-73435575D01*
X54272297Y-73373097D01*
X54361947Y-73256263D01*
X54418304Y-73120207D01*
X54423546Y-73080387D01*
X54437526Y-72974201D01*
X54437526Y-72974198D01*
X54418305Y-72828199D01*
X54418304Y-72828197D01*
X54418304Y-72828193D01*
X54361947Y-72692137D01*
X54310426Y-72624993D01*
X54272297Y-72575302D01*
X54159745Y-72488939D01*
X54155463Y-72485653D01*
X54155462Y-72485652D01*
X54155460Y-72485651D01*
X54019410Y-72429297D01*
X54019400Y-72429294D01*
X53873402Y-72410074D01*
X53873398Y-72410074D01*
X53727399Y-72429294D01*
X53727389Y-72429297D01*
X53591339Y-72485651D01*
X53474502Y-72575302D01*
X53384851Y-72692139D01*
X53328497Y-72828189D01*
X53328494Y-72828199D01*
X53309274Y-72974198D01*
X53309274Y-72974201D01*
X53328494Y-73120200D01*
X53328497Y-73120210D01*
X53384851Y-73256260D01*
X53474502Y-73373097D01*
X53581319Y-73455060D01*
X53605237Y-73496487D01*
X53592857Y-73542692D01*
X53581319Y-73554230D01*
X53499902Y-73616702D01*
X53410251Y-73733539D01*
X53353897Y-73869589D01*
X53353894Y-73869599D01*
X53334674Y-74015598D01*
X53334674Y-74015601D01*
X53353894Y-74161600D01*
X53353897Y-74161610D01*
X53410251Y-74297660D01*
X53499902Y-74414497D01*
X53543643Y-74448060D01*
X53616737Y-74504147D01*
X53616738Y-74504147D01*
X53616739Y-74504148D01*
X53637004Y-74512542D01*
X53752793Y-74560504D01*
X53775395Y-74563479D01*
X53816821Y-74587394D01*
X53824980Y-74601526D01*
X53867451Y-74704060D01*
X53867452Y-74704062D01*
X53867453Y-74704063D01*
X53879304Y-74719507D01*
X53957102Y-74820897D01*
X54004136Y-74856987D01*
X54073937Y-74910547D01*
X54091926Y-74917998D01*
X54125750Y-74951823D01*
X54125751Y-74999659D01*
X54106056Y-75025325D01*
X54015903Y-75094502D01*
X53926251Y-75211339D01*
X53869897Y-75347389D01*
X53869894Y-75347399D01*
X53850674Y-75493398D01*
X53850674Y-75493401D01*
X53869894Y-75639400D01*
X53869897Y-75639410D01*
X53926251Y-75775460D01*
X53926252Y-75775462D01*
X53926253Y-75775463D01*
X53940170Y-75793600D01*
X54015902Y-75892297D01*
X54077562Y-75939610D01*
X54132737Y-75981947D01*
X54268793Y-76038304D01*
X54268797Y-76038304D01*
X54268799Y-76038305D01*
X54414798Y-76057526D01*
X54414800Y-76057526D01*
X54414801Y-76057526D01*
X54422642Y-76056493D01*
X54469542Y-76050318D01*
X54515746Y-76062698D01*
X54521894Y-76068089D01*
X54523901Y-76070096D01*
X54582320Y-76114922D01*
X54640737Y-76159747D01*
X54776793Y-76216104D01*
X54776797Y-76216104D01*
X54776799Y-76216105D01*
X54922798Y-76235326D01*
X54922800Y-76235326D01*
X54922802Y-76235326D01*
X55068803Y-76216105D01*
X55068804Y-76216104D01*
X55068807Y-76216104D01*
X55089411Y-76207568D01*
X55137244Y-76207568D01*
X55157523Y-76221117D01*
X55158898Y-76222492D01*
X55158900Y-76222494D01*
X55158903Y-76222497D01*
X55275737Y-76312147D01*
X55275740Y-76312148D01*
X55275741Y-76312149D01*
X55335558Y-76336926D01*
X55411793Y-76368504D01*
X55411797Y-76368504D01*
X55411799Y-76368505D01*
X55557798Y-76387726D01*
X55557800Y-76387726D01*
X55557802Y-76387726D01*
X55703800Y-76368505D01*
X55703800Y-76368504D01*
X55703807Y-76368504D01*
X55839863Y-76312147D01*
X55861267Y-76295722D01*
X55907470Y-76283341D01*
X55923230Y-76287564D01*
X55995993Y-76317704D01*
X55995997Y-76317704D01*
X55995999Y-76317705D01*
X56141998Y-76336926D01*
X56142000Y-76336926D01*
X56142002Y-76336926D01*
X56288000Y-76317705D01*
X56288000Y-76317704D01*
X56288007Y-76317704D01*
X56424063Y-76261347D01*
X56540897Y-76171697D01*
X56630547Y-76054863D01*
X56686904Y-75918807D01*
X56704902Y-75782096D01*
X56706126Y-75772801D01*
X56706126Y-75772798D01*
X56686905Y-75626799D01*
X56686904Y-75626797D01*
X56686904Y-75626793D01*
X56639163Y-75511537D01*
X56630548Y-75490739D01*
X56630547Y-75490738D01*
X56630547Y-75490737D01*
X56558812Y-75397250D01*
X56540898Y-75373904D01*
X56540153Y-75373332D01*
X56506816Y-75347752D01*
X56482899Y-75306326D01*
X56495279Y-75260121D01*
X56500662Y-75253982D01*
X56741180Y-75013465D01*
X56785374Y-74995159D01*
X56829568Y-75013465D01*
X56847874Y-75057659D01*
X56847874Y-75061601D01*
X56867094Y-75207600D01*
X56867097Y-75207610D01*
X56923451Y-75343660D01*
X56923452Y-75343662D01*
X56923453Y-75343663D01*
X56940372Y-75365712D01*
X57013102Y-75460497D01*
X57052512Y-75490737D01*
X57129937Y-75550147D01*
X57265993Y-75606504D01*
X57265997Y-75606504D01*
X57265999Y-75606505D01*
X57411998Y-75625726D01*
X57412000Y-75625726D01*
X57412002Y-75625726D01*
X57558000Y-75606505D01*
X57558000Y-75606504D01*
X57558007Y-75606504D01*
X57694063Y-75550147D01*
X57810897Y-75460497D01*
X57900547Y-75343663D01*
X57956904Y-75207607D01*
X57960012Y-75183998D01*
X57976126Y-75061601D01*
X57976126Y-75061598D01*
X57956370Y-74911532D01*
X57957733Y-74911352D01*
X57963323Y-74868846D01*
X58001269Y-74839720D01*
X58048696Y-74845957D01*
X58061648Y-74855894D01*
X60445894Y-77240140D01*
X60464200Y-77284334D01*
X60464200Y-78209747D01*
X60445894Y-78253941D01*
X60401700Y-78272247D01*
X60357506Y-78253941D01*
X60343957Y-78233665D01*
X60334050Y-78209747D01*
X60246810Y-77999130D01*
X60113596Y-77768393D01*
X59951405Y-77557018D01*
X59763012Y-77368621D01*
X59763007Y-77368617D01*
X59763004Y-77368614D01*
X59551647Y-77206431D01*
X59551637Y-77206424D01*
X59320910Y-77073209D01*
X59320901Y-77073205D01*
X59074758Y-76971245D01*
X59074754Y-76971244D01*
X59074752Y-76971243D01*
X58817409Y-76902284D01*
X58553259Y-76867503D01*
X58553249Y-76867502D01*
X58490071Y-76867501D01*
X58490049Y-76867500D01*
X58486975Y-76867500D01*
X58420040Y-76867500D01*
X58353095Y-76867499D01*
X58353094Y-76867499D01*
X58349271Y-76867499D01*
X58349255Y-76867500D01*
X51970628Y-76867500D01*
X51970599Y-76867498D01*
X51966260Y-76867498D01*
X51961994Y-76867498D01*
X51903081Y-76867499D01*
X51895577Y-76867047D01*
X51785819Y-76853774D01*
X51771241Y-76850195D01*
X51671360Y-76812475D01*
X51658056Y-76805525D01*
X51570050Y-76745080D01*
X51558787Y-76735157D01*
X51487731Y-76655471D01*
X51479159Y-76643149D01*
X51429152Y-76548821D01*
X51423765Y-76534811D01*
X51403730Y-76455260D01*
X51397690Y-76431276D01*
X51395799Y-76416398D01*
X51395140Y-76306100D01*
X51395604Y-76298141D01*
X52716666Y-65538950D01*
X54503200Y-65538950D01*
X54503200Y-65686649D01*
X54532013Y-65831507D01*
X54532014Y-65831510D01*
X54588534Y-65967961D01*
X54588537Y-65967966D01*
X54654134Y-66066139D01*
X54670592Y-66090770D01*
X54775030Y-66195208D01*
X54897836Y-66277264D01*
X55034291Y-66333786D01*
X55179151Y-66362600D01*
X55326849Y-66362600D01*
X55399254Y-66348198D01*
X57330474Y-66348198D01*
X57330474Y-66348201D01*
X57349694Y-66494200D01*
X57349697Y-66494210D01*
X57406051Y-66630260D01*
X57495702Y-66747097D01*
X57559501Y-66796051D01*
X57612537Y-66836747D01*
X57748593Y-66893104D01*
X57748597Y-66893104D01*
X57748599Y-66893105D01*
X57894598Y-66912326D01*
X57894600Y-66912326D01*
X57894602Y-66912326D01*
X58040600Y-66893105D01*
X58040600Y-66893104D01*
X58040607Y-66893104D01*
X58176663Y-66836747D01*
X58293497Y-66747097D01*
X58383147Y-66630263D01*
X58439504Y-66494207D01*
X58458726Y-66348200D01*
X58456828Y-66333786D01*
X58439505Y-66202199D01*
X58439504Y-66202197D01*
X58439504Y-66202193D01*
X58401932Y-66111489D01*
X58383148Y-66066139D01*
X58383147Y-66066138D01*
X58383147Y-66066137D01*
X58307818Y-65967966D01*
X58293497Y-65949302D01*
X58176660Y-65859651D01*
X58040610Y-65803297D01*
X58040600Y-65803294D01*
X57894602Y-65784074D01*
X57894598Y-65784074D01*
X57748599Y-65803294D01*
X57748589Y-65803297D01*
X57612539Y-65859651D01*
X57495702Y-65949302D01*
X57406051Y-66066139D01*
X57349697Y-66202189D01*
X57349694Y-66202199D01*
X57330474Y-66348198D01*
X55399254Y-66348198D01*
X55471709Y-66333786D01*
X55608164Y-66277264D01*
X55730970Y-66195208D01*
X55835408Y-66090770D01*
X55917464Y-65967964D01*
X55973986Y-65831509D01*
X56002800Y-65686649D01*
X56002800Y-65538951D01*
X55973986Y-65394091D01*
X55917464Y-65257636D01*
X55835408Y-65134830D01*
X55792941Y-65092363D01*
X55774635Y-65048169D01*
X55792941Y-65003975D01*
X55813217Y-64990427D01*
X55860676Y-64970767D01*
X55890663Y-64958347D01*
X56007497Y-64868697D01*
X56097147Y-64751863D01*
X56153504Y-64615807D01*
X56156962Y-64589539D01*
X56172726Y-64469801D01*
X56172726Y-64469798D01*
X56158745Y-64363598D01*
X57779674Y-64363598D01*
X57779674Y-64363601D01*
X57798894Y-64509600D01*
X57798897Y-64509610D01*
X57855251Y-64645660D01*
X57944902Y-64762497D01*
X58013760Y-64815333D01*
X58061737Y-64852147D01*
X58061738Y-64852147D01*
X58061739Y-64852148D01*
X58101692Y-64868697D01*
X58197793Y-64908504D01*
X58197799Y-64908504D01*
X58197800Y-64908505D01*
X58212670Y-64910462D01*
X58298351Y-64921742D01*
X58339777Y-64945659D01*
X58352158Y-64975549D01*
X58357694Y-65017603D01*
X58357695Y-65017606D01*
X58414051Y-65153660D01*
X58503702Y-65270497D01*
X58572560Y-65323333D01*
X58620537Y-65360147D01*
X58756593Y-65416504D01*
X58756597Y-65416504D01*
X58756599Y-65416505D01*
X58902598Y-65435726D01*
X58902600Y-65435726D01*
X58902602Y-65435726D01*
X59048600Y-65416505D01*
X59048600Y-65416504D01*
X59048607Y-65416504D01*
X59184663Y-65360147D01*
X59301497Y-65270497D01*
X59391147Y-65153663D01*
X59447504Y-65017607D01*
X59455306Y-64958347D01*
X59466726Y-64871601D01*
X59466726Y-64871598D01*
X59447505Y-64725599D01*
X59447504Y-64725597D01*
X59447504Y-64725593D01*
X59391147Y-64589537D01*
X59329817Y-64509610D01*
X59301497Y-64472702D01*
X59184660Y-64383051D01*
X59048610Y-64326697D01*
X59048608Y-64326696D01*
X59048607Y-64326696D01*
X59048605Y-64326695D01*
X59048599Y-64326694D01*
X58948048Y-64313456D01*
X58906621Y-64289538D01*
X58894241Y-64259648D01*
X58888705Y-64217600D01*
X58888704Y-64217599D01*
X58888704Y-64217593D01*
X58832347Y-64081537D01*
X58795533Y-64033560D01*
X58742697Y-63964702D01*
X58625860Y-63875051D01*
X58489810Y-63818697D01*
X58489800Y-63818694D01*
X58343802Y-63799474D01*
X58343798Y-63799474D01*
X58197799Y-63818694D01*
X58197789Y-63818697D01*
X58061739Y-63875051D01*
X57944902Y-63964702D01*
X57855251Y-64081539D01*
X57798897Y-64217589D01*
X57798894Y-64217599D01*
X57779674Y-64363598D01*
X56158745Y-64363598D01*
X56153505Y-64323799D01*
X56153504Y-64323797D01*
X56153504Y-64323793D01*
X56097147Y-64187737D01*
X56060333Y-64139760D01*
X56007497Y-64070902D01*
X55890660Y-63981251D01*
X55754610Y-63924897D01*
X55754600Y-63924894D01*
X55608602Y-63905674D01*
X55608598Y-63905674D01*
X55462599Y-63924894D01*
X55462589Y-63924897D01*
X55326539Y-63981251D01*
X55209702Y-64070902D01*
X55120051Y-64187739D01*
X55063697Y-64323789D01*
X55063694Y-64323799D01*
X55044474Y-64469798D01*
X55044474Y-64469801D01*
X55063694Y-64615800D01*
X55063697Y-64615810D01*
X55120051Y-64751861D01*
X55140678Y-64778742D01*
X55153059Y-64824948D01*
X55129142Y-64866374D01*
X55103288Y-64878089D01*
X55034291Y-64891814D01*
X55034289Y-64891814D01*
X54897838Y-64948334D01*
X54897833Y-64948337D01*
X54775030Y-65030391D01*
X54670591Y-65134830D01*
X54588537Y-65257633D01*
X54588534Y-65257638D01*
X54532014Y-65394089D01*
X54532013Y-65394092D01*
X54503200Y-65538950D01*
X52716666Y-65538950D01*
X53272672Y-61010642D01*
X53296227Y-60969010D01*
X53342323Y-60956227D01*
X53344421Y-60956521D01*
G37*
%TD.AperFunction*%
%TA.AperFunction,Conductor*%
G36*
X61477935Y-72777106D02*
G01*
X61496241Y-72821300D01*
X61492180Y-72843462D01*
X61481432Y-72871801D01*
X61462832Y-73024996D01*
X61462832Y-73025003D01*
X61481432Y-73178196D01*
X61481433Y-73178200D01*
X61481434Y-73178202D01*
X61535339Y-73320338D01*
X61535339Y-73364661D01*
X61498140Y-73462747D01*
X61481432Y-73506803D01*
X61462832Y-73659996D01*
X61462832Y-73660003D01*
X61481432Y-73813196D01*
X61481433Y-73813200D01*
X61481434Y-73813202D01*
X61535339Y-73955338D01*
X61535339Y-73999661D01*
X61488469Y-74123246D01*
X61481432Y-74141803D01*
X61462832Y-74294996D01*
X61462832Y-74295003D01*
X61481432Y-74448196D01*
X61481433Y-74448200D01*
X61481434Y-74448202D01*
X61499614Y-74496138D01*
X61536160Y-74592504D01*
X61623824Y-74719507D01*
X61623828Y-74719511D01*
X61689778Y-74777937D01*
X61739343Y-74821848D01*
X61875991Y-74893566D01*
X61875992Y-74893566D01*
X61875993Y-74893567D01*
X62025836Y-74930500D01*
X62180164Y-74930500D01*
X62330007Y-74893567D01*
X62391455Y-74861315D01*
X62439093Y-74856987D01*
X62449539Y-74861313D01*
X62510993Y-74893567D01*
X62660836Y-74930500D01*
X62815164Y-74930500D01*
X62965007Y-74893567D01*
X63101657Y-74821848D01*
X63217173Y-74719510D01*
X63283126Y-74623960D01*
X63304839Y-74592504D01*
X63304839Y-74592503D01*
X63304841Y-74592501D01*
X63359566Y-74448202D01*
X63359583Y-74448063D01*
X63378168Y-74295003D01*
X63378168Y-74294996D01*
X63359567Y-74141803D01*
X63359566Y-74141801D01*
X63359566Y-74141798D01*
X63305661Y-73999661D01*
X63305661Y-73955338D01*
X63359566Y-73813202D01*
X63359567Y-73813196D01*
X63378168Y-73660003D01*
X63378168Y-73659996D01*
X63359567Y-73506803D01*
X63359566Y-73506801D01*
X63359566Y-73506798D01*
X63305661Y-73364661D01*
X63305661Y-73320338D01*
X63359566Y-73178202D01*
X63359567Y-73178196D01*
X63378168Y-73025003D01*
X63378168Y-73024996D01*
X63359567Y-72871801D01*
X63348820Y-72843462D01*
X63350266Y-72795648D01*
X63385097Y-72762861D01*
X63407259Y-72758800D01*
X65184266Y-72758800D01*
X65228460Y-72777106D01*
X67430894Y-74979540D01*
X67449200Y-75023734D01*
X67449200Y-75339672D01*
X67436286Y-75377716D01*
X67431053Y-75384537D01*
X67431051Y-75384540D01*
X67374697Y-75520589D01*
X67374694Y-75520599D01*
X67355474Y-75666598D01*
X67355474Y-75666601D01*
X67374694Y-75812600D01*
X67374697Y-75812610D01*
X67431051Y-75948660D01*
X67520702Y-76065497D01*
X67588601Y-76117597D01*
X67637537Y-76155147D01*
X67637538Y-76155147D01*
X67637539Y-76155148D01*
X67730267Y-76193558D01*
X67764092Y-76227382D01*
X67764091Y-76275218D01*
X67730267Y-76309043D01*
X67706349Y-76313800D01*
X65067932Y-76313800D01*
X65023738Y-76295494D01*
X65005432Y-76251300D01*
X65023738Y-76207106D01*
X65029884Y-76201716D01*
X65041896Y-76192498D01*
X65067026Y-76159748D01*
X65131547Y-76075663D01*
X65187904Y-75939607D01*
X65190643Y-75918800D01*
X65207126Y-75793601D01*
X65207126Y-75793598D01*
X65187905Y-75647599D01*
X65187904Y-75647597D01*
X65187904Y-75647593D01*
X65131547Y-75511537D01*
X65092383Y-75460497D01*
X65041897Y-75394702D01*
X64940565Y-75316948D01*
X64925063Y-75305053D01*
X64925062Y-75305052D01*
X64925060Y-75305051D01*
X64789010Y-75248697D01*
X64789000Y-75248694D01*
X64643002Y-75229474D01*
X64642998Y-75229474D01*
X64496999Y-75248694D01*
X64496989Y-75248697D01*
X64360939Y-75305051D01*
X64244102Y-75394702D01*
X64154451Y-75511539D01*
X64098097Y-75647589D01*
X64098094Y-75647599D01*
X64087602Y-75727297D01*
X64063685Y-75768724D01*
X64017479Y-75781104D01*
X63879002Y-75762874D01*
X63878998Y-75762874D01*
X63732999Y-75782094D01*
X63732989Y-75782097D01*
X63596939Y-75838451D01*
X63480102Y-75928102D01*
X63390451Y-76044939D01*
X63334097Y-76180989D01*
X63334094Y-76181000D01*
X63323766Y-76259457D01*
X63299849Y-76300884D01*
X63261801Y-76313800D01*
X62831734Y-76313800D01*
X62787540Y-76295494D01*
X59572433Y-73080387D01*
X59572432Y-73080386D01*
X59518800Y-73049421D01*
X59465167Y-73018456D01*
X59465164Y-73018455D01*
X59405348Y-73002428D01*
X59393384Y-72999222D01*
X59345534Y-72986400D01*
X59345530Y-72986400D01*
X59345529Y-72986400D01*
X58398724Y-72986400D01*
X58354530Y-72968094D01*
X58336224Y-72923900D01*
X58336759Y-72915742D01*
X58349126Y-72821801D01*
X58349126Y-72821300D01*
X58349222Y-72821066D01*
X58349661Y-72817738D01*
X58350552Y-72817855D01*
X58367432Y-72777106D01*
X58411626Y-72758800D01*
X61433741Y-72758800D01*
X61477935Y-72777106D01*
G37*
%TD.AperFunction*%
%TA.AperFunction,Conductor*%
G36*
X63130873Y-70848271D02*
G01*
X63155952Y-70851573D01*
X63171704Y-70855793D01*
X63198541Y-70866908D01*
X63212670Y-70875066D01*
X63235713Y-70892747D01*
X63247247Y-70904280D01*
X63264101Y-70926245D01*
X63264102Y-70926246D01*
X63264103Y-70926247D01*
X63264925Y-70927318D01*
X63273089Y-70941456D01*
X63294754Y-70993759D01*
X63296689Y-70999104D01*
X63321802Y-71079796D01*
X63339625Y-71115877D01*
X63339646Y-71115916D01*
X63353547Y-71141064D01*
X63358907Y-71188598D01*
X63329084Y-71225999D01*
X63298848Y-71233800D01*
X62937184Y-71233800D01*
X62892990Y-71215494D01*
X62874684Y-71171300D01*
X62883056Y-71140052D01*
X62904172Y-71103481D01*
X62918306Y-71076617D01*
X62940932Y-71000230D01*
X62943109Y-70994085D01*
X62954638Y-70966253D01*
X62964909Y-70941456D01*
X62973065Y-70927329D01*
X62990750Y-70904281D01*
X63002281Y-70892750D01*
X63025329Y-70875064D01*
X63039452Y-70866910D01*
X63066295Y-70855792D01*
X63082045Y-70851573D01*
X63102836Y-70848835D01*
X63110843Y-70847782D01*
X63127156Y-70847782D01*
X63130873Y-70848271D01*
G37*
%TD.AperFunction*%
%TA.AperFunction,Conductor*%
G36*
X69353873Y-68685271D02*
G01*
X69378952Y-68688573D01*
X69394709Y-68692795D01*
X69421543Y-68703910D01*
X69435671Y-68712066D01*
X69458712Y-68729746D01*
X69470249Y-68741283D01*
X69470606Y-68741748D01*
X69470606Y-68741749D01*
X69481697Y-68756203D01*
X69487929Y-68764325D01*
X69496086Y-68778453D01*
X69507204Y-68805293D01*
X69511427Y-68821055D01*
X69515216Y-68849837D01*
X69515216Y-68866151D01*
X69511425Y-68894951D01*
X69507202Y-68910712D01*
X69496088Y-68937543D01*
X69487931Y-68951673D01*
X69470251Y-68974714D01*
X69458715Y-68986250D01*
X69436755Y-69003101D01*
X69435673Y-69003931D01*
X69421543Y-69012088D01*
X69394707Y-69023204D01*
X69378946Y-69027427D01*
X69350156Y-69031217D01*
X69333841Y-69031217D01*
X69329773Y-69030681D01*
X69305050Y-69027426D01*
X69289293Y-69023204D01*
X69272113Y-69016088D01*
X69262455Y-69012087D01*
X69248317Y-69003924D01*
X69247237Y-69003095D01*
X69247237Y-69003094D01*
X69225286Y-68986250D01*
X69213753Y-68974717D01*
X69204775Y-68963018D01*
X69204763Y-68963004D01*
X69204755Y-68962993D01*
X69189104Y-68945146D01*
X69171430Y-68924992D01*
X69171427Y-68924989D01*
X69171426Y-68924988D01*
X69171419Y-68924980D01*
X69159881Y-68913442D01*
X69148473Y-68904204D01*
X69125647Y-68862165D01*
X69139233Y-68816300D01*
X69144770Y-68810309D01*
X69203677Y-68754409D01*
X69213745Y-68741286D01*
X69225277Y-68729753D01*
X69248335Y-68712060D01*
X69262450Y-68703911D01*
X69289290Y-68692794D01*
X69305045Y-68688573D01*
X69333841Y-68684782D01*
X69350156Y-68684782D01*
X69353873Y-68685271D01*
G37*
%TD.AperFunction*%
%TA.AperFunction,Conductor*%
G36*
X70648954Y-61552573D02*
G01*
X70664704Y-61556793D01*
X70691541Y-61567908D01*
X70705670Y-61576066D01*
X70728713Y-61593747D01*
X70740250Y-61605284D01*
X70757101Y-61627245D01*
X70757924Y-61628317D01*
X70766089Y-61642457D01*
X70777204Y-61669293D01*
X70781426Y-61685051D01*
X70785216Y-61713839D01*
X70785217Y-61730153D01*
X70781425Y-61758951D01*
X70777204Y-61774707D01*
X70764997Y-61804178D01*
X70754494Y-61832646D01*
X70754493Y-61832649D01*
X70735578Y-61952073D01*
X70735577Y-61952083D01*
X70735577Y-61952085D01*
X70735577Y-61999917D01*
X70736371Y-62020137D01*
X70736769Y-62030251D01*
X70764997Y-62147822D01*
X70764999Y-62147827D01*
X70765000Y-62147830D01*
X70777203Y-62177290D01*
X70781425Y-62193047D01*
X70785216Y-62221841D01*
X70785216Y-62238157D01*
X70781425Y-62266952D01*
X70777202Y-62282712D01*
X70766088Y-62309543D01*
X70757931Y-62323673D01*
X70740251Y-62346714D01*
X70728715Y-62358250D01*
X70706755Y-62375101D01*
X70705673Y-62375931D01*
X70691543Y-62384088D01*
X70664707Y-62395204D01*
X70648946Y-62399427D01*
X70620156Y-62403217D01*
X70603842Y-62403217D01*
X70575050Y-62399427D01*
X70559292Y-62395205D01*
X70532456Y-62384089D01*
X70529818Y-62382996D01*
X70501353Y-62372495D01*
X70501343Y-62372492D01*
X70381925Y-62353578D01*
X70381915Y-62353577D01*
X70381914Y-62353577D01*
X70334082Y-62353577D01*
X70313860Y-62354371D01*
X70303747Y-62354769D01*
X70186167Y-62383001D01*
X70186164Y-62383002D01*
X70156707Y-62395204D01*
X70140946Y-62399427D01*
X70112156Y-62403217D01*
X70095841Y-62403217D01*
X70091773Y-62402681D01*
X70067050Y-62399426D01*
X70051293Y-62395204D01*
X70034113Y-62388088D01*
X70024455Y-62384087D01*
X70010317Y-62375924D01*
X70009245Y-62375101D01*
X69987279Y-62358246D01*
X69975746Y-62346712D01*
X69958067Y-62323672D01*
X69949910Y-62309543D01*
X69938795Y-62282709D01*
X69934573Y-62266952D01*
X69930781Y-62238149D01*
X69930781Y-62221847D01*
X69934572Y-62193043D01*
X69938795Y-62177288D01*
X69950997Y-62147832D01*
X69950998Y-62147830D01*
X69951001Y-62147823D01*
X69961504Y-62119352D01*
X69980421Y-61999917D01*
X69980421Y-61952083D01*
X69979229Y-61921756D01*
X69951000Y-61804174D01*
X69938794Y-61774707D01*
X69934572Y-61758947D01*
X69930782Y-61730154D01*
X69930782Y-61713841D01*
X69934572Y-61685051D01*
X69934573Y-61685043D01*
X69938793Y-61669293D01*
X69949910Y-61642452D01*
X69958064Y-61628329D01*
X69975750Y-61605281D01*
X69987281Y-61593750D01*
X70010329Y-61576064D01*
X70024452Y-61567910D01*
X70051295Y-61556792D01*
X70067045Y-61552573D01*
X70087836Y-61549835D01*
X70095843Y-61548782D01*
X70112156Y-61548782D01*
X70120118Y-61549830D01*
X70140950Y-61552572D01*
X70156709Y-61556795D01*
X70186174Y-61569000D01*
X70214648Y-61579504D01*
X70214651Y-61579504D01*
X70214653Y-61579505D01*
X70295477Y-61592306D01*
X70334083Y-61598421D01*
X70334085Y-61598421D01*
X70381912Y-61598421D01*
X70381917Y-61598421D01*
X70412240Y-61597230D01*
X70529823Y-61569001D01*
X70559292Y-61556793D01*
X70575043Y-61552572D01*
X70603848Y-61548781D01*
X70620149Y-61548781D01*
X70648954Y-61552573D01*
G37*
%TD.AperFunction*%
%TA.AperFunction,Conductor*%
G36*
X59778073Y-58044071D02*
G01*
X59803152Y-58047373D01*
X59818904Y-58051593D01*
X59845741Y-58062708D01*
X59859870Y-58070866D01*
X59882913Y-58088547D01*
X59894447Y-58100080D01*
X59896181Y-58102340D01*
X59908564Y-58148544D01*
X59884648Y-58189971D01*
X59790898Y-58261909D01*
X59773699Y-58275106D01*
X59732998Y-58328148D01*
X59691571Y-58352065D01*
X59645366Y-58339684D01*
X59633827Y-58328144D01*
X59620264Y-58310466D01*
X59612109Y-58296340D01*
X59600996Y-58269511D01*
X59596773Y-58253751D01*
X59592982Y-58224957D01*
X59592982Y-58208643D01*
X59594035Y-58200636D01*
X59596773Y-58179845D01*
X59600992Y-58164095D01*
X59612110Y-58137252D01*
X59620264Y-58123129D01*
X59637950Y-58100081D01*
X59649481Y-58088550D01*
X59672529Y-58070864D01*
X59686652Y-58062710D01*
X59713495Y-58051592D01*
X59729245Y-58047373D01*
X59750036Y-58044635D01*
X59758043Y-58043582D01*
X59774356Y-58043582D01*
X59778073Y-58044071D01*
G37*
%TD.AperFunction*%
%TA.AperFunction,Conductor*%
G36*
X63537605Y-56394816D02*
G01*
X63581574Y-56405653D01*
X63595661Y-56410996D01*
X63635768Y-56432045D01*
X63648169Y-56440604D01*
X63682070Y-56470638D01*
X63692059Y-56481913D01*
X63714897Y-56514999D01*
X63717785Y-56519183D01*
X63724785Y-56532521D01*
X63740849Y-56574878D01*
X63744455Y-56589507D01*
X63749914Y-56634465D01*
X63749914Y-56649534D01*
X63744454Y-56694493D01*
X63740849Y-56709120D01*
X63724788Y-56751472D01*
X63717786Y-56764813D01*
X63692063Y-56802080D01*
X63682072Y-56813357D01*
X63648162Y-56843399D01*
X63635764Y-56851956D01*
X63595664Y-56873001D01*
X63581581Y-56878343D01*
X63537601Y-56889184D01*
X63522643Y-56891000D01*
X63477356Y-56891000D01*
X63462397Y-56889183D01*
X63418418Y-56878342D01*
X63404332Y-56873000D01*
X63364232Y-56851954D01*
X63351833Y-56843396D01*
X63317928Y-56813360D01*
X63307935Y-56802080D01*
X63282213Y-56764814D01*
X63275212Y-56751474D01*
X63259147Y-56709115D01*
X63255542Y-56694490D01*
X63250083Y-56649526D01*
X63250083Y-56634471D01*
X63255542Y-56589505D01*
X63259147Y-56574881D01*
X63259149Y-56574878D01*
X63275212Y-56532523D01*
X63282213Y-56519184D01*
X63302606Y-56489639D01*
X63307938Y-56481912D01*
X63317924Y-56470641D01*
X63351834Y-56440599D01*
X63364229Y-56432045D01*
X63404333Y-56410996D01*
X63418419Y-56405655D01*
X63462397Y-56394816D01*
X63477353Y-56393000D01*
X63522648Y-56393000D01*
X63537605Y-56394816D01*
G37*
%TD.AperFunction*%
%TA.AperFunction,Conductor*%
G36*
X72163405Y-56267816D02*
G01*
X72207374Y-56278653D01*
X72221461Y-56283996D01*
X72261568Y-56305045D01*
X72273969Y-56313604D01*
X72307870Y-56343638D01*
X72317858Y-56354912D01*
X72343586Y-56392184D01*
X72350587Y-56405525D01*
X72366649Y-56447876D01*
X72370255Y-56462506D01*
X72375714Y-56507466D01*
X72375714Y-56522532D01*
X72370256Y-56567488D01*
X72366650Y-56582118D01*
X72350586Y-56624474D01*
X72343587Y-56637812D01*
X72317861Y-56675081D01*
X72307872Y-56686357D01*
X72273962Y-56716399D01*
X72261564Y-56724956D01*
X72221464Y-56746001D01*
X72207381Y-56751343D01*
X72163401Y-56762184D01*
X72148443Y-56764000D01*
X72103156Y-56764000D01*
X72088198Y-56762184D01*
X72044747Y-56751474D01*
X72044215Y-56751342D01*
X72030137Y-56746003D01*
X71990031Y-56724955D01*
X71977634Y-56716397D01*
X71943728Y-56686359D01*
X71933736Y-56675081D01*
X71908013Y-56637814D01*
X71901012Y-56624474D01*
X71884947Y-56582116D01*
X71881342Y-56567488D01*
X71875883Y-56522526D01*
X71875883Y-56507471D01*
X71881342Y-56462505D01*
X71884947Y-56447881D01*
X71887708Y-56440603D01*
X71892979Y-56426702D01*
X71901012Y-56405523D01*
X71908013Y-56392184D01*
X71920875Y-56373549D01*
X71933738Y-56354912D01*
X71943724Y-56343641D01*
X71977634Y-56313599D01*
X71990029Y-56305045D01*
X72030133Y-56283996D01*
X72044219Y-56278655D01*
X72088197Y-56267816D01*
X72103153Y-56266000D01*
X72148448Y-56266000D01*
X72163405Y-56267816D01*
G37*
%TD.AperFunction*%
%TA.AperFunction,Conductor*%
G36*
X77568605Y-56267816D02*
G01*
X77612574Y-56278653D01*
X77626661Y-56283996D01*
X77666768Y-56305045D01*
X77679169Y-56313604D01*
X77713070Y-56343638D01*
X77723058Y-56354912D01*
X77758083Y-56405653D01*
X77781931Y-56440203D01*
X77782037Y-56440357D01*
X77782045Y-56440366D01*
X77784703Y-56443153D01*
X77786703Y-56448323D01*
X77787340Y-56447792D01*
X77789671Y-56450587D01*
X77798392Y-56478540D01*
X77801962Y-56487766D01*
X77801856Y-56489639D01*
X77803919Y-56496251D01*
X77795922Y-56521653D01*
X77792541Y-56527561D01*
X77790955Y-56531745D01*
X77790936Y-56531796D01*
X77755789Y-56624471D01*
X77748787Y-56637812D01*
X77723061Y-56675081D01*
X77713072Y-56686357D01*
X77679162Y-56716399D01*
X77666764Y-56724956D01*
X77626664Y-56746001D01*
X77612581Y-56751343D01*
X77568601Y-56762184D01*
X77553643Y-56764000D01*
X77508356Y-56764000D01*
X77493398Y-56762184D01*
X77449947Y-56751474D01*
X77449415Y-56751342D01*
X77435337Y-56746003D01*
X77395231Y-56724955D01*
X77382834Y-56716397D01*
X77348928Y-56686359D01*
X77338936Y-56675081D01*
X77313213Y-56637814D01*
X77306212Y-56624474D01*
X77290147Y-56582116D01*
X77286542Y-56567488D01*
X77281083Y-56522526D01*
X77281083Y-56507471D01*
X77286542Y-56462505D01*
X77290147Y-56447881D01*
X77292908Y-56440603D01*
X77298179Y-56426702D01*
X77306212Y-56405523D01*
X77313213Y-56392184D01*
X77326075Y-56373549D01*
X77338938Y-56354912D01*
X77348924Y-56343641D01*
X77382834Y-56313599D01*
X77395229Y-56305045D01*
X77435333Y-56283996D01*
X77449419Y-56278655D01*
X77493397Y-56267816D01*
X77508353Y-56266000D01*
X77553648Y-56266000D01*
X77568605Y-56267816D01*
G37*
%TD.AperFunction*%
%TA.AperFunction,Conductor*%
G36*
X69886951Y-54446172D02*
G01*
X69902705Y-54450393D01*
X69970724Y-54478567D01*
X69976338Y-54481229D01*
X69983976Y-54485329D01*
X70053592Y-54503495D01*
X70091732Y-54532367D01*
X70100010Y-54570094D01*
X70098582Y-54584596D01*
X70098582Y-54584601D01*
X70104662Y-54646342D01*
X70090776Y-54692117D01*
X70058652Y-54712834D01*
X70053754Y-54714147D01*
X70053746Y-54714149D01*
X70053744Y-54714150D01*
X70044969Y-54716874D01*
X70024753Y-54723152D01*
X69972515Y-54751517D01*
X69966609Y-54754334D01*
X69902707Y-54780804D01*
X69886946Y-54785027D01*
X69858156Y-54788817D01*
X69841841Y-54788817D01*
X69837021Y-54788182D01*
X69813049Y-54785026D01*
X69797291Y-54780804D01*
X69764815Y-54767352D01*
X69754869Y-54762139D01*
X69747068Y-54757109D01*
X69692508Y-54727832D01*
X69692507Y-54727831D01*
X69692504Y-54727830D01*
X69692498Y-54727828D01*
X69692497Y-54727828D01*
X69641598Y-54714548D01*
X69603457Y-54685678D01*
X69595178Y-54647948D01*
X69601418Y-54584600D01*
X69600315Y-54573402D01*
X69614200Y-54527627D01*
X69641090Y-54511319D01*
X69640168Y-54508918D01*
X69645593Y-54506834D01*
X69654061Y-54503582D01*
X69660312Y-54501552D01*
X69663235Y-54500772D01*
X69663234Y-54500771D01*
X69678995Y-54496559D01*
X69684419Y-54491927D01*
X69687228Y-54490849D01*
X69699248Y-54491006D01*
X69715848Y-54484129D01*
X69715849Y-54484130D01*
X69797295Y-54450392D01*
X69813044Y-54446172D01*
X69841848Y-54442381D01*
X69858150Y-54442381D01*
X69886951Y-54446172D01*
G37*
%TD.AperFunction*%
%TD*%
%TA.AperFunction,Conductor*%
%TO.N,/Block Diagram/Payload Power Control/VOUT*%
G36*
X76725399Y-50534787D02*
G01*
X76743705Y-50578981D01*
X76743705Y-53241542D01*
X76743704Y-53241792D01*
X76743205Y-53366084D01*
X76743206Y-53366090D01*
X76778546Y-53618708D01*
X76778546Y-53618711D01*
X76833303Y-53807586D01*
X76828027Y-53855130D01*
X76790678Y-53885017D01*
X76743134Y-53879741D01*
X76736538Y-53875552D01*
X76646954Y-53810465D01*
X76476232Y-53734454D01*
X76476224Y-53734451D01*
X76293438Y-53695600D01*
X76106562Y-53695600D01*
X75923775Y-53734451D01*
X75923767Y-53734454D01*
X75775208Y-53800597D01*
X76200000Y-54225390D01*
X76241710Y-54267100D01*
X76158200Y-54267100D01*
X76077449Y-54288737D01*
X76005050Y-54330537D01*
X75945937Y-54389650D01*
X75904137Y-54462049D01*
X75882500Y-54542800D01*
X75882500Y-54626400D01*
X75904137Y-54707151D01*
X75945937Y-54779550D01*
X76005050Y-54838663D01*
X76077449Y-54880463D01*
X76158200Y-54902100D01*
X76241800Y-54902100D01*
X76322551Y-54880463D01*
X76394950Y-54838663D01*
X76454063Y-54779550D01*
X76495863Y-54707151D01*
X76517500Y-54626400D01*
X76517500Y-54542889D01*
X76982273Y-55007662D01*
X77016615Y-54948182D01*
X77016618Y-54948176D01*
X77074362Y-54770454D01*
X77093896Y-54584600D01*
X77082251Y-54473804D01*
X77095837Y-54427939D01*
X77137876Y-54405113D01*
X77183741Y-54418699D01*
X77191737Y-54426450D01*
X77242088Y-54484828D01*
X77258762Y-54504159D01*
X77451220Y-54671567D01*
X77665596Y-54809800D01*
X77897504Y-54916028D01*
X78025682Y-54953770D01*
X78062906Y-54983813D01*
X78070062Y-55006108D01*
X78214021Y-56178561D01*
X78201238Y-56224657D01*
X78159604Y-56248212D01*
X78113508Y-56235429D01*
X78100724Y-56220102D01*
X78099989Y-56220610D01*
X78010175Y-56090492D01*
X78010171Y-56090488D01*
X77894656Y-55988151D01*
X77758007Y-55916433D01*
X77758010Y-55916433D01*
X77608167Y-55879500D01*
X77608164Y-55879500D01*
X77453836Y-55879500D01*
X77453832Y-55879500D01*
X77303991Y-55916433D01*
X77167343Y-55988151D01*
X77051828Y-56090488D01*
X77051824Y-56090492D01*
X76964160Y-56217495D01*
X76909432Y-56361803D01*
X76890832Y-56514996D01*
X76890832Y-56515003D01*
X76909432Y-56668196D01*
X76964160Y-56812504D01*
X77051824Y-56939507D01*
X77051827Y-56939510D01*
X77167343Y-57041848D01*
X77303991Y-57113566D01*
X77303992Y-57113566D01*
X77303993Y-57113567D01*
X77453836Y-57150500D01*
X77608164Y-57150500D01*
X77758007Y-57113567D01*
X77894657Y-57041848D01*
X78010173Y-56939510D01*
X78097841Y-56812501D01*
X78152566Y-56668202D01*
X78152566Y-56668199D01*
X78153906Y-56664667D01*
X78155142Y-56665135D01*
X78180749Y-56630327D01*
X78228039Y-56623124D01*
X78266572Y-56651470D01*
X78275123Y-56676193D01*
X78742740Y-60484625D01*
X78729957Y-60530721D01*
X78688323Y-60554276D01*
X78680783Y-60554742D01*
X75814188Y-60558296D01*
X75805954Y-60557761D01*
X75674083Y-60540400D01*
X75674077Y-60540400D01*
X75455923Y-60540400D01*
X75455918Y-60540400D01*
X75319309Y-60558385D01*
X75311228Y-60558920D01*
X73939382Y-60560620D01*
X73936243Y-61845148D01*
X73934115Y-61861166D01*
X73929276Y-61879230D01*
X73929274Y-61879241D01*
X73900800Y-62095518D01*
X73900800Y-62313681D01*
X73929274Y-62529958D01*
X73929275Y-62529965D01*
X73932374Y-62541533D01*
X73934502Y-62557858D01*
X73914152Y-70887338D01*
X73895738Y-70931487D01*
X73851734Y-70949685D01*
X63730378Y-70962964D01*
X63686160Y-70944716D01*
X63668331Y-70908622D01*
X63663904Y-70874993D01*
X63612338Y-70750504D01*
X63607548Y-70738939D01*
X63607547Y-70738938D01*
X63607547Y-70738937D01*
X63570733Y-70690960D01*
X63517897Y-70622102D01*
X63401060Y-70532451D01*
X63265010Y-70476097D01*
X63265000Y-70476094D01*
X63119002Y-70456874D01*
X63118998Y-70456874D01*
X62972999Y-70476094D01*
X62972989Y-70476097D01*
X62836939Y-70532451D01*
X62720102Y-70622102D01*
X62630451Y-70738939D01*
X62574095Y-70874993D01*
X62574094Y-70874996D01*
X62569456Y-70910227D01*
X62545538Y-70951653D01*
X62507573Y-70964568D01*
X60260582Y-70967517D01*
X60216364Y-70949269D01*
X60198000Y-70905099D01*
X60198000Y-70205598D01*
X61234074Y-70205598D01*
X61234074Y-70205601D01*
X61253294Y-70351600D01*
X61253297Y-70351610D01*
X61309651Y-70487660D01*
X61399302Y-70604497D01*
X61468160Y-70657333D01*
X61516137Y-70694147D01*
X61652193Y-70750504D01*
X61652197Y-70750504D01*
X61652199Y-70750505D01*
X61798198Y-70769726D01*
X61798200Y-70769726D01*
X61798202Y-70769726D01*
X61944200Y-70750505D01*
X61944200Y-70750504D01*
X61944207Y-70750504D01*
X62080263Y-70694147D01*
X62197097Y-70604497D01*
X62286747Y-70487663D01*
X62343104Y-70351607D01*
X62362326Y-70205600D01*
X62343104Y-70059593D01*
X62286747Y-69923537D01*
X62249933Y-69875560D01*
X62197097Y-69806702D01*
X62080260Y-69717051D01*
X61944210Y-69660697D01*
X61944200Y-69660694D01*
X61798202Y-69641474D01*
X61798198Y-69641474D01*
X61652199Y-69660694D01*
X61652189Y-69660697D01*
X61516139Y-69717051D01*
X61399302Y-69806702D01*
X61309651Y-69923539D01*
X61253297Y-70059589D01*
X61253294Y-70059599D01*
X61234074Y-70205598D01*
X60198000Y-70205598D01*
X60198000Y-68351398D01*
X66060074Y-68351398D01*
X66060074Y-68351401D01*
X66079294Y-68497400D01*
X66079297Y-68497410D01*
X66135651Y-68633460D01*
X66225302Y-68750297D01*
X66275124Y-68788526D01*
X66342137Y-68839947D01*
X66478193Y-68896304D01*
X66478197Y-68896304D01*
X66478199Y-68896305D01*
X66624198Y-68915526D01*
X66624200Y-68915526D01*
X66624202Y-68915526D01*
X66770200Y-68896305D01*
X66770200Y-68896304D01*
X66770207Y-68896304D01*
X66859305Y-68859398D01*
X67789874Y-68859398D01*
X67789874Y-68859401D01*
X67809094Y-69005400D01*
X67809097Y-69005410D01*
X67865451Y-69141460D01*
X67955102Y-69258297D01*
X68023960Y-69311133D01*
X68071937Y-69347947D01*
X68207993Y-69404304D01*
X68207997Y-69404304D01*
X68207999Y-69404305D01*
X68353998Y-69423526D01*
X68354000Y-69423526D01*
X68354002Y-69423526D01*
X68500000Y-69404305D01*
X68500000Y-69404304D01*
X68500007Y-69404304D01*
X68636063Y-69347947D01*
X68752897Y-69258297D01*
X68798952Y-69198276D01*
X68840379Y-69174359D01*
X68886584Y-69186739D01*
X68898122Y-69198277D01*
X68943102Y-69256897D01*
X69011960Y-69309733D01*
X69059937Y-69346547D01*
X69059938Y-69346547D01*
X69059939Y-69346548D01*
X69063319Y-69347948D01*
X69195993Y-69402904D01*
X69195997Y-69402904D01*
X69195999Y-69402905D01*
X69341998Y-69422126D01*
X69342000Y-69422126D01*
X69342002Y-69422126D01*
X69488000Y-69402905D01*
X69488000Y-69402904D01*
X69488007Y-69402904D01*
X69624063Y-69346547D01*
X69740897Y-69256897D01*
X69830547Y-69140063D01*
X69886904Y-69004007D01*
X69901083Y-68896304D01*
X69906126Y-68858001D01*
X69906126Y-68857998D01*
X69886905Y-68711999D01*
X69886904Y-68711997D01*
X69886904Y-68711993D01*
X69830547Y-68575937D01*
X69777238Y-68506463D01*
X69740897Y-68459102D01*
X69651159Y-68390244D01*
X69624063Y-68369453D01*
X69624062Y-68369452D01*
X69624060Y-68369451D01*
X69488010Y-68313097D01*
X69488000Y-68313094D01*
X69342002Y-68293874D01*
X69341998Y-68293874D01*
X69195999Y-68313094D01*
X69195989Y-68313097D01*
X69059939Y-68369451D01*
X68943101Y-68459103D01*
X68897046Y-68519123D01*
X68855619Y-68543040D01*
X68809414Y-68530659D01*
X68797877Y-68519122D01*
X68752897Y-68460502D01*
X68636060Y-68370851D01*
X68500010Y-68314497D01*
X68500000Y-68314494D01*
X68354002Y-68295274D01*
X68353998Y-68295274D01*
X68207999Y-68314494D01*
X68207989Y-68314497D01*
X68071939Y-68370851D01*
X67955102Y-68460502D01*
X67865451Y-68577339D01*
X67809097Y-68713389D01*
X67809094Y-68713399D01*
X67789874Y-68859398D01*
X66859305Y-68859398D01*
X66906263Y-68839947D01*
X67023097Y-68750297D01*
X67112747Y-68633463D01*
X67169104Y-68497407D01*
X67169105Y-68497400D01*
X67188326Y-68351401D01*
X67188326Y-68351398D01*
X67169105Y-68205399D01*
X67169104Y-68205397D01*
X67169104Y-68205393D01*
X67112747Y-68069337D01*
X67075933Y-68021360D01*
X67023097Y-67952502D01*
X66906260Y-67862851D01*
X66770210Y-67806497D01*
X66770200Y-67806494D01*
X66624202Y-67787274D01*
X66624198Y-67787274D01*
X66478199Y-67806494D01*
X66478189Y-67806497D01*
X66342139Y-67862851D01*
X66225302Y-67952502D01*
X66135651Y-68069339D01*
X66079297Y-68205389D01*
X66079294Y-68205399D01*
X66060074Y-68351398D01*
X60198000Y-68351398D01*
X60198000Y-67180998D01*
X70809874Y-67180998D01*
X70809874Y-67181001D01*
X70829094Y-67327000D01*
X70829097Y-67327010D01*
X70885451Y-67463060D01*
X70885452Y-67463062D01*
X70885453Y-67463063D01*
X70975103Y-67579897D01*
X71070523Y-67653115D01*
X71094440Y-67694542D01*
X71082060Y-67740748D01*
X71070524Y-67752283D01*
X71043335Y-67773147D01*
X70975101Y-67825504D01*
X70885451Y-67942339D01*
X70829097Y-68078389D01*
X70829094Y-68078399D01*
X70809874Y-68224398D01*
X70809874Y-68224401D01*
X70829094Y-68370400D01*
X70829097Y-68370410D01*
X70885451Y-68506460D01*
X70885452Y-68506462D01*
X70885453Y-68506463D01*
X70904019Y-68530659D01*
X70975102Y-68623297D01*
X71043960Y-68676133D01*
X71091937Y-68712947D01*
X71091938Y-68712947D01*
X71091939Y-68712948D01*
X71093028Y-68713399D01*
X71227993Y-68769304D01*
X71227997Y-68769304D01*
X71227999Y-68769305D01*
X71373998Y-68788526D01*
X71374000Y-68788526D01*
X71374002Y-68788526D01*
X71520000Y-68769305D01*
X71520000Y-68769304D01*
X71520007Y-68769304D01*
X71656063Y-68712947D01*
X71772897Y-68623297D01*
X71862547Y-68506463D01*
X71918904Y-68370407D01*
X71938126Y-68224400D01*
X71935624Y-68205399D01*
X71918905Y-68078399D01*
X71918904Y-68078397D01*
X71918904Y-68078393D01*
X71862547Y-67942337D01*
X71801557Y-67862853D01*
X71772897Y-67825502D01*
X71704665Y-67773147D01*
X71677476Y-67752284D01*
X71653559Y-67710858D01*
X71665939Y-67664653D01*
X71677475Y-67653116D01*
X71772897Y-67579897D01*
X71862547Y-67463063D01*
X71918904Y-67327007D01*
X71938126Y-67181000D01*
X71918904Y-67034993D01*
X71862547Y-66898937D01*
X71793803Y-66809348D01*
X71772897Y-66782102D01*
X71656060Y-66692451D01*
X71520010Y-66636097D01*
X71520000Y-66636094D01*
X71374002Y-66616874D01*
X71373998Y-66616874D01*
X71227999Y-66636094D01*
X71227989Y-66636097D01*
X71091939Y-66692451D01*
X70975102Y-66782102D01*
X70885451Y-66898939D01*
X70829097Y-67034989D01*
X70829094Y-67034999D01*
X70809874Y-67180998D01*
X60198000Y-67180998D01*
X60198000Y-63499994D01*
X62605463Y-63499994D01*
X62605463Y-63500005D01*
X62625595Y-63871333D01*
X62685761Y-64238327D01*
X62785249Y-64596651D01*
X62785251Y-64596656D01*
X62847091Y-64751863D01*
X62913299Y-64918032D01*
X62922902Y-64942132D01*
X62922906Y-64942140D01*
X63097094Y-65270693D01*
X63097101Y-65270704D01*
X63305782Y-65578483D01*
X63305785Y-65578488D01*
X63544608Y-65859653D01*
X63546542Y-65861929D01*
X63762121Y-66066137D01*
X63816527Y-66117673D01*
X64112581Y-66342728D01*
X64145609Y-66362600D01*
X64431234Y-66534455D01*
X64768747Y-66690605D01*
X64768758Y-66690608D01*
X64768761Y-66690610D01*
X65081706Y-66796053D01*
X65121164Y-66809348D01*
X65484354Y-66889292D01*
X65854058Y-66929500D01*
X65854062Y-66929500D01*
X66225938Y-66929500D01*
X66225942Y-66929500D01*
X66595646Y-66889292D01*
X66958836Y-66809348D01*
X67311253Y-66690605D01*
X67648766Y-66534455D01*
X67967418Y-66342728D01*
X68263472Y-66117674D01*
X68533458Y-65861929D01*
X68774211Y-65578493D01*
X68982908Y-65270689D01*
X69157101Y-64942125D01*
X69294750Y-64596653D01*
X69394239Y-64238324D01*
X69454404Y-63871339D01*
X69474537Y-63500000D01*
X69454404Y-63128661D01*
X69394239Y-62761676D01*
X69388411Y-62740687D01*
X69352654Y-62611900D01*
X69294750Y-62403347D01*
X69157101Y-62057875D01*
X69126374Y-61999918D01*
X68982905Y-61729306D01*
X68982898Y-61729295D01*
X68977950Y-61721998D01*
X69539874Y-61721998D01*
X69539874Y-61722001D01*
X69559094Y-61868000D01*
X69559095Y-61868005D01*
X69559096Y-61868007D01*
X69579555Y-61917401D01*
X69593921Y-61952083D01*
X69593921Y-61999917D01*
X69559096Y-62083993D01*
X69559094Y-62083999D01*
X69539874Y-62229998D01*
X69539874Y-62230001D01*
X69559094Y-62376000D01*
X69559097Y-62376010D01*
X69615451Y-62512060D01*
X69615452Y-62512062D01*
X69615453Y-62512063D01*
X69636244Y-62539159D01*
X69705102Y-62628897D01*
X69773960Y-62681733D01*
X69821937Y-62718547D01*
X69957993Y-62774904D01*
X69957997Y-62774904D01*
X69957999Y-62774905D01*
X70103998Y-62794126D01*
X70104000Y-62794126D01*
X70104002Y-62794126D01*
X70250000Y-62774905D01*
X70250000Y-62774904D01*
X70250007Y-62774904D01*
X70334082Y-62740077D01*
X70381914Y-62740077D01*
X70465993Y-62774904D01*
X70465997Y-62774904D01*
X70465999Y-62774905D01*
X70611998Y-62794126D01*
X70612000Y-62794126D01*
X70612002Y-62794126D01*
X70758000Y-62774905D01*
X70758000Y-62774904D01*
X70758007Y-62774904D01*
X70894063Y-62718547D01*
X71010897Y-62628897D01*
X71100547Y-62512063D01*
X71156904Y-62376007D01*
X71176126Y-62230000D01*
X71156904Y-62083993D01*
X71122077Y-61999917D01*
X71122077Y-61952085D01*
X71156904Y-61868007D01*
X71159468Y-61848530D01*
X71176126Y-61722001D01*
X71176126Y-61721998D01*
X71156905Y-61575999D01*
X71156904Y-61575997D01*
X71156904Y-61575993D01*
X71100547Y-61439937D01*
X71063733Y-61391960D01*
X71010897Y-61323102D01*
X70894060Y-61233451D01*
X70758010Y-61177097D01*
X70758000Y-61177094D01*
X70612002Y-61157874D01*
X70611998Y-61157874D01*
X70465999Y-61177094D01*
X70465993Y-61177096D01*
X70381917Y-61211921D01*
X70334083Y-61211921D01*
X70299401Y-61197555D01*
X70250007Y-61177096D01*
X70250005Y-61177095D01*
X70250000Y-61177094D01*
X70104002Y-61157874D01*
X70103998Y-61157874D01*
X69957999Y-61177094D01*
X69957989Y-61177097D01*
X69821939Y-61233451D01*
X69705102Y-61323102D01*
X69615451Y-61439939D01*
X69559097Y-61575989D01*
X69559094Y-61575999D01*
X69539874Y-61721998D01*
X68977950Y-61721998D01*
X68774217Y-61421516D01*
X68774214Y-61421511D01*
X68533465Y-61138079D01*
X68533463Y-61138077D01*
X68533458Y-61138071D01*
X68263472Y-60882326D01*
X68178720Y-60817899D01*
X67967418Y-60657271D01*
X67827932Y-60573346D01*
X67648766Y-60465545D01*
X67311253Y-60309395D01*
X67311245Y-60309392D01*
X67311238Y-60309389D01*
X66958847Y-60190655D01*
X66958836Y-60190652D01*
X66595644Y-60110707D01*
X66225945Y-60070500D01*
X66225942Y-60070500D01*
X65854058Y-60070500D01*
X65854054Y-60070500D01*
X65484355Y-60110707D01*
X65121163Y-60190652D01*
X65121152Y-60190655D01*
X64768761Y-60309389D01*
X64768750Y-60309393D01*
X64768747Y-60309395D01*
X64561226Y-60405404D01*
X64431242Y-60465541D01*
X64431239Y-60465542D01*
X64431234Y-60465545D01*
X64360416Y-60508155D01*
X64112581Y-60657271D01*
X63816527Y-60882326D01*
X63546545Y-61138068D01*
X63546534Y-61138079D01*
X63305785Y-61421511D01*
X63305782Y-61421516D01*
X63097101Y-61729295D01*
X63097094Y-61729306D01*
X62922906Y-62057859D01*
X62922902Y-62057867D01*
X62785251Y-62403343D01*
X62785249Y-62403348D01*
X62685761Y-62761672D01*
X62625595Y-63128666D01*
X62605463Y-63499994D01*
X60198000Y-63499994D01*
X60198000Y-60571380D01*
X56870591Y-60574751D01*
X56854356Y-60572623D01*
X56844814Y-60570066D01*
X56840366Y-60568875D01*
X56820506Y-60566260D01*
X56624081Y-60540400D01*
X56624077Y-60540400D01*
X56405923Y-60540400D01*
X56405918Y-60540400D01*
X56189641Y-60568874D01*
X56189639Y-60568874D01*
X56189634Y-60568875D01*
X56189631Y-60568875D01*
X56189624Y-60568877D01*
X56172944Y-60573346D01*
X56156834Y-60575475D01*
X53396467Y-60578272D01*
X53352255Y-60560011D01*
X53333904Y-60515835D01*
X53334370Y-60508155D01*
X53339602Y-60465545D01*
X53634426Y-58064398D01*
X57119274Y-58064398D01*
X57119274Y-58064401D01*
X57138494Y-58210400D01*
X57138497Y-58210410D01*
X57194851Y-58346460D01*
X57284502Y-58463297D01*
X57330853Y-58498863D01*
X57401337Y-58552947D01*
X57537393Y-58609304D01*
X57537397Y-58609304D01*
X57537399Y-58609305D01*
X57683398Y-58628526D01*
X57683400Y-58628526D01*
X57683402Y-58628526D01*
X57829400Y-58609305D01*
X57829400Y-58609304D01*
X57829407Y-58609304D01*
X57965463Y-58552947D01*
X58082297Y-58463297D01*
X58171947Y-58346463D01*
X58225657Y-58216798D01*
X59202074Y-58216798D01*
X59202074Y-58216801D01*
X59221294Y-58362800D01*
X59221297Y-58362810D01*
X59277651Y-58498860D01*
X59277652Y-58498862D01*
X59277653Y-58498863D01*
X59295098Y-58521598D01*
X59367302Y-58615697D01*
X59418393Y-58654900D01*
X59484137Y-58705347D01*
X59586673Y-58747819D01*
X59620496Y-58781643D01*
X59624719Y-58797402D01*
X59627694Y-58820004D01*
X59627695Y-58820006D01*
X59684051Y-58956060D01*
X59773702Y-59072897D01*
X59842560Y-59125733D01*
X59890537Y-59162547D01*
X60026593Y-59218904D01*
X60026597Y-59218904D01*
X60026599Y-59218905D01*
X60172598Y-59238126D01*
X60172600Y-59238126D01*
X60172602Y-59238126D01*
X60318600Y-59218905D01*
X60318600Y-59218904D01*
X60318607Y-59218904D01*
X60454663Y-59162547D01*
X60571497Y-59072897D01*
X60661147Y-58956063D01*
X60717504Y-58820007D01*
X60727008Y-58747818D01*
X60736726Y-58674001D01*
X60736726Y-58673998D01*
X60726694Y-58597798D01*
X61030874Y-58597798D01*
X61030874Y-58597801D01*
X61050094Y-58743800D01*
X61050097Y-58743810D01*
X61106451Y-58879860D01*
X61196102Y-58996697D01*
X61264960Y-59049533D01*
X61312937Y-59086347D01*
X61448993Y-59142704D01*
X61448997Y-59142704D01*
X61448999Y-59142705D01*
X61594998Y-59161926D01*
X61595000Y-59161926D01*
X61595002Y-59161926D01*
X61741000Y-59142705D01*
X61741000Y-59142704D01*
X61741007Y-59142704D01*
X61877063Y-59086347D01*
X61993897Y-58996697D01*
X62083547Y-58879863D01*
X62139904Y-58743807D01*
X62149291Y-58672497D01*
X62173207Y-58631072D01*
X62203097Y-58618691D01*
X62274407Y-58609304D01*
X62410463Y-58552947D01*
X62451318Y-58521598D01*
X63951874Y-58521598D01*
X63951874Y-58521601D01*
X63971094Y-58667600D01*
X63971097Y-58667610D01*
X64027451Y-58803660D01*
X64027452Y-58803662D01*
X64027453Y-58803663D01*
X64039994Y-58820007D01*
X64117102Y-58920497D01*
X64185960Y-58973333D01*
X64233937Y-59010147D01*
X64233938Y-59010147D01*
X64233939Y-59010148D01*
X64279289Y-59028932D01*
X64369993Y-59066504D01*
X64369997Y-59066504D01*
X64369999Y-59066505D01*
X64515998Y-59085726D01*
X64516000Y-59085726D01*
X64516002Y-59085726D01*
X64662000Y-59066505D01*
X64662000Y-59066504D01*
X64662007Y-59066504D01*
X64798063Y-59010147D01*
X64860879Y-58961945D01*
X64907081Y-58949566D01*
X64936971Y-58961946D01*
X64950464Y-58972299D01*
X64983237Y-58997447D01*
X64983238Y-58997447D01*
X64983239Y-58997448D01*
X65013902Y-59010149D01*
X65119293Y-59053804D01*
X65119297Y-59053804D01*
X65119299Y-59053805D01*
X65265298Y-59073026D01*
X65265300Y-59073026D01*
X65265302Y-59073026D01*
X65411300Y-59053805D01*
X65411300Y-59053804D01*
X65411307Y-59053804D01*
X65547363Y-58997447D01*
X65664197Y-58907797D01*
X65753847Y-58790963D01*
X65810204Y-58654907D01*
X65817722Y-58597800D01*
X65829426Y-58508901D01*
X65829426Y-58508898D01*
X65810205Y-58362899D01*
X65810204Y-58362897D01*
X65810204Y-58362893D01*
X65772632Y-58272189D01*
X65753848Y-58226839D01*
X65753847Y-58226838D01*
X65753847Y-58226837D01*
X65717033Y-58178860D01*
X65664197Y-58110002D01*
X65547360Y-58020351D01*
X65411310Y-57963997D01*
X65411300Y-57963994D01*
X65265302Y-57944774D01*
X65265298Y-57944774D01*
X65119299Y-57963994D01*
X65119289Y-57963997D01*
X64983240Y-58020351D01*
X64920421Y-58068552D01*
X64874215Y-58080932D01*
X64844327Y-58068552D01*
X64798060Y-58033051D01*
X64798061Y-58033051D01*
X64662010Y-57976697D01*
X64662000Y-57976694D01*
X64516002Y-57957474D01*
X64515998Y-57957474D01*
X64369999Y-57976694D01*
X64369989Y-57976697D01*
X64233939Y-58033051D01*
X64117102Y-58122702D01*
X64027451Y-58239539D01*
X63971097Y-58375589D01*
X63971094Y-58375599D01*
X63951874Y-58521598D01*
X62451318Y-58521598D01*
X62527297Y-58463297D01*
X62616947Y-58346463D01*
X62673304Y-58210407D01*
X62676589Y-58185453D01*
X62692526Y-58064401D01*
X62692526Y-58064398D01*
X62673305Y-57918399D01*
X62673304Y-57918396D01*
X62673304Y-57918393D01*
X62616947Y-57782337D01*
X62575445Y-57728251D01*
X62527297Y-57665502D01*
X62410460Y-57575851D01*
X62274410Y-57519497D01*
X62274400Y-57519494D01*
X62128402Y-57500274D01*
X62128398Y-57500274D01*
X61982399Y-57519494D01*
X61982389Y-57519497D01*
X61846339Y-57575851D01*
X61729502Y-57665502D01*
X61639851Y-57782339D01*
X61583495Y-57918393D01*
X61583494Y-57918396D01*
X61574107Y-57989700D01*
X61550189Y-58031127D01*
X61520300Y-58043507D01*
X61448996Y-58052894D01*
X61448993Y-58052895D01*
X61312939Y-58109251D01*
X61196102Y-58198902D01*
X61106451Y-58315739D01*
X61050097Y-58451789D01*
X61050094Y-58451799D01*
X61030874Y-58597798D01*
X60726694Y-58597798D01*
X60717505Y-58527999D01*
X60717504Y-58527997D01*
X60717504Y-58527993D01*
X60661147Y-58391937D01*
X60602677Y-58315737D01*
X60571497Y-58275102D01*
X60454660Y-58185451D01*
X60352126Y-58142980D01*
X60318302Y-58109156D01*
X60314080Y-58093401D01*
X60311104Y-58070793D01*
X60254747Y-57934737D01*
X60217933Y-57886760D01*
X60165097Y-57817902D01*
X60048260Y-57728251D01*
X59912210Y-57671897D01*
X59912200Y-57671894D01*
X59766202Y-57652674D01*
X59766198Y-57652674D01*
X59620199Y-57671894D01*
X59620189Y-57671897D01*
X59484139Y-57728251D01*
X59367302Y-57817902D01*
X59277651Y-57934739D01*
X59221297Y-58070789D01*
X59221294Y-58070799D01*
X59202074Y-58216798D01*
X58225657Y-58216798D01*
X58228304Y-58210407D01*
X58231589Y-58185453D01*
X58247526Y-58064401D01*
X58247526Y-58064398D01*
X58228305Y-57918399D01*
X58228304Y-57918396D01*
X58228304Y-57918393D01*
X58171947Y-57782337D01*
X58130445Y-57728251D01*
X58082297Y-57665502D01*
X57965460Y-57575851D01*
X57829410Y-57519497D01*
X57829400Y-57519494D01*
X57683402Y-57500274D01*
X57683398Y-57500274D01*
X57537399Y-57519494D01*
X57537389Y-57519497D01*
X57401339Y-57575851D01*
X57284502Y-57665502D01*
X57194851Y-57782339D01*
X57138497Y-57918389D01*
X57138494Y-57918399D01*
X57119274Y-58064398D01*
X53634426Y-58064398D01*
X53871449Y-56133998D01*
X54579274Y-56133998D01*
X54579274Y-56134001D01*
X54598494Y-56280000D01*
X54598497Y-56280010D01*
X54654851Y-56416060D01*
X54744502Y-56532897D01*
X54813360Y-56585733D01*
X54861337Y-56622547D01*
X54997393Y-56678904D01*
X54997397Y-56678904D01*
X54997399Y-56678905D01*
X55143398Y-56698126D01*
X55143400Y-56698126D01*
X55143402Y-56698126D01*
X55289400Y-56678905D01*
X55289400Y-56678904D01*
X55289407Y-56678904D01*
X55378510Y-56641996D01*
X62859832Y-56641996D01*
X62859832Y-56642003D01*
X62878432Y-56795196D01*
X62933160Y-56939504D01*
X63020824Y-57066507D01*
X63020828Y-57066511D01*
X63115631Y-57150499D01*
X63136343Y-57168848D01*
X63272991Y-57240566D01*
X63272992Y-57240566D01*
X63272993Y-57240567D01*
X63422836Y-57277500D01*
X63577164Y-57277500D01*
X63727007Y-57240567D01*
X63863657Y-57168848D01*
X63979173Y-57066510D01*
X64066841Y-56939501D01*
X64121566Y-56795202D01*
X64135687Y-56678904D01*
X64140168Y-56642003D01*
X64140168Y-56641996D01*
X64124747Y-56514996D01*
X71485632Y-56514996D01*
X71485632Y-56515003D01*
X71504232Y-56668196D01*
X71558960Y-56812504D01*
X71646624Y-56939507D01*
X71646627Y-56939510D01*
X71762143Y-57041848D01*
X71898791Y-57113566D01*
X71898792Y-57113566D01*
X71898793Y-57113567D01*
X72048636Y-57150500D01*
X72202964Y-57150500D01*
X72352807Y-57113567D01*
X72489457Y-57041848D01*
X72604973Y-56939510D01*
X72692641Y-56812501D01*
X72747366Y-56668202D01*
X72747367Y-56668196D01*
X72765968Y-56515003D01*
X72765968Y-56514996D01*
X72747367Y-56361803D01*
X72747366Y-56361801D01*
X72747366Y-56361798D01*
X72692641Y-56217499D01*
X72692639Y-56217497D01*
X72692639Y-56217495D01*
X72604975Y-56090492D01*
X72604971Y-56090488D01*
X72489456Y-55988151D01*
X72352807Y-55916433D01*
X72352810Y-55916433D01*
X72202967Y-55879500D01*
X72202964Y-55879500D01*
X72048636Y-55879500D01*
X72048632Y-55879500D01*
X71898791Y-55916433D01*
X71762143Y-55988151D01*
X71646628Y-56090488D01*
X71646624Y-56090492D01*
X71558960Y-56217495D01*
X71504232Y-56361803D01*
X71485632Y-56514996D01*
X64124747Y-56514996D01*
X64121567Y-56488803D01*
X64121566Y-56488801D01*
X64121566Y-56488798D01*
X64066841Y-56344499D01*
X64066839Y-56344497D01*
X64066839Y-56344495D01*
X63979175Y-56217492D01*
X63979171Y-56217488D01*
X63863656Y-56115151D01*
X63727007Y-56043433D01*
X63727010Y-56043433D01*
X63577167Y-56006500D01*
X63577164Y-56006500D01*
X63422836Y-56006500D01*
X63422832Y-56006500D01*
X63272991Y-56043433D01*
X63136343Y-56115151D01*
X63020828Y-56217488D01*
X63020824Y-56217492D01*
X62933160Y-56344495D01*
X62878432Y-56488803D01*
X62859832Y-56641996D01*
X55378510Y-56641996D01*
X55425463Y-56622547D01*
X55542297Y-56532897D01*
X55631947Y-56416063D01*
X55688304Y-56280007D01*
X55696534Y-56217492D01*
X55707526Y-56134001D01*
X55707526Y-56133998D01*
X55688305Y-55987999D01*
X55688304Y-55987997D01*
X55688304Y-55987993D01*
X55631947Y-55851937D01*
X55595133Y-55803960D01*
X55542297Y-55735102D01*
X55425460Y-55645451D01*
X55300864Y-55593841D01*
X55267039Y-55560016D01*
X55267040Y-55512181D01*
X55300865Y-55478356D01*
X55324782Y-55473599D01*
X55626000Y-55473599D01*
X56134000Y-55473599D01*
X56540015Y-55473599D01*
X56540018Y-55473598D01*
X56614104Y-55458863D01*
X56614108Y-55458861D01*
X56698123Y-55402723D01*
X56754261Y-55318708D01*
X56754263Y-55318704D01*
X56768999Y-55244617D01*
X56769000Y-55244617D01*
X56769000Y-54838600D01*
X56134000Y-54838600D01*
X56134000Y-55473599D01*
X55626000Y-55473599D01*
X55626000Y-54838600D01*
X54991001Y-54838600D01*
X54991001Y-55244618D01*
X55005736Y-55318704D01*
X55005738Y-55318708D01*
X55061876Y-55402723D01*
X55146203Y-55459069D01*
X55172779Y-55498843D01*
X55163447Y-55545759D01*
X55123673Y-55572335D01*
X55119638Y-55573001D01*
X54997400Y-55589094D01*
X54997389Y-55589097D01*
X54861339Y-55645451D01*
X54744502Y-55735102D01*
X54654851Y-55851939D01*
X54598497Y-55987989D01*
X54598494Y-55987999D01*
X54579274Y-56133998D01*
X53871449Y-56133998D01*
X54009934Y-55006123D01*
X54033489Y-54964491D01*
X54054354Y-54953776D01*
X54180954Y-54916601D01*
X54180960Y-54916598D01*
X54180964Y-54916597D01*
X54412374Y-54810906D01*
X54412374Y-54810905D01*
X54412378Y-54810904D01*
X54626402Y-54673347D01*
X54777044Y-54542800D01*
X55562500Y-54542800D01*
X55562500Y-54626400D01*
X55584137Y-54707151D01*
X55625937Y-54779550D01*
X55685050Y-54838663D01*
X55757449Y-54880463D01*
X55838200Y-54902100D01*
X55921800Y-54902100D01*
X56002551Y-54880463D01*
X56074950Y-54838663D01*
X56134063Y-54779550D01*
X56175863Y-54707151D01*
X56197500Y-54626400D01*
X56197500Y-54584599D01*
X57398582Y-54584599D01*
X57398582Y-54584600D01*
X57418207Y-54783867D01*
X57434811Y-54838600D01*
X57476333Y-54975480D01*
X57476334Y-54975481D01*
X57570718Y-55152063D01*
X57570726Y-55152074D01*
X57646673Y-55244617D01*
X57697748Y-55306852D01*
X57852531Y-55433878D01*
X57852534Y-55433879D01*
X57852536Y-55433881D01*
X57898482Y-55458439D01*
X58029120Y-55528267D01*
X58220731Y-55586392D01*
X58420000Y-55606018D01*
X58619269Y-55586392D01*
X58810880Y-55528267D01*
X58987469Y-55433878D01*
X59142252Y-55306852D01*
X59269278Y-55152069D01*
X59363667Y-54975480D01*
X59421792Y-54783869D01*
X59441418Y-54584600D01*
X59441418Y-54584599D01*
X59938582Y-54584599D01*
X59938582Y-54584600D01*
X59958207Y-54783867D01*
X59974811Y-54838600D01*
X60016333Y-54975480D01*
X60016334Y-54975481D01*
X60110718Y-55152063D01*
X60110726Y-55152074D01*
X60186673Y-55244617D01*
X60237748Y-55306852D01*
X60392531Y-55433878D01*
X60392534Y-55433879D01*
X60392536Y-55433881D01*
X60438482Y-55458439D01*
X60569120Y-55528267D01*
X60760731Y-55586392D01*
X60960000Y-55606018D01*
X61159269Y-55586392D01*
X61350880Y-55528267D01*
X61527469Y-55433878D01*
X61682252Y-55306852D01*
X61809278Y-55152069D01*
X61903667Y-54975480D01*
X61961792Y-54783869D01*
X61981418Y-54584600D01*
X61981418Y-54584599D01*
X62478582Y-54584599D01*
X62478582Y-54584600D01*
X62498207Y-54783867D01*
X62514811Y-54838600D01*
X62556333Y-54975480D01*
X62556334Y-54975481D01*
X62650718Y-55152063D01*
X62650726Y-55152074D01*
X62726673Y-55244617D01*
X62777748Y-55306852D01*
X62932531Y-55433878D01*
X62932534Y-55433879D01*
X62932536Y-55433881D01*
X62978482Y-55458439D01*
X63109120Y-55528267D01*
X63300731Y-55586392D01*
X63500000Y-55606018D01*
X63699269Y-55586392D01*
X63890880Y-55528267D01*
X64067469Y-55433878D01*
X64222252Y-55306852D01*
X64349278Y-55152069D01*
X64443667Y-54975480D01*
X64501792Y-54783869D01*
X64521418Y-54584600D01*
X64521418Y-54584599D01*
X65018582Y-54584599D01*
X65018582Y-54584600D01*
X65038207Y-54783867D01*
X65054811Y-54838600D01*
X65096333Y-54975480D01*
X65096334Y-54975481D01*
X65190718Y-55152063D01*
X65190726Y-55152074D01*
X65266673Y-55244617D01*
X65317748Y-55306852D01*
X65472531Y-55433878D01*
X65472534Y-55433879D01*
X65472536Y-55433881D01*
X65518482Y-55458439D01*
X65649120Y-55528267D01*
X65840731Y-55586392D01*
X66040000Y-55606018D01*
X66239269Y-55586392D01*
X66430880Y-55528267D01*
X66607469Y-55433878D01*
X66762252Y-55306852D01*
X66889278Y-55152069D01*
X66983667Y-54975480D01*
X67041792Y-54783869D01*
X67061418Y-54584600D01*
X67061418Y-54584599D01*
X67558582Y-54584599D01*
X67558582Y-54584600D01*
X67578207Y-54783867D01*
X67594811Y-54838600D01*
X67636333Y-54975480D01*
X67636334Y-54975481D01*
X67730718Y-55152063D01*
X67730726Y-55152074D01*
X67806673Y-55244617D01*
X67857748Y-55306852D01*
X68012531Y-55433878D01*
X68012534Y-55433879D01*
X68012536Y-55433881D01*
X68058482Y-55458439D01*
X68189120Y-55528267D01*
X68380731Y-55586392D01*
X68580000Y-55606018D01*
X68779269Y-55586392D01*
X68970880Y-55528267D01*
X69147469Y-55433878D01*
X69302252Y-55306852D01*
X69429278Y-55152069D01*
X69453046Y-55107600D01*
X69490022Y-55077255D01*
X69537627Y-55081942D01*
X69546213Y-55087478D01*
X69556426Y-55095314D01*
X69567937Y-55104147D01*
X69567939Y-55104148D01*
X69567938Y-55104148D01*
X69653733Y-55139685D01*
X69703993Y-55160504D01*
X69703997Y-55160504D01*
X69703999Y-55160505D01*
X69849998Y-55179726D01*
X69850000Y-55179726D01*
X69850002Y-55179726D01*
X69996000Y-55160505D01*
X69996000Y-55160504D01*
X69996007Y-55160504D01*
X70132063Y-55104147D01*
X70153785Y-55087478D01*
X70199988Y-55075097D01*
X70241416Y-55099014D01*
X70246952Y-55107600D01*
X70270720Y-55152066D01*
X70270726Y-55152074D01*
X70346673Y-55244617D01*
X70397748Y-55306852D01*
X70552531Y-55433878D01*
X70552534Y-55433879D01*
X70552536Y-55433881D01*
X70598482Y-55458439D01*
X70729120Y-55528267D01*
X70920731Y-55586392D01*
X71120000Y-55606018D01*
X71319269Y-55586392D01*
X71510880Y-55528267D01*
X71687469Y-55433878D01*
X71842252Y-55306852D01*
X71969278Y-55152069D01*
X72063667Y-54975480D01*
X72121792Y-54783869D01*
X72141418Y-54584600D01*
X72141418Y-54584599D01*
X72638582Y-54584599D01*
X72638582Y-54584600D01*
X72658207Y-54783867D01*
X72674811Y-54838600D01*
X72716333Y-54975480D01*
X72716334Y-54975481D01*
X72810718Y-55152063D01*
X72810726Y-55152074D01*
X72886673Y-55244617D01*
X72937748Y-55306852D01*
X73092531Y-55433878D01*
X73092534Y-55433879D01*
X73092536Y-55433881D01*
X73138482Y-55458439D01*
X73269120Y-55528267D01*
X73460731Y-55586392D01*
X73660000Y-55606018D01*
X73859269Y-55586392D01*
X74050880Y-55528267D01*
X74227469Y-55433878D01*
X74307010Y-55368601D01*
X75775207Y-55368601D01*
X75923767Y-55434745D01*
X75923775Y-55434748D01*
X76106562Y-55473600D01*
X76293438Y-55473600D01*
X76476224Y-55434748D01*
X76476240Y-55434742D01*
X76624791Y-55368602D01*
X76624791Y-55368601D01*
X76200000Y-54943810D01*
X75775207Y-55368601D01*
X74307010Y-55368601D01*
X74382252Y-55306852D01*
X74509278Y-55152069D01*
X74603667Y-54975480D01*
X74661792Y-54783869D01*
X74681418Y-54584600D01*
X75306103Y-54584600D01*
X75325637Y-54770454D01*
X75383381Y-54948176D01*
X75383384Y-54948182D01*
X75417726Y-55007661D01*
X75840788Y-54584599D01*
X75417726Y-54161537D01*
X75383381Y-54221024D01*
X75325637Y-54398745D01*
X75306103Y-54584600D01*
X74681418Y-54584600D01*
X74673748Y-54506729D01*
X74661792Y-54385332D01*
X74652372Y-54354278D01*
X74603667Y-54193720D01*
X74533839Y-54063082D01*
X74509281Y-54017136D01*
X74509279Y-54017133D01*
X74509278Y-54017131D01*
X74382252Y-53862348D01*
X74227469Y-53735322D01*
X74227467Y-53735320D01*
X74227463Y-53735318D01*
X74100409Y-53667407D01*
X74050880Y-53640933D01*
X73928409Y-53603781D01*
X73859267Y-53582807D01*
X73660000Y-53563182D01*
X73460732Y-53582807D01*
X73338260Y-53619959D01*
X73269120Y-53640933D01*
X73269118Y-53640933D01*
X73269118Y-53640934D01*
X73092536Y-53735318D01*
X73092525Y-53735326D01*
X72937749Y-53862346D01*
X72937746Y-53862349D01*
X72810726Y-54017125D01*
X72810718Y-54017136D01*
X72736259Y-54156441D01*
X72716333Y-54193720D01*
X72706726Y-54225390D01*
X72658207Y-54385332D01*
X72638582Y-54584599D01*
X72141418Y-54584599D01*
X72133748Y-54506729D01*
X72121792Y-54385332D01*
X72112372Y-54354278D01*
X72063667Y-54193720D01*
X71993839Y-54063082D01*
X71969281Y-54017136D01*
X71969279Y-54017133D01*
X71969278Y-54017131D01*
X71842252Y-53862348D01*
X71687469Y-53735322D01*
X71687467Y-53735320D01*
X71687463Y-53735318D01*
X71560409Y-53667407D01*
X71510880Y-53640933D01*
X71388409Y-53603781D01*
X71319267Y-53582807D01*
X71120000Y-53563182D01*
X70920732Y-53582807D01*
X70798260Y-53619959D01*
X70729120Y-53640933D01*
X70729118Y-53640933D01*
X70729118Y-53640934D01*
X70552536Y-53735318D01*
X70552525Y-53735326D01*
X70397749Y-53862346D01*
X70397746Y-53862349D01*
X70270726Y-54017125D01*
X70270720Y-54017133D01*
X70223451Y-54105566D01*
X70186473Y-54135912D01*
X70138868Y-54131223D01*
X70135293Y-54128917D01*
X70132061Y-54127051D01*
X69996010Y-54070697D01*
X69996000Y-54070694D01*
X69850002Y-54051474D01*
X69849998Y-54051474D01*
X69703999Y-54070694D01*
X69703989Y-54070697D01*
X69567940Y-54127051D01*
X69564388Y-54129102D01*
X69563399Y-54127389D01*
X69523475Y-54138064D01*
X69482062Y-54114124D01*
X69476547Y-54105565D01*
X69429281Y-54017136D01*
X69429279Y-54017133D01*
X69429278Y-54017131D01*
X69302252Y-53862348D01*
X69147469Y-53735322D01*
X69147467Y-53735320D01*
X69147463Y-53735318D01*
X69020409Y-53667407D01*
X68970880Y-53640933D01*
X68848409Y-53603781D01*
X68779267Y-53582807D01*
X68580000Y-53563182D01*
X68380732Y-53582807D01*
X68258260Y-53619959D01*
X68189120Y-53640933D01*
X68189118Y-53640933D01*
X68189118Y-53640934D01*
X68012536Y-53735318D01*
X68012525Y-53735326D01*
X67857749Y-53862346D01*
X67857746Y-53862349D01*
X67730726Y-54017125D01*
X67730718Y-54017136D01*
X67656259Y-54156441D01*
X67636333Y-54193720D01*
X67626726Y-54225390D01*
X67578207Y-54385332D01*
X67558582Y-54584599D01*
X67061418Y-54584599D01*
X67053748Y-54506729D01*
X67041792Y-54385332D01*
X67032372Y-54354278D01*
X66983667Y-54193720D01*
X66913839Y-54063082D01*
X66889281Y-54017136D01*
X66889279Y-54017133D01*
X66889278Y-54017131D01*
X66762252Y-53862348D01*
X66607469Y-53735322D01*
X66607467Y-53735320D01*
X66607463Y-53735318D01*
X66480409Y-53667407D01*
X66430880Y-53640933D01*
X66308409Y-53603781D01*
X66239267Y-53582807D01*
X66040000Y-53563182D01*
X65840732Y-53582807D01*
X65718260Y-53619959D01*
X65649120Y-53640933D01*
X65649118Y-53640933D01*
X65649118Y-53640934D01*
X65472536Y-53735318D01*
X65472525Y-53735326D01*
X65317749Y-53862346D01*
X65317746Y-53862349D01*
X65190726Y-54017125D01*
X65190718Y-54017136D01*
X65116259Y-54156441D01*
X65096333Y-54193720D01*
X65086726Y-54225390D01*
X65038207Y-54385332D01*
X65018582Y-54584599D01*
X64521418Y-54584599D01*
X64513748Y-54506729D01*
X64501792Y-54385332D01*
X64492372Y-54354278D01*
X64443667Y-54193720D01*
X64373839Y-54063082D01*
X64349281Y-54017136D01*
X64349279Y-54017133D01*
X64349278Y-54017131D01*
X64222252Y-53862348D01*
X64067469Y-53735322D01*
X64067467Y-53735320D01*
X64067463Y-53735318D01*
X63940409Y-53667407D01*
X63890880Y-53640933D01*
X63768409Y-53603781D01*
X63699267Y-53582807D01*
X63500000Y-53563182D01*
X63300732Y-53582807D01*
X63178260Y-53619959D01*
X63109120Y-53640933D01*
X63109118Y-53640933D01*
X63109118Y-53640934D01*
X62932536Y-53735318D01*
X62932525Y-53735326D01*
X62777749Y-53862346D01*
X62777746Y-53862349D01*
X62650726Y-54017125D01*
X62650718Y-54017136D01*
X62576259Y-54156441D01*
X62556333Y-54193720D01*
X62546726Y-54225390D01*
X62498207Y-54385332D01*
X62478582Y-54584599D01*
X61981418Y-54584599D01*
X61973748Y-54506729D01*
X61961792Y-54385332D01*
X61952372Y-54354278D01*
X61903667Y-54193720D01*
X61833839Y-54063082D01*
X61809281Y-54017136D01*
X61809279Y-54017133D01*
X61809278Y-54017131D01*
X61682252Y-53862348D01*
X61527469Y-53735322D01*
X61527467Y-53735320D01*
X61527463Y-53735318D01*
X61400409Y-53667407D01*
X61350880Y-53640933D01*
X61228409Y-53603781D01*
X61159267Y-53582807D01*
X60960000Y-53563182D01*
X60760732Y-53582807D01*
X60638260Y-53619959D01*
X60569120Y-53640933D01*
X60569118Y-53640933D01*
X60569118Y-53640934D01*
X60392536Y-53735318D01*
X60392525Y-53735326D01*
X60237749Y-53862346D01*
X60237746Y-53862349D01*
X60110726Y-54017125D01*
X60110718Y-54017136D01*
X60036259Y-54156441D01*
X60016333Y-54193720D01*
X60006726Y-54225390D01*
X59958207Y-54385332D01*
X59938582Y-54584599D01*
X59441418Y-54584599D01*
X59433748Y-54506729D01*
X59421792Y-54385332D01*
X59412372Y-54354278D01*
X59363667Y-54193720D01*
X59293839Y-54063082D01*
X59269281Y-54017136D01*
X59269279Y-54017133D01*
X59269278Y-54017131D01*
X59142252Y-53862348D01*
X58987469Y-53735322D01*
X58987467Y-53735320D01*
X58987463Y-53735318D01*
X58860409Y-53667407D01*
X58810880Y-53640933D01*
X58688409Y-53603781D01*
X58619267Y-53582807D01*
X58420000Y-53563182D01*
X58220732Y-53582807D01*
X58098260Y-53619959D01*
X58029120Y-53640933D01*
X58029118Y-53640933D01*
X58029118Y-53640934D01*
X57852536Y-53735318D01*
X57852525Y-53735326D01*
X57697749Y-53862346D01*
X57697746Y-53862349D01*
X57570726Y-54017125D01*
X57570718Y-54017136D01*
X57496259Y-54156441D01*
X57476333Y-54193720D01*
X57466726Y-54225390D01*
X57418207Y-54385332D01*
X57398582Y-54584599D01*
X56197500Y-54584599D01*
X56197500Y-54542800D01*
X56175863Y-54462049D01*
X56134063Y-54389650D01*
X56075013Y-54330600D01*
X56134000Y-54330600D01*
X56768999Y-54330600D01*
X56768999Y-53924585D01*
X56768998Y-53924581D01*
X56754263Y-53850495D01*
X56754261Y-53850491D01*
X56698123Y-53766476D01*
X56614108Y-53710338D01*
X56614104Y-53710336D01*
X56540017Y-53695600D01*
X56134000Y-53695600D01*
X56134000Y-54330600D01*
X56075013Y-54330600D01*
X56074950Y-54330537D01*
X56002551Y-54288737D01*
X55921800Y-54267100D01*
X55838200Y-54267100D01*
X55757449Y-54288737D01*
X55685050Y-54330537D01*
X55625937Y-54389650D01*
X55584137Y-54462049D01*
X55562500Y-54542800D01*
X54777044Y-54542800D01*
X54818669Y-54506728D01*
X54952575Y-54352173D01*
X54995349Y-54330760D01*
X54999811Y-54330600D01*
X55626000Y-54330600D01*
X55626000Y-53695600D01*
X55362082Y-53695600D01*
X55317888Y-53677294D01*
X55299582Y-53633100D01*
X55300216Y-53624220D01*
X55336309Y-53373017D01*
X55336296Y-53245808D01*
X55336296Y-53242809D01*
X55336296Y-50578981D01*
X55354602Y-50534787D01*
X55398796Y-50516481D01*
X76681205Y-50516481D01*
X76725399Y-50534787D01*
G37*
%TD.AperFunction*%
%TD*%
D18*
X62551177Y-89365827D03*
X62558818Y-88223553D03*
X63137596Y-88229283D03*
X62553087Y-88796600D03*
X63139506Y-89373468D03*
X63143326Y-88800420D03*
D19*
X70612000Y-62230000D03*
X67421000Y-75060000D03*
X75819000Y-74650600D03*
D18*
X72125800Y-56515000D03*
D19*
X59436000Y-62230000D03*
X68961000Y-77470000D03*
X67208400Y-79629000D03*
D18*
X66931169Y-83693452D03*
D19*
X54152800Y-73431400D03*
X70104000Y-62230000D03*
X67945000Y-77442000D03*
X67081400Y-91033600D03*
X70612000Y-61722000D03*
X70104000Y-61722000D03*
D18*
X77531000Y-56515000D03*
D19*
X69850000Y-54615600D03*
X58928000Y-62230000D03*
X59436000Y-61722000D03*
D18*
X63500000Y-56642000D03*
D19*
X59766200Y-58216800D03*
X77241400Y-72771000D03*
X57886600Y-64871600D03*
X58928000Y-61722000D03*
X69342000Y-68858000D03*
X74320400Y-72821800D03*
X63909000Y-77343000D03*
X63119000Y-71021000D03*
D18*
X62230000Y-82550000D03*
X62865000Y-82550000D03*
X62103000Y-74295000D03*
X62738000Y-73025000D03*
X62865000Y-81915000D03*
X62103000Y-73025000D03*
X62738000Y-73660000D03*
X62103000Y-73660000D03*
X62230000Y-81915000D03*
X63500000Y-81915000D03*
D19*
X67168000Y-78450000D03*
D18*
X62738000Y-74295000D03*
X63500000Y-82550000D03*
D19*
X61595000Y-58597800D03*
X71374000Y-67181000D03*
X69723000Y-75184000D03*
X75793600Y-72085200D03*
X55608600Y-64469800D03*
X68354000Y-68859400D03*
X67338000Y-81026000D03*
X53873400Y-72974200D03*
X59512200Y-67284600D03*
D18*
X63093600Y-86233000D03*
X75184000Y-58166000D03*
D19*
X70612000Y-63754000D03*
D18*
X56388000Y-57658000D03*
D19*
X61976000Y-63754000D03*
X61468000Y-63754000D03*
D18*
X74422000Y-58166000D03*
X67183000Y-58166000D03*
X75946000Y-58166000D03*
D19*
X70104000Y-63754000D03*
D18*
X76708000Y-58166000D03*
X67945000Y-58166000D03*
D19*
X70612000Y-64262000D03*
D18*
X66421000Y-58166000D03*
D19*
X70104000Y-64262000D03*
X61976000Y-64262000D03*
X61468000Y-64262000D03*
D18*
X69342000Y-70358000D03*
X56388000Y-56896000D03*
X73660000Y-58166000D03*
D19*
X55092600Y-74064400D03*
X54414800Y-75493400D03*
X67919600Y-75666600D03*
X57785000Y-72821800D03*
X57886600Y-74015600D03*
X65265300Y-58508900D03*
X64516000Y-58521600D03*
X75285600Y-74828400D03*
X76327000Y-74828400D03*
X53898800Y-74015600D03*
X67818000Y-78450000D03*
X54973600Y-71454800D03*
X70205600Y-83566000D03*
X65201800Y-82499200D03*
X54356000Y-74422000D03*
X56142000Y-75772800D03*
X69723000Y-74166000D03*
X58902600Y-64871600D03*
X68421000Y-75060000D03*
X55557800Y-75823600D03*
X71374000Y-68224400D03*
X57310400Y-74528200D03*
X54922800Y-75671200D03*
X58343800Y-64363600D03*
X61798200Y-70205600D03*
X63879000Y-76327000D03*
X66624200Y-68351400D03*
X57412000Y-75061600D03*
X64643000Y-75793600D03*
X69723000Y-73154000D03*
X74904600Y-72796400D03*
X76682600Y-72771000D03*
X57683400Y-58064400D03*
X60172600Y-58674000D03*
X62128400Y-58064400D03*
X77927200Y-72263000D03*
X57894600Y-66348200D03*
X55143400Y-56134000D03*
D20*
X68884800Y-92506800D03*
X56515000Y-62204600D03*
X63195200Y-92506800D03*
X68021200Y-95072200D03*
X69824600Y-95072200D03*
X65862200Y-95834200D03*
X65836800Y-94056200D03*
X62255400Y-95072200D03*
X64058800Y-95072200D03*
X69697600Y-88976200D03*
X75565000Y-62204600D03*
X66040000Y-89509600D03*
X55253000Y-65612800D03*
X56269000Y-70692800D03*
X54237000Y-70692800D03*
X55880000Y-54584600D03*
X58420000Y-54584600D03*
X60960000Y-54584600D03*
X63500000Y-54584600D03*
X66040000Y-54584600D03*
X68580000Y-54584600D03*
X71120000Y-54584600D03*
X73660000Y-54584600D03*
X76200000Y-54584600D03*
M02*
