M48
; DRILL file {KiCad 8.0.3} date 2024-09-11T11:50:37-0400
; FORMAT={-:-/ absolute / inch / decimal}
; #@! TF.CreationDate,2024-09-11T11:50:37-04:00
; #@! TF.GenerationSoftware,Kicad,Pcbnew,8.0.3
; #@! TF.FileFunction,Plated,1,8,PTH
FMAT,2
INCH
; #@! TA.AperFunction,Plated,PTH,ViaDrill
T1C0.0060
; #@! TA.AperFunction,Plated,PTH,ViaDrill
T2C0.0100
; #@! TA.AperFunction,Plated,PTH,ComponentDrill
T3C0.0250
; #@! TA.AperFunction,Plated,PTH,ComponentDrill
T4C0.0500
%
G90
G05
T1
X2.121Y-2.873
X2.122Y-2.914
X2.132Y-2.891
X2.14Y-2.93
X2.1423Y-2.9722
X2.1623Y-2.9792
X2.1643Y-2.8132
X2.169Y-2.9159
X2.171Y-2.21
X2.1873Y-2.9852
X2.1893Y-2.5382
X2.2103Y-2.9832
X2.2563Y-2.9342
X2.2603Y-2.9552
X2.271Y-2.286
X2.275Y-2.867
X2.279Y-2.554
X2.279Y-2.914
X2.2793Y-2.6121
X2.297Y-2.534
X2.319Y-2.554
X2.32Y-2.43
X2.32Y-2.45
X2.34Y-2.43
X2.34Y-2.45
X2.343Y-2.649
X2.353Y-2.292
X2.369Y-2.31
X2.42Y-2.51
X2.42Y-2.53
X2.425Y-2.307
X2.433Y-2.764
X2.44Y-2.51
X2.44Y-2.53
X2.446Y-2.286
X2.485Y-2.7961
X2.5149Y-3.005
X2.5161Y-3.045
X2.54Y-2.304
X2.545Y-2.984
X2.567Y-3.248
X2.5695Y-2.3035
X2.623Y-2.691
X2.641Y-3.584
X2.6444Y-3.0886
X2.646Y-3.135
X2.6511Y-3.19
X2.6544Y-2.9551
X2.67Y-3.0886
X2.674Y-2.979
X2.675Y-3.0489
X2.6911Y-2.711
X2.6937Y-2.9551
X2.715Y-3.05
X2.73Y-2.7109
X2.745Y-2.8801
X2.745Y-2.9199
X2.745Y-2.96
X2.75Y-2.1502
X2.76Y-2.43
X2.76Y-2.45
X2.76Y-2.51
X2.76Y-2.53
X2.764Y-3.29
X2.78Y-2.43
X2.78Y-2.45
X2.78Y-2.51
X2.78Y-2.53
X2.81Y-2.6449
X2.81Y-2.686
X2.926Y-2.867
X2.949Y-2.866
X2.964Y-2.946
X2.984Y-2.838
X2.985Y-2.939
X3.005Y-2.946
X3.019Y-2.865
X3.041Y-2.865
X3.068Y-2.845
T2
X2.22Y-2.24
X2.22Y-2.27
X2.445Y-2.875
X2.445Y-2.9
X2.445Y-2.925
X2.45Y-3.225
X2.45Y-3.25
X2.4626Y-3.5183
X2.4627Y-3.4959
X2.4629Y-3.4734
X2.47Y-2.875
X2.47Y-2.9
X2.47Y-2.925
X2.475Y-3.225
X2.475Y-3.25
X2.484Y-3.395
X2.4857Y-3.4736
X2.4858Y-3.5186
X2.486Y-3.4961
X2.5Y-2.23
X2.5Y-3.225
X2.5Y-3.25
X2.615Y-2.29
X2.6351Y-3.295
X2.645Y-2.29
X2.675Y-2.29
X2.73Y-2.77
X2.8396Y-2.225
X2.9Y-2.29
X2.93Y-2.29
X2.96Y-2.29
X2.99Y-2.29
X3.02Y-2.29
X3.0524Y-2.225
T3
X2.2Y-2.149
X2.3Y-2.149
X2.4Y-2.149
X2.451Y-3.743
X2.5Y-2.149
X2.522Y-3.743
X2.592Y-3.703
X2.593Y-3.773
X2.6Y-2.149
X2.678Y-3.743
X2.7Y-2.149
X2.744Y-3.503
X2.749Y-3.743
X2.8Y-2.149
X2.9Y-2.149
X3.0Y-2.149
T4
X2.488Y-3.642
X2.712Y-3.642
M30
