%TF.GenerationSoftware,KiCad,Pcbnew,8.0.3*%
%TF.CreationDate,2024-09-11T11:50:36-04:00*%
%TF.ProjectId,100064667,31303030-3634-4363-9637-2e6b69636164,1*%
%TF.SameCoordinates,Original*%
%TF.FileFunction,Copper,L1,Top*%
%TF.FilePolarity,Positive*%
%FSLAX46Y46*%
G04 Gerber Fmt 4.6, Leading zero omitted, Abs format (unit mm)*
G04 Created by KiCad (PCBNEW 8.0.3) date 2024-09-11 11:50:36*
%MOMM*%
%LPD*%
G01*
G04 APERTURE LIST*
G04 Aperture macros list*
%AMRoundRect*
0 Rectangle with rounded corners*
0 $1 Rounding radius*
0 $2 $3 $4 $5 $6 $7 $8 $9 X,Y pos of 4 corners*
0 Add a 4 corners polygon primitive as box body*
4,1,4,$2,$3,$4,$5,$6,$7,$8,$9,$2,$3,0*
0 Add four circle primitives for the rounded corners*
1,1,$1+$1,$2,$3*
1,1,$1+$1,$4,$5*
1,1,$1+$1,$6,$7*
1,1,$1+$1,$8,$9*
0 Add four rect primitives between the rounded corners*
20,1,$1+$1,$2,$3,$4,$5,0*
20,1,$1+$1,$4,$5,$6,$7,0*
20,1,$1+$1,$6,$7,$8,$9,0*
20,1,$1+$1,$8,$9,$2,$3,0*%
%AMRotRect*
0 Rectangle, with rotation*
0 The origin of the aperture is its center*
0 $1 length*
0 $2 width*
0 $3 Rotation angle, in degrees counterclockwise*
0 Add horizontal line*
21,1,$1,$2,0,0,$3*%
%AMOutline5P*
0 Free polygon, 5 corners , with rotation*
0 The origin of the aperture is its center*
0 number of corners: always 5*
0 $1 to $10 corner X, Y*
0 $11 Rotation angle, in degrees counterclockwise*
0 create outline with 5 corners*
4,1,5,$1,$2,$3,$4,$5,$6,$7,$8,$9,$10,$1,$2,$11*%
%AMOutline6P*
0 Free polygon, 6 corners , with rotation*
0 The origin of the aperture is its center*
0 number of corners: always 6*
0 $1 to $12 corner X, Y*
0 $13 Rotation angle, in degrees counterclockwise*
0 create outline with 6 corners*
4,1,6,$1,$2,$3,$4,$5,$6,$7,$8,$9,$10,$11,$12,$1,$2,$13*%
%AMOutline7P*
0 Free polygon, 7 corners , with rotation*
0 The origin of the aperture is its center*
0 number of corners: always 7*
0 $1 to $14 corner X, Y*
0 $15 Rotation angle, in degrees counterclockwise*
0 create outline with 7 corners*
4,1,7,$1,$2,$3,$4,$5,$6,$7,$8,$9,$10,$11,$12,$13,$14,$1,$2,$15*%
%AMOutline8P*
0 Free polygon, 8 corners , with rotation*
0 The origin of the aperture is its center*
0 number of corners: always 8*
0 $1 to $16 corner X, Y*
0 $17 Rotation angle, in degrees counterclockwise*
0 create outline with 8 corners*
4,1,8,$1,$2,$3,$4,$5,$6,$7,$8,$9,$10,$11,$12,$13,$14,$15,$16,$1,$2,$17*%
%AMFreePoly0*
4,1,37,-0.764646,1.750354,-0.764500,1.750000,-0.764500,1.300500,-0.535500,1.300500,-0.535500,1.750000,-0.535354,1.750354,-0.535000,1.750500,-0.115000,1.750500,-0.114646,1.750354,-0.114500,1.750000,-0.114500,1.300500,0.114500,1.300500,0.114500,1.750000,0.114646,1.750354,0.115000,1.750500,0.535000,1.750500,0.535354,1.750354,0.535500,1.750000,0.535500,1.300500,0.764500,1.300500,
0.764500,1.750000,0.764646,1.750354,0.765000,1.750500,1.185000,1.750500,1.185354,1.750354,1.185500,1.750000,1.185500,-0.400000,1.185354,-0.400354,1.185000,-0.400500,-1.185000,-0.400500,-1.185354,-0.400354,-1.185500,-0.400000,-1.185500,1.750000,-1.185354,1.750354,-1.185000,1.750500,-0.765000,1.750500,-0.764646,1.750354,-0.764646,1.750354,$1*%
%AMFreePoly1*
4,1,29,3.175000,-0.635000,0.000000,-0.635000,-0.004630,-0.630370,-0.076541,-0.630370,-0.225174,-0.593735,-0.360721,-0.522595,-0.475304,-0.421083,-0.562265,-0.295099,-0.616548,-0.151965,-0.635000,0.000000,-0.616548,0.151965,-0.562265,0.295099,-0.475304,0.421083,-0.360721,0.522595,-0.225174,0.593735,-0.076541,0.630370,-0.004630,0.630370,0.000000,0.635000,0.904421,0.635000,0.907452,0.659965,
0.961735,0.803099,1.048696,0.929083,1.163279,1.030595,1.298826,1.101735,1.447459,1.138370,1.506091,1.138370,1.511300,1.143000,3.175000,1.143000,3.175000,-0.635000,3.175000,-0.635000,$1*%
%AMFreePoly2*
4,1,6,1.000000,0.000000,0.500000,-0.750000,-0.500000,-0.750000,-0.500000,0.750000,0.500000,0.750000,1.000000,0.000000,1.000000,0.000000,$1*%
%AMFreePoly3*
4,1,6,0.500000,-0.750000,-0.650000,-0.750000,-0.150000,0.000000,-0.650000,0.750000,0.500000,0.750000,0.500000,-0.750000,0.500000,-0.750000,$1*%
%AMFreePoly4*
4,1,27,0.099336,1.198682,0.252189,1.154274,0.389196,1.073248,0.501748,0.960696,0.582774,0.823689,0.627182,0.670836,0.635000,0.571500,0.635000,-1.206500,-2.540000,-1.206500,-2.544630,-1.201870,-2.616541,-1.201870,-2.765174,-1.165235,-2.900721,-1.094095,-3.015304,-0.992583,-3.102265,-0.866599,-3.156548,-0.723465,-3.175000,-0.571500,-3.175000,0.571500,-0.635000,0.571500,-0.627182,0.670836,
-0.582774,0.823689,-0.501748,0.960696,-0.389196,1.073248,-0.252189,1.154274,-0.099336,1.198682,0.000000,1.206500,0.099336,1.198682,0.099336,1.198682,$1*%
%AMFreePoly5*
4,1,26,0.225174,0.593735,0.360721,0.522595,0.475304,0.421083,0.562265,0.295099,0.616548,0.151965,0.635000,0.000000,3.175000,0.000000,3.175000,-1.143000,3.156548,-1.294965,3.102265,-1.438099,3.015304,-1.564083,2.900721,-1.665595,2.765174,-1.736735,2.616541,-1.773370,2.544630,-1.773370,2.540000,-1.778000,-0.635000,-1.778000,-0.635000,0.000000,-0.616548,0.151965,-0.562265,0.295099,
-0.475304,0.421083,-0.360721,0.522595,-0.225174,0.593735,-0.076541,0.630370,0.076541,0.630370,0.225174,0.593735,0.225174,0.593735,$1*%
%AMFreePoly6*
4,1,29,3.175000,-1.143000,1.511300,-1.143000,1.506091,-1.138370,1.447459,-1.138370,1.298826,-1.101735,1.163279,-1.030595,1.048696,-0.929083,0.961735,-0.803099,0.907452,-0.659965,0.904421,-0.635000,0.000000,-0.635000,-0.004630,-0.630370,-0.076541,-0.630370,-0.225174,-0.593735,-0.360721,-0.522595,-0.475304,-0.421083,-0.562265,-0.295099,-0.616548,-0.151965,-0.635000,0.000000,-0.616548,0.151965,
-0.562265,0.295099,-0.475304,0.421083,-0.360721,0.522595,-0.225174,0.593735,-0.076541,0.630370,-0.004630,0.630370,0.000000,0.635000,3.175000,0.635000,3.175000,-1.143000,3.175000,-1.143000,$1*%
%AMFreePoly7*
4,1,6,0.325000,0.000000,0.325000,-0.150000,-0.175000,-0.150000,-0.175000,0.150000,0.175000,0.150000,0.325000,0.000000,0.325000,0.000000,$1*%
%AMFreePoly8*
4,1,6,0.325000,0.000000,0.175000,-0.150000,-0.175000,-0.150000,-0.175000,0.150000,0.325000,0.150000,0.325000,0.000000,0.325000,0.000000,$1*%
%AMFreePoly9*
4,1,6,0.150000,-0.175000,-0.150000,-0.175000,-0.150000,0.175000,0.000000,0.325000,0.150000,0.325000,0.150000,-0.175000,0.150000,-0.175000,$1*%
%AMFreePoly10*
4,1,6,0.150000,0.175000,0.150000,-0.175000,-0.150000,-0.175000,-0.150000,0.325000,0.000000,0.325000,0.150000,0.175000,0.150000,0.175000,$1*%
%AMFreePoly11*
4,1,6,0.175000,-0.150000,-0.175000,-0.150000,-0.325000,0.000000,-0.325000,0.150000,0.175000,0.150000,0.175000,-0.150000,0.175000,-0.150000,$1*%
%AMFreePoly12*
4,1,7,0.175000,-0.150000,-0.175000,-0.150000,-0.325000,-0.150000,-0.325000,0.000000,-0.175000,0.150000,0.175000,0.150000,0.175000,-0.150000,0.175000,-0.150000,$1*%
%AMFreePoly13*
4,1,6,0.150000,-0.175000,0.000000,-0.325000,-0.150000,-0.325000,-0.150000,0.175000,0.150000,0.175000,0.150000,-0.175000,0.150000,-0.175000,$1*%
%AMFreePoly14*
4,1,6,0.150000,-0.325000,0.000000,-0.325000,-0.150000,-0.175000,-0.150000,0.175000,0.150000,0.175000,0.150000,-0.325000,0.150000,-0.325000,$1*%
G04 Aperture macros list end*
%ADD10C,0.254000*%
%TA.AperFunction,NonConductor*%
%ADD11C,0.254000*%
%TD*%
%TA.AperFunction,ComponentPad*%
%ADD12C,2.540000*%
%TD*%
%TA.AperFunction,SMDPad,CuDef*%
%ADD13RoundRect,0.135000X-0.185000X0.135000X-0.185000X-0.135000X0.185000X-0.135000X0.185000X0.135000X0*%
%TD*%
%TA.AperFunction,SMDPad,CuDef*%
%ADD14R,0.420000X0.700000*%
%TD*%
%TA.AperFunction,SMDPad,CuDef*%
%ADD15FreePoly0,0.000000*%
%TD*%
%TA.AperFunction,SMDPad,CuDef*%
%ADD16RoundRect,0.050000X-0.100000X0.285000X-0.100000X-0.285000X0.100000X-0.285000X0.100000X0.285000X0*%
%TD*%
%TA.AperFunction,SMDPad,CuDef*%
%ADD17RoundRect,0.140000X-0.170000X0.140000X-0.170000X-0.140000X0.170000X-0.140000X0.170000X0.140000X0*%
%TD*%
%TA.AperFunction,SMDPad,CuDef*%
%ADD18RoundRect,0.135000X0.135000X0.185000X-0.135000X0.185000X-0.135000X-0.185000X0.135000X-0.185000X0*%
%TD*%
%TA.AperFunction,SMDPad,CuDef*%
%ADD19RoundRect,0.140000X-0.140000X-0.170000X0.140000X-0.170000X0.140000X0.170000X-0.140000X0.170000X0*%
%TD*%
%TA.AperFunction,SMDPad,CuDef*%
%ADD20R,0.250000X0.400000*%
%TD*%
%TA.AperFunction,SMDPad,CuDef*%
%ADD21R,0.700000X0.400000*%
%TD*%
%TA.AperFunction,SMDPad,CuDef*%
%ADD22RoundRect,0.050000X-0.125000X-0.050000X0.125000X-0.050000X0.125000X0.050000X-0.125000X0.050000X0*%
%TD*%
%TA.AperFunction,SMDPad,CuDef*%
%ADD23RoundRect,0.050000X-0.100000X-0.050000X0.100000X-0.050000X0.100000X0.050000X-0.100000X0.050000X0*%
%TD*%
%TA.AperFunction,ComponentPad*%
%ADD24C,1.270000*%
%TD*%
%TA.AperFunction,SMDPad,CuDef*%
%ADD25FreePoly1,270.000000*%
%TD*%
%TA.AperFunction,SMDPad,CuDef*%
%ADD26R,0.713000X0.225000*%
%TD*%
%TA.AperFunction,SMDPad,CuDef*%
%ADD27R,0.225000X0.563000*%
%TD*%
%TA.AperFunction,SMDPad,CuDef*%
%ADD28FreePoly2,90.000000*%
%TD*%
%TA.AperFunction,SMDPad,CuDef*%
%ADD29FreePoly3,90.000000*%
%TD*%
%TA.AperFunction,ComponentPad*%
%ADD30C,1.016000*%
%TD*%
%TA.AperFunction,SMDPad,CuDef*%
%ADD31FreePoly4,90.000000*%
%TD*%
%TA.AperFunction,SMDPad,CuDef*%
%ADD32RoundRect,0.162560X-0.650240X-1.361440X0.650240X-1.361440X0.650240X1.361440X-0.650240X1.361440X0*%
%TD*%
%TA.AperFunction,SMDPad,CuDef*%
%ADD33RoundRect,0.162560X0.650240X1.361440X-0.650240X1.361440X-0.650240X-1.361440X0.650240X-1.361440X0*%
%TD*%
%TA.AperFunction,SMDPad,CuDef*%
%ADD34RoundRect,0.140000X0.140000X0.170000X-0.140000X0.170000X-0.140000X-0.170000X0.140000X-0.170000X0*%
%TD*%
%TA.AperFunction,SMDPad,CuDef*%
%ADD35FreePoly5,270.000000*%
%TD*%
%TA.AperFunction,SMDPad,CuDef*%
%ADD36RoundRect,0.140000X0.170000X-0.140000X0.170000X0.140000X-0.170000X0.140000X-0.170000X-0.140000X0*%
%TD*%
%TA.AperFunction,SMDPad,CuDef*%
%ADD37RoundRect,0.135000X-0.135000X-0.185000X0.135000X-0.185000X0.135000X0.185000X-0.135000X0.185000X0*%
%TD*%
%TA.AperFunction,SMDPad,CuDef*%
%ADD38FreePoly6,270.000000*%
%TD*%
%TA.AperFunction,SMDPad,CuDef*%
%ADD39Outline5P,-0.425000X0.125000X0.300000X0.125000X0.425000X0.000000X0.425000X-0.125000X-0.425000X-0.125000X90.000000*%
%TD*%
%TA.AperFunction,SMDPad,CuDef*%
%ADD40R,0.250000X0.800000*%
%TD*%
%TA.AperFunction,SMDPad,CuDef*%
%ADD41R,0.800000X0.250000*%
%TD*%
%TA.AperFunction,SMDPad,CuDef*%
%ADD42R,0.850000X0.250000*%
%TD*%
%TA.AperFunction,SMDPad,CuDef*%
%ADD43R,0.250000X1.250000*%
%TD*%
%TA.AperFunction,SMDPad,CuDef*%
%ADD44C,1.016000*%
%TD*%
%TA.AperFunction,SMDPad,CuDef*%
%ADD45RoundRect,0.254000X1.016000X-1.016000X1.016000X1.016000X-1.016000X1.016000X-1.016000X-1.016000X0*%
%TD*%
%TA.AperFunction,SMDPad,CuDef*%
%ADD46R,0.275000X0.713000*%
%TD*%
%TA.AperFunction,SMDPad,CuDef*%
%ADD47R,0.400000X0.450000*%
%TD*%
%TA.AperFunction,SMDPad,CuDef*%
%ADD48R,1.720000X1.120000*%
%TD*%
%TA.AperFunction,SMDPad,CuDef*%
%ADD49R,0.700000X0.250000*%
%TD*%
%TA.AperFunction,SMDPad,CuDef*%
%ADD50R,1.660000X2.380000*%
%TD*%
%TA.AperFunction,SMDPad,CuDef*%
%ADD51FreePoly7,0.000000*%
%TD*%
%TA.AperFunction,SMDPad,CuDef*%
%ADD52R,0.700000X0.300000*%
%TD*%
%TA.AperFunction,SMDPad,CuDef*%
%ADD53FreePoly8,0.000000*%
%TD*%
%TA.AperFunction,SMDPad,CuDef*%
%ADD54FreePoly9,0.000000*%
%TD*%
%TA.AperFunction,SMDPad,CuDef*%
%ADD55R,0.300000X0.700000*%
%TD*%
%TA.AperFunction,SMDPad,CuDef*%
%ADD56FreePoly10,0.000000*%
%TD*%
%TA.AperFunction,SMDPad,CuDef*%
%ADD57FreePoly11,0.000000*%
%TD*%
%TA.AperFunction,SMDPad,CuDef*%
%ADD58FreePoly12,0.000000*%
%TD*%
%TA.AperFunction,SMDPad,CuDef*%
%ADD59FreePoly13,0.000000*%
%TD*%
%TA.AperFunction,SMDPad,CuDef*%
%ADD60FreePoly14,0.000000*%
%TD*%
%TA.AperFunction,SMDPad,CuDef*%
%ADD61RoundRect,0.135000X0.185000X-0.135000X0.185000X0.135000X-0.185000X0.135000X-0.185000X-0.135000X0*%
%TD*%
%TA.AperFunction,SMDPad,CuDef*%
%ADD62R,0.800000X1.070000*%
%TD*%
%TA.AperFunction,SMDPad,CuDef*%
%ADD63RotRect,0.282800X0.282800X135.000000*%
%TD*%
%TA.AperFunction,SMDPad,CuDef*%
%ADD64R,0.600000X0.200000*%
%TD*%
%TA.AperFunction,SMDPad,CuDef*%
%ADD65R,0.850000X0.300000*%
%TD*%
%TA.AperFunction,SMDPad,CuDef*%
%ADD66R,0.300000X0.850000*%
%TD*%
%TA.AperFunction,ConnectorPad*%
%ADD67C,0.787400*%
%TD*%
%TA.AperFunction,ComponentPad*%
%ADD68R,1.270000X1.270000*%
%TD*%
%TA.AperFunction,ViaPad*%
%ADD69C,0.508000*%
%TD*%
%TA.AperFunction,ViaPad*%
%ADD70C,0.355600*%
%TD*%
%TA.AperFunction,Conductor*%
%ADD71C,0.254000*%
%TD*%
%TA.AperFunction,Conductor*%
%ADD72C,0.177800*%
%TD*%
%TA.AperFunction,Conductor*%
%ADD73C,0.127000*%
%TD*%
%ADD74C,0.254000*%
%ADD75C,0.152400*%
%ADD76C,0.350000*%
G04 APERTURE END LIST*
D10*
D11*
X55411914Y-119521852D02*
X54734581Y-119521852D01*
X54734581Y-120586233D02*
X54734581Y-118554233D01*
X54734581Y-118554233D02*
X55702200Y-118554233D01*
X57637438Y-120586233D02*
X56960105Y-119618614D01*
X56476295Y-120586233D02*
X56476295Y-118554233D01*
X56476295Y-118554233D02*
X57250390Y-118554233D01*
X57250390Y-118554233D02*
X57443914Y-118650995D01*
X57443914Y-118650995D02*
X57540676Y-118747757D01*
X57540676Y-118747757D02*
X57637438Y-118941281D01*
X57637438Y-118941281D02*
X57637438Y-119231567D01*
X57637438Y-119231567D02*
X57540676Y-119425091D01*
X57540676Y-119425091D02*
X57443914Y-119521852D01*
X57443914Y-119521852D02*
X57250390Y-119618614D01*
X57250390Y-119618614D02*
X56476295Y-119618614D01*
X58895343Y-118554233D02*
X59282390Y-118554233D01*
X59282390Y-118554233D02*
X59475914Y-118650995D01*
X59475914Y-118650995D02*
X59669438Y-118844519D01*
X59669438Y-118844519D02*
X59766200Y-119231567D01*
X59766200Y-119231567D02*
X59766200Y-119908900D01*
X59766200Y-119908900D02*
X59669438Y-120295948D01*
X59669438Y-120295948D02*
X59475914Y-120489472D01*
X59475914Y-120489472D02*
X59282390Y-120586233D01*
X59282390Y-120586233D02*
X58895343Y-120586233D01*
X58895343Y-120586233D02*
X58701819Y-120489472D01*
X58701819Y-120489472D02*
X58508295Y-120295948D01*
X58508295Y-120295948D02*
X58411533Y-119908900D01*
X58411533Y-119908900D02*
X58411533Y-119231567D01*
X58411533Y-119231567D02*
X58508295Y-118844519D01*
X58508295Y-118844519D02*
X58701819Y-118650995D01*
X58701819Y-118650995D02*
X58895343Y-118554233D01*
X60637057Y-120586233D02*
X60637057Y-118554233D01*
X60637057Y-118554233D02*
X61798200Y-120586233D01*
X61798200Y-120586233D02*
X61798200Y-118554233D01*
X62475533Y-118554233D02*
X63636676Y-118554233D01*
X63056105Y-120586233D02*
X63056105Y-118554233D01*
X67023342Y-120392710D02*
X66926580Y-120489472D01*
X66926580Y-120489472D02*
X66636294Y-120586233D01*
X66636294Y-120586233D02*
X66442770Y-120586233D01*
X66442770Y-120586233D02*
X66152485Y-120489472D01*
X66152485Y-120489472D02*
X65958961Y-120295948D01*
X65958961Y-120295948D02*
X65862199Y-120102424D01*
X65862199Y-120102424D02*
X65765437Y-119715376D01*
X65765437Y-119715376D02*
X65765437Y-119425091D01*
X65765437Y-119425091D02*
X65862199Y-119038043D01*
X65862199Y-119038043D02*
X65958961Y-118844519D01*
X65958961Y-118844519D02*
X66152485Y-118650995D01*
X66152485Y-118650995D02*
X66442770Y-118554233D01*
X66442770Y-118554233D02*
X66636294Y-118554233D01*
X66636294Y-118554233D02*
X66926580Y-118650995D01*
X66926580Y-118650995D02*
X67023342Y-118747757D01*
X68281247Y-118554233D02*
X68668294Y-118554233D01*
X68668294Y-118554233D02*
X68861818Y-118650995D01*
X68861818Y-118650995D02*
X69055342Y-118844519D01*
X69055342Y-118844519D02*
X69152104Y-119231567D01*
X69152104Y-119231567D02*
X69152104Y-119908900D01*
X69152104Y-119908900D02*
X69055342Y-120295948D01*
X69055342Y-120295948D02*
X68861818Y-120489472D01*
X68861818Y-120489472D02*
X68668294Y-120586233D01*
X68668294Y-120586233D02*
X68281247Y-120586233D01*
X68281247Y-120586233D02*
X68087723Y-120489472D01*
X68087723Y-120489472D02*
X67894199Y-120295948D01*
X67894199Y-120295948D02*
X67797437Y-119908900D01*
X67797437Y-119908900D02*
X67797437Y-119231567D01*
X67797437Y-119231567D02*
X67894199Y-118844519D01*
X67894199Y-118844519D02*
X68087723Y-118650995D01*
X68087723Y-118650995D02*
X68281247Y-118554233D01*
X70022961Y-120586233D02*
X70022961Y-118554233D01*
X70022961Y-118554233D02*
X70797056Y-118554233D01*
X70797056Y-118554233D02*
X70990580Y-118650995D01*
X70990580Y-118650995D02*
X71087342Y-118747757D01*
X71087342Y-118747757D02*
X71184104Y-118941281D01*
X71184104Y-118941281D02*
X71184104Y-119231567D01*
X71184104Y-119231567D02*
X71087342Y-119425091D01*
X71087342Y-119425091D02*
X70990580Y-119521852D01*
X70990580Y-119521852D02*
X70797056Y-119618614D01*
X70797056Y-119618614D02*
X70022961Y-119618614D01*
X72054961Y-120586233D02*
X72054961Y-118554233D01*
X72054961Y-118554233D02*
X72829056Y-118554233D01*
X72829056Y-118554233D02*
X73022580Y-118650995D01*
X73022580Y-118650995D02*
X73119342Y-118747757D01*
X73119342Y-118747757D02*
X73216104Y-118941281D01*
X73216104Y-118941281D02*
X73216104Y-119231567D01*
X73216104Y-119231567D02*
X73119342Y-119425091D01*
X73119342Y-119425091D02*
X73022580Y-119521852D01*
X73022580Y-119521852D02*
X72829056Y-119618614D01*
X72829056Y-119618614D02*
X72054961Y-119618614D01*
X74086961Y-119521852D02*
X74764294Y-119521852D01*
X75054580Y-120586233D02*
X74086961Y-120586233D01*
X74086961Y-120586233D02*
X74086961Y-118554233D01*
X74086961Y-118554233D02*
X75054580Y-118554233D01*
X77086580Y-120586233D02*
X76409247Y-119618614D01*
X75925437Y-120586233D02*
X75925437Y-118554233D01*
X75925437Y-118554233D02*
X76699532Y-118554233D01*
X76699532Y-118554233D02*
X76893056Y-118650995D01*
X76893056Y-118650995D02*
X76989818Y-118747757D01*
X76989818Y-118747757D02*
X77086580Y-118941281D01*
X77086580Y-118941281D02*
X77086580Y-119231567D01*
X77086580Y-119231567D02*
X76989818Y-119425091D01*
X76989818Y-119425091D02*
X76893056Y-119521852D01*
X76893056Y-119521852D02*
X76699532Y-119618614D01*
X76699532Y-119618614D02*
X75925437Y-119618614D01*
D12*
%TO.P,J2,1*%
%TO.N,GND*%
X68884800Y-92506800D03*
%TD*%
D13*
%TO.P,R15,1*%
%TO.N,/Block Diagram/Payload Power Control/IMON*%
X68961000Y-76452000D03*
%TO.P,R15,2*%
%TO.N,GND*%
X68961000Y-77472000D03*
%TD*%
D14*
%TO.P,Q1,1,S*%
%TO.N,/Block Diagram/VBATT*%
X61128000Y-86236000D03*
%TO.P,Q1,2,S*%
X61778000Y-86236000D03*
%TO.P,Q1,3,S*%
X62428000Y-86236000D03*
%TO.P,Q1,4,G*%
%TO.N,Net-(Q1-G)*%
X63078000Y-86236000D03*
D15*
%TO.P,Q1,5,D*%
%TO.N,/Block Diagram/Payload Power Control/VBATT_PROT*%
X62103000Y-84836000D03*
%TD*%
D13*
%TO.P,R21,1*%
%TO.N,Net-(U11-~{RESET})*%
X59029600Y-57198800D03*
%TO.P,R21,2*%
%TO.N,GND*%
X59029600Y-58218800D03*
%TD*%
D16*
%TO.P,U12,1*%
%TO.N,/Block Diagram/Payload Power Control/LS_PWR_GOOD*%
X58894600Y-64868200D03*
%TO.P,U12,2*%
%TO.N,Net-(JP2-B)*%
X58394600Y-64868200D03*
%TO.P,U12,3,GND*%
%TO.N,GND*%
X57894600Y-64868200D03*
%TO.P,U12,4*%
%TO.N,/Block Diagram/Data Switches/DATA_ENABLE*%
X57894600Y-66348200D03*
%TO.P,U12,5,VCC*%
%TO.N,/Block Diagram/Data Switches/P3V3*%
X58894600Y-66348200D03*
%TD*%
D13*
%TO.P,R2,1*%
%TO.N,Net-(U3-INH)*%
X64389000Y-83945000D03*
%TO.P,R2,2*%
%TO.N,Net-(U3-INL)*%
X64389000Y-84965000D03*
%TD*%
D17*
%TO.P,C14,1*%
%TO.N,Net-(U7-SS)*%
X66929000Y-76482000D03*
%TO.P,C14,2*%
%TO.N,GND*%
X66929000Y-77442000D03*
%TD*%
D18*
%TO.P,R5,1*%
%TO.N,/Block Diagram/AUX2*%
X58176000Y-72470800D03*
%TO.P,R5,2*%
%TO.N,Net-(U5-PA10{slash}PA12)*%
X57156000Y-72470800D03*
%TD*%
D13*
%TO.P,R20,1*%
%TO.N,/Block Diagram/Data Switches/P3V3*%
X71374000Y-67181000D03*
%TO.P,R20,2*%
%TO.N,/Block Diagram/Payload Power Control/I_FAULT*%
X71374000Y-68201000D03*
%TD*%
D19*
%TO.P,C4,1*%
%TO.N,/Block Diagram/Data Switches/P3V3*%
X67338000Y-81026000D03*
%TO.P,C4,2*%
%TO.N,GND*%
X68298000Y-81026000D03*
%TD*%
D20*
%TO.P,U1,1,K1*%
%TO.N,/Block Diagram/USB_DEV_D-*%
X69625000Y-55315600D03*
%TO.P,U1,2,K2*%
%TO.N,/Block Diagram/USB_DEV_D+*%
X70075000Y-55315600D03*
D21*
%TO.P,U1,3,A*%
%TO.N,GND*%
X69850000Y-54615600D03*
%TD*%
D22*
%TO.P,U13,1,1A*%
%TO.N,Net-(U11-~{RESET})*%
X60504800Y-57767600D03*
D23*
%TO.P,U13,2,GND*%
%TO.N,GND*%
X60479800Y-58267600D03*
%TO.P,U13,3,2A*%
%TO.N,/Block Diagram/Data Switches/RESET*%
X60479800Y-58767600D03*
%TO.P,U13,4,2Y*%
%TO.N,Net-(U10-VCCEN)*%
X61079800Y-58767600D03*
%TO.P,U13,5,VCC*%
%TO.N,/Block Diagram/Data Switches/P3V3*%
X61079800Y-58267600D03*
%TO.P,U13,6,1Y*%
%TO.N,/Block Diagram/Data Switches/RESET*%
X61079800Y-57767600D03*
%TD*%
D12*
%TO.P,J1,1*%
%TO.N,/Block Diagram/VBATT*%
X63195200Y-92506800D03*
%TD*%
D24*
%TO.P,J3,1*%
%TO.N,/Block Diagram/AUX1*%
X68021200Y-95072200D03*
D25*
X68021200Y-95072200D03*
%TD*%
D26*
%TO.P,U9,1,1D+*%
%TO.N,/Block Diagram/USB_DEV_D-*%
X75300100Y-73155200D03*
%TO.P,U9,2,2D+*%
%TO.N,unconnected-(U9-2D+-Pad2)*%
X75300100Y-73555200D03*
D27*
%TO.P,U9,3,D+*%
%TO.N,/Block Diagram/USB_D-*%
X75393600Y-74123700D03*
%TO.P,U9,4,GND*%
%TO.N,GND*%
X75793600Y-74123700D03*
%TO.P,U9,5,D-*%
%TO.N,/Block Diagram/USB_D+*%
X76193600Y-74123700D03*
D26*
%TO.P,U9,6,2D-*%
%TO.N,unconnected-(U9-2D--Pad6)*%
X76287100Y-73555200D03*
%TO.P,U9,7,1D-*%
%TO.N,/Block Diagram/USB_DEV_D+*%
X76287100Y-73155200D03*
D27*
%TO.P,U9,8,~{OE}*%
%TO.N,/Block Diagram/Data Switches/RESET*%
X76193600Y-72586700D03*
%TO.P,U9,9,VCC*%
%TO.N,/Block Diagram/Data Switches/P3V3*%
X75793600Y-72586700D03*
%TO.P,U9,10,S*%
%TO.N,GND*%
X75393600Y-72586700D03*
%TD*%
D28*
%TO.P,JP2,1,A*%
%TO.N,Net-(JP2-A)*%
X60071000Y-75274000D03*
D29*
%TO.P,JP2,2,B*%
%TO.N,Net-(JP2-B)*%
X60071000Y-73824000D03*
%TD*%
D28*
%TO.P,JP3,1,A*%
%TO.N,Net-(JP2-B)*%
X60071000Y-71210000D03*
D29*
%TO.P,JP3,2,B*%
%TO.N,Net-(JP3-B)*%
X60071000Y-69760000D03*
%TD*%
D30*
%TO.P,J4,1*%
%TO.N,/Block Diagram/AUX2*%
X69824600Y-95072200D03*
D31*
X70396100Y-95072200D03*
%TD*%
D18*
%TO.P,R6,1*%
%TO.N,/Block Diagram/AUX1*%
X58176000Y-73486800D03*
%TO.P,R6,2*%
%TO.N,Net-(U5-PA9{slash}PA11)*%
X57156000Y-73486800D03*
%TD*%
D24*
%TO.P,J8,1*%
%TO.N,/Block Diagram/USB_D+*%
X65862200Y-95834200D03*
D32*
X66040000Y-96723200D03*
%TD*%
D33*
%TO.P,J7,1*%
%TO.N,/Block Diagram/USB_D-*%
X66014600Y-93167200D03*
D24*
X65836800Y-94056200D03*
%TD*%
D28*
%TO.P,JP1,1,A*%
%TO.N,Net-(JP1-A)*%
X70612000Y-81624000D03*
D29*
%TO.P,JP1,2,B*%
%TO.N,/Block Diagram/Power Input/LDO_EN*%
X70612000Y-80174000D03*
%TD*%
D34*
%TO.P,C8,1*%
%TO.N,/Block Diagram/Payload Power Control/DETECT*%
X60195400Y-55753000D03*
%TO.P,C8,2*%
%TO.N,GND*%
X59235400Y-55753000D03*
%TD*%
D30*
%TO.P,J6,1*%
%TO.N,/Block Diagram/GPIO0*%
X62255400Y-95072200D03*
D35*
X62255400Y-95072200D03*
%TD*%
D36*
%TO.P,C5,1*%
%TO.N,/Block Diagram/Data Switches/P3V3*%
X66294000Y-80109000D03*
%TO.P,C5,2*%
%TO.N,GND*%
X66294000Y-79149000D03*
%TD*%
D17*
%TO.P,C10,1*%
%TO.N,Net-(U7-TIMER)*%
X64897000Y-76482000D03*
%TO.P,C10,2*%
%TO.N,GND*%
X64897000Y-77442000D03*
%TD*%
D36*
%TO.P,C13,1*%
%TO.N,/Block Diagram/Payload Power Control/VBATT_PROT*%
X63119000Y-71981000D03*
%TO.P,C13,2*%
%TO.N,GND*%
X63119000Y-71021000D03*
%TD*%
D13*
%TO.P,R1,1*%
%TO.N,/Block Diagram/Power Input/RANGE_SEL*%
X64389000Y-82040000D03*
%TO.P,R1,2*%
%TO.N,Net-(U3-INH)*%
X64389000Y-83060000D03*
%TD*%
D37*
%TO.P,R8,1*%
%TO.N,Net-(U5-PA0)*%
X53473000Y-76280800D03*
%TO.P,R8,2*%
%TO.N,Net-(JP2-A)*%
X54493000Y-76280800D03*
%TD*%
D24*
%TO.P,J5,1*%
%TO.N,/Block Diagram/GPIO1*%
X64058800Y-95072200D03*
D38*
X64058800Y-95072200D03*
%TD*%
D36*
%TO.P,C18,1*%
%TO.N,GND*%
X67945000Y-77442000D03*
%TO.P,C18,2*%
%TO.N,/Block Diagram/Payload Power Control/IMON*%
X67945000Y-76482000D03*
%TD*%
D13*
%TO.P,R16,1*%
%TO.N,Net-(U7-PD)*%
X69723000Y-72134000D03*
%TO.P,R16,2*%
%TO.N,Net-(U7-FB)*%
X69723000Y-73154000D03*
%TD*%
D39*
%TO.P,U7,1,EN*%
%TO.N,Net-(U7-EN)*%
X64421000Y-75060000D03*
D40*
%TO.P,U7,2,AUTO*%
%TO.N,unconnected-(U7-AUTO-Pad2)*%
X64921000Y-75060000D03*
%TO.P,U7,3,N/C*%
%TO.N,unconnected-(U7-N{slash}C-Pad3)*%
X65421000Y-75060000D03*
%TO.P,U7,4,TIMER*%
%TO.N,Net-(U7-TIMER)*%
X65921000Y-75060000D03*
%TO.P,U7,5,ISET*%
%TO.N,Net-(U7-ISET)*%
X66421000Y-75060000D03*
%TO.P,U7,6,SS*%
%TO.N,Net-(U7-SS)*%
X66921000Y-75060000D03*
%TO.P,U7,7,GND*%
%TO.N,GND*%
X67421000Y-75060000D03*
%TO.P,U7,8,IMON*%
%TO.N,/Block Diagram/Payload Power Control/IMON*%
X67921000Y-75060000D03*
%TO.P,U7,9,FLTB*%
%TO.N,/Block Diagram/Payload Power Control/LS_FAULT*%
X68421000Y-75060000D03*
D41*
%TO.P,U7,10,PG*%
%TO.N,/Block Diagram/Payload Power Control/LS_PWR_GOOD*%
X68821000Y-74160000D03*
%TO.P,U7,11,FB*%
%TO.N,Net-(U7-FB)*%
X68821000Y-73160000D03*
D40*
%TO.P,U7,12,PD*%
%TO.N,Net-(U7-PD)*%
X68421000Y-72260000D03*
%TO.P,U7,13,VOUT*%
X67921000Y-72260000D03*
%TO.P,U7,14,VOUT*%
X67421000Y-72260000D03*
%TO.P,U7,15,VOUT*%
X66921000Y-72260000D03*
%TO.P,U7,16,VOUT*%
X66421000Y-72260000D03*
%TO.P,U7,17,VOUT*%
X65921000Y-72260000D03*
%TO.P,U7,18,VOUT*%
X65421000Y-72260000D03*
%TO.P,U7,19,VOUT*%
X64921000Y-72260000D03*
%TO.P,U7,20,VOUT*%
X64421000Y-72260000D03*
D42*
%TO.P,U7,21,VIN*%
%TO.N,/Block Diagram/Payload Power Control/VBATT_PROT*%
X64046000Y-73160000D03*
%TO.P,U7,22,VIN*%
X64046000Y-74160000D03*
D43*
%TO.P,U7,23,VIN*%
X64421000Y-73660000D03*
%TO.P,U7,24,VIN*%
X65321000Y-73660000D03*
%TO.P,U7,25,VIN*%
X66221000Y-73660000D03*
%TO.P,U7,26,VIN*%
X67121000Y-73660000D03*
%TO.P,U7,27,VIN*%
X68021000Y-73660000D03*
%TD*%
D44*
%TO.P,FID3,*%
%TO.N,*%
X76149200Y-51054000D03*
%TD*%
D19*
%TO.P,C32,1*%
%TO.N,/Block Diagram/Payload Power Control/VOUT*%
X56924000Y-53340000D03*
%TO.P,C32,2*%
%TO.N,GND*%
X57884000Y-53340000D03*
%TD*%
D36*
%TO.P,C7,1*%
%TO.N,GND*%
X52763800Y-69064600D03*
%TO.P,C7,2*%
%TO.N,/Block Diagram/Data Switches/P3V3*%
X52763800Y-68104600D03*
%TD*%
D24*
%TO.P,J9,1*%
%TO.N,GND*%
X69697600Y-88976200D03*
D45*
X70332600Y-88976200D03*
%TD*%
D46*
%TO.P,U10,1,COM2*%
%TO.N,/Block Diagram/Data Switches/GPIO_DOWN_1*%
X65016000Y-56581000D03*
%TO.P,U10,2,COM1*%
%TO.N,/Block Diagram/Data Switches/GPIO_DOWN_0*%
X64516000Y-56581000D03*
%TO.P,U10,3,GND*%
%TO.N,GND*%
X64016000Y-56581000D03*
%TO.P,U10,4,VCCEN*%
%TO.N,Net-(U10-VCCEN)*%
X64016000Y-57719000D03*
%TO.P,U10,5,NO1*%
%TO.N,/Block Diagram/GPIO0*%
X64516000Y-57719000D03*
%TO.P,U10,6,NO2*%
%TO.N,/Block Diagram/GPIO1*%
X65016000Y-57719000D03*
%TD*%
D47*
%TO.P,U4,1,OUT*%
%TO.N,/Block Diagram/Data Switches/P3V3*%
X67168000Y-80300000D03*
%TO.P,U4,2,NC*%
%TO.N,unconnected-(U4-NC-Pad2)*%
X67818000Y-80300000D03*
%TO.P,U4,3,GND*%
%TO.N,GND*%
X68468000Y-80300000D03*
%TO.P,U4,4,EN*%
%TO.N,/Block Diagram/Power Input/LDO_EN*%
X68468000Y-78450000D03*
%TO.P,U4,5,PG*%
%TO.N,/Block Diagram/Payload Power Control/~{NRST}*%
X67818000Y-78450000D03*
%TO.P,U4,6,IN*%
%TO.N,/Block Diagram/Payload Power Control/VBATT_PROT*%
X67168000Y-78450000D03*
D48*
%TO.P,U4,7,EP*%
%TO.N,GND*%
X67818000Y-79375000D03*
%TD*%
D13*
%TO.P,R7,1*%
%TO.N,/Block Diagram/Data Switches/P3V3*%
X58148600Y-69319200D03*
%TO.P,R7,2*%
%TO.N,Net-(JP3-B)*%
X58148600Y-70339200D03*
%TD*%
D34*
%TO.P,C23,1*%
%TO.N,Net-(U7-PD)*%
X65402400Y-70612000D03*
%TO.P,C23,2*%
%TO.N,GND*%
X64442400Y-70612000D03*
%TD*%
D49*
%TO.P,U3,1,VIN*%
%TO.N,Net-(U3-VIN)*%
X65910000Y-82562000D03*
%TO.P,U3,2,REF*%
%TO.N,/Block Diagram/Power Input/RANGE_SEL*%
X65910000Y-83062000D03*
%TO.P,U3,3,INH*%
%TO.N,Net-(U3-INH)*%
X65910000Y-83562000D03*
%TO.P,U3,4,INL*%
%TO.N,Net-(U3-INL)*%
X65910000Y-84062000D03*
%TO.P,U3,5,PS*%
%TO.N,GND*%
X68710000Y-84062000D03*
%TO.P,U3,6,RS*%
%TO.N,/Block Diagram/Power Input/RANGE_SEL*%
X68710000Y-83562000D03*
%TO.P,U3,7,GND*%
%TO.N,GND*%
X68710000Y-83062000D03*
%TO.P,U3,8,OUT*%
%TO.N,Net-(JP1-A)*%
X68710000Y-82562000D03*
D50*
%TO.P,U3,9,EP*%
%TO.N,GND*%
X67310000Y-83312000D03*
%TD*%
D37*
%TO.P,R3,1*%
%TO.N,Net-(U3-INL)*%
X64387000Y-85979000D03*
%TO.P,R3,2*%
%TO.N,GND*%
X65407000Y-85979000D03*
%TD*%
D51*
%TO.P,U5,1,PC15/OSCX_OUT*%
%TO.N,GND*%
X53397000Y-72486800D03*
D52*
%TO.P,U5,2,VDD*%
%TO.N,/Block Diagram/Data Switches/P3V3*%
X53572000Y-72986800D03*
%TO.P,U5,3,VSS*%
%TO.N,GND*%
X53572000Y-73486800D03*
%TO.P,U5,4,PF2/~{NRST}*%
%TO.N,/Block Diagram/Payload Power Control/~{NRST}*%
X53572000Y-73986800D03*
D53*
%TO.P,U5,5,PA0*%
%TO.N,Net-(U5-PA0)*%
X53397000Y-74486800D03*
D54*
%TO.P,U5,6,PA1*%
%TO.N,/Block Diagram/Payload Power Control/IMON*%
X53872000Y-74961800D03*
D55*
%TO.P,U5,7,PA2*%
%TO.N,/Block Diagram/Payload Power Control/1WIRE_TX*%
X54372000Y-74786800D03*
%TO.P,U5,8,PA3*%
%TO.N,/Block Diagram/Payload Power Control/1WIRE_RX*%
X54872000Y-74786800D03*
%TO.P,U5,9,PA4*%
%TO.N,/Block Diagram/Payload Power Control/LS_FAULT*%
X55372000Y-74786800D03*
D56*
%TO.P,U5,10,PA5*%
%TO.N,/Block Diagram/Payload Power Control/LS_PWR_GOOD*%
X55872000Y-74961800D03*
D57*
%TO.P,U5,11,PA6*%
%TO.N,/Block Diagram/Payload Power Control/I_SNS*%
X56347000Y-74486800D03*
D52*
%TO.P,U5,12,PA7*%
%TO.N,/Block Diagram/Payload Power Control/I_FAULT*%
X56172000Y-73986800D03*
%TO.P,U5,13,PA8*%
%TO.N,unconnected-(U5-PA8-Pad13)*%
X56172000Y-73486800D03*
%TO.P,U5,14,PA9/PA11*%
%TO.N,Net-(U5-PA9{slash}PA11)*%
X56172000Y-72986800D03*
D58*
%TO.P,U5,15,PA10/PA12*%
%TO.N,Net-(U5-PA10{slash}PA12)*%
X56347000Y-72486800D03*
D59*
%TO.P,U5,16,PA13/SWDIO*%
%TO.N,/Block Diagram/Payload Power Control/SWDIO*%
X55872000Y-72011800D03*
D55*
%TO.P,U5,17,PA14/BOOT0/SWCLK*%
%TO.N,/Block Diagram/Payload Power Control/SWCLK*%
X55372000Y-72186800D03*
%TO.P,U5,18,PB6*%
%TO.N,unconnected-(U5-PB6-Pad18)*%
X54872000Y-72186800D03*
%TO.P,U5,19,PB7*%
%TO.N,unconnected-(U5-PB7-Pad19)*%
X54372000Y-72186800D03*
D60*
%TO.P,U5,20,PC14/OSCX_IN*%
%TO.N,unconnected-(U5-PC14{slash}OSCX_IN-Pad20)*%
X53872000Y-72011800D03*
%TD*%
D61*
%TO.P,R18,1*%
%TO.N,/Block Diagram/Data Switches/P3V3*%
X69723000Y-75186000D03*
%TO.P,R18,2*%
%TO.N,/Block Diagram/Payload Power Control/LS_PWR_GOOD*%
X69723000Y-74166000D03*
%TD*%
D36*
%TO.P,C2,1*%
%TO.N,/Block Diagram/Payload Power Control/VBATT_PROT*%
X65278000Y-80109000D03*
%TO.P,C2,2*%
%TO.N,GND*%
X65278000Y-79149000D03*
%TD*%
%TO.P,C29,1*%
%TO.N,Net-(U10-VCCEN)*%
X62890400Y-58188800D03*
%TO.P,C29,2*%
%TO.N,GND*%
X62890400Y-57228800D03*
%TD*%
D17*
%TO.P,C6,1*%
%TO.N,/Block Diagram/Data Switches/P3V3*%
X52586000Y-73032200D03*
%TO.P,C6,2*%
%TO.N,GND*%
X52586000Y-73992200D03*
%TD*%
D13*
%TO.P,R14,1*%
%TO.N,Net-(U7-ISET)*%
X65913000Y-76452000D03*
%TO.P,R14,2*%
%TO.N,GND*%
X65913000Y-77472000D03*
%TD*%
D34*
%TO.P,C33,1*%
%TO.N,/Block Diagram/Payload Power Control/VOUT*%
X75460800Y-53009800D03*
%TO.P,C33,2*%
%TO.N,GND*%
X74500800Y-53009800D03*
%TD*%
D36*
%TO.P,C30,1*%
%TO.N,/Block Diagram/Data Switches/P3V3*%
X60071000Y-66316800D03*
%TO.P,C30,2*%
%TO.N,GND*%
X60071000Y-65356800D03*
%TD*%
D44*
%TO.P,FID1,*%
%TO.N,*%
X56311800Y-51130200D03*
%TD*%
D37*
%TO.P,R4,1*%
%TO.N,/Block Diagram/Payload Power Control/VBATT_PROT*%
X64895000Y-81026000D03*
%TO.P,R4,2*%
%TO.N,Net-(U3-VIN)*%
X65915000Y-81026000D03*
%TD*%
D44*
%TO.P,FID5,*%
%TO.N,*%
X71094600Y-91846400D03*
%TD*%
D62*
%TO.P,U8,1,IP+*%
%TO.N,Net-(U7-PD)*%
X68207000Y-70408000D03*
D63*
X68007000Y-69873000D03*
D64*
X68307000Y-69773000D03*
D62*
%TO.P,U8,2,IP-*%
%TO.N,/Block Diagram/Payload Power Control/VOUT*%
X69207000Y-70408000D03*
D63*
X69407000Y-69873000D03*
D64*
X69107000Y-69773000D03*
D65*
%TO.P,U8,3,GND*%
%TO.N,GND*%
X70157000Y-68858000D03*
%TO.P,U8,4,~{FAULT}*%
%TO.N,/Block Diagram/Payload Power Control/I_FAULT*%
X70157000Y-68358000D03*
D66*
%TO.P,U8,5,NC*%
%TO.N,unconnected-(U8-NC-Pad5)*%
X69457000Y-67658000D03*
%TO.P,U8,6,NC*%
%TO.N,unconnected-(U8-NC-Pad6)*%
X68957000Y-67658000D03*
%TO.P,U8,7,NC*%
%TO.N,unconnected-(U8-NC-Pad7)*%
X68457000Y-67658000D03*
%TO.P,U8,8,NC*%
%TO.N,unconnected-(U8-NC-Pad8)*%
X67957000Y-67658000D03*
D65*
%TO.P,U8,9,VIOUT*%
%TO.N,/Block Diagram/Payload Power Control/I_SNS*%
X67257000Y-68358000D03*
%TO.P,U8,10,VCC*%
%TO.N,/Block Diagram/Data Switches/P3V3*%
X67257000Y-68858000D03*
%TD*%
D67*
%TO.P,J11,1,VCC*%
%TO.N,/Block Diagram/Data Switches/P3V3*%
X54618000Y-66882800D03*
%TO.P,J11,2,SWDIO*%
%TO.N,/Block Diagram/Payload Power Control/SWDIO*%
X55888000Y-66882800D03*
%TO.P,J11,3,~{RESET}*%
%TO.N,/Block Diagram/Payload Power Control/~{NRST}*%
X54618000Y-68152800D03*
%TO.P,J11,4,SWCLK*%
%TO.N,/Block Diagram/Payload Power Control/SWCLK*%
X55888000Y-68152800D03*
%TO.P,J11,5,GND*%
%TO.N,GND*%
X54618000Y-69422800D03*
%TO.P,J11,6,SWO*%
%TO.N,unconnected-(J11-SWO-Pad6)*%
X55888000Y-69422800D03*
%TD*%
D68*
%TO.P,J10,1,1*%
%TO.N,/Block Diagram/Payload Power Control/VOUT*%
X55880000Y-54584600D03*
D24*
%TO.P,J10,2,2*%
%TO.N,GND*%
X58420000Y-54584600D03*
%TO.P,J10,3,3*%
%TO.N,/Block Diagram/Payload Power Control/DETECT*%
X60960000Y-54584600D03*
%TO.P,J10,4,4*%
%TO.N,/Block Diagram/Data Switches/GPIO_DOWN_0*%
X63500000Y-54584600D03*
%TO.P,J10,5,5*%
%TO.N,/Block Diagram/Data Switches/GPIO_DOWN_1*%
X66040000Y-54584600D03*
%TO.P,J10,6,6*%
%TO.N,/Block Diagram/USB_DEV_D-*%
X68580000Y-54584600D03*
%TO.P,J10,7,7*%
%TO.N,/Block Diagram/USB_DEV_D+*%
X71120000Y-54584600D03*
%TO.P,J10,8,8*%
%TO.N,GND*%
X73660000Y-54584600D03*
%TO.P,J10,9,9*%
%TO.N,/Block Diagram/Payload Power Control/VOUT*%
X76200000Y-54584600D03*
%TD*%
D69*
%TO.N,/Block Diagram/VBATT*%
X62551177Y-89365827D03*
X62558818Y-88223553D03*
X63137596Y-88229283D03*
X62553087Y-88796600D03*
X63139506Y-89373468D03*
X63143326Y-88800420D03*
D70*
%TO.N,GND*%
X70612000Y-62230000D03*
X67421000Y-75060000D03*
X75819000Y-74650600D03*
D69*
X72125800Y-56515000D03*
D70*
X59436000Y-62230000D03*
X68961000Y-77470000D03*
X67208400Y-79629000D03*
D69*
X66931169Y-83693452D03*
D70*
X54152800Y-73431400D03*
X70104000Y-62230000D03*
X67945000Y-77442000D03*
X67081400Y-91033600D03*
X70612000Y-61722000D03*
X70104000Y-61722000D03*
D69*
X77531000Y-56515000D03*
D70*
X69850000Y-54615600D03*
X58928000Y-62230000D03*
X59436000Y-61722000D03*
D69*
X63500000Y-56642000D03*
D70*
X59766200Y-58216800D03*
X77241400Y-72771000D03*
X57886600Y-64871600D03*
X58928000Y-61722000D03*
X69342000Y-68858000D03*
X74320400Y-72821800D03*
X63909000Y-77343000D03*
X63119000Y-71021000D03*
D69*
%TO.N,/Block Diagram/Payload Power Control/VBATT_PROT*%
X62230000Y-82550000D03*
X62865000Y-82550000D03*
X62103000Y-74295000D03*
X62738000Y-73025000D03*
X62865000Y-81915000D03*
X62103000Y-73025000D03*
X62738000Y-73660000D03*
X62103000Y-73660000D03*
X62230000Y-81915000D03*
X63500000Y-81915000D03*
D70*
X67168000Y-78450000D03*
D69*
X62738000Y-74295000D03*
X63500000Y-82550000D03*
D70*
%TO.N,/Block Diagram/Data Switches/P3V3*%
X61595000Y-58597800D03*
X71374000Y-67181000D03*
X69723000Y-75184000D03*
X75793600Y-72085200D03*
X55608600Y-64469800D03*
X68354000Y-68859400D03*
X67338000Y-81026000D03*
X53873400Y-72974200D03*
X59512200Y-67284600D03*
D69*
%TO.N,Net-(Q1-G)*%
X63093600Y-86233000D03*
%TO.N,/Block Diagram/Payload Power Control/VOUT*%
X75184000Y-58166000D03*
D70*
X70612000Y-63754000D03*
D69*
X56388000Y-57658000D03*
D70*
X61976000Y-63754000D03*
X61468000Y-63754000D03*
D69*
X74422000Y-58166000D03*
X67183000Y-58166000D03*
X75946000Y-58166000D03*
D70*
X70104000Y-63754000D03*
D69*
X76708000Y-58166000D03*
X67945000Y-58166000D03*
D70*
X70612000Y-64262000D03*
D69*
X66421000Y-58166000D03*
D70*
X70104000Y-64262000D03*
X61976000Y-64262000D03*
X61468000Y-64262000D03*
D69*
X69342000Y-70358000D03*
X56388000Y-56896000D03*
X73660000Y-58166000D03*
D70*
%TO.N,/Block Diagram/Payload Power Control/DETECT*%
X55092600Y-74064400D03*
%TO.N,/Block Diagram/Payload Power Control/IMON*%
X54414800Y-75493400D03*
X67919600Y-75666600D03*
%TO.N,/Block Diagram/AUX2*%
X57785000Y-72821800D03*
%TO.N,/Block Diagram/AUX1*%
X57886600Y-74015600D03*
%TO.N,/Block Diagram/GPIO1*%
X65265300Y-58508900D03*
%TO.N,/Block Diagram/GPIO0*%
X64516000Y-58521600D03*
%TO.N,/Block Diagram/USB_D-*%
X75285600Y-74828400D03*
%TO.N,/Block Diagram/USB_D+*%
X76327000Y-74828400D03*
%TO.N,/Block Diagram/Payload Power Control/~{NRST}*%
X53898800Y-74015600D03*
X67818000Y-78450000D03*
X54973600Y-71454800D03*
%TO.N,/Block Diagram/Power Input/RANGE_SEL*%
X70205600Y-83566000D03*
X65201800Y-82499200D03*
%TO.N,/Block Diagram/Payload Power Control/1WIRE_TX*%
X54356000Y-74422000D03*
%TO.N,/Block Diagram/Payload Power Control/LS_PWR_GOOD*%
X56142000Y-75772800D03*
X69723000Y-74166000D03*
X58902600Y-64871600D03*
%TO.N,/Block Diagram/Payload Power Control/LS_FAULT*%
X68421000Y-75060000D03*
X55557800Y-75823600D03*
%TO.N,/Block Diagram/Payload Power Control/I_FAULT*%
X71374000Y-68224400D03*
X57310400Y-74528200D03*
%TO.N,/Block Diagram/Payload Power Control/1WIRE_RX*%
X54922800Y-75671200D03*
%TO.N,Net-(JP2-B)*%
X58343800Y-64363600D03*
X61798200Y-70205600D03*
X63879000Y-76327000D03*
%TO.N,/Block Diagram/Payload Power Control/I_SNS*%
X66624200Y-68351400D03*
X57412000Y-75061600D03*
%TO.N,Net-(U7-EN)*%
X64643000Y-75793600D03*
%TO.N,Net-(U7-FB)*%
X69723000Y-73154000D03*
%TO.N,/Block Diagram/USB_DEV_D-*%
X74904600Y-72796400D03*
%TO.N,/Block Diagram/USB_DEV_D+*%
X76682600Y-72771000D03*
%TO.N,Net-(U11-~{RESET})*%
X57683400Y-58064400D03*
%TO.N,/Block Diagram/Data Switches/RESET*%
X60172600Y-58674000D03*
X62128400Y-58064400D03*
X77927200Y-72263000D03*
%TO.N,/Block Diagram/Data Switches/DATA_ENABLE*%
X57894600Y-66348200D03*
X55143400Y-56134000D03*
%TD*%
D71*
%TO.N,*%
X68148200Y-69392800D02*
X68554600Y-69392800D01*
%TO.N,GND*%
X69355400Y-84062000D02*
X69545200Y-84251800D01*
D72*
X59235400Y-55400000D02*
X58420000Y-54584600D01*
X57886600Y-64871600D02*
X57890000Y-64868200D01*
X52128800Y-72318400D02*
X51968400Y-72478800D01*
X62913200Y-57228800D02*
X63500000Y-56642000D01*
X75393600Y-72294800D02*
X75393600Y-72586700D01*
X53122000Y-69422800D02*
X54618000Y-69422800D01*
X64016000Y-56581000D02*
X63561000Y-56581000D01*
D73*
X75793600Y-74625200D02*
X75819000Y-74650600D01*
D72*
X74320400Y-72821800D02*
X74320400Y-72390000D01*
X53091400Y-73486800D02*
X52586000Y-73992200D01*
X68468000Y-80856000D02*
X68298000Y-81026000D01*
X53017800Y-72318400D02*
X52128800Y-72318400D01*
D71*
X57884000Y-53340000D02*
X57884000Y-54048600D01*
D72*
X51968400Y-73555000D02*
X52405600Y-73992200D01*
X63909000Y-77343000D02*
X64798000Y-77343000D01*
X53572000Y-73486800D02*
X53091400Y-73486800D01*
D71*
X67560000Y-83062000D02*
X67310000Y-83312000D01*
D73*
X75819000Y-74650600D02*
X75819000Y-75209400D01*
D72*
X62890400Y-57228800D02*
X62913200Y-57228800D01*
D71*
X68710000Y-83062000D02*
X67560000Y-83062000D01*
D72*
X53397000Y-72486800D02*
X53186200Y-72486800D01*
X64798000Y-77343000D02*
X64897000Y-77442000D01*
X60479800Y-58267600D02*
X60431000Y-58218800D01*
X63561000Y-56581000D02*
X63500000Y-56642000D01*
X53186200Y-72486800D02*
X53017800Y-72318400D01*
X70157000Y-68858000D02*
X69342000Y-68858000D01*
X52405600Y-73992200D02*
X52586000Y-73992200D01*
X66294000Y-79149000D02*
X66728400Y-79149000D01*
D71*
X57884000Y-54048600D02*
X58420000Y-54584600D01*
D72*
X75209400Y-72110600D02*
X75393600Y-72294800D01*
X66728400Y-79149000D02*
X67208400Y-79629000D01*
X74599800Y-72110600D02*
X75209400Y-72110600D01*
X51968400Y-72478800D02*
X51968400Y-73555000D01*
X59235400Y-55753000D02*
X59235400Y-55400000D01*
D71*
X68060000Y-84062000D02*
X67310000Y-83312000D01*
X74500800Y-53743800D02*
X73660000Y-54584600D01*
D72*
X68468000Y-80300000D02*
X68468000Y-80856000D01*
X57890000Y-64868200D02*
X57894600Y-64868200D01*
D71*
X68710000Y-84062000D02*
X69355400Y-84062000D01*
D72*
X60431000Y-58218800D02*
X59029600Y-58218800D01*
X54097400Y-73486800D02*
X53572000Y-73486800D01*
X54152800Y-73431400D02*
X54097400Y-73486800D01*
X52763800Y-69064600D02*
X53122000Y-69422800D01*
D71*
X68710000Y-84062000D02*
X68060000Y-84062000D01*
D73*
X75793600Y-74123700D02*
X75793600Y-74625200D01*
D72*
X74320400Y-72390000D02*
X74599800Y-72110600D01*
D71*
X74500800Y-53009800D02*
X74500800Y-53743800D01*
D72*
%TO.N,/Block Diagram/Data Switches/P3V3*%
X67258400Y-68859400D02*
X67257000Y-68858000D01*
X59512200Y-66965800D02*
X58894600Y-66348200D01*
X75793600Y-72586700D02*
X75793600Y-72085200D01*
X54618000Y-66882800D02*
X53985600Y-66882800D01*
X53860800Y-72986800D02*
X53572000Y-72986800D01*
X53985600Y-66882800D02*
X52763800Y-68104600D01*
X55608600Y-64469800D02*
X54592600Y-64469800D01*
X53873400Y-72974200D02*
X53860800Y-72986800D01*
X58148600Y-68648200D02*
X59512200Y-67284600D01*
X67168000Y-80856000D02*
X67338000Y-81026000D01*
X61079800Y-58293000D02*
X61290200Y-58293000D01*
X67168000Y-80300000D02*
X67168000Y-80856000D01*
X52631400Y-72986800D02*
X53572000Y-72986800D01*
X54414800Y-64647600D02*
X54414800Y-66679600D01*
X52586000Y-73032200D02*
X52631400Y-72986800D01*
X58148600Y-69319200D02*
X58148600Y-68648200D01*
X54414800Y-66679600D02*
X54618000Y-66882800D01*
X54592600Y-64469800D02*
X54414800Y-64647600D01*
X59512200Y-67284600D02*
X59512200Y-66875600D01*
X59512200Y-66875600D02*
X60071000Y-66316800D01*
X67168000Y-80300000D02*
X66485000Y-80300000D01*
X61290200Y-58293000D02*
X61595000Y-58597800D01*
X59512200Y-67284600D02*
X59512200Y-66965800D01*
X68354000Y-68859400D02*
X67258400Y-68859400D01*
X66485000Y-80300000D02*
X66294000Y-80109000D01*
%TO.N,/Block Diagram/Payload Power Control/DETECT*%
X60195400Y-55753000D02*
X60195400Y-55349200D01*
X60195400Y-55349200D02*
X60960000Y-54584600D01*
%TO.N,/Block Diagram/Payload Power Control/IMON*%
X67945000Y-76482000D02*
X68931000Y-76482000D01*
X54071900Y-75493400D02*
X53872000Y-75293500D01*
X53872000Y-75293500D02*
X53872000Y-74961800D01*
X68931000Y-76482000D02*
X68961000Y-76452000D01*
X67919600Y-76456600D02*
X67945000Y-76482000D01*
X67919600Y-75061400D02*
X67921000Y-75060000D01*
X54414800Y-75493400D02*
X54071900Y-75493400D01*
X67919600Y-75666600D02*
X67919600Y-76456600D01*
X67919600Y-75666600D02*
X67919600Y-75061400D01*
D73*
%TO.N,/Block Diagram/AUX2*%
X57785000Y-72821800D02*
X57825000Y-72821800D01*
D72*
X57825000Y-72821800D02*
X58176000Y-72470800D01*
D73*
%TO.N,/Block Diagram/AUX1*%
X58176000Y-73726200D02*
X58176000Y-73486800D01*
D72*
X57886600Y-74015600D02*
X58176000Y-73726200D01*
%TO.N,/Block Diagram/GPIO1*%
X65016000Y-58259600D02*
X65016000Y-57719000D01*
X65265300Y-58508900D02*
X65016000Y-58259600D01*
%TO.N,/Block Diagram/GPIO0*%
X64516000Y-57719000D02*
X64516000Y-58521600D01*
D73*
%TO.N,/Block Diagram/USB_D-*%
X75285600Y-74828400D02*
X75285600Y-74231700D01*
X75285600Y-74231700D02*
X75393600Y-74123700D01*
%TO.N,/Block Diagram/USB_D+*%
X76327000Y-74257100D02*
X76193600Y-74123700D01*
X76327000Y-74828400D02*
X76327000Y-74257100D01*
%TO.N,/Block Diagram/Payload Power Control/SWCLK*%
X56396000Y-68152800D02*
X57208800Y-68965600D01*
X57208800Y-68965600D02*
X57208800Y-71302400D01*
X55507000Y-71505600D02*
X55372000Y-71640600D01*
X57208800Y-71302400D02*
X57005600Y-71505600D01*
X55888000Y-68152800D02*
X56396000Y-68152800D01*
X55372000Y-71640600D02*
X55372000Y-72186800D01*
X57005600Y-71505600D02*
X55507000Y-71505600D01*
%TO.N,/Block Diagram/Payload Power Control/SWDIO*%
X55873800Y-72013600D02*
X55872000Y-72011800D01*
X55888000Y-66882800D02*
X57564400Y-68559200D01*
X57564400Y-71607200D02*
X57285000Y-71886600D01*
X57564400Y-68559200D02*
X57564400Y-71607200D01*
X56497600Y-72013600D02*
X55873800Y-72013600D01*
X56624600Y-71886600D02*
X56497600Y-72013600D01*
X57285000Y-71886600D02*
X56624600Y-71886600D01*
%TO.N,/Block Diagram/Payload Power Control/~{NRST}*%
X55253000Y-68787800D02*
X54618000Y-68152800D01*
X54973600Y-71454800D02*
X55049800Y-71454800D01*
X55253000Y-71251600D02*
X55253000Y-68787800D01*
D72*
X53898800Y-74015600D02*
X53870000Y-73986800D01*
D73*
X55049800Y-71454800D02*
X55253000Y-71251600D01*
D72*
X53870000Y-73986800D02*
X53572000Y-73986800D01*
%TO.N,/Block Diagram/Power Input/LDO_EN*%
X68468000Y-78450000D02*
X68888000Y-78450000D01*
X68888000Y-78450000D02*
X70612000Y-80174000D01*
%TO.N,Net-(JP3-B)*%
X58148600Y-70339200D02*
X58727800Y-69760000D01*
X58727800Y-69760000D02*
X60071000Y-69760000D01*
%TO.N,/Block Diagram/Power Input/RANGE_SEL*%
X70205600Y-83566000D02*
X70201600Y-83562000D01*
X64590200Y-82040000D02*
X64389000Y-82040000D01*
X65074800Y-82524600D02*
X64590200Y-82040000D01*
X65176400Y-82524600D02*
X65074800Y-82524600D01*
X70201600Y-83562000D02*
X68710000Y-83562000D01*
X65201800Y-82499200D02*
X65176400Y-82524600D01*
X65201800Y-82499200D02*
X65201800Y-82778600D01*
X65201800Y-82778600D02*
X65485200Y-83062000D01*
X65485200Y-83062000D02*
X65910000Y-83062000D01*
%TO.N,/Block Diagram/Payload Power Control/1WIRE_TX*%
X54356000Y-74422000D02*
X54372000Y-74438000D01*
X54372000Y-74438000D02*
X54372000Y-74786800D01*
%TO.N,Net-(JP1-A)*%
X69674000Y-82562000D02*
X70612000Y-81624000D01*
X68710000Y-82562000D02*
X69674000Y-82562000D01*
%TO.N,/Block Diagram/Payload Power Control/LS_PWR_GOOD*%
X58899200Y-64868200D02*
X58894600Y-64868200D01*
X68827000Y-74166000D02*
X68821000Y-74160000D01*
X58902600Y-64871600D02*
X58899200Y-64868200D01*
X55872000Y-75502800D02*
X55872000Y-74961800D01*
X69723000Y-74166000D02*
X68827000Y-74166000D01*
X56142000Y-75772800D02*
X55872000Y-75502800D01*
%TO.N,/Block Diagram/Payload Power Control/LS_FAULT*%
X55372000Y-75637800D02*
X55372000Y-74786800D01*
X55557800Y-75823600D02*
X55372000Y-75637800D01*
%TO.N,/Block Diagram/Payload Power Control/I_FAULT*%
X71217000Y-68358000D02*
X71374000Y-68201000D01*
X56769000Y-73986800D02*
X56172000Y-73986800D01*
X70157000Y-68358000D02*
X71217000Y-68358000D01*
X57310400Y-74528200D02*
X56769000Y-73986800D01*
%TO.N,/Block Diagram/Payload Power Control/1WIRE_RX*%
X54922800Y-75671200D02*
X54872000Y-75620400D01*
X54872000Y-75620400D02*
X54872000Y-74786800D01*
%TO.N,Net-(JP2-A)*%
X59064200Y-76280800D02*
X60071000Y-75274000D01*
X54493000Y-76280800D02*
X59064200Y-76280800D01*
%TO.N,Net-(JP2-B)*%
X58343800Y-64363600D02*
X58394600Y-64414400D01*
D71*
X60071000Y-71210000D02*
X60793800Y-71210000D01*
X60071000Y-73824000D02*
X60071000Y-71210000D01*
D72*
X58394600Y-64414400D02*
X58394600Y-64868200D01*
D71*
X60793800Y-71210000D02*
X61798200Y-70205600D01*
D72*
%TO.N,/Block Diagram/Payload Power Control/I_SNS*%
X57208800Y-75061600D02*
X56634000Y-74486800D01*
X57412000Y-75061600D02*
X57208800Y-75061600D01*
X66624200Y-68351400D02*
X67250400Y-68351400D01*
X56634000Y-74486800D02*
X56347000Y-74486800D01*
X67250400Y-68351400D02*
X67257000Y-68358000D01*
%TO.N,Net-(U7-EN)*%
X64643000Y-75793600D02*
X64421000Y-75571600D01*
X64421000Y-75571600D02*
X64421000Y-75060000D01*
%TO.N,Net-(U7-TIMER)*%
X65760600Y-75844400D02*
X65921000Y-75684000D01*
X65921000Y-75684000D02*
X65921000Y-75060000D01*
X65278000Y-75844400D02*
X65760600Y-75844400D01*
X64897000Y-76225400D02*
X65278000Y-75844400D01*
X64897000Y-76482000D02*
X64897000Y-76225400D01*
%TO.N,Net-(U7-SS)*%
X66921000Y-76474000D02*
X66921000Y-75060000D01*
X66929000Y-76482000D02*
X66921000Y-76474000D01*
%TO.N,Net-(U3-INH)*%
X64389000Y-83945000D02*
X64873600Y-83945000D01*
X65256600Y-83562000D02*
X65910000Y-83562000D01*
X64389000Y-83060000D02*
X64389000Y-83945000D01*
X64873600Y-83945000D02*
X65256600Y-83562000D01*
%TO.N,Net-(U3-INL)*%
X64389000Y-85977000D02*
X64387000Y-85979000D01*
X64389000Y-84965000D02*
X64389000Y-85977000D01*
X65910000Y-84178600D02*
X65123600Y-84965000D01*
X65910000Y-84062000D02*
X65910000Y-84178600D01*
X65123600Y-84965000D02*
X64389000Y-84965000D01*
%TO.N,Net-(U3-VIN)*%
X65910000Y-81031000D02*
X65915000Y-81026000D01*
X65910000Y-82562000D02*
X65910000Y-81031000D01*
%TO.N,Net-(U5-PA10{slash}PA12)*%
X57140000Y-72486800D02*
X57156000Y-72470800D01*
X56347000Y-72486800D02*
X57140000Y-72486800D01*
%TO.N,Net-(U5-PA9{slash}PA11)*%
X56172000Y-72986800D02*
X56656000Y-72986800D01*
X56656000Y-72986800D02*
X57156000Y-73486800D01*
%TO.N,Net-(U5-PA0)*%
X53397000Y-76204800D02*
X53473000Y-76280800D01*
X53397000Y-74486800D02*
X53397000Y-76204800D01*
%TO.N,Net-(U7-ISET)*%
X65913000Y-76452000D02*
X65913000Y-76327000D01*
X66421000Y-75819000D02*
X66421000Y-75060000D01*
X65913000Y-76327000D02*
X66421000Y-75819000D01*
%TO.N,Net-(U7-FB)*%
X69717000Y-73160000D02*
X69723000Y-73154000D01*
X68821000Y-73160000D02*
X69717000Y-73160000D01*
%TO.N,Net-(U10-VCCEN)*%
X61079800Y-58793000D02*
X61079800Y-58793800D01*
X61391800Y-59105800D02*
X61976000Y-59105800D01*
X63546200Y-58188800D02*
X64016000Y-57719000D01*
X61976000Y-59105800D02*
X61976000Y-59103200D01*
X61079800Y-58793800D02*
X61391800Y-59105800D01*
X61976000Y-59103200D02*
X62890400Y-58188800D01*
X62890400Y-58188800D02*
X63546200Y-58188800D01*
D73*
%TO.N,/Block Diagram/Data Switches/GPIO_DOWN_1*%
X65016000Y-56581000D02*
X65016000Y-55608600D01*
X65016000Y-55608600D02*
X66040000Y-54584600D01*
%TO.N,/Block Diagram/Data Switches/GPIO_DOWN_0*%
X64516000Y-56581000D02*
X64516000Y-55600600D01*
X64516000Y-55600600D02*
X63500000Y-54584600D01*
D72*
%TO.N,/Block Diagram/USB_DEV_D-*%
X75300100Y-73155200D02*
X75060200Y-73155200D01*
D73*
X69311000Y-55315600D02*
X68580000Y-54584600D01*
D72*
X74904600Y-72999600D02*
X74904600Y-72796400D01*
X75060200Y-73155200D02*
X74904600Y-72999600D01*
D73*
X69625000Y-55315600D02*
X69311000Y-55315600D01*
%TO.N,/Block Diagram/USB_DEV_D+*%
X70075000Y-55315600D02*
X70389000Y-55315600D01*
X70389000Y-55315600D02*
X71120000Y-54584600D01*
D72*
X76501600Y-73155200D02*
X76682600Y-72974200D01*
X76682600Y-72974200D02*
X76682600Y-72771000D01*
X76287100Y-73155200D02*
X76501600Y-73155200D01*
%TO.N,Net-(U11-~{RESET})*%
X60471400Y-57759600D02*
X59590400Y-57759600D01*
X58549000Y-57198800D02*
X57683400Y-58064400D01*
X59590400Y-57759600D02*
X59029600Y-57198800D01*
X59029600Y-57198800D02*
X58549000Y-57198800D01*
%TO.N,/Block Diagram/Data Switches/RESET*%
X60266200Y-58767600D02*
X60172600Y-58674000D01*
X60479800Y-58767600D02*
X60266200Y-58767600D01*
X61857000Y-57793000D02*
X62128400Y-58064400D01*
X76517300Y-72263000D02*
X76193600Y-72586700D01*
X77927200Y-72263000D02*
X76517300Y-72263000D01*
X61079800Y-57793000D02*
X61857000Y-57793000D01*
%TD*%
%TA.AperFunction,Conductor*%
%TO.N,/Block Diagram/VBATT*%
G36*
X62533569Y-86045685D02*
G01*
X62579324Y-86098489D01*
X62589267Y-86167645D01*
X62585385Y-86194652D01*
X62579871Y-86233000D01*
X62600681Y-86377734D01*
X62600681Y-86377735D01*
X62602294Y-86381267D01*
X62613500Y-86432777D01*
X62613500Y-86611064D01*
X62628266Y-86685301D01*
X62628559Y-86686008D01*
X62638000Y-86733465D01*
X62638000Y-86839999D01*
X62663014Y-86839999D01*
X62705949Y-86831459D01*
X62775540Y-86837688D01*
X62830717Y-86880551D01*
X62841235Y-86897999D01*
X63640467Y-88510097D01*
X63643135Y-88515842D01*
X64824938Y-91241129D01*
X64833550Y-91310466D01*
X64829420Y-91327796D01*
X64790449Y-91451228D01*
X64778321Y-91478041D01*
X64747928Y-91528319D01*
X64747924Y-91528327D01*
X64706215Y-91662180D01*
X64667478Y-91720328D01*
X64603453Y-91748302D01*
X64534467Y-91737220D01*
X64482424Y-91690602D01*
X64482103Y-91690080D01*
X64439936Y-91621271D01*
X63786417Y-92274791D01*
X63757929Y-92206015D01*
X63688436Y-92102011D01*
X63599989Y-92013564D01*
X63495985Y-91944071D01*
X63427208Y-91915582D01*
X64080727Y-91262062D01*
X63889220Y-91144706D01*
X63889217Y-91144704D01*
X63667602Y-91052909D01*
X63434344Y-90996908D01*
X63195200Y-90978087D01*
X62956055Y-90996908D01*
X62722797Y-91052909D01*
X62501182Y-91144704D01*
X62501179Y-91144706D01*
X62309671Y-91262062D01*
X62963191Y-91915582D01*
X62894415Y-91944071D01*
X62790411Y-92013564D01*
X62701964Y-92102011D01*
X62632471Y-92206015D01*
X62603982Y-92274791D01*
X61950462Y-91621271D01*
X61833106Y-91812779D01*
X61833104Y-91812782D01*
X61741309Y-92034397D01*
X61685308Y-92267655D01*
X61666487Y-92506800D01*
X61685308Y-92745944D01*
X61741309Y-92979202D01*
X61833104Y-93200817D01*
X61833106Y-93200820D01*
X61950462Y-93392327D01*
X62603982Y-92738807D01*
X62632471Y-92807585D01*
X62701964Y-92911589D01*
X62790411Y-93000036D01*
X62894415Y-93069529D01*
X62963191Y-93098017D01*
X62309671Y-93751536D01*
X62501179Y-93868893D01*
X62501182Y-93868895D01*
X62722797Y-93960690D01*
X62956055Y-94016691D01*
X63195200Y-94035512D01*
X63434344Y-94016691D01*
X63667602Y-93960690D01*
X63889217Y-93868895D01*
X63889220Y-93868893D01*
X64080727Y-93751537D01*
X64080727Y-93751536D01*
X63427208Y-93098017D01*
X63495985Y-93069529D01*
X63599989Y-93000036D01*
X63688436Y-92911589D01*
X63757929Y-92807585D01*
X63786417Y-92738807D01*
X64428881Y-93381271D01*
X64462366Y-93442594D01*
X64465200Y-93468952D01*
X64465200Y-94090228D01*
X64445515Y-94157267D01*
X64392711Y-94203022D01*
X64323553Y-94212966D01*
X64307552Y-94209347D01*
X64307543Y-94209384D01*
X64305635Y-94208913D01*
X64304314Y-94208615D01*
X64303901Y-94208486D01*
X64243160Y-94193515D01*
X64090081Y-94174928D01*
X64090078Y-94174928D01*
X64027522Y-94174928D01*
X64027519Y-94174928D01*
X63874439Y-94193515D01*
X63813702Y-94208485D01*
X63669511Y-94263170D01*
X63614104Y-94292250D01*
X63613980Y-94292326D01*
X63613939Y-94292337D01*
X63610804Y-94293983D01*
X63610450Y-94293309D01*
X63549846Y-94310200D01*
X62764354Y-94310200D01*
X62703749Y-94293309D01*
X62703396Y-94293983D01*
X62700260Y-94292337D01*
X62700220Y-94292326D01*
X62700095Y-94292250D01*
X62644688Y-94263170D01*
X62500503Y-94208487D01*
X62500498Y-94208485D01*
X62439760Y-94193515D01*
X62286681Y-94174928D01*
X62286678Y-94174928D01*
X62224121Y-94174928D01*
X62224120Y-94174928D01*
X62215169Y-94176014D01*
X62208735Y-94176796D01*
X62193789Y-94177700D01*
X60576500Y-94177700D01*
X60509461Y-94158015D01*
X60463706Y-94105211D01*
X60452500Y-94053700D01*
X60452500Y-86839999D01*
X61338000Y-86839999D01*
X61363016Y-86839999D01*
X61363019Y-86839998D01*
X61428807Y-86826913D01*
X61477189Y-86826913D01*
X61542980Y-86839999D01*
X61988000Y-86839999D01*
X62013016Y-86839999D01*
X62013019Y-86839998D01*
X62078807Y-86826913D01*
X62127189Y-86826913D01*
X62192980Y-86839999D01*
X62218000Y-86839998D01*
X62218000Y-86446000D01*
X61988000Y-86446000D01*
X61988000Y-86839999D01*
X61542980Y-86839999D01*
X61568000Y-86839998D01*
X61568000Y-86446000D01*
X61338000Y-86446000D01*
X61338000Y-86839999D01*
X60452500Y-86839999D01*
X60452500Y-86755292D01*
X60472185Y-86688253D01*
X60524989Y-86642498D01*
X60594147Y-86632554D01*
X60657703Y-86661579D01*
X60679602Y-86686401D01*
X60734876Y-86769123D01*
X60818895Y-86825263D01*
X60818896Y-86825264D01*
X60892980Y-86839998D01*
X60918000Y-86839998D01*
X60918000Y-86150000D01*
X60937685Y-86082961D01*
X60990489Y-86037206D01*
X61042000Y-86026000D01*
X62466530Y-86026000D01*
X62533569Y-86045685D01*
G37*
%TD.AperFunction*%
%TD*%
%TA.AperFunction,Conductor*%
%TO.N,Net-(U7-PD)*%
G36*
X68039546Y-69758643D02*
G01*
X68072432Y-69767455D01*
X68097970Y-69774299D01*
X68097973Y-69774299D01*
X68097975Y-69774300D01*
X68487559Y-69774300D01*
X68531753Y-69792606D01*
X68550051Y-69835808D01*
X68557292Y-70291946D01*
X68572595Y-71256074D01*
X68572595Y-71256083D01*
X68578937Y-71309126D01*
X68578939Y-71309140D01*
X68587330Y-71346290D01*
X68590132Y-71358698D01*
X68590133Y-71358701D01*
X68597030Y-71383455D01*
X68597032Y-71383458D01*
X68597033Y-71383461D01*
X68611743Y-71409293D01*
X68619910Y-71438592D01*
X68620354Y-71455630D01*
X68630800Y-71856600D01*
X69093472Y-71859024D01*
X69137567Y-71877560D01*
X69155641Y-71921849D01*
X69154873Y-71931298D01*
X69149000Y-71968380D01*
X69149000Y-72007000D01*
X69787500Y-72007000D01*
X69831694Y-72025306D01*
X69850000Y-72069500D01*
X69850000Y-72198500D01*
X69831694Y-72242694D01*
X69787500Y-72261000D01*
X69149000Y-72261000D01*
X69149000Y-72299613D01*
X69149001Y-72299629D01*
X69163425Y-72390700D01*
X69163428Y-72390710D01*
X69219368Y-72500498D01*
X69265008Y-72546138D01*
X69283314Y-72590332D01*
X69265008Y-72634526D01*
X69221478Y-72652828D01*
X68546377Y-72659996D01*
X68545713Y-72660000D01*
X64358500Y-72660000D01*
X64314306Y-72641694D01*
X64296000Y-72597500D01*
X64296000Y-71894619D01*
X64314306Y-71850425D01*
X64325345Y-71841638D01*
X64942275Y-71455630D01*
X64934421Y-71160724D01*
X64951544Y-71116060D01*
X64995235Y-71096584D01*
X65025273Y-71103374D01*
X65139125Y-71161385D01*
X65139135Y-71161388D01*
X65231380Y-71175998D01*
X65231395Y-71175999D01*
X65529400Y-71175999D01*
X65573403Y-71175999D01*
X65573406Y-71175998D01*
X65665671Y-71161386D01*
X65776873Y-71104726D01*
X65865126Y-71016473D01*
X65921785Y-70905274D01*
X65921788Y-70905264D01*
X65936398Y-70813020D01*
X65936400Y-70813004D01*
X65936400Y-70739000D01*
X65529400Y-70739000D01*
X65529400Y-71175999D01*
X65231395Y-71175999D01*
X65275400Y-71175998D01*
X65275400Y-70547500D01*
X65293706Y-70503306D01*
X65337900Y-70485000D01*
X65936399Y-70485000D01*
X65936399Y-70410997D01*
X65936398Y-70410993D01*
X65921786Y-70318728D01*
X65865126Y-70207526D01*
X65817494Y-70159894D01*
X65799188Y-70115700D01*
X65817494Y-70071506D01*
X65861688Y-70053200D01*
X66824844Y-70053200D01*
X66824846Y-70053200D01*
X67092739Y-69947731D01*
X67115220Y-69943390D01*
X67671151Y-69939813D01*
X67685740Y-69939308D01*
X67699662Y-69938434D01*
X67785554Y-69917993D01*
X67849783Y-69890489D01*
X67890514Y-69868562D01*
X67962535Y-69797394D01*
X67971611Y-69783983D01*
X68011541Y-69757644D01*
X68039546Y-69758643D01*
G37*
%TD.AperFunction*%
%TD*%
%TA.AperFunction,Conductor*%
%TO.N,GND*%
G36*
X51990556Y-73136438D02*
G01*
X52020886Y-73199381D01*
X52021011Y-73200158D01*
X52036130Y-73295623D01*
X52036131Y-73295626D01*
X52036132Y-73295627D01*
X52092865Y-73406971D01*
X52092867Y-73406973D01*
X52092869Y-73406976D01*
X52110765Y-73424872D01*
X52144250Y-73486195D01*
X52139266Y-73555887D01*
X52110765Y-73600234D01*
X52093278Y-73617720D01*
X52093275Y-73617724D01*
X52036611Y-73728934D01*
X52022000Y-73821187D01*
X52022000Y-73865200D01*
X52589000Y-73865200D01*
X52656039Y-73884885D01*
X52701794Y-73937689D01*
X52713000Y-73989200D01*
X52713000Y-74526199D01*
X52787008Y-74526199D01*
X52819167Y-74521105D01*
X52888461Y-74530059D01*
X52941913Y-74575054D01*
X52961969Y-74631419D01*
X52962498Y-74636797D01*
X52982251Y-74736103D01*
X52982252Y-74736104D01*
X53030024Y-74807600D01*
X51578620Y-74807600D01*
X51587399Y-74736104D01*
X51657741Y-74163205D01*
X52022001Y-74163205D01*
X52036613Y-74255471D01*
X52093275Y-74366674D01*
X52093278Y-74366679D01*
X52181520Y-74454921D01*
X52181524Y-74454924D01*
X52292734Y-74511588D01*
X52384988Y-74526199D01*
X52458999Y-74526198D01*
X52459000Y-74526198D01*
X52459000Y-74119200D01*
X52022001Y-74119200D01*
X52022001Y-74163205D01*
X51657741Y-74163205D01*
X51679045Y-73989700D01*
X51775462Y-73204442D01*
X51803170Y-73140303D01*
X51861157Y-73101325D01*
X51931011Y-73099884D01*
X51990556Y-73136438D01*
G37*
%TD.AperFunction*%
%TA.AperFunction,Conductor*%
G36*
X54129253Y-68585794D02*
G01*
X54252690Y-68695150D01*
X54250461Y-68697664D01*
X54284999Y-68740086D01*
X54292816Y-68809517D01*
X54261854Y-68872152D01*
X54252905Y-68880927D01*
X54129629Y-68990140D01*
X54129627Y-68990143D01*
X54040278Y-69119586D01*
X54020097Y-69172799D01*
X54020097Y-69172800D01*
X54494000Y-69172800D01*
X54561039Y-69192485D01*
X54606794Y-69245289D01*
X54618000Y-69296800D01*
X54618000Y-69422800D01*
X54744000Y-69422800D01*
X54811039Y-69442485D01*
X54856794Y-69495289D01*
X54868000Y-69546800D01*
X54868000Y-69548800D01*
X54848315Y-69615839D01*
X54795511Y-69661594D01*
X54744000Y-69672800D01*
X54020097Y-69672800D01*
X54040278Y-69726013D01*
X54080269Y-69783949D01*
X54102152Y-69850303D01*
X54084687Y-69917955D01*
X54033419Y-69965425D01*
X54023818Y-69969240D01*
X54023919Y-69969483D01*
X53881839Y-70028334D01*
X53881829Y-70028339D01*
X53759030Y-70110391D01*
X53759026Y-70110394D01*
X53654594Y-70214826D01*
X53654591Y-70214830D01*
X53572539Y-70337629D01*
X53572534Y-70337639D01*
X53516014Y-70474090D01*
X53516012Y-70474098D01*
X53487200Y-70618946D01*
X53487200Y-70766653D01*
X53516012Y-70911501D01*
X53516014Y-70911509D01*
X53572534Y-71047960D01*
X53572539Y-71047970D01*
X53654591Y-71170769D01*
X53654594Y-71170773D01*
X53759026Y-71275205D01*
X53759030Y-71275208D01*
X53871260Y-71350198D01*
X53916065Y-71403810D01*
X53924772Y-71473135D01*
X53894618Y-71536162D01*
X53835175Y-71572882D01*
X53802369Y-71577300D01*
X53721995Y-71577300D01*
X53622696Y-71597051D01*
X53622692Y-71597053D01*
X53607506Y-71607200D01*
X53322600Y-71607200D01*
X53322600Y-72582300D01*
X53196936Y-72582300D01*
X53154831Y-72590674D01*
X53122699Y-72597066D01*
X53122698Y-72597066D01*
X53110721Y-72599449D01*
X53110325Y-72597459D01*
X53056278Y-72603265D01*
X52998873Y-72574523D01*
X52998670Y-72574804D01*
X52996975Y-72573572D01*
X52993802Y-72571984D01*
X52990798Y-72569085D01*
X52990774Y-72569068D01*
X52990771Y-72569065D01*
X52879427Y-72512332D01*
X52879426Y-72512331D01*
X52879423Y-72512330D01*
X52787045Y-72497700D01*
X52384956Y-72497700D01*
X52305204Y-72510331D01*
X52292573Y-72512332D01*
X52181229Y-72569065D01*
X52181228Y-72569066D01*
X52181223Y-72569069D01*
X52092869Y-72657423D01*
X52092864Y-72657429D01*
X52082442Y-72677884D01*
X52034465Y-72728678D01*
X51966644Y-72745471D01*
X51900510Y-72722931D01*
X51857060Y-72668214D01*
X51848883Y-72606477D01*
X52213168Y-69639617D01*
X52240875Y-69575479D01*
X52298862Y-69536501D01*
X52368716Y-69535060D01*
X52392538Y-69544247D01*
X52470534Y-69583988D01*
X52562788Y-69598599D01*
X52890800Y-69598599D01*
X52964805Y-69598599D01*
X53057071Y-69583986D01*
X53168274Y-69527324D01*
X53168279Y-69527321D01*
X53256521Y-69439079D01*
X53256524Y-69439075D01*
X53313188Y-69327865D01*
X53327800Y-69235612D01*
X53327800Y-69191600D01*
X52890800Y-69191600D01*
X52890800Y-69598599D01*
X52562788Y-69598599D01*
X52636799Y-69598598D01*
X52636800Y-69598598D01*
X52636800Y-69061600D01*
X52656485Y-68994561D01*
X52709289Y-68948806D01*
X52760800Y-68937600D01*
X53327799Y-68937600D01*
X53327799Y-68893594D01*
X53313186Y-68801328D01*
X53256524Y-68690125D01*
X53256521Y-68690120D01*
X53239034Y-68672633D01*
X53205549Y-68611310D01*
X53207459Y-68584600D01*
X54128429Y-68584600D01*
X54129253Y-68585794D01*
G37*
%TD.AperFunction*%
%TD*%
%TA.AperFunction,Conductor*%
%TO.N,/Block Diagram/Payload Power Control/VOUT*%
G36*
X75429093Y-50536166D02*
G01*
X75474848Y-50588970D01*
X75484792Y-50658128D01*
X75467048Y-50706452D01*
X75457867Y-50721062D01*
X75457863Y-50721070D01*
X75401113Y-50883251D01*
X75401111Y-50883261D01*
X75381875Y-51053996D01*
X75381875Y-51054003D01*
X75401111Y-51224738D01*
X75401113Y-51224748D01*
X75457863Y-51386929D01*
X75457864Y-51386930D01*
X75549281Y-51532419D01*
X75670781Y-51653919D01*
X75816270Y-51745336D01*
X75978454Y-51802087D01*
X75978458Y-51802087D01*
X75978461Y-51802088D01*
X76149196Y-51821325D01*
X76149200Y-51821325D01*
X76149204Y-51821325D01*
X76319938Y-51802088D01*
X76319939Y-51802087D01*
X76319946Y-51802087D01*
X76482130Y-51745336D01*
X76553733Y-51700344D01*
X76620968Y-51681344D01*
X76687804Y-51701711D01*
X76733018Y-51754978D01*
X76743705Y-51805338D01*
X76743705Y-53241294D01*
X76743704Y-53241791D01*
X76743205Y-53366084D01*
X76743206Y-53366090D01*
X76778545Y-53618706D01*
X76778546Y-53618710D01*
X76787553Y-53649776D01*
X76787314Y-53719645D01*
X76749338Y-53778293D01*
X76685684Y-53807101D01*
X76618022Y-53797583D01*
X76476227Y-53734452D01*
X76293437Y-53695600D01*
X76106563Y-53695600D01*
X75923773Y-53734452D01*
X75921620Y-53735152D01*
X75920306Y-53735189D01*
X75917415Y-53735804D01*
X75917302Y-53735275D01*
X75851779Y-53737142D01*
X75843953Y-53732422D01*
X75839433Y-53748675D01*
X75787288Y-53795179D01*
X75784607Y-53796411D01*
X75775207Y-53800595D01*
X75775207Y-53800597D01*
X76200000Y-54225390D01*
X76241710Y-54267100D01*
X76158200Y-54267100D01*
X76077449Y-54288737D01*
X76005050Y-54330537D01*
X75945937Y-54389650D01*
X75904137Y-54462049D01*
X75882500Y-54542800D01*
X75882500Y-54626400D01*
X75904137Y-54707151D01*
X75945937Y-54779550D01*
X76005050Y-54838663D01*
X76077449Y-54880463D01*
X76158200Y-54902100D01*
X76241800Y-54902100D01*
X76322551Y-54880463D01*
X76394950Y-54838663D01*
X76454063Y-54779550D01*
X76495863Y-54707151D01*
X76517500Y-54626400D01*
X76517500Y-54542889D01*
X76982272Y-55007661D01*
X77016617Y-54948178D01*
X77016617Y-54948177D01*
X77074360Y-54770458D01*
X77074362Y-54770452D01*
X77090544Y-54616492D01*
X77117128Y-54551877D01*
X77174426Y-54511892D01*
X77244245Y-54509232D01*
X77295246Y-54535895D01*
X77451210Y-54671559D01*
X77451215Y-54671562D01*
X77451220Y-54671567D01*
X77665596Y-54809800D01*
X77704308Y-54827532D01*
X77711022Y-54830608D01*
X77763773Y-54876423D01*
X77773355Y-54894497D01*
X77971361Y-55356511D01*
X77980263Y-55388696D01*
X78064565Y-56010419D01*
X78054066Y-56079495D01*
X78007889Y-56131930D01*
X77940694Y-56151076D01*
X77874649Y-56131395D01*
X77744413Y-56047697D01*
X77744412Y-56047696D01*
X77744411Y-56047696D01*
X77662432Y-56023624D01*
X77604112Y-56006500D01*
X77604111Y-56006500D01*
X77457889Y-56006500D01*
X77457888Y-56006500D01*
X77317586Y-56047697D01*
X77194580Y-56126748D01*
X77098824Y-56237257D01*
X77098823Y-56237258D01*
X77038080Y-56370265D01*
X77017271Y-56515000D01*
X77038080Y-56659734D01*
X77086458Y-56765665D01*
X77098824Y-56792743D01*
X77194579Y-56903250D01*
X77194581Y-56903251D01*
X77194580Y-56903251D01*
X77226885Y-56924012D01*
X77317589Y-56982304D01*
X77428727Y-57014937D01*
X77457888Y-57023500D01*
X77457889Y-57023500D01*
X77604112Y-57023500D01*
X77628254Y-57016410D01*
X77744411Y-56982304D01*
X77867421Y-56903250D01*
X77962857Y-56793110D01*
X78021633Y-56755338D01*
X78091503Y-56755338D01*
X78150281Y-56793112D01*
X78179306Y-56856668D01*
X78179444Y-56857654D01*
X79428072Y-66066283D01*
X79428272Y-66067832D01*
X79937958Y-70218888D01*
X79926590Y-70287827D01*
X79879756Y-70339676D01*
X79814882Y-70358000D01*
X75183999Y-70358000D01*
X74204319Y-71337681D01*
X74142996Y-71371166D01*
X74116638Y-71374000D01*
X68956047Y-71374000D01*
X68889008Y-71354315D01*
X68843253Y-71301511D01*
X68832063Y-71251968D01*
X68816759Y-70287827D01*
X68807941Y-69732324D01*
X68826559Y-69664984D01*
X68844244Y-69642678D01*
X68859876Y-69627047D01*
X68910101Y-69540054D01*
X68936100Y-69443025D01*
X68936100Y-69342575D01*
X68936100Y-69338108D01*
X68955785Y-69271069D01*
X69008589Y-69225314D01*
X69077747Y-69215370D01*
X69127139Y-69233793D01*
X69160563Y-69255273D01*
X69160565Y-69255273D01*
X69160570Y-69255277D01*
X69279845Y-69290300D01*
X69404155Y-69290300D01*
X69523430Y-69255277D01*
X69576636Y-69221083D01*
X69643674Y-69201400D01*
X70202207Y-69201400D01*
X70202209Y-69201400D01*
X70289547Y-69177998D01*
X70290389Y-69177511D01*
X70291329Y-69177259D01*
X70297058Y-69174887D01*
X70297370Y-69175641D01*
X70352389Y-69160899D01*
X70597055Y-69160899D01*
X70597056Y-69160899D01*
X70641658Y-69152028D01*
X70692234Y-69118234D01*
X70726028Y-69067658D01*
X70734900Y-69023057D01*
X70734899Y-68825399D01*
X70754583Y-68758361D01*
X70807387Y-68712606D01*
X70858899Y-68701400D01*
X71018421Y-68701400D01*
X71057006Y-68710661D01*
X71057859Y-68708039D01*
X71067140Y-68711055D01*
X71158341Y-68725499D01*
X71158347Y-68725500D01*
X71589652Y-68725499D01*
X71680862Y-68711054D01*
X71790796Y-68655040D01*
X71878040Y-68567796D01*
X71934054Y-68457862D01*
X71948500Y-68366653D01*
X71948499Y-68035348D01*
X71934054Y-67944138D01*
X71878040Y-67834204D01*
X71822515Y-67778679D01*
X71789032Y-67717359D01*
X71794016Y-67647667D01*
X71822515Y-67603320D01*
X71878040Y-67547796D01*
X71934054Y-67437862D01*
X71948500Y-67346653D01*
X71948499Y-67015348D01*
X71934054Y-66924138D01*
X71878040Y-66814204D01*
X71878036Y-66814200D01*
X71878035Y-66814198D01*
X71790801Y-66726964D01*
X71790797Y-66726961D01*
X71790796Y-66726960D01*
X71680862Y-66670946D01*
X71680860Y-66670945D01*
X71680857Y-66670944D01*
X71589658Y-66656500D01*
X71158348Y-66656500D01*
X71067136Y-66670946D01*
X71002024Y-66704123D01*
X70957204Y-66726960D01*
X70957203Y-66726961D01*
X70957198Y-66726964D01*
X70869964Y-66814198D01*
X70869961Y-66814202D01*
X70813944Y-66924142D01*
X70799500Y-67015341D01*
X70799500Y-67346651D01*
X70813946Y-67437863D01*
X70832853Y-67474969D01*
X70869960Y-67547796D01*
X70869962Y-67547798D01*
X70869964Y-67547801D01*
X70925482Y-67603319D01*
X70958967Y-67664642D01*
X70953983Y-67734334D01*
X70925482Y-67778681D01*
X70869964Y-67834198D01*
X70869961Y-67834202D01*
X70869960Y-67834204D01*
X70813946Y-67944138D01*
X70813945Y-67944140D01*
X70812542Y-67946895D01*
X70764568Y-67997691D01*
X70702057Y-68014600D01*
X70111791Y-68014600D01*
X70049085Y-68031402D01*
X70024449Y-68038003D01*
X70023611Y-68038488D01*
X70022670Y-68038739D01*
X70016938Y-68041114D01*
X70016625Y-68040359D01*
X69961612Y-68055100D01*
X69883899Y-68055100D01*
X69816860Y-68035415D01*
X69771105Y-67982611D01*
X69759899Y-67931100D01*
X69759899Y-67217945D01*
X69759898Y-67217940D01*
X69751028Y-67173342D01*
X69751026Y-67173340D01*
X69751026Y-67173338D01*
X69717234Y-67122766D01*
X69666659Y-67088973D01*
X69666658Y-67088972D01*
X69666657Y-67088971D01*
X69666656Y-67088971D01*
X69666654Y-67088970D01*
X69622059Y-67080100D01*
X69291946Y-67080100D01*
X69268728Y-67084718D01*
X69247342Y-67088972D01*
X69247340Y-67088972D01*
X69235365Y-67091355D01*
X69234727Y-67088149D01*
X69184961Y-67093491D01*
X69175687Y-67090767D01*
X69122059Y-67080100D01*
X68791946Y-67080100D01*
X68768728Y-67084718D01*
X68747342Y-67088972D01*
X68747340Y-67088972D01*
X68735365Y-67091355D01*
X68734727Y-67088149D01*
X68684961Y-67093491D01*
X68675687Y-67090767D01*
X68622059Y-67080100D01*
X68291946Y-67080100D01*
X68268728Y-67084718D01*
X68247342Y-67088972D01*
X68247340Y-67088972D01*
X68235365Y-67091355D01*
X68234727Y-67088149D01*
X68184961Y-67093491D01*
X68175687Y-67090767D01*
X68122059Y-67080100D01*
X67791945Y-67080100D01*
X67747341Y-67088972D01*
X67747338Y-67088973D01*
X67696766Y-67122765D01*
X67662971Y-67173343D01*
X67662970Y-67173345D01*
X67654100Y-67217940D01*
X67654100Y-67931100D01*
X67634415Y-67998139D01*
X67581611Y-68043894D01*
X67530100Y-68055100D01*
X67457220Y-68055100D01*
X67395218Y-68038486D01*
X67382949Y-68031402D01*
X67382942Y-68031399D01*
X67359548Y-68025130D01*
X67359548Y-68025131D01*
X67295614Y-68008000D01*
X67295609Y-68008000D01*
X66925874Y-68008000D01*
X66858836Y-67988316D01*
X66805630Y-67954123D01*
X66805628Y-67954122D01*
X66686355Y-67919100D01*
X66562045Y-67919100D01*
X66442770Y-67954123D01*
X66442768Y-67954124D01*
X66338194Y-68021329D01*
X66338193Y-68021329D01*
X66338193Y-68021330D01*
X66325988Y-68035415D01*
X66256787Y-68115278D01*
X66256786Y-68115279D01*
X66205145Y-68228355D01*
X66187455Y-68351400D01*
X66205145Y-68474444D01*
X66255997Y-68585793D01*
X66256787Y-68587522D01*
X66338193Y-68681470D01*
X66442770Y-68748677D01*
X66562045Y-68783700D01*
X66562046Y-68783700D01*
X66570821Y-68784962D01*
X66570358Y-68788180D01*
X66622140Y-68803385D01*
X66667895Y-68856189D01*
X66679100Y-68907697D01*
X66679101Y-69023056D01*
X66679102Y-69023059D01*
X66687972Y-69067658D01*
X66687973Y-69067661D01*
X66721765Y-69118233D01*
X66721766Y-69118234D01*
X66772342Y-69152028D01*
X66772343Y-69152028D01*
X66772345Y-69152029D01*
X66794642Y-69156464D01*
X66816943Y-69160900D01*
X67060585Y-69160899D01*
X67118309Y-69176367D01*
X67118342Y-69176288D01*
X67118945Y-69176537D01*
X67122588Y-69177514D01*
X67125852Y-69179398D01*
X67125850Y-69179398D01*
X67145381Y-69184630D01*
X67149254Y-69185668D01*
X67213191Y-69202800D01*
X67643707Y-69202800D01*
X67710746Y-69222485D01*
X67756501Y-69275289D01*
X67765366Y-69334448D01*
X67766700Y-69334448D01*
X67766700Y-69443024D01*
X67788458Y-69524228D01*
X67786795Y-69594078D01*
X67747632Y-69651940D01*
X67683403Y-69679444D01*
X67669481Y-69680318D01*
X61205298Y-69721911D01*
X61138133Y-69702659D01*
X61092039Y-69650150D01*
X61080500Y-69597914D01*
X61080500Y-69259999D01*
X61080499Y-69259995D01*
X61060748Y-69160695D01*
X61060747Y-69160694D01*
X61055339Y-69152600D01*
X61034461Y-69085923D01*
X61034441Y-69084138D01*
X61019075Y-63500000D01*
X62605463Y-63500000D01*
X62625458Y-63868800D01*
X62625596Y-63871336D01*
X62625597Y-63871353D01*
X62685758Y-64238311D01*
X62685764Y-64238337D01*
X62785246Y-64596642D01*
X62785248Y-64596649D01*
X62922894Y-64942115D01*
X62922896Y-64942118D01*
X62922899Y-64942125D01*
X63087502Y-65252600D01*
X63097096Y-65270696D01*
X63305788Y-65578492D01*
X63461368Y-65761654D01*
X63546542Y-65861929D01*
X63816528Y-66117674D01*
X64112582Y-66342728D01*
X64431234Y-66534455D01*
X64431238Y-66534456D01*
X64431242Y-66534459D01*
X64742928Y-66678660D01*
X64768747Y-66690605D01*
X65121164Y-66809348D01*
X65484354Y-66889292D01*
X65854058Y-66929500D01*
X65854064Y-66929500D01*
X66225936Y-66929500D01*
X66225942Y-66929500D01*
X66595646Y-66889292D01*
X66958836Y-66809348D01*
X67311253Y-66690605D01*
X67648766Y-66534455D01*
X67967418Y-66342728D01*
X68263472Y-66117674D01*
X68533458Y-65861929D01*
X68774211Y-65578493D01*
X68982908Y-65270689D01*
X69157101Y-64942125D01*
X69294750Y-64596653D01*
X69394239Y-64238324D01*
X69454404Y-63871339D01*
X69474537Y-63500000D01*
X69454404Y-63128661D01*
X69394239Y-62761676D01*
X69329906Y-62529968D01*
X69294753Y-62403357D01*
X69294751Y-62403350D01*
X69157105Y-62057884D01*
X69157103Y-62057881D01*
X69157101Y-62057875D01*
X68982908Y-61729311D01*
X68977951Y-61722000D01*
X69667255Y-61722000D01*
X69684945Y-61845042D01*
X69721227Y-61924489D01*
X69731170Y-61993648D01*
X69721227Y-62027511D01*
X69684945Y-62106957D01*
X69667255Y-62230000D01*
X69684945Y-62353044D01*
X69707923Y-62403357D01*
X69736587Y-62466122D01*
X69817993Y-62560070D01*
X69922570Y-62627277D01*
X70041845Y-62662300D01*
X70166155Y-62662300D01*
X70285430Y-62627277D01*
X70290961Y-62623722D01*
X70357999Y-62604038D01*
X70425038Y-62623722D01*
X70430570Y-62627277D01*
X70549845Y-62662300D01*
X70674155Y-62662300D01*
X70793430Y-62627277D01*
X70898007Y-62560070D01*
X70979413Y-62466122D01*
X71031054Y-62353045D01*
X71048745Y-62230000D01*
X71031054Y-62106955D01*
X71025836Y-62095529D01*
X73900800Y-62095529D01*
X73900800Y-62313670D01*
X73900801Y-62313686D01*
X73929273Y-62529955D01*
X73929274Y-62529960D01*
X73929275Y-62529966D01*
X73985737Y-62740687D01*
X73985740Y-62740694D01*
X74069218Y-62942229D01*
X74069223Y-62942239D01*
X74178298Y-63131163D01*
X74311101Y-63304236D01*
X74311107Y-63304243D01*
X74465356Y-63458492D01*
X74465363Y-63458498D01*
X74638436Y-63591301D01*
X74827360Y-63700376D01*
X74827370Y-63700381D01*
X74913742Y-63736157D01*
X75028913Y-63783863D01*
X75239634Y-63840325D01*
X75455923Y-63868800D01*
X75455930Y-63868800D01*
X75674070Y-63868800D01*
X75674077Y-63868800D01*
X75890366Y-63840325D01*
X76101087Y-63783863D01*
X76302636Y-63700378D01*
X76491564Y-63591301D01*
X76664638Y-63458497D01*
X76818897Y-63304238D01*
X76951701Y-63131164D01*
X77060778Y-62942236D01*
X77144263Y-62740687D01*
X77200725Y-62529966D01*
X77229200Y-62313677D01*
X77229200Y-62095523D01*
X77200725Y-61879234D01*
X77144263Y-61668513D01*
X77068613Y-61485879D01*
X77060781Y-61466970D01*
X77060776Y-61466960D01*
X76951701Y-61278036D01*
X76818898Y-61104963D01*
X76818892Y-61104956D01*
X76664643Y-60950707D01*
X76664636Y-60950701D01*
X76491563Y-60817898D01*
X76302639Y-60708823D01*
X76302629Y-60708818D01*
X76101094Y-60625340D01*
X76101095Y-60625340D01*
X76101087Y-60625337D01*
X75890366Y-60568875D01*
X75890360Y-60568874D01*
X75890355Y-60568873D01*
X75674086Y-60540401D01*
X75674083Y-60540400D01*
X75674077Y-60540400D01*
X75455923Y-60540400D01*
X75455917Y-60540400D01*
X75455913Y-60540401D01*
X75239644Y-60568873D01*
X75239637Y-60568874D01*
X75239634Y-60568875D01*
X75169393Y-60587695D01*
X75028919Y-60625335D01*
X75028905Y-60625340D01*
X74827370Y-60708818D01*
X74827360Y-60708823D01*
X74638436Y-60817898D01*
X74465363Y-60950701D01*
X74465356Y-60950707D01*
X74311107Y-61104956D01*
X74311101Y-61104963D01*
X74178298Y-61278036D01*
X74069223Y-61466960D01*
X74069218Y-61466970D01*
X73985740Y-61668505D01*
X73985735Y-61668519D01*
X73929276Y-61879231D01*
X73929273Y-61879244D01*
X73900801Y-62095513D01*
X73900800Y-62095529D01*
X71025836Y-62095529D01*
X70994772Y-62027511D01*
X70984829Y-61958354D01*
X70994773Y-61924488D01*
X71031054Y-61845045D01*
X71048745Y-61722000D01*
X71031054Y-61598955D01*
X70979413Y-61485878D01*
X70898007Y-61391930D01*
X70793430Y-61324723D01*
X70674155Y-61289700D01*
X70549845Y-61289700D01*
X70430570Y-61324723D01*
X70430568Y-61324724D01*
X70430566Y-61324725D01*
X70425037Y-61328279D01*
X70357997Y-61347962D01*
X70290963Y-61328279D01*
X70285433Y-61324725D01*
X70285430Y-61324723D01*
X70166155Y-61289700D01*
X70041845Y-61289700D01*
X69922570Y-61324723D01*
X69922568Y-61324724D01*
X69817994Y-61391929D01*
X69736587Y-61485878D01*
X69736586Y-61485879D01*
X69684945Y-61598955D01*
X69667255Y-61722000D01*
X68977951Y-61722000D01*
X68941680Y-61668505D01*
X68774211Y-61421507D01*
X68533458Y-61138071D01*
X68485097Y-61092261D01*
X68263472Y-60882326D01*
X68263465Y-60882320D01*
X68263462Y-60882318D01*
X68193237Y-60828935D01*
X67967418Y-60657272D01*
X67755721Y-60529898D01*
X67648770Y-60465547D01*
X67648757Y-60465540D01*
X67311263Y-60309399D01*
X67311258Y-60309397D01*
X67311253Y-60309395D01*
X67139469Y-60251514D01*
X66958835Y-60190651D01*
X66595644Y-60110707D01*
X66225943Y-60070500D01*
X66225942Y-60070500D01*
X65854058Y-60070500D01*
X65854056Y-60070500D01*
X65484355Y-60110707D01*
X65121164Y-60190651D01*
X64848739Y-60282442D01*
X64768747Y-60309395D01*
X64768744Y-60309396D01*
X64768736Y-60309399D01*
X64431242Y-60465540D01*
X64431229Y-60465547D01*
X64166059Y-60625095D01*
X64112582Y-60657272D01*
X64044774Y-60708818D01*
X63816537Y-60882318D01*
X63816528Y-60882326D01*
X63546541Y-61138071D01*
X63305788Y-61421507D01*
X63097096Y-61729303D01*
X63035734Y-61845044D01*
X62938997Y-62027512D01*
X62922896Y-62057881D01*
X62922894Y-62057884D01*
X62785248Y-62403350D01*
X62785246Y-62403357D01*
X62685764Y-62761662D01*
X62685758Y-62761688D01*
X62625597Y-63128646D01*
X62625596Y-63128659D01*
X62625596Y-63128661D01*
X62605463Y-63500000D01*
X61019075Y-63500000D01*
X61008056Y-59495882D01*
X61027556Y-59428791D01*
X61080234Y-59382891D01*
X61149365Y-59372757D01*
X61194054Y-59388155D01*
X61226778Y-59407048D01*
X61259249Y-59425797D01*
X61259251Y-59425797D01*
X61259252Y-59425798D01*
X61346591Y-59449200D01*
X61346593Y-59449200D01*
X62021207Y-59449200D01*
X62021209Y-59449200D01*
X62108547Y-59425798D01*
X62186852Y-59380588D01*
X62250788Y-59316652D01*
X62250794Y-59316640D01*
X62254408Y-59311932D01*
X62265101Y-59299738D01*
X62805222Y-58759618D01*
X62866545Y-58726133D01*
X62892903Y-58723299D01*
X63091443Y-58723299D01*
X63091444Y-58723299D01*
X63183827Y-58708668D01*
X63295171Y-58651935D01*
X63337501Y-58609604D01*
X63398822Y-58576120D01*
X63416191Y-58573613D01*
X63964540Y-58533801D01*
X64032825Y-58548579D01*
X64082283Y-58597931D01*
X64096252Y-58639825D01*
X64096944Y-58644639D01*
X64096945Y-58644643D01*
X64098981Y-58649100D01*
X64148587Y-58757722D01*
X64229993Y-58851670D01*
X64334570Y-58918877D01*
X64453845Y-58953900D01*
X64578155Y-58953900D01*
X64697430Y-58918877D01*
X64802007Y-58851670D01*
X64803114Y-58850391D01*
X64804537Y-58849477D01*
X64808707Y-58845864D01*
X64809226Y-58846463D01*
X64861886Y-58812615D01*
X64931756Y-58812610D01*
X64971680Y-58834410D01*
X64971832Y-58834175D01*
X64975125Y-58836291D01*
X64978040Y-58837883D01*
X64979287Y-58838964D01*
X64979293Y-58838970D01*
X65083870Y-58906177D01*
X65203145Y-58941200D01*
X65327455Y-58941200D01*
X65446730Y-58906177D01*
X65551307Y-58838970D01*
X65632713Y-58745022D01*
X65684354Y-58631945D01*
X65702045Y-58508900D01*
X65684354Y-58385855D01*
X65632713Y-58272778D01*
X65632711Y-58272776D01*
X65632710Y-58272773D01*
X65619468Y-58257491D01*
X65590444Y-58193935D01*
X65592135Y-58149391D01*
X65955334Y-56515000D01*
X71612071Y-56515000D01*
X71632880Y-56659734D01*
X71681258Y-56765665D01*
X71693624Y-56792743D01*
X71789379Y-56903250D01*
X71789381Y-56903251D01*
X71789380Y-56903251D01*
X71821685Y-56924012D01*
X71912389Y-56982304D01*
X72023527Y-57014937D01*
X72052688Y-57023500D01*
X72052689Y-57023500D01*
X72198912Y-57023500D01*
X72223054Y-57016410D01*
X72339211Y-56982304D01*
X72462221Y-56903250D01*
X72557976Y-56792743D01*
X72618719Y-56659734D01*
X72639529Y-56515000D01*
X72618719Y-56370266D01*
X72618653Y-56370122D01*
X72557976Y-56237258D01*
X72557976Y-56237257D01*
X72462221Y-56126750D01*
X72462218Y-56126748D01*
X72462219Y-56126748D01*
X72339213Y-56047697D01*
X72339212Y-56047696D01*
X72339211Y-56047696D01*
X72257232Y-56023624D01*
X72198912Y-56006500D01*
X72198911Y-56006500D01*
X72052689Y-56006500D01*
X72052688Y-56006500D01*
X71912386Y-56047697D01*
X71789380Y-56126748D01*
X71693624Y-56237257D01*
X71693623Y-56237258D01*
X71632880Y-56370265D01*
X71612071Y-56515000D01*
X65955334Y-56515000D01*
X66040001Y-56134000D01*
X66040000Y-56134000D01*
X65465393Y-56134000D01*
X65398354Y-56114315D01*
X65362290Y-56078889D01*
X65354895Y-56067822D01*
X65334020Y-56001145D01*
X65334000Y-55998935D01*
X65334000Y-55791681D01*
X65353685Y-55724642D01*
X65370315Y-55704004D01*
X65617193Y-55457125D01*
X65678516Y-55423641D01*
X65748208Y-55428625D01*
X65755310Y-55431528D01*
X65763609Y-55435223D01*
X65763615Y-55435225D01*
X65946510Y-55474100D01*
X65946511Y-55474100D01*
X66133489Y-55474100D01*
X66133490Y-55474100D01*
X66316385Y-55435225D01*
X66316387Y-55435223D01*
X66316390Y-55435223D01*
X66345545Y-55422242D01*
X66487200Y-55359173D01*
X66638470Y-55249269D01*
X66763585Y-55110315D01*
X66857075Y-54948385D01*
X66914855Y-54770556D01*
X66934400Y-54584600D01*
X67685600Y-54584600D01*
X67705145Y-54770558D01*
X67705146Y-54770560D01*
X67762925Y-54948386D01*
X67856413Y-55110313D01*
X67981530Y-55249269D01*
X68132795Y-55359170D01*
X68132796Y-55359170D01*
X68132800Y-55359173D01*
X68199110Y-55388696D01*
X68303609Y-55435223D01*
X68303615Y-55435225D01*
X68486510Y-55474100D01*
X68486511Y-55474100D01*
X68673490Y-55474100D01*
X68856385Y-55435225D01*
X68864686Y-55431528D01*
X68933936Y-55422242D01*
X68997213Y-55451869D01*
X69002806Y-55457126D01*
X69115743Y-55570063D01*
X69131451Y-55579132D01*
X69188250Y-55611926D01*
X69188254Y-55611928D01*
X69188256Y-55611929D01*
X69228469Y-55622703D01*
X69288129Y-55659067D01*
X69299477Y-55673585D01*
X69316515Y-55699084D01*
X69342693Y-55716575D01*
X69400699Y-55755334D01*
X69400702Y-55755334D01*
X69400703Y-55755335D01*
X69410703Y-55757324D01*
X69474933Y-55770100D01*
X69775066Y-55770099D01*
X69825811Y-55760006D01*
X69874190Y-55760007D01*
X69898426Y-55764827D01*
X69924933Y-55770100D01*
X70225066Y-55770099D01*
X70299301Y-55755334D01*
X70383484Y-55699084D01*
X70400521Y-55673587D01*
X70454133Y-55628782D01*
X70471525Y-55622705D01*
X70511744Y-55611929D01*
X70584257Y-55570063D01*
X70697194Y-55457124D01*
X70758515Y-55423641D01*
X70828207Y-55428625D01*
X70835310Y-55431528D01*
X70843609Y-55435223D01*
X70843615Y-55435225D01*
X71026510Y-55474100D01*
X71026511Y-55474100D01*
X71213489Y-55474100D01*
X71213490Y-55474100D01*
X71396385Y-55435225D01*
X71396387Y-55435223D01*
X71396390Y-55435223D01*
X71425545Y-55422242D01*
X71567200Y-55359173D01*
X71718470Y-55249269D01*
X71843585Y-55110315D01*
X71937075Y-54948385D01*
X71994855Y-54770556D01*
X72014400Y-54584600D01*
X72765600Y-54584600D01*
X72785145Y-54770558D01*
X72785146Y-54770560D01*
X72842925Y-54948386D01*
X72936413Y-55110313D01*
X73061530Y-55249269D01*
X73212795Y-55359170D01*
X73212796Y-55359170D01*
X73212800Y-55359173D01*
X73279110Y-55388696D01*
X73383609Y-55435223D01*
X73383615Y-55435225D01*
X73566510Y-55474100D01*
X73566511Y-55474100D01*
X73753489Y-55474100D01*
X73753490Y-55474100D01*
X73936385Y-55435225D01*
X73936387Y-55435223D01*
X73936390Y-55435223D01*
X73965545Y-55422242D01*
X74086024Y-55368601D01*
X75775208Y-55368601D01*
X75775208Y-55368602D01*
X75923765Y-55434745D01*
X75923771Y-55434747D01*
X76106563Y-55473600D01*
X76293437Y-55473600D01*
X76476228Y-55434747D01*
X76476233Y-55434745D01*
X76624790Y-55368602D01*
X76624790Y-55368601D01*
X76200001Y-54943810D01*
X76200000Y-54943810D01*
X75775208Y-55368601D01*
X74086024Y-55368601D01*
X74107200Y-55359173D01*
X74258470Y-55249269D01*
X74383585Y-55110315D01*
X74477075Y-54948385D01*
X74534855Y-54770556D01*
X74554400Y-54584600D01*
X75306103Y-54584600D01*
X75325637Y-54770453D01*
X75325639Y-54770458D01*
X75383382Y-54948176D01*
X75417726Y-55007662D01*
X75840789Y-54584600D01*
X75840789Y-54584599D01*
X75417726Y-54161536D01*
X75383383Y-54221020D01*
X75325638Y-54398744D01*
X75325637Y-54398746D01*
X75306103Y-54584600D01*
X74554400Y-54584600D01*
X74534855Y-54398644D01*
X74521702Y-54358166D01*
X74519708Y-54288326D01*
X74551950Y-54232172D01*
X74806076Y-53978047D01*
X74856302Y-53891053D01*
X74882301Y-53794025D01*
X74882301Y-53693575D01*
X74882301Y-53685980D01*
X74882300Y-53685962D01*
X74882300Y-53597656D01*
X74901985Y-53530617D01*
X74954789Y-53484862D01*
X75023947Y-53474918D01*
X75079184Y-53497337D01*
X75086323Y-53502524D01*
X75197534Y-53559188D01*
X75289787Y-53573799D01*
X75333799Y-53573799D01*
X75587800Y-53573799D01*
X75631810Y-53573799D01*
X75714773Y-53560659D01*
X75770027Y-53567799D01*
X75813326Y-53514855D01*
X75827018Y-53506732D01*
X75835273Y-53502525D01*
X75835279Y-53502521D01*
X75923521Y-53414279D01*
X75923524Y-53414275D01*
X75980188Y-53303065D01*
X75994800Y-53210812D01*
X75994800Y-53136800D01*
X75587800Y-53136800D01*
X75587800Y-53573799D01*
X75333799Y-53573799D01*
X75333800Y-53573798D01*
X75333800Y-52882800D01*
X75587800Y-52882800D01*
X75994799Y-52882800D01*
X75994799Y-52808794D01*
X75980186Y-52716528D01*
X75923524Y-52605325D01*
X75923521Y-52605320D01*
X75835279Y-52517078D01*
X75835275Y-52517075D01*
X75724065Y-52460411D01*
X75631812Y-52445800D01*
X75587800Y-52445800D01*
X75587800Y-52882800D01*
X75333800Y-52882800D01*
X75333800Y-52445800D01*
X75289795Y-52445800D01*
X75197528Y-52460413D01*
X75086325Y-52517075D01*
X75086320Y-52517078D01*
X75068834Y-52534565D01*
X75007511Y-52568050D01*
X74937819Y-52563066D01*
X74893472Y-52534565D01*
X74875576Y-52516669D01*
X74875573Y-52516667D01*
X74875571Y-52516665D01*
X74764227Y-52459932D01*
X74764226Y-52459931D01*
X74764223Y-52459930D01*
X74671845Y-52445300D01*
X74329756Y-52445300D01*
X74250004Y-52457931D01*
X74237373Y-52459932D01*
X74126029Y-52516665D01*
X74126028Y-52516666D01*
X74126023Y-52516669D01*
X74037669Y-52605023D01*
X74037666Y-52605028D01*
X74037665Y-52605029D01*
X74008735Y-52661805D01*
X73980930Y-52716376D01*
X73966300Y-52808754D01*
X73966300Y-53210843D01*
X73976931Y-53277963D01*
X73980932Y-53303227D01*
X74037665Y-53414571D01*
X74037667Y-53414573D01*
X74037669Y-53414576D01*
X74076403Y-53453310D01*
X74109888Y-53514633D01*
X74104904Y-53584325D01*
X74076403Y-53628673D01*
X74012621Y-53692454D01*
X73951297Y-53725938D01*
X73899160Y-53726062D01*
X73753490Y-53695100D01*
X73566510Y-53695100D01*
X73534450Y-53701914D01*
X73383615Y-53733974D01*
X73383609Y-53733976D01*
X73212800Y-53810027D01*
X73212795Y-53810029D01*
X73061530Y-53919930D01*
X72936413Y-54058886D01*
X72842925Y-54220813D01*
X72785146Y-54398639D01*
X72785145Y-54398641D01*
X72765600Y-54584600D01*
X72014400Y-54584600D01*
X71994855Y-54398644D01*
X71937075Y-54220815D01*
X71927235Y-54203771D01*
X71843586Y-54058886D01*
X71718469Y-53919930D01*
X71567204Y-53810029D01*
X71567201Y-53810027D01*
X71567200Y-53810027D01*
X71495925Y-53778293D01*
X71396390Y-53733976D01*
X71396384Y-53733974D01*
X71252364Y-53703362D01*
X71213490Y-53695100D01*
X71026510Y-53695100D01*
X70994450Y-53701914D01*
X70843615Y-53733974D01*
X70843609Y-53733976D01*
X70672800Y-53810027D01*
X70672795Y-53810029D01*
X70521530Y-53919930D01*
X70396413Y-54058886D01*
X70396411Y-54058889D01*
X70370256Y-54104191D01*
X70319689Y-54152406D01*
X70251082Y-54165628D01*
X70238679Y-54163807D01*
X70225069Y-54161100D01*
X69474934Y-54161100D01*
X69474930Y-54161101D01*
X69461316Y-54163809D01*
X69391725Y-54157579D01*
X69336549Y-54114714D01*
X69329742Y-54104191D01*
X69303585Y-54058885D01*
X69178470Y-53919931D01*
X69159300Y-53906003D01*
X69027204Y-53810029D01*
X69027201Y-53810027D01*
X69027200Y-53810027D01*
X68955925Y-53778293D01*
X68856390Y-53733976D01*
X68856384Y-53733974D01*
X68712364Y-53703362D01*
X68673490Y-53695100D01*
X68486510Y-53695100D01*
X68454450Y-53701914D01*
X68303615Y-53733974D01*
X68303609Y-53733976D01*
X68132800Y-53810027D01*
X68132795Y-53810029D01*
X67981530Y-53919930D01*
X67856413Y-54058886D01*
X67762925Y-54220813D01*
X67705146Y-54398639D01*
X67705145Y-54398641D01*
X67685600Y-54584600D01*
X66934400Y-54584600D01*
X66914855Y-54398644D01*
X66857075Y-54220815D01*
X66847235Y-54203771D01*
X66763586Y-54058886D01*
X66638469Y-53919930D01*
X66487204Y-53810029D01*
X66487201Y-53810027D01*
X66487200Y-53810027D01*
X66415925Y-53778293D01*
X66316390Y-53733976D01*
X66316384Y-53733974D01*
X66172364Y-53703362D01*
X66133490Y-53695100D01*
X65946510Y-53695100D01*
X65914450Y-53701914D01*
X65763615Y-53733974D01*
X65763609Y-53733976D01*
X65592800Y-53810027D01*
X65592795Y-53810029D01*
X65441530Y-53919930D01*
X65316413Y-54058886D01*
X65222925Y-54220813D01*
X65165146Y-54398639D01*
X65165145Y-54398641D01*
X65145600Y-54584600D01*
X65165145Y-54770558D01*
X65165147Y-54770563D01*
X65200318Y-54878812D01*
X65202313Y-54948653D01*
X65170068Y-55004810D01*
X64857680Y-55317198D01*
X64796357Y-55350683D01*
X64726665Y-55345699D01*
X64682318Y-55317198D01*
X64369930Y-55004810D01*
X64336445Y-54943487D01*
X64339679Y-54878814D01*
X64374855Y-54770556D01*
X64394400Y-54584600D01*
X64374855Y-54398644D01*
X64317075Y-54220815D01*
X64307235Y-54203771D01*
X64223586Y-54058886D01*
X64098469Y-53919930D01*
X63947204Y-53810029D01*
X63947201Y-53810027D01*
X63947200Y-53810027D01*
X63875925Y-53778293D01*
X63776390Y-53733976D01*
X63776384Y-53733974D01*
X63632364Y-53703362D01*
X63593490Y-53695100D01*
X63406510Y-53695100D01*
X63374450Y-53701914D01*
X63223615Y-53733974D01*
X63223609Y-53733976D01*
X63052800Y-53810027D01*
X63052795Y-53810029D01*
X62901530Y-53919930D01*
X62776413Y-54058886D01*
X62682925Y-54220813D01*
X62625146Y-54398639D01*
X62625145Y-54398641D01*
X62605600Y-54584600D01*
X62625145Y-54770558D01*
X62625146Y-54770560D01*
X62682925Y-54948386D01*
X62776413Y-55110313D01*
X62901530Y-55249269D01*
X63052795Y-55359170D01*
X63052796Y-55359170D01*
X63052800Y-55359173D01*
X63119110Y-55388696D01*
X63223609Y-55435223D01*
X63223615Y-55435225D01*
X63406510Y-55474100D01*
X63406511Y-55474100D01*
X63593490Y-55474100D01*
X63776385Y-55435225D01*
X63784686Y-55431528D01*
X63853936Y-55422242D01*
X63917213Y-55451869D01*
X63922806Y-55457126D01*
X64161681Y-55696001D01*
X64195166Y-55757324D01*
X64198000Y-55783682D01*
X64198000Y-55846000D01*
X64178315Y-55913039D01*
X64125511Y-55958794D01*
X64074001Y-55970000D01*
X63853436Y-55970000D01*
X63779198Y-55984766D01*
X63695015Y-56041015D01*
X63670042Y-56078391D01*
X63616429Y-56123196D01*
X63566940Y-56133500D01*
X63421534Y-56133500D01*
X63414543Y-56134000D01*
X60846583Y-56134000D01*
X60779544Y-56114315D01*
X60733789Y-56061511D01*
X60723845Y-55992353D01*
X60724110Y-55990603D01*
X60725338Y-55982847D01*
X60729900Y-55954045D01*
X60729899Y-55597456D01*
X60749583Y-55530418D01*
X60802387Y-55484663D01*
X60860011Y-55475257D01*
X60860011Y-55474100D01*
X61053489Y-55474100D01*
X61053490Y-55474100D01*
X61236385Y-55435225D01*
X61236387Y-55435223D01*
X61236390Y-55435223D01*
X61265545Y-55422242D01*
X61407200Y-55359173D01*
X61558470Y-55249269D01*
X61683585Y-55110315D01*
X61777075Y-54948385D01*
X61834855Y-54770556D01*
X61854400Y-54584600D01*
X61834855Y-54398644D01*
X61777075Y-54220815D01*
X61767235Y-54203771D01*
X61683586Y-54058886D01*
X61558469Y-53919930D01*
X61407204Y-53810029D01*
X61407201Y-53810027D01*
X61407200Y-53810027D01*
X61335925Y-53778293D01*
X61236390Y-53733976D01*
X61236384Y-53733974D01*
X61092364Y-53703362D01*
X61053490Y-53695100D01*
X60866510Y-53695100D01*
X60834450Y-53701914D01*
X60683615Y-53733974D01*
X60683609Y-53733976D01*
X60512800Y-53810027D01*
X60512795Y-53810029D01*
X60361530Y-53919930D01*
X60236413Y-54058886D01*
X60142925Y-54220813D01*
X60085146Y-54398639D01*
X60085145Y-54398641D01*
X60065600Y-54584600D01*
X60085145Y-54770558D01*
X60085147Y-54770563D01*
X60111509Y-54851700D01*
X60113504Y-54921541D01*
X60081260Y-54977698D01*
X59920611Y-55138348D01*
X59920610Y-55138350D01*
X59881247Y-55206527D01*
X59830680Y-55254741D01*
X59830160Y-55255008D01*
X59820627Y-55259865D01*
X59803081Y-55277412D01*
X59741758Y-55310897D01*
X59672066Y-55305913D01*
X59627719Y-55277412D01*
X59610176Y-55259869D01*
X59610172Y-55259866D01*
X59610171Y-55259865D01*
X59600115Y-55254741D01*
X59559088Y-55233836D01*
X59517048Y-55194131D01*
X59515138Y-55195598D01*
X59510186Y-55189145D01*
X59298739Y-54977698D01*
X59265254Y-54916375D01*
X59268489Y-54851700D01*
X59294855Y-54770556D01*
X59314400Y-54584600D01*
X59294855Y-54398644D01*
X59237075Y-54220815D01*
X59227235Y-54203771D01*
X59143586Y-54058886D01*
X59018469Y-53919930D01*
X58867204Y-53810029D01*
X58867201Y-53810027D01*
X58867200Y-53810027D01*
X58795925Y-53778293D01*
X58696390Y-53733976D01*
X58696384Y-53733974D01*
X58513088Y-53695014D01*
X58451606Y-53661822D01*
X58417830Y-53600659D01*
X58416396Y-53554328D01*
X58418500Y-53541045D01*
X58418499Y-53138956D01*
X58403868Y-53046573D01*
X58347135Y-52935229D01*
X58347131Y-52935225D01*
X58347130Y-52935223D01*
X58258776Y-52846869D01*
X58258773Y-52846867D01*
X58258771Y-52846865D01*
X58147427Y-52790132D01*
X58147426Y-52790131D01*
X58147423Y-52790130D01*
X58055045Y-52775500D01*
X57712956Y-52775500D01*
X57633204Y-52788131D01*
X57620573Y-52790132D01*
X57509229Y-52846865D01*
X57509228Y-52846866D01*
X57509223Y-52846869D01*
X57491328Y-52864765D01*
X57430005Y-52898250D01*
X57360313Y-52893266D01*
X57315966Y-52864765D01*
X57298479Y-52847278D01*
X57298475Y-52847275D01*
X57187265Y-52790611D01*
X57095012Y-52776000D01*
X57051000Y-52776000D01*
X57051000Y-53903999D01*
X57095005Y-53903999D01*
X57187271Y-53889386D01*
X57298476Y-53832724D01*
X57305616Y-53827537D01*
X57371423Y-53804058D01*
X57439476Y-53819884D01*
X57488170Y-53869991D01*
X57502500Y-53927856D01*
X57502500Y-54098825D01*
X57528499Y-54195854D01*
X57550992Y-54234814D01*
X57553709Y-54239519D01*
X57570181Y-54307419D01*
X57564253Y-54339834D01*
X57545145Y-54398642D01*
X57525600Y-54584600D01*
X57545145Y-54770558D01*
X57545146Y-54770560D01*
X57602925Y-54948386D01*
X57696413Y-55110313D01*
X57821530Y-55249269D01*
X57972795Y-55359170D01*
X57972796Y-55359170D01*
X57972800Y-55359173D01*
X58039110Y-55388696D01*
X58143609Y-55435223D01*
X58143615Y-55435225D01*
X58326510Y-55474100D01*
X58326511Y-55474100D01*
X58513488Y-55474100D01*
X58513490Y-55474100D01*
X58551121Y-55466101D01*
X58620785Y-55471416D01*
X58676519Y-55513553D01*
X58700625Y-55579132D01*
X58700900Y-55587391D01*
X58700900Y-55954044D01*
X58706691Y-55990604D01*
X58697735Y-56059897D01*
X58652738Y-56113348D01*
X58585986Y-56133987D01*
X58584217Y-56134000D01*
X55687592Y-56134000D01*
X55620553Y-56114315D01*
X55574798Y-56061511D01*
X55564854Y-56027647D01*
X55562454Y-56010955D01*
X55543750Y-55970000D01*
X55510813Y-55897878D01*
X55429407Y-55803930D01*
X55324830Y-55736723D01*
X55324825Y-55736721D01*
X55324824Y-55736721D01*
X55256218Y-55716575D01*
X55197441Y-55678800D01*
X55190679Y-55663994D01*
X55164266Y-55688585D01*
X55108764Y-55701700D01*
X55081245Y-55701700D01*
X54961970Y-55736723D01*
X54961968Y-55736724D01*
X54857394Y-55803929D01*
X54775987Y-55897878D01*
X54775986Y-55897879D01*
X54724345Y-56010955D01*
X54721946Y-56027647D01*
X54692921Y-56091203D01*
X54634143Y-56128977D01*
X54599208Y-56134000D01*
X54011606Y-56134000D01*
X53944567Y-56114315D01*
X53898812Y-56061511D01*
X53888530Y-55994888D01*
X53940691Y-55570064D01*
X53980651Y-55244614D01*
X54991001Y-55244614D01*
X55005737Y-55318706D01*
X55005738Y-55318709D01*
X55061876Y-55402723D01*
X55145895Y-55458863D01*
X55156219Y-55463140D01*
X55210622Y-55506982D01*
X55211072Y-55508335D01*
X55224117Y-55493282D01*
X55291155Y-55473599D01*
X55625999Y-55473599D01*
X56134000Y-55473599D01*
X56540015Y-55473599D01*
X56614106Y-55458862D01*
X56614109Y-55458861D01*
X56698123Y-55402723D01*
X56754263Y-55318704D01*
X56754264Y-55318703D01*
X56768999Y-55244621D01*
X56769000Y-55244618D01*
X56769000Y-54838600D01*
X56134000Y-54838600D01*
X56134000Y-55473599D01*
X55625999Y-55473599D01*
X55626000Y-55473598D01*
X55626000Y-54838600D01*
X54991001Y-54838600D01*
X54991001Y-55244614D01*
X53980651Y-55244614D01*
X54005008Y-55046247D01*
X54032715Y-54982109D01*
X54090702Y-54943131D01*
X54093147Y-54942385D01*
X54180954Y-54916601D01*
X54412378Y-54810904D01*
X54626402Y-54673347D01*
X54777044Y-54542800D01*
X55562500Y-54542800D01*
X55562500Y-54626400D01*
X55584137Y-54707151D01*
X55625937Y-54779550D01*
X55685050Y-54838663D01*
X55757449Y-54880463D01*
X55838200Y-54902100D01*
X55921800Y-54902100D01*
X56002551Y-54880463D01*
X56074950Y-54838663D01*
X56134063Y-54779550D01*
X56175863Y-54707151D01*
X56197500Y-54626400D01*
X56197500Y-54542800D01*
X56175863Y-54462049D01*
X56134063Y-54389650D01*
X56074950Y-54330537D01*
X56002551Y-54288737D01*
X55921800Y-54267100D01*
X55838200Y-54267100D01*
X55757449Y-54288737D01*
X55685050Y-54330537D01*
X55625937Y-54389650D01*
X55584137Y-54462049D01*
X55562500Y-54542800D01*
X54777044Y-54542800D01*
X54818669Y-54506728D01*
X54934182Y-54373402D01*
X54992958Y-54335625D01*
X55027900Y-54330600D01*
X55626000Y-54330600D01*
X55626000Y-53695600D01*
X56134000Y-53695600D01*
X56134000Y-54330600D01*
X56768999Y-54330600D01*
X56768999Y-53983362D01*
X56788684Y-53916323D01*
X56797000Y-53906003D01*
X56797000Y-53467000D01*
X56390001Y-53467000D01*
X56390001Y-53541009D01*
X56391774Y-53552206D01*
X56382817Y-53621500D01*
X56337819Y-53674950D01*
X56271066Y-53695587D01*
X56269300Y-53695600D01*
X56134000Y-53695600D01*
X55626000Y-53695600D01*
X55433050Y-53695600D01*
X55366011Y-53675915D01*
X55320256Y-53623111D01*
X55310310Y-53553966D01*
X55336309Y-53373017D01*
X55336296Y-53245808D01*
X55336296Y-53242809D01*
X55336296Y-53138987D01*
X56390000Y-53138987D01*
X56390000Y-53213000D01*
X56797000Y-53213000D01*
X56797000Y-52776000D01*
X56752995Y-52776000D01*
X56660728Y-52790613D01*
X56549525Y-52847275D01*
X56549520Y-52847278D01*
X56461278Y-52935520D01*
X56461275Y-52935524D01*
X56404611Y-53046734D01*
X56390000Y-53138987D01*
X55336296Y-53138987D01*
X55336296Y-51380835D01*
X55355981Y-51313796D01*
X55408785Y-51268041D01*
X55477943Y-51258097D01*
X55541499Y-51287122D01*
X55577335Y-51339876D01*
X55620464Y-51463130D01*
X55620465Y-51463132D01*
X55620466Y-51463134D01*
X55664001Y-51532419D01*
X55711881Y-51608619D01*
X55833381Y-51730119D01*
X55978870Y-51821536D01*
X56141054Y-51878287D01*
X56141058Y-51878287D01*
X56141061Y-51878288D01*
X56311796Y-51897525D01*
X56311800Y-51897525D01*
X56311804Y-51897525D01*
X56482538Y-51878288D01*
X56482539Y-51878287D01*
X56482546Y-51878287D01*
X56644730Y-51821536D01*
X56790219Y-51730119D01*
X56911719Y-51608619D01*
X57003136Y-51463130D01*
X57059887Y-51300946D01*
X57061445Y-51287122D01*
X57079125Y-51130203D01*
X57079125Y-51130196D01*
X57059888Y-50959461D01*
X57059886Y-50959451D01*
X57003136Y-50797270D01*
X57003134Y-50797267D01*
X56946072Y-50706453D01*
X56927072Y-50639216D01*
X56947440Y-50572381D01*
X57000708Y-50527167D01*
X57051066Y-50516481D01*
X75362054Y-50516481D01*
X75429093Y-50536166D01*
G37*
%TD.AperFunction*%
%TD*%
%TA.AperFunction,Conductor*%
%TO.N,/Block Diagram/Payload Power Control/VBATT_PROT*%
G36*
X62505880Y-71889118D02*
G01*
X62518916Y-71882000D01*
X63723995Y-71882000D01*
X63731705Y-71888213D01*
X63747516Y-71882316D01*
X63756362Y-71882000D01*
X63912500Y-71882000D01*
X63979539Y-71901685D01*
X64025294Y-71954489D01*
X64036500Y-72006000D01*
X64036500Y-72597501D01*
X64039118Y-72610664D01*
X64041500Y-72634850D01*
X64041500Y-72685064D01*
X64056266Y-72759301D01*
X64112515Y-72843484D01*
X64146234Y-72866014D01*
X64196699Y-72899734D01*
X64196702Y-72899734D01*
X64196703Y-72899735D01*
X64233816Y-72907117D01*
X64270933Y-72914500D01*
X64321146Y-72914499D01*
X64345338Y-72916882D01*
X64350220Y-72917852D01*
X64358500Y-72919500D01*
X68042500Y-72919500D01*
X68109539Y-72939185D01*
X68155294Y-72991989D01*
X68166500Y-73043500D01*
X68166500Y-73310063D01*
X68181266Y-73384301D01*
X68237515Y-73468484D01*
X68254748Y-73479998D01*
X68270889Y-73490783D01*
X68315695Y-73544395D01*
X68326000Y-73593886D01*
X68326000Y-73726113D01*
X68306315Y-73793152D01*
X68270891Y-73829215D01*
X68237515Y-73851515D01*
X68181266Y-73935699D01*
X68181264Y-73935703D01*
X68166500Y-74009929D01*
X68166500Y-74281500D01*
X68146815Y-74348539D01*
X68094011Y-74394294D01*
X68042500Y-74405500D01*
X67770934Y-74405500D01*
X67770933Y-74405501D01*
X67695188Y-74420566D01*
X67646810Y-74420566D01*
X67625324Y-74416292D01*
X67571067Y-74405500D01*
X67571065Y-74405500D01*
X67270934Y-74405500D01*
X67270933Y-74405501D01*
X67195188Y-74420566D01*
X67146810Y-74420566D01*
X67125324Y-74416292D01*
X67071067Y-74405500D01*
X67071065Y-74405500D01*
X66770934Y-74405500D01*
X66770933Y-74405501D01*
X66695188Y-74420566D01*
X66646810Y-74420566D01*
X66625324Y-74416292D01*
X66571067Y-74405500D01*
X66571065Y-74405500D01*
X66270934Y-74405500D01*
X66270933Y-74405501D01*
X66195188Y-74420566D01*
X66146810Y-74420566D01*
X66125324Y-74416292D01*
X66071067Y-74405500D01*
X66071065Y-74405500D01*
X65770934Y-74405500D01*
X65770933Y-74405501D01*
X65695188Y-74420566D01*
X65646810Y-74420566D01*
X65625324Y-74416292D01*
X65571067Y-74405500D01*
X65571065Y-74405500D01*
X65270934Y-74405500D01*
X65270933Y-74405501D01*
X65195188Y-74420566D01*
X65146810Y-74420566D01*
X65125324Y-74416292D01*
X65071067Y-74405500D01*
X65071065Y-74405500D01*
X64770934Y-74405500D01*
X64770933Y-74405501D01*
X64736296Y-74412390D01*
X64666705Y-74406161D01*
X64648076Y-74396415D01*
X64645298Y-74395264D01*
X64571071Y-74380500D01*
X64571067Y-74380500D01*
X64395926Y-74380500D01*
X64395923Y-74380500D01*
X64321699Y-74395263D01*
X64321697Y-74395264D01*
X64258770Y-74437312D01*
X64258764Y-74437317D01*
X64183401Y-74512681D01*
X64156786Y-74527213D01*
X64118671Y-74565328D01*
X64115315Y-74576759D01*
X64098681Y-74597401D01*
X64098315Y-74597767D01*
X64056265Y-74660698D01*
X64056265Y-74660699D01*
X64041500Y-74734928D01*
X64041500Y-75510063D01*
X64056266Y-75584301D01*
X64056267Y-75584302D01*
X64065968Y-75598822D01*
X64082638Y-75635614D01*
X64091446Y-75668483D01*
X64101003Y-75704151D01*
X64111235Y-75721873D01*
X64127708Y-75789773D01*
X64104856Y-75855800D01*
X64049934Y-75898991D01*
X63980381Y-75905632D01*
X63968913Y-75902850D01*
X63941157Y-75894700D01*
X63941155Y-75894700D01*
X63816845Y-75894700D01*
X63697570Y-75929723D01*
X63697568Y-75929724D01*
X63592994Y-75996929D01*
X63592993Y-75996929D01*
X63592993Y-75996930D01*
X63578421Y-76013747D01*
X63511587Y-76090878D01*
X63511586Y-76090879D01*
X63459945Y-76203955D01*
X63442255Y-76327000D01*
X63459945Y-76450044D01*
X63478948Y-76491653D01*
X63511587Y-76563122D01*
X63592993Y-76657070D01*
X63697570Y-76724277D01*
X63697576Y-76724278D01*
X63705636Y-76727960D01*
X63704684Y-76730043D01*
X63752924Y-76761040D01*
X63781954Y-76824593D01*
X63772016Y-76893752D01*
X63726266Y-76946560D01*
X63726258Y-76946565D01*
X63622995Y-77012928D01*
X63541587Y-77106878D01*
X63541586Y-77106879D01*
X63489945Y-77219955D01*
X63472255Y-77343000D01*
X63489945Y-77466044D01*
X63531492Y-77557018D01*
X63541587Y-77579122D01*
X63622993Y-77673070D01*
X63727570Y-77740277D01*
X63846845Y-77775300D01*
X63971155Y-77775300D01*
X63976059Y-77773859D01*
X64045928Y-77773856D01*
X64104708Y-77811627D01*
X64133737Y-77875181D01*
X64135000Y-77892835D01*
X64135000Y-79578200D01*
X64662577Y-79578200D01*
X64729616Y-79597885D01*
X64775371Y-79650689D01*
X64785315Y-79719847D01*
X64773062Y-79758495D01*
X64728611Y-79845734D01*
X64714000Y-79937987D01*
X64714000Y-79982000D01*
X65281000Y-79982000D01*
X65348039Y-80001685D01*
X65393794Y-80054489D01*
X65405000Y-80106000D01*
X65405000Y-80112000D01*
X65385315Y-80179039D01*
X65332511Y-80224794D01*
X65281000Y-80236000D01*
X64714001Y-80236000D01*
X64714001Y-80280006D01*
X64721809Y-80329308D01*
X64712853Y-80398601D01*
X64667856Y-80452052D01*
X64642064Y-80464506D01*
X64528502Y-80522368D01*
X64528495Y-80522373D01*
X64441373Y-80609495D01*
X64441368Y-80609502D01*
X64385426Y-80719294D01*
X64385425Y-80719297D01*
X64371000Y-80810378D01*
X64371000Y-80899000D01*
X64898000Y-80899000D01*
X64965039Y-80918685D01*
X65010794Y-80971489D01*
X65022000Y-81023000D01*
X65022000Y-81029000D01*
X65002315Y-81096039D01*
X64949511Y-81141794D01*
X64898000Y-81153000D01*
X64371000Y-81153000D01*
X64371000Y-81241621D01*
X64385425Y-81332702D01*
X64388442Y-81341984D01*
X64385909Y-81342806D01*
X64396080Y-81396984D01*
X64369799Y-81461722D01*
X64312689Y-81501975D01*
X64272700Y-81508600D01*
X64124130Y-81508600D01*
X64091293Y-81526529D01*
X64091423Y-81526929D01*
X64089294Y-81527620D01*
X64086748Y-81529011D01*
X64082643Y-81529781D01*
X64082141Y-81529944D01*
X63972202Y-81585961D01*
X63972198Y-81585964D01*
X63884964Y-81673198D01*
X63884961Y-81673202D01*
X63828944Y-81783142D01*
X63814500Y-81874341D01*
X63814500Y-82205651D01*
X63828946Y-82296863D01*
X63847853Y-82333969D01*
X63884960Y-82406796D01*
X63884962Y-82406798D01*
X63884964Y-82406801D01*
X63940482Y-82462319D01*
X63973967Y-82523642D01*
X63968983Y-82593334D01*
X63940482Y-82637681D01*
X63884964Y-82693198D01*
X63884961Y-82693202D01*
X63828944Y-82803142D01*
X63814500Y-82894341D01*
X63814501Y-83188000D01*
X63794817Y-83255039D01*
X63742013Y-83300794D01*
X63690501Y-83312000D01*
X60576500Y-83312000D01*
X60509461Y-83292315D01*
X60463706Y-83239511D01*
X60452500Y-83188000D01*
X60452500Y-78766791D01*
X60452500Y-78766785D01*
X60417724Y-78502633D01*
X60348768Y-78245280D01*
X60348763Y-78245270D01*
X60348762Y-78245264D01*
X60246815Y-77999141D01*
X60246812Y-77999137D01*
X60246810Y-77999130D01*
X60233744Y-77976499D01*
X60214612Y-77943359D01*
X60198000Y-77881361D01*
X60198000Y-76324000D01*
X60217685Y-76256961D01*
X60270489Y-76211206D01*
X60322000Y-76200000D01*
X61341000Y-76200000D01*
X61341000Y-72108000D01*
X62555001Y-72108000D01*
X62555001Y-72152005D01*
X62569613Y-72244271D01*
X62626275Y-72355474D01*
X62626278Y-72355479D01*
X62714520Y-72443721D01*
X62714524Y-72443724D01*
X62825734Y-72500388D01*
X62917988Y-72514999D01*
X62991999Y-72514998D01*
X62992000Y-72514998D01*
X62992000Y-72108000D01*
X63246000Y-72108000D01*
X63246000Y-72514999D01*
X63320005Y-72514999D01*
X63412271Y-72500386D01*
X63523474Y-72443724D01*
X63523479Y-72443721D01*
X63611721Y-72355479D01*
X63611724Y-72355475D01*
X63668388Y-72244265D01*
X63683000Y-72152012D01*
X63683000Y-72108000D01*
X63676924Y-72101924D01*
X63661484Y-72107684D01*
X63652638Y-72108000D01*
X63246000Y-72108000D01*
X62992000Y-72108000D01*
X62585362Y-72108000D01*
X62561892Y-72101108D01*
X62555001Y-72108000D01*
X61341000Y-72108000D01*
X61341000Y-72006000D01*
X61360685Y-71938961D01*
X61413489Y-71893206D01*
X61465000Y-71882000D01*
X62481639Y-71882000D01*
X62505880Y-71889118D01*
G37*
%TD.AperFunction*%
%TD*%
%TA.AperFunction,Conductor*%
%TO.N,GND*%
G36*
X68322071Y-92807585D02*
G01*
X68391564Y-92911589D01*
X68480011Y-93000036D01*
X68584015Y-93069529D01*
X68652791Y-93098017D01*
X67999271Y-93751536D01*
X67999272Y-93751537D01*
X68190777Y-93868891D01*
X68412408Y-93960693D01*
X68645659Y-94016692D01*
X68645663Y-94016693D01*
X68884796Y-94035513D01*
X68884804Y-94035513D01*
X69123936Y-94016693D01*
X69126360Y-94016309D01*
X69126390Y-94016500D01*
X69126391Y-94016500D01*
X69126391Y-94016509D01*
X69126553Y-94017526D01*
X69170131Y-94024419D01*
X69198256Y-94063113D01*
X69190783Y-94110361D01*
X69175175Y-94126758D01*
X69175563Y-94127258D01*
X69174015Y-94128458D01*
X69174011Y-94128461D01*
X69127644Y-94164426D01*
X69072305Y-94207352D01*
X68959752Y-94319905D01*
X68893757Y-94404986D01*
X68852205Y-94428686D01*
X68806065Y-94416064D01*
X68797590Y-94408124D01*
X68734675Y-94337107D01*
X68664935Y-94275324D01*
X68664936Y-94275324D01*
X68664933Y-94275322D01*
X68538024Y-94187723D01*
X68538021Y-94187721D01*
X68538019Y-94187720D01*
X68505398Y-94170599D01*
X68455524Y-94144423D01*
X68455519Y-94144421D01*
X68455508Y-94144416D01*
X68311350Y-94089744D01*
X68311346Y-94089742D01*
X68311339Y-94089740D01*
X68311335Y-94089739D01*
X68311329Y-94089737D01*
X68220869Y-94067441D01*
X68220855Y-94067438D01*
X68067792Y-94048854D01*
X68067786Y-94048854D01*
X67974614Y-94048854D01*
X67974607Y-94048854D01*
X67821544Y-94067438D01*
X67821530Y-94067441D01*
X67731070Y-94089737D01*
X67731049Y-94089744D01*
X67586891Y-94144416D01*
X67586878Y-94144422D01*
X67504380Y-94187720D01*
X67433904Y-94236366D01*
X67387134Y-94246405D01*
X67346963Y-94220433D01*
X67335900Y-94184929D01*
X67335900Y-93064036D01*
X67354206Y-93019842D01*
X67398400Y-93001536D01*
X67442594Y-93019842D01*
X67456143Y-93040119D01*
X67522707Y-93200820D01*
X67640061Y-93392326D01*
X67640061Y-93392327D01*
X68293581Y-92738806D01*
X68322071Y-92807585D01*
G37*
%TD.AperFunction*%
%TA.AperFunction,Conductor*%
G36*
X70507224Y-92337634D02*
G01*
X70510827Y-92340965D01*
X70616182Y-92446320D01*
X70712442Y-92506804D01*
X70761670Y-92537736D01*
X70923854Y-92594487D01*
X71094600Y-92613725D01*
X71265346Y-92594487D01*
X71427530Y-92537736D01*
X71531748Y-92472250D01*
X71578907Y-92464238D01*
X71617920Y-92491919D01*
X71627500Y-92525171D01*
X71627500Y-93861200D01*
X71609194Y-93905394D01*
X71565000Y-93923700D01*
X70469351Y-93923700D01*
X70461817Y-93923244D01*
X70457995Y-93922780D01*
X70334205Y-93922780D01*
X70330382Y-93923244D01*
X70322849Y-93923700D01*
X69824600Y-93923700D01*
X69814527Y-93924095D01*
X69784299Y-93925283D01*
X69702489Y-93931722D01*
X69656995Y-93916940D01*
X69635278Y-93874319D01*
X69650060Y-93828825D01*
X69664929Y-93816125D01*
X69770326Y-93751536D01*
X69770327Y-93751536D01*
X69116808Y-93098017D01*
X69185585Y-93069529D01*
X69289589Y-93000036D01*
X69378036Y-92911589D01*
X69447529Y-92807585D01*
X69476017Y-92738808D01*
X70129536Y-93392327D01*
X70129536Y-93392326D01*
X70246890Y-93200825D01*
X70338693Y-92979191D01*
X70394692Y-92745940D01*
X70394693Y-92745936D01*
X70413513Y-92506804D01*
X70413513Y-92506795D01*
X70404326Y-92390063D01*
X70419108Y-92344568D01*
X70461729Y-92322852D01*
X70507224Y-92337634D01*
G37*
%TD.AperFunction*%
%TA.AperFunction,Conductor*%
G36*
X68912060Y-79139306D02*
G01*
X69457194Y-79684440D01*
X69475500Y-79728634D01*
X69475500Y-80824000D01*
X69479100Y-80850130D01*
X69489902Y-80928526D01*
X69497774Y-80945649D01*
X69499602Y-80993449D01*
X69496680Y-81000122D01*
X69494416Y-81004565D01*
X69494415Y-81004567D01*
X69475501Y-81123986D01*
X69475500Y-81124002D01*
X69475500Y-82029100D01*
X69457194Y-82073294D01*
X69413000Y-82091600D01*
X69236563Y-82091600D01*
X69209113Y-82085249D01*
X69170361Y-82066304D01*
X69096206Y-82055500D01*
X68434457Y-82055500D01*
X68390263Y-82037194D01*
X68382490Y-82027723D01*
X68323123Y-81938876D01*
X68239108Y-81882738D01*
X68239104Y-81882736D01*
X68165017Y-81868000D01*
X67564000Y-81868000D01*
X67564000Y-84755999D01*
X68165015Y-84755999D01*
X68165018Y-84755998D01*
X68239104Y-84741263D01*
X68239108Y-84741261D01*
X68323123Y-84685123D01*
X68379261Y-84601108D01*
X68379263Y-84601104D01*
X68393999Y-84527017D01*
X68394000Y-84527015D01*
X68394000Y-84503499D01*
X68412306Y-84459305D01*
X68456500Y-84440999D01*
X68585000Y-84440999D01*
X68585000Y-84131000D01*
X68603306Y-84086806D01*
X68647500Y-84068500D01*
X68802612Y-84068500D01*
X68846806Y-84086806D01*
X68865112Y-84131000D01*
X68846806Y-84175194D01*
X68835000Y-84187000D01*
X68835000Y-84440999D01*
X69085015Y-84440999D01*
X69085018Y-84440998D01*
X69159104Y-84426263D01*
X69159108Y-84426261D01*
X69243123Y-84370123D01*
X69299261Y-84286108D01*
X69299263Y-84286104D01*
X69313999Y-84212017D01*
X69314000Y-84212017D01*
X69314000Y-84187000D01*
X69145348Y-84187000D01*
X69101154Y-84168694D01*
X69082848Y-84124500D01*
X69101154Y-84080306D01*
X69136336Y-84062653D01*
X69170361Y-84057696D01*
X69209113Y-84038750D01*
X69236563Y-84032400D01*
X69873459Y-84032400D01*
X69911507Y-84045316D01*
X69923538Y-84054548D01*
X70001416Y-84086806D01*
X70059593Y-84110904D01*
X70059597Y-84110904D01*
X70059599Y-84110905D01*
X70205598Y-84130126D01*
X70205600Y-84130126D01*
X70205602Y-84130126D01*
X70351600Y-84110905D01*
X70351600Y-84110904D01*
X70351607Y-84110904D01*
X70487663Y-84054547D01*
X70604497Y-83964897D01*
X70694147Y-83848063D01*
X70750504Y-83712007D01*
X70753238Y-83691238D01*
X70769726Y-83566001D01*
X70769726Y-83565998D01*
X70750505Y-83419999D01*
X70750504Y-83419997D01*
X70750504Y-83419993D01*
X70705771Y-83312000D01*
X70694148Y-83283939D01*
X70694147Y-83283938D01*
X70694147Y-83283937D01*
X70657333Y-83235960D01*
X70604497Y-83167102D01*
X70487660Y-83077451D01*
X70351610Y-83021097D01*
X70351600Y-83021094D01*
X70205602Y-83001874D01*
X70205598Y-83001874D01*
X70059599Y-83021094D01*
X70059590Y-83021097D01*
X70043554Y-83027739D01*
X69995719Y-83027738D01*
X69961895Y-82993912D01*
X69961896Y-82946077D01*
X69975444Y-82925802D01*
X70372440Y-82528806D01*
X70416634Y-82510500D01*
X71361998Y-82510500D01*
X71362000Y-82510500D01*
X71362013Y-82510498D01*
X71481431Y-82491584D01*
X71481432Y-82491583D01*
X71481435Y-82491583D01*
X71536626Y-82463462D01*
X71584314Y-82459709D01*
X71620688Y-82490776D01*
X71627500Y-82519150D01*
X71627500Y-87432022D01*
X71609194Y-87476216D01*
X71565000Y-87494522D01*
X71543159Y-87490581D01*
X71457696Y-87458705D01*
X71457698Y-87458705D01*
X71397197Y-87452200D01*
X70586600Y-87452200D01*
X70586600Y-90500200D01*
X71397184Y-90500200D01*
X71397197Y-90500199D01*
X71457695Y-90493694D01*
X71543158Y-90461818D01*
X71590963Y-90463525D01*
X71623559Y-90498535D01*
X71627500Y-90520377D01*
X71627500Y-91167628D01*
X71609194Y-91211822D01*
X71565000Y-91230128D01*
X71531748Y-91220548D01*
X71427534Y-91155066D01*
X71427532Y-91155065D01*
X71427530Y-91155064D01*
X71317358Y-91116513D01*
X71265344Y-91098312D01*
X71094600Y-91079075D01*
X70923855Y-91098312D01*
X70808310Y-91138744D01*
X70761670Y-91155064D01*
X70761669Y-91155064D01*
X70761665Y-91155066D01*
X70616182Y-91246479D01*
X70494679Y-91367982D01*
X70403266Y-91513465D01*
X70346512Y-91675655D01*
X70338354Y-91748062D01*
X70315215Y-91789929D01*
X70269249Y-91803171D01*
X70227382Y-91780032D01*
X70222957Y-91773720D01*
X70129537Y-91621272D01*
X70129536Y-91621271D01*
X69476017Y-92274791D01*
X69447529Y-92206015D01*
X69378036Y-92102011D01*
X69289589Y-92013564D01*
X69185585Y-91944071D01*
X69116806Y-91915581D01*
X69770327Y-91262061D01*
X69578822Y-91144708D01*
X69357191Y-91052906D01*
X69123940Y-90996907D01*
X69123936Y-90996906D01*
X68884804Y-90978087D01*
X68884796Y-90978087D01*
X68645663Y-90996906D01*
X68645659Y-90996907D01*
X68412408Y-91052906D01*
X68190777Y-91144708D01*
X67999271Y-91262061D01*
X68652792Y-91915582D01*
X68584015Y-91944071D01*
X68480011Y-92013564D01*
X68391564Y-92102011D01*
X68322071Y-92206015D01*
X68293582Y-92274792D01*
X67640061Y-91621271D01*
X67522708Y-91812777D01*
X67456143Y-91973481D01*
X67422318Y-92007305D01*
X67374482Y-92007306D01*
X67340658Y-91973481D01*
X67335900Y-91949563D01*
X67335900Y-91751513D01*
X67335899Y-91751510D01*
X67329756Y-91683915D01*
X67329756Y-91683910D01*
X67281274Y-91528325D01*
X67196967Y-91388865D01*
X67081735Y-91273633D01*
X66942275Y-91189326D01*
X66786694Y-91140845D01*
X66786691Y-91140844D01*
X66786690Y-91140844D01*
X66786688Y-91140843D01*
X66786684Y-91140843D01*
X66763590Y-91138744D01*
X66721235Y-91116513D01*
X66707005Y-91070843D01*
X66729236Y-91028488D01*
X66745324Y-91018762D01*
X66777636Y-91005378D01*
X66966564Y-90896301D01*
X67139638Y-90763497D01*
X67293897Y-90609238D01*
X67426701Y-90436164D01*
X67535778Y-90247236D01*
X67619263Y-90045687D01*
X67675725Y-89834966D01*
X67704200Y-89618677D01*
X67704200Y-89400523D01*
X67675725Y-89184234D01*
X67672219Y-89171150D01*
X67619266Y-88973524D01*
X67619265Y-88973523D01*
X67619263Y-88973513D01*
X67535778Y-88771964D01*
X67426701Y-88583036D01*
X67293897Y-88409962D01*
X67139638Y-88255703D01*
X67139634Y-88255700D01*
X67139632Y-88255698D01*
X66966561Y-88122897D01*
X66777642Y-88013825D01*
X66777630Y-88013819D01*
X66576093Y-87930339D01*
X66576075Y-87930333D01*
X66506170Y-87911602D01*
X68808600Y-87911602D01*
X68808600Y-88722200D01*
X69502587Y-88722200D01*
X69443537Y-88781250D01*
X69401737Y-88853649D01*
X69380100Y-88934400D01*
X69380100Y-89018000D01*
X69401737Y-89098751D01*
X69443537Y-89171150D01*
X69502587Y-89230200D01*
X68808600Y-89230200D01*
X68808600Y-90040797D01*
X68815105Y-90101295D01*
X68866152Y-90238159D01*
X68866155Y-90238163D01*
X68953696Y-90355103D01*
X69070636Y-90442644D01*
X69070640Y-90442647D01*
X69207504Y-90493694D01*
X69268002Y-90500199D01*
X69268016Y-90500200D01*
X70078600Y-90500200D01*
X70078600Y-89230200D01*
X69892613Y-89230200D01*
X69951663Y-89171150D01*
X69993463Y-89098751D01*
X70015100Y-89018000D01*
X70015100Y-88934400D01*
X69993463Y-88853649D01*
X69951663Y-88781250D01*
X69892613Y-88722200D01*
X70078600Y-88722200D01*
X70078600Y-87452200D01*
X69268002Y-87452200D01*
X69207504Y-87458705D01*
X69070640Y-87509752D01*
X69070636Y-87509755D01*
X68953696Y-87597296D01*
X68866155Y-87714236D01*
X68866152Y-87714240D01*
X68815105Y-87851104D01*
X68808600Y-87911602D01*
X66506170Y-87911602D01*
X66365370Y-87873875D01*
X66149081Y-87845400D01*
X66149077Y-87845400D01*
X65930923Y-87845400D01*
X65930918Y-87845400D01*
X65714630Y-87873875D01*
X65714629Y-87873875D01*
X65503924Y-87930333D01*
X65503906Y-87930339D01*
X65302369Y-88013819D01*
X65302357Y-88013825D01*
X65113438Y-88122897D01*
X64940367Y-88255698D01*
X64940357Y-88255707D01*
X64786107Y-88409957D01*
X64786098Y-88409967D01*
X64653297Y-88583038D01*
X64544225Y-88771957D01*
X64544219Y-88771969D01*
X64460739Y-88973506D01*
X64460733Y-88973524D01*
X64431565Y-89082381D01*
X64402445Y-89120332D01*
X64355019Y-89126575D01*
X64317068Y-89097455D01*
X64313854Y-89091070D01*
X64210898Y-88853649D01*
X63997730Y-88362074D01*
X63993678Y-88353048D01*
X63991010Y-88347303D01*
X63986747Y-88338421D01*
X63346503Y-87047012D01*
X63343275Y-86999287D01*
X63374739Y-86963256D01*
X63393485Y-86957406D01*
X63398361Y-86956696D01*
X63512746Y-86900776D01*
X63602776Y-86810746D01*
X63658696Y-86696361D01*
X63669500Y-86622206D01*
X63669500Y-86518068D01*
X63673561Y-86495906D01*
X63673849Y-86495144D01*
X63694180Y-86441536D01*
X63726966Y-86406707D01*
X63774780Y-86405261D01*
X63802418Y-86425935D01*
X63883346Y-86532654D01*
X63996478Y-86618445D01*
X63996480Y-86618446D01*
X63996484Y-86618448D01*
X64095540Y-86657510D01*
X64128561Y-86670532D01*
X64211564Y-86680500D01*
X64211571Y-86680500D01*
X64562429Y-86680500D01*
X64562436Y-86680500D01*
X64645439Y-86670532D01*
X64767985Y-86622206D01*
X64777515Y-86618448D01*
X64777516Y-86618447D01*
X64777522Y-86618445D01*
X64890654Y-86532654D01*
X64933543Y-86476095D01*
X64974832Y-86451943D01*
X65021108Y-86464061D01*
X65027537Y-86469667D01*
X65040501Y-86482631D01*
X65150289Y-86538571D01*
X65150299Y-86538574D01*
X65241370Y-86552998D01*
X65241386Y-86553000D01*
X65280000Y-86553000D01*
X65534000Y-86553000D01*
X65572614Y-86553000D01*
X65572629Y-86552998D01*
X65663700Y-86538574D01*
X65663710Y-86538571D01*
X65773498Y-86482631D01*
X65860631Y-86395498D01*
X65916571Y-86285710D01*
X65916574Y-86285700D01*
X65930998Y-86194629D01*
X65931000Y-86194613D01*
X65931000Y-86106000D01*
X65534000Y-86106000D01*
X65534000Y-86553000D01*
X65280000Y-86553000D01*
X65280000Y-85914500D01*
X65298306Y-85870306D01*
X65342500Y-85852000D01*
X65931000Y-85852000D01*
X65931000Y-85763386D01*
X65930998Y-85763370D01*
X65916574Y-85672299D01*
X65916571Y-85672289D01*
X65860631Y-85562501D01*
X65773498Y-85475368D01*
X65663710Y-85419428D01*
X65663700Y-85419425D01*
X65572629Y-85405001D01*
X65572614Y-85405000D01*
X65499734Y-85405000D01*
X65455540Y-85386694D01*
X65437234Y-85342500D01*
X65455540Y-85298306D01*
X65500014Y-85253832D01*
X65613410Y-85140436D01*
X66151640Y-84602205D01*
X66195833Y-84583900D01*
X66240027Y-84602206D01*
X66247800Y-84611677D01*
X66296876Y-84685123D01*
X66380891Y-84741261D01*
X66380895Y-84741263D01*
X66454982Y-84755999D01*
X67056000Y-84755999D01*
X67056000Y-81868000D01*
X66454985Y-81868000D01*
X66451930Y-81868302D01*
X66451834Y-81867334D01*
X66408169Y-81858642D01*
X66381599Y-81818864D01*
X66380400Y-81806680D01*
X66380400Y-81639705D01*
X66398706Y-81595511D01*
X66405126Y-81589912D01*
X66418654Y-81579654D01*
X66504445Y-81466522D01*
X66556532Y-81334439D01*
X66560323Y-81302869D01*
X66583768Y-81261174D01*
X66629829Y-81248268D01*
X66671525Y-81271713D01*
X66684431Y-81302870D01*
X66686564Y-81320636D01*
X66686564Y-81320637D01*
X66729879Y-81430473D01*
X66739155Y-81453995D01*
X66825777Y-81568223D01*
X66940005Y-81654845D01*
X66940007Y-81654846D01*
X66940011Y-81654848D01*
X67040025Y-81694288D01*
X67073366Y-81707436D01*
X67157171Y-81717500D01*
X67518828Y-81717499D01*
X67602634Y-81707436D01*
X67735995Y-81654845D01*
X67850223Y-81568223D01*
X67866135Y-81547239D01*
X67907422Y-81523086D01*
X67944309Y-81529316D01*
X68034725Y-81575385D01*
X68034735Y-81575388D01*
X68126980Y-81589998D01*
X68126995Y-81589999D01*
X68425000Y-81589999D01*
X68469003Y-81589999D01*
X68469006Y-81589998D01*
X68561271Y-81575386D01*
X68672473Y-81518726D01*
X68760726Y-81430473D01*
X68817385Y-81319274D01*
X68817388Y-81319264D01*
X68831998Y-81227020D01*
X68832000Y-81227004D01*
X68832000Y-81153000D01*
X68425000Y-81153000D01*
X68425000Y-81589999D01*
X68126995Y-81589999D01*
X68171000Y-81589998D01*
X68171000Y-80961500D01*
X68189306Y-80917306D01*
X68233500Y-80899000D01*
X68831999Y-80899000D01*
X68831999Y-80824997D01*
X68831998Y-80824993D01*
X68823349Y-80770379D01*
X68834517Y-80723865D01*
X68850364Y-80708630D01*
X68851126Y-80708120D01*
X68907261Y-80624108D01*
X68907263Y-80624104D01*
X68921999Y-80550017D01*
X68922000Y-80550017D01*
X68922000Y-80500000D01*
X68330500Y-80500000D01*
X68286306Y-80481694D01*
X68268000Y-80437500D01*
X68268000Y-80162500D01*
X68286306Y-80118306D01*
X68330500Y-80100000D01*
X68921999Y-80100000D01*
X68921999Y-80049985D01*
X68921998Y-80049981D01*
X68920477Y-80042331D01*
X68920477Y-80017946D01*
X68931999Y-79960017D01*
X68932000Y-79960017D01*
X68932000Y-79629000D01*
X67626500Y-79629000D01*
X67582306Y-79610694D01*
X67564000Y-79566500D01*
X67564000Y-79183500D01*
X67582306Y-79139306D01*
X67626500Y-79121000D01*
X68867866Y-79121000D01*
X68912060Y-79139306D01*
G37*
%TD.AperFunction*%
%TA.AperFunction,Conductor*%
G36*
X79975365Y-70733314D02*
G01*
X80004995Y-70770868D01*
X80006883Y-70780241D01*
X80675775Y-76227931D01*
X80675779Y-76227995D01*
X80683933Y-76294372D01*
X80684399Y-76301893D01*
X80684575Y-76412705D01*
X80682788Y-76427644D01*
X80657380Y-76531591D01*
X80652074Y-76545670D01*
X80602562Y-76640534D01*
X80594046Y-76652936D01*
X80523306Y-76733212D01*
X80512074Y-76743220D01*
X80424189Y-76804274D01*
X80410889Y-76811309D01*
X80310967Y-76849589D01*
X80296373Y-76853241D01*
X80186352Y-76867016D01*
X80178587Y-76867500D01*
X73526780Y-76867500D01*
X73262630Y-76902276D01*
X73262628Y-76902276D01*
X73005288Y-76971229D01*
X73005280Y-76971232D01*
X72759135Y-77073187D01*
X72759132Y-77073188D01*
X72528395Y-77206402D01*
X72528384Y-77206410D01*
X72317022Y-77368591D01*
X72128620Y-77556988D01*
X72128617Y-77556991D01*
X71966434Y-77768347D01*
X71966427Y-77768357D01*
X71833212Y-77999083D01*
X71833208Y-77999092D01*
X71731248Y-78245233D01*
X71662286Y-78502581D01*
X71662284Y-78502590D01*
X71627503Y-78766732D01*
X71627502Y-78766741D01*
X71627501Y-78830425D01*
X71627500Y-78830451D01*
X71627500Y-78899951D01*
X71627498Y-78971235D01*
X71627500Y-78971264D01*
X71627500Y-79278849D01*
X71609194Y-79323043D01*
X71565000Y-79341349D01*
X71536626Y-79334537D01*
X71481436Y-79306417D01*
X71481431Y-79306415D01*
X71362013Y-79287501D01*
X71362001Y-79287500D01*
X71362000Y-79287500D01*
X71361998Y-79287500D01*
X70416634Y-79287500D01*
X70372440Y-79269194D01*
X69196560Y-78093314D01*
X69178254Y-78049120D01*
X69196560Y-78004926D01*
X69230978Y-77987389D01*
X69267705Y-77981572D01*
X69267710Y-77981571D01*
X69377498Y-77925631D01*
X69464631Y-77838498D01*
X69520571Y-77728710D01*
X69520574Y-77728700D01*
X69534998Y-77637629D01*
X69535000Y-77637613D01*
X69535000Y-77599000D01*
X68399888Y-77599000D01*
X68355694Y-77580694D01*
X68344000Y-77569000D01*
X66530000Y-77569000D01*
X66518306Y-77580694D01*
X66474112Y-77599000D01*
X66040000Y-77599000D01*
X66040000Y-77996000D01*
X66128614Y-77996000D01*
X66128629Y-77995998D01*
X66219700Y-77981574D01*
X66219710Y-77981571D01*
X66329498Y-77925631D01*
X66393271Y-77861859D01*
X66437465Y-77843553D01*
X66481659Y-77861859D01*
X66524526Y-77904726D01*
X66635725Y-77961385D01*
X66635729Y-77961386D01*
X66712272Y-77973509D01*
X66753058Y-77998503D01*
X66764226Y-78045017D01*
X66752080Y-78073287D01*
X66679451Y-78167939D01*
X66623097Y-78303989D01*
X66623094Y-78303999D01*
X66603874Y-78449998D01*
X66603874Y-78450001D01*
X66617452Y-78553141D01*
X66605071Y-78599347D01*
X66563645Y-78623264D01*
X66545711Y-78623030D01*
X66495010Y-78615000D01*
X66421000Y-78615000D01*
X66421000Y-79213500D01*
X66402694Y-79257694D01*
X66358500Y-79276000D01*
X64955845Y-79276000D01*
X64929072Y-79269975D01*
X64838512Y-79227043D01*
X64838507Y-79227041D01*
X64771471Y-79207357D01*
X64753321Y-79204747D01*
X64662577Y-79191700D01*
X64662572Y-79191700D01*
X64584000Y-79191700D01*
X64539806Y-79173394D01*
X64521500Y-79129200D01*
X64521500Y-78977995D01*
X64714000Y-78977995D01*
X64714000Y-79022000D01*
X65151000Y-79022000D01*
X65405000Y-79022000D01*
X66167000Y-79022000D01*
X66167000Y-78615000D01*
X66092998Y-78615000D01*
X66092992Y-78615001D01*
X66000728Y-78629613D01*
X65889526Y-78686273D01*
X65830194Y-78745606D01*
X65786000Y-78763912D01*
X65741806Y-78745606D01*
X65682473Y-78686273D01*
X65571274Y-78629614D01*
X65571264Y-78629611D01*
X65479020Y-78615001D01*
X65479005Y-78615000D01*
X65405000Y-78615000D01*
X65405000Y-79022000D01*
X65151000Y-79022000D01*
X65151000Y-78615000D01*
X65076998Y-78615000D01*
X65076992Y-78615001D01*
X64984728Y-78629613D01*
X64873526Y-78686273D01*
X64785273Y-78774526D01*
X64728614Y-78885725D01*
X64728611Y-78885735D01*
X64714001Y-78977979D01*
X64714000Y-78977995D01*
X64521500Y-78977995D01*
X64521500Y-78020692D01*
X64539806Y-77976498D01*
X64584000Y-77958192D01*
X64603323Y-77961254D01*
X64603737Y-77961388D01*
X64695979Y-77975998D01*
X64695994Y-77975999D01*
X64769999Y-77975999D01*
X65024000Y-77975999D01*
X65098003Y-77975999D01*
X65098006Y-77975998D01*
X65190271Y-77961386D01*
X65301473Y-77904726D01*
X65344341Y-77861859D01*
X65388535Y-77843553D01*
X65432729Y-77861859D01*
X65496501Y-77925631D01*
X65606289Y-77981571D01*
X65606299Y-77981574D01*
X65697370Y-77995998D01*
X65697386Y-77996000D01*
X65786000Y-77996000D01*
X65786000Y-77599000D01*
X65351888Y-77599000D01*
X65307694Y-77580694D01*
X65296000Y-77569000D01*
X65024000Y-77569000D01*
X65024000Y-77975999D01*
X64769999Y-77975999D01*
X64770000Y-77975998D01*
X64770000Y-77569000D01*
X64430017Y-77569000D01*
X64388420Y-77553147D01*
X64313647Y-77486470D01*
X64254869Y-77448700D01*
X64254858Y-77448694D01*
X64187799Y-77416910D01*
X64165347Y-77406268D01*
X64165345Y-77406267D01*
X64165346Y-77406267D01*
X64055030Y-77388800D01*
X64045911Y-77387356D01*
X64045910Y-77387356D01*
X63976035Y-77387358D01*
X63976007Y-77387363D01*
X63976000Y-77387361D01*
X63973813Y-77387518D01*
X63973760Y-77386789D01*
X63929660Y-77375526D01*
X63905257Y-77334383D01*
X63917094Y-77288036D01*
X63933331Y-77272920D01*
X63935215Y-77271710D01*
X63935214Y-77271709D01*
X63947198Y-77264008D01*
X63951432Y-77256923D01*
X64018386Y-77199637D01*
X64064136Y-77146829D01*
X64118874Y-77064257D01*
X64154586Y-76948727D01*
X64159704Y-76913104D01*
X64184108Y-76871967D01*
X64230457Y-76860132D01*
X64271368Y-76884232D01*
X64354777Y-76994223D01*
X64369284Y-77005224D01*
X64375760Y-77010135D01*
X64399913Y-77051425D01*
X64393683Y-77088309D01*
X64347614Y-77178725D01*
X64347611Y-77178735D01*
X64333001Y-77270979D01*
X64333000Y-77270995D01*
X64333000Y-77315000D01*
X65448112Y-77315000D01*
X65492306Y-77333306D01*
X65504000Y-77345000D01*
X66322000Y-77345000D01*
X66333694Y-77333306D01*
X66377888Y-77315000D01*
X68496112Y-77315000D01*
X68540306Y-77333306D01*
X68552000Y-77345000D01*
X69535000Y-77345000D01*
X69535000Y-77306386D01*
X69534998Y-77306370D01*
X69520574Y-77215299D01*
X69520571Y-77215289D01*
X69464631Y-77105501D01*
X69451667Y-77092537D01*
X69433361Y-77048343D01*
X69451667Y-77004149D01*
X69458092Y-76998546D01*
X69514654Y-76955654D01*
X69600445Y-76842522D01*
X69652532Y-76710439D01*
X69662500Y-76627436D01*
X69662500Y-76276564D01*
X69652532Y-76193561D01*
X69622576Y-76117597D01*
X69600448Y-76061484D01*
X69600445Y-76061479D01*
X69600445Y-76061478D01*
X69514654Y-75948346D01*
X69514653Y-75948345D01*
X69511631Y-75945323D01*
X69513096Y-75943857D01*
X69492419Y-75908514D01*
X69504533Y-75862238D01*
X69545822Y-75838083D01*
X69554336Y-75837500D01*
X69948429Y-75837500D01*
X69948436Y-75837500D01*
X70031439Y-75827532D01*
X70146408Y-75782194D01*
X70163515Y-75775448D01*
X70163516Y-75775447D01*
X70163522Y-75775445D01*
X70276654Y-75689654D01*
X70362445Y-75576522D01*
X70414532Y-75444439D01*
X70424500Y-75361436D01*
X70424500Y-75010564D01*
X70414532Y-74927561D01*
X70391027Y-74867957D01*
X70362448Y-74795484D01*
X70362445Y-74795479D01*
X70362445Y-74795478D01*
X70300480Y-74713765D01*
X70288362Y-74667489D01*
X70300480Y-74638235D01*
X70311915Y-74623155D01*
X70362445Y-74556522D01*
X70366462Y-74546337D01*
X70383099Y-74504147D01*
X70414532Y-74424439D01*
X70424500Y-74341436D01*
X70424500Y-73990564D01*
X70414532Y-73907561D01*
X70397827Y-73865200D01*
X70362448Y-73775484D01*
X70362445Y-73775479D01*
X70362445Y-73775478D01*
X70303512Y-73697764D01*
X70291395Y-73651489D01*
X70303513Y-73622235D01*
X70319142Y-73601625D01*
X70362445Y-73544522D01*
X70414532Y-73412439D01*
X70424500Y-73329436D01*
X70424500Y-72978564D01*
X70414532Y-72895561D01*
X70379965Y-72807905D01*
X70375427Y-72796398D01*
X74340474Y-72796398D01*
X74340474Y-72796401D01*
X74359694Y-72942400D01*
X74359697Y-72942410D01*
X74416051Y-73078459D01*
X74416054Y-73078464D01*
X74443340Y-73114025D01*
X74454125Y-73135895D01*
X74466256Y-73181166D01*
X74466259Y-73181174D01*
X74524908Y-73282755D01*
X74524909Y-73282756D01*
X74528187Y-73288433D01*
X74772394Y-73532640D01*
X74790700Y-73576833D01*
X74790700Y-73682754D01*
X74790701Y-73682758D01*
X74799571Y-73727356D01*
X74799572Y-73727358D01*
X74833366Y-73777934D01*
X74883942Y-73811728D01*
X74928543Y-73820600D01*
X74928546Y-73820599D01*
X74929658Y-73820821D01*
X74969432Y-73847396D01*
X74978764Y-73894313D01*
X74961660Y-73926314D01*
X74929512Y-73958462D01*
X74870925Y-74059936D01*
X74870924Y-74059939D01*
X74864121Y-74085332D01*
X74864120Y-74085336D01*
X74840898Y-74172004D01*
X74840600Y-74173115D01*
X74840600Y-74173116D01*
X74840600Y-74468369D01*
X74827685Y-74506416D01*
X74797053Y-74546336D01*
X74797051Y-74546339D01*
X74740697Y-74682389D01*
X74740694Y-74682399D01*
X74721474Y-74828398D01*
X74721474Y-74828401D01*
X74740694Y-74974400D01*
X74740697Y-74974410D01*
X74797051Y-75110460D01*
X74886702Y-75227297D01*
X74955560Y-75280133D01*
X75003537Y-75316947D01*
X75139593Y-75373304D01*
X75139597Y-75373304D01*
X75139599Y-75373305D01*
X75285598Y-75392526D01*
X75285600Y-75392526D01*
X75285602Y-75392526D01*
X75431600Y-75373305D01*
X75431600Y-75373304D01*
X75431607Y-75373304D01*
X75567663Y-75316947D01*
X75684497Y-75227297D01*
X75756716Y-75133179D01*
X75798142Y-75109262D01*
X75844347Y-75121642D01*
X75855882Y-75133177D01*
X75858671Y-75136811D01*
X75928102Y-75227297D01*
X75996960Y-75280133D01*
X76044937Y-75316947D01*
X76180993Y-75373304D01*
X76180997Y-75373304D01*
X76180999Y-75373305D01*
X76326998Y-75392526D01*
X76327000Y-75392526D01*
X76327002Y-75392526D01*
X76473000Y-75373305D01*
X76473000Y-75373304D01*
X76473007Y-75373304D01*
X76609063Y-75316947D01*
X76725897Y-75227297D01*
X76815547Y-75110463D01*
X76871904Y-74974407D01*
X76879647Y-74915593D01*
X76891126Y-74828401D01*
X76891126Y-74828398D01*
X76871905Y-74682399D01*
X76871904Y-74682397D01*
X76871904Y-74682393D01*
X76821415Y-74560504D01*
X76815548Y-74546339D01*
X76815546Y-74546336D01*
X76784915Y-74506416D01*
X76772000Y-74468369D01*
X76772000Y-74198516D01*
X76772000Y-74198515D01*
X76771853Y-74197968D01*
X76771841Y-74197923D01*
X76743804Y-74093286D01*
X76743803Y-74093282D01*
X76743803Y-74093283D01*
X76741674Y-74085337D01*
X76741674Y-74085336D01*
X76727009Y-74059936D01*
X76683091Y-73983867D01*
X76683084Y-73983858D01*
X76625539Y-73926313D01*
X76607233Y-73882119D01*
X76625539Y-73837925D01*
X76657542Y-73820820D01*
X76658653Y-73820599D01*
X76658656Y-73820599D01*
X76703258Y-73811728D01*
X76753834Y-73777934D01*
X76787628Y-73727358D01*
X76796500Y-73682757D01*
X76796499Y-73551433D01*
X76814803Y-73507242D01*
X76878014Y-73444032D01*
X77059014Y-73263032D01*
X77120944Y-73155767D01*
X77133074Y-73110491D01*
X77143859Y-73088623D01*
X77171147Y-73053063D01*
X77173958Y-73046278D01*
X77188440Y-73011314D01*
X77227504Y-72917007D01*
X77227505Y-72917000D01*
X77244522Y-72787742D01*
X77268439Y-72746316D01*
X77306487Y-72733400D01*
X77600272Y-72733400D01*
X77638316Y-72746313D01*
X77645137Y-72751547D01*
X77781193Y-72807904D01*
X77781197Y-72807904D01*
X77781199Y-72807905D01*
X77927198Y-72827126D01*
X77927200Y-72827126D01*
X77927202Y-72827126D01*
X78073200Y-72807905D01*
X78073200Y-72807904D01*
X78073207Y-72807904D01*
X78209263Y-72751547D01*
X78326097Y-72661897D01*
X78415747Y-72545063D01*
X78472104Y-72409007D01*
X78477761Y-72366041D01*
X78491326Y-72263001D01*
X78491326Y-72262998D01*
X78472105Y-72116999D01*
X78472104Y-72116997D01*
X78472104Y-72116993D01*
X78415747Y-71980937D01*
X78378933Y-71932960D01*
X78326097Y-71864102D01*
X78232913Y-71792600D01*
X78209263Y-71774453D01*
X78209262Y-71774452D01*
X78209260Y-71774451D01*
X78073210Y-71718097D01*
X78073200Y-71718094D01*
X77927202Y-71698874D01*
X77927198Y-71698874D01*
X77781199Y-71718094D01*
X77781189Y-71718097D01*
X77645140Y-71774451D01*
X77645137Y-71774452D01*
X77645137Y-71774453D01*
X77638316Y-71779686D01*
X77600272Y-71792600D01*
X76579230Y-71792600D01*
X76455370Y-71792600D01*
X76455369Y-71792600D01*
X76455363Y-71792601D01*
X76395551Y-71808628D01*
X76345320Y-71822087D01*
X76297894Y-71815843D01*
X76279560Y-71799766D01*
X76192497Y-71686303D01*
X76192495Y-71686302D01*
X76192495Y-71686301D01*
X76121640Y-71631933D01*
X76075663Y-71596653D01*
X76075662Y-71596652D01*
X76075660Y-71596651D01*
X75939610Y-71540297D01*
X75939600Y-71540294D01*
X75793602Y-71521074D01*
X75793598Y-71521074D01*
X75647599Y-71540294D01*
X75647589Y-71540297D01*
X75511539Y-71596651D01*
X75394702Y-71686302D01*
X75305051Y-71803139D01*
X75248695Y-71939193D01*
X75248694Y-71939195D01*
X75239199Y-72011318D01*
X75215281Y-72052744D01*
X75189430Y-72064458D01*
X75181993Y-72065937D01*
X75181991Y-72065938D01*
X75097976Y-72122076D01*
X75038417Y-72211212D01*
X75036577Y-72209982D01*
X75008970Y-72237576D01*
X74976908Y-72241793D01*
X74904602Y-72232274D01*
X74904598Y-72232274D01*
X74758599Y-72251494D01*
X74758589Y-72251497D01*
X74622539Y-72307851D01*
X74505702Y-72397502D01*
X74416051Y-72514339D01*
X74359697Y-72650389D01*
X74359694Y-72650399D01*
X74340474Y-72796398D01*
X70375427Y-72796398D01*
X70362448Y-72763484D01*
X70362445Y-72763479D01*
X70362445Y-72763478D01*
X70300480Y-72681765D01*
X70288362Y-72635489D01*
X70300480Y-72606235D01*
X70320520Y-72579808D01*
X70362445Y-72524522D01*
X70364238Y-72519977D01*
X70398396Y-72433356D01*
X70414532Y-72392439D01*
X70424500Y-72309436D01*
X70424500Y-71958564D01*
X70414532Y-71875561D01*
X70402846Y-71845927D01*
X70403662Y-71798101D01*
X70438059Y-71764858D01*
X70460988Y-71760500D01*
X74116643Y-71760500D01*
X74141379Y-71759173D01*
X74157956Y-71758285D01*
X74184314Y-71755451D01*
X74214335Y-71751025D01*
X74328226Y-71710389D01*
X74389549Y-71676904D01*
X74477616Y-71610978D01*
X75325787Y-70762805D01*
X75369981Y-70744500D01*
X79814880Y-70744500D01*
X79814882Y-70744500D01*
X79919941Y-70729948D01*
X79921852Y-70729408D01*
X79927859Y-70727712D01*
X79975365Y-70733314D01*
G37*
%TD.AperFunction*%
%TA.AperFunction,Conductor*%
G36*
X52909315Y-74863979D02*
G01*
X52912205Y-74867957D01*
X52910790Y-74868984D01*
X52926600Y-74907152D01*
X52926600Y-75762496D01*
X52913901Y-75800260D01*
X52883555Y-75840276D01*
X52883553Y-75840280D01*
X52831468Y-75972359D01*
X52821501Y-76055353D01*
X52821500Y-76055370D01*
X52821500Y-76506229D01*
X52821501Y-76506246D01*
X52831468Y-76589240D01*
X52883551Y-76721315D01*
X52883553Y-76721319D01*
X52883554Y-76721321D01*
X52883555Y-76721322D01*
X52909491Y-76755524D01*
X52918373Y-76767236D01*
X52930490Y-76813511D01*
X52906336Y-76854801D01*
X52868572Y-76867500D01*
X51970628Y-76867500D01*
X51970599Y-76867498D01*
X51966260Y-76867498D01*
X51961994Y-76867498D01*
X51903081Y-76867499D01*
X51895577Y-76867047D01*
X51785819Y-76853774D01*
X51771241Y-76850195D01*
X51671360Y-76812475D01*
X51658056Y-76805525D01*
X51570050Y-76745080D01*
X51558787Y-76735157D01*
X51546450Y-76721322D01*
X51487730Y-76655470D01*
X51479159Y-76643149D01*
X51429152Y-76548821D01*
X51423765Y-76534811D01*
X51416571Y-76506246D01*
X51397690Y-76431276D01*
X51395799Y-76416398D01*
X51395140Y-76306100D01*
X51395604Y-76298141D01*
X51578619Y-74807600D01*
X52880588Y-74807600D01*
X52909315Y-74863979D01*
G37*
%TD.AperFunction*%
%TA.AperFunction,Conductor*%
G36*
X54685794Y-72918300D02*
G01*
X54685796Y-72918300D01*
X55058204Y-72918300D01*
X55058206Y-72918300D01*
X55112995Y-72910317D01*
X55131005Y-72910317D01*
X55185794Y-72918300D01*
X55378000Y-72918300D01*
X55422194Y-72936606D01*
X55440500Y-72980800D01*
X55440500Y-73172998D01*
X55440501Y-73173015D01*
X55448481Y-73227790D01*
X55448481Y-73245810D01*
X55440501Y-73300584D01*
X55440500Y-73300601D01*
X55440500Y-73509585D01*
X55422194Y-73553779D01*
X55378000Y-73572085D01*
X55354082Y-73567327D01*
X55238610Y-73519497D01*
X55238600Y-73519494D01*
X55092602Y-73500274D01*
X55092598Y-73500274D01*
X54946599Y-73519494D01*
X54946589Y-73519497D01*
X54810539Y-73575851D01*
X54693702Y-73665502D01*
X54604051Y-73782339D01*
X54579503Y-73841602D01*
X54545678Y-73875427D01*
X54505583Y-73878054D01*
X54502004Y-73877094D01*
X54479402Y-73874119D01*
X54437976Y-73850201D01*
X54429820Y-73836076D01*
X54387347Y-73733537D01*
X54324389Y-73651489D01*
X54297698Y-73616704D01*
X54244460Y-73575853D01*
X54190878Y-73534738D01*
X54166962Y-73493312D01*
X54179342Y-73447106D01*
X54190873Y-73435575D01*
X54272297Y-73373097D01*
X54361947Y-73256263D01*
X54418304Y-73120207D01*
X54421164Y-73098487D01*
X54437731Y-72972642D01*
X54461648Y-72931216D01*
X54499696Y-72918300D01*
X54558204Y-72918300D01*
X54558206Y-72918300D01*
X54612995Y-72910317D01*
X54631005Y-72910317D01*
X54685794Y-72918300D01*
G37*
%TD.AperFunction*%
%TA.AperFunction,Conductor*%
G36*
X53409314Y-71609621D02*
G01*
X53354417Y-71717363D01*
X53354415Y-71717368D01*
X53335501Y-71836786D01*
X53335500Y-71836802D01*
X53335500Y-72186808D01*
X53340257Y-72247260D01*
X53377626Y-72362267D01*
X53378725Y-72364424D01*
X53378852Y-72366041D01*
X53379146Y-72366945D01*
X53378929Y-72367015D01*
X53382479Y-72412112D01*
X53351414Y-72448487D01*
X53323038Y-72455300D01*
X53322600Y-72455300D01*
X53322600Y-71607200D01*
X53411735Y-71607200D01*
X53409314Y-71609621D01*
G37*
%TD.AperFunction*%
%TA.AperFunction,Conductor*%
G36*
X63989433Y-70108809D02*
G01*
X64008023Y-70152885D01*
X63990002Y-70197196D01*
X63989720Y-70197480D01*
X63979672Y-70207528D01*
X63923014Y-70318725D01*
X63923011Y-70318735D01*
X63908401Y-70410979D01*
X63908400Y-70410995D01*
X63908400Y-70485000D01*
X64506900Y-70485000D01*
X64551094Y-70503306D01*
X64569400Y-70547500D01*
X64569400Y-71024255D01*
X64566092Y-71044319D01*
X64563787Y-71051117D01*
X64548058Y-71171010D01*
X64548058Y-71171018D01*
X64549080Y-71209431D01*
X64531956Y-71254097D01*
X64519753Y-71264076D01*
X64120352Y-71513978D01*
X64120329Y-71513993D01*
X64118807Y-71515070D01*
X64072152Y-71525627D01*
X64065128Y-71523998D01*
X64021397Y-71511157D01*
X63972996Y-71504198D01*
X63912500Y-71495500D01*
X63756362Y-71495500D01*
X63756359Y-71495500D01*
X63742554Y-71495746D01*
X63734717Y-71496026D01*
X63726450Y-71495525D01*
X63726437Y-71495692D01*
X63723997Y-71495500D01*
X63723995Y-71495500D01*
X63712531Y-71495500D01*
X63668337Y-71477194D01*
X63662730Y-71470764D01*
X63662120Y-71469960D01*
X63661223Y-71468777D01*
X63640238Y-71452863D01*
X63616085Y-71411575D01*
X63622315Y-71374689D01*
X63668386Y-71284271D01*
X63668388Y-71284264D01*
X63682998Y-71192020D01*
X63683000Y-71192004D01*
X63683000Y-71148000D01*
X62555001Y-71148000D01*
X62555001Y-71192006D01*
X62569613Y-71284271D01*
X62615684Y-71374690D01*
X62619437Y-71422378D01*
X62597761Y-71452864D01*
X62576777Y-71468776D01*
X62575272Y-71470762D01*
X62574115Y-71471438D01*
X62573754Y-71471800D01*
X62573659Y-71471705D01*
X62533983Y-71494917D01*
X62525470Y-71495500D01*
X62518915Y-71495500D01*
X62503649Y-71496920D01*
X62488968Y-71496553D01*
X62481643Y-71495500D01*
X62481639Y-71495500D01*
X61465000Y-71495500D01*
X61464992Y-71495500D01*
X61382842Y-71504332D01*
X61382840Y-71504333D01*
X61380903Y-71504754D01*
X61333830Y-71496246D01*
X61306560Y-71456945D01*
X61315068Y-71409872D01*
X61323434Y-71399493D01*
X61872931Y-70849995D01*
X62555000Y-70849995D01*
X62555000Y-70894000D01*
X62992000Y-70894000D01*
X63246000Y-70894000D01*
X63682999Y-70894000D01*
X63682999Y-70849997D01*
X63682998Y-70849993D01*
X63677140Y-70813006D01*
X63908401Y-70813006D01*
X63923013Y-70905271D01*
X63979673Y-71016473D01*
X64067926Y-71104726D01*
X64179125Y-71161385D01*
X64179135Y-71161388D01*
X64271380Y-71175998D01*
X64271395Y-71175999D01*
X64315400Y-71175998D01*
X64315400Y-70739000D01*
X63908401Y-70739000D01*
X63908401Y-70813006D01*
X63677140Y-70813006D01*
X63668386Y-70757728D01*
X63611726Y-70646526D01*
X63523473Y-70558273D01*
X63412274Y-70501614D01*
X63412264Y-70501611D01*
X63320020Y-70487001D01*
X63320005Y-70487000D01*
X63246000Y-70487000D01*
X63246000Y-70894000D01*
X62992000Y-70894000D01*
X62992000Y-70487000D01*
X62917998Y-70487000D01*
X62917992Y-70487001D01*
X62825728Y-70501613D01*
X62714526Y-70558273D01*
X62626273Y-70646526D01*
X62569614Y-70757725D01*
X62569611Y-70757735D01*
X62555001Y-70849979D01*
X62555000Y-70849995D01*
X61872931Y-70849995D01*
X61983588Y-70739338D01*
X62003856Y-70725795D01*
X62080263Y-70694147D01*
X62197097Y-70604497D01*
X62286747Y-70487663D01*
X62343104Y-70351607D01*
X62362326Y-70205600D01*
X62357805Y-70171262D01*
X62370185Y-70125058D01*
X62411611Y-70101140D01*
X62419361Y-70100606D01*
X63945125Y-70090789D01*
X63989433Y-70108809D01*
G37*
%TD.AperFunction*%
%TA.AperFunction,Conductor*%
G36*
X53942381Y-67679651D02*
G01*
X53960687Y-67723845D01*
X53951108Y-67757096D01*
X53915152Y-67814320D01*
X53915150Y-67814324D01*
X53915150Y-67814325D01*
X53908477Y-67833395D01*
X53857453Y-67979211D01*
X53837895Y-68152800D01*
X53857453Y-68326388D01*
X53915152Y-68491280D01*
X53915153Y-68491281D01*
X53973789Y-68584600D01*
X53330459Y-68584600D01*
X53392645Y-68502595D01*
X53445236Y-68369234D01*
X53455300Y-68285429D01*
X53455299Y-68104232D01*
X53473604Y-68060040D01*
X53853994Y-67679650D01*
X53898187Y-67661345D01*
X53942381Y-67679651D01*
G37*
%TD.AperFunction*%
%TA.AperFunction,Conductor*%
G36*
X53899254Y-56503827D02*
G01*
X53902713Y-56504843D01*
X54011606Y-56520500D01*
X54011611Y-56520500D01*
X54599198Y-56520500D01*
X54599208Y-56520500D01*
X54654214Y-56516566D01*
X54688036Y-56511703D01*
X54734385Y-56523533D01*
X54741271Y-56530336D01*
X54741607Y-56530001D01*
X54744498Y-56532892D01*
X54744500Y-56532894D01*
X54744503Y-56532897D01*
X54861337Y-56622547D01*
X54861340Y-56622548D01*
X54861341Y-56622549D01*
X54890114Y-56634467D01*
X54997393Y-56678904D01*
X54997397Y-56678904D01*
X54997399Y-56678905D01*
X55143398Y-56698126D01*
X55143400Y-56698126D01*
X55143402Y-56698126D01*
X55289400Y-56678905D01*
X55289400Y-56678904D01*
X55289407Y-56678904D01*
X55425463Y-56622547D01*
X55542297Y-56532897D01*
X55543027Y-56531944D01*
X55543554Y-56531640D01*
X55545195Y-56530000D01*
X55545634Y-56530439D01*
X55584451Y-56508022D01*
X55601503Y-56508121D01*
X55687592Y-56520500D01*
X55760193Y-56520500D01*
X55804387Y-56538806D01*
X55822693Y-56583000D01*
X55818632Y-56605161D01*
X55807518Y-56634467D01*
X55766432Y-56742803D01*
X55747832Y-56895996D01*
X55747832Y-56896003D01*
X55766432Y-57049196D01*
X55821160Y-57193503D01*
X55854287Y-57241497D01*
X55864326Y-57288267D01*
X55854287Y-57312503D01*
X55821160Y-57360496D01*
X55766432Y-57504803D01*
X55747832Y-57657996D01*
X55747832Y-57658003D01*
X55766432Y-57811196D01*
X55766433Y-57811200D01*
X55766434Y-57811202D01*
X55781262Y-57850300D01*
X55821160Y-57955504D01*
X55908824Y-58082507D01*
X55908828Y-58082511D01*
X55969221Y-58136014D01*
X56024343Y-58184848D01*
X56160991Y-58256566D01*
X56160992Y-58256566D01*
X56160993Y-58256567D01*
X56310836Y-58293500D01*
X56465164Y-58293500D01*
X56615007Y-58256567D01*
X56751657Y-58184848D01*
X56867173Y-58082510D01*
X56954841Y-57955501D01*
X57009566Y-57811202D01*
X57028168Y-57658000D01*
X57021460Y-57602756D01*
X57009567Y-57504803D01*
X57009566Y-57504801D01*
X57009566Y-57504798D01*
X56954841Y-57360499D01*
X56921711Y-57312503D01*
X56911672Y-57265735D01*
X56921710Y-57241497D01*
X56954841Y-57193501D01*
X57009566Y-57049202D01*
X57009567Y-57049196D01*
X57028168Y-56896003D01*
X57028168Y-56895996D01*
X57009567Y-56742803D01*
X57009566Y-56742801D01*
X57009566Y-56742798D01*
X56957368Y-56605162D01*
X56958813Y-56557349D01*
X56993644Y-56524561D01*
X57015807Y-56520500D01*
X58520397Y-56520500D01*
X58564591Y-56538806D01*
X58582897Y-56583000D01*
X58564591Y-56627194D01*
X58558167Y-56632795D01*
X58555962Y-56634468D01*
X58475947Y-56695145D01*
X58475940Y-56695152D01*
X58454398Y-56723558D01*
X58420779Y-56746161D01*
X58401736Y-56751265D01*
X58401732Y-56751266D01*
X58367435Y-56760455D01*
X58367432Y-56760456D01*
X58260166Y-56822387D01*
X58260167Y-56822387D01*
X57581950Y-57500602D01*
X57545920Y-57518372D01*
X57537397Y-57519494D01*
X57537388Y-57519497D01*
X57401339Y-57575851D01*
X57284502Y-57665502D01*
X57194851Y-57782339D01*
X57138497Y-57918389D01*
X57138494Y-57918399D01*
X57119274Y-58064398D01*
X57119274Y-58064401D01*
X57138494Y-58210400D01*
X57138497Y-58210410D01*
X57194851Y-58346460D01*
X57284502Y-58463297D01*
X57300419Y-58475510D01*
X57401337Y-58552947D01*
X57537393Y-58609304D01*
X57537397Y-58609304D01*
X57537399Y-58609305D01*
X57683398Y-58628526D01*
X57683400Y-58628526D01*
X57683402Y-58628526D01*
X57829400Y-58609305D01*
X57829400Y-58609304D01*
X57829407Y-58609304D01*
X57965463Y-58552947D01*
X58082297Y-58463297D01*
X58142827Y-58384413D01*
X58455600Y-58384413D01*
X58455601Y-58384429D01*
X58470025Y-58475500D01*
X58470028Y-58475510D01*
X58525968Y-58585298D01*
X58613101Y-58672431D01*
X58722889Y-58728371D01*
X58722899Y-58728374D01*
X58813970Y-58742798D01*
X58813986Y-58742800D01*
X58902600Y-58742800D01*
X58902600Y-58345800D01*
X58455600Y-58345800D01*
X58455600Y-58384413D01*
X58142827Y-58384413D01*
X58171947Y-58346463D01*
X58228304Y-58210407D01*
X58229425Y-58201885D01*
X58247196Y-58165848D01*
X58348907Y-58064137D01*
X58393100Y-58045832D01*
X58437294Y-58064138D01*
X58443909Y-58080109D01*
X58455600Y-58091800D01*
X59094100Y-58091800D01*
X59138294Y-58110106D01*
X59156600Y-58154300D01*
X59156600Y-58742800D01*
X59245214Y-58742800D01*
X59245229Y-58742798D01*
X59336300Y-58728374D01*
X59336310Y-58728371D01*
X59446096Y-58672432D01*
X59503137Y-58615391D01*
X59547331Y-58597085D01*
X59591526Y-58615390D01*
X59609832Y-58659584D01*
X59609298Y-58667740D01*
X59608474Y-58674001D01*
X59627694Y-58820000D01*
X59627697Y-58820010D01*
X59684051Y-58956060D01*
X59773702Y-59072897D01*
X59842560Y-59125733D01*
X59890537Y-59162547D01*
X60026593Y-59218904D01*
X60026597Y-59218904D01*
X60026599Y-59218905D01*
X60064228Y-59223858D01*
X60172600Y-59238126D01*
X60181823Y-59236911D01*
X60200122Y-59238112D01*
X60200208Y-59237465D01*
X60204269Y-59237999D01*
X60204270Y-59238000D01*
X60204271Y-59238000D01*
X60264144Y-59238000D01*
X60284786Y-59241507D01*
X60298670Y-59246365D01*
X60298673Y-59246366D01*
X60327827Y-59249100D01*
X60594037Y-59249099D01*
X60638231Y-59267405D01*
X60656537Y-59311599D01*
X60654054Y-59329042D01*
X60636915Y-59388011D01*
X60621557Y-59496943D01*
X60632573Y-63499998D01*
X60632576Y-63501064D01*
X60632576Y-63501068D01*
X60636436Y-64903976D01*
X60618252Y-64948220D01*
X60574108Y-64966648D01*
X60529864Y-64948464D01*
X60475473Y-64894073D01*
X60364274Y-64837414D01*
X60364264Y-64837411D01*
X60272020Y-64822801D01*
X60272005Y-64822800D01*
X60198000Y-64822800D01*
X60198000Y-65421300D01*
X60179694Y-65465494D01*
X60135500Y-65483800D01*
X60006500Y-65483800D01*
X59962306Y-65465494D01*
X59944000Y-65421300D01*
X59944000Y-64822800D01*
X59869998Y-64822800D01*
X59869992Y-64822801D01*
X59777728Y-64837413D01*
X59666526Y-64894073D01*
X59578273Y-64982326D01*
X59573333Y-64992021D01*
X59536956Y-65023085D01*
X59489268Y-65019328D01*
X59458204Y-64982951D01*
X59455682Y-64955486D01*
X59466726Y-64871600D01*
X59462225Y-64837414D01*
X59447505Y-64725599D01*
X59447504Y-64725597D01*
X59447504Y-64725593D01*
X59430857Y-64685403D01*
X59426099Y-64661485D01*
X59426099Y-64531221D01*
X59423366Y-64502073D01*
X59412073Y-64469800D01*
X59380405Y-64379296D01*
X59303163Y-64274637D01*
X59198504Y-64197395D01*
X59075729Y-64154434D01*
X59075724Y-64154433D01*
X59056567Y-64152637D01*
X59046573Y-64151700D01*
X59046569Y-64151700D01*
X58903171Y-64151700D01*
X58858977Y-64133394D01*
X58845429Y-64113120D01*
X58832347Y-64081537D01*
X58793919Y-64031457D01*
X58742697Y-63964702D01*
X58625860Y-63875051D01*
X58489810Y-63818697D01*
X58489800Y-63818694D01*
X58343802Y-63799474D01*
X58343798Y-63799474D01*
X58197799Y-63818694D01*
X58197789Y-63818697D01*
X58061739Y-63875051D01*
X57944902Y-63964702D01*
X57855251Y-64081539D01*
X57798895Y-64217593D01*
X57798894Y-64217595D01*
X57797789Y-64225994D01*
X57773870Y-64267420D01*
X57743027Y-64279918D01*
X57723792Y-64282149D01*
X57723791Y-64282149D01*
X57619821Y-64328057D01*
X57539457Y-64408421D01*
X57493548Y-64512394D01*
X57490600Y-64537811D01*
X57490600Y-64718200D01*
X57800600Y-64718200D01*
X57844794Y-64736506D01*
X57863100Y-64780700D01*
X57863100Y-64918032D01*
X57863101Y-64955700D01*
X57844795Y-64999894D01*
X57800601Y-65018200D01*
X57490601Y-65018200D01*
X57490601Y-65198588D01*
X57493549Y-65224007D01*
X57493549Y-65224008D01*
X57539457Y-65327978D01*
X57563494Y-65352015D01*
X57581800Y-65396209D01*
X57581800Y-65652408D01*
X57563494Y-65696602D01*
X57556414Y-65702695D01*
X57486037Y-65754636D01*
X57408795Y-65859294D01*
X57408795Y-65859295D01*
X57365834Y-65982070D01*
X57365833Y-65982075D01*
X57363802Y-66003730D01*
X57363121Y-66011009D01*
X57363100Y-66011230D01*
X57363100Y-66157399D01*
X57358343Y-66181315D01*
X57349697Y-66202189D01*
X57349694Y-66202199D01*
X57330474Y-66348198D01*
X57330474Y-66348201D01*
X57349694Y-66494200D01*
X57349695Y-66494205D01*
X57349696Y-66494207D01*
X57354741Y-66506386D01*
X57358343Y-66515083D01*
X57363100Y-66539000D01*
X57363100Y-66685178D01*
X57365833Y-66714326D01*
X57408795Y-66837104D01*
X57408795Y-66837105D01*
X57442520Y-66882800D01*
X57486037Y-66941763D01*
X57590696Y-67019005D01*
X57713473Y-67061966D01*
X57742627Y-67064700D01*
X58046572Y-67064699D01*
X58046578Y-67064699D01*
X58071562Y-67062356D01*
X58075727Y-67061966D01*
X58198504Y-67019005D01*
X58303163Y-66941763D01*
X58344313Y-66886007D01*
X58385285Y-66861319D01*
X58431714Y-66872834D01*
X58444887Y-66886007D01*
X58486037Y-66941763D01*
X58590696Y-67019005D01*
X58713473Y-67061966D01*
X58742627Y-67064700D01*
X58905757Y-67064699D01*
X58949951Y-67083005D01*
X58968257Y-67127199D01*
X58967722Y-67135363D01*
X58967296Y-67138591D01*
X58967296Y-67138593D01*
X58966450Y-67145011D01*
X58966173Y-67147120D01*
X58948402Y-67183150D01*
X57927233Y-68204320D01*
X57883039Y-68222626D01*
X57838845Y-68204320D01*
X56674119Y-67039594D01*
X56655813Y-66995400D01*
X56656206Y-66988402D01*
X56661461Y-66941762D01*
X56668105Y-66882800D01*
X56648546Y-66709210D01*
X56590850Y-66544325D01*
X56590847Y-66544321D01*
X56590847Y-66544319D01*
X56590846Y-66544318D01*
X56497912Y-66396413D01*
X56374386Y-66272887D01*
X56226481Y-66179953D01*
X56226480Y-66179952D01*
X56226475Y-66179950D01*
X56151483Y-66153709D01*
X56061588Y-66122253D01*
X55933670Y-66107840D01*
X55891803Y-66084701D01*
X55878561Y-66038735D01*
X55888702Y-66011009D01*
X55908037Y-65982073D01*
X55917464Y-65967964D01*
X55973986Y-65831509D01*
X56002800Y-65686649D01*
X56002800Y-65538951D01*
X55973986Y-65394091D01*
X55917464Y-65257636D01*
X55835408Y-65134830D01*
X55792941Y-65092363D01*
X55774635Y-65048169D01*
X55792941Y-65003975D01*
X55813217Y-64990427D01*
X55870623Y-64966648D01*
X55890663Y-64958347D01*
X56007497Y-64868697D01*
X56097147Y-64751863D01*
X56153504Y-64615807D01*
X56157471Y-64585672D01*
X56172726Y-64469801D01*
X56172726Y-64469798D01*
X56153505Y-64323799D01*
X56153504Y-64323797D01*
X56153504Y-64323793D01*
X56097147Y-64187737D01*
X56039890Y-64113118D01*
X56007497Y-64070902D01*
X55914313Y-63999400D01*
X55890663Y-63981253D01*
X55890662Y-63981252D01*
X55890660Y-63981251D01*
X55754610Y-63924897D01*
X55754600Y-63924894D01*
X55608602Y-63905674D01*
X55608598Y-63905674D01*
X55462599Y-63924894D01*
X55462589Y-63924897D01*
X55326540Y-63981251D01*
X55326537Y-63981252D01*
X55326537Y-63981253D01*
X55319716Y-63986486D01*
X55281672Y-63999400D01*
X54530665Y-63999400D01*
X54484840Y-64011680D01*
X54475675Y-64014136D01*
X54411035Y-64031455D01*
X54411032Y-64031456D01*
X54303766Y-64093387D01*
X54303767Y-64093387D01*
X54125968Y-64271186D01*
X54038390Y-64358762D01*
X54038387Y-64358766D01*
X53976456Y-64466032D01*
X53976455Y-64466035D01*
X53944401Y-64585664D01*
X53944400Y-64585672D01*
X53944400Y-66358887D01*
X53926094Y-66403081D01*
X53898077Y-66419257D01*
X53876991Y-66424907D01*
X53863851Y-66428428D01*
X53804032Y-66444456D01*
X53804026Y-66444459D01*
X53696771Y-66506383D01*
X53696767Y-66506386D01*
X53696767Y-66506387D01*
X52778358Y-67424794D01*
X52734164Y-67443100D01*
X52553509Y-67443100D01*
X52509315Y-67424794D01*
X52491009Y-67380600D01*
X52491475Y-67372983D01*
X52502327Y-67284600D01*
X53139466Y-62095518D01*
X54850800Y-62095518D01*
X54850800Y-62313681D01*
X54879275Y-62529969D01*
X54879275Y-62529970D01*
X54935733Y-62740675D01*
X54935739Y-62740693D01*
X55019219Y-62942230D01*
X55019222Y-62942236D01*
X55128299Y-63131164D01*
X55261103Y-63304238D01*
X55415362Y-63458497D01*
X55588436Y-63591301D01*
X55777364Y-63700378D01*
X55978913Y-63783863D01*
X55978923Y-63783865D01*
X55978924Y-63783866D01*
X56189629Y-63840324D01*
X56189631Y-63840324D01*
X56189634Y-63840325D01*
X56405923Y-63868800D01*
X56405929Y-63868800D01*
X56624071Y-63868800D01*
X56624077Y-63868800D01*
X56840366Y-63840325D01*
X57051087Y-63783863D01*
X57252636Y-63700378D01*
X57441564Y-63591301D01*
X57614638Y-63458497D01*
X57768897Y-63304238D01*
X57901701Y-63131164D01*
X58010778Y-62942236D01*
X58094263Y-62740687D01*
X58150725Y-62529966D01*
X58179200Y-62313677D01*
X58179200Y-62095523D01*
X58150725Y-61879234D01*
X58148113Y-61869487D01*
X58094266Y-61668524D01*
X58094265Y-61668523D01*
X58094263Y-61668513D01*
X58010778Y-61466964D01*
X57901701Y-61278036D01*
X57768897Y-61104962D01*
X57614638Y-60950703D01*
X57614634Y-60950700D01*
X57614632Y-60950698D01*
X57441561Y-60817897D01*
X57252642Y-60708825D01*
X57252630Y-60708819D01*
X57051093Y-60625339D01*
X57051075Y-60625333D01*
X56840370Y-60568875D01*
X56624081Y-60540400D01*
X56624077Y-60540400D01*
X56405923Y-60540400D01*
X56405918Y-60540400D01*
X56189630Y-60568875D01*
X56189629Y-60568875D01*
X55978924Y-60625333D01*
X55978906Y-60625339D01*
X55777369Y-60708819D01*
X55777357Y-60708825D01*
X55588438Y-60817897D01*
X55415367Y-60950698D01*
X55415357Y-60950707D01*
X55261107Y-61104957D01*
X55261098Y-61104967D01*
X55128297Y-61278038D01*
X55019225Y-61466957D01*
X55019219Y-61466969D01*
X54935739Y-61668506D01*
X54935733Y-61668524D01*
X54879275Y-61879229D01*
X54879275Y-61879230D01*
X54850800Y-62095518D01*
X53139466Y-62095518D01*
X53819612Y-56556175D01*
X53843166Y-56514544D01*
X53889262Y-56501761D01*
X53899254Y-56503827D01*
G37*
%TD.AperFunction*%
%TA.AperFunction,Conductor*%
G36*
X70165938Y-61692453D02*
G01*
X70174283Y-61695565D01*
X70182073Y-61699123D01*
X70249107Y-61718806D01*
X70346951Y-61734304D01*
X70346951Y-61734303D01*
X70346952Y-61734304D01*
X70361096Y-61732476D01*
X70466878Y-61718809D01*
X70466883Y-61718807D01*
X70466886Y-61718807D01*
X70500413Y-61708963D01*
X70533918Y-61699126D01*
X70541701Y-61695570D01*
X70550049Y-61692456D01*
X70564790Y-61688128D01*
X70612349Y-61693238D01*
X70642366Y-61730483D01*
X70640959Y-61769935D01*
X70623926Y-61815604D01*
X70613985Y-61849459D01*
X70603990Y-61892444D01*
X70602263Y-62013355D01*
X70612206Y-62082515D01*
X70612206Y-62082516D01*
X70623465Y-62120856D01*
X70642709Y-62186394D01*
X70637596Y-62233956D01*
X70600350Y-62263971D01*
X70565131Y-62263971D01*
X70550059Y-62259545D01*
X70541710Y-62256431D01*
X70533928Y-62252878D01*
X70533925Y-62252877D01*
X70466886Y-62233193D01*
X70417961Y-62225444D01*
X70369038Y-62217696D01*
X70369037Y-62217696D01*
X70339508Y-62221512D01*
X70249108Y-62233194D01*
X70249106Y-62233194D01*
X70182075Y-62252876D01*
X70174292Y-62256430D01*
X70165944Y-62259543D01*
X70151209Y-62263870D01*
X70103647Y-62258758D01*
X70073631Y-62221512D01*
X70075039Y-62182061D01*
X70092071Y-62136400D01*
X70102014Y-62102537D01*
X70112009Y-62059558D01*
X70113736Y-61938646D01*
X70103793Y-61869487D01*
X70073290Y-61765601D01*
X70078403Y-61718042D01*
X70115650Y-61688027D01*
X70150864Y-61688027D01*
X70165938Y-61692453D01*
G37*
%TD.AperFunction*%
%TA.AperFunction,Conductor*%
G36*
X59291079Y-55514511D02*
G01*
X59291979Y-55513412D01*
X59293711Y-55514829D01*
X59383614Y-55578207D01*
X59383616Y-55578208D01*
X59391237Y-55582091D01*
X59402082Y-55589115D01*
X59418754Y-55602551D01*
X59418764Y-55602558D01*
X59438442Y-55615204D01*
X59460690Y-55629503D01*
X59487972Y-55668794D01*
X59489400Y-55682080D01*
X59489400Y-56303853D01*
X59498669Y-56302386D01*
X59498670Y-56302386D01*
X59589089Y-56256315D01*
X59636777Y-56252562D01*
X59667263Y-56274237D01*
X59683177Y-56295223D01*
X59797405Y-56381845D01*
X59797407Y-56381846D01*
X59797411Y-56381848D01*
X59893566Y-56419766D01*
X59930766Y-56434436D01*
X60014571Y-56444500D01*
X60376228Y-56444499D01*
X60460034Y-56434436D01*
X60495344Y-56420511D01*
X60543170Y-56421327D01*
X60559868Y-56432006D01*
X60561384Y-56433358D01*
X60670651Y-56485158D01*
X60737690Y-56504843D01*
X60846583Y-56520500D01*
X60846588Y-56520500D01*
X63414546Y-56520500D01*
X63427419Y-56520040D01*
X63429651Y-56520000D01*
X63562000Y-56520000D01*
X63606194Y-56538306D01*
X63624500Y-56582500D01*
X63624500Y-56778044D01*
X63890306Y-56512239D01*
X63934500Y-56493933D01*
X63978694Y-56512239D01*
X63997000Y-56556433D01*
X63997000Y-56768565D01*
X63978694Y-56812759D01*
X63819686Y-56971766D01*
X63784506Y-56989419D01*
X63768137Y-56991804D01*
X63653757Y-57047721D01*
X63653753Y-57047724D01*
X63561093Y-57140384D01*
X63516899Y-57158690D01*
X63472705Y-57140384D01*
X63454399Y-57096190D01*
X63454399Y-57057797D01*
X63454398Y-57057792D01*
X63439786Y-56965528D01*
X63383126Y-56854326D01*
X63294873Y-56766073D01*
X63183674Y-56709414D01*
X63183664Y-56709411D01*
X63091420Y-56694801D01*
X63091405Y-56694800D01*
X63017400Y-56694800D01*
X63017400Y-57293300D01*
X62999094Y-57337494D01*
X62954900Y-57355800D01*
X62326401Y-57355800D01*
X62326401Y-57399806D01*
X62333449Y-57444307D01*
X62322281Y-57490821D01*
X62281495Y-57515815D01*
X62234981Y-57504647D01*
X62227524Y-57498278D01*
X62145833Y-57416587D01*
X62145832Y-57416586D01*
X62048685Y-57360498D01*
X62038567Y-57354656D01*
X62038564Y-57354655D01*
X61978748Y-57338628D01*
X61966784Y-57335422D01*
X61918934Y-57322600D01*
X61918930Y-57322600D01*
X61918929Y-57322600D01*
X61368045Y-57322600D01*
X61347403Y-57319093D01*
X61260929Y-57288834D01*
X61260924Y-57288833D01*
X61241767Y-57287037D01*
X61231773Y-57286100D01*
X61231769Y-57286100D01*
X60927821Y-57286100D01*
X60898673Y-57288833D01*
X60825442Y-57314458D01*
X60784158Y-57314458D01*
X60710929Y-57288834D01*
X60710924Y-57288833D01*
X60691767Y-57287037D01*
X60681773Y-57286100D01*
X60681769Y-57286100D01*
X60327821Y-57286100D01*
X60297681Y-57288927D01*
X60291847Y-57289200D01*
X59811134Y-57289200D01*
X59766940Y-57270894D01*
X59749406Y-57253360D01*
X59731100Y-57209166D01*
X59731100Y-57057795D01*
X62326400Y-57057795D01*
X62326400Y-57101800D01*
X62763400Y-57101800D01*
X62763400Y-56694800D01*
X62689398Y-56694800D01*
X62689392Y-56694801D01*
X62597128Y-56709413D01*
X62485926Y-56766073D01*
X62397673Y-56854326D01*
X62341014Y-56965525D01*
X62341011Y-56965535D01*
X62326401Y-57057779D01*
X62326400Y-57057795D01*
X59731100Y-57057795D01*
X59731100Y-57023370D01*
X59731100Y-57023364D01*
X59721132Y-56940361D01*
X59674609Y-56822387D01*
X59669048Y-56808284D01*
X59669045Y-56808279D01*
X59669045Y-56808278D01*
X59583254Y-56695146D01*
X59470122Y-56609355D01*
X59470120Y-56609354D01*
X59470115Y-56609351D01*
X59338040Y-56557268D01*
X59255046Y-56547301D01*
X59255042Y-56547300D01*
X59255036Y-56547300D01*
X58902434Y-56547300D01*
X58858240Y-56528994D01*
X58839934Y-56484800D01*
X58858240Y-56440606D01*
X58861506Y-56437565D01*
X58866361Y-56433358D01*
X58948415Y-56362260D01*
X58993412Y-56308809D01*
X59046977Y-56225464D01*
X59081047Y-56109439D01*
X59082853Y-56095459D01*
X59090003Y-56040151D01*
X59090003Y-56040150D01*
X59090003Y-56040146D01*
X59088432Y-55930137D01*
X59088169Y-55928475D01*
X59087400Y-55918700D01*
X59087400Y-55587367D01*
X59087186Y-55574535D01*
X59086913Y-55566337D01*
X59086820Y-55563716D01*
X59103547Y-55518901D01*
X59147065Y-55499039D01*
X59149281Y-55499000D01*
X59252102Y-55499000D01*
X59291079Y-55514511D01*
G37*
%TD.AperFunction*%
%TA.AperFunction,Conductor*%
G36*
X77557161Y-56395531D02*
G01*
X77569342Y-56399107D01*
X77573577Y-56400350D01*
X77589758Y-56407739D01*
X77646958Y-56444500D01*
X77654723Y-56449490D01*
X77682005Y-56488783D01*
X77673511Y-56535858D01*
X77668167Y-56542997D01*
X77617597Y-56601358D01*
X77604153Y-56613007D01*
X77589763Y-56622255D01*
X77573585Y-56629644D01*
X77557163Y-56634467D01*
X77539551Y-56637000D01*
X77522444Y-56637000D01*
X77504836Y-56634468D01*
X77488419Y-56629647D01*
X77472238Y-56622257D01*
X77457844Y-56613006D01*
X77444401Y-56601358D01*
X77433197Y-56588428D01*
X77423579Y-56573462D01*
X77416470Y-56557895D01*
X77411458Y-56540828D01*
X77409023Y-56523894D01*
X77409023Y-56506103D01*
X77409204Y-56504842D01*
X77411458Y-56489166D01*
X77416467Y-56472106D01*
X77423578Y-56456535D01*
X77433193Y-56441575D01*
X77444404Y-56428637D01*
X77457843Y-56416991D01*
X77472239Y-56407739D01*
X77488412Y-56400354D01*
X77504840Y-56395530D01*
X77522445Y-56393000D01*
X77539556Y-56393000D01*
X77557161Y-56395531D01*
G37*
%TD.AperFunction*%
%TA.AperFunction,Conductor*%
G36*
X58419999Y-54917922D02*
G01*
X58381802Y-54902100D01*
X58458196Y-54902100D01*
X58419999Y-54917922D01*
G37*
%TD.AperFunction*%
%TA.AperFunction,Conductor*%
G36*
X58013693Y-53180306D02*
G01*
X58031999Y-53224500D01*
X58031999Y-53533927D01*
X58031875Y-53537863D01*
X58030081Y-53566287D01*
X58030080Y-53566303D01*
X58031514Y-53612602D01*
X58031514Y-53612609D01*
X58031515Y-53612616D01*
X58034604Y-53640422D01*
X58038313Y-53673799D01*
X58079494Y-53787504D01*
X58113266Y-53848660D01*
X58125888Y-53865859D01*
X58138000Y-53902836D01*
X58138000Y-53943389D01*
X58461711Y-54267100D01*
X58378200Y-54267100D01*
X58297449Y-54288737D01*
X58225050Y-54330537D01*
X58165937Y-54389650D01*
X58124137Y-54462049D01*
X58102500Y-54542800D01*
X58102500Y-54626311D01*
X57957663Y-54481474D01*
X57939357Y-54437280D01*
X57941262Y-54421969D01*
X57944448Y-54409363D01*
X57950376Y-54376948D01*
X57955560Y-54336828D01*
X57945787Y-54216300D01*
X57929315Y-54148400D01*
X57923701Y-54134378D01*
X57893478Y-54058894D01*
X57889000Y-54035663D01*
X57889000Y-53927853D01*
X57882979Y-53878499D01*
X57877667Y-53834948D01*
X57863337Y-53777083D01*
X57835018Y-53699466D01*
X57765347Y-53600630D01*
X57716653Y-53550523D01*
X57716652Y-53550522D01*
X57716649Y-53550519D01*
X57653631Y-53500472D01*
X57630407Y-53458652D01*
X57630000Y-53451529D01*
X57630000Y-53266493D01*
X57648306Y-53222299D01*
X57662548Y-53211638D01*
X57676558Y-53203988D01*
X57708240Y-53180269D01*
X57717312Y-53174619D01*
X57728716Y-53168809D01*
X57757085Y-53162000D01*
X57969499Y-53162000D01*
X58013693Y-53180306D01*
G37*
%TD.AperFunction*%
%TA.AperFunction,Conductor*%
G36*
X58753322Y-54584599D02*
G01*
X58737500Y-54622796D01*
X58737500Y-54546401D01*
X58753322Y-54584599D01*
G37*
%TD.AperFunction*%
%TD*%
D74*
X62551177Y-89365827D03*
X62558818Y-88223553D03*
X63137596Y-88229283D03*
X62553087Y-88796600D03*
X63139506Y-89373468D03*
X63143326Y-88800420D03*
D75*
X70612000Y-62230000D03*
X67421000Y-75060000D03*
X75819000Y-74650600D03*
D74*
X72125800Y-56515000D03*
D75*
X59436000Y-62230000D03*
X68961000Y-77470000D03*
X67208400Y-79629000D03*
D74*
X66931169Y-83693452D03*
D75*
X54152800Y-73431400D03*
X70104000Y-62230000D03*
X67945000Y-77442000D03*
X67081400Y-91033600D03*
X70612000Y-61722000D03*
X70104000Y-61722000D03*
D74*
X77531000Y-56515000D03*
D75*
X69850000Y-54615600D03*
X58928000Y-62230000D03*
X59436000Y-61722000D03*
D74*
X63500000Y-56642000D03*
D75*
X59766200Y-58216800D03*
X77241400Y-72771000D03*
X57886600Y-64871600D03*
X58928000Y-61722000D03*
X69342000Y-68858000D03*
X74320400Y-72821800D03*
X63909000Y-77343000D03*
X63119000Y-71021000D03*
D74*
X62230000Y-82550000D03*
X62865000Y-82550000D03*
X62103000Y-74295000D03*
X62738000Y-73025000D03*
X62865000Y-81915000D03*
X62103000Y-73025000D03*
X62738000Y-73660000D03*
X62103000Y-73660000D03*
X62230000Y-81915000D03*
X63500000Y-81915000D03*
D75*
X67168000Y-78450000D03*
D74*
X62738000Y-74295000D03*
X63500000Y-82550000D03*
D75*
X61595000Y-58597800D03*
X71374000Y-67181000D03*
X69723000Y-75184000D03*
X75793600Y-72085200D03*
X55608600Y-64469800D03*
X68354000Y-68859400D03*
X67338000Y-81026000D03*
X53873400Y-72974200D03*
X59512200Y-67284600D03*
D74*
X63093600Y-86233000D03*
X75184000Y-58166000D03*
D75*
X70612000Y-63754000D03*
D74*
X56388000Y-57658000D03*
D75*
X61976000Y-63754000D03*
X61468000Y-63754000D03*
D74*
X74422000Y-58166000D03*
X67183000Y-58166000D03*
X75946000Y-58166000D03*
D75*
X70104000Y-63754000D03*
D74*
X76708000Y-58166000D03*
X67945000Y-58166000D03*
D75*
X70612000Y-64262000D03*
D74*
X66421000Y-58166000D03*
D75*
X70104000Y-64262000D03*
X61976000Y-64262000D03*
X61468000Y-64262000D03*
D74*
X69342000Y-70358000D03*
X56388000Y-56896000D03*
X73660000Y-58166000D03*
D75*
X55092600Y-74064400D03*
X54414800Y-75493400D03*
X67919600Y-75666600D03*
X57785000Y-72821800D03*
X57886600Y-74015600D03*
X65265300Y-58508900D03*
X64516000Y-58521600D03*
X75285600Y-74828400D03*
X76327000Y-74828400D03*
X53898800Y-74015600D03*
X67818000Y-78450000D03*
X54973600Y-71454800D03*
X70205600Y-83566000D03*
X65201800Y-82499200D03*
X54356000Y-74422000D03*
X56142000Y-75772800D03*
X69723000Y-74166000D03*
X58902600Y-64871600D03*
X68421000Y-75060000D03*
X55557800Y-75823600D03*
X71374000Y-68224400D03*
X57310400Y-74528200D03*
X54922800Y-75671200D03*
X58343800Y-64363600D03*
X61798200Y-70205600D03*
X63879000Y-76327000D03*
X66624200Y-68351400D03*
X57412000Y-75061600D03*
X64643000Y-75793600D03*
X69723000Y-73154000D03*
X74904600Y-72796400D03*
X76682600Y-72771000D03*
X57683400Y-58064400D03*
X60172600Y-58674000D03*
X62128400Y-58064400D03*
X77927200Y-72263000D03*
X57894600Y-66348200D03*
X55143400Y-56134000D03*
D76*
X68884800Y-92506800D03*
X56515000Y-62204600D03*
X63195200Y-92506800D03*
X68021200Y-95072200D03*
X69824600Y-95072200D03*
X65862200Y-95834200D03*
X65836800Y-94056200D03*
X62255400Y-95072200D03*
X64058800Y-95072200D03*
X69697600Y-88976200D03*
X75565000Y-62204600D03*
X66040000Y-89509600D03*
X55253000Y-65612800D03*
X56269000Y-70692800D03*
X54237000Y-70692800D03*
X55880000Y-54584600D03*
X58420000Y-54584600D03*
X60960000Y-54584600D03*
X63500000Y-54584600D03*
X66040000Y-54584600D03*
X68580000Y-54584600D03*
X71120000Y-54584600D03*
X73660000Y-54584600D03*
X76200000Y-54584600D03*
M02*
