%TF.GenerationSoftware,KiCad,Pcbnew,8.0.3*%
%TF.CreationDate,2024-09-11T11:50:37-04:00*%
%TF.ProjectId,100064667,31303030-3634-4363-9637-2e6b69636164,1*%
%TF.SameCoordinates,Original*%
%TF.FileFunction,Copper,L5,Inr*%
%TF.FilePolarity,Positive*%
%FSLAX46Y46*%
G04 Gerber Fmt 4.6, Leading zero omitted, Abs format (unit mm)*
G04 Created by KiCad (PCBNEW 8.0.3) date 2024-09-11 11:50:37*
%MOMM*%
%LPD*%
G01*
G04 APERTURE LIST*
%ADD10C,0.254000*%
%TA.AperFunction,NonConductor*%
%ADD11C,0.254000*%
%TD*%
%TA.AperFunction,ComponentPad*%
%ADD12C,2.540000*%
%TD*%
%TA.AperFunction,ComponentPad*%
%ADD13C,1.016000*%
%TD*%
%TA.AperFunction,ComponentPad*%
%ADD14C,1.270000*%
%TD*%
%TA.AperFunction,ComponentPad*%
%ADD15R,1.270000X1.270000*%
%TD*%
%TA.AperFunction,ViaPad*%
%ADD16C,0.508000*%
%TD*%
%TA.AperFunction,ViaPad*%
%ADD17C,0.355600*%
%TD*%
%TA.AperFunction,Conductor*%
%ADD18C,0.177800*%
%TD*%
%TA.AperFunction,Conductor*%
%ADD19C,0.137160*%
%TD*%
%TA.AperFunction,Conductor*%
%ADD20C,0.127000*%
%TD*%
%ADD21C,0.254000*%
%ADD22C,0.152400*%
%ADD23C,0.350000*%
G04 APERTURE END LIST*
D10*
D11*
X53234772Y-120586233D02*
X53234772Y-118554233D01*
X54202391Y-120586233D02*
X54202391Y-118554233D01*
X54202391Y-118554233D02*
X55363534Y-120586233D01*
X55363534Y-120586233D02*
X55363534Y-118554233D01*
X56331153Y-120586233D02*
X56331153Y-118554233D01*
X56331153Y-118554233D02*
X57492296Y-120586233D01*
X57492296Y-120586233D02*
X57492296Y-118554233D01*
X58459915Y-119521852D02*
X59137248Y-119521852D01*
X59427534Y-120586233D02*
X58459915Y-120586233D01*
X58459915Y-120586233D02*
X58459915Y-118554233D01*
X58459915Y-118554233D02*
X59427534Y-118554233D01*
X61459534Y-120586233D02*
X60782201Y-119618614D01*
X60298391Y-120586233D02*
X60298391Y-118554233D01*
X60298391Y-118554233D02*
X61072486Y-118554233D01*
X61072486Y-118554233D02*
X61266010Y-118650995D01*
X61266010Y-118650995D02*
X61362772Y-118747757D01*
X61362772Y-118747757D02*
X61459534Y-118941281D01*
X61459534Y-118941281D02*
X61459534Y-119231567D01*
X61459534Y-119231567D02*
X61362772Y-119425091D01*
X61362772Y-119425091D02*
X61266010Y-119521852D01*
X61266010Y-119521852D02*
X61072486Y-119618614D01*
X61072486Y-119618614D02*
X60298391Y-119618614D01*
X64749438Y-119231567D02*
X64749438Y-120586233D01*
X64265629Y-118457472D02*
X63781819Y-119908900D01*
X63781819Y-119908900D02*
X65039724Y-119908900D01*
X68523152Y-120392710D02*
X68426390Y-120489472D01*
X68426390Y-120489472D02*
X68136104Y-120586233D01*
X68136104Y-120586233D02*
X67942580Y-120586233D01*
X67942580Y-120586233D02*
X67652295Y-120489472D01*
X67652295Y-120489472D02*
X67458771Y-120295948D01*
X67458771Y-120295948D02*
X67362009Y-120102424D01*
X67362009Y-120102424D02*
X67265247Y-119715376D01*
X67265247Y-119715376D02*
X67265247Y-119425091D01*
X67265247Y-119425091D02*
X67362009Y-119038043D01*
X67362009Y-119038043D02*
X67458771Y-118844519D01*
X67458771Y-118844519D02*
X67652295Y-118650995D01*
X67652295Y-118650995D02*
X67942580Y-118554233D01*
X67942580Y-118554233D02*
X68136104Y-118554233D01*
X68136104Y-118554233D02*
X68426390Y-118650995D01*
X68426390Y-118650995D02*
X68523152Y-118747757D01*
X69781057Y-118554233D02*
X70168104Y-118554233D01*
X70168104Y-118554233D02*
X70361628Y-118650995D01*
X70361628Y-118650995D02*
X70555152Y-118844519D01*
X70555152Y-118844519D02*
X70651914Y-119231567D01*
X70651914Y-119231567D02*
X70651914Y-119908900D01*
X70651914Y-119908900D02*
X70555152Y-120295948D01*
X70555152Y-120295948D02*
X70361628Y-120489472D01*
X70361628Y-120489472D02*
X70168104Y-120586233D01*
X70168104Y-120586233D02*
X69781057Y-120586233D01*
X69781057Y-120586233D02*
X69587533Y-120489472D01*
X69587533Y-120489472D02*
X69394009Y-120295948D01*
X69394009Y-120295948D02*
X69297247Y-119908900D01*
X69297247Y-119908900D02*
X69297247Y-119231567D01*
X69297247Y-119231567D02*
X69394009Y-118844519D01*
X69394009Y-118844519D02*
X69587533Y-118650995D01*
X69587533Y-118650995D02*
X69781057Y-118554233D01*
X71522771Y-120586233D02*
X71522771Y-118554233D01*
X71522771Y-118554233D02*
X72296866Y-118554233D01*
X72296866Y-118554233D02*
X72490390Y-118650995D01*
X72490390Y-118650995D02*
X72587152Y-118747757D01*
X72587152Y-118747757D02*
X72683914Y-118941281D01*
X72683914Y-118941281D02*
X72683914Y-119231567D01*
X72683914Y-119231567D02*
X72587152Y-119425091D01*
X72587152Y-119425091D02*
X72490390Y-119521852D01*
X72490390Y-119521852D02*
X72296866Y-119618614D01*
X72296866Y-119618614D02*
X71522771Y-119618614D01*
X73554771Y-120586233D02*
X73554771Y-118554233D01*
X73554771Y-118554233D02*
X74328866Y-118554233D01*
X74328866Y-118554233D02*
X74522390Y-118650995D01*
X74522390Y-118650995D02*
X74619152Y-118747757D01*
X74619152Y-118747757D02*
X74715914Y-118941281D01*
X74715914Y-118941281D02*
X74715914Y-119231567D01*
X74715914Y-119231567D02*
X74619152Y-119425091D01*
X74619152Y-119425091D02*
X74522390Y-119521852D01*
X74522390Y-119521852D02*
X74328866Y-119618614D01*
X74328866Y-119618614D02*
X73554771Y-119618614D01*
X75586771Y-119521852D02*
X76264104Y-119521852D01*
X76554390Y-120586233D02*
X75586771Y-120586233D01*
X75586771Y-120586233D02*
X75586771Y-118554233D01*
X75586771Y-118554233D02*
X76554390Y-118554233D01*
X78586390Y-120586233D02*
X77909057Y-119618614D01*
X77425247Y-120586233D02*
X77425247Y-118554233D01*
X77425247Y-118554233D02*
X78199342Y-118554233D01*
X78199342Y-118554233D02*
X78392866Y-118650995D01*
X78392866Y-118650995D02*
X78489628Y-118747757D01*
X78489628Y-118747757D02*
X78586390Y-118941281D01*
X78586390Y-118941281D02*
X78586390Y-119231567D01*
X78586390Y-119231567D02*
X78489628Y-119425091D01*
X78489628Y-119425091D02*
X78392866Y-119521852D01*
X78392866Y-119521852D02*
X78199342Y-119618614D01*
X78199342Y-119618614D02*
X77425247Y-119618614D01*
D12*
%TO.N,GND*%
%TO.C,J2*%
X68884800Y-92506800D03*
%TD*%
D13*
%TO.N,/Block Diagram/AUX2*%
%TO.C,J4*%
X69824600Y-95072200D03*
%TD*%
D14*
%TO.N,/Block Diagram/USB_D+*%
%TO.C,J8*%
X65862200Y-95834200D03*
%TD*%
%TO.N,/Block Diagram/USB_D-*%
%TO.C,J7*%
X65836800Y-94056200D03*
%TD*%
D13*
%TO.N,/Block Diagram/GPIO0*%
%TO.C,J6*%
X62255400Y-95072200D03*
%TD*%
D14*
%TO.N,/Block Diagram/GPIO1*%
%TO.C,J5*%
X64058800Y-95072200D03*
%TD*%
%TO.N,GND*%
%TO.C,J9*%
X69697600Y-88976200D03*
%TD*%
D15*
%TO.N,/Block Diagram/Payload Power Control/VOUT*%
%TO.C,J10*%
X55880000Y-54584600D03*
D14*
%TO.N,GND*%
X58420000Y-54584600D03*
%TO.N,/Block Diagram/Payload Power Control/DETECT*%
X60960000Y-54584600D03*
%TO.N,/Block Diagram/Data Switches/GPIO_DOWN_0*%
X63500000Y-54584600D03*
%TO.N,/Block Diagram/Data Switches/GPIO_DOWN_1*%
X66040000Y-54584600D03*
%TO.N,/Block Diagram/USB_DEV_D-*%
X68580000Y-54584600D03*
%TO.N,/Block Diagram/USB_DEV_D+*%
X71120000Y-54584600D03*
%TO.N,GND*%
X73660000Y-54584600D03*
%TO.N,/Block Diagram/Payload Power Control/VOUT*%
X76200000Y-54584600D03*
%TD*%
D16*
%TO.N,/Block Diagram/VBATT*%
X62551177Y-89365827D03*
X62558818Y-88223553D03*
X63137596Y-88229283D03*
X62553087Y-88796600D03*
X63139506Y-89373468D03*
X63143326Y-88800420D03*
D17*
%TO.N,GND*%
X70612000Y-62230000D03*
X67421000Y-75060000D03*
X75819000Y-74650600D03*
D16*
X72125800Y-56515000D03*
D17*
X59436000Y-62230000D03*
X68961000Y-77470000D03*
X67208400Y-79629000D03*
D16*
X66931169Y-83693452D03*
D17*
X54152800Y-73431400D03*
X70104000Y-62230000D03*
X67945000Y-77442000D03*
X67081400Y-91033600D03*
X70612000Y-61722000D03*
X70104000Y-61722000D03*
D16*
X77531000Y-56515000D03*
D17*
X69850000Y-54615600D03*
X58928000Y-62230000D03*
X59436000Y-61722000D03*
D16*
X63500000Y-56642000D03*
D17*
X59766200Y-58216800D03*
X77241400Y-72771000D03*
X57886600Y-64871600D03*
X58928000Y-61722000D03*
X69342000Y-68858000D03*
X74320400Y-72821800D03*
X63909000Y-77343000D03*
X63119000Y-71021000D03*
D16*
%TO.N,/Block Diagram/Payload Power Control/VBATT_PROT*%
X62230000Y-82550000D03*
X62865000Y-82550000D03*
X62103000Y-74295000D03*
X62738000Y-73025000D03*
X62865000Y-81915000D03*
X62103000Y-73025000D03*
X62738000Y-73660000D03*
X62103000Y-73660000D03*
X62230000Y-81915000D03*
X63500000Y-81915000D03*
D17*
X67168000Y-78450000D03*
D16*
X62738000Y-74295000D03*
X63500000Y-82550000D03*
D17*
%TO.N,/Block Diagram/Data Switches/P3V3*%
X61595000Y-58597800D03*
X71374000Y-67181000D03*
X69723000Y-75184000D03*
X75793600Y-72085200D03*
X55608600Y-64469800D03*
X68354000Y-68859400D03*
X67338000Y-81026000D03*
X53873400Y-72974200D03*
X59512200Y-67284600D03*
D16*
%TO.N,Net-(Q1-G)*%
X63093600Y-86233000D03*
%TO.N,/Block Diagram/Payload Power Control/VOUT*%
X75184000Y-58166000D03*
D17*
X70612000Y-63754000D03*
D16*
X56388000Y-57658000D03*
D17*
X61976000Y-63754000D03*
X61468000Y-63754000D03*
D16*
X74422000Y-58166000D03*
X67183000Y-58166000D03*
X75946000Y-58166000D03*
D17*
X70104000Y-63754000D03*
D16*
X76708000Y-58166000D03*
X67945000Y-58166000D03*
D17*
X70612000Y-64262000D03*
D16*
X66421000Y-58166000D03*
D17*
X70104000Y-64262000D03*
X61976000Y-64262000D03*
X61468000Y-64262000D03*
D16*
X69342000Y-70358000D03*
X56388000Y-56896000D03*
X73660000Y-58166000D03*
D17*
%TO.N,/Block Diagram/Payload Power Control/DETECT*%
X55092600Y-74064400D03*
%TO.N,/Block Diagram/Payload Power Control/IMON*%
X54414800Y-75493400D03*
X67919600Y-75666600D03*
%TO.N,/Block Diagram/AUX2*%
X57785000Y-72821800D03*
%TO.N,/Block Diagram/AUX1*%
X57886600Y-74015600D03*
%TO.N,/Block Diagram/GPIO1*%
X65265300Y-58508900D03*
%TO.N,/Block Diagram/GPIO0*%
X64516000Y-58521600D03*
%TO.N,/Block Diagram/USB_D-*%
X75285600Y-74828400D03*
%TO.N,/Block Diagram/USB_D+*%
X76327000Y-74828400D03*
%TO.N,/Block Diagram/Payload Power Control/~{NRST}*%
X53898800Y-74015600D03*
X67818000Y-78450000D03*
X54973600Y-71454800D03*
%TO.N,/Block Diagram/Power Input/RANGE_SEL*%
X70205600Y-83566000D03*
X65201800Y-82499200D03*
%TO.N,/Block Diagram/Payload Power Control/1WIRE_TX*%
X54356000Y-74422000D03*
%TO.N,/Block Diagram/Payload Power Control/LS_PWR_GOOD*%
X56142000Y-75772800D03*
X69723000Y-74166000D03*
X58902600Y-64871600D03*
%TO.N,/Block Diagram/Payload Power Control/LS_FAULT*%
X68421000Y-75060000D03*
X55557800Y-75823600D03*
%TO.N,/Block Diagram/Payload Power Control/I_FAULT*%
X71374000Y-68224400D03*
X57310400Y-74528200D03*
%TO.N,/Block Diagram/Payload Power Control/1WIRE_RX*%
X54922800Y-75671200D03*
%TO.N,Net-(JP2-B)*%
X58343800Y-64363600D03*
X61798200Y-70205600D03*
X63879000Y-76327000D03*
%TO.N,/Block Diagram/Payload Power Control/I_SNS*%
X66624200Y-68351400D03*
X57412000Y-75061600D03*
%TO.N,Net-(U7-EN)*%
X64643000Y-75793600D03*
%TO.N,Net-(U7-FB)*%
X69723000Y-73154000D03*
%TO.N,/Block Diagram/USB_DEV_D-*%
X74904600Y-72796400D03*
%TO.N,/Block Diagram/USB_DEV_D+*%
X76682600Y-72771000D03*
%TO.N,Net-(U11-~{RESET})*%
X57683400Y-58064400D03*
%TO.N,/Block Diagram/Data Switches/RESET*%
X60172600Y-58674000D03*
X62128400Y-58064400D03*
X77927200Y-72263000D03*
%TO.N,/Block Diagram/Data Switches/DATA_ENABLE*%
X57894600Y-66348200D03*
X55143400Y-56134000D03*
%TD*%
D18*
%TO.N,/Block Diagram/Payload Power Control/DETECT*%
X57607200Y-71323200D02*
X57607200Y-70307200D01*
X54025800Y-61417200D02*
X55727600Y-59715400D01*
X60960000Y-56083200D02*
X60960000Y-54584600D01*
X55092600Y-73837800D02*
X57607200Y-71323200D01*
X57327800Y-59715400D02*
X60960000Y-56083200D01*
X55727600Y-59715400D02*
X57327800Y-59715400D01*
X55092600Y-74064400D02*
X55092600Y-73837800D01*
X57607200Y-70307200D02*
X54025800Y-66725800D01*
X54025800Y-66725800D02*
X54025800Y-61417200D01*
%TO.N,/Block Diagram/AUX2*%
X60579000Y-97028000D02*
X61595000Y-98044000D01*
X60579000Y-77216000D02*
X60579000Y-97028000D01*
X67818000Y-98044000D02*
X69824600Y-96037400D01*
X59817000Y-76454000D02*
X60579000Y-77216000D01*
X56819800Y-75177650D02*
X58096150Y-76454000D01*
X69824600Y-96037400D02*
X69824600Y-95072200D01*
X61595000Y-98044000D02*
X67818000Y-98044000D01*
X57785000Y-72821800D02*
X56819800Y-73787000D01*
X58096150Y-76454000D02*
X59817000Y-76454000D01*
X56819800Y-73787000D02*
X56819800Y-75177650D01*
%TO.N,/Block Diagram/GPIO1*%
X64312800Y-59842400D02*
X62458600Y-59842400D01*
X62458600Y-59842400D02*
X60807600Y-61493400D01*
X64439800Y-90957400D02*
X64439800Y-93599000D01*
X65278000Y-58521600D02*
X65278000Y-58877200D01*
X60807600Y-67386200D02*
X65379600Y-71958200D01*
X64058800Y-93980000D02*
X64058800Y-95072200D01*
X65265300Y-58508900D02*
X65278000Y-58521600D01*
X65379600Y-77063600D02*
X64211200Y-78232000D01*
X64211200Y-78232000D02*
X64211200Y-90728800D01*
X65278000Y-58877200D02*
X64312800Y-59842400D01*
X60807600Y-61493400D02*
X60807600Y-67386200D01*
X64211200Y-90728800D02*
X64439800Y-90957400D01*
X64439800Y-93599000D02*
X64058800Y-93980000D01*
X65379600Y-71958200D02*
X65379600Y-77063600D01*
%TO.N,/Block Diagram/GPIO0*%
X62484000Y-58521600D02*
X60045600Y-60960000D01*
X60045600Y-75031600D02*
X61036200Y-76022200D01*
X61798200Y-95072200D02*
X62255400Y-95072200D01*
X61036200Y-76022200D02*
X61036200Y-94310200D01*
X60045600Y-60960000D02*
X60045600Y-75031600D01*
X64516000Y-58521600D02*
X62484000Y-58521600D01*
X61036200Y-94310200D02*
X61798200Y-95072200D01*
D19*
%TO.N,/Block Diagram/USB_D-*%
X68221860Y-82892220D02*
X69745860Y-81368220D01*
D20*
X75656440Y-75199240D02*
X75656440Y-75337824D01*
D19*
X66583559Y-94802959D02*
X66750521Y-94802959D01*
X71843220Y-75511660D02*
X75475420Y-75511660D01*
X66750521Y-94802959D02*
X67002660Y-94550820D01*
D20*
X75285600Y-74828400D02*
X75656440Y-75199240D01*
D19*
X69745860Y-81368220D02*
X69745860Y-77609020D01*
X65836800Y-94056200D02*
X66583559Y-94802959D01*
X68221860Y-90563020D02*
X68221860Y-82892220D01*
X69745860Y-77609020D02*
X71843220Y-75511660D01*
D20*
X75656440Y-75337824D02*
X75477524Y-75516740D01*
D19*
X67002660Y-94550820D02*
X67002660Y-91782220D01*
X67002660Y-91782220D02*
X68221860Y-90563020D01*
%TO.N,/Block Diagram/USB_D+*%
X67312540Y-91910580D02*
X68531740Y-90691380D01*
X67312540Y-94679180D02*
X67312540Y-91910580D01*
X71971580Y-75821540D02*
X75603780Y-75821540D01*
D20*
X75956160Y-75461976D02*
X75601676Y-75816460D01*
D19*
X70055740Y-81496580D02*
X70055740Y-77737380D01*
X66583559Y-95112841D02*
X66878879Y-95112841D01*
X68531740Y-83020580D02*
X70055740Y-81496580D01*
X66878879Y-95112841D02*
X67312540Y-94679180D01*
X70055740Y-77737380D02*
X71971580Y-75821540D01*
D20*
X76327000Y-74828400D02*
X75956160Y-75199240D01*
D19*
X68531740Y-90691380D02*
X68531740Y-83020580D01*
X65862200Y-95834200D02*
X66583559Y-95112841D01*
D20*
X75956160Y-75199240D02*
X75956160Y-75461976D01*
D18*
%TO.N,/Block Diagram/Payload Power Control/~{NRST}*%
X53390800Y-72745600D02*
X54229000Y-71907400D01*
X53898800Y-74015600D02*
X53644800Y-74015600D01*
X53390800Y-73761600D02*
X53390800Y-72745600D01*
X54521000Y-71907400D02*
X54973600Y-71454800D01*
X54229000Y-71907400D02*
X54521000Y-71907400D01*
X53644800Y-74015600D02*
X53390800Y-73761600D01*
%TO.N,Net-(JP2-B)*%
X63879000Y-76327000D02*
X63879000Y-72667400D01*
X63879000Y-72667400D02*
X61798200Y-70586600D01*
X61798200Y-70586600D02*
X61798200Y-70205600D01*
D19*
%TO.N,/Block Diagram/USB_DEV_D-*%
X69695060Y-57772980D02*
X72362060Y-60439980D01*
X72362060Y-60439980D02*
X72362060Y-63894380D01*
X69695060Y-55699660D02*
X69695060Y-57772980D01*
X75664060Y-67196380D02*
X75664060Y-71554340D01*
X75336400Y-71882000D02*
X75336400Y-72364600D01*
X75664060Y-71554340D02*
X75336400Y-71882000D01*
X72362060Y-63894380D02*
X75664060Y-67196380D01*
X75336400Y-72364600D02*
X74904600Y-72796400D01*
X68580000Y-54584600D02*
X69695060Y-55699660D01*
%TO.N,/Block Diagram/USB_DEV_D+*%
X71120000Y-54584600D02*
X70004940Y-55699660D01*
X75973940Y-67068020D02*
X75973940Y-71554340D01*
X72671940Y-63766020D02*
X75973940Y-67068020D01*
X75973940Y-71554340D02*
X76225400Y-71805800D01*
X72671940Y-60311620D02*
X72671940Y-63766020D01*
X70004940Y-55699660D02*
X70004940Y-57644620D01*
X76225400Y-71805800D02*
X76225400Y-72313800D01*
X76225400Y-72313800D02*
X76682600Y-72771000D01*
X70004940Y-57644620D02*
X72671940Y-60311620D01*
%TD*%
%TA.AperFunction,Conductor*%
%TO.N,GND*%
G36*
X76725399Y-50534787D02*
G01*
X76743705Y-50578981D01*
X76743705Y-53241542D01*
X76743704Y-53241792D01*
X76743205Y-53366084D01*
X76743206Y-53366090D01*
X76778546Y-53618708D01*
X76778546Y-53618710D01*
X76779293Y-53621285D01*
X76774017Y-53668829D01*
X76736668Y-53698716D01*
X76689803Y-53693808D01*
X76635590Y-53664831D01*
X76590880Y-53640933D01*
X76468409Y-53603781D01*
X76399267Y-53582807D01*
X76200000Y-53563182D01*
X76000732Y-53582807D01*
X75882392Y-53618706D01*
X75809120Y-53640933D01*
X75809118Y-53640933D01*
X75809118Y-53640934D01*
X75632536Y-53735318D01*
X75632525Y-53735326D01*
X75477749Y-53862346D01*
X75477746Y-53862349D01*
X75350726Y-54017125D01*
X75350718Y-54017136D01*
X75273535Y-54161537D01*
X75256333Y-54193720D01*
X75246727Y-54225388D01*
X75198207Y-54385332D01*
X75178582Y-54584599D01*
X75178582Y-54584600D01*
X75198207Y-54783867D01*
X75214830Y-54838663D01*
X75256333Y-54975480D01*
X75272704Y-55006108D01*
X75350718Y-55152063D01*
X75350726Y-55152074D01*
X75477746Y-55306850D01*
X75477749Y-55306853D01*
X75552990Y-55368601D01*
X75632531Y-55433878D01*
X75632534Y-55433879D01*
X75632536Y-55433881D01*
X75652113Y-55444345D01*
X75809120Y-55528267D01*
X76000731Y-55586392D01*
X76200000Y-55606018D01*
X76399269Y-55586392D01*
X76590880Y-55528267D01*
X76767469Y-55433878D01*
X76922252Y-55306852D01*
X77049278Y-55152069D01*
X77143667Y-54975480D01*
X77201792Y-54783869D01*
X77219795Y-54601075D01*
X77242344Y-54558889D01*
X77288120Y-54545003D01*
X77323010Y-54560044D01*
X77451220Y-54671567D01*
X77665596Y-54809800D01*
X77897504Y-54916028D01*
X78025682Y-54953770D01*
X78062906Y-54983813D01*
X78070062Y-55006108D01*
X80675775Y-76227931D01*
X80675779Y-76227995D01*
X80683933Y-76294372D01*
X80684399Y-76301893D01*
X80684575Y-76412705D01*
X80682788Y-76427644D01*
X80657380Y-76531591D01*
X80652074Y-76545670D01*
X80602562Y-76640534D01*
X80594046Y-76652936D01*
X80523306Y-76733212D01*
X80512074Y-76743220D01*
X80424189Y-76804274D01*
X80410889Y-76811309D01*
X80310967Y-76849589D01*
X80296373Y-76853241D01*
X80186352Y-76867016D01*
X80178587Y-76867500D01*
X73526780Y-76867500D01*
X73262630Y-76902276D01*
X73262628Y-76902276D01*
X73005288Y-76971229D01*
X73005280Y-76971232D01*
X72759135Y-77073187D01*
X72759132Y-77073188D01*
X72528395Y-77206402D01*
X72528384Y-77206410D01*
X72317022Y-77368591D01*
X72128620Y-77556988D01*
X72128617Y-77556991D01*
X71966434Y-77768347D01*
X71966427Y-77768357D01*
X71833212Y-77999083D01*
X71833208Y-77999092D01*
X71731248Y-78245233D01*
X71662286Y-78502581D01*
X71662284Y-78502590D01*
X71627503Y-78766732D01*
X71627502Y-78766741D01*
X71627501Y-78830425D01*
X71627500Y-78830451D01*
X71627500Y-78899953D01*
X71627498Y-78971235D01*
X71627500Y-78971264D01*
X71627500Y-97689081D01*
X71627497Y-97689131D01*
X71627499Y-97756392D01*
X71627110Y-97763354D01*
X71615684Y-97865325D01*
X71612602Y-97878904D01*
X71580035Y-97972502D01*
X71574023Y-97985061D01*
X71521547Y-98069117D01*
X71512903Y-98080034D01*
X71443111Y-98150393D01*
X71432264Y-98159125D01*
X71348626Y-98212286D01*
X71336117Y-98218399D01*
X71242795Y-98251721D01*
X71229241Y-98254914D01*
X71158767Y-98263389D01*
X71128300Y-98267053D01*
X71120839Y-98267500D01*
X68410634Y-98267500D01*
X68366440Y-98249194D01*
X68348134Y-98205000D01*
X68366440Y-98160806D01*
X70201008Y-96326238D01*
X70201013Y-96326233D01*
X70245575Y-96249050D01*
X70262943Y-96218968D01*
X70264474Y-96213251D01*
X70278969Y-96159158D01*
X70278971Y-96159148D01*
X70295000Y-96099330D01*
X70295000Y-96010823D01*
X70313306Y-95966629D01*
X70328038Y-95955703D01*
X70334150Y-95952436D01*
X70392069Y-95921478D01*
X70546852Y-95794452D01*
X70673878Y-95639669D01*
X70768267Y-95463080D01*
X70826392Y-95271469D01*
X70846018Y-95072200D01*
X70826392Y-94872931D01*
X70768267Y-94681320D01*
X70682789Y-94521402D01*
X70673881Y-94504736D01*
X70673879Y-94504734D01*
X70673878Y-94504731D01*
X70546852Y-94349948D01*
X70544283Y-94347840D01*
X70392074Y-94222926D01*
X70392072Y-94222925D01*
X70392069Y-94222922D01*
X70392067Y-94222920D01*
X70392063Y-94222918D01*
X70280798Y-94163446D01*
X70215480Y-94128533D01*
X70086694Y-94089466D01*
X70023867Y-94070407D01*
X69824600Y-94050782D01*
X69625332Y-94070407D01*
X69502860Y-94107559D01*
X69433720Y-94128533D01*
X69433718Y-94128533D01*
X69433718Y-94128534D01*
X69257136Y-94222918D01*
X69257125Y-94222926D01*
X69102349Y-94349946D01*
X69102346Y-94349949D01*
X68975326Y-94504725D01*
X68975318Y-94504736D01*
X68910174Y-94626614D01*
X68880933Y-94681320D01*
X68862799Y-94741099D01*
X68822808Y-94872931D01*
X68821534Y-94885864D01*
X68798983Y-94928050D01*
X68753207Y-94941935D01*
X68711021Y-94919384D01*
X68698036Y-94891929D01*
X68694257Y-94872932D01*
X68693338Y-94868309D01*
X68640646Y-94741099D01*
X68564149Y-94626614D01*
X68466786Y-94529251D01*
X68466785Y-94529250D01*
X68352303Y-94452755D01*
X68352301Y-94452754D01*
X68225092Y-94400062D01*
X68225089Y-94400061D01*
X68090045Y-94373200D01*
X67952355Y-94373200D01*
X67817310Y-94400061D01*
X67817307Y-94400062D01*
X67690098Y-94452754D01*
X67690092Y-94452757D01*
X67684581Y-94456440D01*
X67637664Y-94465771D01*
X67597892Y-94439193D01*
X67587360Y-94404472D01*
X67587360Y-93456423D01*
X67605666Y-93412229D01*
X67630409Y-93401979D01*
X68293581Y-92738807D01*
X68322071Y-92807585D01*
X68391564Y-92911589D01*
X68480011Y-93000036D01*
X68584015Y-93069529D01*
X68652791Y-93098017D01*
X67999271Y-93751536D01*
X67999272Y-93751537D01*
X68190777Y-93868891D01*
X68412408Y-93960693D01*
X68645659Y-94016692D01*
X68645663Y-94016693D01*
X68884796Y-94035513D01*
X68884804Y-94035513D01*
X69123936Y-94016693D01*
X69123940Y-94016692D01*
X69357191Y-93960693D01*
X69578825Y-93868890D01*
X69770326Y-93751536D01*
X69770327Y-93751536D01*
X69116808Y-93098017D01*
X69185585Y-93069529D01*
X69289589Y-93000036D01*
X69378036Y-92911589D01*
X69447529Y-92807585D01*
X69476017Y-92738808D01*
X70129536Y-93392327D01*
X70129536Y-93392326D01*
X70246890Y-93200825D01*
X70338693Y-92979191D01*
X70394692Y-92745940D01*
X70394693Y-92745936D01*
X70413513Y-92506804D01*
X70413513Y-92506795D01*
X70394693Y-92267663D01*
X70394692Y-92267659D01*
X70338693Y-92034408D01*
X70246891Y-91812777D01*
X70129537Y-91621272D01*
X70129536Y-91621271D01*
X69476017Y-92274791D01*
X69447529Y-92206015D01*
X69378036Y-92102011D01*
X69289589Y-92013564D01*
X69185585Y-91944071D01*
X69116807Y-91915582D01*
X69770327Y-91262061D01*
X69578822Y-91144708D01*
X69357191Y-91052906D01*
X69123940Y-90996907D01*
X69123936Y-90996906D01*
X68884804Y-90978087D01*
X68884794Y-90978087D01*
X68781126Y-90986245D01*
X68735632Y-90971463D01*
X68713916Y-90928841D01*
X68728698Y-90883347D01*
X68732017Y-90879756D01*
X68764721Y-90847053D01*
X68806560Y-90746045D01*
X68806560Y-90636715D01*
X68806560Y-89444127D01*
X68824866Y-89399933D01*
X68869060Y-89381627D01*
X68913254Y-89399933D01*
X68923187Y-89412877D01*
X68974421Y-89501617D01*
X68974420Y-89501617D01*
X69099465Y-89640494D01*
X69099465Y-89640495D01*
X69250645Y-89750334D01*
X69421374Y-89826348D01*
X69443599Y-89831070D01*
X69443600Y-89831070D01*
X69951600Y-89831070D01*
X69973825Y-89826348D01*
X70144554Y-89750334D01*
X70295734Y-89640495D01*
X70295734Y-89640494D01*
X70420778Y-89501617D01*
X70514217Y-89339776D01*
X70549821Y-89230200D01*
X69951600Y-89230200D01*
X69951600Y-89831070D01*
X69443600Y-89831070D01*
X69443600Y-89171213D01*
X69502650Y-89230263D01*
X69575049Y-89272063D01*
X69655800Y-89293700D01*
X69739400Y-89293700D01*
X69820151Y-89272063D01*
X69892550Y-89230263D01*
X69951663Y-89171150D01*
X69993463Y-89098751D01*
X70015100Y-89018000D01*
X70015100Y-88934400D01*
X69993463Y-88853649D01*
X69951663Y-88781250D01*
X69892613Y-88722200D01*
X69951600Y-88722200D01*
X70549821Y-88722200D01*
X70549821Y-88722199D01*
X70514217Y-88612623D01*
X70420778Y-88450782D01*
X70420779Y-88450782D01*
X70295734Y-88311905D01*
X70295734Y-88311904D01*
X70144554Y-88202065D01*
X69973827Y-88126052D01*
X69951600Y-88121327D01*
X69951600Y-88722200D01*
X69892613Y-88722200D01*
X69892550Y-88722137D01*
X69820151Y-88680337D01*
X69739400Y-88658700D01*
X69655800Y-88658700D01*
X69575049Y-88680337D01*
X69502650Y-88722137D01*
X69443600Y-88781187D01*
X69443600Y-88121328D01*
X69443599Y-88121327D01*
X69421373Y-88126052D01*
X69421371Y-88126052D01*
X69250650Y-88202063D01*
X69099462Y-88311907D01*
X68974420Y-88450782D01*
X68974416Y-88450788D01*
X68923186Y-88539522D01*
X68885236Y-88568642D01*
X68837810Y-88562398D01*
X68808690Y-88524448D01*
X68806560Y-88508272D01*
X68806560Y-83565998D01*
X69641474Y-83565998D01*
X69641474Y-83566001D01*
X69660694Y-83712000D01*
X69660697Y-83712010D01*
X69717051Y-83848060D01*
X69806702Y-83964897D01*
X69875560Y-84017733D01*
X69923537Y-84054547D01*
X70059593Y-84110904D01*
X70059597Y-84110904D01*
X70059599Y-84110905D01*
X70205598Y-84130126D01*
X70205600Y-84130126D01*
X70205602Y-84130126D01*
X70351600Y-84110905D01*
X70351600Y-84110904D01*
X70351607Y-84110904D01*
X70487663Y-84054547D01*
X70604497Y-83964897D01*
X70694147Y-83848063D01*
X70750504Y-83712007D01*
X70769726Y-83566000D01*
X70750504Y-83419993D01*
X70694147Y-83283937D01*
X70657333Y-83235960D01*
X70604497Y-83167102D01*
X70487660Y-83077451D01*
X70351610Y-83021097D01*
X70351600Y-83021094D01*
X70205602Y-83001874D01*
X70205598Y-83001874D01*
X70059599Y-83021094D01*
X70059589Y-83021097D01*
X69923539Y-83077451D01*
X69806702Y-83167102D01*
X69717051Y-83283939D01*
X69660697Y-83419989D01*
X69660694Y-83419999D01*
X69641474Y-83565998D01*
X68806560Y-83565998D01*
X68806560Y-83160302D01*
X68824866Y-83116108D01*
X69441776Y-82499198D01*
X70288721Y-81652253D01*
X70330560Y-81551245D01*
X70330560Y-81441915D01*
X70330560Y-77877102D01*
X70348866Y-77832908D01*
X72067108Y-76114666D01*
X72111302Y-76096360D01*
X75658445Y-76096360D01*
X75703769Y-76077586D01*
X75759449Y-76054523D01*
X75759449Y-76054522D01*
X75759453Y-76054521D01*
X75836761Y-75977213D01*
X75842164Y-75964166D01*
X75855708Y-75943896D01*
X76100164Y-75699441D01*
X76100167Y-75699439D01*
X76108955Y-75690651D01*
X76108956Y-75690651D01*
X76184835Y-75614772D01*
X76201887Y-75573604D01*
X76225901Y-75515631D01*
X76225901Y-75408322D01*
X76225901Y-75403291D01*
X76225900Y-75403277D01*
X76225900Y-75336857D01*
X76244203Y-75292666D01*
X76303900Y-75232968D01*
X76338311Y-75215435D01*
X76447154Y-75198196D01*
X76555547Y-75142968D01*
X76641568Y-75056947D01*
X76696796Y-74948554D01*
X76696796Y-74948551D01*
X76696797Y-74948551D01*
X76715827Y-74828403D01*
X76715827Y-74828396D01*
X76699384Y-74724585D01*
X76696796Y-74708246D01*
X76641568Y-74599853D01*
X76555547Y-74513832D01*
X76555546Y-74513831D01*
X76500923Y-74486000D01*
X76447154Y-74458604D01*
X76447152Y-74458603D01*
X76447151Y-74458603D01*
X76447151Y-74458602D01*
X76327003Y-74439573D01*
X76326997Y-74439573D01*
X76206848Y-74458602D01*
X76206848Y-74458603D01*
X76098453Y-74513831D01*
X76012431Y-74599853D01*
X75957203Y-74708247D01*
X75939964Y-74817084D01*
X75922428Y-74851500D01*
X75850493Y-74923435D01*
X75806299Y-74941741D01*
X75762105Y-74923435D01*
X75690171Y-74851501D01*
X75672634Y-74817085D01*
X75655396Y-74708246D01*
X75600168Y-74599853D01*
X75514147Y-74513832D01*
X75514146Y-74513831D01*
X75459523Y-74486000D01*
X75405754Y-74458604D01*
X75405752Y-74458603D01*
X75405751Y-74458603D01*
X75405751Y-74458602D01*
X75285603Y-74439573D01*
X75285597Y-74439573D01*
X75165448Y-74458602D01*
X75165448Y-74458603D01*
X75057053Y-74513831D01*
X74971031Y-74599853D01*
X74915803Y-74708248D01*
X74915802Y-74708248D01*
X74896773Y-74828396D01*
X74896773Y-74828403D01*
X74915803Y-74948551D01*
X74915803Y-74948552D01*
X74915804Y-74948554D01*
X74926563Y-74969670D01*
X74971031Y-75056946D01*
X75044231Y-75130146D01*
X75062537Y-75174340D01*
X75044231Y-75218534D01*
X75000037Y-75236840D01*
X71788552Y-75236840D01*
X71687550Y-75278676D01*
X71687545Y-75278680D01*
X69512880Y-77453345D01*
X69512876Y-77453350D01*
X69471040Y-77554352D01*
X69471040Y-81228498D01*
X69452734Y-81272692D01*
X67988880Y-82736545D01*
X67988876Y-82736550D01*
X67947040Y-82837552D01*
X67947040Y-90423298D01*
X67928734Y-90467492D01*
X66769680Y-91626545D01*
X66769676Y-91626550D01*
X66727840Y-91727552D01*
X66727840Y-93179599D01*
X66709534Y-93223793D01*
X66665340Y-93242099D01*
X66623234Y-93225787D01*
X66528865Y-93139758D01*
X66528866Y-93139758D01*
X66348688Y-93028196D01*
X66348686Y-93028195D01*
X66222191Y-92979191D01*
X66151074Y-92951640D01*
X66151071Y-92951639D01*
X66151070Y-92951639D01*
X65942765Y-92912700D01*
X65942761Y-92912700D01*
X65730839Y-92912700D01*
X65730834Y-92912700D01*
X65522529Y-92951639D01*
X65324913Y-93028195D01*
X65324911Y-93028196D01*
X65144733Y-93139758D01*
X65014806Y-93258204D01*
X64969814Y-93274449D01*
X64926512Y-93254122D01*
X64910200Y-93212016D01*
X64910200Y-90895472D01*
X64910199Y-90895469D01*
X64906951Y-90883347D01*
X64905532Y-90878050D01*
X64911774Y-90830626D01*
X64949724Y-90801504D01*
X64997150Y-90807746D01*
X65003950Y-90812289D01*
X65113436Y-90896301D01*
X65302364Y-91005378D01*
X65503913Y-91088863D01*
X65503923Y-91088865D01*
X65503924Y-91088866D01*
X65714629Y-91145324D01*
X65714631Y-91145324D01*
X65714634Y-91145325D01*
X65930923Y-91173800D01*
X65930929Y-91173800D01*
X66149071Y-91173800D01*
X66149077Y-91173800D01*
X66365366Y-91145325D01*
X66576087Y-91088863D01*
X66777636Y-91005378D01*
X66966564Y-90896301D01*
X67139638Y-90763497D01*
X67293897Y-90609238D01*
X67426701Y-90436164D01*
X67535778Y-90247236D01*
X67619263Y-90045687D01*
X67675725Y-89834966D01*
X67704200Y-89618677D01*
X67704200Y-89400523D01*
X67675725Y-89184234D01*
X67672219Y-89171150D01*
X67619266Y-88973524D01*
X67619265Y-88973523D01*
X67619263Y-88973513D01*
X67535778Y-88771964D01*
X67426701Y-88583036D01*
X67309964Y-88430901D01*
X67293901Y-88409967D01*
X67293892Y-88409957D01*
X67139642Y-88255707D01*
X67139632Y-88255698D01*
X66966561Y-88122897D01*
X66777642Y-88013825D01*
X66777630Y-88013819D01*
X66576093Y-87930339D01*
X66576075Y-87930333D01*
X66365370Y-87873875D01*
X66149081Y-87845400D01*
X66149077Y-87845400D01*
X65930923Y-87845400D01*
X65930918Y-87845400D01*
X65714630Y-87873875D01*
X65714629Y-87873875D01*
X65503924Y-87930333D01*
X65503906Y-87930339D01*
X65302369Y-88013819D01*
X65302357Y-88013825D01*
X65113438Y-88122897D01*
X64940367Y-88255698D01*
X64940357Y-88255707D01*
X64788294Y-88407771D01*
X64744100Y-88426077D01*
X64699906Y-88407771D01*
X64681600Y-88363577D01*
X64681600Y-82924131D01*
X64699906Y-82879937D01*
X64744100Y-82861631D01*
X64788294Y-82879937D01*
X64793685Y-82886084D01*
X64802902Y-82898097D01*
X64836831Y-82924131D01*
X64919737Y-82987747D01*
X65055793Y-83044104D01*
X65055797Y-83044104D01*
X65055799Y-83044105D01*
X65201798Y-83063326D01*
X65201800Y-83063326D01*
X65201802Y-83063326D01*
X65347800Y-83044105D01*
X65347800Y-83044104D01*
X65347807Y-83044104D01*
X65483863Y-82987747D01*
X65600697Y-82898097D01*
X65690347Y-82781263D01*
X65746704Y-82645207D01*
X65765926Y-82499200D01*
X65746704Y-82353193D01*
X65690347Y-82217137D01*
X65618767Y-82123852D01*
X65600697Y-82100302D01*
X65483860Y-82010651D01*
X65347810Y-81954297D01*
X65347800Y-81954294D01*
X65201802Y-81935074D01*
X65201798Y-81935074D01*
X65055799Y-81954294D01*
X65055789Y-81954297D01*
X64919739Y-82010651D01*
X64802901Y-82100303D01*
X64793684Y-82112316D01*
X64752257Y-82136233D01*
X64706052Y-82123852D01*
X64682135Y-82082425D01*
X64681600Y-82074268D01*
X64681600Y-81025998D01*
X66773874Y-81025998D01*
X66773874Y-81026001D01*
X66793094Y-81172000D01*
X66793097Y-81172010D01*
X66849451Y-81308060D01*
X66939102Y-81424897D01*
X66961281Y-81441915D01*
X67055937Y-81514547D01*
X67191993Y-81570904D01*
X67191997Y-81570904D01*
X67191999Y-81570905D01*
X67337998Y-81590126D01*
X67338000Y-81590126D01*
X67338002Y-81590126D01*
X67484000Y-81570905D01*
X67484000Y-81570904D01*
X67484007Y-81570904D01*
X67620063Y-81514547D01*
X67736897Y-81424897D01*
X67826547Y-81308063D01*
X67882904Y-81172007D01*
X67902126Y-81026000D01*
X67882904Y-80879993D01*
X67826547Y-80743937D01*
X67789733Y-80695960D01*
X67736897Y-80627102D01*
X67620060Y-80537451D01*
X67484010Y-80481097D01*
X67484000Y-80481094D01*
X67338002Y-80461874D01*
X67337998Y-80461874D01*
X67191999Y-80481094D01*
X67191989Y-80481097D01*
X67055939Y-80537451D01*
X66939102Y-80627102D01*
X66849451Y-80743939D01*
X66793097Y-80879989D01*
X66793094Y-80879999D01*
X66773874Y-81025998D01*
X64681600Y-81025998D01*
X64681600Y-78452734D01*
X64682733Y-78449998D01*
X66603874Y-78449998D01*
X66603874Y-78450001D01*
X66623094Y-78596000D01*
X66623097Y-78596010D01*
X66679451Y-78732060D01*
X66769102Y-78848897D01*
X66835638Y-78899951D01*
X66885937Y-78938547D01*
X67021993Y-78994904D01*
X67021997Y-78994904D01*
X67021999Y-78994905D01*
X67167998Y-79014126D01*
X67168000Y-79014126D01*
X67168002Y-79014126D01*
X67314000Y-78994905D01*
X67314000Y-78994904D01*
X67314007Y-78994904D01*
X67450063Y-78938547D01*
X67454950Y-78934796D01*
X67501154Y-78922413D01*
X67531050Y-78934797D01*
X67535937Y-78938547D01*
X67535938Y-78938548D01*
X67614852Y-78971235D01*
X67671993Y-78994904D01*
X67671997Y-78994904D01*
X67671999Y-78994905D01*
X67817998Y-79014126D01*
X67818000Y-79014126D01*
X67818002Y-79014126D01*
X67964000Y-78994905D01*
X67964000Y-78994904D01*
X67964007Y-78994904D01*
X68100063Y-78938547D01*
X68216897Y-78848897D01*
X68306547Y-78732063D01*
X68362904Y-78596007D01*
X68368611Y-78552661D01*
X68382126Y-78450001D01*
X68382126Y-78449998D01*
X68362905Y-78303999D01*
X68362904Y-78303997D01*
X68362904Y-78303993D01*
X68306547Y-78167937D01*
X68269733Y-78119960D01*
X68216897Y-78051102D01*
X68100060Y-77961451D01*
X67964010Y-77905097D01*
X67964000Y-77905094D01*
X67818002Y-77885874D01*
X67817998Y-77885874D01*
X67671999Y-77905094D01*
X67671989Y-77905097D01*
X67535940Y-77961451D01*
X67535936Y-77961453D01*
X67531044Y-77965207D01*
X67484837Y-77977584D01*
X67454956Y-77965207D01*
X67450063Y-77961453D01*
X67450059Y-77961451D01*
X67314010Y-77905097D01*
X67314000Y-77905094D01*
X67168002Y-77885874D01*
X67167998Y-77885874D01*
X67021999Y-77905094D01*
X67021989Y-77905097D01*
X66885939Y-77961451D01*
X66769102Y-78051102D01*
X66679451Y-78167939D01*
X66623097Y-78303989D01*
X66623094Y-78303999D01*
X66603874Y-78449998D01*
X64682733Y-78449998D01*
X64699906Y-78408540D01*
X65756011Y-77352435D01*
X65756013Y-77352433D01*
X65766540Y-77334200D01*
X65817943Y-77245168D01*
X65850000Y-77125529D01*
X65850000Y-75666598D01*
X67355474Y-75666598D01*
X67355474Y-75666601D01*
X67374694Y-75812600D01*
X67374697Y-75812610D01*
X67431051Y-75948660D01*
X67431052Y-75948662D01*
X67431053Y-75948663D01*
X67451844Y-75975759D01*
X67520702Y-76065497D01*
X67560923Y-76096359D01*
X67637537Y-76155147D01*
X67637538Y-76155147D01*
X67637539Y-76155148D01*
X67677492Y-76171697D01*
X67773593Y-76211504D01*
X67773597Y-76211504D01*
X67773599Y-76211505D01*
X67919598Y-76230726D01*
X67919600Y-76230726D01*
X67919602Y-76230726D01*
X68065600Y-76211505D01*
X68065600Y-76211504D01*
X68065607Y-76211504D01*
X68201663Y-76155147D01*
X68318497Y-76065497D01*
X68408147Y-75948663D01*
X68464504Y-75812607D01*
X68469394Y-75775463D01*
X68484261Y-75662538D01*
X68486951Y-75662892D01*
X68502032Y-75626485D01*
X68538069Y-75608714D01*
X68566999Y-75604905D01*
X68566998Y-75604905D01*
X68567007Y-75604904D01*
X68703063Y-75548547D01*
X68819897Y-75458897D01*
X68909547Y-75342063D01*
X68965904Y-75206007D01*
X68966932Y-75198196D01*
X68985126Y-75060001D01*
X68985126Y-75059998D01*
X68965905Y-74913999D01*
X68965904Y-74913997D01*
X68965904Y-74913993D01*
X68909547Y-74777937D01*
X68856071Y-74708246D01*
X68819897Y-74661102D01*
X68723457Y-74587102D01*
X68703063Y-74571453D01*
X68703062Y-74571452D01*
X68703060Y-74571451D01*
X68567010Y-74515097D01*
X68567000Y-74515094D01*
X68421002Y-74495874D01*
X68420998Y-74495874D01*
X68274999Y-74515094D01*
X68274989Y-74515097D01*
X68138939Y-74571451D01*
X68022102Y-74661102D01*
X67932451Y-74777939D01*
X67876097Y-74913989D01*
X67876094Y-74913999D01*
X67856339Y-75064062D01*
X67853648Y-75063707D01*
X67838568Y-75100114D01*
X67802533Y-75117885D01*
X67773595Y-75121694D01*
X67773593Y-75121695D01*
X67637539Y-75178051D01*
X67520702Y-75267702D01*
X67431051Y-75384539D01*
X67374697Y-75520589D01*
X67374694Y-75520599D01*
X67355474Y-75666598D01*
X65850000Y-75666598D01*
X65850000Y-73153998D01*
X69158874Y-73153998D01*
X69158874Y-73154001D01*
X69178094Y-73300000D01*
X69178097Y-73300010D01*
X69234451Y-73436060D01*
X69234452Y-73436062D01*
X69234453Y-73436063D01*
X69261026Y-73470694D01*
X69321086Y-73548966D01*
X69324103Y-73552897D01*
X69392567Y-73605431D01*
X69399062Y-73610415D01*
X69422979Y-73651842D01*
X69410599Y-73698048D01*
X69399062Y-73709585D01*
X69324101Y-73767104D01*
X69234451Y-73883939D01*
X69178097Y-74019989D01*
X69178094Y-74019999D01*
X69158874Y-74165998D01*
X69158874Y-74166001D01*
X69178094Y-74312000D01*
X69178097Y-74312010D01*
X69234451Y-74448060D01*
X69234452Y-74448062D01*
X69234453Y-74448063D01*
X69263563Y-74486000D01*
X69320732Y-74560505D01*
X69324103Y-74564897D01*
X69402972Y-74625415D01*
X69426889Y-74666842D01*
X69414509Y-74713048D01*
X69402973Y-74724583D01*
X69369591Y-74750198D01*
X69324101Y-74785104D01*
X69234451Y-74901939D01*
X69178097Y-75037989D01*
X69178094Y-75037999D01*
X69158874Y-75183998D01*
X69158874Y-75184001D01*
X69178094Y-75330000D01*
X69178097Y-75330010D01*
X69234451Y-75466060D01*
X69234452Y-75466062D01*
X69234453Y-75466063D01*
X69255244Y-75493159D01*
X69324102Y-75582897D01*
X69380908Y-75626485D01*
X69440937Y-75672547D01*
X69576993Y-75728904D01*
X69576997Y-75728904D01*
X69576999Y-75728905D01*
X69722998Y-75748126D01*
X69723000Y-75748126D01*
X69723002Y-75748126D01*
X69869000Y-75728905D01*
X69869000Y-75728904D01*
X69869007Y-75728904D01*
X70005063Y-75672547D01*
X70121897Y-75582897D01*
X70211547Y-75466063D01*
X70267904Y-75330007D01*
X70267905Y-75330000D01*
X70287126Y-75184001D01*
X70287126Y-75183998D01*
X70267905Y-75037999D01*
X70267904Y-75037997D01*
X70267904Y-75037993D01*
X70216539Y-74913989D01*
X70211548Y-74901939D01*
X70211547Y-74901938D01*
X70211547Y-74901937D01*
X70161530Y-74836754D01*
X70121897Y-74785102D01*
X70053925Y-74732946D01*
X70043027Y-74724584D01*
X70019110Y-74683158D01*
X70031490Y-74636953D01*
X70043026Y-74625416D01*
X70121897Y-74564897D01*
X70211547Y-74448063D01*
X70267904Y-74312007D01*
X70287126Y-74166000D01*
X70273750Y-74064401D01*
X70267905Y-74019999D01*
X70267904Y-74019997D01*
X70267904Y-74019993D01*
X70230332Y-73929289D01*
X70211548Y-73883939D01*
X70211547Y-73883938D01*
X70211547Y-73883937D01*
X70174733Y-73835960D01*
X70121897Y-73767102D01*
X70046938Y-73709585D01*
X70023020Y-73668158D01*
X70035400Y-73621953D01*
X70046938Y-73610415D01*
X70121897Y-73552897D01*
X70141729Y-73527051D01*
X70211547Y-73436063D01*
X70267904Y-73300007D01*
X70285520Y-73166197D01*
X70287126Y-73154001D01*
X70287126Y-73153998D01*
X70267905Y-73007999D01*
X70267904Y-73007997D01*
X70267904Y-73007993D01*
X70211547Y-72871937D01*
X70168817Y-72816250D01*
X70121897Y-72755102D01*
X70018546Y-72675799D01*
X70005063Y-72665453D01*
X70005062Y-72665452D01*
X70005060Y-72665451D01*
X69869010Y-72609097D01*
X69869000Y-72609094D01*
X69723002Y-72589874D01*
X69722998Y-72589874D01*
X69576999Y-72609094D01*
X69576989Y-72609097D01*
X69440939Y-72665451D01*
X69324102Y-72755102D01*
X69234451Y-72871939D01*
X69178097Y-73007989D01*
X69178094Y-73007999D01*
X69158874Y-73153998D01*
X65850000Y-73153998D01*
X65850000Y-71896271D01*
X65838592Y-71853697D01*
X65831528Y-71827335D01*
X65817943Y-71776632D01*
X65817942Y-71776630D01*
X65803220Y-71751132D01*
X65794982Y-71736863D01*
X65794981Y-71736862D01*
X65794981Y-71736860D01*
X65756016Y-71669371D01*
X65756009Y-71669362D01*
X65668432Y-71581786D01*
X64444642Y-70357996D01*
X68701832Y-70357996D01*
X68701832Y-70358003D01*
X68720432Y-70511196D01*
X68775160Y-70655504D01*
X68862824Y-70782507D01*
X68862828Y-70782511D01*
X68967716Y-70875433D01*
X68978343Y-70884848D01*
X69114991Y-70956566D01*
X69114992Y-70956566D01*
X69114993Y-70956567D01*
X69264836Y-70993500D01*
X69419164Y-70993500D01*
X69569007Y-70956567D01*
X69705657Y-70884848D01*
X69821173Y-70782510D01*
X69908841Y-70655501D01*
X69963566Y-70511202D01*
X69968072Y-70474091D01*
X69982168Y-70358003D01*
X69982168Y-70357996D01*
X69963567Y-70204803D01*
X69963566Y-70204801D01*
X69963566Y-70204798D01*
X69908841Y-70060499D01*
X69908839Y-70060497D01*
X69908839Y-70060495D01*
X69821175Y-69933492D01*
X69821171Y-69933488D01*
X69705656Y-69831151D01*
X69569007Y-69759433D01*
X69569010Y-69759433D01*
X69419167Y-69722500D01*
X69419164Y-69722500D01*
X69264836Y-69722500D01*
X69264832Y-69722500D01*
X69114991Y-69759433D01*
X68978343Y-69831151D01*
X68862828Y-69933488D01*
X68862824Y-69933492D01*
X68775160Y-70060495D01*
X68720432Y-70204803D01*
X68701832Y-70357996D01*
X64444642Y-70357996D01*
X62438044Y-68351398D01*
X66060074Y-68351398D01*
X66060074Y-68351401D01*
X66079294Y-68497400D01*
X66079297Y-68497410D01*
X66135651Y-68633460D01*
X66225302Y-68750297D01*
X66275124Y-68788526D01*
X66342137Y-68839947D01*
X66478193Y-68896304D01*
X66478197Y-68896304D01*
X66478199Y-68896305D01*
X66624198Y-68915526D01*
X66624200Y-68915526D01*
X66624202Y-68915526D01*
X66770200Y-68896305D01*
X66770200Y-68896304D01*
X66770207Y-68896304D01*
X66859305Y-68859398D01*
X67789874Y-68859398D01*
X67789874Y-68859401D01*
X67809094Y-69005400D01*
X67809097Y-69005410D01*
X67865451Y-69141460D01*
X67955102Y-69258297D01*
X68023960Y-69311133D01*
X68071937Y-69347947D01*
X68207993Y-69404304D01*
X68207997Y-69404304D01*
X68207999Y-69404305D01*
X68353998Y-69423526D01*
X68354000Y-69423526D01*
X68354002Y-69423526D01*
X68500000Y-69404305D01*
X68500000Y-69404304D01*
X68500007Y-69404304D01*
X68636063Y-69347947D01*
X68752897Y-69258297D01*
X68842547Y-69141463D01*
X68898904Y-69005407D01*
X68910737Y-68915526D01*
X68918126Y-68859401D01*
X68918126Y-68859398D01*
X68898905Y-68713399D01*
X68898904Y-68713397D01*
X68898904Y-68713393D01*
X68842547Y-68577337D01*
X68805733Y-68529360D01*
X68752897Y-68460502D01*
X68636060Y-68370851D01*
X68500010Y-68314497D01*
X68500000Y-68314494D01*
X68354002Y-68295274D01*
X68353998Y-68295274D01*
X68207999Y-68314494D01*
X68207989Y-68314497D01*
X68071939Y-68370851D01*
X67955102Y-68460502D01*
X67865451Y-68577339D01*
X67809097Y-68713389D01*
X67809094Y-68713399D01*
X67789874Y-68859398D01*
X66859305Y-68859398D01*
X66906263Y-68839947D01*
X67023097Y-68750297D01*
X67112747Y-68633463D01*
X67169104Y-68497407D01*
X67169105Y-68497400D01*
X67188326Y-68351401D01*
X67188326Y-68351398D01*
X67169105Y-68205399D01*
X67169104Y-68205397D01*
X67169104Y-68205393D01*
X67112747Y-68069337D01*
X67075933Y-68021360D01*
X67023097Y-67952502D01*
X66906260Y-67862851D01*
X66770210Y-67806497D01*
X66770200Y-67806494D01*
X66624202Y-67787274D01*
X66624198Y-67787274D01*
X66478199Y-67806494D01*
X66478189Y-67806497D01*
X66342139Y-67862851D01*
X66225302Y-67952502D01*
X66135651Y-68069339D01*
X66079297Y-68205389D01*
X66079294Y-68205399D01*
X66060074Y-68351398D01*
X62438044Y-68351398D01*
X61296306Y-67209660D01*
X61284434Y-67180998D01*
X70809874Y-67180998D01*
X70809874Y-67181001D01*
X70829094Y-67327000D01*
X70829097Y-67327010D01*
X70885451Y-67463060D01*
X70885452Y-67463062D01*
X70885453Y-67463063D01*
X70975103Y-67579897D01*
X71070523Y-67653115D01*
X71094440Y-67694542D01*
X71082060Y-67740748D01*
X71070524Y-67752283D01*
X71060669Y-67759846D01*
X70975101Y-67825504D01*
X70885451Y-67942339D01*
X70829097Y-68078389D01*
X70829094Y-68078399D01*
X70809874Y-68224398D01*
X70809874Y-68224401D01*
X70829094Y-68370400D01*
X70829097Y-68370410D01*
X70885451Y-68506460D01*
X70975102Y-68623297D01*
X71043960Y-68676133D01*
X71091937Y-68712947D01*
X71091938Y-68712947D01*
X71091939Y-68712948D01*
X71093028Y-68713399D01*
X71227993Y-68769304D01*
X71227997Y-68769304D01*
X71227999Y-68769305D01*
X71373998Y-68788526D01*
X71374000Y-68788526D01*
X71374002Y-68788526D01*
X71520000Y-68769305D01*
X71520000Y-68769304D01*
X71520007Y-68769304D01*
X71656063Y-68712947D01*
X71772897Y-68623297D01*
X71862547Y-68506463D01*
X71918904Y-68370407D01*
X71938126Y-68224400D01*
X71935624Y-68205399D01*
X71918905Y-68078399D01*
X71918904Y-68078397D01*
X71918904Y-68078393D01*
X71862547Y-67942337D01*
X71825733Y-67894360D01*
X71772897Y-67825502D01*
X71687331Y-67759846D01*
X71677476Y-67752284D01*
X71653559Y-67710858D01*
X71665939Y-67664653D01*
X71677475Y-67653116D01*
X71772897Y-67579897D01*
X71862547Y-67463063D01*
X71918904Y-67327007D01*
X71938126Y-67181000D01*
X71918904Y-67034993D01*
X71862547Y-66898937D01*
X71793803Y-66809348D01*
X71772897Y-66782102D01*
X71656060Y-66692451D01*
X71520010Y-66636097D01*
X71520000Y-66636094D01*
X71374002Y-66616874D01*
X71373998Y-66616874D01*
X71227999Y-66636094D01*
X71227989Y-66636097D01*
X71091939Y-66692451D01*
X70975102Y-66782102D01*
X70885451Y-66898939D01*
X70829097Y-67034989D01*
X70829094Y-67034999D01*
X70809874Y-67180998D01*
X61284434Y-67180998D01*
X61278000Y-67165466D01*
X61278000Y-64872380D01*
X61296306Y-64828186D01*
X61340500Y-64809880D01*
X61348658Y-64810415D01*
X61467998Y-64826126D01*
X61468000Y-64826126D01*
X61468002Y-64826126D01*
X61614000Y-64806905D01*
X61614000Y-64806904D01*
X61614007Y-64806904D01*
X61698082Y-64772077D01*
X61745914Y-64772077D01*
X61829993Y-64806904D01*
X61829997Y-64806904D01*
X61829999Y-64806905D01*
X61975998Y-64826126D01*
X61976000Y-64826126D01*
X61976002Y-64826126D01*
X62122000Y-64806905D01*
X62122000Y-64806904D01*
X62122007Y-64806904D01*
X62258063Y-64750547D01*
X62374897Y-64660897D01*
X62464547Y-64544063D01*
X62520904Y-64408007D01*
X62524189Y-64383053D01*
X62540126Y-64262001D01*
X62540126Y-64261998D01*
X62520905Y-64115999D01*
X62520904Y-64115997D01*
X62520904Y-64115993D01*
X62486077Y-64031917D01*
X62486077Y-63984085D01*
X62515342Y-63913433D01*
X62549165Y-63879611D01*
X62597001Y-63879611D01*
X62630825Y-63913435D01*
X62634760Y-63927241D01*
X62685761Y-64238327D01*
X62785249Y-64596651D01*
X62785251Y-64596656D01*
X62836627Y-64725599D01*
X62913299Y-64918032D01*
X62922902Y-64942132D01*
X62922906Y-64942140D01*
X63097094Y-65270693D01*
X63097101Y-65270704D01*
X63305782Y-65578483D01*
X63305785Y-65578488D01*
X63544608Y-65859653D01*
X63546542Y-65861929D01*
X63788125Y-66090769D01*
X63816527Y-66117673D01*
X64112581Y-66342728D01*
X64145609Y-66362600D01*
X64431234Y-66534455D01*
X64768747Y-66690605D01*
X64768758Y-66690608D01*
X64768761Y-66690610D01*
X65056995Y-66787727D01*
X65121164Y-66809348D01*
X65484354Y-66889292D01*
X65854058Y-66929500D01*
X65854062Y-66929500D01*
X66225938Y-66929500D01*
X66225942Y-66929500D01*
X66595646Y-66889292D01*
X66958836Y-66809348D01*
X67311253Y-66690605D01*
X67648766Y-66534455D01*
X67967418Y-66342728D01*
X68263472Y-66117674D01*
X68533458Y-65861929D01*
X68774211Y-65578493D01*
X68982908Y-65270689D01*
X69157101Y-64942125D01*
X69294750Y-64596653D01*
X69394239Y-64238324D01*
X69445239Y-63927240D01*
X69470454Y-63886591D01*
X69517028Y-63875676D01*
X69557678Y-63900891D01*
X69564656Y-63913432D01*
X69569406Y-63924897D01*
X69593921Y-63984083D01*
X69593921Y-64031917D01*
X69559096Y-64115993D01*
X69559094Y-64115999D01*
X69539874Y-64261998D01*
X69539874Y-64262001D01*
X69559094Y-64408000D01*
X69559097Y-64408010D01*
X69615451Y-64544060D01*
X69705102Y-64660897D01*
X69773960Y-64713733D01*
X69821937Y-64750547D01*
X69821938Y-64750547D01*
X69821939Y-64750548D01*
X69825109Y-64751861D01*
X69957993Y-64806904D01*
X69957997Y-64806904D01*
X69957999Y-64806905D01*
X70103998Y-64826126D01*
X70104000Y-64826126D01*
X70104002Y-64826126D01*
X70250000Y-64806905D01*
X70250000Y-64806904D01*
X70250007Y-64806904D01*
X70334082Y-64772077D01*
X70381914Y-64772077D01*
X70465993Y-64806904D01*
X70465997Y-64806904D01*
X70465999Y-64806905D01*
X70611998Y-64826126D01*
X70612000Y-64826126D01*
X70612002Y-64826126D01*
X70758000Y-64806905D01*
X70758000Y-64806904D01*
X70758007Y-64806904D01*
X70894063Y-64750547D01*
X71010897Y-64660897D01*
X71100547Y-64544063D01*
X71156904Y-64408007D01*
X71160189Y-64383053D01*
X71176126Y-64262001D01*
X71176126Y-64261998D01*
X71156905Y-64115999D01*
X71156904Y-64115997D01*
X71156904Y-64115993D01*
X71122077Y-64031917D01*
X71122077Y-63984085D01*
X71156904Y-63900007D01*
X71160189Y-63875053D01*
X71176126Y-63754001D01*
X71176126Y-63753998D01*
X71156905Y-63607999D01*
X71156904Y-63607997D01*
X71156904Y-63607993D01*
X71112733Y-63501356D01*
X71100548Y-63471939D01*
X71100547Y-63471938D01*
X71100547Y-63471937D01*
X71063733Y-63423960D01*
X71010897Y-63355102D01*
X70894060Y-63265451D01*
X70758010Y-63209097D01*
X70758000Y-63209094D01*
X70612002Y-63189874D01*
X70611998Y-63189874D01*
X70465999Y-63209094D01*
X70465993Y-63209096D01*
X70381917Y-63243921D01*
X70334083Y-63243921D01*
X70293999Y-63227318D01*
X70250007Y-63209096D01*
X70250005Y-63209095D01*
X70250000Y-63209094D01*
X70104002Y-63189874D01*
X70103998Y-63189874D01*
X69957999Y-63209094D01*
X69957989Y-63209097D01*
X69821939Y-63265451D01*
X69705102Y-63355102D01*
X69615451Y-63471938D01*
X69594760Y-63521891D01*
X69560935Y-63555715D01*
X69513099Y-63555714D01*
X69479275Y-63521889D01*
X69474610Y-63501355D01*
X69473015Y-63471939D01*
X69454404Y-63128661D01*
X69394239Y-62761676D01*
X69388411Y-62740687D01*
X69352654Y-62611900D01*
X69294750Y-62403347D01*
X69157101Y-62057875D01*
X68982908Y-61729311D01*
X68982905Y-61729306D01*
X68982898Y-61729295D01*
X68774217Y-61421516D01*
X68774214Y-61421511D01*
X68717949Y-61355271D01*
X68533458Y-61138071D01*
X68263472Y-60882326D01*
X68178717Y-60817897D01*
X67967418Y-60657271D01*
X67820501Y-60568875D01*
X67648766Y-60465545D01*
X67311253Y-60309395D01*
X67311245Y-60309392D01*
X67311238Y-60309389D01*
X66958847Y-60190655D01*
X66958836Y-60190652D01*
X66595644Y-60110707D01*
X66225945Y-60070500D01*
X66225942Y-60070500D01*
X65854058Y-60070500D01*
X65854054Y-60070500D01*
X65484355Y-60110707D01*
X65121163Y-60190652D01*
X65121152Y-60190655D01*
X64768761Y-60309389D01*
X64768750Y-60309393D01*
X64768747Y-60309395D01*
X64561226Y-60405404D01*
X64431242Y-60465541D01*
X64431239Y-60465542D01*
X64431234Y-60465545D01*
X64323912Y-60530118D01*
X64112581Y-60657271D01*
X63816527Y-60882326D01*
X63546545Y-61138068D01*
X63546534Y-61138079D01*
X63305785Y-61421511D01*
X63305782Y-61421516D01*
X63097101Y-61729295D01*
X63097094Y-61729306D01*
X62922906Y-62057859D01*
X62922902Y-62057867D01*
X62785251Y-62403343D01*
X62785249Y-62403348D01*
X62685761Y-62761672D01*
X62625595Y-63128666D01*
X62605389Y-63501356D01*
X62584718Y-63544494D01*
X62539597Y-63560380D01*
X62496459Y-63539709D01*
X62485239Y-63521890D01*
X62464548Y-63471939D01*
X62464547Y-63471938D01*
X62464547Y-63471937D01*
X62427733Y-63423960D01*
X62374897Y-63355102D01*
X62258060Y-63265451D01*
X62122010Y-63209097D01*
X62122000Y-63209094D01*
X61976002Y-63189874D01*
X61975998Y-63189874D01*
X61829999Y-63209094D01*
X61829993Y-63209096D01*
X61745917Y-63243921D01*
X61698083Y-63243921D01*
X61657999Y-63227318D01*
X61614007Y-63209096D01*
X61614005Y-63209095D01*
X61614000Y-63209094D01*
X61468002Y-63189874D01*
X61467997Y-63189874D01*
X61348657Y-63205584D01*
X61302452Y-63193203D01*
X61278535Y-63151776D01*
X61278000Y-63143619D01*
X61278000Y-61714134D01*
X61296306Y-61669940D01*
X62635140Y-60331106D01*
X62679334Y-60312800D01*
X64374730Y-60312800D01*
X64434548Y-60296771D01*
X64434549Y-60296771D01*
X64494364Y-60280744D01*
X64494362Y-60280744D01*
X64494368Y-60280743D01*
X64601632Y-60218814D01*
X64689214Y-60131232D01*
X65654413Y-59166033D01*
X65656426Y-59162547D01*
X65716343Y-59058768D01*
X65748400Y-58939129D01*
X65748400Y-58816543D01*
X65753158Y-58792625D01*
X65753845Y-58790964D01*
X65753847Y-58790963D01*
X65810204Y-58654907D01*
X65817219Y-58601621D01*
X65841136Y-58560195D01*
X65887341Y-58547814D01*
X65928768Y-58571731D01*
X65930620Y-58574274D01*
X65941827Y-58590510D01*
X66057343Y-58692848D01*
X66193991Y-58764566D01*
X66193992Y-58764566D01*
X66193993Y-58764567D01*
X66343836Y-58801500D01*
X66498164Y-58801500D01*
X66648007Y-58764567D01*
X66772956Y-58698988D01*
X66820594Y-58694660D01*
X66831039Y-58698986D01*
X66955993Y-58764567D01*
X67105836Y-58801500D01*
X67260164Y-58801500D01*
X67410007Y-58764567D01*
X67534956Y-58698988D01*
X67582594Y-58694660D01*
X67593039Y-58698986D01*
X67717993Y-58764567D01*
X67867836Y-58801500D01*
X68022164Y-58801500D01*
X68172007Y-58764567D01*
X68308657Y-58692848D01*
X68424173Y-58590510D01*
X68511841Y-58463501D01*
X68566566Y-58319202D01*
X68566567Y-58319196D01*
X68585168Y-58166003D01*
X68585168Y-58165996D01*
X68566567Y-58012803D01*
X68566566Y-58012801D01*
X68566566Y-58012798D01*
X68511841Y-57868499D01*
X68511839Y-57868497D01*
X68511839Y-57868495D01*
X68424175Y-57741492D01*
X68424171Y-57741488D01*
X68308656Y-57639151D01*
X68172007Y-57567433D01*
X68172010Y-57567433D01*
X68022167Y-57530500D01*
X68022164Y-57530500D01*
X67867836Y-57530500D01*
X67867832Y-57530500D01*
X67717991Y-57567433D01*
X67593045Y-57633010D01*
X67545406Y-57637339D01*
X67534955Y-57633010D01*
X67410007Y-57567433D01*
X67410010Y-57567433D01*
X67260167Y-57530500D01*
X67260164Y-57530500D01*
X67105836Y-57530500D01*
X67105832Y-57530500D01*
X66955991Y-57567433D01*
X66831045Y-57633010D01*
X66783406Y-57637339D01*
X66772955Y-57633010D01*
X66648007Y-57567433D01*
X66648010Y-57567433D01*
X66498167Y-57530500D01*
X66498164Y-57530500D01*
X66343836Y-57530500D01*
X66343832Y-57530500D01*
X66193991Y-57567433D01*
X66057343Y-57639151D01*
X65941828Y-57741488D01*
X65941824Y-57741492D01*
X65854160Y-57868495D01*
X65799432Y-58012802D01*
X65789216Y-58096940D01*
X65765717Y-58138605D01*
X65719638Y-58151450D01*
X65677973Y-58127951D01*
X65677587Y-58127453D01*
X65664197Y-58110002D01*
X65547360Y-58020351D01*
X65411310Y-57963997D01*
X65411300Y-57963994D01*
X65265302Y-57944774D01*
X65265298Y-57944774D01*
X65119299Y-57963994D01*
X65119289Y-57963997D01*
X64983240Y-58020351D01*
X64920421Y-58068552D01*
X64874215Y-58080932D01*
X64844327Y-58068552D01*
X64803530Y-58037248D01*
X64798063Y-58033053D01*
X64798062Y-58033052D01*
X64798060Y-58033051D01*
X64798061Y-58033051D01*
X64662010Y-57976697D01*
X64662000Y-57976694D01*
X64516002Y-57957474D01*
X64515998Y-57957474D01*
X64369999Y-57976694D01*
X64369989Y-57976697D01*
X64233940Y-58033051D01*
X64233937Y-58033052D01*
X64233937Y-58033053D01*
X64227116Y-58038286D01*
X64189072Y-58051200D01*
X62745599Y-58051200D01*
X62701405Y-58032894D01*
X62683634Y-57996857D01*
X62673305Y-57918400D01*
X62673304Y-57918396D01*
X62673304Y-57918393D01*
X62616947Y-57782337D01*
X62567821Y-57718315D01*
X62527297Y-57665502D01*
X62410460Y-57575851D01*
X62274410Y-57519497D01*
X62274400Y-57519494D01*
X62128402Y-57500274D01*
X62128398Y-57500274D01*
X61982399Y-57519494D01*
X61982389Y-57519497D01*
X61846339Y-57575851D01*
X61729502Y-57665502D01*
X61639851Y-57782339D01*
X61583495Y-57918393D01*
X61583494Y-57918396D01*
X61574107Y-57989700D01*
X61550189Y-58031127D01*
X61520300Y-58043507D01*
X61448996Y-58052894D01*
X61448993Y-58052895D01*
X61312939Y-58109251D01*
X61196102Y-58198902D01*
X61106451Y-58315739D01*
X61050097Y-58451789D01*
X61050094Y-58451799D01*
X61030874Y-58597798D01*
X61030874Y-58597801D01*
X61050094Y-58743800D01*
X61050097Y-58743810D01*
X61106450Y-58879858D01*
X61106452Y-58879860D01*
X61106453Y-58879863D01*
X61196103Y-58996697D01*
X61196104Y-58996698D01*
X61196106Y-58996700D01*
X61223051Y-59017375D01*
X61246969Y-59058801D01*
X61234589Y-59105007D01*
X61229198Y-59111154D01*
X59756768Y-60583586D01*
X59669190Y-60671162D01*
X59669187Y-60671166D01*
X59607256Y-60778432D01*
X59607255Y-60778435D01*
X59575201Y-60898064D01*
X59575200Y-60898072D01*
X59575200Y-64741972D01*
X59556894Y-64786166D01*
X59512700Y-64804472D01*
X59468506Y-64786166D01*
X59450735Y-64750130D01*
X59447505Y-64725599D01*
X59447504Y-64725597D01*
X59447504Y-64725593D01*
X59391147Y-64589537D01*
X59329817Y-64509610D01*
X59301497Y-64472702D01*
X59184660Y-64383051D01*
X59048610Y-64326697D01*
X59048608Y-64326696D01*
X59048607Y-64326696D01*
X59048605Y-64326695D01*
X59048599Y-64326694D01*
X58948048Y-64313456D01*
X58906621Y-64289538D01*
X58894241Y-64259648D01*
X58888705Y-64217600D01*
X58888704Y-64217599D01*
X58888704Y-64217593D01*
X58832347Y-64081537D01*
X58757568Y-63984083D01*
X58742697Y-63964702D01*
X58652959Y-63895844D01*
X58625863Y-63875053D01*
X58625862Y-63875052D01*
X58625860Y-63875051D01*
X58489810Y-63818697D01*
X58489800Y-63818694D01*
X58343802Y-63799474D01*
X58343798Y-63799474D01*
X58197799Y-63818694D01*
X58197789Y-63818697D01*
X58061739Y-63875051D01*
X57944902Y-63964702D01*
X57855251Y-64081539D01*
X57798897Y-64217589D01*
X57798894Y-64217599D01*
X57779674Y-64363598D01*
X57779674Y-64363601D01*
X57798894Y-64509600D01*
X57798897Y-64509610D01*
X57855251Y-64645660D01*
X57855252Y-64645662D01*
X57855253Y-64645663D01*
X57867966Y-64662231D01*
X57944902Y-64762497D01*
X58006654Y-64809880D01*
X58061737Y-64852147D01*
X58061738Y-64852147D01*
X58061739Y-64852148D01*
X58101692Y-64868697D01*
X58197793Y-64908504D01*
X58197799Y-64908504D01*
X58197800Y-64908505D01*
X58212670Y-64910462D01*
X58298351Y-64921742D01*
X58339777Y-64945659D01*
X58352158Y-64975549D01*
X58357694Y-65017603D01*
X58357695Y-65017606D01*
X58414051Y-65153660D01*
X58503702Y-65270497D01*
X58572560Y-65323333D01*
X58620537Y-65360147D01*
X58756593Y-65416504D01*
X58756597Y-65416504D01*
X58756599Y-65416505D01*
X58902598Y-65435726D01*
X58902600Y-65435726D01*
X58902602Y-65435726D01*
X59048600Y-65416505D01*
X59048600Y-65416504D01*
X59048607Y-65416504D01*
X59184663Y-65360147D01*
X59301497Y-65270497D01*
X59391147Y-65153663D01*
X59447504Y-65017607D01*
X59449299Y-65003975D01*
X59450735Y-64993069D01*
X59474652Y-64951643D01*
X59520858Y-64939262D01*
X59562284Y-64963179D01*
X59575200Y-65001227D01*
X59575200Y-66657974D01*
X59556894Y-66702168D01*
X59516144Y-66719047D01*
X59516262Y-66719939D01*
X59512933Y-66720377D01*
X59512700Y-66720474D01*
X59512198Y-66720474D01*
X59366199Y-66739694D01*
X59366189Y-66739697D01*
X59230139Y-66796051D01*
X59113302Y-66885702D01*
X59023651Y-67002539D01*
X58967297Y-67138589D01*
X58967294Y-67138599D01*
X58948074Y-67284598D01*
X58948074Y-67284601D01*
X58967294Y-67430600D01*
X58967297Y-67430610D01*
X59023651Y-67566660D01*
X59113302Y-67683497D01*
X59181535Y-67735853D01*
X59230137Y-67773147D01*
X59366193Y-67829504D01*
X59366197Y-67829504D01*
X59366199Y-67829505D01*
X59512198Y-67848726D01*
X59512700Y-67848726D01*
X59512933Y-67848822D01*
X59516262Y-67849261D01*
X59516144Y-67850152D01*
X59556894Y-67867032D01*
X59575200Y-67911226D01*
X59575200Y-75093532D01*
X59581146Y-75115719D01*
X59581146Y-75115721D01*
X59607256Y-75213167D01*
X59607259Y-75213173D01*
X59666106Y-75315097D01*
X59669186Y-75320432D01*
X59669191Y-75320438D01*
X60547494Y-76198740D01*
X60565800Y-76242934D01*
X60565800Y-76386666D01*
X60547494Y-76430860D01*
X60503300Y-76449166D01*
X60459106Y-76430860D01*
X60105833Y-76077587D01*
X60105832Y-76077586D01*
X60050488Y-76045633D01*
X59998567Y-76015656D01*
X59998564Y-76015655D01*
X59921247Y-75994939D01*
X59900088Y-75989269D01*
X59878932Y-75983600D01*
X59878930Y-75983600D01*
X59878929Y-75983600D01*
X58316884Y-75983600D01*
X58272690Y-75965294D01*
X57830983Y-75523587D01*
X57812677Y-75479393D01*
X57825591Y-75441347D01*
X57900547Y-75343663D01*
X57956904Y-75207607D01*
X57961284Y-75174340D01*
X57976126Y-75061601D01*
X57976126Y-75061598D01*
X57956905Y-74915599D01*
X57956904Y-74915597D01*
X57956904Y-74915593D01*
X57900547Y-74779537D01*
X57884476Y-74758594D01*
X57864797Y-74732946D01*
X57852417Y-74686741D01*
X57854688Y-74678283D01*
X57854244Y-74678164D01*
X57855305Y-74674204D01*
X57861150Y-74629801D01*
X57885066Y-74588374D01*
X57914957Y-74575993D01*
X58032600Y-74560505D01*
X58032600Y-74560504D01*
X58032607Y-74560504D01*
X58168663Y-74504147D01*
X58285497Y-74414497D01*
X58375147Y-74297663D01*
X58431504Y-74161607D01*
X58444301Y-74064401D01*
X58450726Y-74015601D01*
X58450726Y-74015598D01*
X58431505Y-73869599D01*
X58431504Y-73869597D01*
X58431504Y-73869593D01*
X58375147Y-73733537D01*
X58318720Y-73660000D01*
X58285497Y-73616702D01*
X58195759Y-73547844D01*
X58168663Y-73527053D01*
X58168662Y-73527052D01*
X58168660Y-73527051D01*
X58032610Y-73470697D01*
X58032608Y-73470696D01*
X58032607Y-73470696D01*
X58032605Y-73470695D01*
X58032599Y-73470694D01*
X57996260Y-73465910D01*
X57954833Y-73441992D01*
X57942453Y-73395787D01*
X57966371Y-73354360D01*
X57980493Y-73346205D01*
X58067063Y-73310347D01*
X58183897Y-73220697D01*
X58273547Y-73103863D01*
X58329904Y-72967807D01*
X58336652Y-72916551D01*
X58349126Y-72821801D01*
X58349126Y-72821798D01*
X58329905Y-72675799D01*
X58329904Y-72675797D01*
X58329904Y-72675793D01*
X58287635Y-72573747D01*
X58273548Y-72539739D01*
X58273547Y-72539738D01*
X58273547Y-72539737D01*
X58232180Y-72485827D01*
X58183897Y-72422902D01*
X58094159Y-72354044D01*
X58067063Y-72333253D01*
X58067062Y-72333252D01*
X58067060Y-72333251D01*
X57931010Y-72276897D01*
X57931000Y-72276894D01*
X57785002Y-72257674D01*
X57784998Y-72257674D01*
X57638999Y-72276894D01*
X57638989Y-72276897D01*
X57502939Y-72333251D01*
X57386102Y-72422902D01*
X57296451Y-72539739D01*
X57240097Y-72675788D01*
X57240094Y-72675797D01*
X57238972Y-72684320D01*
X57221202Y-72720350D01*
X56530968Y-73410586D01*
X56443390Y-73498162D01*
X56443387Y-73498166D01*
X56443386Y-73498168D01*
X56381457Y-73605432D01*
X56381456Y-73605434D01*
X56381453Y-73605442D01*
X56379776Y-73611704D01*
X56352116Y-73714934D01*
X56349400Y-73725067D01*
X56349400Y-75164710D01*
X56331094Y-75208904D01*
X56286900Y-75227210D01*
X56278743Y-75226675D01*
X56142003Y-75208674D01*
X56141998Y-75208674D01*
X55995999Y-75227894D01*
X55995989Y-75227897D01*
X55859940Y-75284251D01*
X55859935Y-75284253D01*
X55838531Y-75300677D01*
X55792325Y-75313056D01*
X55776568Y-75308834D01*
X55724410Y-75287230D01*
X55703807Y-75278696D01*
X55703805Y-75278695D01*
X55703800Y-75278694D01*
X55557802Y-75259474D01*
X55557798Y-75259474D01*
X55411799Y-75278694D01*
X55411790Y-75278697D01*
X55391186Y-75287231D01*
X55343351Y-75287230D01*
X55323076Y-75273682D01*
X55321701Y-75272307D01*
X55321698Y-75272305D01*
X55321697Y-75272303D01*
X55204863Y-75182653D01*
X55204860Y-75182652D01*
X55204858Y-75182650D01*
X55068810Y-75126297D01*
X55068800Y-75126294D01*
X54922802Y-75107074D01*
X54922797Y-75107074D01*
X54868054Y-75114280D01*
X54821849Y-75101899D01*
X54815698Y-75096505D01*
X54813692Y-75094498D01*
X54696861Y-75004851D01*
X54678872Y-74997400D01*
X54645048Y-74963575D01*
X54645049Y-74915739D01*
X54664742Y-74890075D01*
X54754897Y-74820897D01*
X54844547Y-74704063D01*
X54869096Y-74644795D01*
X54902918Y-74610973D01*
X54943017Y-74608346D01*
X54946591Y-74609303D01*
X54946593Y-74609304D01*
X54995262Y-74615711D01*
X55092598Y-74628526D01*
X55092600Y-74628526D01*
X55092602Y-74628526D01*
X55238600Y-74609305D01*
X55238600Y-74609304D01*
X55238607Y-74609304D01*
X55374663Y-74552947D01*
X55491497Y-74463297D01*
X55581147Y-74346463D01*
X55637504Y-74210407D01*
X55643350Y-74166000D01*
X55656726Y-74064401D01*
X55656726Y-74064398D01*
X55646151Y-73984074D01*
X55658531Y-73937868D01*
X55663914Y-73931730D01*
X57983613Y-71612033D01*
X57985362Y-71609005D01*
X58045543Y-71504768D01*
X58057857Y-71458812D01*
X58063701Y-71437001D01*
X58063701Y-71437000D01*
X58077599Y-71385134D01*
X58077600Y-71385129D01*
X58077600Y-70245271D01*
X58077599Y-70245268D01*
X58069443Y-70214830D01*
X58069442Y-70214828D01*
X58045544Y-70125635D01*
X58045540Y-70125626D01*
X57983615Y-70018370D01*
X57983608Y-70018361D01*
X54514506Y-66549259D01*
X54496200Y-66505065D01*
X54496200Y-66035808D01*
X54514506Y-65991614D01*
X54558700Y-65973308D01*
X54602894Y-65991614D01*
X54610665Y-66001082D01*
X54670592Y-66090770D01*
X54775030Y-66195208D01*
X54897836Y-66277264D01*
X55034291Y-66333786D01*
X55179151Y-66362600D01*
X55326849Y-66362600D01*
X55399254Y-66348198D01*
X57330474Y-66348198D01*
X57330474Y-66348201D01*
X57349694Y-66494200D01*
X57349697Y-66494210D01*
X57406051Y-66630260D01*
X57406052Y-66630262D01*
X57406053Y-66630263D01*
X57410529Y-66636096D01*
X57495702Y-66747097D01*
X57548663Y-66787735D01*
X57612537Y-66836747D01*
X57748593Y-66893104D01*
X57748597Y-66893104D01*
X57748599Y-66893105D01*
X57894598Y-66912326D01*
X57894600Y-66912326D01*
X57894602Y-66912326D01*
X58040600Y-66893105D01*
X58040600Y-66893104D01*
X58040607Y-66893104D01*
X58176663Y-66836747D01*
X58293497Y-66747097D01*
X58383147Y-66630263D01*
X58439504Y-66494207D01*
X58458726Y-66348200D01*
X58456828Y-66333786D01*
X58439505Y-66202199D01*
X58439504Y-66202197D01*
X58439504Y-66202193D01*
X58401932Y-66111489D01*
X58383148Y-66066139D01*
X58383147Y-66066138D01*
X58383147Y-66066137D01*
X58333231Y-66001085D01*
X58293497Y-65949302D01*
X58189845Y-65869768D01*
X58176663Y-65859653D01*
X58176662Y-65859652D01*
X58176660Y-65859651D01*
X58040610Y-65803297D01*
X58040600Y-65803294D01*
X57894602Y-65784074D01*
X57894598Y-65784074D01*
X57748599Y-65803294D01*
X57748589Y-65803297D01*
X57612539Y-65859651D01*
X57495702Y-65949302D01*
X57406051Y-66066139D01*
X57349697Y-66202189D01*
X57349694Y-66202199D01*
X57330474Y-66348198D01*
X55399254Y-66348198D01*
X55471709Y-66333786D01*
X55608164Y-66277264D01*
X55730970Y-66195208D01*
X55835408Y-66090770D01*
X55917464Y-65967964D01*
X55973986Y-65831509D01*
X56002800Y-65686649D01*
X56002800Y-65538951D01*
X55973986Y-65394091D01*
X55922877Y-65270704D01*
X55917465Y-65257638D01*
X55917462Y-65257633D01*
X55835408Y-65134830D01*
X55792941Y-65092363D01*
X55774635Y-65048169D01*
X55792941Y-65003975D01*
X55813217Y-64990427D01*
X55860676Y-64970767D01*
X55890663Y-64958347D01*
X56007497Y-64868697D01*
X56097147Y-64751863D01*
X56153504Y-64615807D01*
X56156962Y-64589539D01*
X56172726Y-64469801D01*
X56172726Y-64469798D01*
X56153505Y-64323799D01*
X56153504Y-64323797D01*
X56153504Y-64323793D01*
X56097147Y-64187737D01*
X56060333Y-64139760D01*
X56007497Y-64070902D01*
X55894351Y-63984083D01*
X55890663Y-63981253D01*
X55890662Y-63981252D01*
X55890660Y-63981251D01*
X55754610Y-63924897D01*
X55754600Y-63924894D01*
X55608602Y-63905674D01*
X55608598Y-63905674D01*
X55462599Y-63924894D01*
X55462589Y-63924897D01*
X55326539Y-63981251D01*
X55209702Y-64070902D01*
X55120051Y-64187739D01*
X55063697Y-64323789D01*
X55063694Y-64323799D01*
X55044474Y-64469798D01*
X55044474Y-64469801D01*
X55063694Y-64615800D01*
X55063697Y-64615810D01*
X55120051Y-64751861D01*
X55140678Y-64778742D01*
X55153059Y-64824948D01*
X55129142Y-64866374D01*
X55103288Y-64878089D01*
X55034291Y-64891814D01*
X55034289Y-64891814D01*
X54897838Y-64948334D01*
X54897833Y-64948337D01*
X54775030Y-65030391D01*
X54670591Y-65134830D01*
X54610667Y-65224514D01*
X54570893Y-65251090D01*
X54523977Y-65241758D01*
X54497401Y-65201984D01*
X54496200Y-65189791D01*
X54496200Y-62095518D01*
X54850800Y-62095518D01*
X54850800Y-62313681D01*
X54879275Y-62529969D01*
X54879275Y-62529970D01*
X54935733Y-62740675D01*
X54935739Y-62740693D01*
X55019219Y-62942230D01*
X55019222Y-62942236D01*
X55128299Y-63131164D01*
X55261103Y-63304238D01*
X55415362Y-63458497D01*
X55588436Y-63591301D01*
X55777364Y-63700378D01*
X55978913Y-63783863D01*
X55978923Y-63783865D01*
X55978924Y-63783866D01*
X56189629Y-63840324D01*
X56189631Y-63840324D01*
X56189634Y-63840325D01*
X56405923Y-63868800D01*
X56405929Y-63868800D01*
X56624071Y-63868800D01*
X56624077Y-63868800D01*
X56840366Y-63840325D01*
X57051087Y-63783863D01*
X57252636Y-63700378D01*
X57441564Y-63591301D01*
X57614638Y-63458497D01*
X57768897Y-63304238D01*
X57901701Y-63131164D01*
X58010778Y-62942236D01*
X58094263Y-62740687D01*
X58150725Y-62529966D01*
X58179200Y-62313677D01*
X58179200Y-62095523D01*
X58150725Y-61879234D01*
X58094263Y-61668513D01*
X58010778Y-61466964D01*
X57901701Y-61278036D01*
X57786857Y-61128368D01*
X57768901Y-61104967D01*
X57768892Y-61104957D01*
X57614642Y-60950707D01*
X57614632Y-60950698D01*
X57441561Y-60817897D01*
X57252642Y-60708825D01*
X57252630Y-60708819D01*
X57051093Y-60625339D01*
X57051075Y-60625333D01*
X56840370Y-60568875D01*
X56624081Y-60540400D01*
X56624077Y-60540400D01*
X56405923Y-60540400D01*
X56405918Y-60540400D01*
X56189630Y-60568875D01*
X56189629Y-60568875D01*
X55978924Y-60625333D01*
X55978906Y-60625339D01*
X55777369Y-60708819D01*
X55777357Y-60708825D01*
X55588438Y-60817897D01*
X55415367Y-60950698D01*
X55415357Y-60950707D01*
X55261107Y-61104957D01*
X55261098Y-61104967D01*
X55128297Y-61278038D01*
X55019225Y-61466957D01*
X55019219Y-61466969D01*
X54935739Y-61668506D01*
X54935733Y-61668524D01*
X54879275Y-61879229D01*
X54879275Y-61879230D01*
X54850800Y-62095518D01*
X54496200Y-62095518D01*
X54496200Y-61637934D01*
X54514506Y-61593740D01*
X55904140Y-60204106D01*
X55948334Y-60185800D01*
X57389729Y-60185800D01*
X57389730Y-60185800D01*
X57466759Y-60165160D01*
X57509368Y-60153743D01*
X57616632Y-60091814D01*
X57704214Y-60004232D01*
X59034448Y-58673998D01*
X59608474Y-58673998D01*
X59608474Y-58674001D01*
X59627694Y-58820000D01*
X59627697Y-58820010D01*
X59684051Y-58956060D01*
X59773702Y-59072897D01*
X59823560Y-59111154D01*
X59890537Y-59162547D01*
X59890538Y-59162547D01*
X59890539Y-59162548D01*
X59935889Y-59181332D01*
X60026593Y-59218904D01*
X60026597Y-59218904D01*
X60026599Y-59218905D01*
X60172598Y-59238126D01*
X60172600Y-59238126D01*
X60172602Y-59238126D01*
X60318600Y-59218905D01*
X60318600Y-59218904D01*
X60318607Y-59218904D01*
X60454663Y-59162547D01*
X60571497Y-59072897D01*
X60661147Y-58956063D01*
X60717504Y-58820007D01*
X60717960Y-58816543D01*
X60736726Y-58674001D01*
X60736726Y-58673998D01*
X60717505Y-58527999D01*
X60717504Y-58527997D01*
X60717504Y-58527993D01*
X60661147Y-58391937D01*
X60624333Y-58343960D01*
X60571497Y-58275102D01*
X60454660Y-58185451D01*
X60318610Y-58129097D01*
X60318600Y-58129094D01*
X60172602Y-58109874D01*
X60172598Y-58109874D01*
X60026599Y-58129094D01*
X60026589Y-58129097D01*
X59890539Y-58185451D01*
X59773702Y-58275102D01*
X59684051Y-58391939D01*
X59627697Y-58527989D01*
X59627694Y-58527999D01*
X59608474Y-58673998D01*
X59034448Y-58673998D01*
X61336414Y-56372032D01*
X61398344Y-56264767D01*
X61430400Y-56145129D01*
X61430400Y-56021270D01*
X61430400Y-55523223D01*
X61448706Y-55479029D01*
X61463438Y-55468103D01*
X61469550Y-55464836D01*
X61527469Y-55433878D01*
X61682252Y-55306852D01*
X61809278Y-55152069D01*
X61903667Y-54975480D01*
X61961792Y-54783869D01*
X61981418Y-54584600D01*
X61981418Y-54584599D01*
X62478582Y-54584599D01*
X62478582Y-54584600D01*
X62498207Y-54783867D01*
X62514830Y-54838663D01*
X62556333Y-54975480D01*
X62572704Y-55006108D01*
X62650718Y-55152063D01*
X62650726Y-55152074D01*
X62777746Y-55306850D01*
X62777749Y-55306853D01*
X62852990Y-55368601D01*
X62932531Y-55433878D01*
X62932534Y-55433879D01*
X62932536Y-55433881D01*
X62952113Y-55444345D01*
X63109120Y-55528267D01*
X63300731Y-55586392D01*
X63500000Y-55606018D01*
X63699269Y-55586392D01*
X63890880Y-55528267D01*
X64067469Y-55433878D01*
X64222252Y-55306852D01*
X64349278Y-55152069D01*
X64443667Y-54975480D01*
X64501792Y-54783869D01*
X64521418Y-54584600D01*
X64521418Y-54584599D01*
X65018582Y-54584599D01*
X65018582Y-54584600D01*
X65038207Y-54783867D01*
X65054830Y-54838663D01*
X65096333Y-54975480D01*
X65112704Y-55006108D01*
X65190718Y-55152063D01*
X65190726Y-55152074D01*
X65317746Y-55306850D01*
X65317749Y-55306853D01*
X65392990Y-55368601D01*
X65472531Y-55433878D01*
X65472534Y-55433879D01*
X65472536Y-55433881D01*
X65492113Y-55444345D01*
X65649120Y-55528267D01*
X65840731Y-55586392D01*
X66040000Y-55606018D01*
X66239269Y-55586392D01*
X66430880Y-55528267D01*
X66607469Y-55433878D01*
X66762252Y-55306852D01*
X66889278Y-55152069D01*
X66983667Y-54975480D01*
X67041792Y-54783869D01*
X67061418Y-54584600D01*
X67734126Y-54584600D01*
X67752610Y-54760469D01*
X67805240Y-54922444D01*
X67807256Y-54928648D01*
X67895673Y-55081790D01*
X67895672Y-55081790D01*
X68013994Y-55213201D01*
X68014000Y-55213207D01*
X68157058Y-55317145D01*
X68157060Y-55317146D01*
X68157063Y-55317148D01*
X68185844Y-55329962D01*
X68318599Y-55389069D01*
X68318602Y-55389070D01*
X68318611Y-55389074D01*
X68318616Y-55389075D01*
X68491581Y-55425840D01*
X68491582Y-55425840D01*
X68668419Y-55425840D01*
X68743772Y-55409822D01*
X68841389Y-55389074D01*
X68909002Y-55358969D01*
X68956821Y-55357717D01*
X68978618Y-55371872D01*
X69401934Y-55795188D01*
X69420240Y-55839382D01*
X69420240Y-57827647D01*
X69462076Y-57928649D01*
X69462080Y-57928654D01*
X72068934Y-60535508D01*
X72087240Y-60579702D01*
X72087240Y-63949047D01*
X72129076Y-64050049D01*
X72129080Y-64050054D01*
X75370934Y-67291908D01*
X75389240Y-67336102D01*
X75389240Y-71414618D01*
X75370934Y-71458812D01*
X75103420Y-71726325D01*
X75103416Y-71726330D01*
X75061580Y-71827332D01*
X75061580Y-72224877D01*
X75043274Y-72269071D01*
X74919163Y-72393181D01*
X74884746Y-72410717D01*
X74784448Y-72426602D01*
X74784448Y-72426603D01*
X74676053Y-72481831D01*
X74590031Y-72567853D01*
X74534803Y-72676248D01*
X74534802Y-72676248D01*
X74515773Y-72796396D01*
X74515773Y-72796403D01*
X74534803Y-72916551D01*
X74534803Y-72916552D01*
X74534804Y-72916554D01*
X74560915Y-72967800D01*
X74581396Y-73007999D01*
X74590032Y-73024947D01*
X74676053Y-73110968D01*
X74784446Y-73166196D01*
X74784448Y-73166196D01*
X74784448Y-73166197D01*
X74904597Y-73185227D01*
X74904600Y-73185227D01*
X74904603Y-73185227D01*
X75024751Y-73166197D01*
X75024751Y-73166196D01*
X75024754Y-73166196D01*
X75133147Y-73110968D01*
X75219168Y-73024947D01*
X75274396Y-72916554D01*
X75290283Y-72816247D01*
X75307817Y-72781835D01*
X75485098Y-72604554D01*
X75529291Y-72586249D01*
X75553204Y-72591005D01*
X75647593Y-72630104D01*
X75696262Y-72636511D01*
X75793598Y-72649326D01*
X75793600Y-72649326D01*
X75793602Y-72649326D01*
X75939600Y-72630105D01*
X75939600Y-72630104D01*
X75939607Y-72630104D01*
X76051951Y-72583569D01*
X76099786Y-72583568D01*
X76120063Y-72597117D01*
X76279380Y-72756434D01*
X76296916Y-72790850D01*
X76312803Y-72891152D01*
X76355117Y-72974201D01*
X76368032Y-72999547D01*
X76454053Y-73085568D01*
X76562446Y-73140796D01*
X76562448Y-73140796D01*
X76562448Y-73140797D01*
X76682597Y-73159827D01*
X76682600Y-73159827D01*
X76682603Y-73159827D01*
X76802751Y-73140797D01*
X76802751Y-73140796D01*
X76802754Y-73140796D01*
X76911147Y-73085568D01*
X76997168Y-72999547D01*
X77052396Y-72891154D01*
X77052396Y-72891151D01*
X77052397Y-72891151D01*
X77071427Y-72771003D01*
X77071427Y-72770996D01*
X77057587Y-72683620D01*
X77052396Y-72650846D01*
X76997168Y-72542453D01*
X76911147Y-72456432D01*
X76911146Y-72456431D01*
X76845339Y-72422902D01*
X76802754Y-72401204D01*
X76802752Y-72401203D01*
X76702450Y-72385316D01*
X76668034Y-72367780D01*
X76563252Y-72262998D01*
X77363074Y-72262998D01*
X77363074Y-72263001D01*
X77382294Y-72409000D01*
X77382297Y-72409010D01*
X77438651Y-72545060D01*
X77438652Y-72545062D01*
X77438653Y-72545063D01*
X77453209Y-72564033D01*
X77528302Y-72661897D01*
X77597160Y-72714733D01*
X77645137Y-72751547D01*
X77645138Y-72751547D01*
X77645139Y-72751548D01*
X77684870Y-72768005D01*
X77781193Y-72807904D01*
X77781197Y-72807904D01*
X77781199Y-72807905D01*
X77927198Y-72827126D01*
X77927200Y-72827126D01*
X77927202Y-72827126D01*
X78073200Y-72807905D01*
X78073200Y-72807904D01*
X78073207Y-72807904D01*
X78209263Y-72751547D01*
X78326097Y-72661897D01*
X78415747Y-72545063D01*
X78472104Y-72409007D01*
X78476112Y-72378562D01*
X78491326Y-72263001D01*
X78491326Y-72262998D01*
X78472105Y-72116999D01*
X78472104Y-72116997D01*
X78472104Y-72116993D01*
X78434532Y-72026289D01*
X78415748Y-71980939D01*
X78415747Y-71980938D01*
X78415747Y-71980937D01*
X78378933Y-71932960D01*
X78326097Y-71864102D01*
X78236359Y-71795244D01*
X78209263Y-71774453D01*
X78209262Y-71774452D01*
X78209260Y-71774451D01*
X78073210Y-71718097D01*
X78073200Y-71718094D01*
X77927202Y-71698874D01*
X77927198Y-71698874D01*
X77781199Y-71718094D01*
X77781189Y-71718097D01*
X77645139Y-71774451D01*
X77528302Y-71864102D01*
X77438651Y-71980939D01*
X77382297Y-72116989D01*
X77382294Y-72116999D01*
X77363074Y-72262998D01*
X76563252Y-72262998D01*
X76518526Y-72218272D01*
X76500220Y-72174078D01*
X76500220Y-71751135D01*
X76500219Y-71751132D01*
X76458383Y-71650130D01*
X76458379Y-71650125D01*
X76267066Y-71458812D01*
X76248760Y-71414618D01*
X76248760Y-67013355D01*
X76248759Y-67013352D01*
X76206923Y-66912350D01*
X76206919Y-66912345D01*
X72965066Y-63670492D01*
X72946760Y-63626298D01*
X72946760Y-62095518D01*
X73900800Y-62095518D01*
X73900800Y-62313681D01*
X73929275Y-62529969D01*
X73929275Y-62529970D01*
X73985733Y-62740675D01*
X73985739Y-62740693D01*
X74069219Y-62942230D01*
X74069222Y-62942236D01*
X74178299Y-63131164D01*
X74311103Y-63304238D01*
X74465362Y-63458497D01*
X74638436Y-63591301D01*
X74827364Y-63700378D01*
X75028913Y-63783863D01*
X75028923Y-63783865D01*
X75028924Y-63783866D01*
X75239629Y-63840324D01*
X75239631Y-63840324D01*
X75239634Y-63840325D01*
X75455923Y-63868800D01*
X75455929Y-63868800D01*
X75674071Y-63868800D01*
X75674077Y-63868800D01*
X75890366Y-63840325D01*
X76101087Y-63783863D01*
X76302636Y-63700378D01*
X76491564Y-63591301D01*
X76664638Y-63458497D01*
X76818897Y-63304238D01*
X76951701Y-63131164D01*
X77060778Y-62942236D01*
X77144263Y-62740687D01*
X77200725Y-62529966D01*
X77229200Y-62313677D01*
X77229200Y-62095523D01*
X77200725Y-61879234D01*
X77144263Y-61668513D01*
X77060778Y-61466964D01*
X76951701Y-61278036D01*
X76836857Y-61128368D01*
X76818901Y-61104967D01*
X76818892Y-61104957D01*
X76664642Y-60950707D01*
X76664632Y-60950698D01*
X76491561Y-60817897D01*
X76302642Y-60708825D01*
X76302630Y-60708819D01*
X76101093Y-60625339D01*
X76101075Y-60625333D01*
X75890370Y-60568875D01*
X75674081Y-60540400D01*
X75674077Y-60540400D01*
X75455923Y-60540400D01*
X75455918Y-60540400D01*
X75239630Y-60568875D01*
X75239629Y-60568875D01*
X75028924Y-60625333D01*
X75028906Y-60625339D01*
X74827369Y-60708819D01*
X74827357Y-60708825D01*
X74638438Y-60817897D01*
X74465367Y-60950698D01*
X74465357Y-60950707D01*
X74311107Y-61104957D01*
X74311098Y-61104967D01*
X74178297Y-61278038D01*
X74069225Y-61466957D01*
X74069219Y-61466969D01*
X73985739Y-61668506D01*
X73985733Y-61668524D01*
X73929275Y-61879229D01*
X73929275Y-61879230D01*
X73900800Y-62095518D01*
X72946760Y-62095518D01*
X72946760Y-60256955D01*
X72946759Y-60256952D01*
X72904923Y-60155950D01*
X72904919Y-60155945D01*
X70914970Y-58165996D01*
X73019832Y-58165996D01*
X73019832Y-58166003D01*
X73038432Y-58319196D01*
X73093160Y-58463504D01*
X73180824Y-58590507D01*
X73180827Y-58590510D01*
X73296343Y-58692848D01*
X73432991Y-58764566D01*
X73432992Y-58764566D01*
X73432993Y-58764567D01*
X73582836Y-58801500D01*
X73737164Y-58801500D01*
X73887007Y-58764567D01*
X74011956Y-58698988D01*
X74059594Y-58694660D01*
X74070039Y-58698986D01*
X74194993Y-58764567D01*
X74344836Y-58801500D01*
X74499164Y-58801500D01*
X74649007Y-58764567D01*
X74773956Y-58698988D01*
X74821594Y-58694660D01*
X74832039Y-58698986D01*
X74956993Y-58764567D01*
X75106836Y-58801500D01*
X75261164Y-58801500D01*
X75411007Y-58764567D01*
X75535956Y-58698988D01*
X75583594Y-58694660D01*
X75594039Y-58698986D01*
X75718993Y-58764567D01*
X75868836Y-58801500D01*
X76023164Y-58801500D01*
X76173007Y-58764567D01*
X76297956Y-58698988D01*
X76345594Y-58694660D01*
X76356039Y-58698986D01*
X76480993Y-58764567D01*
X76630836Y-58801500D01*
X76785164Y-58801500D01*
X76935007Y-58764567D01*
X77071657Y-58692848D01*
X77187173Y-58590510D01*
X77274841Y-58463501D01*
X77329566Y-58319202D01*
X77329567Y-58319196D01*
X77348168Y-58166003D01*
X77348168Y-58165996D01*
X77329567Y-58012803D01*
X77329566Y-58012801D01*
X77329566Y-58012798D01*
X77274841Y-57868499D01*
X77274839Y-57868497D01*
X77274839Y-57868495D01*
X77187175Y-57741492D01*
X77187171Y-57741488D01*
X77071656Y-57639151D01*
X76935007Y-57567433D01*
X76935010Y-57567433D01*
X76785167Y-57530500D01*
X76785164Y-57530500D01*
X76630836Y-57530500D01*
X76630832Y-57530500D01*
X76480991Y-57567433D01*
X76356045Y-57633010D01*
X76308406Y-57637339D01*
X76297955Y-57633010D01*
X76173007Y-57567433D01*
X76173010Y-57567433D01*
X76023167Y-57530500D01*
X76023164Y-57530500D01*
X75868836Y-57530500D01*
X75868832Y-57530500D01*
X75718991Y-57567433D01*
X75594045Y-57633010D01*
X75546406Y-57637339D01*
X75535955Y-57633010D01*
X75411007Y-57567433D01*
X75411010Y-57567433D01*
X75261167Y-57530500D01*
X75261164Y-57530500D01*
X75106836Y-57530500D01*
X75106832Y-57530500D01*
X74956991Y-57567433D01*
X74832045Y-57633010D01*
X74784406Y-57637339D01*
X74773955Y-57633010D01*
X74649007Y-57567433D01*
X74649010Y-57567433D01*
X74499167Y-57530500D01*
X74499164Y-57530500D01*
X74344836Y-57530500D01*
X74344832Y-57530500D01*
X74194991Y-57567433D01*
X74070045Y-57633010D01*
X74022406Y-57637339D01*
X74011955Y-57633010D01*
X73887007Y-57567433D01*
X73887010Y-57567433D01*
X73737167Y-57530500D01*
X73737164Y-57530500D01*
X73582836Y-57530500D01*
X73582832Y-57530500D01*
X73432991Y-57567433D01*
X73296343Y-57639151D01*
X73180828Y-57741488D01*
X73180824Y-57741492D01*
X73093160Y-57868495D01*
X73038432Y-58012803D01*
X73019832Y-58165996D01*
X70914970Y-58165996D01*
X70298066Y-57549092D01*
X70279760Y-57504898D01*
X70279760Y-55839381D01*
X70298065Y-55795188D01*
X70721382Y-55371870D01*
X70765575Y-55353565D01*
X70790993Y-55358968D01*
X70832625Y-55377504D01*
X70858603Y-55389071D01*
X70858607Y-55389072D01*
X70858611Y-55389074D01*
X70858616Y-55389075D01*
X71031581Y-55425840D01*
X71031582Y-55425840D01*
X71208419Y-55425840D01*
X71283772Y-55409822D01*
X71381389Y-55389074D01*
X71427372Y-55368601D01*
X73235207Y-55368601D01*
X73383767Y-55434745D01*
X73383775Y-55434748D01*
X73566562Y-55473600D01*
X73753438Y-55473600D01*
X73936224Y-55434748D01*
X73936240Y-55434742D01*
X74084791Y-55368602D01*
X74084791Y-55368601D01*
X73660000Y-54943810D01*
X73235207Y-55368601D01*
X71427372Y-55368601D01*
X71542937Y-55317148D01*
X71686000Y-55213207D01*
X71804326Y-55081792D01*
X71892744Y-54928648D01*
X71947390Y-54760467D01*
X71965874Y-54584600D01*
X72766103Y-54584600D01*
X72785637Y-54770454D01*
X72843381Y-54948176D01*
X72843384Y-54948182D01*
X72877726Y-55007661D01*
X73300788Y-54584599D01*
X73258989Y-54542800D01*
X73342500Y-54542800D01*
X73342500Y-54626400D01*
X73364137Y-54707151D01*
X73405937Y-54779550D01*
X73465050Y-54838663D01*
X73537449Y-54880463D01*
X73618200Y-54902100D01*
X73701800Y-54902100D01*
X73782551Y-54880463D01*
X73854950Y-54838663D01*
X73914063Y-54779550D01*
X73955863Y-54707151D01*
X73977500Y-54626400D01*
X73977500Y-54584599D01*
X74019210Y-54584599D01*
X74442273Y-55007662D01*
X74476615Y-54948182D01*
X74476618Y-54948176D01*
X74534362Y-54770454D01*
X74553896Y-54584600D01*
X74534362Y-54398745D01*
X74476618Y-54221023D01*
X74476615Y-54221017D01*
X74442272Y-54161536D01*
X74019210Y-54584599D01*
X73977500Y-54584599D01*
X73977500Y-54542800D01*
X73955863Y-54462049D01*
X73914063Y-54389650D01*
X73854950Y-54330537D01*
X73782551Y-54288737D01*
X73701800Y-54267100D01*
X73618200Y-54267100D01*
X73537449Y-54288737D01*
X73465050Y-54330537D01*
X73405937Y-54389650D01*
X73364137Y-54462049D01*
X73342500Y-54542800D01*
X73258989Y-54542800D01*
X72877726Y-54161537D01*
X72843381Y-54221024D01*
X72785637Y-54398745D01*
X72766103Y-54584600D01*
X71965874Y-54584600D01*
X71947390Y-54408733D01*
X71892744Y-54240552D01*
X71804326Y-54087408D01*
X71686005Y-53955998D01*
X71685999Y-53955992D01*
X71542941Y-53852054D01*
X71542935Y-53852051D01*
X71427369Y-53800597D01*
X73235208Y-53800597D01*
X73659999Y-54225388D01*
X74084790Y-53800597D01*
X73936232Y-53734454D01*
X73936224Y-53734451D01*
X73753438Y-53695600D01*
X73566562Y-53695600D01*
X73383775Y-53734451D01*
X73383767Y-53734454D01*
X73235208Y-53800597D01*
X71427369Y-53800597D01*
X71381400Y-53780130D01*
X71381383Y-53780124D01*
X71208419Y-53743360D01*
X71208418Y-53743360D01*
X71031582Y-53743360D01*
X71031581Y-53743360D01*
X70858616Y-53780124D01*
X70858599Y-53780130D01*
X70697064Y-53852051D01*
X70697058Y-53852054D01*
X70554000Y-53955992D01*
X70553994Y-53955998D01*
X70435673Y-54087409D01*
X70347254Y-54240556D01*
X70292610Y-54408730D01*
X70274126Y-54584600D01*
X70292610Y-54760469D01*
X70345240Y-54922444D01*
X70341487Y-54970132D01*
X70329993Y-54985952D01*
X69894193Y-55421751D01*
X69849999Y-55440057D01*
X69805805Y-55421751D01*
X69370006Y-54985952D01*
X69351700Y-54941758D01*
X69354758Y-54922448D01*
X69407390Y-54760467D01*
X69425874Y-54584600D01*
X69407390Y-54408733D01*
X69352744Y-54240552D01*
X69264326Y-54087408D01*
X69146005Y-53955998D01*
X69145999Y-53955992D01*
X69002941Y-53852054D01*
X69002935Y-53852051D01*
X68841400Y-53780130D01*
X68841383Y-53780124D01*
X68668419Y-53743360D01*
X68668418Y-53743360D01*
X68491582Y-53743360D01*
X68491581Y-53743360D01*
X68318616Y-53780124D01*
X68318599Y-53780130D01*
X68157064Y-53852051D01*
X68157058Y-53852054D01*
X68014000Y-53955992D01*
X68013994Y-53955998D01*
X67895673Y-54087409D01*
X67807254Y-54240556D01*
X67752610Y-54408730D01*
X67734126Y-54584600D01*
X67061418Y-54584600D01*
X67041792Y-54385331D01*
X66983667Y-54193720D01*
X66913839Y-54063082D01*
X66889281Y-54017136D01*
X66889279Y-54017134D01*
X66889278Y-54017131D01*
X66762252Y-53862348D01*
X66749706Y-53852052D01*
X66607474Y-53735326D01*
X66607472Y-53735325D01*
X66607469Y-53735322D01*
X66607467Y-53735320D01*
X66607463Y-53735318D01*
X66483429Y-53669021D01*
X66430880Y-53640933D01*
X66308409Y-53603781D01*
X66239267Y-53582807D01*
X66040000Y-53563182D01*
X65840732Y-53582807D01*
X65722392Y-53618706D01*
X65649120Y-53640933D01*
X65649118Y-53640933D01*
X65649118Y-53640934D01*
X65472536Y-53735318D01*
X65472525Y-53735326D01*
X65317749Y-53862346D01*
X65317746Y-53862349D01*
X65190726Y-54017125D01*
X65190718Y-54017136D01*
X65113535Y-54161537D01*
X65096333Y-54193720D01*
X65086727Y-54225388D01*
X65038207Y-54385332D01*
X65018582Y-54584599D01*
X64521418Y-54584599D01*
X64501792Y-54385331D01*
X64443667Y-54193720D01*
X64373839Y-54063082D01*
X64349281Y-54017136D01*
X64349279Y-54017134D01*
X64349278Y-54017131D01*
X64222252Y-53862348D01*
X64209706Y-53852052D01*
X64067474Y-53735326D01*
X64067472Y-53735325D01*
X64067469Y-53735322D01*
X64067467Y-53735320D01*
X64067463Y-53735318D01*
X63943429Y-53669021D01*
X63890880Y-53640933D01*
X63768409Y-53603781D01*
X63699267Y-53582807D01*
X63500000Y-53563182D01*
X63300732Y-53582807D01*
X63182392Y-53618706D01*
X63109120Y-53640933D01*
X63109118Y-53640933D01*
X63109118Y-53640934D01*
X62932536Y-53735318D01*
X62932525Y-53735326D01*
X62777749Y-53862346D01*
X62777746Y-53862349D01*
X62650726Y-54017125D01*
X62650718Y-54017136D01*
X62573535Y-54161537D01*
X62556333Y-54193720D01*
X62546727Y-54225388D01*
X62498207Y-54385332D01*
X62478582Y-54584599D01*
X61981418Y-54584599D01*
X61961792Y-54385331D01*
X61903667Y-54193720D01*
X61833839Y-54063082D01*
X61809281Y-54017136D01*
X61809279Y-54017134D01*
X61809278Y-54017131D01*
X61682252Y-53862348D01*
X61669706Y-53852052D01*
X61527474Y-53735326D01*
X61527472Y-53735325D01*
X61527469Y-53735322D01*
X61527467Y-53735320D01*
X61527463Y-53735318D01*
X61403429Y-53669021D01*
X61350880Y-53640933D01*
X61228409Y-53603781D01*
X61159267Y-53582807D01*
X60960000Y-53563182D01*
X60760732Y-53582807D01*
X60642392Y-53618706D01*
X60569120Y-53640933D01*
X60569118Y-53640933D01*
X60569118Y-53640934D01*
X60392536Y-53735318D01*
X60392525Y-53735326D01*
X60237749Y-53862346D01*
X60237746Y-53862349D01*
X60110726Y-54017125D01*
X60110718Y-54017136D01*
X60033535Y-54161537D01*
X60016333Y-54193720D01*
X60006727Y-54225388D01*
X59958207Y-54385332D01*
X59938582Y-54584599D01*
X59938582Y-54584600D01*
X59958207Y-54783867D01*
X59974830Y-54838663D01*
X60016333Y-54975480D01*
X60032704Y-55006108D01*
X60110718Y-55152063D01*
X60110726Y-55152074D01*
X60237746Y-55306850D01*
X60237749Y-55306853D01*
X60312990Y-55368601D01*
X60392531Y-55433878D01*
X60392534Y-55433879D01*
X60392536Y-55433881D01*
X60456562Y-55468103D01*
X60486909Y-55505080D01*
X60489600Y-55523223D01*
X60489600Y-55862465D01*
X60471294Y-55906659D01*
X58344824Y-58033128D01*
X58300630Y-58051434D01*
X58256436Y-58033128D01*
X58238665Y-57997091D01*
X58228305Y-57918400D01*
X58228304Y-57918396D01*
X58228304Y-57918393D01*
X58171947Y-57782337D01*
X58122821Y-57718315D01*
X58082297Y-57665502D01*
X57965460Y-57575851D01*
X57829410Y-57519497D01*
X57829400Y-57519494D01*
X57683402Y-57500274D01*
X57683398Y-57500274D01*
X57537399Y-57519494D01*
X57537389Y-57519497D01*
X57401339Y-57575851D01*
X57284502Y-57665502D01*
X57194851Y-57782339D01*
X57138497Y-57918389D01*
X57138494Y-57918399D01*
X57119274Y-58064398D01*
X57119274Y-58064401D01*
X57138494Y-58210400D01*
X57138497Y-58210410D01*
X57194851Y-58346460D01*
X57284502Y-58463297D01*
X57343934Y-58508900D01*
X57401337Y-58552947D01*
X57537393Y-58609304D01*
X57537399Y-58609304D01*
X57537400Y-58609305D01*
X57616091Y-58619665D01*
X57657518Y-58643582D01*
X57669899Y-58689787D01*
X57652128Y-58725824D01*
X57151260Y-59226694D01*
X57107066Y-59245000D01*
X55789530Y-59245000D01*
X55665670Y-59245000D01*
X55665669Y-59245000D01*
X55665663Y-59245001D01*
X55546036Y-59277054D01*
X55546027Y-59277058D01*
X55438771Y-59338983D01*
X55438762Y-59338990D01*
X53736968Y-61040786D01*
X53649390Y-61128362D01*
X53649387Y-61128366D01*
X53587456Y-61235632D01*
X53587455Y-61235635D01*
X53555401Y-61355264D01*
X53555400Y-61355272D01*
X53555400Y-66787727D01*
X53555401Y-66787735D01*
X53587456Y-66907367D01*
X53587457Y-66907370D01*
X53619806Y-66963397D01*
X53619807Y-66963400D01*
X53649384Y-67014629D01*
X53649391Y-67014638D01*
X56490392Y-69855638D01*
X56508698Y-69899832D01*
X56490392Y-69944026D01*
X56446198Y-69962332D01*
X56434005Y-69961131D01*
X56342850Y-69943000D01*
X56342849Y-69943000D01*
X56195151Y-69943000D01*
X56050292Y-69971813D01*
X56050289Y-69971814D01*
X55913838Y-70028334D01*
X55913833Y-70028337D01*
X55791030Y-70110391D01*
X55686593Y-70214828D01*
X55686593Y-70214829D01*
X55686592Y-70214830D01*
X55682920Y-70220326D01*
X55604537Y-70337633D01*
X55604534Y-70337638D01*
X55548014Y-70474089D01*
X55548013Y-70474092D01*
X55519200Y-70618950D01*
X55519200Y-70766649D01*
X55548013Y-70911507D01*
X55548014Y-70911510D01*
X55604534Y-71047961D01*
X55604537Y-71047966D01*
X55670482Y-71146660D01*
X55686592Y-71170770D01*
X55791030Y-71275208D01*
X55913836Y-71357264D01*
X56050291Y-71413786D01*
X56195151Y-71442600D01*
X56342849Y-71442600D01*
X56487709Y-71413786D01*
X56624164Y-71357264D01*
X56746970Y-71275208D01*
X56851408Y-71170770D01*
X56933464Y-71047964D01*
X56989986Y-70911509D01*
X57013001Y-70795803D01*
X57039577Y-70756029D01*
X57086493Y-70746697D01*
X57126267Y-70773273D01*
X57136800Y-70807996D01*
X57136800Y-71102466D01*
X57118494Y-71146660D01*
X54803768Y-73461386D01*
X54716190Y-73548962D01*
X54716187Y-73548966D01*
X54654256Y-73656232D01*
X54654256Y-73656234D01*
X54632491Y-73737459D01*
X54621707Y-73759328D01*
X54604054Y-73782335D01*
X54604049Y-73782343D01*
X54579503Y-73841602D01*
X54545678Y-73875427D01*
X54505583Y-73878054D01*
X54502004Y-73877094D01*
X54479402Y-73874119D01*
X54437976Y-73850201D01*
X54429820Y-73836076D01*
X54387347Y-73733537D01*
X54317528Y-73642547D01*
X54297698Y-73616704D01*
X54297697Y-73616703D01*
X54190878Y-73534738D01*
X54166962Y-73493312D01*
X54179342Y-73447106D01*
X54190873Y-73435575D01*
X54272297Y-73373097D01*
X54361947Y-73256263D01*
X54418304Y-73120207D01*
X54437526Y-72974200D01*
X54436684Y-72967807D01*
X54418305Y-72828199D01*
X54418304Y-72828197D01*
X54418304Y-72828193D01*
X54386556Y-72751547D01*
X54361948Y-72692138D01*
X54298227Y-72609096D01*
X54285710Y-72592784D01*
X54273330Y-72546579D01*
X54291098Y-72510546D01*
X54405541Y-72396104D01*
X54449734Y-72377800D01*
X54582930Y-72377800D01*
X54642748Y-72361771D01*
X54642749Y-72361771D01*
X54702564Y-72345744D01*
X54702562Y-72345744D01*
X54702568Y-72345743D01*
X54809832Y-72283814D01*
X54897414Y-72196232D01*
X55075049Y-72018595D01*
X55111085Y-72000825D01*
X55119607Y-71999704D01*
X55255663Y-71943347D01*
X55372497Y-71853697D01*
X55462147Y-71736863D01*
X55518504Y-71600807D01*
X55522189Y-71572819D01*
X55537726Y-71454801D01*
X55537726Y-71454798D01*
X55518505Y-71308799D01*
X55518504Y-71308797D01*
X55518504Y-71308793D01*
X55462147Y-71172737D01*
X55408226Y-71102466D01*
X55372497Y-71055902D01*
X55255660Y-70966251D01*
X55119610Y-70909897D01*
X55119608Y-70909896D01*
X55119607Y-70909896D01*
X55119605Y-70909895D01*
X55119599Y-70909894D01*
X55028581Y-70897911D01*
X54987154Y-70873993D01*
X54974774Y-70827788D01*
X54975432Y-70823793D01*
X54986800Y-70766649D01*
X54986800Y-70618951D01*
X54957986Y-70474091D01*
X54909899Y-70358000D01*
X54901465Y-70337638D01*
X54901462Y-70337633D01*
X54823080Y-70220326D01*
X54819408Y-70214830D01*
X54714970Y-70110392D01*
X54638938Y-70059589D01*
X54592166Y-70028337D01*
X54592161Y-70028334D01*
X54455710Y-69971814D01*
X54455707Y-69971813D01*
X54310849Y-69943000D01*
X54163151Y-69943000D01*
X54018292Y-69971813D01*
X54018289Y-69971814D01*
X53881838Y-70028334D01*
X53881833Y-70028337D01*
X53759030Y-70110391D01*
X53654593Y-70214828D01*
X53654593Y-70214829D01*
X53654592Y-70214830D01*
X53650920Y-70220326D01*
X53572537Y-70337633D01*
X53572534Y-70337638D01*
X53516014Y-70474089D01*
X53516013Y-70474092D01*
X53487200Y-70618950D01*
X53487200Y-70766649D01*
X53516013Y-70911507D01*
X53516014Y-70911510D01*
X53572534Y-71047961D01*
X53572537Y-71047966D01*
X53638482Y-71146660D01*
X53654592Y-71170770D01*
X53759030Y-71275208D01*
X53881836Y-71357264D01*
X53973911Y-71395403D01*
X54007734Y-71429226D01*
X54007735Y-71477061D01*
X53981243Y-71507270D01*
X53940168Y-71530985D01*
X53940162Y-71530990D01*
X53101968Y-72369186D01*
X53014390Y-72456762D01*
X53014383Y-72456771D01*
X52952458Y-72564028D01*
X52950328Y-72571979D01*
X52950327Y-72571978D01*
X52950327Y-72571982D01*
X52920467Y-72683421D01*
X52920400Y-72683665D01*
X52920400Y-72683671D01*
X52920400Y-73699670D01*
X52920400Y-73823530D01*
X52923214Y-73834032D01*
X52952455Y-73943164D01*
X52952456Y-73943167D01*
X52965936Y-73966514D01*
X52996815Y-74019999D01*
X53014387Y-74050433D01*
X53268386Y-74304432D01*
X53355962Y-74392009D01*
X53355971Y-74392016D01*
X53438619Y-74439734D01*
X53438620Y-74439734D01*
X53463228Y-74453941D01*
X53463229Y-74453941D01*
X53463232Y-74453943D01*
X53463236Y-74453944D01*
X53586562Y-74486990D01*
X53608430Y-74497773D01*
X53616737Y-74504147D01*
X53752793Y-74560504D01*
X53775395Y-74563479D01*
X53816821Y-74587394D01*
X53824980Y-74601526D01*
X53867451Y-74704060D01*
X53867452Y-74704062D01*
X53867453Y-74704063D01*
X53883200Y-74724585D01*
X53957102Y-74820897D01*
X54001625Y-74855060D01*
X54073937Y-74910547D01*
X54091926Y-74917998D01*
X54125750Y-74951823D01*
X54125751Y-74999659D01*
X54106056Y-75025325D01*
X54015903Y-75094502D01*
X53926251Y-75211339D01*
X53869897Y-75347389D01*
X53869894Y-75347399D01*
X53850674Y-75493398D01*
X53850674Y-75493401D01*
X53869894Y-75639400D01*
X53869897Y-75639410D01*
X53926251Y-75775460D01*
X54015902Y-75892297D01*
X54050441Y-75918799D01*
X54132737Y-75981947D01*
X54132738Y-75981947D01*
X54132739Y-75981948D01*
X54164102Y-75994939D01*
X54268793Y-76038304D01*
X54268797Y-76038304D01*
X54268799Y-76038305D01*
X54414798Y-76057526D01*
X54414800Y-76057526D01*
X54414801Y-76057526D01*
X54422642Y-76056493D01*
X54469542Y-76050318D01*
X54515746Y-76062698D01*
X54521894Y-76068089D01*
X54523901Y-76070096D01*
X54581986Y-76114666D01*
X54640737Y-76159747D01*
X54776793Y-76216104D01*
X54776797Y-76216104D01*
X54776799Y-76216105D01*
X54922798Y-76235326D01*
X54922800Y-76235326D01*
X54922802Y-76235326D01*
X55068803Y-76216105D01*
X55068804Y-76216104D01*
X55068807Y-76216104D01*
X55089411Y-76207568D01*
X55137244Y-76207568D01*
X55157523Y-76221117D01*
X55158898Y-76222492D01*
X55158900Y-76222494D01*
X55158903Y-76222497D01*
X55275737Y-76312147D01*
X55275740Y-76312148D01*
X55275741Y-76312149D01*
X55335558Y-76336926D01*
X55411793Y-76368504D01*
X55411797Y-76368504D01*
X55411799Y-76368505D01*
X55557798Y-76387726D01*
X55557800Y-76387726D01*
X55557802Y-76387726D01*
X55703800Y-76368505D01*
X55703800Y-76368504D01*
X55703807Y-76368504D01*
X55839863Y-76312147D01*
X55861267Y-76295722D01*
X55907470Y-76283341D01*
X55923230Y-76287564D01*
X55995993Y-76317704D01*
X55995997Y-76317704D01*
X55995999Y-76317705D01*
X56141998Y-76336926D01*
X56142000Y-76336926D01*
X56142002Y-76336926D01*
X56288000Y-76317705D01*
X56288000Y-76317704D01*
X56288007Y-76317704D01*
X56424063Y-76261347D01*
X56540897Y-76171697D01*
X56630547Y-76054863D01*
X56686904Y-75918807D01*
X56694653Y-75859944D01*
X56718570Y-75818518D01*
X56764775Y-75806137D01*
X56800812Y-75823908D01*
X57737710Y-76760806D01*
X57756016Y-76805000D01*
X57737710Y-76849194D01*
X57693516Y-76867500D01*
X51970628Y-76867500D01*
X51970599Y-76867498D01*
X51966260Y-76867498D01*
X51961994Y-76867498D01*
X51903081Y-76867499D01*
X51895577Y-76867047D01*
X51785819Y-76853774D01*
X51771241Y-76850195D01*
X51671360Y-76812475D01*
X51658056Y-76805525D01*
X51570050Y-76745080D01*
X51558787Y-76735157D01*
X51487731Y-76655471D01*
X51479159Y-76643149D01*
X51429152Y-76548821D01*
X51423765Y-76534811D01*
X51421286Y-76524968D01*
X51397690Y-76431276D01*
X51395799Y-76416398D01*
X51395140Y-76306100D01*
X51395604Y-76298141D01*
X53777887Y-56895996D01*
X55747832Y-56895996D01*
X55747832Y-56896003D01*
X55766432Y-57049196D01*
X55821160Y-57193503D01*
X55854287Y-57241497D01*
X55864326Y-57288267D01*
X55854287Y-57312503D01*
X55821160Y-57360496D01*
X55766432Y-57504803D01*
X55747832Y-57657996D01*
X55747832Y-57658003D01*
X55766432Y-57811196D01*
X55821160Y-57955504D01*
X55908824Y-58082507D01*
X55908827Y-58082510D01*
X56024343Y-58184848D01*
X56160991Y-58256566D01*
X56160992Y-58256566D01*
X56160993Y-58256567D01*
X56310836Y-58293500D01*
X56465164Y-58293500D01*
X56615007Y-58256567D01*
X56751657Y-58184848D01*
X56867173Y-58082510D01*
X56915292Y-58012798D01*
X56954839Y-57955504D01*
X56954839Y-57955503D01*
X56954841Y-57955501D01*
X57009566Y-57811202D01*
X57013071Y-57782337D01*
X57028168Y-57658003D01*
X57028168Y-57657996D01*
X57009567Y-57504803D01*
X57009566Y-57504801D01*
X57009566Y-57504798D01*
X56954841Y-57360499D01*
X56921711Y-57312503D01*
X56911672Y-57265735D01*
X56921710Y-57241497D01*
X56954841Y-57193501D01*
X57009566Y-57049202D01*
X57028168Y-56896000D01*
X57009566Y-56742798D01*
X56954841Y-56598499D01*
X56954839Y-56598497D01*
X56954839Y-56598495D01*
X56867175Y-56471492D01*
X56867171Y-56471488D01*
X56751656Y-56369151D01*
X56615007Y-56297433D01*
X56615010Y-56297433D01*
X56465167Y-56260500D01*
X56465164Y-56260500D01*
X56310836Y-56260500D01*
X56310832Y-56260500D01*
X56160991Y-56297433D01*
X56024343Y-56369151D01*
X55908828Y-56471488D01*
X55908824Y-56471492D01*
X55821160Y-56598495D01*
X55766432Y-56742803D01*
X55747832Y-56895996D01*
X53777887Y-56895996D01*
X54009934Y-55006123D01*
X54033489Y-54964491D01*
X54054354Y-54953776D01*
X54180954Y-54916601D01*
X54180960Y-54916598D01*
X54180964Y-54916597D01*
X54412374Y-54810906D01*
X54412374Y-54810905D01*
X54412378Y-54810904D01*
X54626402Y-54673347D01*
X54760071Y-54557508D01*
X54805455Y-54542401D01*
X54848232Y-54563810D01*
X54863500Y-54604742D01*
X54863500Y-55255805D01*
X54874304Y-55329961D01*
X54874304Y-55329962D01*
X54930221Y-55444342D01*
X54930223Y-55444345D01*
X54986110Y-55500232D01*
X55004416Y-55544426D01*
X54986110Y-55588620D01*
X54965834Y-55602168D01*
X54861339Y-55645451D01*
X54744502Y-55735102D01*
X54654851Y-55851939D01*
X54598497Y-55987989D01*
X54598494Y-55987999D01*
X54579274Y-56133998D01*
X54579274Y-56134001D01*
X54598494Y-56280000D01*
X54598497Y-56280010D01*
X54654851Y-56416060D01*
X54744502Y-56532897D01*
X54813360Y-56585733D01*
X54861337Y-56622547D01*
X54997393Y-56678904D01*
X54997397Y-56678904D01*
X54997399Y-56678905D01*
X55143398Y-56698126D01*
X55143400Y-56698126D01*
X55143402Y-56698126D01*
X55289400Y-56678905D01*
X55289400Y-56678904D01*
X55289407Y-56678904D01*
X55425463Y-56622547D01*
X55542297Y-56532897D01*
X55631947Y-56416063D01*
X55688304Y-56280007D01*
X55707526Y-56134000D01*
X55688304Y-55987993D01*
X55631947Y-55851937D01*
X55588401Y-55795187D01*
X55542297Y-55735102D01*
X55513733Y-55713185D01*
X55489815Y-55671759D01*
X55502195Y-55625553D01*
X55543621Y-55601635D01*
X55551780Y-55601100D01*
X56551206Y-55601100D01*
X56625361Y-55590296D01*
X56739746Y-55534376D01*
X56829776Y-55444346D01*
X56866806Y-55368601D01*
X57995207Y-55368601D01*
X58143767Y-55434745D01*
X58143775Y-55434748D01*
X58326562Y-55473600D01*
X58513438Y-55473600D01*
X58696224Y-55434748D01*
X58696240Y-55434742D01*
X58844791Y-55368602D01*
X58844791Y-55368601D01*
X58420000Y-54943810D01*
X57995207Y-55368601D01*
X56866806Y-55368601D01*
X56885696Y-55329961D01*
X56896500Y-55255806D01*
X56896500Y-54584600D01*
X57526103Y-54584600D01*
X57545637Y-54770454D01*
X57603381Y-54948176D01*
X57603384Y-54948182D01*
X57637726Y-55007661D01*
X58060788Y-54584599D01*
X58018989Y-54542800D01*
X58102500Y-54542800D01*
X58102500Y-54626400D01*
X58124137Y-54707151D01*
X58165937Y-54779550D01*
X58225050Y-54838663D01*
X58297449Y-54880463D01*
X58378200Y-54902100D01*
X58461800Y-54902100D01*
X58542551Y-54880463D01*
X58614950Y-54838663D01*
X58674063Y-54779550D01*
X58715863Y-54707151D01*
X58737500Y-54626400D01*
X58737500Y-54584599D01*
X58779210Y-54584599D01*
X59202273Y-55007662D01*
X59236615Y-54948182D01*
X59236618Y-54948176D01*
X59294362Y-54770454D01*
X59313896Y-54584600D01*
X59294362Y-54398745D01*
X59236618Y-54221023D01*
X59236615Y-54221017D01*
X59202272Y-54161536D01*
X58779210Y-54584599D01*
X58737500Y-54584599D01*
X58737500Y-54542800D01*
X58715863Y-54462049D01*
X58674063Y-54389650D01*
X58614950Y-54330537D01*
X58542551Y-54288737D01*
X58461800Y-54267100D01*
X58378200Y-54267100D01*
X58297449Y-54288737D01*
X58225050Y-54330537D01*
X58165937Y-54389650D01*
X58124137Y-54462049D01*
X58102500Y-54542800D01*
X58018989Y-54542800D01*
X57637726Y-54161537D01*
X57603381Y-54221024D01*
X57545637Y-54398745D01*
X57526103Y-54584600D01*
X56896500Y-54584600D01*
X56896500Y-53913394D01*
X56885696Y-53839239D01*
X56866805Y-53800597D01*
X57995208Y-53800597D01*
X58419999Y-54225388D01*
X58844790Y-53800597D01*
X58696232Y-53734454D01*
X58696224Y-53734451D01*
X58513438Y-53695600D01*
X58326562Y-53695600D01*
X58143775Y-53734451D01*
X58143767Y-53734454D01*
X57995208Y-53800597D01*
X56866805Y-53800597D01*
X56858901Y-53784429D01*
X56829778Y-53724857D01*
X56829776Y-53724854D01*
X56739745Y-53634823D01*
X56739742Y-53634821D01*
X56625361Y-53578904D01*
X56551206Y-53568100D01*
X55380402Y-53568100D01*
X55336208Y-53549794D01*
X55317902Y-53505600D01*
X55318537Y-53496712D01*
X55320549Y-53482701D01*
X55336309Y-53373017D01*
X55336296Y-53245808D01*
X55336296Y-53242809D01*
X55336296Y-50578981D01*
X55354602Y-50534787D01*
X55398796Y-50516481D01*
X76681205Y-50516481D01*
X76725399Y-50534787D01*
G37*
%TD.AperFunction*%
%TA.AperFunction,Conductor*%
G36*
X64904442Y-76358335D02*
G01*
X64909200Y-76382255D01*
X64909200Y-76842866D01*
X64890894Y-76887060D01*
X63922368Y-77855586D01*
X63900852Y-77877102D01*
X63840467Y-77937486D01*
X63796272Y-77955791D01*
X63752079Y-77937485D01*
X63650806Y-77836212D01*
X63632500Y-77792018D01*
X63632500Y-76923816D01*
X63650806Y-76879622D01*
X63695000Y-76861316D01*
X63718918Y-76866073D01*
X63732993Y-76871904D01*
X63781662Y-76878311D01*
X63878998Y-76891126D01*
X63879000Y-76891126D01*
X63879002Y-76891126D01*
X64025000Y-76871905D01*
X64025000Y-76871904D01*
X64025007Y-76871904D01*
X64161063Y-76815547D01*
X64277897Y-76725897D01*
X64367547Y-76609063D01*
X64423904Y-76473007D01*
X64434397Y-76393302D01*
X64458314Y-76351876D01*
X64504519Y-76339495D01*
X64504520Y-76339495D01*
X64642998Y-76357726D01*
X64643000Y-76357726D01*
X64643002Y-76357726D01*
X64789003Y-76338505D01*
X64789004Y-76338504D01*
X64789007Y-76338504D01*
X64822783Y-76324512D01*
X64870616Y-76324512D01*
X64904442Y-76358335D01*
G37*
%TD.AperFunction*%
%TA.AperFunction,Conductor*%
G36*
X60622694Y-67866540D02*
G01*
X64890894Y-72134740D01*
X64909200Y-72178934D01*
X64909200Y-75204944D01*
X64890894Y-75249138D01*
X64846700Y-75267444D01*
X64822782Y-75262686D01*
X64789010Y-75248697D01*
X64789000Y-75248694D01*
X64643002Y-75229474D01*
X64642998Y-75229474D01*
X64496999Y-75248694D01*
X64496993Y-75248696D01*
X64435817Y-75274036D01*
X64387982Y-75274035D01*
X64354157Y-75240210D01*
X64349400Y-75216293D01*
X64349400Y-72605471D01*
X64349398Y-72605463D01*
X64317345Y-72485836D01*
X64317341Y-72485827D01*
X64255416Y-72378571D01*
X64255409Y-72378562D01*
X62339052Y-70462206D01*
X62320746Y-70418012D01*
X62325502Y-70394099D01*
X62343104Y-70351607D01*
X62362326Y-70205600D01*
X62362220Y-70204798D01*
X62343105Y-70059599D01*
X62343104Y-70059597D01*
X62343104Y-70059593D01*
X62286747Y-69923537D01*
X62234646Y-69855638D01*
X62197097Y-69806702D01*
X62107359Y-69737844D01*
X62080263Y-69717053D01*
X62080262Y-69717052D01*
X62080260Y-69717051D01*
X61944210Y-69660697D01*
X61944200Y-69660694D01*
X61798202Y-69641474D01*
X61798198Y-69641474D01*
X61652199Y-69660694D01*
X61652189Y-69660697D01*
X61516139Y-69717051D01*
X61399302Y-69806702D01*
X61309651Y-69923539D01*
X61253297Y-70059589D01*
X61253294Y-70059599D01*
X61234074Y-70205598D01*
X61234074Y-70205601D01*
X61253294Y-70351600D01*
X61253297Y-70351610D01*
X61309650Y-70487658D01*
X61309652Y-70487660D01*
X61309653Y-70487663D01*
X61314884Y-70494480D01*
X61327800Y-70532528D01*
X61327800Y-70648527D01*
X61327801Y-70648535D01*
X61359855Y-70768164D01*
X61359856Y-70768167D01*
X61368137Y-70782510D01*
X61420955Y-70873993D01*
X61421787Y-70875433D01*
X62697160Y-72150806D01*
X62715466Y-72195000D01*
X62697160Y-72239194D01*
X62652966Y-72257500D01*
X61845992Y-72257500D01*
X61763847Y-72266332D01*
X61763844Y-72266332D01*
X61763840Y-72266333D01*
X61734430Y-72272730D01*
X61712318Y-72277541D01*
X61712314Y-72277543D01*
X61644039Y-72299190D01*
X61644038Y-72299190D01*
X61569273Y-72345744D01*
X61541385Y-72363109D01*
X61488581Y-72408864D01*
X61488579Y-72408866D01*
X61422642Y-72482800D01*
X61370843Y-72592064D01*
X61370841Y-72592069D01*
X61351157Y-72659105D01*
X61348758Y-72675789D01*
X61335500Y-72768000D01*
X61335500Y-72768005D01*
X61335500Y-75505366D01*
X61317194Y-75549560D01*
X61273000Y-75567866D01*
X61228806Y-75549560D01*
X60534306Y-74855060D01*
X60516000Y-74810866D01*
X60516000Y-67910734D01*
X60534306Y-67866540D01*
X60578500Y-67848234D01*
X60622694Y-67866540D01*
G37*
%TD.AperFunction*%
%TD*%
%TA.AperFunction,Conductor*%
%TO.N,/Block Diagram/Payload Power Control/VBATT_PROT*%
G36*
X63189039Y-72663685D02*
G01*
X63234794Y-72716489D01*
X63246000Y-72768000D01*
X63246000Y-77978000D01*
X63704481Y-78436481D01*
X63737966Y-78497804D01*
X63740800Y-78524162D01*
X63740800Y-85681832D01*
X63721115Y-85748871D01*
X63668311Y-85794626D01*
X63599153Y-85804570D01*
X63535597Y-85775545D01*
X63534573Y-85774648D01*
X63457257Y-85706152D01*
X63320607Y-85634433D01*
X63320606Y-85634432D01*
X63320605Y-85634432D01*
X63170764Y-85597500D01*
X63016436Y-85597500D01*
X62866594Y-85634432D01*
X62729941Y-85706152D01*
X62614428Y-85808488D01*
X62526760Y-85935497D01*
X62526759Y-85935498D01*
X62472033Y-86079797D01*
X62453432Y-86232999D01*
X62453432Y-86233000D01*
X62472033Y-86386202D01*
X62526759Y-86530501D01*
X62526760Y-86530502D01*
X62614428Y-86657511D01*
X62729941Y-86759847D01*
X62729943Y-86759848D01*
X62866593Y-86831567D01*
X63016436Y-86868500D01*
X63170764Y-86868500D01*
X63320607Y-86831567D01*
X63457257Y-86759848D01*
X63534573Y-86691351D01*
X63597805Y-86661630D01*
X63667069Y-86670813D01*
X63720373Y-86715985D01*
X63740793Y-86782805D01*
X63740800Y-86784167D01*
X63740800Y-86998000D01*
X63721115Y-87065039D01*
X63668311Y-87110794D01*
X63616800Y-87122000D01*
X61846000Y-87122000D01*
X61778961Y-87102315D01*
X61733206Y-87049511D01*
X61722000Y-86998000D01*
X61722000Y-72768000D01*
X61741685Y-72700961D01*
X61794489Y-72655206D01*
X61846000Y-72644000D01*
X63122000Y-72644000D01*
X63189039Y-72663685D01*
G37*
%TD.AperFunction*%
%TD*%
D21*
X62551177Y-89365827D03*
X62558818Y-88223553D03*
X63137596Y-88229283D03*
X62553087Y-88796600D03*
X63139506Y-89373468D03*
X63143326Y-88800420D03*
D22*
X70612000Y-62230000D03*
X67421000Y-75060000D03*
X75819000Y-74650600D03*
D21*
X72125800Y-56515000D03*
D22*
X59436000Y-62230000D03*
X68961000Y-77470000D03*
X67208400Y-79629000D03*
D21*
X66931169Y-83693452D03*
D22*
X54152800Y-73431400D03*
X70104000Y-62230000D03*
X67945000Y-77442000D03*
X67081400Y-91033600D03*
X70612000Y-61722000D03*
X70104000Y-61722000D03*
D21*
X77531000Y-56515000D03*
D22*
X69850000Y-54615600D03*
X58928000Y-62230000D03*
X59436000Y-61722000D03*
D21*
X63500000Y-56642000D03*
D22*
X59766200Y-58216800D03*
X77241400Y-72771000D03*
X57886600Y-64871600D03*
X58928000Y-61722000D03*
X69342000Y-68858000D03*
X74320400Y-72821800D03*
X63909000Y-77343000D03*
X63119000Y-71021000D03*
D21*
X62230000Y-82550000D03*
X62865000Y-82550000D03*
X62103000Y-74295000D03*
X62738000Y-73025000D03*
X62865000Y-81915000D03*
X62103000Y-73025000D03*
X62738000Y-73660000D03*
X62103000Y-73660000D03*
X62230000Y-81915000D03*
X63500000Y-81915000D03*
D22*
X67168000Y-78450000D03*
D21*
X62738000Y-74295000D03*
X63500000Y-82550000D03*
D22*
X61595000Y-58597800D03*
X71374000Y-67181000D03*
X69723000Y-75184000D03*
X75793600Y-72085200D03*
X55608600Y-64469800D03*
X68354000Y-68859400D03*
X67338000Y-81026000D03*
X53873400Y-72974200D03*
X59512200Y-67284600D03*
D21*
X63093600Y-86233000D03*
X75184000Y-58166000D03*
D22*
X70612000Y-63754000D03*
D21*
X56388000Y-57658000D03*
D22*
X61976000Y-63754000D03*
X61468000Y-63754000D03*
D21*
X74422000Y-58166000D03*
X67183000Y-58166000D03*
X75946000Y-58166000D03*
D22*
X70104000Y-63754000D03*
D21*
X76708000Y-58166000D03*
X67945000Y-58166000D03*
D22*
X70612000Y-64262000D03*
D21*
X66421000Y-58166000D03*
D22*
X70104000Y-64262000D03*
X61976000Y-64262000D03*
X61468000Y-64262000D03*
D21*
X69342000Y-70358000D03*
X56388000Y-56896000D03*
X73660000Y-58166000D03*
D22*
X55092600Y-74064400D03*
X54414800Y-75493400D03*
X67919600Y-75666600D03*
X57785000Y-72821800D03*
X57886600Y-74015600D03*
X65265300Y-58508900D03*
X64516000Y-58521600D03*
X75285600Y-74828400D03*
X76327000Y-74828400D03*
X53898800Y-74015600D03*
X67818000Y-78450000D03*
X54973600Y-71454800D03*
X70205600Y-83566000D03*
X65201800Y-82499200D03*
X54356000Y-74422000D03*
X56142000Y-75772800D03*
X69723000Y-74166000D03*
X58902600Y-64871600D03*
X68421000Y-75060000D03*
X55557800Y-75823600D03*
X71374000Y-68224400D03*
X57310400Y-74528200D03*
X54922800Y-75671200D03*
X58343800Y-64363600D03*
X61798200Y-70205600D03*
X63879000Y-76327000D03*
X66624200Y-68351400D03*
X57412000Y-75061600D03*
X64643000Y-75793600D03*
X69723000Y-73154000D03*
X74904600Y-72796400D03*
X76682600Y-72771000D03*
X57683400Y-58064400D03*
X60172600Y-58674000D03*
X62128400Y-58064400D03*
X77927200Y-72263000D03*
X57894600Y-66348200D03*
X55143400Y-56134000D03*
D23*
X68884800Y-92506800D03*
X56515000Y-62204600D03*
X63195200Y-92506800D03*
X68021200Y-95072200D03*
X69824600Y-95072200D03*
X65862200Y-95834200D03*
X65836800Y-94056200D03*
X62255400Y-95072200D03*
X64058800Y-95072200D03*
X69697600Y-88976200D03*
X75565000Y-62204600D03*
X66040000Y-89509600D03*
X55253000Y-65612800D03*
X56269000Y-70692800D03*
X54237000Y-70692800D03*
X55880000Y-54584600D03*
X58420000Y-54584600D03*
X60960000Y-54584600D03*
X63500000Y-54584600D03*
X66040000Y-54584600D03*
X68580000Y-54584600D03*
X71120000Y-54584600D03*
X73660000Y-54584600D03*
X76200000Y-54584600D03*
M02*
