%TF.GenerationSoftware,KiCad,Pcbnew,8.0.3*%
%TF.CreationDate,2024-09-11T14:35:31-04:00*%
%TF.ProjectId,100068622-001_Rev1,31303030-3638-4363-9232-2d3030315f52,1*%
%TF.SameCoordinates,Original*%
%TF.FileFunction,Copper,L4,Bot*%
%TF.FilePolarity,Positive*%
%FSLAX46Y46*%
G04 Gerber Fmt 4.6, Leading zero omitted, Abs format (unit mm)*
G04 Created by KiCad (PCBNEW 8.0.3) date 2024-09-11 14:35:31*
%MOMM*%
%LPD*%
G01*
G04 APERTURE LIST*
G04 Aperture macros list*
%AMRoundRect*
0 Rectangle with rounded corners*
0 $1 Rounding radius*
0 $2 $3 $4 $5 $6 $7 $8 $9 X,Y pos of 4 corners*
0 Add a 4 corners polygon primitive as box body*
4,1,4,$2,$3,$4,$5,$6,$7,$8,$9,$2,$3,0*
0 Add four circle primitives for the rounded corners*
1,1,$1+$1,$2,$3*
1,1,$1+$1,$4,$5*
1,1,$1+$1,$6,$7*
1,1,$1+$1,$8,$9*
0 Add four rect primitives between the rounded corners*
20,1,$1+$1,$2,$3,$4,$5,0*
20,1,$1+$1,$4,$5,$6,$7,0*
20,1,$1+$1,$6,$7,$8,$9,0*
20,1,$1+$1,$8,$9,$2,$3,0*%
%AMFreePoly0*
4,1,18,0.141036,1.228536,0.178536,1.191036,0.180000,1.187500,0.180000,0.000000,0.178536,-0.003536,0.175000,-0.005000,-0.175000,-0.005000,-0.178536,-0.003536,-0.180000,0.000000,-0.180000,0.778000,-0.650000,0.778000,-0.653536,0.779464,-0.655000,0.783000,-0.655000,1.225000,-0.653536,1.228536,-0.650000,1.230000,0.137500,1.230000,0.141036,1.228536,0.141036,1.228536,$1*%
%AMFreePoly1*
4,1,13,-0.462500,0.175000,0.387600,0.175000,0.416263,0.169299,0.440562,0.153062,0.456799,0.128763,0.462500,0.100100,0.462500,-0.100100,0.456799,-0.128763,0.440562,-0.153062,0.416263,-0.169299,0.387600,-0.175000,-0.462500,-0.175000,-0.462500,0.175000,-0.462500,0.175000,$1*%
%AMFreePoly2*
4,1,13,-0.762500,0.150000,0.698300,0.150000,0.722868,0.145113,0.743696,0.131196,0.757613,0.110368,0.762500,0.085800,0.762500,-0.085800,0.757613,-0.110368,0.743696,-0.131196,0.722868,-0.145113,0.698300,-0.150000,-0.762500,-0.150000,-0.762500,0.150000,-0.762500,0.150000,$1*%
%AMFreePoly3*
4,1,27,0.362854,0.275354,0.363000,0.275000,0.363000,0.272553,0.367951,0.272553,0.392951,0.254389,0.402500,0.225000,0.402500,0.195163,0.425336,0.140032,0.467532,0.097836,0.521456,0.075500,0.700000,0.075500,0.700354,0.075354,0.737854,0.037854,0.738000,0.037500,0.738000,-0.240000,0.737854,-0.240354,0.737841,-0.240366,0.700341,-0.275366,0.700000,-0.275500,-0.737500,-0.275500,
-0.737854,-0.275354,-0.738000,-0.275000,-0.738000,0.275000,-0.737854,0.275354,-0.737500,0.275500,0.362500,0.275500,0.362854,0.275354,0.362854,0.275354,$1*%
%AMFreePoly4*
4,1,13,-0.562500,0.200000,0.476900,0.200000,0.509658,0.193484,0.537428,0.174928,0.555984,0.147158,0.562500,0.114400,0.562500,-0.114400,0.555984,-0.147158,0.537428,-0.174928,0.509658,-0.193484,0.476900,-0.200000,-0.562500,-0.200000,-0.562500,0.200000,-0.562500,0.200000,$1*%
%AMFreePoly5*
4,1,29,0.710354,0.975354,0.710500,0.975000,0.710500,0.425208,0.735208,0.400500,1.044792,0.400500,1.069500,0.425208,1.069500,0.975000,1.069646,0.975354,1.070000,0.975500,1.480000,0.975500,1.480354,0.975354,1.480500,0.975000,1.480500,-0.200000,1.480354,-0.200354,1.455354,-0.225354,1.455000,-0.225500,-0.310000,-0.225500,-0.310354,-0.225354,-0.310500,-0.225000,-0.310500,0.225000,
-0.310354,0.225354,-0.310000,0.225500,0.284792,0.225500,0.309500,0.250208,0.309500,0.975000,0.309646,0.975354,0.310000,0.975500,0.710000,0.975500,0.710354,0.975354,0.710354,0.975354,$1*%
%AMFreePoly6*
4,1,20,0.175354,0.312854,0.175500,0.312500,0.175500,-1.187500,0.175354,-1.187854,0.150354,-1.212854,0.150000,-1.213000,-0.045000,-1.213000,-0.045354,-1.212854,-0.070354,-1.187854,-0.070500,-1.187500,-0.070500,-0.325208,-0.082708,-0.313000,-0.175000,-0.313000,-0.175354,-0.312854,-0.175500,-0.312500,-0.175500,0.312500,-0.175354,0.312854,-0.175000,0.313000,0.175000,0.313000,0.175354,0.312854,
0.175354,0.312854,$1*%
%AMFreePoly7*
4,1,20,0.175354,0.312854,0.175500,0.312500,0.175500,-0.312500,0.175354,-0.312854,0.175000,-0.313000,0.082708,-0.313000,0.070500,-0.325208,0.070500,-1.187500,0.070354,-1.187854,0.045354,-1.212854,0.045000,-1.213000,-0.150000,-1.213000,-0.150354,-1.212854,-0.175354,-1.187854,-0.175500,-1.187500,-0.175500,0.312500,-0.175354,0.312854,-0.175000,0.313000,0.175000,0.313000,0.175354,0.312854,
0.175354,0.312854,$1*%
%AMFreePoly8*
4,1,29,-1.069646,0.975354,-1.069500,0.975000,-1.069500,0.425208,-1.044792,0.400500,-0.735208,0.400500,-0.710500,0.425208,-0.710500,0.975000,-0.710354,0.975354,-0.710000,0.975500,-0.310000,0.975500,-0.309646,0.975354,-0.309500,0.975000,-0.309500,0.250208,-0.284792,0.225500,0.310000,0.225500,0.310354,0.225354,0.310500,0.225000,0.310500,-0.225000,0.310354,-0.225354,0.310000,-0.225500,
-1.455000,-0.225500,-1.455354,-0.225354,-1.480354,-0.200354,-1.480500,-0.200000,-1.480500,0.975000,-1.480354,0.975354,-1.480000,0.975500,-1.070000,0.975500,-1.069646,0.975354,-1.069646,0.975354,$1*%
%AMFreePoly9*
4,1,26,0.737854,0.275354,0.738000,0.275000,0.738000,-0.275000,0.737854,-0.275354,0.737500,-0.275500,-0.700000,-0.275500,-0.700341,-0.275366,-0.737841,-0.240366,-0.738000,-0.240017,-0.738000,0.037500,-0.737854,0.037854,-0.700354,0.075354,-0.700000,0.075500,-0.521456,0.075500,-0.467532,0.097836,-0.425336,0.140032,-0.402500,0.195163,-0.402500,0.225000,-0.392951,0.254389,-0.367951,0.272553,
-0.363000,0.272553,-0.363000,0.275000,-0.362854,0.275354,-0.362500,0.275500,0.737500,0.275500,0.737854,0.275354,0.737854,0.275354,$1*%
%AMFreePoly10*
4,1,18,0.653536,1.228536,0.655000,1.225000,0.655000,0.783000,0.653536,0.779464,0.650000,0.778000,0.180000,0.778000,0.180000,0.000000,0.178536,-0.003536,0.175000,-0.005000,-0.175000,-0.005000,-0.178536,-0.003536,-0.180000,0.000000,-0.180000,1.187500,-0.178536,1.191036,-0.141036,1.228536,-0.137500,1.230000,0.650000,1.230000,0.653536,1.228536,0.653536,1.228536,$1*%
%AMFreePoly11*
4,1,13,-0.150000,0.462500,-0.144291,0.491201,-0.128033,0.515533,-0.103701,0.531791,-0.075000,0.537500,0.075000,0.537500,0.103701,0.531791,0.128033,0.515533,0.144291,0.491201,0.150000,0.462500,0.150000,-0.537500,-0.150000,-0.537500,-0.150000,0.462500,-0.150000,0.462500,$1*%
%AMFreePoly12*
4,1,32,0.026306,0.537895,0.150306,0.441895,0.150496,0.441563,0.150500,0.441500,0.150500,0.250000,0.150354,0.249646,0.150000,0.249500,0.150000,-0.037000,0.150354,-0.037146,0.150500,-0.037500,0.150500,-0.537500,0.150354,-0.537854,0.150000,-0.538000,-0.150000,-0.538000,-0.150354,-0.537854,-0.150500,-0.537500,-0.150500,-0.037500,-0.150354,-0.037146,-0.150000,-0.037000,-0.150000,0.249500,
-0.150354,0.249646,-0.150500,0.250000,-0.150500,0.462600,-0.150354,0.462954,-0.150352,0.462954,-0.136081,0.506878,-0.098331,0.534305,-0.078907,0.534305,-0.075353,0.537854,-0.075000,0.538000,0.026000,0.538000,0.026306,0.537895,0.026306,0.537895,$1*%
%AMFreePoly13*
4,1,32,0.075353,0.537854,0.078907,0.534305,0.098331,0.534305,0.136081,0.506878,0.150352,0.462954,0.150353,0.462954,0.150500,0.462600,0.150500,0.250000,0.150354,0.249646,0.150000,0.249500,0.150000,-0.037000,0.150354,-0.037146,0.150500,-0.037500,0.150500,-0.537500,0.150354,-0.537854,0.150000,-0.538000,-0.150000,-0.538000,-0.150354,-0.537854,-0.150500,-0.537500,-0.150500,-0.037500,
-0.150354,-0.037146,-0.150000,-0.037000,-0.150000,0.249500,-0.150354,0.249646,-0.150500,0.250000,-0.150500,0.441500,-0.150354,0.441854,-0.150306,0.441895,-0.026306,0.537895,-0.026000,0.538000,0.075000,0.538000,0.075353,0.537854,0.075353,0.537854,$1*%
%AMFreePoly14*
4,1,37,1.185354,0.400354,1.185500,0.400000,1.185500,-1.750000,1.185354,-1.750354,1.185000,-1.750500,0.765000,-1.750500,0.764646,-1.750354,0.764500,-1.750000,0.764500,-1.300500,0.535500,-1.300500,0.535500,-1.750000,0.535354,-1.750354,0.535000,-1.750500,0.115000,-1.750500,0.114646,-1.750354,0.114500,-1.750000,0.114500,-1.300500,-0.114500,-1.300500,-0.114500,-1.750000,-0.114646,-1.750354,
-0.115000,-1.750500,-0.535000,-1.750500,-0.535354,-1.750354,-0.535500,-1.750000,-0.535500,-1.300500,-0.764500,-1.300500,-0.764500,-1.750000,-0.764646,-1.750354,-0.765000,-1.750500,-1.185000,-1.750500,-1.185354,-1.750354,-1.185500,-1.750000,-1.185500,0.400000,-1.185354,0.400354,-1.185000,0.400500,1.185000,0.400500,1.185354,0.400354,1.185354,0.400354,$1*%
G04 Aperture macros list end*
%ADD10C,0.254000*%
%TA.AperFunction,NonConductor*%
%ADD11C,0.254000*%
%TD*%
%TA.AperFunction,EtchedComponent*%
%ADD12C,0.254000*%
%TD*%
%TA.AperFunction,SMDPad,CuDef*%
%ADD13RoundRect,0.140000X0.140000X0.170000X-0.140000X0.170000X-0.140000X-0.170000X0.140000X-0.170000X0*%
%TD*%
%TA.AperFunction,SMDPad,CuDef*%
%ADD14RoundRect,0.140000X-0.140000X-0.170000X0.140000X-0.170000X0.140000X0.170000X-0.140000X0.170000X0*%
%TD*%
%TA.AperFunction,SMDPad,CuDef*%
%ADD15RoundRect,0.250000X0.250000X0.475000X-0.250000X0.475000X-0.250000X-0.475000X0.250000X-0.475000X0*%
%TD*%
%TA.AperFunction,ComponentPad*%
%ADD16R,1.625600X1.625600*%
%TD*%
%TA.AperFunction,SMDPad,CuDef*%
%ADD17RoundRect,0.250000X-0.250000X-0.475000X0.250000X-0.475000X0.250000X0.475000X-0.250000X0.475000X0*%
%TD*%
%TA.AperFunction,SMDPad,CuDef*%
%ADD18RoundRect,0.140000X0.170000X-0.140000X0.170000X0.140000X-0.170000X0.140000X-0.170000X-0.140000X0*%
%TD*%
%TA.AperFunction,SMDPad,CuDef*%
%ADD19R,1.300000X1.400000*%
%TD*%
%TA.AperFunction,SMDPad,CuDef*%
%ADD20FreePoly0,180.000000*%
%TD*%
%TA.AperFunction,SMDPad,CuDef*%
%ADD21FreePoly1,180.000000*%
%TD*%
%TA.AperFunction,SMDPad,CuDef*%
%ADD22FreePoly2,180.000000*%
%TD*%
%TA.AperFunction,SMDPad,CuDef*%
%ADD23FreePoly3,180.000000*%
%TD*%
%TA.AperFunction,SMDPad,CuDef*%
%ADD24FreePoly4,180.000000*%
%TD*%
%TA.AperFunction,SMDPad,CuDef*%
%ADD25FreePoly5,180.000000*%
%TD*%
%TA.AperFunction,SMDPad,CuDef*%
%ADD26FreePoly6,180.000000*%
%TD*%
%TA.AperFunction,SMDPad,CuDef*%
%ADD27FreePoly7,180.000000*%
%TD*%
%TA.AperFunction,SMDPad,CuDef*%
%ADD28FreePoly8,180.000000*%
%TD*%
%TA.AperFunction,SMDPad,CuDef*%
%ADD29FreePoly4,0.000000*%
%TD*%
%TA.AperFunction,SMDPad,CuDef*%
%ADD30FreePoly9,180.000000*%
%TD*%
%TA.AperFunction,SMDPad,CuDef*%
%ADD31FreePoly2,0.000000*%
%TD*%
%TA.AperFunction,SMDPad,CuDef*%
%ADD32FreePoly1,0.000000*%
%TD*%
%TA.AperFunction,SMDPad,CuDef*%
%ADD33FreePoly10,180.000000*%
%TD*%
%TA.AperFunction,SMDPad,CuDef*%
%ADD34FreePoly11,180.000000*%
%TD*%
%TA.AperFunction,SMDPad,CuDef*%
%ADD35FreePoly12,180.000000*%
%TD*%
%TA.AperFunction,SMDPad,CuDef*%
%ADD36FreePoly13,180.000000*%
%TD*%
%TA.AperFunction,SMDPad,CuDef*%
%ADD37R,0.700000X0.420000*%
%TD*%
%TA.AperFunction,SMDPad,CuDef*%
%ADD38FreePoly14,270.000000*%
%TD*%
%TA.AperFunction,SMDPad,CuDef*%
%ADD39RoundRect,0.050000X-0.125000X-0.050000X0.125000X-0.050000X0.125000X0.050000X-0.125000X0.050000X0*%
%TD*%
%TA.AperFunction,SMDPad,CuDef*%
%ADD40RoundRect,0.050000X-0.100000X-0.050000X0.100000X-0.050000X0.100000X0.050000X-0.100000X0.050000X0*%
%TD*%
%TA.AperFunction,SMDPad,CuDef*%
%ADD41R,0.450000X0.400000*%
%TD*%
%TA.AperFunction,SMDPad,CuDef*%
%ADD42R,1.120000X1.720000*%
%TD*%
%TA.AperFunction,SMDPad,CuDef*%
%ADD43R,0.350000X0.480000*%
%TD*%
%TA.AperFunction,SMDPad,CuDef*%
%ADD44R,1.650000X0.950000*%
%TD*%
%TA.AperFunction,SMDPad,CuDef*%
%ADD45RoundRect,0.135000X0.135000X0.185000X-0.135000X0.185000X-0.135000X-0.185000X0.135000X-0.185000X0*%
%TD*%
%TA.AperFunction,SMDPad,CuDef*%
%ADD46R,0.980000X3.400000*%
%TD*%
%TA.AperFunction,SMDPad,CuDef*%
%ADD47R,0.250000X0.400000*%
%TD*%
%TA.AperFunction,SMDPad,CuDef*%
%ADD48R,0.700000X0.400000*%
%TD*%
%TA.AperFunction,SMDPad,CuDef*%
%ADD49C,1.016000*%
%TD*%
%TA.AperFunction,SMDPad,CuDef*%
%ADD50RoundRect,0.135000X-0.135000X-0.185000X0.135000X-0.185000X0.135000X0.185000X-0.135000X0.185000X0*%
%TD*%
%TA.AperFunction,SMDPad,CuDef*%
%ADD51C,0.050800*%
%TD*%
%TA.AperFunction,SMDPad,CuDef*%
%ADD52RoundRect,0.150000X0.587500X0.150000X-0.587500X0.150000X-0.587500X-0.150000X0.587500X-0.150000X0*%
%TD*%
%TA.AperFunction,SMDPad,CuDef*%
%ADD53RoundRect,0.148167X-0.296333X-0.423333X0.296333X-0.423333X0.296333X0.423333X-0.296333X0.423333X0*%
%TD*%
%TA.AperFunction,SMDPad,CuDef*%
%ADD54RoundRect,0.161290X-0.283210X-0.219710X0.283210X-0.219710X0.283210X0.219710X-0.283210X0.219710X0*%
%TD*%
%TA.AperFunction,SMDPad,CuDef*%
%ADD55RoundRect,0.127000X-0.317500X-0.254000X0.317500X-0.254000X0.317500X0.254000X-0.317500X0.254000X0*%
%TD*%
%TA.AperFunction,SMDPad,CuDef*%
%ADD56RoundRect,0.135000X0.185000X-0.135000X0.185000X0.135000X-0.185000X0.135000X-0.185000X-0.135000X0*%
%TD*%
%TA.AperFunction,SMDPad,CuDef*%
%ADD57RoundRect,0.100000X-0.287500X-0.100000X0.287500X-0.100000X0.287500X0.100000X-0.287500X0.100000X0*%
%TD*%
%TA.AperFunction,HeatsinkPad*%
%ADD58R,1.500000X2.300000*%
%TD*%
%TA.AperFunction,SMDPad,CuDef*%
%ADD59RoundRect,0.135000X-0.185000X0.135000X-0.185000X-0.135000X0.185000X-0.135000X0.185000X0.135000X0*%
%TD*%
%TA.AperFunction,SMDPad,CuDef*%
%ADD60R,0.800000X1.600000*%
%TD*%
%TA.AperFunction,ComponentPad*%
%ADD61C,1.625600*%
%TD*%
%TA.AperFunction,SMDPad,CuDef*%
%ADD62R,1.778000X3.810000*%
%TD*%
%TA.AperFunction,ViaPad*%
%ADD63C,0.355600*%
%TD*%
%TA.AperFunction,Conductor*%
%ADD64C,0.177800*%
%TD*%
%TA.AperFunction,Conductor*%
%ADD65C,0.254000*%
%TD*%
%TA.AperFunction,Conductor*%
%ADD66C,0.508000*%
%TD*%
%TA.AperFunction,Conductor*%
%ADD67C,0.381000*%
%TD*%
%ADD68C,0.152400*%
%ADD69C,0.350000*%
G04 APERTURE END LIST*
D10*
D11*
X61286571Y-61559052D02*
X61576857Y-61655814D01*
X61576857Y-61655814D02*
X61673619Y-61752576D01*
X61673619Y-61752576D02*
X61770381Y-61946100D01*
X61770381Y-61946100D02*
X61770381Y-62236386D01*
X61770381Y-62236386D02*
X61673619Y-62429910D01*
X61673619Y-62429910D02*
X61576857Y-62526672D01*
X61576857Y-62526672D02*
X61383333Y-62623433D01*
X61383333Y-62623433D02*
X60609238Y-62623433D01*
X60609238Y-62623433D02*
X60609238Y-60591433D01*
X60609238Y-60591433D02*
X61286571Y-60591433D01*
X61286571Y-60591433D02*
X61480095Y-60688195D01*
X61480095Y-60688195D02*
X61576857Y-60784957D01*
X61576857Y-60784957D02*
X61673619Y-60978481D01*
X61673619Y-60978481D02*
X61673619Y-61172005D01*
X61673619Y-61172005D02*
X61576857Y-61365529D01*
X61576857Y-61365529D02*
X61480095Y-61462291D01*
X61480095Y-61462291D02*
X61286571Y-61559052D01*
X61286571Y-61559052D02*
X60609238Y-61559052D01*
X62544476Y-62042862D02*
X63512095Y-62042862D01*
X62350952Y-62623433D02*
X63028286Y-60591433D01*
X63028286Y-60591433D02*
X63705619Y-62623433D01*
X65544095Y-62429910D02*
X65447333Y-62526672D01*
X65447333Y-62526672D02*
X65157047Y-62623433D01*
X65157047Y-62623433D02*
X64963523Y-62623433D01*
X64963523Y-62623433D02*
X64673238Y-62526672D01*
X64673238Y-62526672D02*
X64479714Y-62333148D01*
X64479714Y-62333148D02*
X64382952Y-62139624D01*
X64382952Y-62139624D02*
X64286190Y-61752576D01*
X64286190Y-61752576D02*
X64286190Y-61462291D01*
X64286190Y-61462291D02*
X64382952Y-61075243D01*
X64382952Y-61075243D02*
X64479714Y-60881719D01*
X64479714Y-60881719D02*
X64673238Y-60688195D01*
X64673238Y-60688195D02*
X64963523Y-60591433D01*
X64963523Y-60591433D02*
X65157047Y-60591433D01*
X65157047Y-60591433D02*
X65447333Y-60688195D01*
X65447333Y-60688195D02*
X65544095Y-60784957D01*
X66414952Y-62623433D02*
X66414952Y-60591433D01*
X67576095Y-62623433D02*
X66705238Y-61462291D01*
X67576095Y-60591433D02*
X66414952Y-61752576D01*
X71156285Y-62429910D02*
X71059523Y-62526672D01*
X71059523Y-62526672D02*
X70769237Y-62623433D01*
X70769237Y-62623433D02*
X70575713Y-62623433D01*
X70575713Y-62623433D02*
X70285428Y-62526672D01*
X70285428Y-62526672D02*
X70091904Y-62333148D01*
X70091904Y-62333148D02*
X69995142Y-62139624D01*
X69995142Y-62139624D02*
X69898380Y-61752576D01*
X69898380Y-61752576D02*
X69898380Y-61462291D01*
X69898380Y-61462291D02*
X69995142Y-61075243D01*
X69995142Y-61075243D02*
X70091904Y-60881719D01*
X70091904Y-60881719D02*
X70285428Y-60688195D01*
X70285428Y-60688195D02*
X70575713Y-60591433D01*
X70575713Y-60591433D02*
X70769237Y-60591433D01*
X70769237Y-60591433D02*
X71059523Y-60688195D01*
X71059523Y-60688195D02*
X71156285Y-60784957D01*
X72414190Y-60591433D02*
X72801237Y-60591433D01*
X72801237Y-60591433D02*
X72994761Y-60688195D01*
X72994761Y-60688195D02*
X73188285Y-60881719D01*
X73188285Y-60881719D02*
X73285047Y-61268767D01*
X73285047Y-61268767D02*
X73285047Y-61946100D01*
X73285047Y-61946100D02*
X73188285Y-62333148D01*
X73188285Y-62333148D02*
X72994761Y-62526672D01*
X72994761Y-62526672D02*
X72801237Y-62623433D01*
X72801237Y-62623433D02*
X72414190Y-62623433D01*
X72414190Y-62623433D02*
X72220666Y-62526672D01*
X72220666Y-62526672D02*
X72027142Y-62333148D01*
X72027142Y-62333148D02*
X71930380Y-61946100D01*
X71930380Y-61946100D02*
X71930380Y-61268767D01*
X71930380Y-61268767D02*
X72027142Y-60881719D01*
X72027142Y-60881719D02*
X72220666Y-60688195D01*
X72220666Y-60688195D02*
X72414190Y-60591433D01*
X74155904Y-62623433D02*
X74155904Y-60591433D01*
X74155904Y-60591433D02*
X74929999Y-60591433D01*
X74929999Y-60591433D02*
X75123523Y-60688195D01*
X75123523Y-60688195D02*
X75220285Y-60784957D01*
X75220285Y-60784957D02*
X75317047Y-60978481D01*
X75317047Y-60978481D02*
X75317047Y-61268767D01*
X75317047Y-61268767D02*
X75220285Y-61462291D01*
X75220285Y-61462291D02*
X75123523Y-61559052D01*
X75123523Y-61559052D02*
X74929999Y-61655814D01*
X74929999Y-61655814D02*
X74155904Y-61655814D01*
X76187904Y-62623433D02*
X76187904Y-60591433D01*
X76187904Y-60591433D02*
X76961999Y-60591433D01*
X76961999Y-60591433D02*
X77155523Y-60688195D01*
X77155523Y-60688195D02*
X77252285Y-60784957D01*
X77252285Y-60784957D02*
X77349047Y-60978481D01*
X77349047Y-60978481D02*
X77349047Y-61268767D01*
X77349047Y-61268767D02*
X77252285Y-61462291D01*
X77252285Y-61462291D02*
X77155523Y-61559052D01*
X77155523Y-61559052D02*
X76961999Y-61655814D01*
X76961999Y-61655814D02*
X76187904Y-61655814D01*
X78219904Y-61559052D02*
X78897237Y-61559052D01*
X79187523Y-62623433D02*
X78219904Y-62623433D01*
X78219904Y-62623433D02*
X78219904Y-60591433D01*
X78219904Y-60591433D02*
X79187523Y-60591433D01*
X81219523Y-62623433D02*
X80542190Y-61655814D01*
X80058380Y-62623433D02*
X80058380Y-60591433D01*
X80058380Y-60591433D02*
X80832475Y-60591433D01*
X80832475Y-60591433D02*
X81025999Y-60688195D01*
X81025999Y-60688195D02*
X81122761Y-60784957D01*
X81122761Y-60784957D02*
X81219523Y-60978481D01*
X81219523Y-60978481D02*
X81219523Y-61268767D01*
X81219523Y-61268767D02*
X81122761Y-61462291D01*
X81122761Y-61462291D02*
X81025999Y-61559052D01*
X81025999Y-61559052D02*
X80832475Y-61655814D01*
X80832475Y-61655814D02*
X80058380Y-61655814D01*
D12*
%TO.C,NT1*%
X56692800Y-29616400D02*
X56946800Y-29616400D01*
%TD*%
D13*
%TO.P,C4,1*%
%TO.N,VBATT_PROT*%
X56842600Y-36245800D03*
%TO.P,C4,2*%
%TO.N,GND*%
X55882600Y-36245800D03*
%TD*%
D14*
%TO.P,C7,1*%
%TO.N,VBATT_PROT*%
X57813000Y-36245800D03*
%TO.P,C7,2*%
%TO.N,GND*%
X58773000Y-36245800D03*
%TD*%
D15*
%TO.P,C1,1*%
%TO.N,VBATT_PROT*%
X56525200Y-37693600D03*
%TO.P,C1,2*%
%TO.N,GND*%
X54625200Y-37693600D03*
%TD*%
D16*
%TO.P,P5,1,1*%
%TO.N,/Block Diagram/VBATT*%
X86360000Y-39878000D03*
%TD*%
D13*
%TO.P,C2,1*%
%TO.N,Net-(U3-EXTVCC)*%
X58569800Y-28676600D03*
%TO.P,C2,2*%
%TO.N,GND*%
X57609800Y-28676600D03*
%TD*%
D16*
%TO.P,P2,1,1*%
%TO.N,GND*%
X68580000Y-40995600D03*
%TD*%
D15*
%TO.P,C3,1*%
%TO.N,VBATT_PROT*%
X53909000Y-42062400D03*
%TO.P,C3,2*%
%TO.N,GND*%
X52009000Y-42062400D03*
%TD*%
D17*
%TO.P,C19,1*%
%TO.N,/Block Diagram/VOUT2*%
X66893400Y-34340800D03*
%TO.P,C19,2*%
%TO.N,GND*%
X68793400Y-34340800D03*
%TD*%
D18*
%TO.P,C11,1*%
%TO.N,Net-(U3-LX2)*%
X61290200Y-33373000D03*
%TO.P,C11,2*%
%TO.N,Net-(U3-BST2)*%
X61290200Y-32413000D03*
%TD*%
D19*
%TO.P,D2,1,K*%
%TO.N,/Block Diagram/DETECT*%
X81328600Y-37871400D03*
%TO.P,D2,2,A*%
%TO.N,GND*%
X84228600Y-37871400D03*
%TD*%
D18*
%TO.P,C8,1*%
%TO.N,/Block Diagram/Power Supplies/P3V3_AUX*%
X50342800Y-40511200D03*
%TO.P,C8,2*%
%TO.N,GND*%
X50342800Y-39551200D03*
%TD*%
D20*
%TO.P,U3,1,SYNC*%
%TO.N,GNDA*%
X59847800Y-30403800D03*
D21*
%TO.P,U3,2,EN2*%
%TO.N,VBATT_PROT*%
X60040300Y-32043800D03*
D22*
%TO.P,U3,3,BST2*%
%TO.N,Net-(U3-BST2)*%
X59740300Y-32593800D03*
D23*
%TO.P,U3,4,LX2*%
%TO.N,Net-(U3-LX2)*%
X59765300Y-33218800D03*
D24*
%TO.P,U3,5,NC*%
%TO.N,unconnected-(U3-NC-Pad5)*%
X59940300Y-33893800D03*
D25*
%TO.P,U3,6,PGND2*%
%TO.N,GND*%
X60192800Y-34518800D03*
D26*
%TO.P,U3,7,SUP2*%
%TO.N,VBATT_PROT*%
X57602800Y-35181300D03*
D27*
%TO.P,U3,8,SUP1*%
X57052800Y-35181300D03*
D28*
%TO.P,U3,9,PGND1*%
%TO.N,GND*%
X54462800Y-34518800D03*
D29*
%TO.P,U3,10,NC*%
%TO.N,unconnected-(U3-NC-Pad10)*%
X54715300Y-33893800D03*
D30*
%TO.P,U3,11,LX1*%
%TO.N,Net-(U3-LX1)*%
X54890300Y-33218800D03*
D31*
%TO.P,U3,12,BST1*%
%TO.N,Net-(U3-BST1)*%
X54915300Y-32593800D03*
D32*
%TO.P,U3,13,EN1*%
%TO.N,VBATT_PROT*%
X54615300Y-32043800D03*
D33*
%TO.P,U3,14,SYNCOUT*%
%TO.N,unconnected-(U3-SYNCOUT-Pad14)*%
X54807800Y-30403800D03*
D34*
%TO.P,U3,15,PGOOD1*%
%TO.N,/Block Diagram/PGOOD1*%
X55327800Y-30943800D03*
%TO.P,U3,16,OUT1/FB1*%
%TO.N,Net-(JP1-A)*%
X55827800Y-30943800D03*
D35*
%TO.P,U3,17,TEMP*%
%TO.N,unconnected-(U3-TEMP-Pad17)*%
X56327800Y-30943800D03*
D34*
%TO.P,U3,18,VEA*%
%TO.N,unconnected-(U3-VEA-Pad18)*%
X56827800Y-30943800D03*
%TO.P,U3,19,AGND*%
%TO.N,GNDA*%
X57327800Y-30943800D03*
%TO.P,U3,20,BIAS*%
%TO.N,Net-(U3-BIAS)*%
X57827800Y-30943800D03*
D36*
%TO.P,U3,21,EXTVCC*%
%TO.N,Net-(U3-EXTVCC)*%
X58327800Y-30943800D03*
D34*
%TO.P,U3,22,OUT2/FB2*%
%TO.N,Net-(JP2-A)*%
X58827800Y-30943800D03*
%TO.P,U3,23,PGOOD2*%
%TO.N,/Block Diagram/PGOOD2*%
X59327800Y-30943800D03*
%TD*%
D14*
%TO.P,C20,1*%
%TO.N,/Block Diagram/DETECT*%
X82247800Y-36347400D03*
%TO.P,C20,2*%
%TO.N,GND*%
X83207800Y-36347400D03*
%TD*%
D13*
%TO.P,C5,1*%
%TO.N,Net-(U3-BIAS)*%
X57757000Y-29616400D03*
%TO.P,C5,2*%
%TO.N,GNDA*%
X56797000Y-29616400D03*
%TD*%
D16*
%TO.P,P1,1,1*%
%TO.N,/Block Diagram/VBATT*%
X66040000Y-39878000D03*
%TD*%
D37*
%TO.P,Q1,1,S*%
%TO.N,/Block Diagram/VBATT*%
X62207600Y-40630200D03*
%TO.P,Q1,2,S*%
X62207600Y-41280200D03*
%TO.P,Q1,3,S*%
X62207600Y-41930200D03*
%TO.P,Q1,4,G*%
%TO.N,Net-(Q1-G)*%
X62207600Y-42580200D03*
D38*
%TO.P,Q1,5,D*%
%TO.N,VBATT_PROT*%
X60807600Y-41605200D03*
%TD*%
D39*
%TO.P,U7,1,1A*%
%TO.N,Net-(U6-~{RESET})*%
X48518400Y-38066600D03*
D40*
%TO.P,U7,2,GND*%
%TO.N,GND*%
X48493400Y-37566600D03*
%TO.P,U7,3,2A*%
%TO.N,/Block Diagram/Data Switches/RESET*%
X48493400Y-37066600D03*
%TO.P,U7,4,2Y*%
%TO.N,Net-(U7-2Y)*%
X49093400Y-37066600D03*
%TO.P,U7,5,VCC*%
%TO.N,/Block Diagram/Power Supplies/P3V3_AUX*%
X49093400Y-37566600D03*
%TO.P,U7,6,1Y*%
%TO.N,/Block Diagram/Data Switches/RESET*%
X49093400Y-38066600D03*
%TD*%
D14*
%TO.P,C12,1*%
%TO.N,/Block Diagram/VOUT1*%
X55755600Y-28676600D03*
%TO.P,C12,2*%
%TO.N,Net-(JP1-A)*%
X56715600Y-28676600D03*
%TD*%
D15*
%TO.P,C14,1*%
%TO.N,/Block Diagram/VOUT1*%
X47813000Y-30378400D03*
%TO.P,C14,2*%
%TO.N,GND*%
X45913000Y-30378400D03*
%TD*%
D18*
%TO.P,C10,1*%
%TO.N,Net-(U3-LX1)*%
X53365400Y-33398400D03*
%TO.P,C10,2*%
%TO.N,Net-(U3-BST1)*%
X53365400Y-32438400D03*
%TD*%
D19*
%TO.P,D1,1,K*%
%TO.N,/Block Diagram/VBATT*%
X65883800Y-37515800D03*
%TO.P,D1,2,A*%
%TO.N,GND*%
X68783800Y-37515800D03*
%TD*%
D41*
%TO.P,U2,1,OUT*%
%TO.N,/Block Diagram/Power Supplies/P3V3_AUX*%
X51221200Y-40706600D03*
%TO.P,U2,2,NC*%
%TO.N,unconnected-(U2-NC-Pad2)*%
X51221200Y-40056600D03*
%TO.P,U2,3,GND*%
%TO.N,GND*%
X51221200Y-39406600D03*
%TO.P,U2,4,EN*%
%TO.N,VBATT_PROT*%
X53071200Y-39406600D03*
%TO.P,U2,5,PG*%
%TO.N,unconnected-(U2-PG-Pad5)*%
X53071200Y-40056600D03*
%TO.P,U2,6,IN*%
%TO.N,VBATT_PROT*%
X53071200Y-40706600D03*
D42*
%TO.P,U2,7,EP*%
%TO.N,GND*%
X52146200Y-40056600D03*
%TD*%
D17*
%TO.P,C16,1*%
%TO.N,/Block Diagram/VOUT2*%
X66893400Y-30378400D03*
%TO.P,C16,2*%
%TO.N,GND*%
X68793400Y-30378400D03*
%TD*%
D15*
%TO.P,C17,1*%
%TO.N,/Block Diagram/VOUT1*%
X47813000Y-34340800D03*
%TO.P,C17,2*%
%TO.N,GND*%
X45913000Y-34340800D03*
%TD*%
D43*
%TO.P,U5,1,S*%
%TO.N,/Block Diagram/VBATT*%
X62803800Y-39213200D03*
%TO.P,U5,2,G*%
%TO.N,Net-(Q1-G)*%
X62153800Y-39213200D03*
%TO.P,U5,3,D*%
%TO.N,VBATT_PROT*%
X61503800Y-39213200D03*
%TO.P,U5,4,EN*%
%TO.N,/Block Diagram/VBATT*%
X61503800Y-37393200D03*
%TO.P,U5,5,GND*%
%TO.N,GND*%
X62153800Y-37393200D03*
%TO.P,U5,6,IN*%
%TO.N,/Block Diagram/VBATT*%
X62803800Y-37393200D03*
D44*
%TO.P,U5,7,EP*%
%TO.N,GND*%
X62153800Y-38303200D03*
%TD*%
D45*
%TO.P,R14,1*%
%TO.N,/Block Diagram/VBATT*%
X63019400Y-46659800D03*
%TO.P,R14,2*%
%TO.N,GND*%
X61999400Y-46659800D03*
%TD*%
D46*
%TO.P,L1,1,1*%
%TO.N,Net-(U3-LX1)*%
X51883400Y-33223200D03*
%TO.P,L1,2,2*%
%TO.N,/Block Diagram/VOUT1*%
X49513400Y-33223200D03*
%TD*%
D16*
%TO.P,P4,1,1*%
%TO.N,GND*%
X83820000Y-40995600D03*
%TD*%
D15*
%TO.P,C15,1*%
%TO.N,/Block Diagram/VOUT1*%
X47813000Y-32359600D03*
%TO.P,C15,2*%
%TO.N,GND*%
X45913000Y-32359600D03*
%TD*%
D18*
%TO.P,C9,1*%
%TO.N,/Block Diagram/Power Supplies/P3V3_AUX*%
X49377600Y-40511200D03*
%TO.P,C9,2*%
%TO.N,GND*%
X49377600Y-39551200D03*
%TD*%
D46*
%TO.P,L2,1,1*%
%TO.N,Net-(U3-LX2)*%
X62823000Y-33223200D03*
%TO.P,L2,2,2*%
%TO.N,/Block Diagram/VOUT2*%
X65193000Y-33223200D03*
%TD*%
D47*
%TO.P,U1,1,K1*%
%TO.N,/Block Diagram/USB_D-*%
X72640400Y-39313600D03*
%TO.P,U1,2,K2*%
%TO.N,/Block Diagram/USB_D+*%
X72190400Y-39313600D03*
D48*
%TO.P,U1,3,A*%
%TO.N,GND*%
X72415400Y-38613600D03*
%TD*%
D49*
%TO.P,FID2,*%
%TO.N,*%
X40894000Y-29210000D03*
%TD*%
%TO.P,FID6,*%
%TO.N,*%
X40894000Y-46990000D03*
%TD*%
D50*
%TO.P,R1,1*%
%TO.N,/Block Diagram/PGOOD2*%
X60958000Y-29641800D03*
%TO.P,R1,2*%
%TO.N,/Block Diagram/Power Supplies/P3V3_AUX*%
X61978000Y-29641800D03*
%TD*%
D51*
%TO.P,NT1,1,1*%
%TO.N,GNDA*%
X56946800Y-29616400D03*
%TO.P,NT1,2,2*%
%TO.N,GND*%
X56692800Y-29616400D03*
%TD*%
D13*
%TO.P,C22,1*%
%TO.N,/Block Diagram/Power Supplies/P3V3_AUX*%
X49222600Y-36195000D03*
%TO.P,C22,2*%
%TO.N,GND*%
X48262600Y-36195000D03*
%TD*%
D52*
%TO.P,Q2,1,G*%
%TO.N,Net-(Q2-G)*%
X57325500Y-45049400D03*
%TO.P,Q2,2,S*%
%TO.N,VBATT_PROT*%
X57325500Y-46949400D03*
%TO.P,Q2,3,D*%
%TO.N,Net-(Q2-D)*%
X55450500Y-45999400D03*
%TD*%
D50*
%TO.P,R2,1*%
%TO.N,/Block Diagram/Power Supplies/P3V3_AUX*%
X53846000Y-29641800D03*
%TO.P,R2,2*%
%TO.N,/Block Diagram/PGOOD1*%
X54866000Y-29641800D03*
%TD*%
D53*
%TO.P,U6,1,GND*%
%TO.N,GND*%
X45770800Y-41008300D03*
D54*
%TO.P,U6,2,~{RESET}*%
%TO.N,Net-(U6-~{RESET})*%
X45770800Y-39268400D03*
D55*
%TO.P,U6,3,SRT*%
%TO.N,unconnected-(U6-SRT-Pad3)*%
X48310800Y-39268400D03*
%TO.P,U6,4,VCC*%
%TO.N,/Block Diagram/Power Supplies/P3V3_AUX*%
X48310800Y-41198800D03*
%TD*%
D13*
%TO.P,C13,1*%
%TO.N,/Block Diagram/VOUT2*%
X60424000Y-28676600D03*
%TO.P,C13,2*%
%TO.N,Net-(JP2-A)*%
X59464000Y-28676600D03*
%TD*%
D56*
%TO.P,R13,1*%
%TO.N,Net-(U6-~{RESET})*%
X45796200Y-38076600D03*
%TO.P,R13,2*%
%TO.N,GND*%
X45796200Y-37056600D03*
%TD*%
D57*
%TO.P,U4,1,NC*%
%TO.N,unconnected-(U4-NC-Pad1)*%
X85044300Y-32633000D03*
%TO.P,U4,2,IO*%
%TO.N,Net-(U4-IO)*%
X85044300Y-31683000D03*
%TO.P,U4,3,GND*%
%TO.N,GND*%
X85044300Y-30733000D03*
%TO.P,U4,4,NC*%
%TO.N,unconnected-(U4-NC-Pad4)*%
X88019300Y-30733000D03*
%TO.P,U4,5,NC*%
%TO.N,unconnected-(U4-NC-Pad5)*%
X88019300Y-31683000D03*
%TO.P,U4,6,NC*%
%TO.N,unconnected-(U4-NC-Pad6)*%
X88019300Y-32633000D03*
D58*
%TO.P,U4,7,EP*%
%TO.N,GND*%
X86531800Y-31683000D03*
%TD*%
D45*
%TO.P,R11,1*%
%TO.N,/Block Diagram/VBATT*%
X62308200Y-44754800D03*
%TO.P,R11,2*%
%TO.N,Net-(Q2-G)*%
X61288200Y-44754800D03*
%TD*%
D49*
%TO.P,FID4,*%
%TO.N,*%
X99491800Y-29210000D03*
%TD*%
D17*
%TO.P,C6,1*%
%TO.N,VBATT_PROT*%
X58130400Y-37693600D03*
%TO.P,C6,2*%
%TO.N,GND*%
X60030400Y-37693600D03*
%TD*%
D59*
%TO.P,R10,1*%
%TO.N,Net-(U4-IO)*%
X83864800Y-31681000D03*
%TO.P,R10,2*%
%TO.N,Net-(L3-Pad2)*%
X83864800Y-32701000D03*
%TD*%
D17*
%TO.P,C18,1*%
%TO.N,/Block Diagram/VOUT2*%
X66893400Y-32359600D03*
%TO.P,C18,2*%
%TO.N,GND*%
X68793400Y-32359600D03*
%TD*%
D60*
%TO.P,L3,1*%
%TO.N,/Block Diagram/DETECT*%
X82253600Y-34654800D03*
%TO.P,L3,2*%
%TO.N,Net-(L3-Pad2)*%
X84053600Y-34654800D03*
%TD*%
D16*
%TO.P,P3,1,1*%
%TO.N,/Block Diagram/USB_D+*%
X71120000Y-39878000D03*
D61*
%TO.P,P3,2,2*%
%TO.N,/Block Diagram/USB_D-*%
X73660000Y-39878000D03*
%TO.P,P3,3,3*%
%TO.N,/Block Diagram/GPIO1*%
X76200000Y-39878000D03*
%TO.P,P3,4,4*%
%TO.N,/Block Diagram/GPIO0*%
X78740000Y-39878000D03*
%TO.P,P3,5,5*%
%TO.N,/Block Diagram/DETECT*%
X81280000Y-39878000D03*
%TD*%
D62*
%TO.P,R12,1*%
%TO.N,GND*%
X47117000Y-45567600D03*
%TO.P,R12,2*%
%TO.N,Net-(Q2-D)*%
X53263800Y-45567600D03*
%TD*%
D13*
%TO.P,C21,1*%
%TO.N,/Block Diagram/VBATT*%
X62989400Y-36449000D03*
%TO.P,C21,2*%
%TO.N,GND*%
X62029400Y-36449000D03*
%TD*%
D63*
%TO.N,GND*%
X55753000Y-35077400D03*
X84455000Y-28956000D03*
X71120000Y-30480000D03*
X55118000Y-34544000D03*
X60030400Y-37693600D03*
X54381400Y-36118800D03*
X58166000Y-33909000D03*
X51054000Y-46228000D03*
X76200000Y-46736000D03*
X51054000Y-43180000D03*
X58674000Y-32893000D03*
X71653400Y-38303200D03*
X50292000Y-43180000D03*
X59944000Y-38227000D03*
X58293000Y-33274000D03*
X49530000Y-45212000D03*
X94107000Y-29210000D03*
X56515000Y-33909000D03*
X90500200Y-30175200D03*
X58928000Y-34544000D03*
X49530000Y-44704000D03*
X70612000Y-30988000D03*
X75819000Y-35331400D03*
X56515000Y-34417000D03*
X51054000Y-44704000D03*
X45913000Y-30378400D03*
X57609800Y-28676600D03*
X48006000Y-37566600D03*
X50292000Y-44704000D03*
X71120000Y-30988000D03*
X70612000Y-30480000D03*
X80949800Y-32438400D03*
X78232000Y-32258000D03*
X62484000Y-38354000D03*
X56388000Y-33274000D03*
X51054000Y-45720000D03*
X61976000Y-46736000D03*
X50292000Y-45720000D03*
X58801000Y-33782000D03*
X54356000Y-35153600D03*
X54625200Y-37693600D03*
X54462800Y-34518800D03*
X56007000Y-32893000D03*
X70104000Y-30988000D03*
X48920400Y-39878000D03*
X55880000Y-33782000D03*
X77622400Y-35763200D03*
X47117000Y-44323000D03*
X74904600Y-36220400D03*
X69240400Y-37211000D03*
X54991000Y-35128200D03*
X54610000Y-38227000D03*
X55372000Y-47498000D03*
X76835000Y-29083000D03*
X75285600Y-33909000D03*
X60807600Y-34315400D03*
X58773000Y-36144200D03*
X55905400Y-36245800D03*
X55753000Y-34544000D03*
X47117000Y-46863000D03*
X51054000Y-45212000D03*
X49530000Y-44196000D03*
X62153800Y-37393200D03*
X91948000Y-34033400D03*
X53746400Y-35128200D03*
X54610000Y-37211000D03*
X59740800Y-37185600D03*
X50292000Y-44196000D03*
X73177400Y-38303200D03*
X50292000Y-43688000D03*
X50292000Y-45212000D03*
X70104000Y-30480000D03*
X53746400Y-36118800D03*
X45796200Y-37056600D03*
X51054000Y-44196000D03*
X93472000Y-46355000D03*
X73304400Y-35890200D03*
X50292000Y-46228000D03*
X45913000Y-34340800D03*
X58166000Y-34417000D03*
X47117000Y-45567600D03*
X83058000Y-32715200D03*
X51054000Y-43688000D03*
X77216000Y-34290000D03*
X83207800Y-36347400D03*
X52009000Y-42062400D03*
X77952600Y-33451800D03*
X45913000Y-32359600D03*
X61722000Y-38354000D03*
X48262600Y-36195000D03*
%TO.N,VBATT_PROT*%
X58166000Y-40386000D03*
X56642000Y-40894000D03*
X57404000Y-41402000D03*
X58166000Y-41402000D03*
X58166000Y-42926000D03*
X58166000Y-40894000D03*
X58166000Y-39878000D03*
X57404000Y-42926000D03*
X57404000Y-41910000D03*
X56642000Y-41910000D03*
X57404000Y-39878000D03*
X58166000Y-42418000D03*
X56642000Y-41402000D03*
X57404000Y-40386000D03*
X57404000Y-42418000D03*
X56525200Y-37693600D03*
X58166000Y-41910000D03*
X58130400Y-37693600D03*
X57327800Y-36027400D03*
X57404000Y-40894000D03*
%TO.N,GNDA*%
X59867800Y-31445200D03*
X57327800Y-31877000D03*
%TO.N,/Block Diagram/VOUT1*%
X50546000Y-36322000D03*
X49530000Y-31750000D03*
X50546000Y-35814000D03*
X49530000Y-33020000D03*
X50671000Y-32105600D03*
X51054000Y-36322000D03*
X51054000Y-35814000D03*
X51054000Y-35306000D03*
X50546000Y-35306000D03*
X50657200Y-31140400D03*
X49530000Y-34544000D03*
%TO.N,/Block Diagram/VOUT2*%
X66649600Y-34036000D03*
X63996200Y-31140400D03*
X65193000Y-33223200D03*
X66649600Y-34798000D03*
X67183000Y-34340800D03*
X70612000Y-34798000D03*
X70612000Y-34036000D03*
X70612000Y-33274000D03*
X65024000Y-34544000D03*
X65024000Y-32004000D03*
X64021600Y-33629600D03*
%TO.N,Net-(JP1-A)*%
X55854600Y-30226000D03*
%TO.N,Net-(JP2-A)*%
X58826400Y-30276800D03*
%TO.N,/Block Diagram/VBATT*%
X64262000Y-40386000D03*
X64262000Y-42926000D03*
X63500000Y-40386000D03*
X64262000Y-41910000D03*
X63500000Y-42418000D03*
X64262000Y-41402000D03*
X63500000Y-40894000D03*
X64262000Y-42418000D03*
X64262000Y-40894000D03*
X63500000Y-42926000D03*
X63500000Y-41910000D03*
X63500000Y-41402000D03*
%TO.N,/Block Diagram/Power Supplies/P3V3_AUX*%
X46736000Y-42164000D03*
X46736000Y-41656000D03*
X53848000Y-29210000D03*
X61976000Y-29210000D03*
X80949800Y-33398400D03*
X49606200Y-37566600D03*
X49222600Y-36195000D03*
X47244000Y-42164000D03*
X47244000Y-41656000D03*
%TO.N,/Block Diagram/PGOOD1*%
X54866000Y-29210000D03*
%TO.N,/Block Diagram/PGOOD2*%
X60960000Y-29210000D03*
%TO.N,/Block Diagram/GPIO0*%
X90855800Y-31826200D03*
%TO.N,/Block Diagram/GPIO1*%
X84836000Y-36550600D03*
%TO.N,Net-(Q1-G)*%
X62207600Y-42580200D03*
X62153800Y-39213200D03*
%TO.N,Net-(Q2-G)*%
X57325500Y-45049400D03*
X61288200Y-44754800D03*
%TO.N,/Block Diagram/Data Switches/RESET*%
X48493400Y-37066600D03*
X53263800Y-36728400D03*
X81076800Y-35356800D03*
X49093400Y-38066600D03*
%TO.N,Net-(U7-2Y)*%
X49093400Y-37066600D03*
X91948000Y-33073400D03*
X50266600Y-37490400D03*
%TD*%
D64*
%TO.N,GND*%
X71653400Y-38303200D02*
X71963800Y-38613600D01*
X62153800Y-36573400D02*
X62153800Y-37393200D01*
X48920400Y-39878000D02*
X49247200Y-39551200D01*
D65*
X85581800Y-30733000D02*
X86531800Y-31683000D01*
D66*
X68793400Y-34340800D02*
X68793400Y-32359600D01*
D64*
X83207800Y-36850600D02*
X84228600Y-37871400D01*
X83820000Y-38280000D02*
X84228600Y-37871400D01*
X72867000Y-38613600D02*
X72415400Y-38613600D01*
X51496200Y-39406600D02*
X52146200Y-40056600D01*
D65*
X85044300Y-30733000D02*
X85581800Y-30733000D01*
D64*
X48493400Y-37566600D02*
X48006000Y-37566600D01*
D65*
X86436200Y-31778600D02*
X86531800Y-31683000D01*
D64*
X48006000Y-36451600D02*
X48262600Y-36195000D01*
D67*
X52009000Y-42062400D02*
X52009000Y-40193800D01*
D64*
X83207800Y-36347400D02*
X83207800Y-36850600D01*
X51221200Y-39406600D02*
X50487400Y-39406600D01*
X51221200Y-39406600D02*
X51496200Y-39406600D01*
X50487400Y-39406600D02*
X50342800Y-39551200D01*
X48006000Y-37566600D02*
X48006000Y-36451600D01*
X49247200Y-39551200D02*
X49377600Y-39551200D01*
X71963800Y-38613600D02*
X72415400Y-38613600D01*
X62029400Y-36449000D02*
X62153800Y-36573400D01*
X56692800Y-29616400D02*
X57609800Y-28699400D01*
X52009000Y-40193800D02*
X52146200Y-40056600D01*
D66*
X68793400Y-32359600D02*
X68793400Y-30378400D01*
D64*
X62153800Y-37393200D02*
X62153800Y-38303200D01*
X83820000Y-40995600D02*
X83820000Y-38280000D01*
X73177400Y-38303200D02*
X72867000Y-38613600D01*
X57609800Y-28699400D02*
X57609800Y-28676600D01*
%TO.N,VBATT_PROT*%
X57052800Y-33227600D02*
X57052800Y-35181300D01*
X57602800Y-33227600D02*
X58786600Y-32043800D01*
X54615300Y-32043800D02*
X55869000Y-32043800D01*
X58786600Y-32043800D02*
X60040300Y-32043800D01*
X55869000Y-32043800D02*
X57052800Y-33227600D01*
X57602800Y-35181300D02*
X57602800Y-33227600D01*
%TO.N,GNDA*%
X57327800Y-30943800D02*
X57327800Y-30147200D01*
X57327800Y-30147200D02*
X56797000Y-29616400D01*
X57327800Y-31877000D02*
X57327800Y-30943800D01*
%TO.N,Net-(JP1-A)*%
X55854600Y-30226000D02*
X55854600Y-30917000D01*
X56715600Y-28704600D02*
X56715600Y-28676600D01*
X55854600Y-29565600D02*
X56715600Y-28704600D01*
X55854600Y-30917000D02*
X55827800Y-30943800D01*
X55854600Y-30226000D02*
X55854600Y-29565600D01*
%TO.N,Net-(JP2-A)*%
X59464000Y-28902600D02*
X58827800Y-29538800D01*
X59464000Y-28676600D02*
X59464000Y-28902600D01*
X58827800Y-29538800D02*
X58827800Y-30943800D01*
%TO.N,/Block Diagram/DETECT*%
X81280000Y-39878000D02*
X81328600Y-39829400D01*
X81328600Y-39829400D02*
X81328600Y-37871400D01*
X81328600Y-37266600D02*
X82247800Y-36347400D01*
X82247800Y-36347400D02*
X82247800Y-34660600D01*
X81328600Y-37871400D02*
X81328600Y-37266600D01*
X82247800Y-34660600D02*
X82253600Y-34654800D01*
%TO.N,/Block Diagram/VBATT*%
X62803800Y-36634600D02*
X62989400Y-36449000D01*
X62803800Y-37393200D02*
X62803800Y-36634600D01*
%TO.N,/Block Diagram/Power Supplies/P3V3_AUX*%
X49222600Y-36195000D02*
X49606200Y-36578600D01*
X61978000Y-29212000D02*
X61978000Y-29641800D01*
X53848000Y-29210000D02*
X53846000Y-29212000D01*
X53846000Y-29212000D02*
X53846000Y-29641800D01*
X51025800Y-40511200D02*
X51221200Y-40706600D01*
X61976000Y-29210000D02*
X61978000Y-29212000D01*
X50342800Y-40511200D02*
X51025800Y-40511200D01*
X49606200Y-36578600D02*
X49606200Y-37566600D01*
X49606200Y-37566600D02*
X49093400Y-37566600D01*
%TO.N,Net-(L3-Pad2)*%
X84053600Y-34654800D02*
X84053600Y-32889800D01*
X84053600Y-32889800D02*
X83864800Y-32701000D01*
%TO.N,/Block Diagram/PGOOD1*%
X55327800Y-30943800D02*
X55327800Y-30103600D01*
X54866000Y-29210000D02*
X54866000Y-29641800D01*
X55327800Y-30103600D02*
X54866000Y-29641800D01*
%TO.N,/Block Diagram/PGOOD2*%
X59327800Y-30054800D02*
X59740800Y-29641800D01*
X60958000Y-29212000D02*
X60958000Y-29641800D01*
X59327800Y-30943800D02*
X59327800Y-30054800D01*
X60960000Y-29210000D02*
X60958000Y-29212000D01*
X59740800Y-29641800D02*
X60958000Y-29641800D01*
%TO.N,/Block Diagram/USB_D+*%
X71684400Y-39313600D02*
X71120000Y-39878000D01*
X72190400Y-39313600D02*
X71684400Y-39313600D01*
%TO.N,/Block Diagram/USB_D-*%
X73095600Y-39313600D02*
X73660000Y-39878000D01*
X72640400Y-39313600D02*
X73095600Y-39313600D01*
D65*
%TO.N,Net-(Q2-D)*%
X53695600Y-45999400D02*
X53263800Y-45567600D01*
X55450500Y-45999400D02*
X53695600Y-45999400D01*
D64*
%TO.N,/Block Diagram/Data Switches/RESET*%
X53263800Y-36728400D02*
X51925600Y-38066600D01*
X51925600Y-38066600D02*
X49093400Y-38066600D01*
%TO.N,Net-(U3-EXTVCC)*%
X58327800Y-30943800D02*
X58327800Y-28918600D01*
X58327800Y-28918600D02*
X58569800Y-28676600D01*
%TO.N,Net-(U3-BIAS)*%
X57827800Y-30943800D02*
X57827800Y-29687200D01*
X57827800Y-29687200D02*
X57757000Y-29616400D01*
%TO.N,Net-(U3-BST1)*%
X54915300Y-32593800D02*
X53520800Y-32593800D01*
X53520800Y-32593800D02*
X53365400Y-32438400D01*
%TO.N,Net-(U3-BST2)*%
X59740300Y-32593800D02*
X61109400Y-32593800D01*
X61109400Y-32593800D02*
X61290200Y-32413000D01*
%TO.N,Net-(U4-IO)*%
X83864800Y-31681000D02*
X85042300Y-31681000D01*
X85042300Y-31681000D02*
X85044300Y-31683000D01*
%TO.N,Net-(U6-~{RESET})*%
X48518400Y-38066600D02*
X45806200Y-38066600D01*
X45770800Y-39268400D02*
X45796200Y-39243000D01*
X45796200Y-39243000D02*
X45796200Y-38076600D01*
X45806200Y-38066600D02*
X45796200Y-38076600D01*
%TD*%
%TA.AperFunction,Conductor*%
%TO.N,Net-(U3-LX1)*%
G36*
X52384545Y-31543765D02*
G01*
X52399682Y-31560165D01*
X52798616Y-32121246D01*
X52814596Y-32179210D01*
X52813796Y-32185931D01*
X52800900Y-32267355D01*
X52800900Y-32609442D01*
X52800901Y-32609444D01*
X52815531Y-32701826D01*
X52815531Y-32701827D01*
X52872262Y-32813167D01*
X52872263Y-32813168D01*
X52872265Y-32813171D01*
X52960629Y-32901535D01*
X52960631Y-32901536D01*
X52960632Y-32901537D01*
X53071972Y-32958268D01*
X53084603Y-32960268D01*
X53164355Y-32972900D01*
X53566444Y-32972899D01*
X53658827Y-32958268D01*
X53681372Y-32946781D01*
X53721278Y-32937200D01*
X54492655Y-32937200D01*
X54494120Y-32937212D01*
X54802966Y-32942359D01*
X54859115Y-32963863D01*
X54888307Y-33016428D01*
X54889400Y-33030247D01*
X54889400Y-33413687D01*
X54868835Y-33470188D01*
X54816764Y-33500252D01*
X54800493Y-33501581D01*
X54322173Y-33496099D01*
X54152446Y-33494154D01*
X54152445Y-33494154D01*
X54152444Y-33494154D01*
X54139567Y-33504497D01*
X54101675Y-33522175D01*
X54083233Y-33525843D01*
X54083232Y-33525844D01*
X54024254Y-33565252D01*
X54024251Y-33565255D01*
X53985788Y-33622819D01*
X53967749Y-33642513D01*
X52397515Y-34903829D01*
X52342468Y-34923200D01*
X51481300Y-34923200D01*
X51424799Y-34902635D01*
X51394735Y-34850564D01*
X51393400Y-34835300D01*
X51393400Y-31611100D01*
X51413965Y-31554599D01*
X51466036Y-31524535D01*
X51481300Y-31523200D01*
X52328044Y-31523200D01*
X52384545Y-31543765D01*
G37*
%TD.AperFunction*%
%TD*%
%TA.AperFunction,Conductor*%
%TO.N,VBATT_PROT*%
G36*
X58083801Y-34894765D02*
G01*
X58113865Y-34946836D01*
X58115200Y-34962100D01*
X58115200Y-36830000D01*
X58992500Y-36830000D01*
X59049001Y-36850565D01*
X59079065Y-36902636D01*
X59080400Y-36917900D01*
X59080400Y-38633400D01*
X59567080Y-38633400D01*
X59597797Y-38638941D01*
X59672058Y-38666640D01*
X59732145Y-38673100D01*
X60328654Y-38673099D01*
X60388742Y-38666640D01*
X60426419Y-38652586D01*
X60463003Y-38638942D01*
X60493721Y-38633400D01*
X60986401Y-38633400D01*
X61042902Y-38653965D01*
X61072966Y-38706036D01*
X61074301Y-38721300D01*
X61074301Y-38803269D01*
X61085551Y-38859833D01*
X61085551Y-38894127D01*
X61074800Y-38948179D01*
X61074800Y-39038199D01*
X61074801Y-39038200D01*
X61590900Y-39038200D01*
X61647401Y-39058765D01*
X61677465Y-39110836D01*
X61678800Y-39126100D01*
X61678800Y-39300300D01*
X61658235Y-39356801D01*
X61606164Y-39386865D01*
X61590900Y-39388200D01*
X61074802Y-39388200D01*
X61074801Y-39388201D01*
X61074801Y-39478218D01*
X61089537Y-39552306D01*
X61145675Y-39636322D01*
X61145677Y-39636324D01*
X61229694Y-39692462D01*
X61303780Y-39707199D01*
X61374599Y-39707199D01*
X61431100Y-39727763D01*
X61461164Y-39779834D01*
X61462500Y-39795099D01*
X61462500Y-40050290D01*
X61441935Y-40106791D01*
X61436755Y-40112445D01*
X61239399Y-40309801D01*
X61239399Y-40309802D01*
X61252764Y-44092089D01*
X61232400Y-44148663D01*
X61180434Y-44178910D01*
X61164867Y-44180300D01*
X61122550Y-44180300D01*
X61122546Y-44180301D01*
X61031340Y-44194745D01*
X61031337Y-44194746D01*
X60921406Y-44250758D01*
X60834158Y-44338006D01*
X60778145Y-44447939D01*
X60763700Y-44539148D01*
X60763700Y-44970450D01*
X60763701Y-44970452D01*
X60778145Y-45061659D01*
X60778146Y-45061662D01*
X60833724Y-45170742D01*
X60834160Y-45171596D01*
X60921404Y-45258840D01*
X61031338Y-45314854D01*
X61122547Y-45329300D01*
X61169546Y-45329299D01*
X61226046Y-45349863D01*
X61256110Y-45401934D01*
X61257445Y-45416888D01*
X61262884Y-46955880D01*
X61242520Y-47012454D01*
X61200895Y-47040186D01*
X61036467Y-47090907D01*
X60830614Y-47190040D01*
X60830604Y-47190046D01*
X60641823Y-47318756D01*
X60474330Y-47474167D01*
X60331867Y-47652810D01*
X60329979Y-47656081D01*
X60288977Y-47727099D01*
X60274745Y-47751749D01*
X60274744Y-47751750D01*
X60238796Y-47814010D01*
X60238745Y-47814113D01*
X60229455Y-47830208D01*
X60229450Y-47830218D01*
X60158078Y-47996756D01*
X60106929Y-48170593D01*
X60104279Y-48186261D01*
X60074578Y-48238541D01*
X60018222Y-48259498D01*
X60017610Y-48259500D01*
X52945300Y-48259500D01*
X52888799Y-48238935D01*
X52858735Y-48186864D01*
X52857400Y-48171600D01*
X52857400Y-47814999D01*
X52877965Y-47758498D01*
X52930036Y-47728434D01*
X52945292Y-47727099D01*
X54177866Y-47727099D01*
X54177868Y-47727099D01*
X54196361Y-47723420D01*
X54252101Y-47712334D01*
X54336284Y-47656084D01*
X54392534Y-47571901D01*
X54407235Y-47497996D01*
X54935255Y-47497996D01*
X54935255Y-47498003D01*
X54952944Y-47621038D01*
X54952945Y-47621043D01*
X54952946Y-47621045D01*
X55004587Y-47734122D01*
X55085993Y-47828070D01*
X55190570Y-47895277D01*
X55190572Y-47895277D01*
X55190573Y-47895278D01*
X55309840Y-47930299D01*
X55309844Y-47930300D01*
X55309845Y-47930300D01*
X55434156Y-47930300D01*
X55434159Y-47930299D01*
X55520654Y-47904901D01*
X55553430Y-47895277D01*
X55658007Y-47828070D01*
X55739413Y-47734122D01*
X55791054Y-47621045D01*
X55808745Y-47498000D01*
X55808745Y-47497996D01*
X55791055Y-47374961D01*
X55791054Y-47374960D01*
X55791054Y-47374955D01*
X55739413Y-47261878D01*
X55658007Y-47167930D01*
X55658005Y-47167929D01*
X55658003Y-47167927D01*
X55553432Y-47100724D01*
X55553426Y-47100721D01*
X55470602Y-47076401D01*
X56334001Y-47076401D01*
X56334001Y-47131194D01*
X56348983Y-47225797D01*
X56407081Y-47339822D01*
X56497577Y-47430318D01*
X56611602Y-47488416D01*
X56611601Y-47488416D01*
X56706205Y-47503399D01*
X57198498Y-47503399D01*
X57198500Y-47503398D01*
X57198500Y-47076401D01*
X57452500Y-47076401D01*
X57452500Y-47503398D01*
X57452501Y-47503399D01*
X57944793Y-47503399D01*
X57944794Y-47503398D01*
X58039397Y-47488416D01*
X58153422Y-47430318D01*
X58243918Y-47339822D01*
X58302016Y-47225797D01*
X58317000Y-47131194D01*
X58317000Y-47076401D01*
X58316999Y-47076400D01*
X57452501Y-47076400D01*
X57452500Y-47076401D01*
X57198500Y-47076401D01*
X57198499Y-47076400D01*
X56334002Y-47076400D01*
X56334001Y-47076401D01*
X55470602Y-47076401D01*
X55434159Y-47065700D01*
X55434155Y-47065700D01*
X55309845Y-47065700D01*
X55309840Y-47065700D01*
X55190573Y-47100721D01*
X55190567Y-47100724D01*
X55085996Y-47167927D01*
X55085991Y-47167931D01*
X55004586Y-47261879D01*
X54952946Y-47374955D01*
X54952944Y-47374961D01*
X54935255Y-47497996D01*
X54407235Y-47497996D01*
X54407300Y-47497667D01*
X54407300Y-46477958D01*
X54427865Y-46421457D01*
X54479936Y-46391393D01*
X54539150Y-46401834D01*
X54557350Y-46415799D01*
X54622277Y-46480726D01*
X54622279Y-46480727D01*
X54622280Y-46480728D01*
X54736444Y-46538898D01*
X54747837Y-46540702D01*
X54831166Y-46553900D01*
X54831168Y-46553900D01*
X56069832Y-46553900D01*
X56069834Y-46553900D01*
X56164555Y-46538898D01*
X56264899Y-46487770D01*
X56324578Y-46480442D01*
X56375005Y-46513189D01*
X56392585Y-46570689D01*
X56383125Y-46605994D01*
X56348983Y-46673002D01*
X56334000Y-46767605D01*
X56334000Y-46822399D01*
X56334001Y-46822400D01*
X57198499Y-46822400D01*
X57198500Y-46822399D01*
X57198500Y-46395401D01*
X57452500Y-46395401D01*
X57452500Y-46822399D01*
X57452501Y-46822400D01*
X58316998Y-46822400D01*
X58316999Y-46822399D01*
X58316999Y-46767607D01*
X58316998Y-46767605D01*
X58302016Y-46673002D01*
X58243918Y-46558977D01*
X58153422Y-46468481D01*
X58039397Y-46410383D01*
X58039398Y-46410383D01*
X57944794Y-46395400D01*
X57452501Y-46395400D01*
X57452500Y-46395401D01*
X57198500Y-46395401D01*
X57198499Y-46395400D01*
X56706207Y-46395400D01*
X56706205Y-46395401D01*
X56611602Y-46410383D01*
X56511471Y-46461402D01*
X56451792Y-46468729D01*
X56401366Y-46435981D01*
X56383786Y-46378481D01*
X56393247Y-46343176D01*
X56427498Y-46275955D01*
X56442500Y-46181234D01*
X56442500Y-45817566D01*
X56427498Y-45722845D01*
X56427498Y-45722844D01*
X56393633Y-45656381D01*
X56386305Y-45596702D01*
X56419052Y-45546275D01*
X56476552Y-45528695D01*
X56511858Y-45538156D01*
X56611444Y-45588898D01*
X56622837Y-45590702D01*
X56706166Y-45603900D01*
X56706168Y-45603900D01*
X57944832Y-45603900D01*
X57944834Y-45603900D01*
X58039555Y-45588898D01*
X58153723Y-45530726D01*
X58244326Y-45440123D01*
X58302498Y-45325955D01*
X58317500Y-45231234D01*
X58317500Y-44867566D01*
X58302498Y-44772845D01*
X58302498Y-44772844D01*
X58244328Y-44658680D01*
X58244327Y-44658679D01*
X58244326Y-44658677D01*
X58153723Y-44568074D01*
X58153720Y-44568072D01*
X58153719Y-44568071D01*
X58039555Y-44509901D01*
X57957783Y-44496951D01*
X57944834Y-44494900D01*
X56706166Y-44494900D01*
X56694773Y-44496704D01*
X56611444Y-44509901D01*
X56497280Y-44568071D01*
X56406671Y-44658680D01*
X56348501Y-44772844D01*
X56333500Y-44867567D01*
X56333500Y-45231232D01*
X56348501Y-45325952D01*
X56348501Y-45325953D01*
X56348502Y-45325955D01*
X56351211Y-45331271D01*
X56382367Y-45392418D01*
X56389694Y-45452097D01*
X56356946Y-45502524D01*
X56299446Y-45520104D01*
X56264141Y-45510644D01*
X56248205Y-45502524D01*
X56164555Y-45459902D01*
X56164553Y-45459901D01*
X56164552Y-45459901D01*
X56091789Y-45448377D01*
X56069834Y-45444900D01*
X54831166Y-45444900D01*
X54819773Y-45446704D01*
X54736444Y-45459901D01*
X54622280Y-45518071D01*
X54622279Y-45518071D01*
X54557353Y-45582997D01*
X54502859Y-45608407D01*
X54444781Y-45592844D01*
X54410294Y-45543590D01*
X54407299Y-45520848D01*
X54407299Y-43637534D01*
X54407299Y-43637533D01*
X54407299Y-43637531D01*
X54401780Y-43609790D01*
X54392534Y-43563299D01*
X54336284Y-43479116D01*
X54335898Y-43478858D01*
X54252101Y-43422865D01*
X54198992Y-43412302D01*
X54177867Y-43408100D01*
X54177865Y-43408100D01*
X52945300Y-43408100D01*
X52888799Y-43387535D01*
X52858735Y-43335464D01*
X52857400Y-43320200D01*
X52857400Y-42871484D01*
X53279519Y-42871484D01*
X53298952Y-42897445D01*
X53298955Y-42897448D01*
X53414975Y-42984299D01*
X53550765Y-43034946D01*
X53550775Y-43034948D01*
X53610784Y-43041399D01*
X54207205Y-43041399D01*
X54267237Y-43034946D01*
X54403024Y-42984299D01*
X54519046Y-42897447D01*
X54538479Y-42871485D01*
X53908999Y-42242005D01*
X53279519Y-42871484D01*
X52857400Y-42871484D01*
X52857400Y-41539193D01*
X53155000Y-41539193D01*
X53155000Y-42585605D01*
X53159968Y-42631824D01*
X53729392Y-42062400D01*
X54088605Y-42062400D01*
X54658031Y-42631826D01*
X54662999Y-42585615D01*
X54662999Y-41539194D01*
X54658030Y-41492974D01*
X54088605Y-42062400D01*
X53729392Y-42062400D01*
X53729393Y-42062399D01*
X53159968Y-41492974D01*
X53155000Y-41539193D01*
X52857400Y-41539193D01*
X52857400Y-41248499D01*
X52877965Y-41191998D01*
X52930036Y-41161934D01*
X52944093Y-41160704D01*
X52944200Y-41160598D01*
X52944200Y-40833601D01*
X53198200Y-40833601D01*
X53198200Y-41160598D01*
X53202293Y-41164691D01*
X53247551Y-41181164D01*
X53277615Y-41233235D01*
X53278726Y-41242228D01*
X53279518Y-41253312D01*
X53909000Y-41882794D01*
X54538479Y-41253314D01*
X54519045Y-41227351D01*
X54403024Y-41140500D01*
X54267234Y-41089853D01*
X54267224Y-41089851D01*
X54207219Y-41083400D01*
X53627114Y-41083400D01*
X53570613Y-41062835D01*
X53540549Y-41010764D01*
X53540903Y-40978351D01*
X53550200Y-40931613D01*
X53550200Y-40833601D01*
X53550199Y-40833600D01*
X53198201Y-40833600D01*
X53198200Y-40833601D01*
X52944200Y-40833601D01*
X52944200Y-40667500D01*
X52964765Y-40610999D01*
X53016836Y-40580935D01*
X53032100Y-40579600D01*
X53550198Y-40579600D01*
X53550199Y-40579599D01*
X53550199Y-40481581D01*
X53535462Y-40407493D01*
X53479322Y-40323474D01*
X53475766Y-40321098D01*
X53440211Y-40272609D01*
X53436699Y-40248017D01*
X53436699Y-39865188D01*
X53457264Y-39808688D01*
X53475766Y-39792102D01*
X53479322Y-39789725D01*
X53535462Y-39705705D01*
X53550200Y-39631615D01*
X53550200Y-39533601D01*
X53550199Y-39533600D01*
X53032100Y-39533600D01*
X52975599Y-39513035D01*
X52945535Y-39460964D01*
X52944200Y-39445700D01*
X52944200Y-38952601D01*
X53198200Y-38952601D01*
X53198200Y-39279599D01*
X53198201Y-39279600D01*
X53550198Y-39279600D01*
X53550199Y-39279599D01*
X53550199Y-39181581D01*
X53535462Y-39107493D01*
X53479324Y-39023477D01*
X53479322Y-39023475D01*
X53395305Y-38967337D01*
X53321215Y-38952600D01*
X53198201Y-38952600D01*
X53198200Y-38952601D01*
X52944200Y-38952601D01*
X52943568Y-38951969D01*
X52888799Y-38932035D01*
X52858735Y-38879964D01*
X52857400Y-38864700D01*
X52857400Y-38695900D01*
X52877965Y-38639399D01*
X52930036Y-38609335D01*
X52945300Y-38608000D01*
X54093952Y-38608000D01*
X54124297Y-38615740D01*
X54125042Y-38613745D01*
X54153878Y-38624500D01*
X54266858Y-38666640D01*
X54326945Y-38673100D01*
X54923454Y-38673099D01*
X54983542Y-38666640D01*
X55080353Y-38630531D01*
X55125358Y-38613745D01*
X55126102Y-38615740D01*
X55156448Y-38608000D01*
X55600599Y-38608000D01*
X55600600Y-38608000D01*
X55600600Y-36895644D01*
X55621165Y-36839143D01*
X55673236Y-36809079D01*
X55702248Y-36808826D01*
X55711555Y-36810300D01*
X56053644Y-36810299D01*
X56146027Y-36795668D01*
X56193023Y-36771721D01*
X56230546Y-36762174D01*
X56540400Y-36753800D01*
X56540400Y-34962100D01*
X56560965Y-34905599D01*
X56613036Y-34875535D01*
X56628300Y-34874200D01*
X58027300Y-34874200D01*
X58083801Y-34894765D01*
G37*
%TD.AperFunction*%
%TD*%
%TA.AperFunction,Conductor*%
%TO.N,/Block Diagram/VBATT*%
G36*
X64263713Y-35607937D02*
G01*
X64295731Y-35614221D01*
X64444997Y-35673928D01*
X64607645Y-35738987D01*
X64652468Y-35779065D01*
X64662900Y-35820600D01*
X64662900Y-36234424D01*
X64663846Y-36256573D01*
X64665123Y-36271487D01*
X64666782Y-36287034D01*
X64666478Y-36287066D01*
X64667674Y-36298116D01*
X64668247Y-37219535D01*
X64668400Y-37465000D01*
X64891900Y-37465000D01*
X64948401Y-37485565D01*
X64978465Y-37537636D01*
X64979800Y-37552900D01*
X64979800Y-37970785D01*
X65485585Y-37465000D01*
X66282013Y-37465000D01*
X66787799Y-37970785D01*
X66787799Y-37552900D01*
X66808364Y-37496399D01*
X66860435Y-37466335D01*
X66875699Y-37465000D01*
X67791400Y-37465000D01*
X67847901Y-37485565D01*
X67877965Y-37537636D01*
X67879300Y-37552900D01*
X67879300Y-38240868D01*
X67892226Y-38305853D01*
X67894066Y-38315101D01*
X67950316Y-38399284D01*
X67970644Y-38412867D01*
X68034498Y-38455534D01*
X68045061Y-38457635D01*
X68108733Y-38470300D01*
X69458866Y-38470299D01*
X69458868Y-38470299D01*
X69477361Y-38466620D01*
X69533101Y-38455534D01*
X69617284Y-38399284D01*
X69673534Y-38315101D01*
X69688300Y-38240867D01*
X69688299Y-37552898D01*
X69708864Y-37496399D01*
X69760935Y-37466335D01*
X69776199Y-37465000D01*
X80336200Y-37465000D01*
X80392701Y-37485565D01*
X80422765Y-37537636D01*
X80424100Y-37552900D01*
X80424100Y-38596468D01*
X80437026Y-38661453D01*
X80438866Y-38670701D01*
X80495116Y-38754884D01*
X80579299Y-38811134D01*
X80653533Y-38825900D01*
X80653535Y-38825899D01*
X80653973Y-38825987D01*
X80705376Y-38857179D01*
X80724704Y-38914115D01*
X80702912Y-38970154D01*
X80685663Y-38985282D01*
X80684173Y-38986277D01*
X80521655Y-39119651D01*
X80521651Y-39119655D01*
X80388279Y-39282170D01*
X80289170Y-39467589D01*
X80289170Y-39467590D01*
X80228144Y-39668766D01*
X80228143Y-39668771D01*
X80228143Y-39668773D01*
X80207536Y-39878000D01*
X80219484Y-39999315D01*
X80228144Y-40087233D01*
X80289170Y-40288409D01*
X80289170Y-40288410D01*
X80289171Y-40288413D01*
X80289172Y-40288414D01*
X80388279Y-40473829D01*
X80521653Y-40636347D01*
X80684171Y-40769721D01*
X80869586Y-40868828D01*
X80869588Y-40868828D01*
X80869589Y-40868829D01*
X80887565Y-40874282D01*
X81070773Y-40929857D01*
X81280000Y-40950464D01*
X81489227Y-40929857D01*
X81690414Y-40868828D01*
X81875829Y-40769721D01*
X82038347Y-40636347D01*
X82171721Y-40473829D01*
X82270828Y-40288414D01*
X82331857Y-40087227D01*
X82352464Y-39878000D01*
X82331857Y-39668773D01*
X82319629Y-39628464D01*
X82296677Y-39552799D01*
X82270828Y-39467586D01*
X82171721Y-39282171D01*
X82038347Y-39119653D01*
X81875829Y-38986279D01*
X81875827Y-38986278D01*
X81872491Y-38983540D01*
X81873438Y-38982384D01*
X81841184Y-38938404D01*
X81845111Y-38878406D01*
X81886685Y-38834968D01*
X81925570Y-38825899D01*
X82003668Y-38825899D01*
X82022161Y-38822220D01*
X82077901Y-38811134D01*
X82162084Y-38754884D01*
X82218334Y-38670701D01*
X82233100Y-38596467D01*
X82233099Y-37552899D01*
X82253664Y-37496399D01*
X82305735Y-37466335D01*
X82320999Y-37465000D01*
X83236200Y-37465000D01*
X83292701Y-37485565D01*
X83322765Y-37537636D01*
X83324100Y-37552900D01*
X83324100Y-38596468D01*
X83337026Y-38661453D01*
X83338866Y-38670701D01*
X83395116Y-38754884D01*
X83437535Y-38783228D01*
X83473088Y-38831716D01*
X83476600Y-38856313D01*
X83476600Y-39840400D01*
X83456035Y-39896901D01*
X83403964Y-39926965D01*
X83388700Y-39928300D01*
X82982131Y-39928300D01*
X82907899Y-39943066D01*
X82823717Y-39999315D01*
X82823714Y-39999318D01*
X82767465Y-40083498D01*
X82754801Y-40147170D01*
X82752701Y-40157731D01*
X82752700Y-40157734D01*
X82752700Y-41833468D01*
X82765626Y-41898453D01*
X82767466Y-41907701D01*
X82823716Y-41991884D01*
X82851905Y-42010719D01*
X82907898Y-42048134D01*
X82918461Y-42050235D01*
X82982133Y-42062900D01*
X84657866Y-42062899D01*
X84657868Y-42062899D01*
X84676361Y-42059220D01*
X84732101Y-42048134D01*
X84816284Y-41991884D01*
X84872534Y-41907701D01*
X84887300Y-41833467D01*
X84887299Y-40195501D01*
X85293201Y-40195501D01*
X85293201Y-40715818D01*
X85307937Y-40789906D01*
X85364075Y-40873922D01*
X85364077Y-40873924D01*
X85448094Y-40930062D01*
X85522181Y-40944799D01*
X86042498Y-40944799D01*
X86042500Y-40944798D01*
X86042500Y-40195501D01*
X86042499Y-40195500D01*
X85293202Y-40195500D01*
X85293201Y-40195501D01*
X84887299Y-40195501D01*
X84887299Y-40157734D01*
X84887299Y-40157733D01*
X84887299Y-40157731D01*
X84881293Y-40127536D01*
X84872534Y-40083499D01*
X84816284Y-39999316D01*
X84815898Y-39999058D01*
X84732101Y-39943065D01*
X84678992Y-39932502D01*
X84657867Y-39928300D01*
X84657865Y-39928300D01*
X84251300Y-39928300D01*
X84194799Y-39907735D01*
X84164735Y-39855664D01*
X84163400Y-39840400D01*
X84163400Y-39824496D01*
X85953600Y-39824496D01*
X85953600Y-39931504D01*
X85981295Y-40034865D01*
X86034799Y-40127536D01*
X86110464Y-40203201D01*
X86203135Y-40256705D01*
X86306496Y-40284400D01*
X86413504Y-40284400D01*
X86516865Y-40256705D01*
X86609536Y-40203201D01*
X86617236Y-40195501D01*
X86677500Y-40195501D01*
X86677500Y-40944798D01*
X86677501Y-40944799D01*
X87197818Y-40944799D01*
X87271906Y-40930062D01*
X87355922Y-40873924D01*
X87355924Y-40873922D01*
X87412062Y-40789905D01*
X87426800Y-40715815D01*
X87426800Y-40195501D01*
X87426799Y-40195500D01*
X86677501Y-40195500D01*
X86677500Y-40195501D01*
X86617236Y-40195501D01*
X86685201Y-40127536D01*
X86738705Y-40034865D01*
X86766400Y-39931504D01*
X86766400Y-39824496D01*
X86738705Y-39721135D01*
X86685201Y-39628464D01*
X86609536Y-39552799D01*
X86516865Y-39499295D01*
X86413504Y-39471600D01*
X86306496Y-39471600D01*
X86203135Y-39499295D01*
X86110464Y-39552799D01*
X86034799Y-39628464D01*
X85981295Y-39721135D01*
X85953600Y-39824496D01*
X84163400Y-39824496D01*
X84163400Y-39040184D01*
X85293200Y-39040184D01*
X85293200Y-39560499D01*
X85293201Y-39560500D01*
X86042499Y-39560500D01*
X86042500Y-39560499D01*
X86042500Y-38811201D01*
X86677500Y-38811201D01*
X86677500Y-39560499D01*
X86677501Y-39560500D01*
X87426798Y-39560500D01*
X87426799Y-39560499D01*
X87426799Y-39040181D01*
X87412062Y-38966093D01*
X87355924Y-38882077D01*
X87355922Y-38882075D01*
X87271905Y-38825937D01*
X87197815Y-38811200D01*
X86677501Y-38811200D01*
X86677500Y-38811201D01*
X86042500Y-38811201D01*
X86042499Y-38811200D01*
X85522181Y-38811200D01*
X85448093Y-38825937D01*
X85364077Y-38882075D01*
X85364075Y-38882077D01*
X85307937Y-38966094D01*
X85293200Y-39040184D01*
X84163400Y-39040184D01*
X84163400Y-38913799D01*
X84183965Y-38857298D01*
X84236036Y-38827234D01*
X84251300Y-38825899D01*
X84903668Y-38825899D01*
X84922161Y-38822220D01*
X84977901Y-38811134D01*
X85062084Y-38754884D01*
X85118334Y-38670701D01*
X85133100Y-38596467D01*
X85133099Y-37552899D01*
X85153664Y-37496399D01*
X85205735Y-37466335D01*
X85220999Y-37465000D01*
X88913700Y-37465000D01*
X88970201Y-37485565D01*
X89000265Y-37537636D01*
X89001600Y-37552900D01*
X89001600Y-46901600D01*
X88981035Y-46958101D01*
X88928964Y-46988165D01*
X88913700Y-46989500D01*
X76696252Y-46989500D01*
X76639751Y-46968935D01*
X76609687Y-46916864D01*
X76616295Y-46865084D01*
X76619054Y-46859045D01*
X76636745Y-46736000D01*
X76636745Y-46735996D01*
X76619055Y-46612961D01*
X76619054Y-46612960D01*
X76619054Y-46612955D01*
X76567413Y-46499878D01*
X76486007Y-46405930D01*
X76486005Y-46405929D01*
X76486003Y-46405927D01*
X76381432Y-46338724D01*
X76381426Y-46338721D01*
X76262159Y-46303700D01*
X76262155Y-46303700D01*
X76137845Y-46303700D01*
X76137840Y-46303700D01*
X76018573Y-46338721D01*
X76018567Y-46338724D01*
X75913996Y-46405927D01*
X75913991Y-46405931D01*
X75832586Y-46499879D01*
X75780946Y-46612955D01*
X75780944Y-46612961D01*
X75763255Y-46735996D01*
X75763255Y-46736003D01*
X75780944Y-46859038D01*
X75780945Y-46859044D01*
X75782364Y-46862150D01*
X75783704Y-46865084D01*
X75788470Y-46925021D01*
X75753594Y-46974000D01*
X75703748Y-46989500D01*
X63628249Y-46989500D01*
X63571748Y-46968935D01*
X63541684Y-46916864D01*
X63541431Y-46887853D01*
X63543399Y-46875421D01*
X63543400Y-46875414D01*
X63543400Y-46786801D01*
X63543399Y-46786800D01*
X62980300Y-46786800D01*
X62923799Y-46766235D01*
X62893735Y-46714164D01*
X62892400Y-46698900D01*
X62892400Y-46085801D01*
X63146400Y-46085801D01*
X63146400Y-46532799D01*
X63146401Y-46532800D01*
X63543399Y-46532800D01*
X63543400Y-46532799D01*
X63543400Y-46444185D01*
X63528973Y-46353095D01*
X63473032Y-46243303D01*
X63385896Y-46156167D01*
X63276104Y-46100226D01*
X63276105Y-46100226D01*
X63185015Y-46085800D01*
X63146401Y-46085800D01*
X63146400Y-46085801D01*
X62892400Y-46085801D01*
X62892399Y-46085800D01*
X62853785Y-46085800D01*
X62762695Y-46100226D01*
X62652903Y-46156167D01*
X62571908Y-46237163D01*
X62517414Y-46262574D01*
X62459336Y-46247011D01*
X62447604Y-46237168D01*
X62366196Y-46155760D01*
X62366193Y-46155758D01*
X62256260Y-46099745D01*
X62256261Y-46099745D01*
X62189992Y-46089250D01*
X62165053Y-46085300D01*
X62165051Y-46085300D01*
X61833749Y-46085300D01*
X61833741Y-46085301D01*
X61823647Y-46086900D01*
X61764625Y-46075425D01*
X61726788Y-46028696D01*
X61722000Y-46000082D01*
X61722000Y-45250939D01*
X61742565Y-45194438D01*
X61794636Y-45164374D01*
X61853850Y-45174815D01*
X61872055Y-45188784D01*
X61941703Y-45258432D01*
X62051495Y-45314373D01*
X62051494Y-45314373D01*
X62142585Y-45328799D01*
X62142586Y-45328800D01*
X62181199Y-45328800D01*
X62181200Y-45328799D01*
X62181200Y-44881801D01*
X62435200Y-44881801D01*
X62435200Y-45328799D01*
X62435201Y-45328800D01*
X62473814Y-45328800D01*
X62473814Y-45328799D01*
X62564904Y-45314373D01*
X62674696Y-45258432D01*
X62761832Y-45171296D01*
X62817773Y-45061504D01*
X62832199Y-44970414D01*
X62832200Y-44970414D01*
X62832200Y-44881801D01*
X62832199Y-44881800D01*
X62435201Y-44881800D01*
X62435200Y-44881801D01*
X62181200Y-44881801D01*
X62181200Y-44180801D01*
X62435200Y-44180801D01*
X62435200Y-44627799D01*
X62435201Y-44627800D01*
X62832199Y-44627800D01*
X62832200Y-44627799D01*
X62832200Y-44539185D01*
X62817773Y-44448095D01*
X62761832Y-44338303D01*
X62674696Y-44251167D01*
X62564904Y-44195226D01*
X62564905Y-44195226D01*
X62473815Y-44180800D01*
X62435201Y-44180800D01*
X62435200Y-44180801D01*
X62181200Y-44180801D01*
X62181199Y-44180800D01*
X62142585Y-44180800D01*
X62051495Y-44195226D01*
X61941703Y-44251167D01*
X61872055Y-44320816D01*
X61817561Y-44346227D01*
X61759483Y-44330664D01*
X61724995Y-44281411D01*
X61722000Y-44258661D01*
X61722000Y-43530213D01*
X64680600Y-43530213D01*
X64680600Y-43744187D01*
X64695683Y-43839423D01*
X64704780Y-43896862D01*
X64714072Y-43955527D01*
X64780194Y-44159029D01*
X64817869Y-44232971D01*
X64877336Y-44349682D01*
X65003107Y-44522790D01*
X65154409Y-44674092D01*
X65327517Y-44799863D01*
X65327519Y-44799864D01*
X65518171Y-44897006D01*
X65721673Y-44963128D01*
X65933013Y-44996600D01*
X65933015Y-44996600D01*
X66146985Y-44996600D01*
X66146987Y-44996600D01*
X66358327Y-44963128D01*
X66561829Y-44897006D01*
X66752481Y-44799864D01*
X66925590Y-44674093D01*
X67076893Y-44522790D01*
X67076893Y-44522789D01*
X67079335Y-44520348D01*
X67080674Y-44521687D01*
X67127480Y-44495160D01*
X67186609Y-44506074D01*
X67224889Y-44552441D01*
X67228870Y-44595593D01*
X67220600Y-44647811D01*
X67220600Y-44861785D01*
X67254071Y-45073123D01*
X67311846Y-45250939D01*
X67320194Y-45276629D01*
X67347031Y-45329299D01*
X67417336Y-45467282D01*
X67543107Y-45640390D01*
X67694409Y-45791692D01*
X67867517Y-45917463D01*
X67867519Y-45917464D01*
X68058171Y-46014606D01*
X68261673Y-46080728D01*
X68473013Y-46114200D01*
X68473015Y-46114200D01*
X68686985Y-46114200D01*
X68686987Y-46114200D01*
X68898327Y-46080728D01*
X69101829Y-46014606D01*
X69292481Y-45917464D01*
X69465590Y-45791693D01*
X69616893Y-45640390D01*
X69742664Y-45467281D01*
X69839806Y-45276629D01*
X69905928Y-45073127D01*
X69939400Y-44861787D01*
X69939400Y-44647813D01*
X69931129Y-44595592D01*
X69942602Y-44536572D01*
X69989329Y-44498733D01*
X70049447Y-44499782D01*
X70079790Y-44521222D01*
X70080665Y-44520348D01*
X70234409Y-44674092D01*
X70407517Y-44799863D01*
X70407519Y-44799864D01*
X70598171Y-44897006D01*
X70801673Y-44963128D01*
X71013013Y-44996600D01*
X71013015Y-44996600D01*
X71226985Y-44996600D01*
X71226987Y-44996600D01*
X71438327Y-44963128D01*
X71641829Y-44897006D01*
X71832481Y-44799864D01*
X72005590Y-44674093D01*
X72156893Y-44522790D01*
X72282664Y-44349681D01*
X72379806Y-44159029D01*
X72445928Y-43955527D01*
X72479400Y-43744187D01*
X72479400Y-43530213D01*
X79920600Y-43530213D01*
X79920600Y-43744187D01*
X79935683Y-43839423D01*
X79944780Y-43896862D01*
X79954072Y-43955527D01*
X80020194Y-44159029D01*
X80057869Y-44232971D01*
X80117336Y-44349682D01*
X80243107Y-44522790D01*
X80394409Y-44674092D01*
X80567517Y-44799863D01*
X80567519Y-44799864D01*
X80758171Y-44897006D01*
X80961673Y-44963128D01*
X81173013Y-44996600D01*
X81173015Y-44996600D01*
X81386985Y-44996600D01*
X81386987Y-44996600D01*
X81598327Y-44963128D01*
X81801829Y-44897006D01*
X81992481Y-44799864D01*
X82165590Y-44674093D01*
X82316893Y-44522790D01*
X82316893Y-44522789D01*
X82319335Y-44520348D01*
X82320674Y-44521687D01*
X82367480Y-44495160D01*
X82426609Y-44506074D01*
X82464889Y-44552441D01*
X82468870Y-44595593D01*
X82460600Y-44647811D01*
X82460600Y-44861785D01*
X82494071Y-45073123D01*
X82551846Y-45250939D01*
X82560194Y-45276629D01*
X82587031Y-45329299D01*
X82657336Y-45467282D01*
X82783107Y-45640390D01*
X82934409Y-45791692D01*
X83107517Y-45917463D01*
X83107519Y-45917464D01*
X83298171Y-46014606D01*
X83501673Y-46080728D01*
X83713013Y-46114200D01*
X83713015Y-46114200D01*
X83926985Y-46114200D01*
X83926987Y-46114200D01*
X84138327Y-46080728D01*
X84341829Y-46014606D01*
X84532481Y-45917464D01*
X84705590Y-45791693D01*
X84856893Y-45640390D01*
X84982664Y-45467281D01*
X85079806Y-45276629D01*
X85145928Y-45073127D01*
X85179400Y-44861787D01*
X85179400Y-44647813D01*
X85171129Y-44595592D01*
X85182602Y-44536572D01*
X85229329Y-44498733D01*
X85289447Y-44499782D01*
X85319790Y-44521222D01*
X85320665Y-44520348D01*
X85474409Y-44674092D01*
X85647517Y-44799863D01*
X85647519Y-44799864D01*
X85838171Y-44897006D01*
X86041673Y-44963128D01*
X86253013Y-44996600D01*
X86253015Y-44996600D01*
X86466985Y-44996600D01*
X86466987Y-44996600D01*
X86678327Y-44963128D01*
X86881829Y-44897006D01*
X87072481Y-44799864D01*
X87245590Y-44674093D01*
X87396893Y-44522790D01*
X87522664Y-44349681D01*
X87619806Y-44159029D01*
X87685928Y-43955527D01*
X87719400Y-43744187D01*
X87719400Y-43530213D01*
X87685928Y-43318873D01*
X87619806Y-43115371D01*
X87522664Y-42924719D01*
X87497085Y-42889513D01*
X87396892Y-42751609D01*
X87245590Y-42600307D01*
X87072482Y-42474536D01*
X86980588Y-42427714D01*
X86881829Y-42377394D01*
X86881826Y-42377393D01*
X86881824Y-42377392D01*
X86768661Y-42340623D01*
X86678327Y-42311272D01*
X86678325Y-42311271D01*
X86678323Y-42311271D01*
X86530758Y-42287900D01*
X86466987Y-42277800D01*
X86253013Y-42277800D01*
X86204024Y-42285558D01*
X86041676Y-42311271D01*
X85838175Y-42377392D01*
X85647517Y-42474536D01*
X85474409Y-42600307D01*
X85323107Y-42751609D01*
X85197336Y-42924717D01*
X85100192Y-43115375D01*
X85034071Y-43318876D01*
X85000600Y-43530214D01*
X85000600Y-43744187D01*
X85008870Y-43796406D01*
X84997396Y-43855428D01*
X84950668Y-43893266D01*
X84890550Y-43892216D01*
X84860212Y-43870774D01*
X84859335Y-43871652D01*
X84705590Y-43717907D01*
X84532482Y-43592136D01*
X84410950Y-43530213D01*
X84341829Y-43494994D01*
X84341826Y-43494993D01*
X84341824Y-43494992D01*
X84228661Y-43458223D01*
X84138327Y-43428872D01*
X84138325Y-43428871D01*
X84138323Y-43428871D01*
X83990758Y-43405500D01*
X83926987Y-43395400D01*
X83713013Y-43395400D01*
X83664024Y-43403158D01*
X83501676Y-43428871D01*
X83298175Y-43494992D01*
X83107517Y-43592136D01*
X82934409Y-43717907D01*
X82780665Y-43871652D01*
X82779353Y-43870340D01*
X82732377Y-43896862D01*
X82673267Y-43885852D01*
X82635063Y-43839423D01*
X82631129Y-43796407D01*
X82639400Y-43744187D01*
X82639400Y-43530213D01*
X82605928Y-43318873D01*
X82539806Y-43115371D01*
X82442664Y-42924719D01*
X82417085Y-42889513D01*
X82316892Y-42751609D01*
X82165590Y-42600307D01*
X81992482Y-42474536D01*
X81900588Y-42427714D01*
X81801829Y-42377394D01*
X81801826Y-42377393D01*
X81801824Y-42377392D01*
X81688661Y-42340623D01*
X81598327Y-42311272D01*
X81598325Y-42311271D01*
X81598323Y-42311271D01*
X81450758Y-42287900D01*
X81386987Y-42277800D01*
X81173013Y-42277800D01*
X81124024Y-42285558D01*
X80961676Y-42311271D01*
X80758175Y-42377392D01*
X80567517Y-42474536D01*
X80394409Y-42600307D01*
X80243107Y-42751609D01*
X80117336Y-42924717D01*
X80020192Y-43115375D01*
X79954071Y-43318876D01*
X79936650Y-43428872D01*
X79920600Y-43530213D01*
X72479400Y-43530213D01*
X72445928Y-43318873D01*
X72379806Y-43115371D01*
X72282664Y-42924719D01*
X72257085Y-42889513D01*
X72156892Y-42751609D01*
X72005590Y-42600307D01*
X71832482Y-42474536D01*
X71740588Y-42427714D01*
X71641829Y-42377394D01*
X71641826Y-42377393D01*
X71641824Y-42377392D01*
X71528661Y-42340623D01*
X71438327Y-42311272D01*
X71438325Y-42311271D01*
X71438323Y-42311271D01*
X71290758Y-42287900D01*
X71226987Y-42277800D01*
X71013013Y-42277800D01*
X70964024Y-42285558D01*
X70801676Y-42311271D01*
X70598175Y-42377392D01*
X70407517Y-42474536D01*
X70234409Y-42600307D01*
X70083107Y-42751609D01*
X69957336Y-42924717D01*
X69860192Y-43115375D01*
X69794071Y-43318876D01*
X69760600Y-43530214D01*
X69760600Y-43744187D01*
X69768870Y-43796406D01*
X69757396Y-43855428D01*
X69710668Y-43893266D01*
X69650550Y-43892216D01*
X69620212Y-43870774D01*
X69619335Y-43871652D01*
X69465590Y-43717907D01*
X69292482Y-43592136D01*
X69170950Y-43530213D01*
X69101829Y-43494994D01*
X69101826Y-43494993D01*
X69101824Y-43494992D01*
X68988661Y-43458223D01*
X68898327Y-43428872D01*
X68898325Y-43428871D01*
X68898323Y-43428871D01*
X68750758Y-43405500D01*
X68686987Y-43395400D01*
X68473013Y-43395400D01*
X68424024Y-43403158D01*
X68261676Y-43428871D01*
X68058175Y-43494992D01*
X67867517Y-43592136D01*
X67694409Y-43717907D01*
X67540665Y-43871652D01*
X67539353Y-43870340D01*
X67492377Y-43896862D01*
X67433267Y-43885852D01*
X67395063Y-43839423D01*
X67391129Y-43796407D01*
X67399400Y-43744187D01*
X67399400Y-43530213D01*
X67365928Y-43318873D01*
X67299806Y-43115371D01*
X67202664Y-42924719D01*
X67177085Y-42889513D01*
X67076892Y-42751609D01*
X66925590Y-42600307D01*
X66752482Y-42474536D01*
X66660588Y-42427714D01*
X66561829Y-42377394D01*
X66561826Y-42377393D01*
X66561824Y-42377392D01*
X66448661Y-42340623D01*
X66358327Y-42311272D01*
X66358325Y-42311271D01*
X66358323Y-42311271D01*
X66210758Y-42287900D01*
X66146987Y-42277800D01*
X65933013Y-42277800D01*
X65884024Y-42285558D01*
X65721676Y-42311271D01*
X65518175Y-42377392D01*
X65327517Y-42474536D01*
X65154409Y-42600307D01*
X65003107Y-42751609D01*
X64877336Y-42924717D01*
X64780192Y-43115375D01*
X64714071Y-43318876D01*
X64696650Y-43428872D01*
X64680600Y-43530213D01*
X61722000Y-43530213D01*
X61722000Y-43129819D01*
X61742565Y-43073318D01*
X61794636Y-43043254D01*
X61827047Y-43043608D01*
X61832533Y-43044700D01*
X62582666Y-43044699D01*
X62582668Y-43044699D01*
X62601161Y-43041020D01*
X62656901Y-43029934D01*
X62741084Y-42973684D01*
X62797334Y-42889501D01*
X62812100Y-42815267D01*
X62812099Y-42345134D01*
X62812099Y-42345133D01*
X62812099Y-42345131D01*
X62805364Y-42311271D01*
X62797334Y-42270899D01*
X62741084Y-42186716D01*
X62740698Y-42186458D01*
X62656901Y-42130465D01*
X62603792Y-42119902D01*
X62582667Y-42115700D01*
X62582665Y-42115700D01*
X61832530Y-42115700D01*
X61832526Y-42115701D01*
X61827041Y-42116792D01*
X61767615Y-42107641D01*
X61727974Y-42062432D01*
X61722000Y-42030580D01*
X61722000Y-40195501D01*
X64973201Y-40195501D01*
X64973201Y-40715818D01*
X64987937Y-40789906D01*
X65044075Y-40873922D01*
X65044077Y-40873924D01*
X65128094Y-40930062D01*
X65202181Y-40944799D01*
X65722498Y-40944799D01*
X65722500Y-40944798D01*
X65722500Y-40195501D01*
X65722499Y-40195500D01*
X64973202Y-40195500D01*
X64973201Y-40195501D01*
X61722000Y-40195501D01*
X61722000Y-39824496D01*
X65633600Y-39824496D01*
X65633600Y-39931504D01*
X65661295Y-40034865D01*
X65714799Y-40127536D01*
X65790464Y-40203201D01*
X65883135Y-40256705D01*
X65986496Y-40284400D01*
X66093504Y-40284400D01*
X66196865Y-40256705D01*
X66289536Y-40203201D01*
X66297236Y-40195501D01*
X66357500Y-40195501D01*
X66357500Y-40944798D01*
X66357501Y-40944799D01*
X66877818Y-40944799D01*
X66951906Y-40930062D01*
X67035922Y-40873924D01*
X67035924Y-40873922D01*
X67092062Y-40789905D01*
X67106800Y-40715815D01*
X67106800Y-40195501D01*
X67106799Y-40195500D01*
X66357501Y-40195500D01*
X66357500Y-40195501D01*
X66297236Y-40195501D01*
X66335003Y-40157734D01*
X67512700Y-40157734D01*
X67512700Y-41833468D01*
X67525626Y-41898453D01*
X67527466Y-41907701D01*
X67583716Y-41991884D01*
X67611905Y-42010719D01*
X67667898Y-42048134D01*
X67678461Y-42050235D01*
X67742133Y-42062900D01*
X69417866Y-42062899D01*
X69417868Y-42062899D01*
X69436361Y-42059220D01*
X69492101Y-42048134D01*
X69576284Y-41991884D01*
X69632534Y-41907701D01*
X69647300Y-41833467D01*
X69647299Y-40157734D01*
X69647299Y-40157733D01*
X69647299Y-40157731D01*
X69641293Y-40127536D01*
X69632534Y-40083499D01*
X69576284Y-39999316D01*
X69575898Y-39999058D01*
X69492101Y-39943065D01*
X69438992Y-39932502D01*
X69417867Y-39928300D01*
X69417865Y-39928300D01*
X67742131Y-39928300D01*
X67667899Y-39943066D01*
X67583717Y-39999315D01*
X67583714Y-39999318D01*
X67527465Y-40083498D01*
X67514801Y-40147170D01*
X67512701Y-40157731D01*
X67512700Y-40157734D01*
X66335003Y-40157734D01*
X66365201Y-40127536D01*
X66418705Y-40034865D01*
X66446400Y-39931504D01*
X66446400Y-39824496D01*
X66418705Y-39721135D01*
X66365201Y-39628464D01*
X66289536Y-39552799D01*
X66196865Y-39499295D01*
X66093504Y-39471600D01*
X65986496Y-39471600D01*
X65883135Y-39499295D01*
X65790464Y-39552799D01*
X65714799Y-39628464D01*
X65661295Y-39721135D01*
X65633600Y-39824496D01*
X61722000Y-39824496D01*
X61722000Y-39774904D01*
X61742565Y-39718403D01*
X61776269Y-39693692D01*
X61778094Y-39692935D01*
X61778101Y-39692934D01*
X61779961Y-39691690D01*
X61782750Y-39691008D01*
X61786107Y-39689618D01*
X61786320Y-39690134D01*
X61838363Y-39677396D01*
X61877637Y-39691690D01*
X61879499Y-39692934D01*
X61953733Y-39707700D01*
X62353866Y-39707699D01*
X62353868Y-39707699D01*
X62403356Y-39697855D01*
X62428101Y-39692934D01*
X62430410Y-39691390D01*
X62433876Y-39690542D01*
X62436103Y-39689620D01*
X62436244Y-39689962D01*
X62488811Y-39677095D01*
X62528089Y-39691389D01*
X62529696Y-39692463D01*
X62603781Y-39707199D01*
X62628800Y-39707199D01*
X62628800Y-39388201D01*
X62978800Y-39388201D01*
X62978800Y-39707198D01*
X62978801Y-39707199D01*
X63003818Y-39707199D01*
X63077906Y-39692462D01*
X63161922Y-39636324D01*
X63161924Y-39636322D01*
X63218062Y-39552305D01*
X63232800Y-39478215D01*
X63232800Y-39388201D01*
X63232799Y-39388200D01*
X62978801Y-39388200D01*
X62978800Y-39388201D01*
X62628800Y-39388201D01*
X62628800Y-39126100D01*
X62649365Y-39069599D01*
X62700312Y-39040184D01*
X64973200Y-39040184D01*
X64973200Y-39560499D01*
X64973201Y-39560500D01*
X65722499Y-39560500D01*
X65722500Y-39560499D01*
X65722500Y-38811201D01*
X66357500Y-38811201D01*
X66357500Y-39560499D01*
X66357501Y-39560500D01*
X67106798Y-39560500D01*
X67106799Y-39560499D01*
X67106799Y-39040181D01*
X67106790Y-39040134D01*
X70052700Y-39040134D01*
X70052700Y-40715868D01*
X70065626Y-40780853D01*
X70067466Y-40790101D01*
X70123716Y-40874284D01*
X70151905Y-40893119D01*
X70207898Y-40930534D01*
X70218461Y-40932635D01*
X70282133Y-40945300D01*
X71957866Y-40945299D01*
X71957868Y-40945299D01*
X71976361Y-40941620D01*
X72032101Y-40930534D01*
X72116284Y-40874284D01*
X72172534Y-40790101D01*
X72187300Y-40715867D01*
X72187299Y-39855998D01*
X72207864Y-39799498D01*
X72259935Y-39769434D01*
X72275199Y-39768099D01*
X72340467Y-39768099D01*
X72348526Y-39766495D01*
X72398255Y-39756605D01*
X72432543Y-39756605D01*
X72490333Y-39768100D01*
X72501373Y-39768099D01*
X72557874Y-39788660D01*
X72587941Y-39840730D01*
X72588854Y-39864612D01*
X72587536Y-39877997D01*
X72587536Y-39878000D01*
X72599484Y-39999315D01*
X72608144Y-40087233D01*
X72669170Y-40288409D01*
X72669170Y-40288410D01*
X72669171Y-40288413D01*
X72669172Y-40288414D01*
X72768279Y-40473829D01*
X72901653Y-40636347D01*
X73064171Y-40769721D01*
X73249586Y-40868828D01*
X73249588Y-40868828D01*
X73249589Y-40868829D01*
X73267565Y-40874282D01*
X73450773Y-40929857D01*
X73660000Y-40950464D01*
X73869227Y-40929857D01*
X74070414Y-40868828D01*
X74255829Y-40769721D01*
X74418347Y-40636347D01*
X74551721Y-40473829D01*
X74650828Y-40288414D01*
X74711857Y-40087227D01*
X74732464Y-39878000D01*
X75127536Y-39878000D01*
X75139484Y-39999315D01*
X75148144Y-40087233D01*
X75209170Y-40288409D01*
X75209170Y-40288410D01*
X75209171Y-40288413D01*
X75209172Y-40288414D01*
X75308279Y-40473829D01*
X75441653Y-40636347D01*
X75604171Y-40769721D01*
X75789586Y-40868828D01*
X75789588Y-40868828D01*
X75789589Y-40868829D01*
X75807565Y-40874282D01*
X75990773Y-40929857D01*
X76200000Y-40950464D01*
X76409227Y-40929857D01*
X76610414Y-40868828D01*
X76795829Y-40769721D01*
X76958347Y-40636347D01*
X77091721Y-40473829D01*
X77190828Y-40288414D01*
X77251857Y-40087227D01*
X77272464Y-39878000D01*
X77667536Y-39878000D01*
X77679484Y-39999315D01*
X77688144Y-40087233D01*
X77749170Y-40288409D01*
X77749170Y-40288410D01*
X77749171Y-40288413D01*
X77749172Y-40288414D01*
X77848279Y-40473829D01*
X77981653Y-40636347D01*
X78144171Y-40769721D01*
X78329586Y-40868828D01*
X78329588Y-40868828D01*
X78329589Y-40868829D01*
X78347565Y-40874282D01*
X78530773Y-40929857D01*
X78740000Y-40950464D01*
X78949227Y-40929857D01*
X79150414Y-40868828D01*
X79335829Y-40769721D01*
X79498347Y-40636347D01*
X79631721Y-40473829D01*
X79730828Y-40288414D01*
X79791857Y-40087227D01*
X79812464Y-39878000D01*
X79791857Y-39668773D01*
X79779629Y-39628464D01*
X79756677Y-39552799D01*
X79730828Y-39467586D01*
X79631721Y-39282171D01*
X79498347Y-39119653D01*
X79335829Y-38986279D01*
X79150414Y-38887172D01*
X79150413Y-38887171D01*
X79150410Y-38887170D01*
X78949233Y-38826144D01*
X78949228Y-38826143D01*
X78949227Y-38826143D01*
X78740000Y-38805536D01*
X78530773Y-38826143D01*
X78530771Y-38826143D01*
X78530766Y-38826144D01*
X78329590Y-38887170D01*
X78329589Y-38887170D01*
X78144170Y-38986279D01*
X77981655Y-39119651D01*
X77981651Y-39119655D01*
X77848279Y-39282170D01*
X77749170Y-39467589D01*
X77749170Y-39467590D01*
X77688144Y-39668766D01*
X77688143Y-39668771D01*
X77688143Y-39668773D01*
X77667536Y-39878000D01*
X77272464Y-39878000D01*
X77251857Y-39668773D01*
X77239629Y-39628464D01*
X77216677Y-39552799D01*
X77190828Y-39467586D01*
X77091721Y-39282171D01*
X76958347Y-39119653D01*
X76795829Y-38986279D01*
X76610414Y-38887172D01*
X76610413Y-38887171D01*
X76610410Y-38887170D01*
X76409233Y-38826144D01*
X76409228Y-38826143D01*
X76409227Y-38826143D01*
X76200000Y-38805536D01*
X75990773Y-38826143D01*
X75990771Y-38826143D01*
X75990766Y-38826144D01*
X75789590Y-38887170D01*
X75789589Y-38887170D01*
X75604170Y-38986279D01*
X75441655Y-39119651D01*
X75441651Y-39119655D01*
X75308279Y-39282170D01*
X75209170Y-39467589D01*
X75209170Y-39467590D01*
X75148144Y-39668766D01*
X75148143Y-39668771D01*
X75148143Y-39668773D01*
X75127536Y-39878000D01*
X74732464Y-39878000D01*
X74711857Y-39668773D01*
X74699629Y-39628464D01*
X74676677Y-39552799D01*
X74650828Y-39467586D01*
X74551721Y-39282171D01*
X74418347Y-39119653D01*
X74255829Y-38986279D01*
X74070414Y-38887172D01*
X74070413Y-38887171D01*
X74070410Y-38887170D01*
X73869233Y-38826144D01*
X73869228Y-38826143D01*
X73869227Y-38826143D01*
X73660000Y-38805536D01*
X73659999Y-38805536D01*
X73474196Y-38823836D01*
X73415951Y-38808908D01*
X73380928Y-38760034D01*
X73385515Y-38700082D01*
X73418056Y-38662414D01*
X73463407Y-38633270D01*
X73544813Y-38539322D01*
X73596454Y-38426245D01*
X73614145Y-38303200D01*
X73614145Y-38303196D01*
X73596455Y-38180161D01*
X73596454Y-38180160D01*
X73596454Y-38180155D01*
X73544813Y-38067078D01*
X73463407Y-37973130D01*
X73463405Y-37973129D01*
X73463403Y-37973127D01*
X73358832Y-37905924D01*
X73358826Y-37905921D01*
X73239559Y-37870900D01*
X73239555Y-37870900D01*
X73115245Y-37870900D01*
X73115240Y-37870900D01*
X72995973Y-37905921D01*
X72995967Y-37905924D01*
X72891396Y-37973127D01*
X72891391Y-37973131D01*
X72809986Y-38067079D01*
X72802007Y-38084550D01*
X72791427Y-38107716D01*
X72749251Y-38150567D01*
X72711472Y-38159100D01*
X72119328Y-38159100D01*
X72062827Y-38138535D01*
X72039371Y-38107715D01*
X72020813Y-38067079D01*
X72020813Y-38067078D01*
X71939407Y-37973130D01*
X71939405Y-37973129D01*
X71939403Y-37973127D01*
X71834832Y-37905924D01*
X71834826Y-37905921D01*
X71715559Y-37870900D01*
X71715555Y-37870900D01*
X71591245Y-37870900D01*
X71591240Y-37870900D01*
X71471973Y-37905921D01*
X71471967Y-37905924D01*
X71367396Y-37973127D01*
X71367391Y-37973131D01*
X71285986Y-38067079D01*
X71234346Y-38180155D01*
X71234344Y-38180161D01*
X71216655Y-38303196D01*
X71216655Y-38303203D01*
X71234344Y-38426238D01*
X71234345Y-38426243D01*
X71234346Y-38426245D01*
X71285987Y-38539322D01*
X71367393Y-38633270D01*
X71367395Y-38633271D01*
X71367396Y-38633272D01*
X71391642Y-38648854D01*
X71428056Y-38696701D01*
X71425195Y-38756760D01*
X71384398Y-38800929D01*
X71344120Y-38810700D01*
X70282131Y-38810700D01*
X70207899Y-38825466D01*
X70123717Y-38881715D01*
X70123714Y-38881718D01*
X70067465Y-38965898D01*
X70054801Y-39029570D01*
X70053085Y-39038200D01*
X70052700Y-39040134D01*
X67106790Y-39040134D01*
X67092062Y-38966093D01*
X67035924Y-38882077D01*
X67035922Y-38882075D01*
X66951905Y-38825937D01*
X66877815Y-38811200D01*
X66357501Y-38811200D01*
X66357500Y-38811201D01*
X65722500Y-38811201D01*
X65722499Y-38811200D01*
X65202181Y-38811200D01*
X65128093Y-38825937D01*
X65044077Y-38882075D01*
X65044075Y-38882077D01*
X64987937Y-38966094D01*
X64973200Y-39040184D01*
X62700312Y-39040184D01*
X62701436Y-39039535D01*
X62716700Y-39038200D01*
X63232798Y-39038200D01*
X63232799Y-39038199D01*
X63232799Y-38948180D01*
X63222048Y-38894128D01*
X63222048Y-38859833D01*
X63233300Y-38803267D01*
X63233300Y-38469799D01*
X65378814Y-38469799D01*
X66388785Y-38469799D01*
X65883799Y-37964813D01*
X65378814Y-38469799D01*
X63233300Y-38469799D01*
X63233299Y-37803134D01*
X63233299Y-37803133D01*
X63233299Y-37803131D01*
X63222048Y-37746566D01*
X63222048Y-37712270D01*
X63232800Y-37658215D01*
X63232800Y-37568201D01*
X63232799Y-37568200D01*
X62716700Y-37568200D01*
X62660199Y-37547635D01*
X62630135Y-37495564D01*
X62628800Y-37480300D01*
X62628800Y-37306100D01*
X62649365Y-37249599D01*
X62701436Y-37219535D01*
X62716700Y-37218200D01*
X63232798Y-37218200D01*
X63232799Y-37218199D01*
X63232799Y-37128183D01*
X63224166Y-37084784D01*
X63233312Y-37025357D01*
X63270472Y-36989315D01*
X63363871Y-36941727D01*
X63452127Y-36853471D01*
X63508787Y-36742268D01*
X63523399Y-36650005D01*
X63523400Y-36650005D01*
X63523400Y-36576001D01*
X63523399Y-36576000D01*
X62950300Y-36576000D01*
X62893799Y-36555435D01*
X62863735Y-36503364D01*
X62862400Y-36488100D01*
X62862400Y-35885001D01*
X63116400Y-35885001D01*
X63116400Y-36321999D01*
X63116401Y-36322000D01*
X63523398Y-36322000D01*
X63523399Y-36321999D01*
X63523399Y-36247995D01*
X63523398Y-36247993D01*
X63508787Y-36155732D01*
X63508786Y-36155729D01*
X63452127Y-36044528D01*
X63363871Y-35956272D01*
X63252668Y-35899612D01*
X63252669Y-35899612D01*
X63160406Y-35885000D01*
X63116401Y-35885000D01*
X63116400Y-35885001D01*
X62862400Y-35885001D01*
X62862400Y-35884999D01*
X62818397Y-35885000D01*
X62818392Y-35885001D01*
X62726132Y-35899612D01*
X62726129Y-35899613D01*
X62614928Y-35956272D01*
X62571908Y-35999293D01*
X62517414Y-36024704D01*
X62459336Y-36009141D01*
X62447604Y-35999298D01*
X62404171Y-35955865D01*
X62404168Y-35955863D01*
X62404167Y-35955862D01*
X62292827Y-35899131D01*
X62211462Y-35886245D01*
X62200445Y-35884500D01*
X62200444Y-35884500D01*
X61858357Y-35884500D01*
X61858355Y-35884501D01*
X61765973Y-35899131D01*
X61765972Y-35899131D01*
X61654632Y-35955862D01*
X61566262Y-36044232D01*
X61509531Y-36155572D01*
X61509531Y-36155573D01*
X61494900Y-36247955D01*
X61494900Y-36650042D01*
X61494901Y-36650044D01*
X61509531Y-36742426D01*
X61509531Y-36742427D01*
X61566262Y-36853767D01*
X61566263Y-36853768D01*
X61566265Y-36853771D01*
X61653055Y-36940561D01*
X61678466Y-36995054D01*
X61678800Y-37002715D01*
X61678800Y-37480300D01*
X61658235Y-37536801D01*
X61606164Y-37566865D01*
X61590900Y-37568200D01*
X61416700Y-37568200D01*
X61360199Y-37547635D01*
X61330135Y-37495564D01*
X61328800Y-37480300D01*
X61328800Y-36899200D01*
X61303784Y-36899200D01*
X61229693Y-36913937D01*
X61229689Y-36913938D01*
X61223731Y-36917920D01*
X61165326Y-36932209D01*
X61111401Y-36905613D01*
X61087188Y-36850577D01*
X61087000Y-36844832D01*
X61087000Y-35673928D01*
X61107565Y-35617427D01*
X61159636Y-35587363D01*
X61175513Y-35586030D01*
X64263713Y-35607937D01*
G37*
%TD.AperFunction*%
%TD*%
%TA.AperFunction,Conductor*%
%TO.N,/Block Diagram/VOUT2*%
G36*
X67984159Y-28371742D02*
G01*
X68040645Y-28392344D01*
X68070675Y-28444435D01*
X68072000Y-28459642D01*
X68072000Y-29707774D01*
X68066458Y-29738491D01*
X68045361Y-29795055D01*
X68045358Y-29795068D01*
X68038900Y-29855136D01*
X68038900Y-30901649D01*
X68038901Y-30901654D01*
X68045360Y-30961742D01*
X68066458Y-31018307D01*
X68072000Y-31049025D01*
X68072000Y-31688974D01*
X68066458Y-31719691D01*
X68045361Y-31776255D01*
X68045358Y-31776268D01*
X68038900Y-31836336D01*
X68038900Y-32882849D01*
X68040135Y-32894335D01*
X68045360Y-32942942D01*
X68059518Y-32980900D01*
X68066458Y-32999507D01*
X68072000Y-33030225D01*
X68072000Y-33670174D01*
X68066458Y-33700891D01*
X68045361Y-33757455D01*
X68045358Y-33757468D01*
X68038900Y-33817536D01*
X68038900Y-34864049D01*
X68038901Y-34864054D01*
X68045360Y-34924142D01*
X68057428Y-34956497D01*
X68066458Y-34980707D01*
X68072000Y-35011425D01*
X68072000Y-35026600D01*
X68072001Y-35026600D01*
X68076939Y-35031538D01*
X68092070Y-35055079D01*
X68093044Y-35054548D01*
X68096057Y-35060066D01*
X68096058Y-35060067D01*
X68182996Y-35176204D01*
X68299133Y-35263142D01*
X68435058Y-35313840D01*
X68495145Y-35320300D01*
X69091654Y-35320299D01*
X69151742Y-35313840D01*
X69287667Y-35263142D01*
X69403804Y-35176204D01*
X69489427Y-35061824D01*
X69539750Y-35028916D01*
X69559795Y-35026600D01*
X69646799Y-35026600D01*
X69646800Y-35026600D01*
X69646800Y-32980900D01*
X69667365Y-32924399D01*
X69719436Y-32894335D01*
X69734700Y-32893000D01*
X71641700Y-32893000D01*
X71698201Y-32913565D01*
X71728265Y-32965636D01*
X71729600Y-32980900D01*
X71729600Y-36259171D01*
X71709035Y-36315672D01*
X71656964Y-36345736D01*
X71641372Y-36347070D01*
X65009972Y-36322326D01*
X64953548Y-36301551D01*
X64923679Y-36249368D01*
X64922400Y-36234427D01*
X64922400Y-35585399D01*
X63907469Y-35179427D01*
X63905344Y-35178545D01*
X63617275Y-35054365D01*
X63573532Y-35013115D01*
X63565862Y-34956499D01*
X63567500Y-34948267D01*
X63567500Y-34416212D01*
X64449000Y-34416212D01*
X64449000Y-34948218D01*
X64463737Y-35022306D01*
X64519875Y-35106322D01*
X64519877Y-35106324D01*
X64603894Y-35162462D01*
X64677981Y-35177199D01*
X65708018Y-35177199D01*
X65782106Y-35162462D01*
X65866122Y-35106324D01*
X65866124Y-35106322D01*
X65922262Y-35022305D01*
X65936999Y-34948218D01*
X65936999Y-34658301D01*
X66139401Y-34658301D01*
X66139401Y-34864005D01*
X66145853Y-34924037D01*
X66196500Y-35059824D01*
X66283351Y-35175844D01*
X66283355Y-35175848D01*
X66399375Y-35262699D01*
X66535165Y-35313346D01*
X66535167Y-35313347D01*
X66575900Y-35317725D01*
X66575900Y-34658301D01*
X67210900Y-34658301D01*
X67210900Y-35317724D01*
X67251637Y-35313346D01*
X67387424Y-35262699D01*
X67503444Y-35175848D01*
X67503448Y-35175844D01*
X67590299Y-35059824D01*
X67640946Y-34924034D01*
X67640948Y-34924024D01*
X67647399Y-34864019D01*
X67647400Y-34864010D01*
X67647400Y-34658301D01*
X67647399Y-34658300D01*
X67210901Y-34658300D01*
X67210900Y-34658301D01*
X66575900Y-34658301D01*
X66575899Y-34658300D01*
X66139402Y-34658300D01*
X66139401Y-34658301D01*
X65936999Y-34658301D01*
X65936999Y-34416213D01*
X65338366Y-33817580D01*
X66139400Y-33817580D01*
X66139400Y-34023299D01*
X66139401Y-34023300D01*
X66575899Y-34023300D01*
X66575900Y-34023299D01*
X66575900Y-32677101D01*
X67210900Y-32677101D01*
X67210900Y-34023299D01*
X67210901Y-34023300D01*
X67647398Y-34023300D01*
X67647399Y-34023299D01*
X67647399Y-33817594D01*
X67640946Y-33757562D01*
X67590299Y-33621775D01*
X67503448Y-33505755D01*
X67503444Y-33505751D01*
X67389652Y-33420568D01*
X67356744Y-33370245D01*
X67363882Y-33310543D01*
X67389652Y-33279832D01*
X67503444Y-33194648D01*
X67503448Y-33194644D01*
X67590299Y-33078624D01*
X67640946Y-32942834D01*
X67640948Y-32942824D01*
X67647399Y-32882819D01*
X67647400Y-32882810D01*
X67647400Y-32677101D01*
X67647399Y-32677100D01*
X67210901Y-32677100D01*
X67210900Y-32677101D01*
X66575900Y-32677101D01*
X66575899Y-32677100D01*
X66139402Y-32677100D01*
X66139401Y-32677101D01*
X66139401Y-32882805D01*
X66145853Y-32942837D01*
X66196500Y-33078624D01*
X66283351Y-33194644D01*
X66283352Y-33194645D01*
X66397148Y-33279832D01*
X66430055Y-33330155D01*
X66422917Y-33389857D01*
X66397148Y-33420568D01*
X66283352Y-33505754D01*
X66283351Y-33505755D01*
X66196500Y-33621775D01*
X66145853Y-33757565D01*
X66145851Y-33757575D01*
X66139400Y-33817580D01*
X65338366Y-33817580D01*
X65192999Y-33672213D01*
X64449000Y-34416212D01*
X63567500Y-34416212D01*
X63567500Y-33518185D01*
X64449000Y-33518185D01*
X64743986Y-33223200D01*
X64743985Y-33223199D01*
X65642013Y-33223199D01*
X65936999Y-33518185D01*
X65936999Y-32928214D01*
X65642013Y-33223199D01*
X64743985Y-33223199D01*
X64449000Y-32928214D01*
X64449000Y-33518185D01*
X63567500Y-33518185D01*
X63567499Y-31498184D01*
X64449000Y-31498184D01*
X64449000Y-32030186D01*
X65192999Y-32774185D01*
X65936999Y-32030186D01*
X65936999Y-31836380D01*
X66139400Y-31836380D01*
X66139400Y-32042099D01*
X66139401Y-32042100D01*
X66575899Y-32042100D01*
X66575900Y-32042099D01*
X66575900Y-30695901D01*
X67210900Y-30695901D01*
X67210900Y-32042099D01*
X67210901Y-32042100D01*
X67647398Y-32042100D01*
X67647399Y-32042099D01*
X67647399Y-31836394D01*
X67640946Y-31776362D01*
X67590299Y-31640575D01*
X67503448Y-31524555D01*
X67503444Y-31524551D01*
X67389652Y-31439368D01*
X67356744Y-31389045D01*
X67363882Y-31329343D01*
X67389652Y-31298632D01*
X67503444Y-31213448D01*
X67503448Y-31213444D01*
X67590299Y-31097424D01*
X67640946Y-30961634D01*
X67640948Y-30961624D01*
X67647399Y-30901619D01*
X67647400Y-30901610D01*
X67647400Y-30695901D01*
X67647399Y-30695900D01*
X67210901Y-30695900D01*
X67210900Y-30695901D01*
X66575900Y-30695901D01*
X66575899Y-30695900D01*
X66139402Y-30695900D01*
X66139401Y-30695901D01*
X66139401Y-30901605D01*
X66145853Y-30961637D01*
X66196500Y-31097424D01*
X66283351Y-31213444D01*
X66283352Y-31213445D01*
X66397148Y-31298632D01*
X66430055Y-31348955D01*
X66422917Y-31408657D01*
X66397148Y-31439368D01*
X66283352Y-31524554D01*
X66283351Y-31524555D01*
X66196500Y-31640575D01*
X66145853Y-31776365D01*
X66145851Y-31776375D01*
X66139400Y-31836380D01*
X65936999Y-31836380D01*
X65936999Y-31498181D01*
X65922262Y-31424093D01*
X65866124Y-31340077D01*
X65866122Y-31340075D01*
X65782105Y-31283937D01*
X65708018Y-31269200D01*
X64677981Y-31269200D01*
X64603893Y-31283937D01*
X64519877Y-31340075D01*
X64519875Y-31340077D01*
X64463737Y-31424094D01*
X64449000Y-31498184D01*
X63567499Y-31498184D01*
X63567499Y-31498134D01*
X63567499Y-31498133D01*
X63567499Y-31498131D01*
X63557510Y-31447912D01*
X63552734Y-31423899D01*
X63496484Y-31339716D01*
X63412301Y-31283466D01*
X63384949Y-31278025D01*
X63333546Y-31246832D01*
X63314200Y-31191497D01*
X63319037Y-29855180D01*
X66139400Y-29855180D01*
X66139400Y-30060899D01*
X66139401Y-30060900D01*
X66575899Y-30060900D01*
X66575900Y-30060899D01*
X67210900Y-30060899D01*
X67210901Y-30060900D01*
X67647398Y-30060900D01*
X67647399Y-30060899D01*
X67647399Y-29855194D01*
X67640946Y-29795162D01*
X67590299Y-29659375D01*
X67503448Y-29543355D01*
X67503444Y-29543351D01*
X67387424Y-29456500D01*
X67251634Y-29405853D01*
X67210900Y-29401472D01*
X67210900Y-30060899D01*
X66575900Y-30060899D01*
X66575900Y-29401474D01*
X66535167Y-29405852D01*
X66535165Y-29405853D01*
X66399375Y-29456500D01*
X66283355Y-29543351D01*
X66283351Y-29543355D01*
X66196500Y-29659375D01*
X66145853Y-29795165D01*
X66145851Y-29795175D01*
X66139400Y-29855180D01*
X63319037Y-29855180D01*
X63322200Y-28981400D01*
X63322199Y-28981399D01*
X62391536Y-28982922D01*
X62335001Y-28962450D01*
X62324965Y-28952588D01*
X62262007Y-28879930D01*
X62262005Y-28879929D01*
X62262003Y-28879927D01*
X62157432Y-28812724D01*
X62157426Y-28812721D01*
X62038159Y-28777700D01*
X62038155Y-28777700D01*
X61913845Y-28777700D01*
X61913840Y-28777700D01*
X61794573Y-28812721D01*
X61794567Y-28812724D01*
X61689996Y-28879927D01*
X61689990Y-28879932D01*
X61625858Y-28953945D01*
X61573316Y-28983178D01*
X61559572Y-28984282D01*
X61376974Y-28984581D01*
X61320439Y-28964109D01*
X61310399Y-28954243D01*
X61308961Y-28952584D01*
X61246007Y-28879930D01*
X61246005Y-28879929D01*
X61246003Y-28879927D01*
X61141432Y-28812724D01*
X61141426Y-28812721D01*
X61022159Y-28777700D01*
X61022155Y-28777700D01*
X60897845Y-28777700D01*
X60897840Y-28777700D01*
X60821766Y-28800039D01*
X60797001Y-28803600D01*
X60384900Y-28803600D01*
X60328399Y-28783035D01*
X60298335Y-28730964D01*
X60297000Y-28715700D01*
X60297000Y-28637500D01*
X60317565Y-28580999D01*
X60369636Y-28550935D01*
X60384900Y-28549600D01*
X60957998Y-28549600D01*
X60957999Y-28549599D01*
X60957999Y-28475595D01*
X60957998Y-28475593D01*
X60956929Y-28468838D01*
X60968403Y-28409816D01*
X61015131Y-28371978D01*
X61043797Y-28367190D01*
X67984159Y-28371742D01*
G37*
%TD.AperFunction*%
%TD*%
%TA.AperFunction,Conductor*%
%TO.N,/Block Diagram/Power Supplies/P3V3_AUX*%
G36*
X48695831Y-40247553D02*
G01*
X48738970Y-40275277D01*
X48750466Y-40278652D01*
X48798883Y-40314301D01*
X48813600Y-40362991D01*
X48813600Y-40384199D01*
X48813601Y-40384200D01*
X50381900Y-40384200D01*
X50438401Y-40404765D01*
X50468465Y-40456836D01*
X50469800Y-40472100D01*
X50469800Y-41045198D01*
X50469801Y-41045199D01*
X50543805Y-41045199D01*
X50543806Y-41045198D01*
X50636066Y-41030587D01*
X50669042Y-41013785D01*
X50728721Y-41006456D01*
X50779149Y-41039203D01*
X50782036Y-41043269D01*
X50813075Y-41089722D01*
X50813077Y-41089724D01*
X50897094Y-41145862D01*
X50971180Y-41160599D01*
X51094200Y-41160599D01*
X51094200Y-40667500D01*
X51114765Y-40610999D01*
X51166836Y-40580935D01*
X51182100Y-40579600D01*
X51260300Y-40579600D01*
X51316801Y-40600165D01*
X51346865Y-40652236D01*
X51348200Y-40667500D01*
X51348200Y-41160598D01*
X51351589Y-41163987D01*
X51377000Y-41218481D01*
X51361437Y-41276559D01*
X51359803Y-41278817D01*
X51311657Y-41343134D01*
X51301556Y-41370218D01*
X51262543Y-41415970D01*
X51219198Y-41427400D01*
X49758600Y-41427400D01*
X49568258Y-41617742D01*
X49204823Y-41981176D01*
X49194028Y-41990355D01*
X48588272Y-42426499D01*
X48535878Y-42443059D01*
X46493681Y-42419033D01*
X46437426Y-42397805D01*
X46407977Y-42345383D01*
X46406821Y-42330127D01*
X46414653Y-41656621D01*
X46424225Y-41617749D01*
X46454865Y-41557615D01*
X46469800Y-41463321D01*
X46469800Y-41325801D01*
X47612300Y-41325801D01*
X47612300Y-41488953D01*
X47623091Y-41563017D01*
X47678934Y-41677248D01*
X47768851Y-41767165D01*
X47883082Y-41823008D01*
X47957147Y-41833800D01*
X48183799Y-41833800D01*
X48183800Y-41833799D01*
X48183800Y-41325801D01*
X48437800Y-41325801D01*
X48437800Y-41833799D01*
X48437801Y-41833800D01*
X48664453Y-41833800D01*
X48738517Y-41823008D01*
X48852748Y-41767165D01*
X48942665Y-41677248D01*
X48998508Y-41563017D01*
X49009300Y-41488953D01*
X49009300Y-41325801D01*
X49009299Y-41325800D01*
X48437801Y-41325800D01*
X48437800Y-41325801D01*
X48183800Y-41325801D01*
X48183799Y-41325800D01*
X47612301Y-41325800D01*
X47612300Y-41325801D01*
X46469800Y-41325801D01*
X46469799Y-40908646D01*
X47612300Y-40908646D01*
X47612300Y-41071799D01*
X47612301Y-41071800D01*
X48183799Y-41071800D01*
X48183800Y-41071799D01*
X48183800Y-40563801D01*
X48437800Y-40563801D01*
X48437800Y-41071799D01*
X48437801Y-41071800D01*
X49009299Y-41071800D01*
X49023466Y-41057633D01*
X49077959Y-41032222D01*
X49099372Y-41032969D01*
X49176595Y-41045199D01*
X49250600Y-41045199D01*
X49250600Y-40638201D01*
X49504600Y-40638201D01*
X49504600Y-41045198D01*
X49504601Y-41045199D01*
X49578605Y-41045199D01*
X49578606Y-41045198D01*
X49670867Y-41030587D01*
X49670870Y-41030586D01*
X49782071Y-40973927D01*
X49798045Y-40957954D01*
X49852539Y-40932543D01*
X49910617Y-40948106D01*
X49922355Y-40957954D01*
X49938328Y-40973927D01*
X50049531Y-41030587D01*
X50049530Y-41030587D01*
X50141794Y-41045199D01*
X50215800Y-41045199D01*
X50215800Y-40638201D01*
X50215799Y-40638200D01*
X49504601Y-40638200D01*
X49504600Y-40638201D01*
X49250600Y-40638201D01*
X49250599Y-40638200D01*
X48849267Y-40638200D01*
X48792766Y-40617635D01*
X48774702Y-40596846D01*
X48770599Y-40590274D01*
X48738513Y-40574589D01*
X48664455Y-40563800D01*
X48437801Y-40563800D01*
X48437800Y-40563801D01*
X48183800Y-40563801D01*
X48183799Y-40563800D01*
X47957147Y-40563800D01*
X47883082Y-40574591D01*
X47768851Y-40630434D01*
X47678934Y-40720351D01*
X47623091Y-40834582D01*
X47612300Y-40908646D01*
X46469799Y-40908646D01*
X46469799Y-40553280D01*
X46454865Y-40458985D01*
X46438990Y-40427828D01*
X46429417Y-40386907D01*
X46430189Y-40320474D01*
X46451410Y-40264219D01*
X46503828Y-40234764D01*
X46518083Y-40233600D01*
X48648310Y-40233600D01*
X48695831Y-40247553D01*
G37*
%TD.AperFunction*%
%TD*%
%TA.AperFunction,Conductor*%
%TO.N,/Block Diagram/VOUT1*%
G36*
X55192352Y-28387486D02*
G01*
X55222445Y-28439541D01*
X55222707Y-28468603D01*
X55221600Y-28475591D01*
X55221600Y-28549599D01*
X55221601Y-28549600D01*
X55755600Y-28549600D01*
X55755600Y-28803600D01*
X55221600Y-28803600D01*
X55197992Y-28827208D01*
X55143498Y-28852619D01*
X55088316Y-28838999D01*
X55047430Y-28812723D01*
X55047428Y-28812722D01*
X55047426Y-28812721D01*
X54928159Y-28777700D01*
X54928155Y-28777700D01*
X54803845Y-28777700D01*
X54803840Y-28777700D01*
X54684573Y-28812721D01*
X54684567Y-28812724D01*
X54579996Y-28879927D01*
X54579987Y-28879935D01*
X54504599Y-28966938D01*
X54452057Y-28996172D01*
X54438882Y-28997273D01*
X54277676Y-28998580D01*
X54221010Y-28978474D01*
X54210533Y-28968245D01*
X54134012Y-28879935D01*
X54134009Y-28879932D01*
X54134007Y-28879930D01*
X54134004Y-28879928D01*
X54134003Y-28879927D01*
X54029432Y-28812724D01*
X54029426Y-28812721D01*
X53910159Y-28777700D01*
X53910155Y-28777700D01*
X53785845Y-28777700D01*
X53785840Y-28777700D01*
X53666573Y-28812721D01*
X53666567Y-28812724D01*
X53561996Y-28879927D01*
X53561987Y-28879935D01*
X53479398Y-28975249D01*
X53426856Y-29004483D01*
X53413681Y-29005584D01*
X53263800Y-29006799D01*
X53263800Y-31457783D01*
X53243235Y-31514284D01*
X53191164Y-31544348D01*
X53174791Y-31545676D01*
X52748212Y-31540294D01*
X52691975Y-31519018D01*
X52677683Y-31503336D01*
X52611180Y-31409802D01*
X52610251Y-31408657D01*
X52590372Y-31384160D01*
X52581305Y-31374337D01*
X52572817Y-31363560D01*
X52556886Y-31339719D01*
X52556885Y-31339718D01*
X52556884Y-31339716D01*
X52541360Y-31329343D01*
X52472701Y-31283465D01*
X52419592Y-31272902D01*
X52398467Y-31268700D01*
X52398465Y-31268700D01*
X52364092Y-31268700D01*
X52348829Y-31267365D01*
X52348205Y-31267255D01*
X52328044Y-31263700D01*
X51481300Y-31263700D01*
X51481290Y-31263700D01*
X51458710Y-31264685D01*
X51443403Y-31266024D01*
X51427396Y-31267777D01*
X51427361Y-31267460D01*
X51416021Y-31268700D01*
X51368332Y-31268700D01*
X51294099Y-31283466D01*
X51209917Y-31339715D01*
X51209914Y-31339718D01*
X51153665Y-31423898D01*
X51138900Y-31498134D01*
X51138900Y-31575051D01*
X51137565Y-31590313D01*
X51133900Y-31611100D01*
X51133900Y-34835309D01*
X51134885Y-34857889D01*
X51134887Y-34857910D01*
X51136222Y-34873174D01*
X51136224Y-34873199D01*
X51136225Y-34873202D01*
X51137977Y-34889207D01*
X51137658Y-34889241D01*
X51138900Y-34900579D01*
X51138900Y-34948267D01*
X51150216Y-35005155D01*
X51153666Y-35022501D01*
X51209916Y-35106684D01*
X51294099Y-35162934D01*
X51368333Y-35177700D01*
X51445252Y-35177699D01*
X51460517Y-35179034D01*
X51481300Y-35182700D01*
X51481304Y-35182700D01*
X52192058Y-35182700D01*
X52248559Y-35203265D01*
X52278623Y-35255336D01*
X52277119Y-35292761D01*
X51807957Y-37093573D01*
X51773812Y-37143064D01*
X51721755Y-37159305D01*
X50552054Y-37144114D01*
X50505674Y-37130168D01*
X50448030Y-37093123D01*
X50448027Y-37093122D01*
X50448026Y-37093121D01*
X50328759Y-37058100D01*
X50328755Y-37058100D01*
X50204445Y-37058100D01*
X50204440Y-37058100D01*
X50085171Y-37093122D01*
X50085162Y-37093126D01*
X50085011Y-37093224D01*
X50084889Y-37093251D01*
X50079451Y-37095735D01*
X50078930Y-37094596D01*
X50026359Y-37106462D01*
X49972920Y-37078902D01*
X49949699Y-37023440D01*
X49949600Y-37019271D01*
X49949600Y-36533391D01*
X49926198Y-36446053D01*
X49898281Y-36397700D01*
X49880988Y-36367747D01*
X49860545Y-36347304D01*
X49835134Y-36292810D01*
X49834800Y-36285149D01*
X49834800Y-35687001D01*
X49834800Y-35687000D01*
X49834799Y-35687000D01*
X49589299Y-35687000D01*
X49549393Y-35677419D01*
X49486026Y-35645131D01*
X49408276Y-35632817D01*
X49393645Y-35630500D01*
X49393644Y-35630500D01*
X49051557Y-35630500D01*
X49051555Y-35630501D01*
X48959173Y-35645131D01*
X48959172Y-35645131D01*
X48895807Y-35677419D01*
X48855901Y-35687000D01*
X48629299Y-35687000D01*
X48589393Y-35677419D01*
X48526026Y-35645131D01*
X48448276Y-35632817D01*
X48433645Y-35630500D01*
X48433644Y-35630500D01*
X48091557Y-35630500D01*
X48091555Y-35630501D01*
X47999173Y-35645131D01*
X47999172Y-35645131D01*
X47935807Y-35677419D01*
X47895901Y-35687000D01*
X46747700Y-35687000D01*
X46691199Y-35666435D01*
X46661135Y-35614364D01*
X46659800Y-35599100D01*
X46659800Y-34939632D01*
X46660962Y-34929663D01*
X46660452Y-34929609D01*
X46661051Y-34924037D01*
X46667500Y-34864055D01*
X46667500Y-34594801D01*
X47059001Y-34594801D01*
X47059001Y-34864005D01*
X47065453Y-34924037D01*
X47116100Y-35059824D01*
X47202951Y-35175844D01*
X47202955Y-35175848D01*
X47318975Y-35262699D01*
X47454765Y-35313346D01*
X47454775Y-35313348D01*
X47514784Y-35319799D01*
X47559000Y-35319798D01*
X47559000Y-34594801D01*
X48067000Y-34594801D01*
X48067000Y-35319798D01*
X48067001Y-35319799D01*
X48111205Y-35319799D01*
X48171237Y-35313346D01*
X48307024Y-35262699D01*
X48423044Y-35175848D01*
X48423048Y-35175844D01*
X48509899Y-35059824D01*
X48560546Y-34924034D01*
X48560548Y-34924024D01*
X48566999Y-34864019D01*
X48567000Y-34864010D01*
X48567000Y-34594801D01*
X48566999Y-34594800D01*
X48067001Y-34594800D01*
X48067000Y-34594801D01*
X47559000Y-34594801D01*
X47558999Y-34594800D01*
X47059002Y-34594800D01*
X47059001Y-34594801D01*
X46667500Y-34594801D01*
X46667500Y-34416212D01*
X48769400Y-34416212D01*
X48769400Y-34948218D01*
X48784137Y-35022306D01*
X48840275Y-35106322D01*
X48840277Y-35106324D01*
X48924294Y-35162462D01*
X48998381Y-35177199D01*
X50028418Y-35177199D01*
X50102506Y-35162462D01*
X50186522Y-35106324D01*
X50186524Y-35106322D01*
X50242662Y-35022305D01*
X50257399Y-34948218D01*
X50257399Y-34416213D01*
X49513399Y-33672213D01*
X48769400Y-34416212D01*
X46667500Y-34416212D01*
X46667499Y-33817580D01*
X47059000Y-33817580D01*
X47059000Y-34086799D01*
X47059001Y-34086800D01*
X47558999Y-34086800D01*
X47559000Y-34086799D01*
X47559000Y-32613601D01*
X48067000Y-32613601D01*
X48067000Y-34086799D01*
X48067001Y-34086800D01*
X48566998Y-34086800D01*
X48566999Y-34086799D01*
X48566999Y-33817594D01*
X48560546Y-33757562D01*
X48509899Y-33621775D01*
X48432353Y-33518185D01*
X48769400Y-33518185D01*
X49064385Y-33223199D01*
X49962413Y-33223199D01*
X50257399Y-33518185D01*
X50257399Y-32928214D01*
X49962413Y-33223199D01*
X49064385Y-33223199D01*
X48769400Y-32928214D01*
X48769400Y-33518185D01*
X48432353Y-33518185D01*
X48423048Y-33505755D01*
X48423044Y-33505751D01*
X48309252Y-33420568D01*
X48276344Y-33370245D01*
X48283482Y-33310543D01*
X48309252Y-33279832D01*
X48423044Y-33194648D01*
X48423048Y-33194644D01*
X48509899Y-33078624D01*
X48560546Y-32942834D01*
X48560548Y-32942824D01*
X48566999Y-32882819D01*
X48567000Y-32882810D01*
X48567000Y-32613601D01*
X48566999Y-32613600D01*
X48067001Y-32613600D01*
X48067000Y-32613601D01*
X47559000Y-32613601D01*
X47558999Y-32613600D01*
X47059002Y-32613600D01*
X47059001Y-32613601D01*
X47059001Y-32882805D01*
X47065453Y-32942837D01*
X47116100Y-33078624D01*
X47202951Y-33194644D01*
X47202952Y-33194645D01*
X47316748Y-33279832D01*
X47349655Y-33330155D01*
X47342517Y-33389857D01*
X47316748Y-33420568D01*
X47202952Y-33505754D01*
X47202951Y-33505755D01*
X47116100Y-33621775D01*
X47065453Y-33757565D01*
X47065451Y-33757575D01*
X47059000Y-33817580D01*
X46667499Y-33817580D01*
X46667499Y-33817546D01*
X46661040Y-33757458D01*
X46661039Y-33757456D01*
X46660452Y-33751991D01*
X46660961Y-33751936D01*
X46659800Y-33741966D01*
X46659800Y-32958432D01*
X46660962Y-32948463D01*
X46660452Y-32948409D01*
X46661051Y-32942837D01*
X46667500Y-32882855D01*
X46667499Y-31836380D01*
X47059000Y-31836380D01*
X47059000Y-32105599D01*
X47059001Y-32105600D01*
X47558999Y-32105600D01*
X47559000Y-32105599D01*
X47559000Y-30632401D01*
X48067000Y-30632401D01*
X48067000Y-32105599D01*
X48067001Y-32105600D01*
X48566998Y-32105600D01*
X48566999Y-32105599D01*
X48566999Y-31836394D01*
X48560546Y-31776362D01*
X48509899Y-31640575D01*
X48423048Y-31524555D01*
X48423044Y-31524551D01*
X48387822Y-31498184D01*
X48769400Y-31498184D01*
X48769400Y-32030186D01*
X49513399Y-32774185D01*
X50257399Y-32030186D01*
X50257399Y-31498181D01*
X50242662Y-31424093D01*
X50186524Y-31340077D01*
X50186522Y-31340075D01*
X50102505Y-31283937D01*
X50028418Y-31269200D01*
X48998381Y-31269200D01*
X48924293Y-31283937D01*
X48840277Y-31340075D01*
X48840275Y-31340077D01*
X48784137Y-31424094D01*
X48769400Y-31498184D01*
X48387822Y-31498184D01*
X48309252Y-31439368D01*
X48276344Y-31389045D01*
X48283482Y-31329343D01*
X48309252Y-31298632D01*
X48423044Y-31213448D01*
X48423048Y-31213444D01*
X48509899Y-31097424D01*
X48560546Y-30961634D01*
X48560548Y-30961624D01*
X48566999Y-30901619D01*
X48567000Y-30901610D01*
X48567000Y-30632401D01*
X48566999Y-30632400D01*
X48067001Y-30632400D01*
X48067000Y-30632401D01*
X47559000Y-30632401D01*
X47558999Y-30632400D01*
X47059002Y-30632400D01*
X47059001Y-30632401D01*
X47059001Y-30901605D01*
X47065453Y-30961637D01*
X47116100Y-31097424D01*
X47202951Y-31213444D01*
X47202952Y-31213445D01*
X47316748Y-31298632D01*
X47349655Y-31348955D01*
X47342517Y-31408657D01*
X47316748Y-31439368D01*
X47202952Y-31524554D01*
X47202951Y-31524555D01*
X47116100Y-31640575D01*
X47065453Y-31776365D01*
X47065451Y-31776375D01*
X47059000Y-31836380D01*
X46667499Y-31836380D01*
X46667499Y-31836346D01*
X46661040Y-31776258D01*
X46661039Y-31776256D01*
X46660452Y-31770791D01*
X46660961Y-31770736D01*
X46659800Y-31760766D01*
X46659800Y-30977232D01*
X46660962Y-30967263D01*
X46660452Y-30967209D01*
X46661051Y-30961637D01*
X46667500Y-30901655D01*
X46667499Y-29855180D01*
X47059000Y-29855180D01*
X47059000Y-30124399D01*
X47059001Y-30124400D01*
X47558999Y-30124400D01*
X47559000Y-30124399D01*
X47559000Y-29399401D01*
X48067000Y-29399401D01*
X48067000Y-30124399D01*
X48067001Y-30124400D01*
X48566998Y-30124400D01*
X48566999Y-30124399D01*
X48566999Y-29855194D01*
X48560546Y-29795162D01*
X48509899Y-29659375D01*
X48423048Y-29543355D01*
X48423044Y-29543351D01*
X48307024Y-29456500D01*
X48171234Y-29405853D01*
X48171224Y-29405851D01*
X48111219Y-29399400D01*
X48067001Y-29399400D01*
X48067000Y-29399401D01*
X47559000Y-29399401D01*
X47559000Y-29399399D01*
X47514794Y-29399400D01*
X47454762Y-29405853D01*
X47318975Y-29456500D01*
X47202955Y-29543351D01*
X47202951Y-29543355D01*
X47116100Y-29659375D01*
X47065453Y-29795165D01*
X47065451Y-29795175D01*
X47059000Y-29855180D01*
X46667499Y-29855180D01*
X46667499Y-29855146D01*
X46661040Y-29795058D01*
X46661039Y-29795056D01*
X46660452Y-29789591D01*
X46660961Y-29789536D01*
X46659800Y-29779566D01*
X46659800Y-28459649D01*
X46680365Y-28403148D01*
X46732436Y-28373084D01*
X46747641Y-28371749D01*
X55135839Y-28366954D01*
X55192352Y-28387486D01*
G37*
%TD.AperFunction*%
%TD*%
%TA.AperFunction,Conductor*%
%TO.N,GND*%
G36*
X46745735Y-27961065D02*
G01*
X46775799Y-28013136D01*
X46765358Y-28072350D01*
X46719298Y-28110999D01*
X46703240Y-28114744D01*
X46703245Y-28114765D01*
X46701374Y-28115179D01*
X46698820Y-28115775D01*
X46698655Y-28115793D01*
X46698561Y-28115804D01*
X46602686Y-28148350D01*
X46569678Y-28167407D01*
X46551960Y-28177638D01*
X46550614Y-28178415D01*
X46550613Y-28178415D01*
X46489041Y-28227832D01*
X46436513Y-28314395D01*
X46415951Y-28370891D01*
X46415950Y-28370894D01*
X46400300Y-28459649D01*
X46400300Y-28459651D01*
X46400300Y-29327392D01*
X46379735Y-29383893D01*
X46327664Y-29413957D01*
X46281683Y-29409750D01*
X46271237Y-29405854D01*
X46271224Y-29405851D01*
X46211219Y-29399400D01*
X46167001Y-29399400D01*
X46167000Y-29399401D01*
X46167000Y-31337599D01*
X46180964Y-31351563D01*
X46199101Y-31358165D01*
X46229165Y-31410236D01*
X46230500Y-31425500D01*
X46230500Y-35317724D01*
X46271238Y-35313346D01*
X46281678Y-35309452D01*
X46341803Y-35308972D01*
X46388170Y-35347252D01*
X46400300Y-35391808D01*
X46400300Y-35599109D01*
X46401285Y-35621689D01*
X46401287Y-35621710D01*
X46402622Y-35636974D01*
X46402624Y-35637000D01*
X46402626Y-35637013D01*
X46403854Y-35648236D01*
X46436401Y-35744113D01*
X46436402Y-35744115D01*
X46436403Y-35744117D01*
X46466467Y-35796188D01*
X46515882Y-35857758D01*
X46602444Y-35910285D01*
X46602447Y-35910286D01*
X46602446Y-35910286D01*
X46615398Y-35915000D01*
X46658945Y-35930850D01*
X46747700Y-35946500D01*
X46747703Y-35946500D01*
X47895897Y-35946500D01*
X47895901Y-35946500D01*
X47956483Y-35939329D01*
X47956491Y-35939327D01*
X47956492Y-35939327D01*
X47974249Y-35935063D01*
X47996385Y-35929749D01*
X47996386Y-35929749D01*
X48021634Y-35920434D01*
X48052060Y-35915000D01*
X48454700Y-35915000D01*
X48511201Y-35935565D01*
X48541265Y-35987636D01*
X48542600Y-36002900D01*
X48542600Y-36387100D01*
X48522035Y-36443601D01*
X48469964Y-36473665D01*
X48454700Y-36475000D01*
X47741112Y-36475000D01*
X47743214Y-36488271D01*
X47799872Y-36599471D01*
X47888128Y-36687727D01*
X47999331Y-36744387D01*
X47999330Y-36744387D01*
X48039841Y-36750803D01*
X48092430Y-36779952D01*
X48113979Y-36836086D01*
X48106049Y-36874135D01*
X48096226Y-36895646D01*
X48074346Y-36943555D01*
X48074344Y-36943561D01*
X48056655Y-37066596D01*
X48056655Y-37066603D01*
X48074344Y-37189638D01*
X48074345Y-37189643D01*
X48074346Y-37189645D01*
X48124604Y-37299693D01*
X48129369Y-37359631D01*
X48125058Y-37371711D01*
X48092349Y-37445792D01*
X48089935Y-37466599D01*
X48089935Y-37466600D01*
X48308606Y-37466600D01*
X48333371Y-37470161D01*
X48415785Y-37494361D01*
X48464203Y-37530011D01*
X48478378Y-37588444D01*
X48451677Y-37642317D01*
X48396594Y-37666423D01*
X48391020Y-37666600D01*
X48089936Y-37666600D01*
X48065739Y-37693765D01*
X48012803Y-37722278D01*
X48000102Y-37723200D01*
X46350045Y-37723200D01*
X46293544Y-37702635D01*
X46287901Y-37697465D01*
X46218836Y-37628400D01*
X46193426Y-37573908D01*
X46208989Y-37515830D01*
X46218837Y-37504092D01*
X46299832Y-37423096D01*
X46355773Y-37313304D01*
X46370199Y-37222214D01*
X46370200Y-37222214D01*
X46370200Y-37183601D01*
X46370199Y-37183600D01*
X45222201Y-37183600D01*
X45222200Y-37183601D01*
X45222200Y-37222214D01*
X45236626Y-37313304D01*
X45292567Y-37423096D01*
X45373563Y-37504092D01*
X45398974Y-37558586D01*
X45383411Y-37616664D01*
X45373568Y-37628395D01*
X45314441Y-37687523D01*
X45292158Y-37709806D01*
X45236145Y-37819739D01*
X45221700Y-37910948D01*
X45221700Y-38242250D01*
X45221701Y-38242253D01*
X45236145Y-38333459D01*
X45236146Y-38333462D01*
X45291429Y-38441963D01*
X45292160Y-38443396D01*
X45364422Y-38515658D01*
X45389833Y-38570151D01*
X45374270Y-38628229D01*
X45342173Y-38656131D01*
X45240151Y-38708113D01*
X45147015Y-38801249D01*
X45087220Y-38918604D01*
X45071800Y-39015966D01*
X45071800Y-39520833D01*
X45087220Y-39618195D01*
X45087220Y-39618196D01*
X45087221Y-39618198D01*
X45147016Y-39735552D01*
X45240148Y-39828684D01*
X45357502Y-39888479D01*
X45454866Y-39903900D01*
X45454867Y-39903900D01*
X46086733Y-39903900D01*
X46086734Y-39903900D01*
X46184098Y-39888479D01*
X46301452Y-39828684D01*
X46394584Y-39735552D01*
X46454379Y-39618198D01*
X46469800Y-39520834D01*
X46469800Y-39015966D01*
X46454379Y-38918602D01*
X46394584Y-38801248D01*
X46301452Y-38708116D01*
X46301449Y-38708114D01*
X46250159Y-38681981D01*
X46233079Y-38673278D01*
X46192073Y-38629305D01*
X46188926Y-38569260D01*
X46210831Y-38532804D01*
X46212994Y-38530641D01*
X46212996Y-38530640D01*
X46300240Y-38443396D01*
X46300240Y-38443395D01*
X46305132Y-38438504D01*
X46306945Y-38440317D01*
X46348036Y-38412609D01*
X46369291Y-38410000D01*
X48285486Y-38410000D01*
X48316082Y-38416454D01*
X48316095Y-38416410D01*
X48316870Y-38416620D01*
X48320990Y-38417490D01*
X48322474Y-38418145D01*
X48322477Y-38418146D01*
X48347940Y-38421100D01*
X48347947Y-38421100D01*
X48688853Y-38421100D01*
X48688860Y-38421100D01*
X48714323Y-38418146D01*
X48746045Y-38404138D01*
X48806037Y-38400129D01*
X48829071Y-38410601D01*
X48911970Y-38463877D01*
X48911972Y-38463877D01*
X48911973Y-38463878D01*
X49031240Y-38498899D01*
X49031244Y-38498900D01*
X49031245Y-38498900D01*
X49155556Y-38498900D01*
X49155559Y-38498899D01*
X49274128Y-38464083D01*
X49274830Y-38463877D01*
X49336952Y-38423954D01*
X49384474Y-38410000D01*
X51970808Y-38410000D01*
X51970809Y-38410000D01*
X52047130Y-38389550D01*
X52058148Y-38386598D01*
X52136453Y-38341388D01*
X53297615Y-37180225D01*
X53335004Y-37158043D01*
X53445224Y-37125679D01*
X53445225Y-37125678D01*
X53445230Y-37125677D01*
X53549807Y-37058470D01*
X53631213Y-36964522D01*
X53682854Y-36851445D01*
X53691141Y-36793810D01*
X53700545Y-36728403D01*
X53700545Y-36728396D01*
X53682855Y-36605361D01*
X53682854Y-36605360D01*
X53682854Y-36605355D01*
X53631213Y-36492278D01*
X53555090Y-36404427D01*
X53549808Y-36398331D01*
X53549803Y-36398327D01*
X53445232Y-36331124D01*
X53445226Y-36331121D01*
X53325959Y-36296100D01*
X53325955Y-36296100D01*
X53201645Y-36296100D01*
X53201640Y-36296100D01*
X53082373Y-36331121D01*
X53082367Y-36331124D01*
X52977796Y-36398327D01*
X52977791Y-36398331D01*
X52896386Y-36492279D01*
X52844746Y-36605354D01*
X52839428Y-36642336D01*
X52814578Y-36691979D01*
X52160256Y-37346302D01*
X52105762Y-37371713D01*
X52047684Y-37356151D01*
X52013196Y-37306897D01*
X52018437Y-37246999D01*
X52021463Y-37241135D01*
X52021550Y-37240944D01*
X52021554Y-37240939D01*
X52059075Y-37158996D01*
X52528237Y-35358184D01*
X52536410Y-35303181D01*
X52537325Y-35280403D01*
X52537914Y-35265765D01*
X52537914Y-35265762D01*
X52536461Y-35233761D01*
X52535903Y-35221462D01*
X52530088Y-35204332D01*
X52531397Y-35144221D01*
X52558275Y-35107548D01*
X52560023Y-35106143D01*
X52560026Y-35106142D01*
X53837262Y-34080180D01*
X53894188Y-34060830D01*
X53950236Y-34082599D01*
X53978518Y-34131563D01*
X53984843Y-34163366D01*
X53984844Y-34163368D01*
X53984845Y-34163369D01*
X54024253Y-34222347D01*
X54083231Y-34261755D01*
X54135239Y-34272100D01*
X55218190Y-34272099D01*
X55218192Y-34272099D01*
X55237369Y-34268284D01*
X55295169Y-34256788D01*
X55382461Y-34198461D01*
X55440788Y-34111169D01*
X55456100Y-34034191D01*
X55456099Y-33753410D01*
X55456099Y-33753409D01*
X55456099Y-33753407D01*
X55444615Y-33695675D01*
X55440788Y-33676431D01*
X55437153Y-33670991D01*
X55422862Y-33612590D01*
X55439133Y-33570484D01*
X55441091Y-33567789D01*
X55441092Y-33567788D01*
X55455104Y-33545230D01*
X55455105Y-33545223D01*
X55457789Y-33538856D01*
X55460428Y-33539967D01*
X55487549Y-33499526D01*
X55539406Y-33482600D01*
X55590297Y-33482600D01*
X55590300Y-33482600D01*
X55660450Y-33468645D01*
X55664339Y-33467034D01*
X55723802Y-33427302D01*
X55761302Y-33389802D01*
X55801034Y-33330339D01*
X55802645Y-33326450D01*
X55816600Y-33256300D01*
X55816600Y-32978800D01*
X55816577Y-32975906D01*
X55816574Y-32975716D01*
X55800124Y-32902665D01*
X55800122Y-32902662D01*
X55799187Y-32899878D01*
X55799217Y-32898639D01*
X55799130Y-32898251D01*
X55799227Y-32898228D01*
X55800671Y-32839769D01*
X55809417Y-32823029D01*
X55842028Y-32774222D01*
X55842028Y-32774221D01*
X55842030Y-32774219D01*
X55855033Y-32708845D01*
X55886225Y-32657443D01*
X55943161Y-32638116D01*
X55999200Y-32659908D01*
X56003399Y-32663840D01*
X56683655Y-33344096D01*
X56709066Y-33398590D01*
X56709400Y-33406251D01*
X56709400Y-34527013D01*
X56688835Y-34583514D01*
X56636764Y-34613578D01*
X56625333Y-34614829D01*
X56605710Y-34615685D01*
X56600602Y-34616132D01*
X56590426Y-34617022D01*
X56590403Y-34617024D01*
X56590386Y-34617026D01*
X56579163Y-34618254D01*
X56483286Y-34650801D01*
X56431214Y-34680866D01*
X56431213Y-34680866D01*
X56369641Y-34730283D01*
X56317113Y-34816846D01*
X56296551Y-34873342D01*
X56296550Y-34873345D01*
X56280902Y-34962090D01*
X56280900Y-34962102D01*
X56280900Y-36418267D01*
X56260335Y-36474768D01*
X56208264Y-36504832D01*
X56205100Y-36505330D01*
X56166568Y-36510684D01*
X56166547Y-36510689D01*
X56129033Y-36520233D01*
X56075195Y-36540511D01*
X56072975Y-36541492D01*
X56072738Y-36540956D01*
X56051092Y-36547967D01*
X56040052Y-36549716D01*
X56026298Y-36550799D01*
X55722947Y-36550799D01*
X55716440Y-36550558D01*
X55712310Y-36550251D01*
X55699985Y-36549336D01*
X55699980Y-36549336D01*
X55699966Y-36549335D01*
X55670965Y-36549589D01*
X55670960Y-36549589D01*
X55639362Y-36551798D01*
X55543486Y-36584345D01*
X55512096Y-36602469D01*
X55493323Y-36613308D01*
X55491414Y-36614410D01*
X55491413Y-36614410D01*
X55491412Y-36614411D01*
X55433345Y-36661015D01*
X55429841Y-36663827D01*
X55377313Y-36750390D01*
X55356751Y-36806886D01*
X55356750Y-36806889D01*
X55341159Y-36895310D01*
X55341100Y-36895646D01*
X55341100Y-38260600D01*
X55320535Y-38317101D01*
X55268464Y-38347165D01*
X55253200Y-38348500D01*
X55156448Y-38348500D01*
X55125353Y-38352403D01*
X55092309Y-38356550D01*
X55045404Y-38368514D01*
X55037749Y-38370108D01*
X55034673Y-38370606D01*
X54997037Y-38384643D01*
X54997036Y-38384644D01*
X54934262Y-38408057D01*
X54903545Y-38413599D01*
X54346854Y-38413599D01*
X54316136Y-38408057D01*
X54313659Y-38407133D01*
X54244565Y-38381362D01*
X54244562Y-38381361D01*
X54243112Y-38380820D01*
X54224558Y-38373900D01*
X54215726Y-38370606D01*
X54215725Y-38370605D01*
X54215723Y-38370605D01*
X54213413Y-38370230D01*
X54212615Y-38370101D01*
X54204975Y-38368510D01*
X54158085Y-38356550D01*
X54158086Y-38356550D01*
X54124869Y-38352381D01*
X54093952Y-38348500D01*
X52945300Y-38348500D01*
X52945290Y-38348500D01*
X52922710Y-38349485D01*
X52917602Y-38349932D01*
X52907426Y-38350822D01*
X52907403Y-38350824D01*
X52907386Y-38350826D01*
X52896163Y-38352054D01*
X52800286Y-38384601D01*
X52773392Y-38400129D01*
X52751777Y-38412609D01*
X52748214Y-38414666D01*
X52748213Y-38414666D01*
X52734615Y-38425580D01*
X52686898Y-38463877D01*
X52686641Y-38464083D01*
X52634113Y-38550646D01*
X52617062Y-38597495D01*
X52613550Y-38607145D01*
X52600100Y-38683426D01*
X52597900Y-38695902D01*
X52597900Y-38854700D01*
X52577335Y-38911201D01*
X52525264Y-38941265D01*
X52510000Y-38942600D01*
X52463701Y-38942600D01*
X52463700Y-38942601D01*
X52463700Y-41125700D01*
X52443135Y-41182201D01*
X52391064Y-41212265D01*
X52375800Y-41213600D01*
X52199501Y-41213600D01*
X52199500Y-41213601D01*
X52199500Y-43041398D01*
X52199501Y-43041399D01*
X52307205Y-43041399D01*
X52367235Y-43034946D01*
X52479281Y-42993155D01*
X52539407Y-42992678D01*
X52585772Y-43030960D01*
X52597900Y-43075513D01*
X52597900Y-43320200D01*
X52577335Y-43376701D01*
X52525264Y-43406765D01*
X52510001Y-43408100D01*
X52349731Y-43408100D01*
X52275499Y-43422866D01*
X52191317Y-43479115D01*
X52191314Y-43479118D01*
X52135065Y-43563298D01*
X52120300Y-43637534D01*
X52120300Y-47497668D01*
X52130149Y-47547181D01*
X52135066Y-47571901D01*
X52191316Y-47656084D01*
X52192388Y-47656800D01*
X52275498Y-47712334D01*
X52286061Y-47714435D01*
X52349733Y-47727100D01*
X52510000Y-47727099D01*
X52566501Y-47747663D01*
X52596565Y-47799735D01*
X52597900Y-47814999D01*
X52597900Y-48171600D01*
X52577335Y-48228101D01*
X52525264Y-48258165D01*
X52510000Y-48259500D01*
X42505900Y-48259500D01*
X42449399Y-48238935D01*
X42419335Y-48186864D01*
X42418000Y-48171600D01*
X42418000Y-45885101D01*
X45974001Y-45885101D01*
X45974001Y-47497618D01*
X45988737Y-47571706D01*
X46044875Y-47655722D01*
X46044877Y-47655724D01*
X46128894Y-47711862D01*
X46202981Y-47726599D01*
X46799498Y-47726599D01*
X46799500Y-47726598D01*
X46799500Y-45885101D01*
X47434500Y-45885101D01*
X47434500Y-47726598D01*
X47434501Y-47726599D01*
X48031018Y-47726599D01*
X48105106Y-47711862D01*
X48189122Y-47655724D01*
X48189124Y-47655722D01*
X48245262Y-47571705D01*
X48260000Y-47497615D01*
X48260000Y-45885101D01*
X48259999Y-45885100D01*
X47434501Y-45885100D01*
X47434500Y-45885101D01*
X46799500Y-45885101D01*
X46799499Y-45885100D01*
X45974002Y-45885100D01*
X45974001Y-45885101D01*
X42418000Y-45885101D01*
X42418000Y-43637584D01*
X45974000Y-43637584D01*
X45974000Y-45250099D01*
X45974001Y-45250100D01*
X46799499Y-45250100D01*
X46799500Y-45250099D01*
X46799500Y-43408601D01*
X47434500Y-43408601D01*
X47434500Y-45250099D01*
X47434501Y-45250100D01*
X48259998Y-45250100D01*
X48259999Y-45250099D01*
X48259999Y-43637581D01*
X48245262Y-43563493D01*
X48189124Y-43479477D01*
X48189122Y-43479475D01*
X48105105Y-43423337D01*
X48031015Y-43408600D01*
X47434501Y-43408600D01*
X47434500Y-43408601D01*
X46799500Y-43408601D01*
X46799499Y-43408600D01*
X46202981Y-43408600D01*
X46128893Y-43423337D01*
X46044877Y-43479475D01*
X46044875Y-43479477D01*
X45988737Y-43563494D01*
X45974000Y-43637584D01*
X42418000Y-43637584D01*
X42418000Y-41135301D01*
X45072300Y-41135301D01*
X45072300Y-41463283D01*
X45087215Y-41557457D01*
X45145049Y-41670964D01*
X45235135Y-41761050D01*
X45348642Y-41818884D01*
X45348641Y-41818884D01*
X45442817Y-41833800D01*
X45643799Y-41833800D01*
X45643800Y-41833799D01*
X45643800Y-41135301D01*
X45643799Y-41135300D01*
X45072301Y-41135300D01*
X45072300Y-41135301D01*
X42418000Y-41135301D01*
X42418000Y-40922583D01*
X42434812Y-40870883D01*
X42665770Y-40553316D01*
X45072300Y-40553316D01*
X45072300Y-40881299D01*
X45072301Y-40881300D01*
X45643799Y-40881300D01*
X45643800Y-40881299D01*
X45643800Y-40182801D01*
X45897800Y-40182801D01*
X45897800Y-41833799D01*
X45897801Y-41833800D01*
X46064147Y-41833800D01*
X46120648Y-41854365D01*
X46150712Y-41906436D01*
X46152041Y-41922722D01*
X46147339Y-42327112D01*
X46148062Y-42349727D01*
X46149219Y-42364999D01*
X46150315Y-42376223D01*
X46181731Y-42472478D01*
X46211180Y-42524901D01*
X46211181Y-42524902D01*
X46259867Y-42587048D01*
X46259870Y-42587051D01*
X46259871Y-42587052D01*
X46345809Y-42640594D01*
X46402064Y-42661822D01*
X46490628Y-42678515D01*
X46490625Y-42678515D01*
X46565339Y-42679393D01*
X48532825Y-42702541D01*
X48614084Y-42690494D01*
X48666478Y-42673934D01*
X48739899Y-42637092D01*
X49273498Y-42252901D01*
X51255001Y-42252901D01*
X51255001Y-42585605D01*
X51261453Y-42645637D01*
X51312100Y-42781424D01*
X51398951Y-42897444D01*
X51398955Y-42897448D01*
X51514975Y-42984299D01*
X51650765Y-43034946D01*
X51650775Y-43034948D01*
X51710784Y-43041399D01*
X51818500Y-43041399D01*
X51818500Y-42252901D01*
X51818499Y-42252900D01*
X51255002Y-42252900D01*
X51255001Y-42252901D01*
X49273498Y-42252901D01*
X49345655Y-42200948D01*
X49362127Y-42188049D01*
X49372922Y-42178870D01*
X49388317Y-42164670D01*
X49751752Y-41801236D01*
X49840343Y-41712645D01*
X49894837Y-41687234D01*
X49902498Y-41686900D01*
X51167100Y-41686900D01*
X51223601Y-41707465D01*
X51253665Y-41759536D01*
X51255000Y-41774800D01*
X51255000Y-41871899D01*
X51255001Y-41871900D01*
X51818499Y-41871900D01*
X51818500Y-41871899D01*
X51818500Y-41087009D01*
X51828700Y-41058985D01*
X51828700Y-38942601D01*
X51828699Y-38942600D01*
X51561180Y-38942600D01*
X51561178Y-38942601D01*
X51508210Y-38953136D01*
X51473923Y-38953138D01*
X51471217Y-38952600D01*
X51421201Y-38952600D01*
X51421200Y-38952601D01*
X51421200Y-39518700D01*
X51400635Y-39575201D01*
X51348564Y-39605265D01*
X51333300Y-39606600D01*
X51109100Y-39606600D01*
X51052599Y-39586035D01*
X51022535Y-39533964D01*
X51021200Y-39518700D01*
X51021200Y-38952599D01*
X50971182Y-38952600D01*
X50897093Y-38967337D01*
X50897091Y-38967338D01*
X50813079Y-39023472D01*
X50813072Y-39023479D01*
X50807355Y-39032035D01*
X50758863Y-39067586D01*
X50698865Y-39063650D01*
X50694367Y-39061516D01*
X50636068Y-39031812D01*
X50636069Y-39031812D01*
X50543806Y-39017200D01*
X50469801Y-39017200D01*
X50469800Y-39017201D01*
X50469800Y-39590300D01*
X50449235Y-39646801D01*
X50397164Y-39676865D01*
X50381900Y-39678200D01*
X49338500Y-39678200D01*
X49281999Y-39657635D01*
X49251935Y-39605564D01*
X49250600Y-39590300D01*
X49250600Y-39017201D01*
X49504600Y-39017201D01*
X49504600Y-39424199D01*
X49504601Y-39424200D01*
X50215799Y-39424200D01*
X50215800Y-39424199D01*
X50215800Y-39017200D01*
X50141795Y-39017200D01*
X50141793Y-39017201D01*
X50049532Y-39031812D01*
X50049529Y-39031813D01*
X49938327Y-39088473D01*
X49938324Y-39088474D01*
X49922353Y-39104446D01*
X49867859Y-39129856D01*
X49809781Y-39114292D01*
X49798047Y-39104446D01*
X49782075Y-39088474D01*
X49782072Y-39088473D01*
X49670868Y-39031812D01*
X49670869Y-39031812D01*
X49578606Y-39017200D01*
X49504601Y-39017200D01*
X49504600Y-39017201D01*
X49250600Y-39017201D01*
X49250600Y-39017200D01*
X49176595Y-39017200D01*
X49176592Y-39017201D01*
X49107016Y-39028220D01*
X49047994Y-39016746D01*
X49010155Y-38970018D01*
X49006287Y-38954085D01*
X48998996Y-38904039D01*
X48998994Y-38904034D01*
X48998994Y-38904033D01*
X48953365Y-38810700D01*
X48943076Y-38789654D01*
X48853046Y-38699624D01*
X48853044Y-38699623D01*
X48738665Y-38643705D01*
X48738662Y-38643704D01*
X48738661Y-38643704D01*
X48664506Y-38632900D01*
X47957094Y-38632900D01*
X47882939Y-38643704D01*
X47882937Y-38643704D01*
X47882935Y-38643705D01*
X47882933Y-38643705D01*
X47768555Y-38699623D01*
X47678523Y-38789655D01*
X47622605Y-38904033D01*
X47622605Y-38904035D01*
X47622604Y-38904037D01*
X47622604Y-38904039D01*
X47611800Y-38978194D01*
X47611800Y-39558606D01*
X47622604Y-39632761D01*
X47622604Y-39632762D01*
X47622605Y-39632764D01*
X47622605Y-39632766D01*
X47667331Y-39724251D01*
X47678524Y-39747146D01*
X47755424Y-39824046D01*
X47780835Y-39878539D01*
X47765272Y-39936617D01*
X47716019Y-39971105D01*
X47693269Y-39974100D01*
X46518083Y-39974100D01*
X46496977Y-39974960D01*
X46496965Y-39974960D01*
X46496964Y-39974961D01*
X46482709Y-39976125D01*
X46482697Y-39976126D01*
X46482675Y-39976128D01*
X46472960Y-39977106D01*
X46472952Y-39977107D01*
X46376702Y-40008535D01*
X46324291Y-40037986D01*
X46324286Y-40037990D01*
X46299779Y-40057194D01*
X46262142Y-40086686D01*
X46223789Y-40148260D01*
X46176461Y-40185345D01*
X46135429Y-40188604D01*
X46098783Y-40182800D01*
X45897801Y-40182800D01*
X45897800Y-40182801D01*
X45643800Y-40182801D01*
X45643799Y-40182800D01*
X45442817Y-40182800D01*
X45348642Y-40197715D01*
X45235135Y-40255549D01*
X45145049Y-40345635D01*
X45087215Y-40459142D01*
X45072300Y-40553316D01*
X42665770Y-40553316D01*
X42935236Y-40182801D01*
X44450000Y-38100000D01*
X44450000Y-38099999D01*
X43570717Y-36890985D01*
X45222200Y-36890985D01*
X45222200Y-36929599D01*
X45222201Y-36929600D01*
X45669199Y-36929600D01*
X45669200Y-36929599D01*
X45669200Y-36532601D01*
X45923200Y-36532601D01*
X45923200Y-36929599D01*
X45923201Y-36929600D01*
X46370199Y-36929600D01*
X46370200Y-36929599D01*
X46370200Y-36890985D01*
X46355773Y-36799895D01*
X46299832Y-36690103D01*
X46212696Y-36602967D01*
X46102904Y-36547026D01*
X46102905Y-36547026D01*
X46011815Y-36532600D01*
X45923201Y-36532600D01*
X45923200Y-36532601D01*
X45669200Y-36532601D01*
X45669199Y-36532600D01*
X45580585Y-36532600D01*
X45489495Y-36547026D01*
X45379703Y-36602967D01*
X45292567Y-36690103D01*
X45236626Y-36799895D01*
X45222200Y-36890985D01*
X43570717Y-36890985D01*
X42434812Y-35329116D01*
X42418000Y-35277416D01*
X42418000Y-34658301D01*
X45159001Y-34658301D01*
X45159001Y-34864005D01*
X45165453Y-34924037D01*
X45216100Y-35059824D01*
X45302951Y-35175844D01*
X45302955Y-35175848D01*
X45418975Y-35262699D01*
X45554765Y-35313346D01*
X45554767Y-35313347D01*
X45595500Y-35317725D01*
X45595500Y-34658301D01*
X45595499Y-34658300D01*
X45159002Y-34658300D01*
X45159001Y-34658301D01*
X42418000Y-34658301D01*
X42418000Y-33817580D01*
X45159000Y-33817580D01*
X45159000Y-34023299D01*
X45159001Y-34023300D01*
X45595499Y-34023300D01*
X45595500Y-34023299D01*
X45595500Y-32677101D01*
X45595499Y-32677100D01*
X45159002Y-32677100D01*
X45159001Y-32677101D01*
X45159001Y-32882805D01*
X45165453Y-32942837D01*
X45216100Y-33078624D01*
X45302951Y-33194644D01*
X45302952Y-33194645D01*
X45416748Y-33279832D01*
X45449655Y-33330155D01*
X45442517Y-33389857D01*
X45416748Y-33420568D01*
X45302952Y-33505754D01*
X45302951Y-33505755D01*
X45216100Y-33621775D01*
X45165453Y-33757565D01*
X45165451Y-33757575D01*
X45159000Y-33817580D01*
X42418000Y-33817580D01*
X42418000Y-31836380D01*
X45159000Y-31836380D01*
X45159000Y-32042099D01*
X45159001Y-32042100D01*
X45595499Y-32042100D01*
X45595500Y-32042099D01*
X45595500Y-31425500D01*
X45616065Y-31368999D01*
X45643358Y-31353240D01*
X45659000Y-31337599D01*
X45659000Y-30632401D01*
X45658999Y-30632400D01*
X45159002Y-30632400D01*
X45159001Y-30632401D01*
X45159001Y-30901601D01*
X45165453Y-30961637D01*
X45216100Y-31097424D01*
X45302951Y-31213444D01*
X45302952Y-31213445D01*
X45416748Y-31298632D01*
X45449655Y-31348955D01*
X45442517Y-31408657D01*
X45416748Y-31439368D01*
X45302952Y-31524554D01*
X45302951Y-31524555D01*
X45216100Y-31640575D01*
X45165453Y-31776365D01*
X45165451Y-31776375D01*
X45159000Y-31836380D01*
X42418000Y-31836380D01*
X42418000Y-29855180D01*
X45159000Y-29855180D01*
X45159000Y-30124399D01*
X45159001Y-30124400D01*
X45658999Y-30124400D01*
X45659000Y-30124399D01*
X45659000Y-29399399D01*
X45614794Y-29399400D01*
X45554762Y-29405853D01*
X45418975Y-29456500D01*
X45302955Y-29543351D01*
X45302951Y-29543355D01*
X45216100Y-29659375D01*
X45165453Y-29795165D01*
X45165451Y-29795175D01*
X45159000Y-29855180D01*
X42418000Y-29855180D01*
X42418000Y-28028400D01*
X42438565Y-27971899D01*
X42490636Y-27941835D01*
X42505900Y-27940500D01*
X46689234Y-27940500D01*
X46745735Y-27961065D01*
G37*
%TD.AperFunction*%
%TA.AperFunction,Conductor*%
G36*
X97758601Y-27961065D02*
G01*
X97788665Y-28013136D01*
X97790000Y-28028400D01*
X97790000Y-35280403D01*
X97776258Y-35327594D01*
X96012000Y-38099999D01*
X96012000Y-38100000D01*
X97441040Y-40345635D01*
X97776258Y-40872405D01*
X97790000Y-40919596D01*
X97790000Y-48171600D01*
X97769435Y-48228101D01*
X97717364Y-48258165D01*
X97702100Y-48259500D01*
X92497847Y-48259500D01*
X92441346Y-48238935D01*
X92429209Y-48226511D01*
X92383245Y-48169056D01*
X92245351Y-47996689D01*
X92233200Y-47976408D01*
X92170547Y-47830214D01*
X92161694Y-47814877D01*
X92161649Y-47814785D01*
X92152960Y-47799735D01*
X92125255Y-47751750D01*
X92125255Y-47751749D01*
X92068133Y-47652810D01*
X91925670Y-47474168D01*
X91898351Y-47448820D01*
X91758176Y-47318756D01*
X91758170Y-47318751D01*
X91647694Y-47243431D01*
X91628574Y-47225718D01*
X91440000Y-46990000D01*
X90929149Y-46990000D01*
X90922532Y-46989506D01*
X90922515Y-46989745D01*
X90919246Y-46989499D01*
X90919241Y-46989499D01*
X90919235Y-46989499D01*
X90804995Y-46989500D01*
X89349000Y-46989500D01*
X89292499Y-46968935D01*
X89262435Y-46916864D01*
X89261100Y-46901600D01*
X89261100Y-37552890D01*
X89260114Y-37530310D01*
X89260113Y-37530307D01*
X89260113Y-37530290D01*
X89258778Y-37515026D01*
X89257545Y-37503762D01*
X89224997Y-37407883D01*
X89194933Y-37355812D01*
X89145518Y-37294242D01*
X89058956Y-37241715D01*
X89058954Y-37241714D01*
X89058952Y-37241713D01*
X89058953Y-37241713D01*
X89005378Y-37222214D01*
X89002455Y-37221150D01*
X88913700Y-37205500D01*
X85220999Y-37205500D01*
X85220989Y-37205500D01*
X85198409Y-37206485D01*
X85193301Y-37206932D01*
X85183125Y-37207822D01*
X85183102Y-37207824D01*
X85183085Y-37207826D01*
X85171862Y-37209054D01*
X85075985Y-37241601D01*
X85075982Y-37241603D01*
X85023911Y-37271667D01*
X85016342Y-37277742D01*
X84962341Y-37321081D01*
X84909816Y-37407638D01*
X84909815Y-37407640D01*
X84889250Y-37464141D01*
X84889247Y-37464154D01*
X84873600Y-37552886D01*
X84873599Y-37552904D01*
X84873599Y-37639003D01*
X84853034Y-37695504D01*
X84847854Y-37701158D01*
X84290754Y-38258257D01*
X84236260Y-38283668D01*
X84178182Y-38268105D01*
X84166444Y-38258257D01*
X83609345Y-37701158D01*
X83583934Y-37646664D01*
X83583600Y-37639003D01*
X83583600Y-37552890D01*
X83582614Y-37530310D01*
X83582613Y-37530307D01*
X83582613Y-37530290D01*
X83581278Y-37515026D01*
X83580045Y-37503762D01*
X83547497Y-37407883D01*
X83517433Y-37355812D01*
X83468018Y-37294242D01*
X83381456Y-37241715D01*
X83381454Y-37241714D01*
X83381452Y-37241713D01*
X83381453Y-37241713D01*
X83327878Y-37222214D01*
X83324955Y-37221150D01*
X83236200Y-37205500D01*
X82320999Y-37205500D01*
X82320983Y-37205500D01*
X82320821Y-37205507D01*
X82320799Y-37205500D01*
X82319081Y-37205500D01*
X82319081Y-37204957D01*
X82263484Y-37187403D01*
X82231199Y-37136678D01*
X82230812Y-37134836D01*
X82218334Y-37072099D01*
X82202655Y-37048634D01*
X82188363Y-36990230D01*
X82214957Y-36936303D01*
X82257917Y-36917400D01*
X83723614Y-36917400D01*
X84228599Y-37422385D01*
X84655213Y-36995772D01*
X84709707Y-36970361D01*
X84742131Y-36973587D01*
X84773845Y-36982900D01*
X84773848Y-36982900D01*
X84898156Y-36982900D01*
X84898159Y-36982899D01*
X84979202Y-36959102D01*
X85017430Y-36947877D01*
X85122007Y-36880670D01*
X85203413Y-36786722D01*
X85255054Y-36673645D01*
X85259556Y-36642336D01*
X85272745Y-36550603D01*
X85272745Y-36550596D01*
X85255055Y-36427561D01*
X85255054Y-36427560D01*
X85255054Y-36427555D01*
X85203413Y-36314478D01*
X85122007Y-36220530D01*
X85122005Y-36220529D01*
X85122003Y-36220527D01*
X85017432Y-36153324D01*
X85017426Y-36153321D01*
X84898159Y-36118300D01*
X84898155Y-36118300D01*
X84773845Y-36118300D01*
X84773840Y-36118300D01*
X84654573Y-36153321D01*
X84654567Y-36153324D01*
X84549996Y-36220527D01*
X84549991Y-36220531D01*
X84468586Y-36314479D01*
X84416946Y-36427555D01*
X84416944Y-36427561D01*
X84399255Y-36550596D01*
X84399255Y-36550603D01*
X84416944Y-36673638D01*
X84416945Y-36673643D01*
X84416946Y-36673645D01*
X84455041Y-36757061D01*
X84471199Y-36792441D01*
X84468201Y-36793810D01*
X84478790Y-36840583D01*
X84451266Y-36894040D01*
X84395819Y-36917298D01*
X84391592Y-36917400D01*
X83723614Y-36917400D01*
X82257917Y-36917400D01*
X82269992Y-36912087D01*
X82275741Y-36911899D01*
X82418843Y-36911899D01*
X82418844Y-36911899D01*
X82511227Y-36897268D01*
X82622571Y-36840535D01*
X82665999Y-36797106D01*
X82720492Y-36771696D01*
X82778570Y-36787259D01*
X82790308Y-36797107D01*
X82833327Y-36840126D01*
X82927800Y-36888261D01*
X82927800Y-36627401D01*
X83487800Y-36627401D01*
X83487800Y-36888261D01*
X83588438Y-36836985D01*
X83589865Y-36839787D01*
X83633741Y-36827197D01*
X83641085Y-36785550D01*
X83655054Y-36767345D01*
X83670527Y-36751871D01*
X83727185Y-36640671D01*
X83729288Y-36627400D01*
X83487801Y-36627400D01*
X83487800Y-36627401D01*
X82927800Y-36627401D01*
X82927800Y-35806537D01*
X82927799Y-35806536D01*
X82833329Y-35854671D01*
X82790308Y-35897693D01*
X82735814Y-35923104D01*
X82677736Y-35907541D01*
X82666004Y-35897698D01*
X82627045Y-35858739D01*
X82601635Y-35804247D01*
X82617198Y-35746169D01*
X82666451Y-35711681D01*
X82674447Y-35710227D01*
X82674430Y-35710142D01*
X82696834Y-35705685D01*
X82752901Y-35694534D01*
X82837084Y-35638284D01*
X82893334Y-35554101D01*
X82908100Y-35479867D01*
X82908099Y-33829734D01*
X82908099Y-33829733D01*
X82908099Y-33829731D01*
X82901325Y-33795675D01*
X82893334Y-33755499D01*
X82837084Y-33671316D01*
X82835375Y-33670174D01*
X82752901Y-33615065D01*
X82699792Y-33604502D01*
X82678667Y-33600300D01*
X82678665Y-33600300D01*
X81828531Y-33600300D01*
X81754299Y-33615066D01*
X81670117Y-33671315D01*
X81670114Y-33671318D01*
X81613865Y-33755498D01*
X81601517Y-33817580D01*
X81599101Y-33829731D01*
X81599100Y-33829734D01*
X81599100Y-35063759D01*
X81578535Y-35120260D01*
X81526464Y-35150324D01*
X81467250Y-35139883D01*
X81444769Y-35121321D01*
X81444213Y-35120679D01*
X81444213Y-35120678D01*
X81371267Y-35036494D01*
X81362808Y-35026731D01*
X81362803Y-35026727D01*
X81258232Y-34959524D01*
X81258226Y-34959521D01*
X81138959Y-34924500D01*
X81138955Y-34924500D01*
X81014645Y-34924500D01*
X81014640Y-34924500D01*
X80895373Y-34959521D01*
X80895367Y-34959524D01*
X80790796Y-35026727D01*
X80790791Y-35026731D01*
X80709386Y-35120679D01*
X80657746Y-35233755D01*
X80657744Y-35233761D01*
X80640055Y-35356796D01*
X80640055Y-35356803D01*
X80657744Y-35479838D01*
X80657745Y-35479843D01*
X80657746Y-35479845D01*
X80709387Y-35592922D01*
X80790793Y-35686870D01*
X80790795Y-35686871D01*
X80790796Y-35686872D01*
X80829400Y-35711681D01*
X80895370Y-35754077D01*
X80895372Y-35754077D01*
X80895373Y-35754078D01*
X81014640Y-35789099D01*
X81014644Y-35789100D01*
X81014645Y-35789100D01*
X81138956Y-35789100D01*
X81138959Y-35789099D01*
X81224770Y-35763902D01*
X81258230Y-35754077D01*
X81362807Y-35686870D01*
X81444213Y-35592922D01*
X81458146Y-35562412D01*
X81500322Y-35519561D01*
X81560176Y-35513845D01*
X81609702Y-35547940D01*
X81611188Y-35550093D01*
X81613865Y-35554100D01*
X81613866Y-35554101D01*
X81670116Y-35638284D01*
X81670119Y-35638286D01*
X81754298Y-35694534D01*
X81825270Y-35708651D01*
X81876674Y-35739843D01*
X81896001Y-35796779D01*
X81874209Y-35852818D01*
X81870277Y-35857016D01*
X81784665Y-35942628D01*
X81784662Y-35942632D01*
X81727931Y-36053972D01*
X81727931Y-36053973D01*
X81713300Y-36146355D01*
X81713300Y-36359848D01*
X81692735Y-36416349D01*
X81687555Y-36422003D01*
X81218402Y-36891155D01*
X81163908Y-36916566D01*
X81156247Y-36916900D01*
X80653531Y-36916900D01*
X80579299Y-36931666D01*
X80495117Y-36987915D01*
X80495114Y-36987918D01*
X80438865Y-37072098D01*
X80426402Y-37134761D01*
X80395210Y-37186165D01*
X80340038Y-37204893D01*
X80340038Y-37205500D01*
X69775699Y-37205500D01*
X69719198Y-37184935D01*
X69689134Y-37132864D01*
X69687799Y-37117600D01*
X69687799Y-36790781D01*
X69671374Y-36708204D01*
X69674290Y-36707623D01*
X69672250Y-36661015D01*
X69708847Y-36613308D01*
X69756409Y-36599538D01*
X71537365Y-36606183D01*
X71640388Y-36606568D01*
X71640389Y-36606567D01*
X71640404Y-36606568D01*
X71663493Y-36605625D01*
X71679085Y-36604291D01*
X71690838Y-36603016D01*
X71786717Y-36570468D01*
X71838788Y-36540404D01*
X71900358Y-36490989D01*
X71952885Y-36404427D01*
X71973450Y-36347926D01*
X71989100Y-36259171D01*
X71989100Y-33398396D01*
X80513055Y-33398396D01*
X80513055Y-33398403D01*
X80530744Y-33521438D01*
X80530745Y-33521443D01*
X80530746Y-33521445D01*
X80582387Y-33634522D01*
X80663793Y-33728470D01*
X80768370Y-33795677D01*
X80768372Y-33795677D01*
X80768373Y-33795678D01*
X80887640Y-33830699D01*
X80887644Y-33830700D01*
X80887645Y-33830700D01*
X81011956Y-33830700D01*
X81011959Y-33830699D01*
X81071592Y-33813188D01*
X81131230Y-33795677D01*
X81235807Y-33728470D01*
X81317213Y-33634522D01*
X81368854Y-33521445D01*
X81371482Y-33503165D01*
X81386545Y-33398403D01*
X81386545Y-33398396D01*
X81368855Y-33275361D01*
X81368854Y-33275360D01*
X81368854Y-33275355D01*
X81317213Y-33162278D01*
X81235807Y-33068330D01*
X81235805Y-33068329D01*
X81235803Y-33068327D01*
X81131232Y-33001124D01*
X81131226Y-33001121D01*
X81011959Y-32966100D01*
X81011955Y-32966100D01*
X80887645Y-32966100D01*
X80887640Y-32966100D01*
X80768373Y-33001121D01*
X80768367Y-33001124D01*
X80663796Y-33068327D01*
X80663791Y-33068331D01*
X80582386Y-33162279D01*
X80530746Y-33275355D01*
X80530744Y-33275361D01*
X80513055Y-33398396D01*
X71989100Y-33398396D01*
X71989100Y-32980900D01*
X71989070Y-32980216D01*
X71988114Y-32958310D01*
X71988113Y-32958307D01*
X71988113Y-32958290D01*
X71986778Y-32943026D01*
X71985545Y-32931762D01*
X71952997Y-32835883D01*
X71922933Y-32783812D01*
X71873518Y-32722242D01*
X71786956Y-32669715D01*
X71786954Y-32669714D01*
X71786952Y-32669713D01*
X71786953Y-32669713D01*
X71743480Y-32653891D01*
X71730455Y-32649150D01*
X71641700Y-32633500D01*
X69734700Y-32633500D01*
X69734690Y-32633500D01*
X69712110Y-32634485D01*
X69707002Y-32634932D01*
X69696826Y-32635822D01*
X69696803Y-32635824D01*
X69696786Y-32635826D01*
X69685565Y-32637054D01*
X69685562Y-32637054D01*
X69685562Y-32637055D01*
X69589683Y-32669603D01*
X69589681Y-32669603D01*
X69585595Y-32670991D01*
X69585379Y-32670355D01*
X69554152Y-32677100D01*
X69110901Y-32677100D01*
X69110900Y-32677101D01*
X69110900Y-34570400D01*
X69090335Y-34626901D01*
X69038264Y-34656965D01*
X69023000Y-34658300D01*
X68563800Y-34658300D01*
X68507299Y-34637735D01*
X68477235Y-34585664D01*
X68475900Y-34570400D01*
X68475900Y-30695901D01*
X69110900Y-30695901D01*
X69110900Y-32042099D01*
X69110901Y-32042100D01*
X69547398Y-32042100D01*
X69547399Y-32042099D01*
X69547399Y-31836394D01*
X69540946Y-31776362D01*
X69490299Y-31640575D01*
X69403448Y-31524555D01*
X69403444Y-31524551D01*
X69391150Y-31515348D01*
X83290300Y-31515348D01*
X83290300Y-31846650D01*
X83290301Y-31846653D01*
X83304745Y-31937859D01*
X83304746Y-31937862D01*
X83358575Y-32043509D01*
X83360760Y-32047796D01*
X83441810Y-32128846D01*
X83467221Y-32183339D01*
X83451658Y-32241417D01*
X83441815Y-32253148D01*
X83385665Y-32309299D01*
X83360758Y-32334206D01*
X83304745Y-32444139D01*
X83290300Y-32535348D01*
X83290300Y-32866650D01*
X83290301Y-32866653D01*
X83304745Y-32957859D01*
X83304746Y-32957862D01*
X83341616Y-33030225D01*
X83360760Y-33067796D01*
X83448004Y-33155040D01*
X83557938Y-33211054D01*
X83557937Y-33211054D01*
X83573215Y-33213473D01*
X83636051Y-33223425D01*
X83688638Y-33252575D01*
X83710187Y-33308708D01*
X83710200Y-33310243D01*
X83710200Y-33512589D01*
X83689635Y-33569090D01*
X83637564Y-33599154D01*
X83630919Y-33600065D01*
X83628539Y-33600299D01*
X83554299Y-33615066D01*
X83470117Y-33671315D01*
X83470114Y-33671318D01*
X83413865Y-33755498D01*
X83401517Y-33817580D01*
X83399101Y-33829731D01*
X83399100Y-33829734D01*
X83399100Y-35479868D01*
X83412026Y-35544853D01*
X83413866Y-35554101D01*
X83470116Y-35638284D01*
X83470119Y-35638286D01*
X83495752Y-35655414D01*
X83531305Y-35703903D01*
X83527371Y-35763902D01*
X83492844Y-35803446D01*
X83487800Y-35806537D01*
X83487800Y-36067399D01*
X83487801Y-36067400D01*
X83729288Y-36067400D01*
X83727185Y-36054128D01*
X83670527Y-35942928D01*
X83586953Y-35859354D01*
X83561542Y-35804860D01*
X83577105Y-35746782D01*
X83626358Y-35712294D01*
X83649100Y-35709299D01*
X84478666Y-35709299D01*
X84478668Y-35709299D01*
X84497161Y-35705620D01*
X84552901Y-35694534D01*
X84637084Y-35638284D01*
X84693334Y-35554101D01*
X84708100Y-35479867D01*
X84708099Y-33829734D01*
X84708099Y-33829733D01*
X84708099Y-33829731D01*
X84701325Y-33795675D01*
X84693334Y-33755499D01*
X84637084Y-33671316D01*
X84635375Y-33670174D01*
X84552901Y-33615065D01*
X84478658Y-33600298D01*
X84476270Y-33600063D01*
X84475417Y-33599654D01*
X84474432Y-33599458D01*
X84474482Y-33599205D01*
X84422061Y-33574051D01*
X84397255Y-33519279D01*
X84397000Y-33512588D01*
X84397000Y-33086748D01*
X84417565Y-33030247D01*
X84469636Y-33000183D01*
X84528850Y-33010624D01*
X84547050Y-33024589D01*
X84547960Y-33025499D01*
X84654250Y-33077461D01*
X84723154Y-33087500D01*
X84723159Y-33087500D01*
X85365441Y-33087500D01*
X85365446Y-33087500D01*
X85434350Y-33077461D01*
X85536847Y-33027352D01*
X85596639Y-33021014D01*
X85624287Y-33033236D01*
X85682694Y-33072262D01*
X85756781Y-33086999D01*
X86214300Y-33086999D01*
X86214300Y-30279001D01*
X86849300Y-30279001D01*
X86849300Y-33086998D01*
X86849301Y-33086999D01*
X87306818Y-33086999D01*
X87380906Y-33072262D01*
X87439313Y-33033236D01*
X87497717Y-33018944D01*
X87526751Y-33027352D01*
X87629250Y-33077461D01*
X87698154Y-33087500D01*
X87698159Y-33087500D01*
X88340441Y-33087500D01*
X88340446Y-33087500D01*
X88409350Y-33077461D01*
X88417665Y-33073396D01*
X91511255Y-33073396D01*
X91511255Y-33073403D01*
X91528944Y-33196438D01*
X91528945Y-33196443D01*
X91528946Y-33196445D01*
X91580587Y-33309522D01*
X91661993Y-33403470D01*
X91766570Y-33470677D01*
X91766572Y-33470677D01*
X91766573Y-33470678D01*
X91885840Y-33505699D01*
X91885844Y-33505700D01*
X91885845Y-33505700D01*
X92010156Y-33505700D01*
X92010159Y-33505699D01*
X92088825Y-33482600D01*
X92129430Y-33470677D01*
X92234007Y-33403470D01*
X92315413Y-33309522D01*
X92367054Y-33196445D01*
X92371966Y-33162279D01*
X92384745Y-33073403D01*
X92384745Y-33073396D01*
X92367055Y-32950361D01*
X92367054Y-32950360D01*
X92367054Y-32950355D01*
X92315413Y-32837278D01*
X92234007Y-32743330D01*
X92234005Y-32743329D01*
X92234003Y-32743327D01*
X92129432Y-32676124D01*
X92129426Y-32676121D01*
X92010159Y-32641100D01*
X92010155Y-32641100D01*
X91885845Y-32641100D01*
X91885840Y-32641100D01*
X91766573Y-32676121D01*
X91766567Y-32676124D01*
X91661996Y-32743327D01*
X91661991Y-32743331D01*
X91580586Y-32837279D01*
X91528946Y-32950355D01*
X91528944Y-32950361D01*
X91511255Y-33073396D01*
X88417665Y-33073396D01*
X88515640Y-33025499D01*
X88599299Y-32941840D01*
X88651261Y-32835550D01*
X88661300Y-32766646D01*
X88661300Y-32499354D01*
X88651261Y-32430450D01*
X88599299Y-32324160D01*
X88515640Y-32240501D01*
X88515638Y-32240500D01*
X88515636Y-32240498D01*
X88508416Y-32236969D01*
X88466687Y-32193680D01*
X88462547Y-32133695D01*
X88497933Y-32085083D01*
X88508416Y-32079031D01*
X88515636Y-32075501D01*
X88515636Y-32075500D01*
X88515640Y-32075499D01*
X88599299Y-31991840D01*
X88651261Y-31885550D01*
X88659909Y-31826196D01*
X90419055Y-31826196D01*
X90419055Y-31826203D01*
X90436744Y-31949238D01*
X90436745Y-31949243D01*
X90436746Y-31949245D01*
X90488387Y-32062322D01*
X90569793Y-32156270D01*
X90674370Y-32223477D01*
X90674372Y-32223477D01*
X90674373Y-32223478D01*
X90793640Y-32258499D01*
X90793644Y-32258500D01*
X90793645Y-32258500D01*
X90917956Y-32258500D01*
X90917959Y-32258499D01*
X90993355Y-32236360D01*
X91037230Y-32223477D01*
X91141807Y-32156270D01*
X91223213Y-32062322D01*
X91274854Y-31949245D01*
X91279270Y-31918531D01*
X91292545Y-31826203D01*
X91292545Y-31826196D01*
X91274855Y-31703161D01*
X91274854Y-31703160D01*
X91274854Y-31703155D01*
X91223213Y-31590078D01*
X91141807Y-31496130D01*
X91141805Y-31496129D01*
X91141803Y-31496127D01*
X91037232Y-31428924D01*
X91037226Y-31428921D01*
X90917959Y-31393900D01*
X90917955Y-31393900D01*
X90793645Y-31393900D01*
X90793640Y-31393900D01*
X90674373Y-31428921D01*
X90674367Y-31428924D01*
X90569796Y-31496127D01*
X90569791Y-31496131D01*
X90488386Y-31590079D01*
X90436746Y-31703155D01*
X90436744Y-31703161D01*
X90419055Y-31826196D01*
X88659909Y-31826196D01*
X88661300Y-31816646D01*
X88661300Y-31549354D01*
X88651261Y-31480450D01*
X88599299Y-31374160D01*
X88515640Y-31290501D01*
X88515638Y-31290500D01*
X88515636Y-31290498D01*
X88508416Y-31286969D01*
X88466687Y-31243680D01*
X88462547Y-31183695D01*
X88497933Y-31135083D01*
X88508416Y-31129031D01*
X88515636Y-31125501D01*
X88515636Y-31125500D01*
X88515640Y-31125499D01*
X88599299Y-31041840D01*
X88651261Y-30935550D01*
X88661300Y-30866646D01*
X88661300Y-30599354D01*
X88651261Y-30530450D01*
X88599299Y-30424160D01*
X88515640Y-30340501D01*
X88515638Y-30340500D01*
X88515637Y-30340499D01*
X88421224Y-30294344D01*
X88409350Y-30288539D01*
X88340446Y-30278500D01*
X87698154Y-30278500D01*
X87629250Y-30288539D01*
X87629248Y-30288540D01*
X87526752Y-30338646D01*
X87466959Y-30344985D01*
X87439312Y-30332763D01*
X87380905Y-30293737D01*
X87306815Y-30279000D01*
X86849301Y-30279000D01*
X86849300Y-30279001D01*
X86214300Y-30279001D01*
X86214299Y-30279000D01*
X85756781Y-30279000D01*
X85682693Y-30293737D01*
X85682692Y-30293737D01*
X85623803Y-30333085D01*
X85565399Y-30347375D01*
X85536365Y-30338967D01*
X85434209Y-30289026D01*
X85365393Y-30279000D01*
X85244301Y-30279000D01*
X85244300Y-30279001D01*
X85244300Y-30845100D01*
X85223735Y-30901601D01*
X85171664Y-30931665D01*
X85156400Y-30933000D01*
X84412474Y-30933000D01*
X84412825Y-30935405D01*
X84464712Y-31041543D01*
X84548257Y-31125088D01*
X84555752Y-31128752D01*
X84597481Y-31172042D01*
X84601621Y-31232026D01*
X84566235Y-31280638D01*
X84555758Y-31286687D01*
X84547963Y-31290497D01*
X84526605Y-31311856D01*
X84472110Y-31337266D01*
X84464451Y-31337600D01*
X84428645Y-31337600D01*
X84372144Y-31317035D01*
X84366501Y-31311865D01*
X84281596Y-31226960D01*
X84281593Y-31226958D01*
X84171660Y-31170945D01*
X84171661Y-31170945D01*
X84105392Y-31160450D01*
X84080453Y-31156500D01*
X84080451Y-31156500D01*
X83649149Y-31156500D01*
X83649147Y-31156501D01*
X83557940Y-31170945D01*
X83557937Y-31170946D01*
X83448006Y-31226958D01*
X83360758Y-31314206D01*
X83304745Y-31424139D01*
X83290300Y-31515348D01*
X69391150Y-31515348D01*
X69289652Y-31439368D01*
X69256744Y-31389045D01*
X69263882Y-31329343D01*
X69289652Y-31298632D01*
X69403444Y-31213448D01*
X69403448Y-31213444D01*
X69490299Y-31097424D01*
X69540946Y-30961634D01*
X69540948Y-30961624D01*
X69547399Y-30901619D01*
X69547400Y-30901610D01*
X69547400Y-30695901D01*
X69547399Y-30695900D01*
X69110901Y-30695900D01*
X69110900Y-30695901D01*
X68475900Y-30695901D01*
X68475900Y-30532999D01*
X84412474Y-30532999D01*
X84412475Y-30533000D01*
X84844299Y-30533000D01*
X84844300Y-30532999D01*
X84844300Y-30279001D01*
X84844299Y-30279000D01*
X84723207Y-30279000D01*
X84654390Y-30289026D01*
X84654388Y-30289027D01*
X84548257Y-30340911D01*
X84464712Y-30424456D01*
X84412825Y-30530594D01*
X84412474Y-30532999D01*
X68475900Y-30532999D01*
X68475900Y-30060899D01*
X69110900Y-30060899D01*
X69110901Y-30060900D01*
X69547398Y-30060900D01*
X69547399Y-30060899D01*
X69547399Y-29855194D01*
X69540946Y-29795162D01*
X69490299Y-29659375D01*
X69403448Y-29543355D01*
X69403444Y-29543351D01*
X69287424Y-29456500D01*
X69151634Y-29405853D01*
X69110900Y-29401472D01*
X69110900Y-30060899D01*
X68475900Y-30060899D01*
X68475900Y-29401474D01*
X68429697Y-29406441D01*
X68429391Y-29403602D01*
X68379886Y-29397775D01*
X68338660Y-29354006D01*
X68331500Y-29319257D01*
X68331500Y-28459640D01*
X68331360Y-28456422D01*
X68330521Y-28437117D01*
X68330434Y-28436127D01*
X68329200Y-28421949D01*
X68329196Y-28421910D01*
X68327977Y-28410729D01*
X68302006Y-28334059D01*
X68295492Y-28314828D01*
X68265463Y-28262741D01*
X68265454Y-28262728D01*
X68216091Y-28201140D01*
X68216090Y-28201139D01*
X68216089Y-28201138D01*
X68129562Y-28148553D01*
X68073076Y-28127951D01*
X68073074Y-28127950D01*
X68073073Y-28127950D01*
X68038156Y-28121769D01*
X67999651Y-28114954D01*
X67947601Y-28084857D01*
X67927073Y-28028343D01*
X67947675Y-27971855D01*
X67999766Y-27941825D01*
X68014973Y-27940500D01*
X97702100Y-27940500D01*
X97758601Y-27961065D01*
G37*
%TD.AperFunction*%
%TA.AperFunction,Conductor*%
G36*
X76236969Y-46566759D02*
G01*
X76260395Y-46573637D01*
X76283150Y-46584030D01*
X76303692Y-46597232D01*
X76322599Y-46613615D01*
X76338586Y-46632065D01*
X76352109Y-46653107D01*
X76362255Y-46675321D01*
X76369302Y-46699321D01*
X76372777Y-46723486D01*
X76372777Y-46748507D01*
X76363474Y-46813214D01*
X76361003Y-46824797D01*
X76358883Y-46832233D01*
X76358883Y-46832234D01*
X76352275Y-46884008D01*
X76352275Y-46884013D01*
X76352275Y-46884014D01*
X76352309Y-46901427D01*
X76331857Y-46957968D01*
X76279845Y-46988134D01*
X76264410Y-46989500D01*
X76135104Y-46989500D01*
X76078603Y-46968935D01*
X76048539Y-46916864D01*
X76047481Y-46908568D01*
X76042387Y-46844518D01*
X76042387Y-46844515D01*
X76042387Y-46844514D01*
X76040557Y-46837465D01*
X76038636Y-46827903D01*
X76036524Y-46813214D01*
X76027220Y-46748504D01*
X76027220Y-46723493D01*
X76030696Y-46699321D01*
X76037742Y-46675325D01*
X76047888Y-46653107D01*
X76061411Y-46632065D01*
X76077399Y-46613613D01*
X76096303Y-46597232D01*
X76116849Y-46584028D01*
X76139606Y-46573637D01*
X76163029Y-46566760D01*
X76187791Y-46563200D01*
X76212211Y-46563200D01*
X76236969Y-46566759D01*
G37*
%TD.AperFunction*%
%TA.AperFunction,Conductor*%
G36*
X58764773Y-32653991D02*
G01*
X58799261Y-32703244D01*
X58800567Y-32708846D01*
X58803232Y-32722242D01*
X58813570Y-32774219D01*
X58846154Y-32822984D01*
X58860446Y-32881388D01*
X58854279Y-32905452D01*
X58852958Y-32908639D01*
X58852955Y-32908648D01*
X58852955Y-32908650D01*
X58839000Y-32978800D01*
X58839000Y-33256300D01*
X58849731Y-33310243D01*
X58852955Y-33326448D01*
X58852956Y-33326453D01*
X58854566Y-33330340D01*
X58863757Y-33344095D01*
X58894298Y-33389802D01*
X58931798Y-33427302D01*
X58961529Y-33447168D01*
X58991259Y-33467033D01*
X58991260Y-33467033D01*
X58991261Y-33467034D01*
X58995150Y-33468645D01*
X59065300Y-33482600D01*
X59120705Y-33482600D01*
X59177206Y-33503165D01*
X59202116Y-33537354D01*
X59214507Y-33567789D01*
X59216472Y-33570493D01*
X59216962Y-33572204D01*
X59217091Y-33572435D01*
X59217037Y-33572464D01*
X59233045Y-33628291D01*
X59218449Y-33670987D01*
X59214814Y-33676427D01*
X59214812Y-33676429D01*
X59214812Y-33676431D01*
X59199501Y-33753407D01*
X59199500Y-33753410D01*
X59199500Y-34034192D01*
X59209129Y-34082599D01*
X59214812Y-34111169D01*
X59273139Y-34198461D01*
X59360431Y-34256788D01*
X59437409Y-34272100D01*
X60520360Y-34272099D01*
X60520363Y-34272099D01*
X60520365Y-34272098D01*
X60572365Y-34261756D01*
X60572366Y-34261756D01*
X60572366Y-34261755D01*
X60572369Y-34261755D01*
X60631347Y-34222347D01*
X60670755Y-34163369D01*
X60678968Y-34122078D01*
X60710161Y-34070676D01*
X60767097Y-34051349D01*
X60819292Y-34069959D01*
X60872039Y-34111166D01*
X62149389Y-35109060D01*
X62149397Y-35109065D01*
X62165492Y-35117803D01*
X62172388Y-35121967D01*
X62233698Y-35162934D01*
X62237984Y-35164709D01*
X62282316Y-35205329D01*
X62290166Y-35264941D01*
X62257861Y-35315653D01*
X62203726Y-35333817D01*
X61177337Y-35326536D01*
X61153835Y-35327438D01*
X61153802Y-35327440D01*
X61137936Y-35328772D01*
X61137932Y-35328772D01*
X61137925Y-35328773D01*
X61125762Y-35330083D01*
X61125759Y-35330084D01*
X61125758Y-35330084D01*
X61029886Y-35362629D01*
X61029883Y-35362631D01*
X60979349Y-35391808D01*
X60977814Y-35392694D01*
X60977813Y-35392694D01*
X60916241Y-35442111D01*
X60863713Y-35528674D01*
X60843151Y-35585170D01*
X60843150Y-35585173D01*
X60832030Y-35648238D01*
X60827500Y-35673930D01*
X60827500Y-36844838D01*
X60827639Y-36853321D01*
X60827826Y-36859064D01*
X60849659Y-36955077D01*
X60873870Y-37010111D01*
X60916288Y-37076701D01*
X60916289Y-37076702D01*
X60916290Y-37076703D01*
X60916291Y-37076704D01*
X60996616Y-37138346D01*
X61020280Y-37150017D01*
X61061857Y-37193450D01*
X61069300Y-37228850D01*
X61069300Y-37480309D01*
X61070285Y-37502889D01*
X61071625Y-37518207D01*
X61073377Y-37534210D01*
X61073058Y-37534244D01*
X61074300Y-37545581D01*
X61074300Y-37658269D01*
X61085551Y-37714833D01*
X61085551Y-37749127D01*
X61074800Y-37803179D01*
X61074800Y-37985699D01*
X61074801Y-37985700D01*
X61836299Y-37985700D01*
X61836300Y-37985699D01*
X61836300Y-37879077D01*
X61856865Y-37822576D01*
X61862045Y-37816922D01*
X61862278Y-37816687D01*
X61862284Y-37816684D01*
X61918534Y-37732501D01*
X61933300Y-37658267D01*
X61933300Y-37613107D01*
X61953863Y-37556609D01*
X61959045Y-37550954D01*
X61978800Y-37531199D01*
X61978800Y-37056001D01*
X61963300Y-37040501D01*
X61938677Y-36987698D01*
X61938318Y-36987752D01*
X61938137Y-36986539D01*
X61937889Y-36986007D01*
X61937733Y-36983825D01*
X61937720Y-36983742D01*
X61937719Y-36983739D01*
X61937719Y-36983733D01*
X61913652Y-36885383D01*
X61888241Y-36830890D01*
X61836549Y-36757067D01*
X61816012Y-36736530D01*
X61788662Y-36709179D01*
X61772501Y-36686936D01*
X61765725Y-36673638D01*
X61757230Y-36647489D01*
X61755480Y-36636440D01*
X61754400Y-36622699D01*
X61754400Y-36275289D01*
X61755481Y-36261544D01*
X61757228Y-36250510D01*
X61765725Y-36224358D01*
X61769480Y-36216989D01*
X61813455Y-36175986D01*
X61847797Y-36169000D01*
X62214876Y-36169000D01*
X62271377Y-36189565D01*
X62274256Y-36192090D01*
X62280880Y-36198159D01*
X62308647Y-36251490D01*
X62309400Y-36262969D01*
X62309400Y-36863460D01*
X62328466Y-36904348D01*
X62328800Y-36912009D01*
X62328800Y-37531199D01*
X62348555Y-37550954D01*
X62373966Y-37605448D01*
X62374300Y-37613107D01*
X62374300Y-37658267D01*
X62384552Y-37709806D01*
X62389066Y-37732501D01*
X62445316Y-37816684D01*
X62445319Y-37816686D01*
X62445555Y-37816922D01*
X62445738Y-37817316D01*
X62450126Y-37823882D01*
X62449115Y-37824557D01*
X62470966Y-37871416D01*
X62471300Y-37879077D01*
X62471300Y-38532800D01*
X62450735Y-38589301D01*
X62398664Y-38619365D01*
X62383400Y-38620700D01*
X61374091Y-38620700D01*
X61317590Y-38600135D01*
X61297968Y-38576751D01*
X61297698Y-38576283D01*
X61267634Y-38524212D01*
X61218219Y-38462642D01*
X61131657Y-38410115D01*
X61131655Y-38410114D01*
X61131653Y-38410113D01*
X61131654Y-38410113D01*
X61088181Y-38394291D01*
X61075156Y-38389550D01*
X60986401Y-38373900D01*
X60493721Y-38373900D01*
X60493720Y-38373900D01*
X60447640Y-38378023D01*
X60416942Y-38383562D01*
X60416932Y-38383564D01*
X60416929Y-38383565D01*
X60413145Y-38384603D01*
X60372327Y-38395799D01*
X60339458Y-38408058D01*
X60308743Y-38413599D01*
X59752053Y-38413599D01*
X59721334Y-38408056D01*
X59699316Y-38399843D01*
X59688497Y-38395808D01*
X59688492Y-38395806D01*
X59688486Y-38395804D01*
X59688483Y-38395803D01*
X59688474Y-38395800D01*
X59643863Y-38383562D01*
X59643853Y-38383560D01*
X59613153Y-38378023D01*
X59613149Y-38378022D01*
X59567081Y-38373900D01*
X59567080Y-38373900D01*
X59427800Y-38373900D01*
X59371299Y-38353335D01*
X59341235Y-38301264D01*
X59339900Y-38286000D01*
X59339900Y-36917890D01*
X59338914Y-36895310D01*
X59338913Y-36895307D01*
X59338913Y-36895290D01*
X59337578Y-36880026D01*
X59336345Y-36868762D01*
X59303797Y-36772883D01*
X59273733Y-36720812D01*
X59224318Y-36659242D01*
X59137756Y-36606715D01*
X59137754Y-36606714D01*
X59137752Y-36606713D01*
X59137753Y-36606713D01*
X59086200Y-36587950D01*
X59081255Y-36586150D01*
X58992500Y-36570500D01*
X58992497Y-36570500D01*
X58462600Y-36570500D01*
X58406099Y-36549935D01*
X58376035Y-36497864D01*
X58374700Y-36482600D01*
X58374700Y-34962090D01*
X58373714Y-34939510D01*
X58373713Y-34939507D01*
X58373713Y-34939490D01*
X58372378Y-34924226D01*
X58371145Y-34912962D01*
X58338597Y-34817083D01*
X58308533Y-34765012D01*
X58259118Y-34703442D01*
X58172556Y-34650915D01*
X58172554Y-34650914D01*
X58172552Y-34650913D01*
X58172553Y-34650913D01*
X58129080Y-34635091D01*
X58116055Y-34630350D01*
X58047456Y-34618254D01*
X58027290Y-34614698D01*
X58026435Y-34614624D01*
X58026172Y-34614501D01*
X58023520Y-34614034D01*
X58023645Y-34613323D01*
X57971943Y-34589211D01*
X57946534Y-34534716D01*
X57946200Y-34527059D01*
X57946200Y-33406250D01*
X57966765Y-33349749D01*
X57971934Y-33344106D01*
X58652201Y-32663838D01*
X58706695Y-32638428D01*
X58764773Y-32653991D01*
G37*
%TD.AperFunction*%
%TA.AperFunction,Conductor*%
G36*
X71690369Y-38133959D02*
G01*
X71713795Y-38140837D01*
X71736550Y-38151230D01*
X71757092Y-38164432D01*
X71775994Y-38180810D01*
X71792442Y-38199791D01*
X71801841Y-38213561D01*
X71802070Y-38213424D01*
X71803320Y-38215512D01*
X71803322Y-38215516D01*
X71814410Y-38234036D01*
X71818326Y-38240576D01*
X71829705Y-38299616D01*
X71827652Y-38306874D01*
X71811400Y-38388581D01*
X71811400Y-38521371D01*
X71790835Y-38577872D01*
X71738764Y-38607936D01*
X71679550Y-38597495D01*
X71644511Y-38559935D01*
X71634556Y-38539545D01*
X71634556Y-38539544D01*
X71629423Y-38532800D01*
X71598142Y-38491697D01*
X71598139Y-38491694D01*
X71551369Y-38448495D01*
X71544578Y-38441486D01*
X71539074Y-38435134D01*
X71514809Y-38407130D01*
X71501287Y-38386087D01*
X71491143Y-38363875D01*
X71484094Y-38339870D01*
X71483173Y-38333462D01*
X71480620Y-38315704D01*
X71480620Y-38290693D01*
X71484096Y-38266521D01*
X71491142Y-38242525D01*
X71501288Y-38220307D01*
X71514811Y-38199265D01*
X71530799Y-38180813D01*
X71549703Y-38164432D01*
X71570249Y-38151228D01*
X71593006Y-38140837D01*
X71616429Y-38133960D01*
X71641191Y-38130400D01*
X71665611Y-38130400D01*
X71690369Y-38133959D01*
G37*
%TD.AperFunction*%
%TA.AperFunction,Conductor*%
G36*
X73214369Y-38133959D02*
G01*
X73237795Y-38140837D01*
X73260550Y-38151230D01*
X73281092Y-38164432D01*
X73299999Y-38180815D01*
X73315986Y-38199265D01*
X73329509Y-38220307D01*
X73339655Y-38242521D01*
X73346702Y-38266521D01*
X73350177Y-38290686D01*
X73350177Y-38315708D01*
X73346702Y-38339876D01*
X73339656Y-38363875D01*
X73329509Y-38386091D01*
X73315987Y-38407133D01*
X73300003Y-38425580D01*
X73281097Y-38441963D01*
X73277771Y-38444100D01*
X73277763Y-38444106D01*
X73221684Y-38492771D01*
X73189148Y-38530432D01*
X73180299Y-38543627D01*
X73131747Y-38579095D01*
X73071756Y-38575056D01*
X73028395Y-38533401D01*
X73019399Y-38494663D01*
X73019399Y-38388581D01*
X73002974Y-38306004D01*
X73005393Y-38305522D01*
X73003291Y-38257460D01*
X73014722Y-38234043D01*
X73027475Y-38215520D01*
X73027479Y-38215509D01*
X73028356Y-38213965D01*
X73038390Y-38199752D01*
X73054803Y-38180809D01*
X73073707Y-38164430D01*
X73094249Y-38151228D01*
X73117006Y-38140837D01*
X73140429Y-38133960D01*
X73165191Y-38130400D01*
X73189611Y-38130400D01*
X73214369Y-38133959D01*
G37*
%TD.AperFunction*%
%TD*%
%TA.AperFunction,Conductor*%
%TO.N,Net-(U3-LX2)*%
G36*
X63276600Y-31543765D02*
G01*
X63306664Y-31595836D01*
X63307999Y-31611100D01*
X63307999Y-31922698D01*
X63308000Y-33518185D01*
X63308000Y-34835300D01*
X63287435Y-34891801D01*
X63235364Y-34921865D01*
X63220100Y-34923200D01*
X62363264Y-34923200D01*
X62309150Y-34904568D01*
X60682425Y-33633736D01*
X60663453Y-33613303D01*
X60647307Y-33589139D01*
X60631347Y-33565253D01*
X60572369Y-33525845D01*
X60555232Y-33522436D01*
X60518269Y-33505494D01*
X60503299Y-33493799D01*
X59902774Y-33479274D01*
X59846787Y-33457349D01*
X59817992Y-33404566D01*
X59817000Y-33391400D01*
X59817000Y-33031635D01*
X59837565Y-32975134D01*
X59889636Y-32945070D01*
X59904824Y-32943735D01*
X60502800Y-32943300D01*
X60502803Y-32943297D01*
X60506733Y-32941951D01*
X60535241Y-32937200D01*
X61017205Y-32937200D01*
X61030955Y-32938282D01*
X61089155Y-32947500D01*
X61491244Y-32947499D01*
X61583627Y-32932868D01*
X61694971Y-32876135D01*
X61783335Y-32787771D01*
X61840068Y-32676427D01*
X61854700Y-32584045D01*
X61854699Y-32241956D01*
X61840068Y-32149573D01*
X61840068Y-32149572D01*
X61784015Y-32039563D01*
X61776687Y-31979884D01*
X61808446Y-31930214D01*
X62309217Y-31541654D01*
X62363102Y-31523200D01*
X63220099Y-31523200D01*
X63276600Y-31543765D01*
G37*
%TD.AperFunction*%
%TD*%
D68*
X55753000Y-35077400D03*
X84455000Y-28956000D03*
X71120000Y-30480000D03*
X55118000Y-34544000D03*
X60030400Y-37693600D03*
X54381400Y-36118800D03*
X58166000Y-33909000D03*
X51054000Y-46228000D03*
X76200000Y-46736000D03*
X51054000Y-43180000D03*
X58674000Y-32893000D03*
X71653400Y-38303200D03*
X50292000Y-43180000D03*
X59944000Y-38227000D03*
X58293000Y-33274000D03*
X49530000Y-45212000D03*
X94107000Y-29210000D03*
X56515000Y-33909000D03*
X90500200Y-30175200D03*
X58928000Y-34544000D03*
X49530000Y-44704000D03*
X70612000Y-30988000D03*
X75819000Y-35331400D03*
X56515000Y-34417000D03*
X51054000Y-44704000D03*
X45913000Y-30378400D03*
X57609800Y-28676600D03*
X48006000Y-37566600D03*
X50292000Y-44704000D03*
X71120000Y-30988000D03*
X70612000Y-30480000D03*
X80949800Y-32438400D03*
X78232000Y-32258000D03*
X62484000Y-38354000D03*
X56388000Y-33274000D03*
X51054000Y-45720000D03*
X61976000Y-46736000D03*
X50292000Y-45720000D03*
X58801000Y-33782000D03*
X54356000Y-35153600D03*
X54625200Y-37693600D03*
X54462800Y-34518800D03*
X56007000Y-32893000D03*
X70104000Y-30988000D03*
X48920400Y-39878000D03*
X55880000Y-33782000D03*
X77622400Y-35763200D03*
X47117000Y-44323000D03*
X74904600Y-36220400D03*
X69240400Y-37211000D03*
X54991000Y-35128200D03*
X54610000Y-38227000D03*
X55372000Y-47498000D03*
X76835000Y-29083000D03*
X75285600Y-33909000D03*
X60807600Y-34315400D03*
X58773000Y-36144200D03*
X55905400Y-36245800D03*
X55753000Y-34544000D03*
X47117000Y-46863000D03*
X51054000Y-45212000D03*
X49530000Y-44196000D03*
X62153800Y-37393200D03*
X91948000Y-34033400D03*
X53746400Y-35128200D03*
X54610000Y-37211000D03*
X59740800Y-37185600D03*
X50292000Y-44196000D03*
X73177400Y-38303200D03*
X50292000Y-43688000D03*
X50292000Y-45212000D03*
X70104000Y-30480000D03*
X53746400Y-36118800D03*
X45796200Y-37056600D03*
X51054000Y-44196000D03*
X93472000Y-46355000D03*
X73304400Y-35890200D03*
X50292000Y-46228000D03*
X45913000Y-34340800D03*
X58166000Y-34417000D03*
X47117000Y-45567600D03*
X83058000Y-32715200D03*
X51054000Y-43688000D03*
X77216000Y-34290000D03*
X83207800Y-36347400D03*
X52009000Y-42062400D03*
X77952600Y-33451800D03*
X45913000Y-32359600D03*
X61722000Y-38354000D03*
X48262600Y-36195000D03*
X58166000Y-40386000D03*
X56642000Y-40894000D03*
X57404000Y-41402000D03*
X58166000Y-41402000D03*
X58166000Y-42926000D03*
X58166000Y-40894000D03*
X58166000Y-39878000D03*
X57404000Y-42926000D03*
X57404000Y-41910000D03*
X56642000Y-41910000D03*
X57404000Y-39878000D03*
X58166000Y-42418000D03*
X56642000Y-41402000D03*
X57404000Y-40386000D03*
X57404000Y-42418000D03*
X56525200Y-37693600D03*
X58166000Y-41910000D03*
X58130400Y-37693600D03*
X57327800Y-36027400D03*
X57404000Y-40894000D03*
X59867800Y-31445200D03*
X57327800Y-31877000D03*
X50546000Y-36322000D03*
X49530000Y-31750000D03*
X50546000Y-35814000D03*
X49530000Y-33020000D03*
X50671000Y-32105600D03*
X51054000Y-36322000D03*
X51054000Y-35814000D03*
X51054000Y-35306000D03*
X50546000Y-35306000D03*
X50657200Y-31140400D03*
X49530000Y-34544000D03*
X66649600Y-34036000D03*
X63996200Y-31140400D03*
X65193000Y-33223200D03*
X66649600Y-34798000D03*
X67183000Y-34340800D03*
X70612000Y-34798000D03*
X70612000Y-34036000D03*
X70612000Y-33274000D03*
X65024000Y-34544000D03*
X65024000Y-32004000D03*
X64021600Y-33629600D03*
X55854600Y-30226000D03*
X58826400Y-30276800D03*
X64262000Y-40386000D03*
X64262000Y-42926000D03*
X63500000Y-40386000D03*
X64262000Y-41910000D03*
X63500000Y-42418000D03*
X64262000Y-41402000D03*
X63500000Y-40894000D03*
X64262000Y-42418000D03*
X64262000Y-40894000D03*
X63500000Y-42926000D03*
X63500000Y-41910000D03*
X63500000Y-41402000D03*
X46736000Y-42164000D03*
X46736000Y-41656000D03*
X53848000Y-29210000D03*
X61976000Y-29210000D03*
X80949800Y-33398400D03*
X49606200Y-37566600D03*
X49222600Y-36195000D03*
X47244000Y-42164000D03*
X47244000Y-41656000D03*
X54866000Y-29210000D03*
X60960000Y-29210000D03*
X90855800Y-31826200D03*
X84836000Y-36550600D03*
X62207600Y-42580200D03*
X62153800Y-39213200D03*
X57325500Y-45049400D03*
X61288200Y-44754800D03*
X48493400Y-37066600D03*
X53263800Y-36728400D03*
X81076800Y-35356800D03*
X49093400Y-38066600D03*
X49093400Y-37066600D03*
X91948000Y-33073400D03*
X50266600Y-37490400D03*
D69*
X41592500Y-38100000D03*
X98742500Y-38100000D03*
X86360000Y-43637200D03*
X86360000Y-39878000D03*
X68580000Y-44754800D03*
X68580000Y-40995600D03*
X66040000Y-43637200D03*
X66040000Y-39878000D03*
X83820000Y-44754800D03*
X83820000Y-40995600D03*
X71120000Y-43637200D03*
X81280000Y-43637200D03*
X71120000Y-39878000D03*
X73660000Y-39878000D03*
X76200000Y-39878000D03*
X78740000Y-39878000D03*
X81280000Y-39878000D03*
M02*
