%TF.GenerationSoftware,KiCad,Pcbnew,8.0.3*%
%TF.CreationDate,2024-09-11T14:35:31-04:00*%
%TF.ProjectId,100068622-001_Rev1,31303030-3638-4363-9232-2d3030315f52,1*%
%TF.SameCoordinates,Original*%
%TF.FileFunction,Soldermask,Top*%
%TF.FilePolarity,Negative*%
%FSLAX46Y46*%
G04 Gerber Fmt 4.6, Leading zero omitted, Abs format (unit mm)*
G04 Created by KiCad (PCBNEW 8.0.3) date 2024-09-11 14:35:31*
%MOMM*%
%LPD*%
G01*
G04 APERTURE LIST*
G04 Aperture macros list*
%AMRoundRect*
0 Rectangle with rounded corners*
0 $1 Rounding radius*
0 $2 $3 $4 $5 $6 $7 $8 $9 X,Y pos of 4 corners*
0 Add a 4 corners polygon primitive as box body*
4,1,4,$2,$3,$4,$5,$6,$7,$8,$9,$2,$3,0*
0 Add four circle primitives for the rounded corners*
1,1,$1+$1,$2,$3*
1,1,$1+$1,$4,$5*
1,1,$1+$1,$6,$7*
1,1,$1+$1,$8,$9*
0 Add four rect primitives between the rounded corners*
20,1,$1+$1,$2,$3,$4,$5,0*
20,1,$1+$1,$4,$5,$6,$7,0*
20,1,$1+$1,$6,$7,$8,$9,0*
20,1,$1+$1,$8,$9,$2,$3,0*%
%AMFreePoly0*
4,1,16,0.535921,0.785921,0.542268,0.778179,1.042268,0.028179,1.049813,-0.009963,1.042268,-0.028179,0.542268,-0.778179,0.509963,-0.799813,0.500000,-0.800800,-0.500000,-0.800800,-0.535921,-0.785921,-0.550800,-0.750000,-0.550800,0.750000,-0.535921,0.785921,-0.500000,0.800800,0.500000,0.800800,0.535921,0.785921,0.535921,0.785921,$1*%
%AMFreePoly1*
4,1,16,0.535921,0.785921,0.550800,0.750000,0.550800,-0.750000,0.535921,-0.785921,0.500000,-0.800800,-0.650000,-0.800800,-0.685921,-0.785921,-0.700800,-0.750000,-0.692268,-0.721821,-0.211054,0.000000,-0.692268,0.721821,-0.699813,0.759963,-0.678179,0.792268,-0.650000,0.800800,0.500000,0.800800,0.535921,0.785921,0.535921,0.785921,$1*%
G04 Aperture macros list end*
%ADD10C,0.254000*%
%ADD11FreePoly0,180.000000*%
%ADD12FreePoly1,180.000000*%
%ADD13FreePoly0,0.000000*%
%ADD14FreePoly1,0.000000*%
%ADD15RoundRect,0.160400X0.160400X0.210400X-0.160400X0.210400X-0.160400X-0.210400X0.160400X-0.210400X0*%
%ADD16O,2.133600X2.641600*%
%ADD17RoundRect,0.050800X0.137500X-0.356500X0.137500X0.356500X-0.137500X0.356500X-0.137500X-0.356500X0*%
%ADD18O,2.641600X2.133600*%
%ADD19C,1.524000*%
%ADD20RoundRect,0.275400X0.275400X0.500400X-0.275400X0.500400X-0.275400X-0.500400X0.275400X-0.500400X0*%
%ADD21C,3.216000*%
%ADD22RoundRect,0.275400X0.500400X-0.275400X0.500400X0.275400X-0.500400X0.275400X-0.500400X-0.275400X0*%
%ADD23RoundRect,0.275400X-0.275400X-0.500400X0.275400X-0.500400X0.275400X0.500400X-0.275400X0.500400X0*%
%ADD24RoundRect,0.160400X-0.160400X-0.210400X0.160400X-0.210400X0.160400X0.210400X-0.160400X0.210400X0*%
%ADD25O,5.181600X3.911600*%
%ADD26RoundRect,0.165400X0.195400X-0.165400X0.195400X0.165400X-0.195400X0.165400X-0.195400X-0.165400X0*%
%ADD27RoundRect,0.165400X-0.195400X0.165400X-0.195400X-0.165400X0.195400X-0.165400X0.195400X0.165400X0*%
%ADD28RoundRect,0.025400X-0.112500X0.356500X-0.112500X-0.356500X0.112500X-0.356500X0.112500X0.356500X0*%
%ADD29RoundRect,0.025400X-0.281500X0.112500X-0.281500X-0.112500X0.281500X-0.112500X0.281500X0.112500X0*%
%ADD30C,2.463800*%
%ADD31RoundRect,0.050800X-0.812800X-0.812800X0.812800X-0.812800X0.812800X0.812800X-0.812800X0.812800X0*%
%ADD32RoundRect,0.025400X-0.812800X-0.812800X0.812800X-0.812800X0.812800X0.812800X-0.812800X0.812800X0*%
%ADD33C,1.727200*%
G04 APERTURE END LIST*
D10*
X62447714Y-61559052D02*
X61770381Y-61559052D01*
X61770381Y-62623433D02*
X61770381Y-60591433D01*
X61770381Y-60591433D02*
X62738000Y-60591433D01*
X64673238Y-62623433D02*
X63995905Y-61655814D01*
X63512095Y-62623433D02*
X63512095Y-60591433D01*
X63512095Y-60591433D02*
X64286190Y-60591433D01*
X64286190Y-60591433D02*
X64479714Y-60688195D01*
X64479714Y-60688195D02*
X64576476Y-60784957D01*
X64576476Y-60784957D02*
X64673238Y-60978481D01*
X64673238Y-60978481D02*
X64673238Y-61268767D01*
X64673238Y-61268767D02*
X64576476Y-61462291D01*
X64576476Y-61462291D02*
X64479714Y-61559052D01*
X64479714Y-61559052D02*
X64286190Y-61655814D01*
X64286190Y-61655814D02*
X63512095Y-61655814D01*
X65931143Y-60591433D02*
X66318190Y-60591433D01*
X66318190Y-60591433D02*
X66511714Y-60688195D01*
X66511714Y-60688195D02*
X66705238Y-60881719D01*
X66705238Y-60881719D02*
X66802000Y-61268767D01*
X66802000Y-61268767D02*
X66802000Y-61946100D01*
X66802000Y-61946100D02*
X66705238Y-62333148D01*
X66705238Y-62333148D02*
X66511714Y-62526672D01*
X66511714Y-62526672D02*
X66318190Y-62623433D01*
X66318190Y-62623433D02*
X65931143Y-62623433D01*
X65931143Y-62623433D02*
X65737619Y-62526672D01*
X65737619Y-62526672D02*
X65544095Y-62333148D01*
X65544095Y-62333148D02*
X65447333Y-61946100D01*
X65447333Y-61946100D02*
X65447333Y-61268767D01*
X65447333Y-61268767D02*
X65544095Y-60881719D01*
X65544095Y-60881719D02*
X65737619Y-60688195D01*
X65737619Y-60688195D02*
X65931143Y-60591433D01*
X67672857Y-62623433D02*
X67672857Y-60591433D01*
X67672857Y-60591433D02*
X68834000Y-62623433D01*
X68834000Y-62623433D02*
X68834000Y-60591433D01*
X69511333Y-60591433D02*
X70672476Y-60591433D01*
X70091905Y-62623433D02*
X70091905Y-60591433D01*
X72897999Y-62623433D02*
X72897999Y-60591433D01*
X72897999Y-60591433D02*
X73575332Y-62042862D01*
X73575332Y-62042862D02*
X74252666Y-60591433D01*
X74252666Y-60591433D02*
X74252666Y-62623433D01*
X75123523Y-62042862D02*
X76091142Y-62042862D01*
X74929999Y-62623433D02*
X75607333Y-60591433D01*
X75607333Y-60591433D02*
X76284666Y-62623433D01*
X76865237Y-62526672D02*
X77155523Y-62623433D01*
X77155523Y-62623433D02*
X77639332Y-62623433D01*
X77639332Y-62623433D02*
X77832856Y-62526672D01*
X77832856Y-62526672D02*
X77929618Y-62429910D01*
X77929618Y-62429910D02*
X78026380Y-62236386D01*
X78026380Y-62236386D02*
X78026380Y-62042862D01*
X78026380Y-62042862D02*
X77929618Y-61849338D01*
X77929618Y-61849338D02*
X77832856Y-61752576D01*
X77832856Y-61752576D02*
X77639332Y-61655814D01*
X77639332Y-61655814D02*
X77252285Y-61559052D01*
X77252285Y-61559052D02*
X77058761Y-61462291D01*
X77058761Y-61462291D02*
X76961999Y-61365529D01*
X76961999Y-61365529D02*
X76865237Y-61172005D01*
X76865237Y-61172005D02*
X76865237Y-60978481D01*
X76865237Y-60978481D02*
X76961999Y-60784957D01*
X76961999Y-60784957D02*
X77058761Y-60688195D01*
X77058761Y-60688195D02*
X77252285Y-60591433D01*
X77252285Y-60591433D02*
X77736094Y-60591433D01*
X77736094Y-60591433D02*
X78026380Y-60688195D01*
X78897237Y-62623433D02*
X78897237Y-60591433D01*
X80058380Y-62623433D02*
X79187523Y-61462291D01*
X80058380Y-60591433D02*
X78897237Y-61752576D01*
D11*
%TO.C,JP3*%
X54508400Y-32867600D03*
D12*
X53058400Y-32867600D03*
%TD*%
D13*
%TO.C,JP2*%
X60170400Y-30353000D03*
D14*
X61620400Y-30353000D03*
%TD*%
D15*
%TO.C,R8*%
X64021600Y-33629600D03*
X63001600Y-33629600D03*
%TD*%
D16*
%TO.C,P19*%
X47447200Y-35839400D03*
%TD*%
D17*
%TO.C,U9*%
X89924000Y-34122400D03*
X90424000Y-34122400D03*
X90924000Y-34122400D03*
X90924000Y-32984400D03*
X90424000Y-32984400D03*
X89924000Y-32984400D03*
%TD*%
D13*
%TO.C,JP4*%
X60170400Y-32867600D03*
D14*
X61620400Y-32867600D03*
%TD*%
D16*
%TO.C,P10*%
X50876200Y-39776400D03*
%TD*%
D18*
%TO.C,P14*%
X88519000Y-36322000D03*
%TD*%
D19*
%TO.C,FID5*%
X40894000Y-46990000D03*
%TD*%
D20*
%TO.C,C25*%
X56525200Y-37693600D03*
X54625200Y-37693600D03*
%TD*%
D21*
%TO.C,REF\u002A\u002A*%
X41592500Y-38100000D03*
%TD*%
D18*
%TO.C,P24*%
X92456000Y-30607000D03*
%TD*%
D22*
%TO.C,C26*%
X57327800Y-36027400D03*
X57327800Y-34127400D03*
%TD*%
D18*
%TO.C,P7*%
X74523600Y-30607000D03*
%TD*%
D21*
%TO.C,REF\u002A\u002A*%
X98742500Y-38100000D03*
%TD*%
D16*
%TO.C,P6*%
X47447200Y-31902400D03*
%TD*%
D18*
%TO.C,P23*%
X88519000Y-30607000D03*
%TD*%
D13*
%TO.C,JP5*%
X60170400Y-35382200D03*
D14*
X61620400Y-35382200D03*
%TD*%
D23*
%TO.C,C27*%
X58130400Y-37693600D03*
X60030400Y-37693600D03*
%TD*%
D19*
%TO.C,FID3*%
X99491800Y-29210000D03*
%TD*%
D24*
%TO.C,R7*%
X55864200Y-31165800D03*
X56884200Y-31165800D03*
%TD*%
D18*
%TO.C,P8*%
X70586600Y-34036000D03*
%TD*%
%TO.C,P13*%
X79375000Y-35839400D03*
%TD*%
D15*
%TO.C,R9*%
X63996200Y-36144200D03*
X62976200Y-36144200D03*
%TD*%
%TO.C,R5*%
X63996200Y-31140400D03*
X62976200Y-31140400D03*
%TD*%
%TO.C,R4*%
X58789200Y-31165800D03*
X57769200Y-31165800D03*
%TD*%
D24*
%TO.C,R3*%
X50657200Y-31140400D03*
X51677200Y-31140400D03*
%TD*%
%TO.C,R6*%
X50671000Y-32105600D03*
X51691000Y-32105600D03*
%TD*%
D25*
%TO.C,P16*%
X58445400Y-41402000D03*
%TD*%
D18*
%TO.C,P15*%
X92456000Y-36347400D03*
%TD*%
D26*
%TO.C,C24*%
X80949800Y-33398400D03*
X80949800Y-32438400D03*
%TD*%
D18*
%TO.C,P17*%
X82981800Y-33426400D03*
%TD*%
%TO.C,P21*%
X70586600Y-30607000D03*
%TD*%
D27*
%TO.C,C23*%
X91948000Y-33073400D03*
X91948000Y-34033400D03*
%TD*%
D18*
%TO.C,P12*%
X79375000Y-31038800D03*
%TD*%
D11*
%TO.C,JP1*%
X54508400Y-30353000D03*
D12*
X53058400Y-30353000D03*
%TD*%
D18*
%TO.C,P9*%
X66649600Y-34036000D03*
%TD*%
D25*
%TO.C,P22*%
X51079400Y-44678600D03*
%TD*%
D19*
%TO.C,FID1*%
X40894000Y-29210000D03*
%TD*%
D18*
%TO.C,P20*%
X66649600Y-30607000D03*
%TD*%
D28*
%TO.C,U8*%
X79371800Y-32958300D03*
X78971800Y-32958300D03*
D29*
X78403300Y-33051800D03*
X78403300Y-33451800D03*
X78403300Y-33851800D03*
D28*
X78971800Y-33945300D03*
X79371800Y-33945300D03*
D29*
X79940300Y-33851800D03*
X79940300Y-33451800D03*
X79940300Y-33051800D03*
%TD*%
D16*
%TO.C,P18*%
X47447200Y-39776400D03*
%TD*%
%TO.C,P11*%
X50876200Y-35839400D03*
%TD*%
D30*
%TO.C,P5*%
X86360000Y-43637200D03*
D31*
X86360000Y-39878000D03*
%TD*%
D30*
%TO.C,P2*%
X68580000Y-44754800D03*
D31*
X68580000Y-40995600D03*
%TD*%
D30*
%TO.C,P1*%
X66040000Y-43637200D03*
D31*
X66040000Y-39878000D03*
%TD*%
D30*
%TO.C,P4*%
X83820000Y-44754800D03*
D31*
X83820000Y-40995600D03*
%TD*%
D30*
%TO.C,P3*%
X71120000Y-43637200D03*
X81280000Y-43637200D03*
D32*
X71120000Y-39878000D03*
D33*
X73660000Y-39878000D03*
X76200000Y-39878000D03*
X78740000Y-39878000D03*
X81280000Y-39878000D03*
%TD*%
M02*
