M48
; DRILL file {KiCad 8.0.3} date 2024-09-11T14:35:31-0400
; FORMAT={-:-/ absolute / inch / decimal}
; #@! TF.CreationDate,2024-09-11T14:35:31-04:00
; #@! TF.GenerationSoftware,Kicad,Pcbnew,8.0.3
; #@! TF.FileFunction,Plated,1,4,PTH
FMAT,2
INCH
; #@! TA.AperFunction,Plated,PTH,ViaDrill
T1C0.0060
; #@! TA.AperFunction,Plated,PTH,ComponentDrill
T2C0.0320
%
G90
G05
T1
X1.803Y-1.4589
X1.8076Y-1.196
X1.8076Y-1.274
X1.8076Y-1.352
X1.84Y-1.64
X1.84Y-1.66
X1.855Y-1.745
X1.855Y-1.794
X1.855Y-1.845
X1.86Y-1.64
X1.86Y-1.66
X1.89Y-1.479
X1.9001Y-1.425
X1.9092Y-1.4593
X1.926Y-1.57
X1.9328Y-1.4593
X1.9328Y-1.4987
X1.9379Y-1.425
X1.95Y-1.25
X1.95Y-1.3
X1.95Y-1.36
X1.95Y-1.74
X1.95Y-1.76
X1.95Y-1.78
X1.953Y-1.479
X1.979Y-1.476
X1.98Y-1.7
X1.98Y-1.72
X1.98Y-1.74
X1.98Y-1.76
X1.98Y-1.78
X1.98Y-1.8
X1.98Y-1.82
X1.99Y-1.39
X1.99Y-1.41
X1.99Y-1.43
X1.9944Y-1.226
X1.9949Y-1.264
X2.01Y-1.39
X2.01Y-1.41
X2.01Y-1.43
X2.01Y-1.7
X2.01Y-1.72
X2.01Y-1.74
X2.01Y-1.76
X2.01Y-1.78
X2.01Y-1.8
X2.01Y-1.82
X2.0476Y-1.656
X2.097Y-1.446
X2.116Y-1.383
X2.116Y-1.422
X2.12Y-1.15
X2.14Y-1.384
X2.141Y-1.422
X2.1442Y-1.359
X2.15Y-1.465
X2.15Y-1.505
X2.1506Y-1.484
X2.1601Y-1.15
X2.165Y-1.383
X2.17Y-1.36
X2.18Y-1.87
X2.195Y-1.36
X2.195Y-1.381
X2.199Y-1.19
X2.2Y-1.33
X2.201Y-1.427
X2.205Y-1.295
X2.22Y-1.31
X2.225Y-1.335
X2.225Y-1.355
X2.2254Y-1.484
X2.23Y-1.61
X2.23Y-1.63
X2.23Y-1.65
X2.2569Y-1.7736
X2.257Y-1.255
X2.257Y-1.4184
X2.26Y-1.57
X2.26Y-1.59
X2.26Y-1.61
X2.26Y-1.63
X2.26Y-1.65
X2.26Y-1.67
X2.26Y-1.69
X2.2681Y-1.129
X2.2886Y-1.484
X2.29Y-1.335
X2.29Y-1.355
X2.29Y-1.57
X2.29Y-1.59
X2.29Y-1.61
X2.29Y-1.63
X2.29Y-1.65
X2.29Y-1.67
X2.29Y-1.69
X2.295Y-1.31
X2.31Y-1.295
X2.3139Y-1.423
X2.315Y-1.33
X2.316Y-1.192
X2.32Y-1.36
X2.352Y-1.464
X2.357Y-1.238
X2.36Y-1.505
X2.3634Y-1.484
X2.394Y-1.351
X2.4Y-1.15
X2.4129Y-1.762
X2.43Y-1.51
X2.44Y-1.15
X2.44Y-1.84
X2.447Y-1.4722
X2.447Y-1.5438
X2.4491Y-1.6764
X2.46Y-1.51
X2.5Y-1.59
X2.5Y-1.61
X2.5Y-1.63
X2.5Y-1.65
X2.5Y-1.67
X2.5Y-1.69
X2.5195Y-1.226
X2.5205Y-1.324
X2.53Y-1.59
X2.53Y-1.61
X2.53Y-1.63
X2.53Y-1.65
X2.53Y-1.67
X2.53Y-1.69
X2.56Y-1.26
X2.56Y-1.36
X2.5667Y-1.308
X2.624Y-1.34
X2.624Y-1.37
X2.645Y-1.352
X2.726Y-1.465
X2.76Y-1.2
X2.76Y-1.22
X2.78Y-1.2
X2.78Y-1.22
X2.78Y-1.31
X2.78Y-1.34
X2.78Y-1.37
X2.8Y-1.2
X2.8Y-1.22
X2.821Y-1.508
X2.881Y-1.508
X2.886Y-1.413
X2.949Y-1.426
X2.964Y-1.335
X2.985Y-1.391
X3.0Y-1.84
X3.025Y-1.145
X3.04Y-1.35
X3.056Y-1.408
X3.069Y-1.317
X3.08Y-1.27
X3.187Y-1.2771
X3.187Y-1.3149
X3.192Y-1.392
X3.27Y-1.288
X3.2759Y-1.431
X3.325Y-1.14
X3.34Y-1.439
X3.563Y-1.188
X3.577Y-1.253
X3.62Y-1.3021
X3.62Y-1.3399
X3.68Y-1.825
X3.705Y-1.15
T2
X2.6Y-1.57
X2.7Y-1.614
X2.8Y-1.57
X2.9Y-1.57
X3.0Y-1.57
X3.1Y-1.57
X3.2Y-1.57
X3.3Y-1.614
X3.4Y-1.57
M30
