%TF.GenerationSoftware,KiCad,Pcbnew,8.0.3*%
%TF.CreationDate,2024-09-11T14:35:31-04:00*%
%TF.ProjectId,100068622-001_Rev1,31303030-3638-4363-9232-2d3030315f52,1*%
%TF.SameCoordinates,Original*%
%TF.FileFunction,Copper,L1,Top*%
%TF.FilePolarity,Positive*%
%FSLAX46Y46*%
G04 Gerber Fmt 4.6, Leading zero omitted, Abs format (unit mm)*
G04 Created by KiCad (PCBNEW 8.0.3) date 2024-09-11 14:35:31*
%MOMM*%
%LPD*%
G01*
G04 APERTURE LIST*
G04 Aperture macros list*
%AMRoundRect*
0 Rectangle with rounded corners*
0 $1 Rounding radius*
0 $2 $3 $4 $5 $6 $7 $8 $9 X,Y pos of 4 corners*
0 Add a 4 corners polygon primitive as box body*
4,1,4,$2,$3,$4,$5,$6,$7,$8,$9,$2,$3,0*
0 Add four circle primitives for the rounded corners*
1,1,$1+$1,$2,$3*
1,1,$1+$1,$4,$5*
1,1,$1+$1,$6,$7*
1,1,$1+$1,$8,$9*
0 Add four rect primitives between the rounded corners*
20,1,$1+$1,$2,$3,$4,$5,0*
20,1,$1+$1,$4,$5,$6,$7,0*
20,1,$1+$1,$6,$7,$8,$9,0*
20,1,$1+$1,$8,$9,$2,$3,0*%
%AMFreePoly0*
4,1,6,1.000000,0.000000,0.500000,-0.750000,-0.500000,-0.750000,-0.500000,0.750000,0.500000,0.750000,1.000000,0.000000,1.000000,0.000000,$1*%
%AMFreePoly1*
4,1,6,0.500000,-0.750000,-0.650000,-0.750000,-0.150000,0.000000,-0.650000,0.750000,0.500000,0.750000,0.500000,-0.750000,0.500000,-0.750000,$1*%
G04 Aperture macros list end*
%ADD10C,0.254000*%
%TA.AperFunction,NonConductor*%
%ADD11C,0.254000*%
%TD*%
%TA.AperFunction,EtchedComponent*%
%ADD12C,0.254000*%
%TD*%
%TA.AperFunction,SMDPad,CuDef*%
%ADD13FreePoly0,180.000000*%
%TD*%
%TA.AperFunction,SMDPad,CuDef*%
%ADD14FreePoly1,180.000000*%
%TD*%
%TA.AperFunction,SMDPad,CuDef*%
%ADD15FreePoly0,0.000000*%
%TD*%
%TA.AperFunction,SMDPad,CuDef*%
%ADD16FreePoly1,0.000000*%
%TD*%
%TA.AperFunction,SMDPad,CuDef*%
%ADD17RoundRect,0.135000X0.135000X0.185000X-0.135000X0.185000X-0.135000X-0.185000X0.135000X-0.185000X0*%
%TD*%
%TA.AperFunction,SMDPad,CuDef*%
%ADD18O,2.032000X2.540000*%
%TD*%
%TA.AperFunction,SMDPad,CuDef*%
%ADD19R,0.275000X0.713000*%
%TD*%
%TA.AperFunction,SMDPad,CuDef*%
%ADD20O,2.540000X2.032000*%
%TD*%
%TA.AperFunction,SMDPad,CuDef*%
%ADD21C,1.016000*%
%TD*%
%TA.AperFunction,SMDPad,CuDef*%
%ADD22RoundRect,0.250000X0.250000X0.475000X-0.250000X0.475000X-0.250000X-0.475000X0.250000X-0.475000X0*%
%TD*%
%TA.AperFunction,SMDPad,CuDef*%
%ADD23RoundRect,0.250000X0.475000X-0.250000X0.475000X0.250000X-0.475000X0.250000X-0.475000X-0.250000X0*%
%TD*%
%TA.AperFunction,SMDPad,CuDef*%
%ADD24RoundRect,0.250000X-0.250000X-0.475000X0.250000X-0.475000X0.250000X0.475000X-0.250000X0.475000X0*%
%TD*%
%TA.AperFunction,SMDPad,CuDef*%
%ADD25RoundRect,0.135000X-0.135000X-0.185000X0.135000X-0.185000X0.135000X0.185000X-0.135000X0.185000X0*%
%TD*%
%TA.AperFunction,SMDPad,CuDef*%
%ADD26C,0.050800*%
%TD*%
%TA.AperFunction,SMDPad,CuDef*%
%ADD27O,5.080000X3.810000*%
%TD*%
%TA.AperFunction,SMDPad,CuDef*%
%ADD28RoundRect,0.140000X0.170000X-0.140000X0.170000X0.140000X-0.170000X0.140000X-0.170000X-0.140000X0*%
%TD*%
%TA.AperFunction,SMDPad,CuDef*%
%ADD29RoundRect,0.140000X-0.170000X0.140000X-0.170000X-0.140000X0.170000X-0.140000X0.170000X0.140000X0*%
%TD*%
%TA.AperFunction,SMDPad,CuDef*%
%ADD30R,0.225000X0.713000*%
%TD*%
%TA.AperFunction,SMDPad,CuDef*%
%ADD31R,0.563000X0.225000*%
%TD*%
%TA.AperFunction,ComponentPad*%
%ADD32R,1.625600X1.625600*%
%TD*%
%TA.AperFunction,ComponentPad*%
%ADD33C,1.625600*%
%TD*%
%TA.AperFunction,ViaPad*%
%ADD34C,0.355600*%
%TD*%
%TA.AperFunction,Conductor*%
%ADD35C,0.177800*%
%TD*%
%TA.AperFunction,Conductor*%
%ADD36C,0.254000*%
%TD*%
%TA.AperFunction,Conductor*%
%ADD37C,0.162560*%
%TD*%
%ADD38C,0.152400*%
%ADD39C,0.350000*%
G04 APERTURE END LIST*
D10*
D11*
X60415714Y-61559052D02*
X59738381Y-61559052D01*
X59738381Y-62623433D02*
X59738381Y-60591433D01*
X59738381Y-60591433D02*
X60706000Y-60591433D01*
X62641238Y-62623433D02*
X61963905Y-61655814D01*
X61480095Y-62623433D02*
X61480095Y-60591433D01*
X61480095Y-60591433D02*
X62254190Y-60591433D01*
X62254190Y-60591433D02*
X62447714Y-60688195D01*
X62447714Y-60688195D02*
X62544476Y-60784957D01*
X62544476Y-60784957D02*
X62641238Y-60978481D01*
X62641238Y-60978481D02*
X62641238Y-61268767D01*
X62641238Y-61268767D02*
X62544476Y-61462291D01*
X62544476Y-61462291D02*
X62447714Y-61559052D01*
X62447714Y-61559052D02*
X62254190Y-61655814D01*
X62254190Y-61655814D02*
X61480095Y-61655814D01*
X63899143Y-60591433D02*
X64286190Y-60591433D01*
X64286190Y-60591433D02*
X64479714Y-60688195D01*
X64479714Y-60688195D02*
X64673238Y-60881719D01*
X64673238Y-60881719D02*
X64770000Y-61268767D01*
X64770000Y-61268767D02*
X64770000Y-61946100D01*
X64770000Y-61946100D02*
X64673238Y-62333148D01*
X64673238Y-62333148D02*
X64479714Y-62526672D01*
X64479714Y-62526672D02*
X64286190Y-62623433D01*
X64286190Y-62623433D02*
X63899143Y-62623433D01*
X63899143Y-62623433D02*
X63705619Y-62526672D01*
X63705619Y-62526672D02*
X63512095Y-62333148D01*
X63512095Y-62333148D02*
X63415333Y-61946100D01*
X63415333Y-61946100D02*
X63415333Y-61268767D01*
X63415333Y-61268767D02*
X63512095Y-60881719D01*
X63512095Y-60881719D02*
X63705619Y-60688195D01*
X63705619Y-60688195D02*
X63899143Y-60591433D01*
X65640857Y-62623433D02*
X65640857Y-60591433D01*
X65640857Y-60591433D02*
X66802000Y-62623433D01*
X66802000Y-62623433D02*
X66802000Y-60591433D01*
X67479333Y-60591433D02*
X68640476Y-60591433D01*
X68059905Y-62623433D02*
X68059905Y-60591433D01*
X72027142Y-62429910D02*
X71930380Y-62526672D01*
X71930380Y-62526672D02*
X71640094Y-62623433D01*
X71640094Y-62623433D02*
X71446570Y-62623433D01*
X71446570Y-62623433D02*
X71156285Y-62526672D01*
X71156285Y-62526672D02*
X70962761Y-62333148D01*
X70962761Y-62333148D02*
X70865999Y-62139624D01*
X70865999Y-62139624D02*
X70769237Y-61752576D01*
X70769237Y-61752576D02*
X70769237Y-61462291D01*
X70769237Y-61462291D02*
X70865999Y-61075243D01*
X70865999Y-61075243D02*
X70962761Y-60881719D01*
X70962761Y-60881719D02*
X71156285Y-60688195D01*
X71156285Y-60688195D02*
X71446570Y-60591433D01*
X71446570Y-60591433D02*
X71640094Y-60591433D01*
X71640094Y-60591433D02*
X71930380Y-60688195D01*
X71930380Y-60688195D02*
X72027142Y-60784957D01*
X73285047Y-60591433D02*
X73672094Y-60591433D01*
X73672094Y-60591433D02*
X73865618Y-60688195D01*
X73865618Y-60688195D02*
X74059142Y-60881719D01*
X74059142Y-60881719D02*
X74155904Y-61268767D01*
X74155904Y-61268767D02*
X74155904Y-61946100D01*
X74155904Y-61946100D02*
X74059142Y-62333148D01*
X74059142Y-62333148D02*
X73865618Y-62526672D01*
X73865618Y-62526672D02*
X73672094Y-62623433D01*
X73672094Y-62623433D02*
X73285047Y-62623433D01*
X73285047Y-62623433D02*
X73091523Y-62526672D01*
X73091523Y-62526672D02*
X72897999Y-62333148D01*
X72897999Y-62333148D02*
X72801237Y-61946100D01*
X72801237Y-61946100D02*
X72801237Y-61268767D01*
X72801237Y-61268767D02*
X72897999Y-60881719D01*
X72897999Y-60881719D02*
X73091523Y-60688195D01*
X73091523Y-60688195D02*
X73285047Y-60591433D01*
X75026761Y-62623433D02*
X75026761Y-60591433D01*
X75026761Y-60591433D02*
X75800856Y-60591433D01*
X75800856Y-60591433D02*
X75994380Y-60688195D01*
X75994380Y-60688195D02*
X76091142Y-60784957D01*
X76091142Y-60784957D02*
X76187904Y-60978481D01*
X76187904Y-60978481D02*
X76187904Y-61268767D01*
X76187904Y-61268767D02*
X76091142Y-61462291D01*
X76091142Y-61462291D02*
X75994380Y-61559052D01*
X75994380Y-61559052D02*
X75800856Y-61655814D01*
X75800856Y-61655814D02*
X75026761Y-61655814D01*
X77058761Y-62623433D02*
X77058761Y-60591433D01*
X77058761Y-60591433D02*
X77832856Y-60591433D01*
X77832856Y-60591433D02*
X78026380Y-60688195D01*
X78026380Y-60688195D02*
X78123142Y-60784957D01*
X78123142Y-60784957D02*
X78219904Y-60978481D01*
X78219904Y-60978481D02*
X78219904Y-61268767D01*
X78219904Y-61268767D02*
X78123142Y-61462291D01*
X78123142Y-61462291D02*
X78026380Y-61559052D01*
X78026380Y-61559052D02*
X77832856Y-61655814D01*
X77832856Y-61655814D02*
X77058761Y-61655814D01*
X79090761Y-61559052D02*
X79768094Y-61559052D01*
X80058380Y-62623433D02*
X79090761Y-62623433D01*
X79090761Y-62623433D02*
X79090761Y-60591433D01*
X79090761Y-60591433D02*
X80058380Y-60591433D01*
X82090380Y-62623433D02*
X81413047Y-61655814D01*
X80929237Y-62623433D02*
X80929237Y-60591433D01*
X80929237Y-60591433D02*
X81703332Y-60591433D01*
X81703332Y-60591433D02*
X81896856Y-60688195D01*
X81896856Y-60688195D02*
X81993618Y-60784957D01*
X81993618Y-60784957D02*
X82090380Y-60978481D01*
X82090380Y-60978481D02*
X82090380Y-61268767D01*
X82090380Y-61268767D02*
X81993618Y-61462291D01*
X81993618Y-61462291D02*
X81896856Y-61559052D01*
X81896856Y-61559052D02*
X81703332Y-61655814D01*
X81703332Y-61655814D02*
X80929237Y-61655814D01*
D12*
%TO.C,NT2*%
X90500200Y-30607000D02*
X90500200Y-30353000D01*
%TD*%
D13*
%TO.P,JP3,1,A*%
%TO.N,Net-(JP1-A)*%
X54508400Y-32867600D03*
D14*
%TO.P,JP3,2,B*%
%TO.N,Net-(JP3-B)*%
X53058400Y-32867600D03*
%TD*%
D15*
%TO.P,JP2,1,A*%
%TO.N,Net-(JP2-A)*%
X60170400Y-30353000D03*
D16*
%TO.P,JP2,2,B*%
%TO.N,Net-(JP2-B)*%
X61620400Y-30353000D03*
%TD*%
D17*
%TO.P,R8,1*%
%TO.N,/Block Diagram/VOUT2*%
X64021600Y-33629600D03*
%TO.P,R8,2*%
%TO.N,Net-(JP4-B)*%
X63001600Y-33629600D03*
%TD*%
D18*
%TO.P,P19,1,1*%
%TO.N,GND*%
X47447200Y-35839400D03*
%TD*%
D19*
%TO.P,U9,1,COM2*%
%TO.N,/Block Diagram/Data Switches/GPIO_DOWN_1*%
X89924000Y-34122400D03*
%TO.P,U9,2,COM1*%
%TO.N,/Block Diagram/Data Switches/GPIO_DOWN_0*%
X90424000Y-34122400D03*
%TO.P,U9,3,GND*%
%TO.N,GND*%
X90924000Y-34122400D03*
%TO.P,U9,4,VCCEN*%
%TO.N,Net-(U7-2Y)*%
X90924000Y-32984400D03*
%TO.P,U9,5,NO1*%
%TO.N,/Block Diagram/GPIO0*%
X90424000Y-32984400D03*
%TO.P,U9,6,NO2*%
%TO.N,/Block Diagram/GPIO1*%
X89924000Y-32984400D03*
%TD*%
D15*
%TO.P,JP4,1,A*%
%TO.N,Net-(JP2-A)*%
X60170400Y-32867600D03*
D16*
%TO.P,JP4,2,B*%
%TO.N,Net-(JP4-B)*%
X61620400Y-32867600D03*
%TD*%
D18*
%TO.P,P10,1,1*%
%TO.N,/Block Diagram/VOUT1*%
X50876200Y-39776400D03*
%TD*%
D20*
%TO.P,P14,1,1*%
%TO.N,/Block Diagram/Data Switches/GPIO_DOWN_1*%
X88519000Y-36322000D03*
%TD*%
D21*
%TO.P,FID5,*%
%TO.N,*%
X40894000Y-46990000D03*
%TD*%
D22*
%TO.P,C25,1*%
%TO.N,VBATT_PROT*%
X56525200Y-37693600D03*
%TO.P,C25,2*%
%TO.N,GND*%
X54625200Y-37693600D03*
%TD*%
D20*
%TO.P,P24,1,1*%
%TO.N,GNDD*%
X92456000Y-30607000D03*
%TD*%
D23*
%TO.P,C26,1*%
%TO.N,VBATT_PROT*%
X57327800Y-36027400D03*
%TO.P,C26,2*%
%TO.N,GND*%
X57327800Y-34127400D03*
%TD*%
D20*
%TO.P,P7,1,1*%
%TO.N,/Block Diagram/PGOOD2*%
X74523600Y-30607000D03*
%TD*%
D18*
%TO.P,P6,1,1*%
%TO.N,/Block Diagram/PGOOD1*%
X47447200Y-31902400D03*
%TD*%
D20*
%TO.P,P23,1,1*%
%TO.N,GNDD*%
X88519000Y-30607000D03*
%TD*%
D15*
%TO.P,JP5,1,A*%
%TO.N,Net-(JP2-A)*%
X60170400Y-35382200D03*
D16*
%TO.P,JP5,2,B*%
%TO.N,Net-(JP5-B)*%
X61620400Y-35382200D03*
%TD*%
D24*
%TO.P,C27,1*%
%TO.N,VBATT_PROT*%
X58130400Y-37693600D03*
%TO.P,C27,2*%
%TO.N,GND*%
X60030400Y-37693600D03*
%TD*%
D21*
%TO.P,FID3,*%
%TO.N,*%
X99491800Y-29210000D03*
%TD*%
D25*
%TO.P,R7,1*%
%TO.N,Net-(JP1-A)*%
X55864200Y-31165800D03*
%TO.P,R7,2*%
%TO.N,GNDA*%
X56884200Y-31165800D03*
%TD*%
D20*
%TO.P,P8,1,1*%
%TO.N,/Block Diagram/VOUT2*%
X70586600Y-34036000D03*
%TD*%
%TO.P,P13,1,1*%
%TO.N,/Block Diagram/Data Switches/USB_DOWN_DM*%
X79375000Y-35839400D03*
%TD*%
D17*
%TO.P,R9,1*%
%TO.N,/Block Diagram/VOUT2*%
X63996200Y-36144200D03*
%TO.P,R9,2*%
%TO.N,Net-(JP5-B)*%
X62976200Y-36144200D03*
%TD*%
%TO.P,R5,1*%
%TO.N,/Block Diagram/VOUT2*%
X63996200Y-31140400D03*
%TO.P,R5,2*%
%TO.N,Net-(JP2-B)*%
X62976200Y-31140400D03*
%TD*%
%TO.P,R4,1*%
%TO.N,Net-(JP2-A)*%
X58789200Y-31165800D03*
%TO.P,R4,2*%
%TO.N,GNDA*%
X57769200Y-31165800D03*
%TD*%
D25*
%TO.P,R3,1*%
%TO.N,/Block Diagram/VOUT1*%
X50657200Y-31140400D03*
%TO.P,R3,2*%
%TO.N,Net-(JP1-B)*%
X51677200Y-31140400D03*
%TD*%
%TO.P,R6,1*%
%TO.N,/Block Diagram/VOUT1*%
X50671000Y-32105600D03*
%TO.P,R6,2*%
%TO.N,Net-(JP3-B)*%
X51691000Y-32105600D03*
%TD*%
D26*
%TO.P,NT2,1,1*%
%TO.N,GNDD*%
X90500200Y-30607000D03*
%TO.P,NT2,2,2*%
%TO.N,GND*%
X90500200Y-30353000D03*
%TD*%
D27*
%TO.P,P16,1,1*%
%TO.N,VBATT_PROT*%
X58445400Y-41402000D03*
%TD*%
D20*
%TO.P,P15,1,1*%
%TO.N,/Block Diagram/Data Switches/GPIO_DOWN_0*%
X92456000Y-36347400D03*
%TD*%
D28*
%TO.P,C24,1*%
%TO.N,/Block Diagram/Power Supplies/P3V3_AUX*%
X80949800Y-33398400D03*
%TO.P,C24,2*%
%TO.N,GND*%
X80949800Y-32438400D03*
%TD*%
D20*
%TO.P,P17,1,1*%
%TO.N,GND*%
X82981800Y-33426400D03*
%TD*%
%TO.P,P21,1,1*%
%TO.N,GND*%
X70586600Y-30607000D03*
%TD*%
D29*
%TO.P,C23,1*%
%TO.N,Net-(U7-2Y)*%
X91948000Y-33073400D03*
%TO.P,C23,2*%
%TO.N,GND*%
X91948000Y-34033400D03*
%TD*%
D20*
%TO.P,P12,1,1*%
%TO.N,/Block Diagram/Data Switches/USB_DOWN_DP*%
X79375000Y-31038800D03*
%TD*%
D13*
%TO.P,JP1,1,A*%
%TO.N,Net-(JP1-A)*%
X54508400Y-30353000D03*
D14*
%TO.P,JP1,2,B*%
%TO.N,Net-(JP1-B)*%
X53058400Y-30353000D03*
%TD*%
D20*
%TO.P,P9,1,1*%
%TO.N,/Block Diagram/VOUT2*%
X66649600Y-34036000D03*
%TD*%
D27*
%TO.P,P22,1,1*%
%TO.N,GND*%
X51079400Y-44678600D03*
%TD*%
D21*
%TO.P,FID1,*%
%TO.N,*%
X40894000Y-29210000D03*
%TD*%
D20*
%TO.P,P20,1,1*%
%TO.N,GND*%
X66649600Y-30607000D03*
%TD*%
D30*
%TO.P,U8,1,1D+*%
%TO.N,/Block Diagram/Data Switches/USB_DOWN_DP*%
X79371800Y-32958300D03*
%TO.P,U8,2,2D+*%
%TO.N,unconnected-(U8-2D+-Pad2)*%
X78971800Y-32958300D03*
D31*
%TO.P,U8,3,D+*%
%TO.N,/Block Diagram/USB_D+*%
X78403300Y-33051800D03*
%TO.P,U8,4,GND*%
%TO.N,GND*%
X78403300Y-33451800D03*
%TO.P,U8,5,D-*%
%TO.N,/Block Diagram/USB_D-*%
X78403300Y-33851800D03*
D30*
%TO.P,U8,6,2D-*%
%TO.N,unconnected-(U8-2D--Pad6)*%
X78971800Y-33945300D03*
%TO.P,U8,7,1D-*%
%TO.N,/Block Diagram/Data Switches/USB_DOWN_DM*%
X79371800Y-33945300D03*
D31*
%TO.P,U8,8,~{OE}*%
%TO.N,/Block Diagram/Data Switches/RESET*%
X79940300Y-33851800D03*
%TO.P,U8,9,VCC*%
%TO.N,/Block Diagram/Power Supplies/P3V3_AUX*%
X79940300Y-33451800D03*
%TO.P,U8,10,S*%
%TO.N,GND*%
X79940300Y-33051800D03*
%TD*%
D18*
%TO.P,P18,1,1*%
%TO.N,GND*%
X47447200Y-39776400D03*
%TD*%
%TO.P,P11,1,1*%
%TO.N,/Block Diagram/VOUT1*%
X50876200Y-35839400D03*
%TD*%
D32*
%TO.P,P5,1,1*%
%TO.N,/Block Diagram/VBATT*%
X86360000Y-39878000D03*
%TD*%
%TO.P,P2,1,1*%
%TO.N,GND*%
X68580000Y-40995600D03*
%TD*%
%TO.P,P1,1,1*%
%TO.N,/Block Diagram/VBATT*%
X66040000Y-39878000D03*
%TD*%
%TO.P,P4,1,1*%
%TO.N,GND*%
X83820000Y-40995600D03*
%TD*%
%TO.P,P3,1,1*%
%TO.N,/Block Diagram/USB_D+*%
X71120000Y-39878000D03*
D33*
%TO.P,P3,2,2*%
%TO.N,/Block Diagram/USB_D-*%
X73660000Y-39878000D03*
%TO.P,P3,3,3*%
%TO.N,/Block Diagram/GPIO1*%
X76200000Y-39878000D03*
%TO.P,P3,4,4*%
%TO.N,/Block Diagram/GPIO0*%
X78740000Y-39878000D03*
%TO.P,P3,5,5*%
%TO.N,/Block Diagram/DETECT*%
X81280000Y-39878000D03*
%TD*%
D34*
%TO.N,GND*%
X55753000Y-35077400D03*
X84455000Y-28956000D03*
X71120000Y-30480000D03*
X55118000Y-34544000D03*
X60030400Y-37693600D03*
X54381400Y-36118800D03*
X58166000Y-33909000D03*
X51054000Y-46228000D03*
X76200000Y-46736000D03*
X51054000Y-43180000D03*
X58674000Y-32893000D03*
X71653400Y-38303200D03*
X50292000Y-43180000D03*
X59944000Y-38227000D03*
X58293000Y-33274000D03*
X49530000Y-45212000D03*
X94107000Y-29210000D03*
X56515000Y-33909000D03*
X90500200Y-30175200D03*
X58928000Y-34544000D03*
X49530000Y-44704000D03*
X70612000Y-30988000D03*
X75819000Y-35331400D03*
X56515000Y-34417000D03*
X51054000Y-44704000D03*
X45913000Y-30378400D03*
X57609800Y-28676600D03*
X48006000Y-37566600D03*
X50292000Y-44704000D03*
X71120000Y-30988000D03*
X70612000Y-30480000D03*
X80949800Y-32438400D03*
X78232000Y-32258000D03*
X62484000Y-38354000D03*
X56388000Y-33274000D03*
X51054000Y-45720000D03*
X61976000Y-46736000D03*
X50292000Y-45720000D03*
X58801000Y-33782000D03*
X54356000Y-35153600D03*
X54625200Y-37693600D03*
X54462800Y-34518800D03*
X56007000Y-32893000D03*
X70104000Y-30988000D03*
X48920400Y-39878000D03*
X55880000Y-33782000D03*
X77622400Y-35763200D03*
X47117000Y-44323000D03*
X74904600Y-36220400D03*
X69240400Y-37211000D03*
X54991000Y-35128200D03*
X54610000Y-38227000D03*
X55372000Y-47498000D03*
X76835000Y-29083000D03*
X75285600Y-33909000D03*
X60807600Y-34315400D03*
X58773000Y-36144200D03*
X55905400Y-36245800D03*
X55753000Y-34544000D03*
X47117000Y-46863000D03*
X51054000Y-45212000D03*
X49530000Y-44196000D03*
X62153800Y-37393200D03*
X91948000Y-34033400D03*
X53746400Y-35128200D03*
X54610000Y-37211000D03*
X59740800Y-37185600D03*
X50292000Y-44196000D03*
X73177400Y-38303200D03*
X50292000Y-43688000D03*
X50292000Y-45212000D03*
X70104000Y-30480000D03*
X53746400Y-36118800D03*
X45796200Y-37056600D03*
X51054000Y-44196000D03*
X93472000Y-46355000D03*
X73304400Y-35890200D03*
X50292000Y-46228000D03*
X45913000Y-34340800D03*
X58166000Y-34417000D03*
X47117000Y-45567600D03*
X83058000Y-32715200D03*
X51054000Y-43688000D03*
X77216000Y-34290000D03*
X83207800Y-36347400D03*
X52009000Y-42062400D03*
X77952600Y-33451800D03*
X45913000Y-32359600D03*
X61722000Y-38354000D03*
X48262600Y-36195000D03*
%TO.N,VBATT_PROT*%
X58166000Y-40386000D03*
X56642000Y-40894000D03*
X57404000Y-41402000D03*
X58166000Y-41402000D03*
X58166000Y-42926000D03*
X58166000Y-40894000D03*
X58166000Y-39878000D03*
X57404000Y-42926000D03*
X57404000Y-41910000D03*
X56642000Y-41910000D03*
X57404000Y-39878000D03*
X58166000Y-42418000D03*
X56642000Y-41402000D03*
X57404000Y-40386000D03*
X57404000Y-42418000D03*
X56525200Y-37693600D03*
X58166000Y-41910000D03*
X58130400Y-37693600D03*
X57327800Y-36027400D03*
X57404000Y-40894000D03*
%TO.N,GNDA*%
X59867800Y-31445200D03*
X57327800Y-31877000D03*
%TO.N,/Block Diagram/VOUT1*%
X50546000Y-36322000D03*
X49530000Y-31750000D03*
X50546000Y-35814000D03*
X49530000Y-33020000D03*
X50671000Y-32105600D03*
X51054000Y-36322000D03*
X51054000Y-35814000D03*
X51054000Y-35306000D03*
X50546000Y-35306000D03*
X50657200Y-31140400D03*
X49530000Y-34544000D03*
%TO.N,/Block Diagram/VOUT2*%
X66649600Y-34036000D03*
X63996200Y-31140400D03*
X65193000Y-33223200D03*
X66649600Y-34798000D03*
X67183000Y-34340800D03*
X70612000Y-34798000D03*
X70612000Y-34036000D03*
X70612000Y-33274000D03*
X65024000Y-34544000D03*
X65024000Y-32004000D03*
X64021600Y-33629600D03*
%TO.N,Net-(JP1-A)*%
X55854600Y-30226000D03*
%TO.N,Net-(JP2-A)*%
X58826400Y-30276800D03*
%TO.N,/Block Diagram/VBATT*%
X64262000Y-40386000D03*
X64262000Y-42926000D03*
X63500000Y-40386000D03*
X64262000Y-41910000D03*
X63500000Y-42418000D03*
X64262000Y-41402000D03*
X63500000Y-40894000D03*
X64262000Y-42418000D03*
X64262000Y-40894000D03*
X63500000Y-42926000D03*
X63500000Y-41910000D03*
X63500000Y-41402000D03*
%TO.N,/Block Diagram/Power Supplies/P3V3_AUX*%
X46736000Y-42164000D03*
X46736000Y-41656000D03*
X53848000Y-29210000D03*
X61976000Y-29210000D03*
X80949800Y-33398400D03*
X49606200Y-37566600D03*
X49222600Y-36195000D03*
X47244000Y-42164000D03*
X47244000Y-41656000D03*
%TO.N,/Block Diagram/PGOOD1*%
X54866000Y-29210000D03*
%TO.N,/Block Diagram/PGOOD2*%
X60960000Y-29210000D03*
%TO.N,/Block Diagram/GPIO0*%
X90855800Y-31826200D03*
%TO.N,/Block Diagram/GPIO1*%
X84836000Y-36550600D03*
%TO.N,Net-(Q1-G)*%
X62207600Y-42580200D03*
X62153800Y-39213200D03*
%TO.N,Net-(Q2-G)*%
X57325500Y-45049400D03*
X61288200Y-44754800D03*
%TO.N,/Block Diagram/Data Switches/RESET*%
X48493400Y-37066600D03*
X53263800Y-36728400D03*
X81076800Y-35356800D03*
X49093400Y-38066600D03*
%TO.N,Net-(U7-2Y)*%
X49093400Y-37066600D03*
X91948000Y-33073400D03*
X50266600Y-37490400D03*
%TD*%
D35*
%TO.N,GND*%
X91948000Y-34033400D02*
X91013000Y-34033400D01*
D36*
X90500200Y-30175200D02*
X90500200Y-30353000D01*
D35*
X78403300Y-33451800D02*
X77952600Y-33451800D01*
%TO.N,VBATT_PROT*%
X57327800Y-36027400D02*
X57327800Y-37693600D01*
X57327800Y-37693600D02*
X58130400Y-37693600D01*
X57404000Y-37769800D02*
X57327800Y-37693600D01*
X57404000Y-39878000D02*
X57404000Y-37769800D01*
X56525200Y-37693600D02*
X57327800Y-37693600D01*
%TO.N,GNDA*%
X57327800Y-31877000D02*
X56884200Y-31433400D01*
X57769200Y-31435600D02*
X57769200Y-31165800D01*
X57327800Y-31877000D02*
X57769200Y-31435600D01*
X56884200Y-31433400D02*
X56884200Y-31165800D01*
%TO.N,Net-(JP1-A)*%
X55854600Y-30226000D02*
X55727600Y-30353000D01*
X55854600Y-30226000D02*
X55854600Y-31521400D01*
X55727600Y-30353000D02*
X54508400Y-30353000D01*
X55854600Y-31521400D02*
X54508400Y-32867600D01*
%TO.N,Net-(JP2-A)*%
X60170400Y-32867600D02*
X60170400Y-35382200D01*
X58826400Y-31546800D02*
X58826400Y-31203000D01*
X58902600Y-30353000D02*
X60170400Y-30353000D01*
X58826400Y-30276800D02*
X58902600Y-30353000D01*
X58826400Y-30276800D02*
X58826400Y-31128600D01*
X60147200Y-32867600D02*
X60170400Y-32867600D01*
X58826400Y-31546800D02*
X60147200Y-32867600D01*
X58826400Y-31203000D02*
X58789200Y-31165800D01*
X58826400Y-31128600D02*
X58789200Y-31165800D01*
%TO.N,/Block Diagram/Power Supplies/P3V3_AUX*%
X80896400Y-33451800D02*
X80949800Y-33398400D01*
X79940300Y-33451800D02*
X80896400Y-33451800D01*
%TO.N,Net-(JP1-B)*%
X53058400Y-30353000D02*
X52464600Y-30353000D01*
X52464600Y-30353000D02*
X51677200Y-31140400D01*
%TO.N,Net-(JP2-B)*%
X62188800Y-30353000D02*
X62976200Y-31140400D01*
X61620400Y-30353000D02*
X62188800Y-30353000D01*
%TO.N,Net-(JP3-B)*%
X52453000Y-32867600D02*
X51691000Y-32105600D01*
X53058400Y-32867600D02*
X52453000Y-32867600D01*
%TO.N,Net-(JP4-B)*%
X61620400Y-32867600D02*
X62239600Y-32867600D01*
X62239600Y-32867600D02*
X63001600Y-33629600D01*
%TO.N,Net-(JP5-B)*%
X62214200Y-35382200D02*
X62976200Y-36144200D01*
X61620400Y-35382200D02*
X62214200Y-35382200D01*
%TO.N,/Block Diagram/Data Switches/GPIO_DOWN_1*%
X89924000Y-34122400D02*
X89924000Y-34917000D01*
X89924000Y-34917000D02*
X88519000Y-36322000D01*
D36*
%TO.N,GNDD*%
X88519000Y-30607000D02*
X92456000Y-30607000D01*
D35*
%TO.N,/Block Diagram/Data Switches/USB_DOWN_DP*%
X79371800Y-32958300D02*
X79371800Y-31042000D01*
X79371800Y-31042000D02*
X79375000Y-31038800D01*
%TO.N,/Block Diagram/Data Switches/GPIO_DOWN_0*%
X90424000Y-34122400D02*
X90424000Y-34620200D01*
X90424000Y-34620200D02*
X92151200Y-36347400D01*
X92151200Y-36347400D02*
X92456000Y-36347400D01*
%TO.N,/Block Diagram/Data Switches/USB_DOWN_DM*%
X79371800Y-33945300D02*
X79371800Y-35836200D01*
X79371800Y-35836200D02*
X79375000Y-35839400D01*
%TO.N,/Block Diagram/PGOOD1*%
X50647600Y-28702000D02*
X47447200Y-31902400D01*
X54864000Y-29210000D02*
X54356000Y-28702000D01*
X54356000Y-28702000D02*
X50647600Y-28702000D01*
X54866000Y-29210000D02*
X54864000Y-29210000D01*
%TO.N,/Block Diagram/PGOOD2*%
X61569600Y-28600400D02*
X72517000Y-28600400D01*
X72517000Y-28600400D02*
X74523600Y-30607000D01*
X60960000Y-29210000D02*
X61569600Y-28600400D01*
%TO.N,/Block Diagram/GPIO0*%
X90855800Y-31826200D02*
X90424000Y-32258000D01*
X90424000Y-32258000D02*
X90424000Y-32984400D01*
%TO.N,/Block Diagram/GPIO1*%
X84836000Y-36525200D02*
X88376800Y-32984400D01*
X84836000Y-36550600D02*
X84836000Y-36525200D01*
X88376800Y-32984400D02*
X89924000Y-32984400D01*
D37*
%TO.N,/Block Diagram/USB_D+*%
X72251570Y-38746430D02*
X72251570Y-37737860D01*
X71120000Y-39878000D02*
X72251570Y-38746430D01*
X77506830Y-33313370D02*
X77800200Y-33020000D01*
X76676060Y-33313370D02*
X77506830Y-33313370D01*
X78371500Y-33020000D02*
X78403300Y-33051800D01*
X77800200Y-33020000D02*
X78371500Y-33020000D01*
X72251570Y-37737860D02*
X76676060Y-33313370D01*
%TO.N,/Block Diagram/USB_D-*%
X72528430Y-37852540D02*
X75756407Y-34624564D01*
X78403300Y-33851800D02*
X78371500Y-33883600D01*
X76604936Y-34407292D02*
X76496299Y-34515930D01*
X77800200Y-33883600D02*
X77506830Y-33590230D01*
X77506830Y-33590230D02*
X76790740Y-33590230D01*
X76790740Y-33590230D02*
X76604936Y-33776034D01*
X75865043Y-34515930D02*
X75756407Y-34624564D01*
X72528430Y-38746430D02*
X73660000Y-39878000D01*
X72528430Y-37852540D02*
X72528430Y-38746430D01*
X78371500Y-33883600D02*
X77800200Y-33883600D01*
X76604936Y-33776034D02*
G75*
G03*
X76604984Y-34091615I157864J-157766D01*
G01*
X76180671Y-34515930D02*
G75*
G03*
X75865043Y-34515930I-157814J-157810D01*
G01*
X76604935Y-34091664D02*
G75*
G02*
X76604958Y-34407313I-157835J-157836D01*
G01*
X76496299Y-34515930D02*
G75*
G02*
X76180671Y-34515930I-157814J157816D01*
G01*
D35*
%TO.N,Net-(Q1-G)*%
X62153800Y-42526400D02*
X62207600Y-42580200D01*
X62153800Y-39213200D02*
X62153800Y-42526400D01*
%TO.N,Net-(Q2-G)*%
X61288200Y-44754800D02*
X57620100Y-44754800D01*
X57620100Y-44754800D02*
X57325500Y-45049400D01*
%TO.N,/Block Diagram/Data Switches/RESET*%
X81076800Y-34989700D02*
X79940300Y-33853200D01*
X48493400Y-37066600D02*
X48493400Y-37466600D01*
X48493400Y-37466600D02*
X49093400Y-38066600D01*
X81076800Y-35356800D02*
X81076800Y-34989700D01*
%TO.N,Net-(U7-2Y)*%
X50266600Y-37490400D02*
X49842800Y-37066600D01*
X49842800Y-37066600D02*
X49093400Y-37066600D01*
X91948000Y-33073400D02*
X91013000Y-33073400D01*
%TD*%
%TA.AperFunction,Conductor*%
%TO.N,/Block Diagram/VOUT2*%
G36*
X65093701Y-30500565D02*
G01*
X65123765Y-30552636D01*
X65125100Y-30567900D01*
X65125100Y-30706990D01*
X65156383Y-30904507D01*
X65156384Y-30904510D01*
X65218181Y-31094703D01*
X65308971Y-31272887D01*
X65426517Y-31434675D01*
X65567925Y-31576083D01*
X65729713Y-31693629D01*
X65907897Y-31784419D01*
X66098090Y-31846216D01*
X66295609Y-31877500D01*
X66295610Y-31877500D01*
X67003590Y-31877500D01*
X67003591Y-31877500D01*
X67201110Y-31846216D01*
X67391303Y-31784419D01*
X67569487Y-31693629D01*
X67643594Y-31639787D01*
X67695258Y-31623000D01*
X69540942Y-31623000D01*
X69592605Y-31639787D01*
X69666713Y-31693629D01*
X69844897Y-31784419D01*
X70035090Y-31846216D01*
X70232609Y-31877500D01*
X70232610Y-31877500D01*
X70940590Y-31877500D01*
X70940591Y-31877500D01*
X71138110Y-31846216D01*
X71328303Y-31784419D01*
X71506487Y-31693629D01*
X71580594Y-31639787D01*
X71632258Y-31623000D01*
X72785728Y-31623000D01*
X72842229Y-31643565D01*
X72872293Y-31695636D01*
X72873621Y-31709865D01*
X72874499Y-31784417D01*
X72897481Y-33737920D01*
X72877582Y-33794659D01*
X72862982Y-33808778D01*
X72172159Y-34337053D01*
X72114785Y-34355039D01*
X72111087Y-34353500D01*
X70904101Y-34353500D01*
X70904100Y-34353501D01*
X70904100Y-35267251D01*
X70884179Y-35321980D01*
X70867789Y-35334514D01*
X70860041Y-35339810D01*
X70860344Y-35340206D01*
X69407895Y-36450904D01*
X68603638Y-37065924D01*
X68550243Y-37084000D01*
X63587900Y-37084000D01*
X63531399Y-37063435D01*
X63501335Y-37011364D01*
X63500000Y-36996100D01*
X63500000Y-36725185D01*
X63520565Y-36668684D01*
X63572636Y-36638620D01*
X63627805Y-36646865D01*
X63739495Y-36703773D01*
X63739494Y-36703773D01*
X63830585Y-36718199D01*
X63830586Y-36718200D01*
X63869199Y-36718200D01*
X63869200Y-36718199D01*
X63869200Y-36271201D01*
X64123200Y-36271201D01*
X64123200Y-36718199D01*
X64123201Y-36718200D01*
X64161814Y-36718200D01*
X64161814Y-36718199D01*
X64252904Y-36703773D01*
X64362696Y-36647832D01*
X64449832Y-36560696D01*
X64505773Y-36450904D01*
X64520199Y-36359814D01*
X64520200Y-36359814D01*
X64520200Y-36271201D01*
X64520199Y-36271200D01*
X64123201Y-36271200D01*
X64123200Y-36271201D01*
X63869200Y-36271201D01*
X63869200Y-35570201D01*
X64123200Y-35570201D01*
X64123200Y-36017199D01*
X64123201Y-36017200D01*
X64520199Y-36017200D01*
X64520200Y-36017199D01*
X64520200Y-35928585D01*
X64505773Y-35837495D01*
X64449832Y-35727703D01*
X64362696Y-35640567D01*
X64252904Y-35584626D01*
X64252905Y-35584626D01*
X64161815Y-35570200D01*
X64123201Y-35570200D01*
X64123200Y-35570201D01*
X63869200Y-35570201D01*
X63869199Y-35570200D01*
X63830585Y-35570200D01*
X63739494Y-35584626D01*
X63627805Y-35641534D01*
X63568126Y-35648861D01*
X63517699Y-35616113D01*
X63500000Y-35563214D01*
X63500000Y-35216282D01*
X65918330Y-35216282D01*
X66098211Y-35274728D01*
X66295651Y-35306000D01*
X67003549Y-35306000D01*
X67200988Y-35274728D01*
X67380868Y-35216282D01*
X66649599Y-34485013D01*
X65918330Y-35216282D01*
X63500000Y-35216282D01*
X63500000Y-34190339D01*
X63520565Y-34133838D01*
X63572636Y-34103774D01*
X63631850Y-34114215D01*
X63650055Y-34128184D01*
X63655103Y-34133232D01*
X63764895Y-34189173D01*
X63764894Y-34189173D01*
X63855985Y-34203599D01*
X63855986Y-34203600D01*
X63894599Y-34203600D01*
X63894600Y-34203599D01*
X63894600Y-33756601D01*
X64148600Y-33756601D01*
X64148600Y-34203599D01*
X64148601Y-34203600D01*
X64187214Y-34203600D01*
X64187214Y-34203599D01*
X64278304Y-34189173D01*
X64388096Y-34133232D01*
X64475232Y-34046096D01*
X64531173Y-33936304D01*
X64531213Y-33936050D01*
X65125600Y-33936050D01*
X65125600Y-34135949D01*
X65156871Y-34333390D01*
X65218642Y-34523504D01*
X65309399Y-34701626D01*
X65404316Y-34832268D01*
X66200585Y-34035999D01*
X67098613Y-34035999D01*
X67894882Y-34832268D01*
X67989799Y-34701625D01*
X67989805Y-34701616D01*
X68080553Y-34523513D01*
X68080556Y-34523506D01*
X68135794Y-34353500D01*
X69100405Y-34353500D01*
X69155643Y-34523506D01*
X69246399Y-34701626D01*
X69363898Y-34863349D01*
X69505250Y-35004701D01*
X69666974Y-35122200D01*
X69666973Y-35122200D01*
X69845095Y-35212957D01*
X70035209Y-35274728D01*
X70232651Y-35306000D01*
X70269099Y-35306000D01*
X70269100Y-35305999D01*
X70269100Y-34353501D01*
X70269099Y-34353500D01*
X69100405Y-34353500D01*
X68135794Y-34353500D01*
X68142328Y-34333390D01*
X68173600Y-34135949D01*
X68173600Y-33936050D01*
X68142328Y-33738609D01*
X68135794Y-33718500D01*
X69100405Y-33718500D01*
X70269099Y-33718500D01*
X70269100Y-33718499D01*
X70269100Y-32766001D01*
X70904100Y-32766001D01*
X70904100Y-33718499D01*
X70904101Y-33718500D01*
X72072794Y-33718500D01*
X72017556Y-33548493D01*
X71926800Y-33370373D01*
X71809301Y-33208650D01*
X71667949Y-33067298D01*
X71506225Y-32949799D01*
X71506226Y-32949799D01*
X71328104Y-32859042D01*
X71137990Y-32797271D01*
X70940549Y-32766000D01*
X70904101Y-32766000D01*
X70904100Y-32766001D01*
X70269100Y-32766001D01*
X70269099Y-32766000D01*
X70232651Y-32766000D01*
X70035209Y-32797271D01*
X69845095Y-32859042D01*
X69666973Y-32949799D01*
X69505250Y-33067298D01*
X69363898Y-33208650D01*
X69246399Y-33370373D01*
X69155643Y-33548493D01*
X69100405Y-33718500D01*
X68135794Y-33718500D01*
X68080557Y-33548495D01*
X67989800Y-33370373D01*
X67894882Y-33239730D01*
X67098613Y-34035999D01*
X66200585Y-34035999D01*
X65404316Y-33239730D01*
X65309399Y-33370373D01*
X65218642Y-33548495D01*
X65156871Y-33738609D01*
X65125600Y-33936050D01*
X64531213Y-33936050D01*
X64545599Y-33845214D01*
X64545600Y-33845214D01*
X64545600Y-33756601D01*
X64545599Y-33756600D01*
X64148601Y-33756600D01*
X64148600Y-33756601D01*
X63894600Y-33756601D01*
X63894600Y-33055601D01*
X64148600Y-33055601D01*
X64148600Y-33502599D01*
X64148601Y-33502600D01*
X64545599Y-33502600D01*
X64545600Y-33502599D01*
X64545600Y-33413985D01*
X64531173Y-33322895D01*
X64475232Y-33213103D01*
X64388096Y-33125967D01*
X64278304Y-33070026D01*
X64278305Y-33070026D01*
X64187215Y-33055600D01*
X64148601Y-33055600D01*
X64148600Y-33055601D01*
X63894600Y-33055601D01*
X63894599Y-33055600D01*
X63855985Y-33055600D01*
X63764895Y-33070026D01*
X63655103Y-33125967D01*
X63650055Y-33131016D01*
X63595561Y-33156427D01*
X63537483Y-33140864D01*
X63502995Y-33091611D01*
X63500000Y-33068861D01*
X63500000Y-32855717D01*
X65918331Y-32855717D01*
X66649599Y-33586985D01*
X67380868Y-32855716D01*
X67200990Y-32797271D01*
X67003549Y-32766000D01*
X66295651Y-32766000D01*
X66098209Y-32797271D01*
X65918331Y-32855717D01*
X63500000Y-32855717D01*
X63500000Y-31721385D01*
X63520565Y-31664884D01*
X63572636Y-31634820D01*
X63627805Y-31643065D01*
X63739495Y-31699973D01*
X63739494Y-31699973D01*
X63830585Y-31714399D01*
X63830586Y-31714400D01*
X63869199Y-31714400D01*
X63869200Y-31714399D01*
X63869200Y-31267401D01*
X64123200Y-31267401D01*
X64123200Y-31714399D01*
X64123201Y-31714400D01*
X64161814Y-31714400D01*
X64161814Y-31714399D01*
X64252904Y-31699973D01*
X64362696Y-31644032D01*
X64449832Y-31556896D01*
X64505773Y-31447104D01*
X64520199Y-31356014D01*
X64520200Y-31356014D01*
X64520200Y-31267401D01*
X64520199Y-31267400D01*
X64123201Y-31267400D01*
X64123200Y-31267401D01*
X63869200Y-31267401D01*
X63869200Y-31101300D01*
X63889765Y-31044799D01*
X63941836Y-31014735D01*
X63957100Y-31013400D01*
X64520199Y-31013400D01*
X64520200Y-31013399D01*
X64520200Y-30924785D01*
X64505773Y-30833695D01*
X64449832Y-30723903D01*
X64357807Y-30631878D01*
X64359698Y-30629986D01*
X64332163Y-30589163D01*
X64338450Y-30529365D01*
X64381703Y-30487598D01*
X64417453Y-30480000D01*
X65037200Y-30480000D01*
X65093701Y-30500565D01*
G37*
%TD.AperFunction*%
%TD*%
%TA.AperFunction,Conductor*%
%TO.N,/Block Diagram/VOUT1*%
G36*
X51022601Y-30246565D02*
G01*
X51052665Y-30298636D01*
X51054000Y-30313900D01*
X51054000Y-30508768D01*
X51033435Y-30565269D01*
X50981364Y-30595333D01*
X50926197Y-30587089D01*
X50913905Y-30580826D01*
X50822815Y-30566400D01*
X50784201Y-30566400D01*
X50784200Y-30566401D01*
X50784200Y-31502270D01*
X50797666Y-31531148D01*
X50798000Y-31538809D01*
X50798000Y-32679599D01*
X50798001Y-32679600D01*
X50836614Y-32679600D01*
X50836614Y-32679599D01*
X50927705Y-32665173D01*
X50934283Y-32663036D01*
X50934881Y-32664878D01*
X50985863Y-32658613D01*
X51036294Y-32691354D01*
X51054000Y-32744262D01*
X51054000Y-32766000D01*
X51829349Y-32766000D01*
X51885850Y-32786565D01*
X51891504Y-32791745D01*
X52242147Y-33142388D01*
X52254949Y-33149779D01*
X52293599Y-33195839D01*
X52298900Y-33225903D01*
X52298900Y-33617598D01*
X52320342Y-33725398D01*
X52319669Y-33725531D01*
X52324000Y-33747298D01*
X52324000Y-34036000D01*
X53252100Y-34036000D01*
X53308601Y-34056565D01*
X53338665Y-34108636D01*
X53340000Y-34123900D01*
X53340000Y-34958325D01*
X53332058Y-34994838D01*
X53327344Y-35005159D01*
X53309655Y-35128196D01*
X53309655Y-35128203D01*
X53327344Y-35251238D01*
X53327345Y-35251244D01*
X53329535Y-35256039D01*
X53332056Y-35261559D01*
X53340000Y-35298074D01*
X53340000Y-35948925D01*
X53332058Y-35985438D01*
X53327344Y-35995759D01*
X53309655Y-36118796D01*
X53309655Y-36118801D01*
X53320710Y-36195690D01*
X53308396Y-36254543D01*
X53261133Y-36291711D01*
X53233705Y-36296100D01*
X53201640Y-36296100D01*
X53082373Y-36331121D01*
X53082367Y-36331124D01*
X52977796Y-36398327D01*
X52977791Y-36398331D01*
X52896386Y-36492279D01*
X52844746Y-36605355D01*
X52844744Y-36605361D01*
X52827055Y-36728396D01*
X52827055Y-36728403D01*
X52844744Y-36851438D01*
X52844745Y-36851443D01*
X52844746Y-36851445D01*
X52896387Y-36964522D01*
X52977793Y-37058470D01*
X53082370Y-37125677D01*
X53082372Y-37125677D01*
X53082373Y-37125678D01*
X53201640Y-37160699D01*
X53201644Y-37160700D01*
X53252100Y-37160700D01*
X53308601Y-37181265D01*
X53338665Y-37233336D01*
X53340000Y-37248600D01*
X53340000Y-38846514D01*
X53334708Y-38876553D01*
X52345040Y-41598139D01*
X52306404Y-41644211D01*
X52262432Y-41656000D01*
X52171999Y-41656000D01*
X52147234Y-41652439D01*
X52071159Y-41630100D01*
X52071155Y-41630100D01*
X51946845Y-41630100D01*
X51946840Y-41630100D01*
X51870766Y-41652439D01*
X51846001Y-41656000D01*
X49363900Y-41656000D01*
X49307399Y-41635435D01*
X49277335Y-41583364D01*
X49276000Y-41568100D01*
X49276000Y-40158313D01*
X49287050Y-40120685D01*
X49285201Y-40119841D01*
X49287813Y-40114122D01*
X49297048Y-40093901D01*
X49606200Y-40093901D01*
X49606200Y-40130349D01*
X49637471Y-40327790D01*
X49699242Y-40517904D01*
X49789999Y-40696026D01*
X49907498Y-40857749D01*
X50048850Y-40999101D01*
X50210574Y-41116600D01*
X50210573Y-41116600D01*
X50388695Y-41207357D01*
X50558699Y-41262594D01*
X50558700Y-41262594D01*
X50558700Y-40093901D01*
X51193700Y-40093901D01*
X51193700Y-41262594D01*
X51363704Y-41207357D01*
X51541826Y-41116600D01*
X51703549Y-40999101D01*
X51844901Y-40857749D01*
X51962400Y-40696026D01*
X52053157Y-40517904D01*
X52114928Y-40327790D01*
X52146200Y-40130349D01*
X52146200Y-40093901D01*
X52146199Y-40093900D01*
X51193701Y-40093900D01*
X51193700Y-40093901D01*
X50558700Y-40093901D01*
X50558699Y-40093900D01*
X49606201Y-40093900D01*
X49606200Y-40093901D01*
X49297048Y-40093901D01*
X49339454Y-40001045D01*
X49357145Y-39878000D01*
X49357145Y-39877996D01*
X49339455Y-39754961D01*
X49339454Y-39754960D01*
X49339454Y-39754955D01*
X49287813Y-39641878D01*
X49287812Y-39641877D01*
X49285201Y-39636159D01*
X49287046Y-39635316D01*
X49276000Y-39597686D01*
X49276000Y-39422450D01*
X49606200Y-39422450D01*
X49606200Y-39458899D01*
X49606201Y-39458900D01*
X50558699Y-39458900D01*
X50558700Y-39458899D01*
X51193700Y-39458899D01*
X51193701Y-39458900D01*
X52146199Y-39458900D01*
X52146200Y-39458899D01*
X52146200Y-39422450D01*
X52114928Y-39225009D01*
X52053157Y-39034895D01*
X51962400Y-38856773D01*
X51844901Y-38695050D01*
X51703549Y-38553698D01*
X51541825Y-38436199D01*
X51541826Y-38436199D01*
X51363706Y-38345443D01*
X51193700Y-38290205D01*
X51193700Y-39458899D01*
X50558700Y-39458899D01*
X50558700Y-38290205D01*
X50388693Y-38345443D01*
X50210573Y-38436199D01*
X50048850Y-38553698D01*
X49907498Y-38695050D01*
X49789999Y-38856773D01*
X49699242Y-39034895D01*
X49637471Y-39225009D01*
X49606200Y-39422450D01*
X49276000Y-39422450D01*
X49276000Y-38511121D01*
X49296565Y-38454620D01*
X49316373Y-38437178D01*
X49379407Y-38396670D01*
X49460813Y-38302722D01*
X49512454Y-38189645D01*
X49512589Y-38188701D01*
X49529040Y-38074291D01*
X49557436Y-38021291D01*
X49613256Y-37998944D01*
X49616045Y-37998900D01*
X49668356Y-37998900D01*
X49668359Y-37998899D01*
X49727992Y-37981388D01*
X49787630Y-37963877D01*
X49892207Y-37896670D01*
X49916353Y-37868804D01*
X49968895Y-37839569D01*
X50027935Y-37850948D01*
X50030305Y-37852418D01*
X50085170Y-37887677D01*
X50085172Y-37887677D01*
X50085173Y-37887678D01*
X50204440Y-37922699D01*
X50204444Y-37922700D01*
X50204445Y-37922700D01*
X50328756Y-37922700D01*
X50328759Y-37922699D01*
X50417420Y-37896665D01*
X50448030Y-37887677D01*
X50552607Y-37820470D01*
X50634013Y-37726522D01*
X50685654Y-37613445D01*
X50703345Y-37490400D01*
X50699522Y-37463810D01*
X50711836Y-37404957D01*
X50759099Y-37367789D01*
X50786527Y-37363400D01*
X50976149Y-37363400D01*
X51173590Y-37332128D01*
X51363706Y-37270356D01*
X51363713Y-37270353D01*
X51541816Y-37179605D01*
X51541825Y-37179599D01*
X51672468Y-37084682D01*
X50876200Y-36288413D01*
X50427186Y-35839399D01*
X51325213Y-35839399D01*
X52056482Y-36570668D01*
X52114928Y-36390788D01*
X52146200Y-36193349D01*
X52146200Y-35485450D01*
X52114928Y-35288011D01*
X52056482Y-35108130D01*
X51325213Y-35839399D01*
X50427186Y-35839399D01*
X49695917Y-35108131D01*
X49637471Y-35288009D01*
X49606200Y-35485450D01*
X49606200Y-35766672D01*
X49585635Y-35823173D01*
X49533564Y-35853237D01*
X49474350Y-35842796D01*
X49470779Y-35840619D01*
X49404030Y-35797723D01*
X49404026Y-35797721D01*
X49339135Y-35778667D01*
X49290717Y-35743017D01*
X49276000Y-35694328D01*
X49276000Y-34594116D01*
X50079930Y-34594116D01*
X50876199Y-35390385D01*
X51672468Y-34594116D01*
X51541825Y-34499199D01*
X51541826Y-34499199D01*
X51363704Y-34408442D01*
X51173590Y-34346671D01*
X50976149Y-34315400D01*
X50776251Y-34315400D01*
X50578809Y-34346671D01*
X50388695Y-34408442D01*
X50210573Y-34499199D01*
X50079930Y-34594116D01*
X49276000Y-34594116D01*
X49276000Y-32232601D01*
X50147000Y-32232601D01*
X50147000Y-32321214D01*
X50161426Y-32412304D01*
X50217367Y-32522096D01*
X50304503Y-32609232D01*
X50414295Y-32665173D01*
X50414294Y-32665173D01*
X50505385Y-32679599D01*
X50505386Y-32679600D01*
X50543999Y-32679600D01*
X50544000Y-32679599D01*
X50544000Y-32232601D01*
X50543999Y-32232600D01*
X50147001Y-32232600D01*
X50147000Y-32232601D01*
X49276000Y-32232601D01*
X49276000Y-31267401D01*
X50133200Y-31267401D01*
X50133200Y-31356014D01*
X50147626Y-31447104D01*
X50203567Y-31556897D01*
X50214417Y-31567747D01*
X50239826Y-31622242D01*
X50224262Y-31680320D01*
X50220432Y-31684884D01*
X50217368Y-31689102D01*
X50161426Y-31798895D01*
X50147000Y-31889985D01*
X50147000Y-31978599D01*
X50147001Y-31978600D01*
X50543999Y-31978600D01*
X50544000Y-31978599D01*
X50544000Y-31743729D01*
X50530534Y-31714852D01*
X50530200Y-31707191D01*
X50530200Y-31267401D01*
X50530199Y-31267400D01*
X50133201Y-31267400D01*
X50133200Y-31267401D01*
X49276000Y-31267401D01*
X49276000Y-30924785D01*
X50133200Y-30924785D01*
X50133200Y-31013399D01*
X50133201Y-31013400D01*
X50530199Y-31013400D01*
X50530200Y-31013399D01*
X50530200Y-30566401D01*
X50530199Y-30566400D01*
X50491585Y-30566400D01*
X50400495Y-30580826D01*
X50290703Y-30636767D01*
X50203567Y-30723903D01*
X50147626Y-30833695D01*
X50133200Y-30924785D01*
X49276000Y-30924785D01*
X49276000Y-30595651D01*
X49296565Y-30539150D01*
X49301745Y-30533496D01*
X49583496Y-30251745D01*
X49637990Y-30226334D01*
X49645651Y-30226000D01*
X50966100Y-30226000D01*
X51022601Y-30246565D01*
G37*
%TD.AperFunction*%
%TD*%
%TA.AperFunction,Conductor*%
%TO.N,GND*%
G36*
X74574400Y-38811200D02*
G01*
X73717508Y-38811200D01*
X73660000Y-38805536D01*
X73602492Y-38811200D01*
X73068065Y-38811200D01*
X72889955Y-38633090D01*
X72864544Y-38578596D01*
X72864210Y-38570935D01*
X72864210Y-38028035D01*
X72884775Y-37971534D01*
X72889955Y-37965880D01*
X73793245Y-37062589D01*
X75742800Y-37033200D01*
X74574400Y-38811200D01*
G37*
%TD.AperFunction*%
%TA.AperFunction,Conductor*%
G36*
X71982880Y-37531684D02*
G01*
X71938672Y-37608254D01*
X71928461Y-37646366D01*
X71928461Y-37646367D01*
X71915790Y-37693654D01*
X71915790Y-38570934D01*
X71895225Y-38627435D01*
X71890045Y-38633089D01*
X71738179Y-38784955D01*
X71683685Y-38810366D01*
X71676024Y-38810700D01*
X70688200Y-38810700D01*
X70688200Y-37109400D01*
X72431443Y-37083119D01*
X71982880Y-37531684D01*
G37*
%TD.AperFunction*%
%TD*%
%TA.AperFunction,Conductor*%
%TO.N,GND*%
G36*
X50006250Y-28722565D02*
G01*
X50036314Y-28774636D01*
X50025873Y-28833850D01*
X50011904Y-28852055D01*
X48275697Y-30588260D01*
X48221203Y-30613671D01*
X48163125Y-30598108D01*
X48161876Y-30597218D01*
X48129119Y-30573419D01*
X48113087Y-30561771D01*
X47934903Y-30470981D01*
X47934901Y-30470980D01*
X47934898Y-30470979D01*
X47744707Y-30409183D01*
X47592977Y-30385151D01*
X47547191Y-30377900D01*
X47347209Y-30377900D01*
X47310038Y-30383787D01*
X47149692Y-30409183D01*
X46959501Y-30470979D01*
X46959494Y-30470982D01*
X46781315Y-30561770D01*
X46781309Y-30561773D01*
X46619524Y-30679317D01*
X46478117Y-30820724D01*
X46360573Y-30982509D01*
X46360570Y-30982515D01*
X46269782Y-31160694D01*
X46269779Y-31160701D01*
X46207983Y-31350892D01*
X46184980Y-31496130D01*
X46176700Y-31548409D01*
X46176700Y-32256391D01*
X46181201Y-32284809D01*
X46207983Y-32453907D01*
X46268772Y-32641000D01*
X46269781Y-32644103D01*
X46360571Y-32822287D01*
X46360573Y-32822290D01*
X46465857Y-32967200D01*
X46478117Y-32984075D01*
X46619525Y-33125483D01*
X46781313Y-33243029D01*
X46959497Y-33333819D01*
X47149690Y-33395616D01*
X47347209Y-33426900D01*
X47347210Y-33426900D01*
X47547190Y-33426900D01*
X47547191Y-33426900D01*
X47744710Y-33395616D01*
X47934903Y-33333819D01*
X48113087Y-33243029D01*
X48274875Y-33125483D01*
X48416283Y-32984075D01*
X48533829Y-32822287D01*
X48624619Y-32644103D01*
X48686416Y-32453910D01*
X48717700Y-32256391D01*
X48717700Y-31548409D01*
X48686416Y-31350890D01*
X48653507Y-31249606D01*
X48655606Y-31189516D01*
X48674947Y-31160292D01*
X48866446Y-30968794D01*
X48920939Y-30943384D01*
X48979018Y-30958947D01*
X49013505Y-31008200D01*
X49016500Y-31030950D01*
X49016500Y-35694321D01*
X49016501Y-35694338D01*
X49024301Y-35747105D01*
X49012220Y-35806005D01*
X48984870Y-35833903D01*
X48936595Y-35864928D01*
X48936591Y-35864931D01*
X48855186Y-35958879D01*
X48803546Y-36071955D01*
X48802173Y-36081507D01*
X48773778Y-36134507D01*
X48717958Y-36156856D01*
X48715167Y-36156900D01*
X47764701Y-36156900D01*
X47764700Y-36156901D01*
X47764700Y-37325594D01*
X47934706Y-37270356D01*
X47934707Y-37270356D01*
X47996138Y-37239055D01*
X48055817Y-37231727D01*
X48106244Y-37264474D01*
X48116001Y-37280857D01*
X48125987Y-37302722D01*
X48128526Y-37305652D01*
X48149989Y-37361818D01*
X48150000Y-37363219D01*
X48150000Y-37511809D01*
X48161010Y-37552900D01*
X48164681Y-37566600D01*
X48164681Y-37566601D01*
X48173400Y-37599145D01*
X48184229Y-37617900D01*
X48218612Y-37677453D01*
X48480190Y-37939031D01*
X48644178Y-38103019D01*
X48669028Y-38152664D01*
X48674344Y-38189641D01*
X48714214Y-38276944D01*
X48725987Y-38302722D01*
X48807393Y-38396670D01*
X48911970Y-38463877D01*
X48911972Y-38463877D01*
X48911973Y-38463878D01*
X48953365Y-38476032D01*
X49001783Y-38511682D01*
X49016500Y-38560371D01*
X49016500Y-39199400D01*
X49016500Y-39597686D01*
X49027006Y-39670776D01*
X49038052Y-39708406D01*
X49045307Y-39733122D01*
X49045453Y-39735862D01*
X49047349Y-39740012D01*
X49047352Y-39740018D01*
X49049145Y-39743945D01*
X49049146Y-39743948D01*
X49051757Y-39749666D01*
X49051759Y-39749669D01*
X49053215Y-39752857D01*
X49053218Y-39752863D01*
X49082654Y-39817322D01*
X49089702Y-39841323D01*
X49093177Y-39865486D01*
X49093177Y-39890511D01*
X49089702Y-39914676D01*
X49082654Y-39938677D01*
X49061000Y-39986095D01*
X49061000Y-39986096D01*
X49061000Y-39986097D01*
X49051767Y-40006314D01*
X49049155Y-40012033D01*
X49049128Y-40012093D01*
X49047862Y-40015816D01*
X49047116Y-40016744D01*
X49027014Y-40085195D01*
X49027013Y-40085200D01*
X49016500Y-40158311D01*
X49016500Y-41568109D01*
X49017485Y-41590689D01*
X49017487Y-41590710D01*
X49018822Y-41605974D01*
X49018824Y-41606000D01*
X49018826Y-41606013D01*
X49020054Y-41617236D01*
X49052601Y-41713113D01*
X49052602Y-41713115D01*
X49052603Y-41713117D01*
X49082667Y-41765188D01*
X49132082Y-41826758D01*
X49218644Y-41879285D01*
X49218647Y-41879286D01*
X49218646Y-41879286D01*
X49231669Y-41884026D01*
X49275145Y-41899850D01*
X49363900Y-41915500D01*
X49363903Y-41915500D01*
X51846001Y-41915500D01*
X51882935Y-41912858D01*
X51907700Y-41909297D01*
X51943881Y-41901426D01*
X51966433Y-41894803D01*
X51972028Y-41893161D01*
X51996793Y-41889600D01*
X52021208Y-41889600D01*
X52045973Y-41893161D01*
X52051746Y-41894856D01*
X52074120Y-41901426D01*
X52110300Y-41909297D01*
X52135065Y-41912858D01*
X52171999Y-41915500D01*
X52262431Y-41915500D01*
X52262432Y-41915500D01*
X52329631Y-41906648D01*
X52373603Y-41894859D01*
X52426295Y-41874355D01*
X52505241Y-41810956D01*
X52543877Y-41764884D01*
X52588916Y-41686821D01*
X52743957Y-41260459D01*
X55650900Y-41260459D01*
X55650900Y-41543541D01*
X55686105Y-41810957D01*
X55687849Y-41824200D01*
X55687852Y-41824214D01*
X55712312Y-41915500D01*
X55761116Y-42097638D01*
X55818778Y-42236847D01*
X55869444Y-42359166D01*
X55869445Y-42359168D01*
X55869447Y-42359172D01*
X55947332Y-42494072D01*
X56010989Y-42604330D01*
X56113630Y-42738094D01*
X56183318Y-42828913D01*
X56383487Y-43029082D01*
X56608072Y-43201412D01*
X56853228Y-43342953D01*
X57114762Y-43451284D01*
X57388198Y-43524551D01*
X57586307Y-43550632D01*
X57668856Y-43561500D01*
X57668859Y-43561500D01*
X59221944Y-43561500D01*
X59304493Y-43550632D01*
X59502602Y-43524551D01*
X59776038Y-43451284D01*
X60037572Y-43342953D01*
X60282728Y-43201412D01*
X60507313Y-43029082D01*
X60707482Y-42828913D01*
X60879812Y-42604328D01*
X61021353Y-42359172D01*
X61129684Y-42097638D01*
X61202951Y-41824202D01*
X61239900Y-41543541D01*
X61239900Y-41260459D01*
X61239671Y-41258723D01*
X61228705Y-41175425D01*
X61202951Y-40979798D01*
X61129684Y-40706362D01*
X61021353Y-40444828D01*
X60879812Y-40199672D01*
X60870702Y-40187800D01*
X60763098Y-40047567D01*
X60707482Y-39975087D01*
X60507313Y-39774918D01*
X60419667Y-39707665D01*
X60282730Y-39602589D01*
X60201009Y-39555407D01*
X60037572Y-39461047D01*
X60037570Y-39461046D01*
X60037568Y-39461045D01*
X60037566Y-39461044D01*
X59830198Y-39375150D01*
X59776038Y-39352716D01*
X59776031Y-39352714D01*
X59502614Y-39279452D01*
X59502609Y-39279451D01*
X59502602Y-39279449D01*
X59390337Y-39264669D01*
X59221944Y-39242500D01*
X59221941Y-39242500D01*
X57835300Y-39242500D01*
X57778799Y-39221935D01*
X57748735Y-39169864D01*
X57747400Y-39154600D01*
X57747400Y-38760999D01*
X57767965Y-38704498D01*
X57820036Y-38674434D01*
X57835288Y-38673099D01*
X58428654Y-38673099D01*
X58488742Y-38666640D01*
X58624667Y-38615942D01*
X58740804Y-38529004D01*
X58827742Y-38412867D01*
X58878440Y-38276942D01*
X58884900Y-38216855D01*
X58884900Y-38011101D01*
X59276401Y-38011101D01*
X59276401Y-38216805D01*
X59282853Y-38276837D01*
X59333500Y-38412624D01*
X59420351Y-38528644D01*
X59420355Y-38528648D01*
X59536375Y-38615499D01*
X59672165Y-38666146D01*
X59672167Y-38666147D01*
X59712900Y-38670525D01*
X59712900Y-38011101D01*
X60347900Y-38011101D01*
X60347900Y-38670524D01*
X60388637Y-38666146D01*
X60524424Y-38615499D01*
X60640444Y-38528648D01*
X60640448Y-38528644D01*
X60727299Y-38412624D01*
X60777946Y-38276834D01*
X60777948Y-38276824D01*
X60784399Y-38216819D01*
X60784400Y-38216810D01*
X60784400Y-38011101D01*
X60784399Y-38011100D01*
X60347901Y-38011100D01*
X60347900Y-38011101D01*
X59712900Y-38011101D01*
X59712899Y-38011100D01*
X59276402Y-38011100D01*
X59276401Y-38011101D01*
X58884900Y-38011101D01*
X58884899Y-37170380D01*
X59276400Y-37170380D01*
X59276400Y-37376099D01*
X59276401Y-37376100D01*
X59712899Y-37376100D01*
X59712900Y-37376099D01*
X60347900Y-37376099D01*
X60347901Y-37376100D01*
X60784398Y-37376100D01*
X60784399Y-37376099D01*
X60784399Y-37170394D01*
X60777946Y-37110362D01*
X60727299Y-36974575D01*
X60640448Y-36858555D01*
X60640444Y-36858551D01*
X60524424Y-36771700D01*
X60388634Y-36721053D01*
X60347900Y-36716672D01*
X60347900Y-37376099D01*
X59712900Y-37376099D01*
X59712900Y-36716674D01*
X59672167Y-36721052D01*
X59672165Y-36721053D01*
X59536375Y-36771700D01*
X59420355Y-36858551D01*
X59420351Y-36858555D01*
X59333500Y-36974575D01*
X59282853Y-37110365D01*
X59282851Y-37110375D01*
X59276400Y-37170380D01*
X58884899Y-37170380D01*
X58884899Y-37170346D01*
X58878440Y-37110258D01*
X58878306Y-37109900D01*
X58855037Y-37047513D01*
X58827742Y-36974333D01*
X58740804Y-36858196D01*
X58624667Y-36771258D01*
X58624665Y-36771257D01*
X58569596Y-36750717D01*
X58488742Y-36720560D01*
X58488739Y-36720559D01*
X58488731Y-36720558D01*
X58428663Y-36714100D01*
X58428655Y-36714100D01*
X58281690Y-36714100D01*
X58225189Y-36693535D01*
X58195125Y-36641464D01*
X58205566Y-36582250D01*
X58211315Y-36573533D01*
X58250142Y-36521667D01*
X58300840Y-36385742D01*
X58307300Y-36325655D01*
X58307299Y-35729146D01*
X58300840Y-35669058D01*
X58296012Y-35656115D01*
X58261362Y-35563214D01*
X58250142Y-35533133D01*
X58163204Y-35416996D01*
X58047067Y-35330058D01*
X58047065Y-35330057D01*
X57991996Y-35309517D01*
X57911142Y-35279360D01*
X57911139Y-35279359D01*
X57911131Y-35279358D01*
X57851059Y-35272900D01*
X56804550Y-35272900D01*
X56744455Y-35279360D01*
X56608534Y-35330057D01*
X56492398Y-35416994D01*
X56492394Y-35416998D01*
X56405457Y-35533134D01*
X56354760Y-35669058D01*
X56354758Y-35669068D01*
X56348300Y-35729136D01*
X56348300Y-36325649D01*
X56354760Y-36385744D01*
X56405457Y-36521665D01*
X56405458Y-36521667D01*
X56444278Y-36573525D01*
X56461674Y-36631079D01*
X56438005Y-36686352D01*
X56384345Y-36713478D01*
X56373911Y-36714100D01*
X56226951Y-36714100D01*
X56166855Y-36720560D01*
X56030934Y-36771257D01*
X55914798Y-36858194D01*
X55914794Y-36858198D01*
X55827857Y-36974334D01*
X55777160Y-37110258D01*
X55777158Y-37110268D01*
X55770700Y-37170336D01*
X55770700Y-38216849D01*
X55777160Y-38276944D01*
X55824246Y-38403184D01*
X55827858Y-38412867D01*
X55914796Y-38529004D01*
X56030933Y-38615942D01*
X56166858Y-38666640D01*
X56226945Y-38673100D01*
X56823454Y-38673099D01*
X56883542Y-38666640D01*
X56913033Y-38655640D01*
X56941982Y-38644843D01*
X57002107Y-38644366D01*
X57048472Y-38682648D01*
X57060600Y-38727201D01*
X57060600Y-39316417D01*
X57040035Y-39372918D01*
X57006338Y-39397626D01*
X56853235Y-39461043D01*
X56853234Y-39461043D01*
X56608069Y-39602589D01*
X56383490Y-39774915D01*
X56183315Y-39975090D01*
X56010989Y-40199669D01*
X55869445Y-40444831D01*
X55869444Y-40444833D01*
X55761117Y-40706360D01*
X55761114Y-40706368D01*
X55687852Y-40979785D01*
X55687849Y-40979799D01*
X55651129Y-41258723D01*
X55650900Y-41260459D01*
X52743957Y-41260459D01*
X53578584Y-38965235D01*
X53590272Y-38921576D01*
X53595564Y-38891537D01*
X53599500Y-38846514D01*
X53599500Y-38011101D01*
X53871201Y-38011101D01*
X53871201Y-38216805D01*
X53877653Y-38276837D01*
X53928300Y-38412624D01*
X54015151Y-38528644D01*
X54015155Y-38528648D01*
X54131175Y-38615499D01*
X54266965Y-38666146D01*
X54266967Y-38666147D01*
X54307700Y-38670525D01*
X54307700Y-38011101D01*
X54942700Y-38011101D01*
X54942700Y-38670524D01*
X54983437Y-38666146D01*
X55119224Y-38615499D01*
X55235244Y-38528648D01*
X55235248Y-38528644D01*
X55322099Y-38412624D01*
X55372746Y-38276834D01*
X55372748Y-38276824D01*
X55379199Y-38216819D01*
X55379200Y-38216810D01*
X55379200Y-38011101D01*
X55379199Y-38011100D01*
X54942701Y-38011100D01*
X54942700Y-38011101D01*
X54307700Y-38011101D01*
X54307699Y-38011100D01*
X53871202Y-38011100D01*
X53871201Y-38011101D01*
X53599500Y-38011101D01*
X53599500Y-37248600D01*
X53599269Y-37243316D01*
X53598514Y-37226010D01*
X53598513Y-37226007D01*
X53598513Y-37225990D01*
X53597178Y-37210726D01*
X53595945Y-37199462D01*
X53586073Y-37170380D01*
X53871200Y-37170380D01*
X53871200Y-37376099D01*
X53871201Y-37376100D01*
X54307699Y-37376100D01*
X54307700Y-37376099D01*
X54942700Y-37376099D01*
X54942701Y-37376100D01*
X55379198Y-37376100D01*
X55379199Y-37376099D01*
X55379199Y-37170394D01*
X55372746Y-37110362D01*
X55322099Y-36974575D01*
X55235248Y-36858555D01*
X55235244Y-36858551D01*
X55119224Y-36771700D01*
X54983434Y-36721053D01*
X54942700Y-36716672D01*
X54942700Y-37376099D01*
X54307700Y-37376099D01*
X54307700Y-36716674D01*
X54266967Y-36721052D01*
X54266965Y-36721053D01*
X54131175Y-36771700D01*
X54015155Y-36858551D01*
X54015151Y-36858555D01*
X53928300Y-36974575D01*
X53877653Y-37110365D01*
X53877651Y-37110375D01*
X53871200Y-37170380D01*
X53586073Y-37170380D01*
X53564769Y-37107624D01*
X53566080Y-37047513D01*
X53581570Y-37021812D01*
X53631213Y-36964522D01*
X53682854Y-36851445D01*
X53693510Y-36777331D01*
X53700545Y-36728403D01*
X53700545Y-36728396D01*
X53682855Y-36605361D01*
X53682854Y-36605360D01*
X53682854Y-36605355D01*
X53631213Y-36492278D01*
X53631212Y-36492277D01*
X53631212Y-36492276D01*
X53568318Y-36419693D01*
X53546859Y-36363526D01*
X53553877Y-36327690D01*
X53562396Y-36307688D01*
X53574710Y-36248835D01*
X53577569Y-36158759D01*
X53575583Y-36144952D01*
X53573622Y-36131304D01*
X53573621Y-36106289D01*
X53573772Y-36105233D01*
X53579998Y-36061929D01*
X53583605Y-36046672D01*
X53585629Y-36040593D01*
X53593571Y-36004080D01*
X53599500Y-35948925D01*
X53599500Y-35298074D01*
X53593569Y-35242909D01*
X53585625Y-35206394D01*
X53583603Y-35200321D01*
X53579999Y-35185071D01*
X53573619Y-35140704D01*
X53573619Y-35115699D01*
X53579999Y-35071318D01*
X53583602Y-35056079D01*
X53585629Y-35049993D01*
X53593571Y-35013480D01*
X53599500Y-34958325D01*
X53599500Y-34444900D01*
X56350874Y-34444900D01*
X56355252Y-34485632D01*
X56355253Y-34485634D01*
X56405900Y-34621424D01*
X56492751Y-34737444D01*
X56492755Y-34737448D01*
X56608775Y-34824299D01*
X56744565Y-34874946D01*
X56744575Y-34874948D01*
X56804584Y-34881399D01*
X57010300Y-34881399D01*
X57010300Y-34444901D01*
X57645300Y-34444901D01*
X57645300Y-34881398D01*
X57645301Y-34881399D01*
X57851005Y-34881399D01*
X57911037Y-34874946D01*
X58046824Y-34824299D01*
X58162844Y-34737448D01*
X58162848Y-34737444D01*
X58249699Y-34621424D01*
X58300346Y-34485634D01*
X58300347Y-34485632D01*
X58304726Y-34444900D01*
X57645301Y-34444900D01*
X57645300Y-34444901D01*
X57010300Y-34444901D01*
X57010299Y-34444900D01*
X56350874Y-34444900D01*
X53599500Y-34444900D01*
X53599500Y-34123900D01*
X53599434Y-34122399D01*
X53598514Y-34101310D01*
X53598513Y-34101307D01*
X53598513Y-34101290D01*
X53597178Y-34086026D01*
X53595945Y-34074762D01*
X53568276Y-33993255D01*
X53569587Y-33933143D01*
X53609231Y-33887936D01*
X53651511Y-33877100D01*
X53708399Y-33877100D01*
X53708400Y-33877100D01*
X53708402Y-33877099D01*
X53708413Y-33877099D01*
X53729104Y-33875071D01*
X53758760Y-33872167D01*
X53822005Y-33846046D01*
X53882075Y-33843486D01*
X53904394Y-33854207D01*
X53909092Y-33857346D01*
X53909094Y-33857347D01*
X54008400Y-33877100D01*
X54008402Y-33877100D01*
X55008398Y-33877100D01*
X55008400Y-33877100D01*
X55107706Y-33857347D01*
X55178715Y-33809900D01*
X56350874Y-33809900D01*
X57010299Y-33809900D01*
X57010300Y-33809899D01*
X57010300Y-33373401D01*
X57645300Y-33373401D01*
X57645300Y-33809899D01*
X57645301Y-33809900D01*
X58304725Y-33809900D01*
X58300347Y-33769167D01*
X58300346Y-33769165D01*
X58249699Y-33633375D01*
X58162848Y-33517355D01*
X58162844Y-33517351D01*
X58046824Y-33430500D01*
X57911034Y-33379853D01*
X57911024Y-33379851D01*
X57851019Y-33373400D01*
X57645301Y-33373400D01*
X57645300Y-33373401D01*
X57010300Y-33373401D01*
X57010299Y-33373400D01*
X56804594Y-33373400D01*
X56744562Y-33379853D01*
X56608775Y-33430500D01*
X56492755Y-33517351D01*
X56492751Y-33517355D01*
X56405900Y-33633375D01*
X56355253Y-33769165D01*
X56355252Y-33769167D01*
X56350874Y-33809900D01*
X55178715Y-33809900D01*
X55191894Y-33801094D01*
X55248147Y-33716906D01*
X55267900Y-33617600D01*
X55267900Y-32630150D01*
X55288465Y-32573649D01*
X55293634Y-32568006D01*
X56129388Y-31732253D01*
X56129393Y-31732243D01*
X56130678Y-31730570D01*
X56133008Y-31728631D01*
X56133462Y-31728178D01*
X56133503Y-31728219D01*
X56160513Y-31705751D01*
X56230996Y-31669840D01*
X56312046Y-31588789D01*
X56366539Y-31563379D01*
X56424617Y-31578942D01*
X56436348Y-31588784D01*
X56517404Y-31669840D01*
X56627338Y-31725854D01*
X56674784Y-31733368D01*
X56723190Y-31758031D01*
X56878578Y-31913419D01*
X56903428Y-31963064D01*
X56908744Y-32000041D01*
X56917080Y-32018294D01*
X56960387Y-32113122D01*
X57041793Y-32207070D01*
X57146370Y-32274277D01*
X57146372Y-32274277D01*
X57146373Y-32274278D01*
X57265640Y-32309299D01*
X57265644Y-32309300D01*
X57265645Y-32309300D01*
X57389956Y-32309300D01*
X57389959Y-32309299D01*
X57496496Y-32278016D01*
X57509230Y-32274277D01*
X57613807Y-32207070D01*
X57695213Y-32113122D01*
X57746854Y-32000045D01*
X57752170Y-31963064D01*
X57777018Y-31913421D01*
X57932825Y-31757614D01*
X57981229Y-31732953D01*
X58026062Y-31725854D01*
X58135996Y-31669840D01*
X58217046Y-31588789D01*
X58271539Y-31563379D01*
X58329617Y-31578942D01*
X58341348Y-31588784D01*
X58422404Y-31669840D01*
X58510437Y-31714694D01*
X58546650Y-31749059D01*
X58551612Y-31757653D01*
X59385155Y-32591196D01*
X59410566Y-32645689D01*
X59410900Y-32653350D01*
X59410900Y-33617598D01*
X59430652Y-33716905D01*
X59450928Y-33747250D01*
X59486906Y-33801094D01*
X59571094Y-33857347D01*
X59670400Y-33877100D01*
X59739100Y-33877100D01*
X59795601Y-33897665D01*
X59825665Y-33949736D01*
X59827000Y-33965000D01*
X59827000Y-34284800D01*
X59806435Y-34341301D01*
X59754364Y-34371365D01*
X59739100Y-34372700D01*
X59670400Y-34372700D01*
X59645605Y-34377632D01*
X59571094Y-34392452D01*
X59486907Y-34448705D01*
X59486905Y-34448707D01*
X59430652Y-34532894D01*
X59415731Y-34607913D01*
X59410900Y-34632200D01*
X59410900Y-36132200D01*
X59417454Y-36165149D01*
X59430652Y-36231505D01*
X59430653Y-36231506D01*
X59486906Y-36315694D01*
X59571094Y-36371947D01*
X59670400Y-36391700D01*
X59670402Y-36391700D01*
X60670399Y-36391700D01*
X60670400Y-36391700D01*
X60721292Y-36386661D01*
X60745258Y-36376704D01*
X60783797Y-36360694D01*
X60843865Y-36358007D01*
X60866355Y-36368781D01*
X60871092Y-36371946D01*
X60871094Y-36371947D01*
X60970400Y-36391700D01*
X60970402Y-36391700D01*
X62120398Y-36391700D01*
X62120400Y-36391700D01*
X62219706Y-36371947D01*
X62303894Y-36315694D01*
X62303894Y-36315693D01*
X62311092Y-36310884D01*
X62311948Y-36312166D01*
X62357954Y-36290708D01*
X62416034Y-36306265D01*
X62450526Y-36355515D01*
X62452440Y-36364522D01*
X62454478Y-36377388D01*
X62466145Y-36451059D01*
X62466146Y-36451062D01*
X62516864Y-36550603D01*
X62522160Y-36560996D01*
X62609404Y-36648240D01*
X62719338Y-36704254D01*
X62810547Y-36718700D01*
X63141852Y-36718699D01*
X63141853Y-36718698D01*
X63145293Y-36718428D01*
X63145453Y-36720469D01*
X63197832Y-36730623D01*
X63235696Y-36777331D01*
X63240500Y-36805992D01*
X63240500Y-36996109D01*
X63241485Y-37018689D01*
X63241487Y-37018710D01*
X63242822Y-37033974D01*
X63242824Y-37033999D01*
X63242825Y-37034002D01*
X63244054Y-37045234D01*
X63244054Y-37045236D01*
X63244055Y-37045238D01*
X63253700Y-37073650D01*
X63259028Y-37089344D01*
X63257717Y-37149457D01*
X63218073Y-37194664D01*
X63175793Y-37205500D01*
X62800490Y-37205500D01*
X62777910Y-37206485D01*
X62772802Y-37206932D01*
X62762626Y-37207822D01*
X62762603Y-37207824D01*
X62762586Y-37207826D01*
X62751363Y-37209054D01*
X62655486Y-37241601D01*
X62603414Y-37271666D01*
X62603413Y-37271666D01*
X62603412Y-37271667D01*
X62547574Y-37316482D01*
X62541841Y-37321083D01*
X62489313Y-37407646D01*
X62479711Y-37434029D01*
X62468750Y-37464145D01*
X62453100Y-37552900D01*
X62453100Y-37939040D01*
X62456042Y-37978004D01*
X62460005Y-38004101D01*
X62460008Y-38004120D01*
X62465640Y-38031302D01*
X62510058Y-38122285D01*
X62510062Y-38122293D01*
X62531658Y-38150669D01*
X62546474Y-38170138D01*
X62567589Y-38189641D01*
X62577223Y-38198540D01*
X62584011Y-38205548D01*
X62622587Y-38250067D01*
X62636112Y-38271112D01*
X62638775Y-38276942D01*
X62646254Y-38293319D01*
X62653302Y-38317321D01*
X62656777Y-38341486D01*
X62656777Y-38366508D01*
X62653302Y-38390676D01*
X62646253Y-38414682D01*
X62636112Y-38436887D01*
X62622586Y-38457934D01*
X62600365Y-38483578D01*
X62586902Y-38496164D01*
X62581509Y-38500235D01*
X62581486Y-38500254D01*
X62561687Y-38517687D01*
X62561671Y-38517701D01*
X62541841Y-38537142D01*
X62489313Y-38623705D01*
X62468749Y-38680205D01*
X62456380Y-38750350D01*
X62426316Y-38802421D01*
X62369815Y-38822985D01*
X62341515Y-38816830D01*
X62341262Y-38817694D01*
X62215959Y-38780900D01*
X62215955Y-38780900D01*
X62091645Y-38780900D01*
X62091640Y-38780900D01*
X61972373Y-38815921D01*
X61972367Y-38815924D01*
X61867796Y-38883127D01*
X61867791Y-38883131D01*
X61786386Y-38977079D01*
X61734746Y-39090155D01*
X61734744Y-39090161D01*
X61717055Y-39213196D01*
X61717055Y-39213203D01*
X61734744Y-39336238D01*
X61734745Y-39336243D01*
X61734746Y-39336245D01*
X61762778Y-39397626D01*
X61786387Y-39449322D01*
X61788926Y-39452252D01*
X61810389Y-39508418D01*
X61810400Y-39509819D01*
X61810400Y-42390179D01*
X61802457Y-42426692D01*
X61788546Y-42457153D01*
X61788544Y-42457159D01*
X61770855Y-42580196D01*
X61770855Y-42580203D01*
X61788544Y-42703238D01*
X61788545Y-42703243D01*
X61788546Y-42703245D01*
X61840187Y-42816322D01*
X61921593Y-42910270D01*
X62026170Y-42977477D01*
X62026172Y-42977477D01*
X62026173Y-42977478D01*
X62145440Y-43012499D01*
X62145444Y-43012500D01*
X62145445Y-43012500D01*
X62269756Y-43012500D01*
X62269756Y-43012499D01*
X62340435Y-42991746D01*
X62400441Y-42995559D01*
X62443957Y-43037050D01*
X62453100Y-43076085D01*
X62453100Y-46901600D01*
X62432535Y-46958101D01*
X62380464Y-46988165D01*
X62365200Y-46989500D01*
X61661941Y-46989500D01*
X61594995Y-46989500D01*
X61480750Y-46989500D01*
X61480745Y-46989500D01*
X61477475Y-46989746D01*
X61477456Y-46989503D01*
X61470848Y-46990000D01*
X61214000Y-46990000D01*
X60216560Y-47488720D01*
X60177250Y-47498000D01*
X46496263Y-47498000D01*
X46468467Y-47493489D01*
X45761694Y-47257898D01*
X45714595Y-47220522D01*
X45706103Y-47202310D01*
X45470511Y-46495533D01*
X45466000Y-46467737D01*
X45466000Y-44996100D01*
X48308570Y-44996100D01*
X48322341Y-45100702D01*
X48322344Y-45100716D01*
X48395589Y-45374070D01*
X48395592Y-45374078D01*
X48503894Y-45635544D01*
X48503895Y-45635546D01*
X48645402Y-45880645D01*
X48645404Y-45880648D01*
X48817692Y-46105178D01*
X49017821Y-46305307D01*
X49242351Y-46477595D01*
X49242354Y-46477597D01*
X49487453Y-46619104D01*
X49487455Y-46619105D01*
X49748921Y-46727407D01*
X49748929Y-46727410D01*
X50022283Y-46800655D01*
X50022297Y-46800658D01*
X50302889Y-46837600D01*
X50761899Y-46837600D01*
X50761900Y-46837599D01*
X50761900Y-44996101D01*
X51396900Y-44996101D01*
X51396900Y-46837599D01*
X51396901Y-46837600D01*
X51855911Y-46837600D01*
X52136502Y-46800658D01*
X52136516Y-46800655D01*
X52409870Y-46727410D01*
X52409878Y-46727407D01*
X52671344Y-46619105D01*
X52671346Y-46619104D01*
X52916445Y-46477597D01*
X52916448Y-46477595D01*
X53140978Y-46305307D01*
X53341107Y-46105178D01*
X53513395Y-45880648D01*
X53513397Y-45880645D01*
X53654904Y-45635546D01*
X53654905Y-45635544D01*
X53763207Y-45374078D01*
X53763210Y-45374070D01*
X53836455Y-45100716D01*
X53836458Y-45100702D01*
X53843213Y-45049396D01*
X56888755Y-45049396D01*
X56888755Y-45049403D01*
X56906444Y-45172438D01*
X56906445Y-45172440D01*
X56906446Y-45172445D01*
X56958087Y-45285522D01*
X57039493Y-45379470D01*
X57144070Y-45446677D01*
X57144072Y-45446677D01*
X57144073Y-45446678D01*
X57263340Y-45481699D01*
X57263344Y-45481700D01*
X57263345Y-45481700D01*
X57387656Y-45481700D01*
X57387659Y-45481699D01*
X57447292Y-45464188D01*
X57506930Y-45446677D01*
X57611507Y-45379470D01*
X57692913Y-45285522D01*
X57744554Y-45172445D01*
X57744555Y-45172440D01*
X57746327Y-45166408D01*
X57747978Y-45166892D01*
X57772786Y-45120591D01*
X57828607Y-45098244D01*
X57831395Y-45098200D01*
X60997126Y-45098200D01*
X61044648Y-45112154D01*
X61106770Y-45152077D01*
X61106772Y-45152077D01*
X61106773Y-45152078D01*
X61226040Y-45187099D01*
X61226044Y-45187100D01*
X61226045Y-45187100D01*
X61350356Y-45187100D01*
X61350359Y-45187099D01*
X61420824Y-45166408D01*
X61469630Y-45152077D01*
X61574207Y-45084870D01*
X61655613Y-44990922D01*
X61707254Y-44877845D01*
X61724945Y-44754800D01*
X61724945Y-44754796D01*
X61707255Y-44631761D01*
X61707254Y-44631760D01*
X61707254Y-44631755D01*
X61655613Y-44518678D01*
X61574207Y-44424730D01*
X61574205Y-44424729D01*
X61574203Y-44424727D01*
X61469632Y-44357524D01*
X61469626Y-44357521D01*
X61350359Y-44322500D01*
X61350355Y-44322500D01*
X61226045Y-44322500D01*
X61226040Y-44322500D01*
X61106773Y-44357521D01*
X61106767Y-44357524D01*
X61044648Y-44397446D01*
X60997126Y-44411400D01*
X57574891Y-44411400D01*
X57487557Y-44434800D01*
X57487548Y-44434804D01*
X57484658Y-44436473D01*
X57484657Y-44436472D01*
X57409248Y-44480010D01*
X57409242Y-44480015D01*
X57291685Y-44597572D01*
X57254296Y-44619756D01*
X57144073Y-44652121D01*
X57144067Y-44652124D01*
X57039496Y-44719327D01*
X57039491Y-44719331D01*
X56958086Y-44813279D01*
X56906446Y-44926355D01*
X56906444Y-44926361D01*
X56888755Y-45049396D01*
X53843213Y-45049396D01*
X53850230Y-44996100D01*
X51396901Y-44996100D01*
X51396900Y-44996101D01*
X50761900Y-44996101D01*
X50761899Y-44996100D01*
X48308570Y-44996100D01*
X45466000Y-44996100D01*
X45466000Y-44361100D01*
X48308570Y-44361100D01*
X50761899Y-44361100D01*
X50761900Y-44361099D01*
X50761900Y-42519601D01*
X51396900Y-42519601D01*
X51396900Y-44361099D01*
X51396901Y-44361100D01*
X53850229Y-44361100D01*
X53836458Y-44256497D01*
X53836455Y-44256483D01*
X53763210Y-43983129D01*
X53763207Y-43983121D01*
X53654905Y-43721655D01*
X53654904Y-43721653D01*
X53513397Y-43476554D01*
X53513395Y-43476551D01*
X53341107Y-43252021D01*
X53140978Y-43051892D01*
X52916448Y-42879604D01*
X52916445Y-42879602D01*
X52671346Y-42738095D01*
X52671344Y-42738094D01*
X52409878Y-42629792D01*
X52409870Y-42629789D01*
X52136516Y-42556544D01*
X52136502Y-42556541D01*
X51855911Y-42519600D01*
X51396901Y-42519600D01*
X51396900Y-42519601D01*
X50761900Y-42519601D01*
X50761899Y-42519600D01*
X50302889Y-42519600D01*
X50022297Y-42556541D01*
X50022283Y-42556544D01*
X49748929Y-42629789D01*
X49748921Y-42629792D01*
X49487455Y-42738094D01*
X49487453Y-42738095D01*
X49242354Y-42879602D01*
X49242351Y-42879604D01*
X49017821Y-43051892D01*
X48817692Y-43252021D01*
X48645404Y-43476551D01*
X48645402Y-43476554D01*
X48503895Y-43721653D01*
X48503894Y-43721655D01*
X48395592Y-43983121D01*
X48395589Y-43983129D01*
X48322344Y-44256483D01*
X48322341Y-44256497D01*
X48308570Y-44361100D01*
X45466000Y-44361100D01*
X45466000Y-40093901D01*
X46177200Y-40093901D01*
X46177200Y-40130349D01*
X46208471Y-40327790D01*
X46270242Y-40517904D01*
X46360999Y-40696026D01*
X46478498Y-40857749D01*
X46619850Y-40999101D01*
X46711624Y-41065779D01*
X46745247Y-41115627D01*
X46738962Y-41175425D01*
X46695710Y-41217193D01*
X46679831Y-41221773D01*
X46679877Y-41221928D01*
X46554573Y-41258721D01*
X46554567Y-41258724D01*
X46449996Y-41325927D01*
X46449991Y-41325931D01*
X46368586Y-41419879D01*
X46316946Y-41532955D01*
X46316944Y-41532961D01*
X46299255Y-41655996D01*
X46299255Y-41656003D01*
X46316944Y-41779038D01*
X46316946Y-41779044D01*
X46360075Y-41873485D01*
X46364840Y-41933423D01*
X46360075Y-41946515D01*
X46316946Y-42040955D01*
X46316944Y-42040961D01*
X46299255Y-42163996D01*
X46299255Y-42164003D01*
X46316944Y-42287038D01*
X46316945Y-42287043D01*
X46316946Y-42287045D01*
X46368587Y-42400122D01*
X46449993Y-42494070D01*
X46554570Y-42561277D01*
X46554572Y-42561277D01*
X46554573Y-42561278D01*
X46673840Y-42596299D01*
X46673844Y-42596300D01*
X46673845Y-42596300D01*
X46798156Y-42596300D01*
X46798159Y-42596299D01*
X46852999Y-42580196D01*
X46917430Y-42561277D01*
X46942478Y-42545179D01*
X47001125Y-42531932D01*
X47037520Y-42545178D01*
X47062567Y-42561275D01*
X47062570Y-42561277D01*
X47181840Y-42596299D01*
X47181844Y-42596300D01*
X47181845Y-42596300D01*
X47306156Y-42596300D01*
X47306159Y-42596299D01*
X47365792Y-42578788D01*
X47425430Y-42561277D01*
X47530007Y-42494070D01*
X47611413Y-42400122D01*
X47663054Y-42287045D01*
X47680745Y-42164000D01*
X47680745Y-42163996D01*
X47663055Y-42040961D01*
X47663054Y-42040960D01*
X47663054Y-42040955D01*
X47619923Y-41946514D01*
X47615159Y-41886577D01*
X47619924Y-41873485D01*
X47663054Y-41779045D01*
X47672533Y-41713117D01*
X47680745Y-41656003D01*
X47680745Y-41655996D01*
X47663055Y-41532961D01*
X47663054Y-41532960D01*
X47663054Y-41532955D01*
X47611413Y-41419878D01*
X47611409Y-41419873D01*
X47608586Y-41415481D01*
X47595335Y-41356832D01*
X47622883Y-41303387D01*
X47668779Y-41281135D01*
X47744589Y-41269128D01*
X47934704Y-41207357D01*
X48112826Y-41116600D01*
X48274549Y-40999101D01*
X48415901Y-40857749D01*
X48533400Y-40696026D01*
X48624157Y-40517904D01*
X48685928Y-40327790D01*
X48717200Y-40130349D01*
X48717200Y-40093901D01*
X48717199Y-40093900D01*
X46177201Y-40093900D01*
X46177200Y-40093901D01*
X45466000Y-40093901D01*
X45466000Y-39422450D01*
X46177200Y-39422450D01*
X46177200Y-39458899D01*
X46177201Y-39458900D01*
X47129699Y-39458900D01*
X47129700Y-39458899D01*
X47764700Y-39458899D01*
X47764701Y-39458900D01*
X48717199Y-39458900D01*
X48717200Y-39458899D01*
X48717200Y-39422450D01*
X48685928Y-39225009D01*
X48624157Y-39034895D01*
X48533400Y-38856773D01*
X48415901Y-38695050D01*
X48274549Y-38553698D01*
X48112825Y-38436199D01*
X48112826Y-38436199D01*
X47934706Y-38345443D01*
X47764700Y-38290205D01*
X47764700Y-39458899D01*
X47129700Y-39458899D01*
X47129700Y-38290205D01*
X46959693Y-38345443D01*
X46781573Y-38436199D01*
X46619850Y-38553698D01*
X46478498Y-38695050D01*
X46360999Y-38856773D01*
X46270242Y-39034895D01*
X46208471Y-39225009D01*
X46177200Y-39422450D01*
X45466000Y-39422450D01*
X45466000Y-36156901D01*
X46177200Y-36156901D01*
X46177200Y-36193349D01*
X46208471Y-36390790D01*
X46270242Y-36580904D01*
X46360999Y-36759026D01*
X46478498Y-36920749D01*
X46619850Y-37062101D01*
X46781574Y-37179600D01*
X46781573Y-37179600D01*
X46959695Y-37270357D01*
X47129699Y-37325594D01*
X47129700Y-37325594D01*
X47129700Y-36156901D01*
X47129699Y-36156900D01*
X46177201Y-36156900D01*
X46177200Y-36156901D01*
X45466000Y-36156901D01*
X45466000Y-35485450D01*
X46177200Y-35485450D01*
X46177200Y-35521899D01*
X46177201Y-35521900D01*
X47129699Y-35521900D01*
X47129700Y-35521899D01*
X47764700Y-35521899D01*
X47764701Y-35521900D01*
X48717199Y-35521900D01*
X48717200Y-35521899D01*
X48717200Y-35485450D01*
X48685928Y-35288009D01*
X48624157Y-35097895D01*
X48533400Y-34919773D01*
X48415901Y-34758050D01*
X48274549Y-34616698D01*
X48112825Y-34499199D01*
X48112826Y-34499199D01*
X47934706Y-34408443D01*
X47764700Y-34353205D01*
X47764700Y-35521899D01*
X47129700Y-35521899D01*
X47129700Y-34353205D01*
X46959693Y-34408443D01*
X46781573Y-34499199D01*
X46619850Y-34616698D01*
X46478498Y-34758050D01*
X46360999Y-34919773D01*
X46270242Y-35097895D01*
X46208471Y-35288009D01*
X46177200Y-35485450D01*
X45466000Y-35485450D01*
X45466000Y-29484750D01*
X45475280Y-29445440D01*
X45488246Y-29419507D01*
X45706898Y-28982204D01*
X45746204Y-28942898D01*
X46209440Y-28711280D01*
X46248750Y-28702000D01*
X49949749Y-28702000D01*
X50006250Y-28722565D01*
G37*
%TD.AperFunction*%
%TA.AperFunction,Conductor*%
G36*
X93739533Y-28706511D02*
G01*
X94446306Y-28942102D01*
X94493404Y-28979477D01*
X94501898Y-28997694D01*
X94737489Y-29704467D01*
X94742000Y-29732263D01*
X94742000Y-45953250D01*
X94732720Y-45992560D01*
X94247103Y-46963793D01*
X94207793Y-47003103D01*
X93236560Y-47488720D01*
X93197250Y-47498000D01*
X91985853Y-47498000D01*
X91929352Y-47477435D01*
X91926066Y-47474536D01*
X91925671Y-47474170D01*
X91925670Y-47474168D01*
X91906040Y-47455954D01*
X91903698Y-47453698D01*
X91694000Y-47244000D01*
X91440000Y-46990000D01*
X91439999Y-46990000D01*
X90929149Y-46990000D01*
X90922532Y-46989506D01*
X90922515Y-46989745D01*
X90919246Y-46989499D01*
X90919241Y-46989499D01*
X90919235Y-46989499D01*
X90804995Y-46989500D01*
X89323600Y-46989500D01*
X89267099Y-46968935D01*
X89237035Y-46916864D01*
X89235700Y-46901600D01*
X89235700Y-37679079D01*
X89235699Y-37679061D01*
X89232138Y-37636220D01*
X89227344Y-37607586D01*
X89223961Y-37592942D01*
X89231277Y-37533263D01*
X89269696Y-37494836D01*
X89438887Y-37408629D01*
X89600675Y-37291083D01*
X89742083Y-37149675D01*
X89859629Y-36987887D01*
X89950419Y-36809703D01*
X90012216Y-36619510D01*
X90043500Y-36421991D01*
X90043500Y-36222009D01*
X90012216Y-36024490D01*
X89950419Y-35834297D01*
X89859629Y-35656113D01*
X89824180Y-35607322D01*
X89807607Y-35549524D01*
X89832063Y-35494596D01*
X89833077Y-35493562D01*
X90198788Y-35127853D01*
X90232002Y-35070324D01*
X90278061Y-35031677D01*
X90338188Y-35031677D01*
X90370280Y-35052121D01*
X91031159Y-35713000D01*
X91056570Y-35767494D01*
X91047324Y-35815060D01*
X91024580Y-35859697D01*
X90962783Y-36049892D01*
X90945842Y-36156856D01*
X90931500Y-36247409D01*
X90931500Y-36447391D01*
X90938609Y-36492276D01*
X90962783Y-36644907D01*
X91016328Y-36809705D01*
X91024581Y-36835103D01*
X91115371Y-37013287D01*
X91115373Y-37013290D01*
X91185822Y-37110255D01*
X91232917Y-37175075D01*
X91374325Y-37316483D01*
X91536113Y-37434029D01*
X91714297Y-37524819D01*
X91904490Y-37586616D01*
X92102009Y-37617900D01*
X92102010Y-37617900D01*
X92809990Y-37617900D01*
X92809991Y-37617900D01*
X93007510Y-37586616D01*
X93197703Y-37524819D01*
X93375887Y-37434029D01*
X93537675Y-37316483D01*
X93679083Y-37175075D01*
X93796629Y-37013287D01*
X93887419Y-36835103D01*
X93949216Y-36644910D01*
X93980500Y-36447391D01*
X93980500Y-36247409D01*
X93949216Y-36049890D01*
X93887419Y-35859697D01*
X93796629Y-35681513D01*
X93679083Y-35519725D01*
X93537675Y-35378317D01*
X93427229Y-35298073D01*
X93375890Y-35260773D01*
X93375889Y-35260772D01*
X93375887Y-35260771D01*
X93197703Y-35169981D01*
X93197701Y-35169980D01*
X93197698Y-35169979D01*
X93007507Y-35108183D01*
X92847135Y-35082783D01*
X92809991Y-35076900D01*
X92102009Y-35076900D01*
X92064865Y-35082783D01*
X91904492Y-35108183D01*
X91714297Y-35169980D01*
X91602354Y-35227018D01*
X91542675Y-35234345D01*
X91500294Y-35210853D01*
X91144623Y-34855182D01*
X91119212Y-34800688D01*
X91134775Y-34742610D01*
X91157944Y-34719940D01*
X91244624Y-34662023D01*
X91254454Y-34647309D01*
X90841744Y-34234598D01*
X90816333Y-34180104D01*
X90815999Y-34172455D01*
X90815999Y-34072353D01*
X90836564Y-34015854D01*
X90841745Y-34010200D01*
X90924000Y-33927946D01*
X91254454Y-33597490D01*
X91255086Y-33591081D01*
X91243635Y-33544276D01*
X91257927Y-33505013D01*
X91290769Y-33455864D01*
X91339259Y-33420311D01*
X91363854Y-33416800D01*
X91387286Y-33416800D01*
X91443787Y-33437365D01*
X91449625Y-33443627D01*
X91449974Y-33443279D01*
X91454863Y-33448168D01*
X91454865Y-33448171D01*
X91498293Y-33491599D01*
X91523704Y-33546092D01*
X91508141Y-33604170D01*
X91498293Y-33615908D01*
X91455272Y-33658928D01*
X91398612Y-33770130D01*
X91387867Y-33837977D01*
X91358717Y-33890565D01*
X91345038Y-33895815D01*
X91118454Y-34122399D01*
X91315499Y-34319444D01*
X91318641Y-34318143D01*
X91378710Y-34315520D01*
X91426413Y-34352123D01*
X91430598Y-34359446D01*
X91455271Y-34407870D01*
X91543527Y-34496126D01*
X91654730Y-34552787D01*
X91668000Y-34554887D01*
X91668000Y-34313401D01*
X92228000Y-34313401D01*
X92228000Y-34554887D01*
X92241269Y-34552787D01*
X92352472Y-34496126D01*
X92440728Y-34407870D01*
X92488863Y-34313400D01*
X92228001Y-34313400D01*
X92228000Y-34313401D01*
X91668000Y-34313401D01*
X91668000Y-33841300D01*
X91688565Y-33784799D01*
X91740636Y-33754735D01*
X91755900Y-33753400D01*
X92488863Y-33753400D01*
X92488863Y-33753399D01*
X92440728Y-33658929D01*
X92397707Y-33615908D01*
X92372296Y-33561414D01*
X92387859Y-33503336D01*
X92397701Y-33491604D01*
X92441135Y-33448171D01*
X92497868Y-33336827D01*
X92512500Y-33244445D01*
X92512499Y-32902356D01*
X92497868Y-32809973D01*
X92497868Y-32809972D01*
X92441137Y-32698632D01*
X92441136Y-32698631D01*
X92441135Y-32698629D01*
X92352771Y-32610265D01*
X92352768Y-32610263D01*
X92352767Y-32610262D01*
X92241427Y-32553531D01*
X92161675Y-32540900D01*
X92149045Y-32538900D01*
X92149044Y-32538900D01*
X91746957Y-32538900D01*
X91746955Y-32538901D01*
X91654573Y-32553531D01*
X91654572Y-32553531D01*
X91543232Y-32610262D01*
X91543229Y-32610264D01*
X91543229Y-32610265D01*
X91466052Y-32687441D01*
X91411560Y-32712852D01*
X91353482Y-32697289D01*
X91318994Y-32648036D01*
X91315999Y-32625286D01*
X91315999Y-32602831D01*
X91310194Y-32573649D01*
X91301234Y-32528599D01*
X91244984Y-32444416D01*
X91160801Y-32388166D01*
X91152717Y-32386558D01*
X91084245Y-32372938D01*
X91032842Y-32341746D01*
X91013515Y-32284809D01*
X91035307Y-32228770D01*
X91053863Y-32212787D01*
X91141807Y-32156270D01*
X91223213Y-32062322D01*
X91274854Y-31949245D01*
X91276370Y-31938702D01*
X91292545Y-31826203D01*
X91292545Y-31826196D01*
X91274855Y-31703157D01*
X91273119Y-31697246D01*
X91276929Y-31637240D01*
X91318420Y-31593722D01*
X91378176Y-31587055D01*
X91409123Y-31601366D01*
X91536100Y-31693620D01*
X91536103Y-31693622D01*
X91536113Y-31693629D01*
X91714297Y-31784419D01*
X91904490Y-31846216D01*
X92102009Y-31877500D01*
X92102010Y-31877500D01*
X92809990Y-31877500D01*
X92809991Y-31877500D01*
X93007510Y-31846216D01*
X93197703Y-31784419D01*
X93375887Y-31693629D01*
X93537675Y-31576083D01*
X93679083Y-31434675D01*
X93796629Y-31272887D01*
X93887419Y-31094703D01*
X93949216Y-30904510D01*
X93980500Y-30706991D01*
X93980500Y-30507009D01*
X93949216Y-30309490D01*
X93887419Y-30119297D01*
X93796629Y-29941113D01*
X93679083Y-29779325D01*
X93537675Y-29637917D01*
X93375887Y-29520371D01*
X93197703Y-29429581D01*
X93197701Y-29429580D01*
X93197698Y-29429579D01*
X93007507Y-29367783D01*
X92826476Y-29339111D01*
X92809991Y-29336500D01*
X92102009Y-29336500D01*
X92085524Y-29339111D01*
X91904492Y-29367783D01*
X91714301Y-29429579D01*
X91714294Y-29429582D01*
X91536115Y-29520370D01*
X91536109Y-29520373D01*
X91374324Y-29637917D01*
X91232917Y-29779324D01*
X91115373Y-29941109D01*
X91115370Y-29941115D01*
X91024582Y-30119294D01*
X91024577Y-30119304D01*
X91009809Y-30164761D01*
X90972792Y-30212143D01*
X90926211Y-30225500D01*
X90917855Y-30225500D01*
X90861354Y-30204935D01*
X90841732Y-30181552D01*
X90805476Y-30118753D01*
X90734447Y-30047724D01*
X90647454Y-29997499D01*
X90647453Y-29997498D01*
X90647450Y-29997497D01*
X90550425Y-29971500D01*
X90449975Y-29971500D01*
X90352949Y-29997497D01*
X90265951Y-30047725D01*
X90194925Y-30118751D01*
X90194606Y-30119304D01*
X90158667Y-30181550D01*
X90112609Y-30220199D01*
X90082545Y-30225500D01*
X90048789Y-30225500D01*
X89992288Y-30204935D01*
X89965191Y-30164761D01*
X89950422Y-30119304D01*
X89950419Y-30119299D01*
X89950419Y-30119297D01*
X89859629Y-29941113D01*
X89742083Y-29779325D01*
X89600675Y-29637917D01*
X89438887Y-29520371D01*
X89260703Y-29429581D01*
X89260701Y-29429580D01*
X89260698Y-29429579D01*
X89070507Y-29367783D01*
X88889476Y-29339111D01*
X88872991Y-29336500D01*
X88165009Y-29336500D01*
X88148524Y-29339111D01*
X87967492Y-29367783D01*
X87777301Y-29429579D01*
X87777294Y-29429582D01*
X87599115Y-29520370D01*
X87599109Y-29520373D01*
X87437324Y-29637917D01*
X87295917Y-29779324D01*
X87178373Y-29941109D01*
X87178370Y-29941115D01*
X87087582Y-30119294D01*
X87087579Y-30119301D01*
X87025783Y-30309492D01*
X87000206Y-30470981D01*
X86994500Y-30507009D01*
X86994500Y-30706991D01*
X86999932Y-30741290D01*
X87025783Y-30904507D01*
X87066866Y-31030950D01*
X87087581Y-31094703D01*
X87178371Y-31272887D01*
X87178373Y-31272890D01*
X87235045Y-31350892D01*
X87295917Y-31434675D01*
X87437325Y-31576083D01*
X87599113Y-31693629D01*
X87777297Y-31784419D01*
X87967490Y-31846216D01*
X88165009Y-31877500D01*
X88165010Y-31877500D01*
X88872990Y-31877500D01*
X88872991Y-31877500D01*
X89070510Y-31846216D01*
X89260703Y-31784419D01*
X89438887Y-31693629D01*
X89600675Y-31576083D01*
X89742083Y-31434675D01*
X89859629Y-31272887D01*
X89950419Y-31094703D01*
X89965191Y-31049239D01*
X90002208Y-31001857D01*
X90048789Y-30988500D01*
X90449975Y-30988500D01*
X90550425Y-30988500D01*
X90926211Y-30988500D01*
X90982712Y-31009065D01*
X91009809Y-31049239D01*
X91024577Y-31094695D01*
X91024581Y-31094703D01*
X91115371Y-31272887D01*
X91115376Y-31272894D01*
X91115378Y-31272897D01*
X91129060Y-31291730D01*
X91145633Y-31349528D01*
X91121176Y-31404456D01*
X91067134Y-31430814D01*
X91033182Y-31427734D01*
X90917959Y-31393900D01*
X90917955Y-31393900D01*
X90793645Y-31393900D01*
X90793640Y-31393900D01*
X90674373Y-31428921D01*
X90674367Y-31428924D01*
X90569796Y-31496127D01*
X90569791Y-31496131D01*
X90488386Y-31590079D01*
X90436746Y-31703154D01*
X90431428Y-31740136D01*
X90406578Y-31789778D01*
X90149211Y-32047146D01*
X90104002Y-32125449D01*
X90103505Y-32127307D01*
X90080600Y-32212791D01*
X90080600Y-32285500D01*
X90060035Y-32342001D01*
X90007964Y-32372065D01*
X89992700Y-32373400D01*
X89761431Y-32373400D01*
X89687199Y-32388166D01*
X89603017Y-32444415D01*
X89603014Y-32444418D01*
X89546765Y-32528598D01*
X89538482Y-32570247D01*
X89507291Y-32621651D01*
X89452271Y-32641000D01*
X88331591Y-32641000D01*
X88305332Y-32648036D01*
X88244251Y-32664402D01*
X88242088Y-32665652D01*
X88242085Y-32665654D01*
X88165945Y-32709613D01*
X84766226Y-36109331D01*
X84728837Y-36131515D01*
X84654568Y-36153323D01*
X84654567Y-36153323D01*
X84549996Y-36220527D01*
X84549991Y-36220531D01*
X84468586Y-36314479D01*
X84416946Y-36427555D01*
X84416944Y-36427561D01*
X84399255Y-36550596D01*
X84399255Y-36550603D01*
X84416944Y-36673638D01*
X84416945Y-36673643D01*
X84416946Y-36673645D01*
X84468587Y-36786722D01*
X84549993Y-36880670D01*
X84654570Y-36947877D01*
X84654572Y-36947877D01*
X84654573Y-36947878D01*
X84773840Y-36982899D01*
X84773844Y-36982900D01*
X84773845Y-36982900D01*
X84898156Y-36982900D01*
X84898159Y-36982899D01*
X84960750Y-36964520D01*
X85017430Y-36947877D01*
X85122007Y-36880670D01*
X85203413Y-36786722D01*
X85255054Y-36673645D01*
X85264635Y-36606998D01*
X85289483Y-36557356D01*
X88493296Y-33353545D01*
X88547790Y-33328134D01*
X88555451Y-33327800D01*
X89452271Y-33327800D01*
X89508772Y-33348365D01*
X89538482Y-33398552D01*
X89546766Y-33440201D01*
X89588952Y-33503336D01*
X89589773Y-33504564D01*
X89604065Y-33562968D01*
X89589773Y-33602234D01*
X89546766Y-33666598D01*
X89532000Y-33740834D01*
X89532000Y-34503968D01*
X89539802Y-34543189D01*
X89546766Y-34578201D01*
X89565785Y-34606665D01*
X89580600Y-34655500D01*
X89580600Y-34738348D01*
X89560035Y-34794849D01*
X89554855Y-34800503D01*
X89261109Y-35094249D01*
X89206615Y-35119660D01*
X89171792Y-35115692D01*
X89070507Y-35082783D01*
X88901870Y-35056074D01*
X88872991Y-35051500D01*
X88165009Y-35051500D01*
X88136130Y-35056074D01*
X87967492Y-35082783D01*
X87777301Y-35144579D01*
X87777294Y-35144582D01*
X87599115Y-35235370D01*
X87599109Y-35235373D01*
X87437324Y-35352917D01*
X87295917Y-35494324D01*
X87178373Y-35656109D01*
X87178370Y-35656115D01*
X87087582Y-35834294D01*
X87087579Y-35834301D01*
X87025783Y-36024492D01*
X86994500Y-36222009D01*
X86994500Y-36421990D01*
X87025783Y-36619507D01*
X87087184Y-36808483D01*
X87087581Y-36809703D01*
X87178371Y-36987887D01*
X87178373Y-36987890D01*
X87178375Y-36987893D01*
X87235075Y-37065933D01*
X87251649Y-37123731D01*
X87227193Y-37178660D01*
X87173151Y-37205018D01*
X87163963Y-37205500D01*
X80090982Y-37205500D01*
X80034481Y-37184935D01*
X80004417Y-37132864D01*
X80014858Y-37073650D01*
X80060918Y-37035001D01*
X80063820Y-37034002D01*
X80084379Y-37027321D01*
X80116703Y-37016819D01*
X80294887Y-36926029D01*
X80456675Y-36808483D01*
X80598083Y-36667075D01*
X80715629Y-36505287D01*
X80806419Y-36327103D01*
X80868216Y-36136910D01*
X80899500Y-35939391D01*
X80899500Y-35872710D01*
X80920065Y-35816209D01*
X80972136Y-35786145D01*
X81012164Y-35788371D01*
X81014645Y-35789100D01*
X81014649Y-35789100D01*
X81138956Y-35789100D01*
X81138959Y-35789099D01*
X81212537Y-35767494D01*
X81258230Y-35754077D01*
X81362807Y-35686870D01*
X81444213Y-35592922D01*
X81495854Y-35479845D01*
X81504891Y-35416994D01*
X81513545Y-35356803D01*
X81513545Y-35356796D01*
X81495855Y-35233761D01*
X81495854Y-35233760D01*
X81495854Y-35233755D01*
X81444213Y-35120678D01*
X81444212Y-35120677D01*
X81444212Y-35120676D01*
X81444209Y-35120672D01*
X81441667Y-35117738D01*
X81420211Y-35061569D01*
X81420200Y-35060179D01*
X81420200Y-34944490D01*
X81418316Y-34937459D01*
X81403295Y-34881399D01*
X81396798Y-34857152D01*
X81351588Y-34778847D01*
X80651180Y-34078439D01*
X80625770Y-34023947D01*
X80641333Y-33965869D01*
X80690586Y-33931381D01*
X80727086Y-33929468D01*
X80748755Y-33932900D01*
X81150844Y-33932899D01*
X81243227Y-33918268D01*
X81354571Y-33861535D01*
X81388440Y-33827665D01*
X81442932Y-33802255D01*
X81501010Y-33817816D01*
X81534192Y-33862658D01*
X81550842Y-33913904D01*
X81641599Y-34092026D01*
X81759098Y-34253749D01*
X81900450Y-34395101D01*
X82062174Y-34512600D01*
X82062173Y-34512600D01*
X82240295Y-34603357D01*
X82430409Y-34665128D01*
X82627851Y-34696400D01*
X82664299Y-34696400D01*
X82664300Y-34696399D01*
X82664300Y-33743901D01*
X83299300Y-33743901D01*
X83299300Y-34696399D01*
X83299301Y-34696400D01*
X83335749Y-34696400D01*
X83533190Y-34665128D01*
X83723304Y-34603357D01*
X83901426Y-34512600D01*
X84063149Y-34395101D01*
X84204501Y-34253749D01*
X84322000Y-34092026D01*
X84412756Y-33913906D01*
X84467995Y-33743900D01*
X83299301Y-33743900D01*
X83299300Y-33743901D01*
X82664300Y-33743901D01*
X82664300Y-32156401D01*
X83299300Y-32156401D01*
X83299300Y-33108899D01*
X83299301Y-33108900D01*
X84467994Y-33108900D01*
X84412756Y-32938893D01*
X84322000Y-32760773D01*
X84204501Y-32599050D01*
X84063149Y-32457698D01*
X83901425Y-32340199D01*
X83901426Y-32340199D01*
X83723304Y-32249442D01*
X83533190Y-32187671D01*
X83335749Y-32156400D01*
X83299301Y-32156400D01*
X83299300Y-32156401D01*
X82664300Y-32156401D01*
X82664299Y-32156400D01*
X82627851Y-32156400D01*
X82430409Y-32187671D01*
X82240295Y-32249442D01*
X82062173Y-32340199D01*
X81900450Y-32457698D01*
X81759098Y-32599050D01*
X81759096Y-32599053D01*
X81651131Y-32747653D01*
X81601284Y-32781275D01*
X81541486Y-32774990D01*
X81505072Y-32741914D01*
X81490663Y-32718400D01*
X80375052Y-32718400D01*
X80326217Y-32703586D01*
X80320905Y-32700037D01*
X80246815Y-32685300D01*
X80052801Y-32685300D01*
X80052800Y-32685301D01*
X80052800Y-33020500D01*
X80032235Y-33077001D01*
X79980164Y-33107065D01*
X79964900Y-33108400D01*
X79915700Y-33108400D01*
X79859199Y-33087835D01*
X79829135Y-33035764D01*
X79827800Y-33020500D01*
X79827800Y-32685301D01*
X79827799Y-32685300D01*
X79803100Y-32685300D01*
X79746599Y-32664735D01*
X79716535Y-32612664D01*
X79715200Y-32597400D01*
X79715200Y-32386558D01*
X79735765Y-32330057D01*
X79787836Y-32299993D01*
X79789350Y-32299740D01*
X79926510Y-32278016D01*
X80116703Y-32216219D01*
X80294006Y-32125877D01*
X80353683Y-32118550D01*
X80404110Y-32151297D01*
X80408857Y-32158269D01*
X80408937Y-32158400D01*
X80669799Y-32158400D01*
X80669800Y-32158399D01*
X81229800Y-32158399D01*
X81229801Y-32158400D01*
X81490663Y-32158400D01*
X81490663Y-32158399D01*
X81442528Y-32063929D01*
X81354271Y-31975672D01*
X81243071Y-31919014D01*
X81229800Y-31916911D01*
X81229800Y-32158399D01*
X80669800Y-32158399D01*
X80669800Y-31916911D01*
X80664719Y-31912572D01*
X80635110Y-31860240D01*
X80646066Y-31801120D01*
X80650685Y-31794074D01*
X80715629Y-31704687D01*
X80806419Y-31526503D01*
X80868216Y-31336310D01*
X80899500Y-31138791D01*
X80899500Y-30938809D01*
X80868216Y-30741290D01*
X80806419Y-30551097D01*
X80715629Y-30372913D01*
X80598083Y-30211125D01*
X80456675Y-30069717D01*
X80294887Y-29952171D01*
X80116703Y-29861381D01*
X80116701Y-29861380D01*
X80116698Y-29861379D01*
X79926507Y-29799583D01*
X79774777Y-29775551D01*
X79728991Y-29768300D01*
X79021009Y-29768300D01*
X78983838Y-29774187D01*
X78823492Y-29799583D01*
X78633301Y-29861379D01*
X78633294Y-29861382D01*
X78455115Y-29952170D01*
X78455109Y-29952173D01*
X78293324Y-30069717D01*
X78151917Y-30211124D01*
X78034373Y-30372909D01*
X78034370Y-30372915D01*
X77943582Y-30551094D01*
X77943579Y-30551101D01*
X77881783Y-30741292D01*
X77850500Y-30938809D01*
X77850500Y-31138790D01*
X77881783Y-31336307D01*
X77939457Y-31513813D01*
X77943581Y-31526503D01*
X78034371Y-31704687D01*
X78034373Y-31704690D01*
X78041640Y-31714692D01*
X78151917Y-31866475D01*
X78293325Y-32007883D01*
X78455113Y-32125429D01*
X78633297Y-32216219D01*
X78823490Y-32278016D01*
X78827139Y-32278594D01*
X78879731Y-32307737D01*
X78901285Y-32363868D01*
X78881717Y-32420721D01*
X78830549Y-32451624D01*
X78799641Y-32457772D01*
X78749067Y-32491565D01*
X78749064Y-32491568D01*
X78715271Y-32542141D01*
X78706400Y-32586743D01*
X78706400Y-32673382D01*
X78685835Y-32729883D01*
X78633764Y-32759947D01*
X78574551Y-32749506D01*
X78501105Y-32707102D01*
X78438589Y-32690351D01*
X78415707Y-32684220D01*
X78415706Y-32684220D01*
X77844407Y-32684220D01*
X77755993Y-32684220D01*
X77737946Y-32689055D01*
X77670594Y-32707102D01*
X77594025Y-32751309D01*
X77393490Y-32951845D01*
X77338996Y-32977256D01*
X77331335Y-32977590D01*
X76720267Y-32977590D01*
X76631853Y-32977590D01*
X76613806Y-32982425D01*
X76546454Y-33000472D01*
X76469885Y-33044679D01*
X72431444Y-37083119D01*
X70688200Y-37109400D01*
X70688200Y-37552890D01*
X70687214Y-37530310D01*
X70687213Y-37530307D01*
X70687213Y-37530290D01*
X70685878Y-37515026D01*
X70684645Y-37503762D01*
X70652097Y-37407883D01*
X70622033Y-37355812D01*
X70572618Y-37294242D01*
X70486056Y-37241715D01*
X70486054Y-37241714D01*
X70486052Y-37241713D01*
X70486053Y-37241713D01*
X70442580Y-37225891D01*
X70429555Y-37221150D01*
X70340800Y-37205500D01*
X69632464Y-37205500D01*
X69627323Y-37205704D01*
X69611893Y-37206316D01*
X69598842Y-37207354D01*
X69598013Y-37207420D01*
X69598010Y-37207420D01*
X69598001Y-37207421D01*
X69588794Y-37208318D01*
X69588786Y-37208320D01*
X69492405Y-37239340D01*
X69439865Y-37268573D01*
X69369917Y-37325401D01*
X69369915Y-37325403D01*
X69365556Y-37330434D01*
X69362995Y-37333389D01*
X69344091Y-37349767D01*
X69323553Y-37362966D01*
X69300801Y-37373358D01*
X69289084Y-37376799D01*
X69289078Y-37376801D01*
X69277370Y-37380239D01*
X69252604Y-37383800D01*
X69228194Y-37383800D01*
X69203429Y-37380239D01*
X69180005Y-37373361D01*
X69157245Y-37362966D01*
X69136704Y-37349764D01*
X69117803Y-37333387D01*
X69115119Y-37330291D01*
X69110878Y-37325396D01*
X69096786Y-37310381D01*
X69086862Y-37300614D01*
X69080154Y-37294242D01*
X69080153Y-37294241D01*
X69004938Y-37248600D01*
X68996229Y-37243315D01*
X68958595Y-37196423D01*
X68959907Y-37136311D01*
X68988432Y-37098348D01*
X69565528Y-36657040D01*
X71017977Y-35546342D01*
X71018035Y-35546298D01*
X71018035Y-35546297D01*
X71018103Y-35546246D01*
X71021571Y-35543616D01*
X71021595Y-35543647D01*
X71023927Y-35541731D01*
X71025426Y-35540647D01*
X71041816Y-35528113D01*
X71075499Y-35497300D01*
X71128027Y-35410739D01*
X71147948Y-35356010D01*
X71154487Y-35318925D01*
X71184549Y-35266856D01*
X71213889Y-35250593D01*
X71263898Y-35234345D01*
X71328295Y-35213422D01*
X71328297Y-35213420D01*
X71328303Y-35213419D01*
X71506487Y-35122629D01*
X71668275Y-35005083D01*
X71809683Y-34863675D01*
X71927229Y-34701887D01*
X71948065Y-34660993D01*
X71992039Y-34619988D01*
X72026384Y-34613000D01*
X72081140Y-34613000D01*
X72087033Y-34613198D01*
X72091739Y-34613514D01*
X72091741Y-34613513D01*
X72091742Y-34613514D01*
X72091807Y-34613506D01*
X72101234Y-34613000D01*
X72133039Y-34613000D01*
X72143664Y-34607913D01*
X72192410Y-34602657D01*
X72249784Y-34584671D01*
X72329792Y-34543189D01*
X73020615Y-34014914D01*
X73043378Y-33995319D01*
X73057978Y-33981200D01*
X73070953Y-33967713D01*
X73122459Y-33880540D01*
X73142358Y-33823801D01*
X73156963Y-33734867D01*
X73133981Y-31781364D01*
X73133981Y-31781361D01*
X73133103Y-31706809D01*
X73131998Y-31685751D01*
X73130670Y-31671522D01*
X73129573Y-31661762D01*
X73097025Y-31565883D01*
X73066961Y-31513812D01*
X73017546Y-31452242D01*
X72930984Y-31399715D01*
X72930982Y-31399714D01*
X72930980Y-31399713D01*
X72930981Y-31399713D01*
X72880810Y-31381453D01*
X72874483Y-31379150D01*
X72785728Y-31363500D01*
X72023938Y-31363500D01*
X71967437Y-31342935D01*
X71937373Y-31290864D01*
X71945618Y-31235694D01*
X72017556Y-31094506D01*
X72072795Y-30924500D01*
X69100405Y-30924500D01*
X69155643Y-31094506D01*
X69227582Y-31235694D01*
X69234909Y-31295373D01*
X69202161Y-31345800D01*
X69149262Y-31363500D01*
X68086938Y-31363500D01*
X68030437Y-31342935D01*
X68000373Y-31290864D01*
X68008618Y-31235694D01*
X68080556Y-31094506D01*
X68135795Y-30924500D01*
X66420000Y-30924500D01*
X66363499Y-30903935D01*
X66333435Y-30851864D01*
X66332100Y-30836600D01*
X66332100Y-29337001D01*
X66967100Y-29337001D01*
X66967100Y-30289499D01*
X66967101Y-30289500D01*
X68135794Y-30289500D01*
X69100405Y-30289500D01*
X70269099Y-30289500D01*
X70269100Y-30289499D01*
X70269100Y-29337001D01*
X70904100Y-29337001D01*
X70904100Y-30289499D01*
X70904101Y-30289500D01*
X72072794Y-30289500D01*
X72017556Y-30119493D01*
X71926800Y-29941373D01*
X71809301Y-29779650D01*
X71667949Y-29638298D01*
X71506225Y-29520799D01*
X71506226Y-29520799D01*
X71328104Y-29430042D01*
X71137990Y-29368271D01*
X70940549Y-29337000D01*
X70904101Y-29337000D01*
X70904100Y-29337001D01*
X70269100Y-29337001D01*
X70269099Y-29337000D01*
X70232651Y-29337000D01*
X70035209Y-29368271D01*
X69845095Y-29430042D01*
X69666973Y-29520799D01*
X69505250Y-29638298D01*
X69363898Y-29779650D01*
X69246399Y-29941373D01*
X69155643Y-30119493D01*
X69100405Y-30289500D01*
X68135794Y-30289500D01*
X68080556Y-30119493D01*
X67989800Y-29941373D01*
X67872301Y-29779650D01*
X67730949Y-29638298D01*
X67569225Y-29520799D01*
X67569226Y-29520799D01*
X67391104Y-29430042D01*
X67200990Y-29368271D01*
X67003549Y-29337000D01*
X66967101Y-29337000D01*
X66967100Y-29337001D01*
X66332100Y-29337001D01*
X66332099Y-29337000D01*
X66295651Y-29337000D01*
X66098209Y-29368271D01*
X65908095Y-29430042D01*
X65729973Y-29520799D01*
X65568250Y-29638298D01*
X65426898Y-29779650D01*
X65309399Y-29941373D01*
X65218641Y-30119496D01*
X65218641Y-30119498D01*
X65201381Y-30172617D01*
X65164363Y-30219997D01*
X65105549Y-30232497D01*
X65102521Y-30232018D01*
X65037200Y-30220500D01*
X64417453Y-30220500D01*
X64374295Y-30225035D01*
X64363505Y-30226169D01*
X64327753Y-30233767D01*
X64286604Y-30246150D01*
X64286602Y-30246151D01*
X64201443Y-30300924D01*
X64201439Y-30300927D01*
X64158193Y-30342688D01*
X64158187Y-30342695D01*
X64110400Y-30405535D01*
X64079800Y-30504070D01*
X64043403Y-30551929D01*
X63995856Y-30565900D01*
X63830549Y-30565900D01*
X63830546Y-30565901D01*
X63739340Y-30580345D01*
X63739337Y-30580346D01*
X63629406Y-30636358D01*
X63629404Y-30636359D01*
X63629404Y-30636360D01*
X63548353Y-30717410D01*
X63493861Y-30742821D01*
X63435783Y-30727258D01*
X63424051Y-30717415D01*
X63342996Y-30636360D01*
X63342993Y-30636358D01*
X63233060Y-30580345D01*
X63233061Y-30580345D01*
X63156298Y-30568187D01*
X63141853Y-30565900D01*
X63141852Y-30565900D01*
X62923751Y-30565900D01*
X62867250Y-30545335D01*
X62861596Y-30540155D01*
X62405645Y-30084204D01*
X62380234Y-30029710D01*
X62379900Y-30022049D01*
X62379900Y-29603001D01*
X62363549Y-29520799D01*
X62360147Y-29503694D01*
X62360146Y-29503692D01*
X62356833Y-29495692D01*
X62359030Y-29494781D01*
X62347530Y-29447810D01*
X62354952Y-29420854D01*
X62395054Y-29333045D01*
X62404199Y-29269442D01*
X62412745Y-29210003D01*
X62412745Y-29209996D01*
X62395055Y-29086961D01*
X62395053Y-29086952D01*
X62386496Y-29068216D01*
X62381730Y-29008278D01*
X62416606Y-28959300D01*
X62466452Y-28943800D01*
X72338349Y-28943800D01*
X72394850Y-28964365D01*
X72400504Y-28969545D01*
X73209460Y-29778501D01*
X73234871Y-29832995D01*
X73219308Y-29891073D01*
X73218419Y-29892321D01*
X73182972Y-29941110D01*
X73182970Y-29941115D01*
X73092182Y-30119294D01*
X73092179Y-30119301D01*
X73030383Y-30309492D01*
X73004806Y-30470981D01*
X72999100Y-30507009D01*
X72999100Y-30706991D01*
X73004532Y-30741290D01*
X73030383Y-30904507D01*
X73071466Y-31030950D01*
X73092181Y-31094703D01*
X73182971Y-31272887D01*
X73182973Y-31272890D01*
X73239645Y-31350892D01*
X73300517Y-31434675D01*
X73441925Y-31576083D01*
X73603713Y-31693629D01*
X73781897Y-31784419D01*
X73972090Y-31846216D01*
X74169609Y-31877500D01*
X74169610Y-31877500D01*
X74877590Y-31877500D01*
X74877591Y-31877500D01*
X75075110Y-31846216D01*
X75265303Y-31784419D01*
X75443487Y-31693629D01*
X75605275Y-31576083D01*
X75746683Y-31434675D01*
X75864229Y-31272887D01*
X75955019Y-31094703D01*
X76016816Y-30904510D01*
X76048100Y-30706991D01*
X76048100Y-30507009D01*
X76016816Y-30309490D01*
X75955019Y-30119297D01*
X75864229Y-29941113D01*
X75746683Y-29779325D01*
X75605275Y-29637917D01*
X75443487Y-29520371D01*
X75265303Y-29429581D01*
X75265301Y-29429580D01*
X75265298Y-29429579D01*
X75075107Y-29367783D01*
X74894076Y-29339111D01*
X74877591Y-29336500D01*
X74169609Y-29336500D01*
X74153124Y-29339111D01*
X73972092Y-29367783D01*
X73870807Y-29400692D01*
X73810716Y-29398593D01*
X73781490Y-29379249D01*
X73254296Y-28852055D01*
X73228885Y-28797561D01*
X73244448Y-28739483D01*
X73293701Y-28704995D01*
X73316451Y-28702000D01*
X93711737Y-28702000D01*
X93739533Y-28706511D01*
G37*
%TD.AperFunction*%
%TA.AperFunction,Conductor*%
G36*
X76236969Y-46566759D02*
G01*
X76260395Y-46573637D01*
X76283150Y-46584030D01*
X76303692Y-46597232D01*
X76322599Y-46613615D01*
X76338586Y-46632065D01*
X76352109Y-46653107D01*
X76362255Y-46675321D01*
X76369302Y-46699321D01*
X76372777Y-46723486D01*
X76372777Y-46748507D01*
X76363474Y-46813214D01*
X76361003Y-46824797D01*
X76358883Y-46832233D01*
X76358883Y-46832234D01*
X76352275Y-46884008D01*
X76352275Y-46884013D01*
X76352275Y-46884014D01*
X76352309Y-46901427D01*
X76331857Y-46957968D01*
X76279845Y-46988134D01*
X76264410Y-46989500D01*
X76135104Y-46989500D01*
X76078603Y-46968935D01*
X76048539Y-46916864D01*
X76047481Y-46908568D01*
X76042387Y-46844518D01*
X76042387Y-46844515D01*
X76042387Y-46844514D01*
X76040557Y-46837465D01*
X76038636Y-46827903D01*
X76034718Y-46800655D01*
X76027220Y-46748504D01*
X76027220Y-46723493D01*
X76030696Y-46699321D01*
X76037742Y-46675325D01*
X76047888Y-46653107D01*
X76061411Y-46632065D01*
X76077399Y-46613613D01*
X76096303Y-46597232D01*
X76116849Y-46584028D01*
X76139606Y-46573637D01*
X76163029Y-46566760D01*
X76187791Y-46563200D01*
X76212211Y-46563200D01*
X76236969Y-46566759D01*
G37*
%TD.AperFunction*%
%TA.AperFunction,Conductor*%
G36*
X74532871Y-38812882D02*
G01*
X74528526Y-38813238D01*
X74518637Y-38814239D01*
X74518632Y-38814240D01*
X74422413Y-38845737D01*
X74422407Y-38845739D01*
X74370011Y-38875234D01*
X74369999Y-38875242D01*
X74307908Y-38923972D01*
X74302771Y-38929703D01*
X74301074Y-38928182D01*
X74261994Y-38958842D01*
X74201900Y-38956863D01*
X74193237Y-38952823D01*
X74070414Y-38887172D01*
X74070413Y-38887171D01*
X74070410Y-38887170D01*
X73869233Y-38826144D01*
X73869228Y-38826143D01*
X73869227Y-38826143D01*
X73717508Y-38811200D01*
X74541781Y-38811200D01*
X74532871Y-38812882D01*
G37*
%TD.AperFunction*%
%TA.AperFunction,Conductor*%
G36*
X73450773Y-38826143D02*
G01*
X73450771Y-38826143D01*
X73450766Y-38826144D01*
X73249587Y-38887171D01*
X73249581Y-38887173D01*
X73238293Y-38893207D01*
X73178770Y-38901703D01*
X73134705Y-38877840D01*
X73068065Y-38811200D01*
X73602492Y-38811200D01*
X73450773Y-38826143D01*
G37*
%TD.AperFunction*%
%TA.AperFunction,Conductor*%
G36*
X77387836Y-33946575D02*
G01*
X77393490Y-33951755D01*
X77594026Y-34152291D01*
X77670594Y-34196497D01*
X77755993Y-34219380D01*
X77755994Y-34219380D01*
X78415706Y-34219380D01*
X78415707Y-34219380D01*
X78501106Y-34196497D01*
X78574554Y-34154092D01*
X78633764Y-34143652D01*
X78685835Y-34173716D01*
X78706400Y-34230216D01*
X78706400Y-34316857D01*
X78714872Y-34359446D01*
X78715272Y-34361458D01*
X78749066Y-34412034D01*
X78755425Y-34416283D01*
X78806840Y-34450638D01*
X78805930Y-34451999D01*
X78843158Y-34486106D01*
X78851012Y-34545718D01*
X78818711Y-34596432D01*
X78792357Y-34610299D01*
X78633298Y-34661980D01*
X78633294Y-34661982D01*
X78455115Y-34752770D01*
X78455109Y-34752773D01*
X78293324Y-34870317D01*
X78151917Y-35011724D01*
X78034373Y-35173509D01*
X78034370Y-35173515D01*
X77943582Y-35351694D01*
X77943579Y-35351701D01*
X77881783Y-35541892D01*
X77852125Y-35729150D01*
X77850500Y-35739409D01*
X77850500Y-35939391D01*
X77853587Y-35958879D01*
X77881783Y-36136907D01*
X77943110Y-36325655D01*
X77943581Y-36327103D01*
X78034371Y-36505287D01*
X78151917Y-36667075D01*
X78293325Y-36808483D01*
X78455113Y-36926029D01*
X78633297Y-37016819D01*
X78648649Y-37021807D01*
X78686180Y-37034002D01*
X78733561Y-37071020D01*
X78746063Y-37129833D01*
X78717835Y-37182922D01*
X78662086Y-37205446D01*
X78659018Y-37205500D01*
X75816980Y-37205500D01*
X75807965Y-37206157D01*
X75779317Y-37208247D01*
X75779312Y-37208247D01*
X75754081Y-37211949D01*
X75728138Y-37217117D01*
X75728134Y-37217118D01*
X75636699Y-37260608D01*
X75588484Y-37296529D01*
X75526664Y-37362102D01*
X75742800Y-37033200D01*
X73793244Y-37062590D01*
X74433845Y-36421990D01*
X75981299Y-34874536D01*
X76035790Y-34849127D01*
X76090218Y-34862267D01*
X76094420Y-34864907D01*
X76094429Y-34864912D01*
X76213313Y-34906511D01*
X76213323Y-34906513D01*
X76338482Y-34920615D01*
X76338485Y-34920615D01*
X76338488Y-34920615D01*
X76463646Y-34906513D01*
X76463649Y-34906512D01*
X76463652Y-34906512D01*
X76463653Y-34906511D01*
X76463656Y-34906511D01*
X76582540Y-34864912D01*
X76582539Y-34864912D01*
X76582543Y-34864911D01*
X76689196Y-34797897D01*
X76690104Y-34796988D01*
X76690112Y-34796984D01*
X76690111Y-34796983D01*
X76739836Y-34747259D01*
X76779776Y-34707319D01*
X76779784Y-34707307D01*
X76799462Y-34687629D01*
X76799532Y-34687571D01*
X76804798Y-34682303D01*
X76804801Y-34682302D01*
X76816635Y-34670464D01*
X76816718Y-34670425D01*
X76842423Y-34644713D01*
X76886949Y-34600175D01*
X76953949Y-34493517D01*
X76995538Y-34374625D01*
X77009630Y-34249460D01*
X76995520Y-34124297D01*
X76984226Y-34092026D01*
X76967050Y-34042945D01*
X76967797Y-33982823D01*
X77007015Y-33937246D01*
X77050016Y-33926010D01*
X77331335Y-33926010D01*
X77387836Y-33946575D01*
G37*
%TD.AperFunction*%
%TA.AperFunction,Conductor*%
G36*
X62424599Y-33751181D02*
G01*
X62468034Y-33792758D01*
X62477100Y-33831633D01*
X62477100Y-33845247D01*
X62477101Y-33845253D01*
X62491545Y-33936459D01*
X62491546Y-33936462D01*
X62545801Y-34042945D01*
X62547560Y-34046396D01*
X62634804Y-34133640D01*
X62744738Y-34189654D01*
X62835947Y-34204100D01*
X63152600Y-34204099D01*
X63209101Y-34224664D01*
X63239165Y-34276735D01*
X63240500Y-34291999D01*
X63240500Y-35482406D01*
X63219935Y-35538907D01*
X63167864Y-35568971D01*
X63145355Y-35569183D01*
X63145294Y-35569971D01*
X63141853Y-35569700D01*
X63141852Y-35569700D01*
X62923751Y-35569700D01*
X62867250Y-35549135D01*
X62861596Y-35543955D01*
X62647698Y-35330057D01*
X62425053Y-35107412D01*
X62423846Y-35106715D01*
X62423305Y-35106071D01*
X62420484Y-35103906D01*
X62420964Y-35103280D01*
X62385199Y-35060653D01*
X62379900Y-35030594D01*
X62379900Y-34632201D01*
X62377756Y-34621424D01*
X62360147Y-34532894D01*
X62303894Y-34448706D01*
X62242779Y-34407870D01*
X62219705Y-34392452D01*
X62145195Y-34377632D01*
X62120400Y-34372700D01*
X60970400Y-34372700D01*
X60970386Y-34372700D01*
X60920043Y-34377632D01*
X60920033Y-34377635D01*
X60856795Y-34403752D01*
X60796722Y-34406312D01*
X60774409Y-34395595D01*
X60769706Y-34392453D01*
X60769701Y-34392452D01*
X60670400Y-34372700D01*
X60670398Y-34372700D01*
X60601700Y-34372700D01*
X60545199Y-34352135D01*
X60515135Y-34300064D01*
X60513800Y-34284800D01*
X60513800Y-33965000D01*
X60534365Y-33908499D01*
X60586436Y-33878435D01*
X60601700Y-33877100D01*
X60670399Y-33877100D01*
X60670400Y-33877100D01*
X60721292Y-33872061D01*
X60746629Y-33861535D01*
X60783797Y-33846094D01*
X60843865Y-33843407D01*
X60866355Y-33854181D01*
X60871092Y-33857346D01*
X60871094Y-33857347D01*
X60970400Y-33877100D01*
X60970402Y-33877100D01*
X62120398Y-33877100D01*
X62120400Y-33877100D01*
X62219706Y-33857347D01*
X62303894Y-33801094D01*
X62316115Y-33782803D01*
X62364600Y-33747250D01*
X62424599Y-33751181D01*
G37*
%TD.AperFunction*%
%TA.AperFunction,Conductor*%
G36*
X60707999Y-28722565D02*
G01*
X60738063Y-28774636D01*
X60727622Y-28833850D01*
X60699020Y-28863846D01*
X60673996Y-28879927D01*
X60673991Y-28879931D01*
X60592586Y-28973879D01*
X60540946Y-29086955D01*
X60540944Y-29086961D01*
X60523255Y-29209996D01*
X60523255Y-29210003D01*
X60528012Y-29243091D01*
X60515697Y-29301944D01*
X60468434Y-29339111D01*
X60441007Y-29343500D01*
X59670400Y-29343500D01*
X59642138Y-29349121D01*
X59571094Y-29363252D01*
X59486907Y-29419505D01*
X59486905Y-29419507D01*
X59430652Y-29503694D01*
X59410900Y-29603001D01*
X59410900Y-29921700D01*
X59390335Y-29978201D01*
X59338264Y-30008265D01*
X59323000Y-30009600D01*
X59207026Y-30009600D01*
X59150525Y-29989035D01*
X59140596Y-29979262D01*
X59133870Y-29971500D01*
X59112407Y-29946730D01*
X59112404Y-29946728D01*
X59112403Y-29946727D01*
X59007832Y-29879524D01*
X59007826Y-29879521D01*
X58888559Y-29844500D01*
X58888555Y-29844500D01*
X58764245Y-29844500D01*
X58764240Y-29844500D01*
X58644973Y-29879521D01*
X58644967Y-29879524D01*
X58540396Y-29946727D01*
X58540391Y-29946731D01*
X58458986Y-30040679D01*
X58407346Y-30153755D01*
X58407344Y-30153761D01*
X58389655Y-30276796D01*
X58389655Y-30276803D01*
X58407344Y-30399838D01*
X58407345Y-30399843D01*
X58407346Y-30399845D01*
X58448443Y-30489834D01*
X58458987Y-30512922D01*
X58461526Y-30515852D01*
X58482989Y-30572018D01*
X58483000Y-30573419D01*
X58483000Y-30577019D01*
X58462435Y-30633520D01*
X58435010Y-30655336D01*
X58422407Y-30661758D01*
X58422405Y-30661759D01*
X58422404Y-30661759D01*
X58422404Y-30661760D01*
X58341353Y-30742810D01*
X58286861Y-30768221D01*
X58228783Y-30752658D01*
X58217051Y-30742815D01*
X58135996Y-30661760D01*
X58135993Y-30661758D01*
X58026060Y-30605745D01*
X58026061Y-30605745D01*
X57959792Y-30595250D01*
X57934853Y-30591300D01*
X57934851Y-30591300D01*
X57603549Y-30591300D01*
X57603546Y-30591301D01*
X57512340Y-30605745D01*
X57512337Y-30605746D01*
X57402405Y-30661759D01*
X57402402Y-30661760D01*
X57388853Y-30675310D01*
X57334359Y-30700720D01*
X57276281Y-30685156D01*
X57264547Y-30675310D01*
X57250997Y-30661760D01*
X57250994Y-30661759D01*
X57217999Y-30644947D01*
X57141062Y-30605746D01*
X57141061Y-30605745D01*
X57074792Y-30595250D01*
X57049853Y-30591300D01*
X57049851Y-30591300D01*
X56718549Y-30591300D01*
X56718546Y-30591301D01*
X56627340Y-30605745D01*
X56627337Y-30605746D01*
X56517406Y-30661758D01*
X56517404Y-30661759D01*
X56517404Y-30661760D01*
X56436353Y-30742810D01*
X56381861Y-30768221D01*
X56323783Y-30752658D01*
X56312051Y-30742815D01*
X56230996Y-30661760D01*
X56230993Y-30661758D01*
X56226104Y-30656869D01*
X56228037Y-30654935D01*
X56200605Y-30614238D01*
X56198000Y-30592999D01*
X56198000Y-30522619D01*
X56218565Y-30466118D01*
X56219474Y-30465052D01*
X56222013Y-30462122D01*
X56273654Y-30349045D01*
X56278707Y-30313900D01*
X56291345Y-30226003D01*
X56291345Y-30225996D01*
X56273655Y-30102961D01*
X56273654Y-30102960D01*
X56273654Y-30102955D01*
X56222013Y-29989878D01*
X56140607Y-29895930D01*
X56140605Y-29895929D01*
X56140603Y-29895927D01*
X56036032Y-29828724D01*
X56036026Y-29828721D01*
X55916759Y-29793700D01*
X55916755Y-29793700D01*
X55792445Y-29793700D01*
X55792440Y-29793700D01*
X55673173Y-29828721D01*
X55673167Y-29828724D01*
X55568596Y-29895927D01*
X55568591Y-29895931D01*
X55496386Y-29979262D01*
X55443844Y-30008496D01*
X55429955Y-30009600D01*
X55355800Y-30009600D01*
X55299299Y-29989035D01*
X55269235Y-29936964D01*
X55267900Y-29921700D01*
X55267900Y-29603001D01*
X55251549Y-29520799D01*
X55248147Y-29503694D01*
X55248146Y-29503692D01*
X55244834Y-29495695D01*
X55247713Y-29494502D01*
X55236719Y-29449582D01*
X55244140Y-29422632D01*
X55285054Y-29333045D01*
X55294199Y-29269442D01*
X55302745Y-29210003D01*
X55302745Y-29209996D01*
X55285055Y-29086961D01*
X55285054Y-29086960D01*
X55285054Y-29086955D01*
X55233413Y-28973878D01*
X55152007Y-28879930D01*
X55152005Y-28879929D01*
X55152003Y-28879927D01*
X55126980Y-28863846D01*
X55090566Y-28815999D01*
X55093427Y-28755940D01*
X55134224Y-28711771D01*
X55174502Y-28702000D01*
X60651498Y-28702000D01*
X60707999Y-28722565D01*
G37*
%TD.AperFunction*%
%TD*%
%TA.AperFunction,Conductor*%
%TO.N,/Block Diagram/VBATT*%
G36*
X68904837Y-37485565D02*
G01*
X68914761Y-37495332D01*
X68954393Y-37541070D01*
X69058970Y-37608277D01*
X69058972Y-37608277D01*
X69058973Y-37608278D01*
X69178240Y-37643299D01*
X69178244Y-37643300D01*
X69178245Y-37643300D01*
X69302556Y-37643300D01*
X69302559Y-37643299D01*
X69362192Y-37625788D01*
X69421830Y-37608277D01*
X69526407Y-37541070D01*
X69566034Y-37495337D01*
X69618575Y-37466104D01*
X69632464Y-37465000D01*
X70340800Y-37465000D01*
X70397301Y-37485565D01*
X70427365Y-37537636D01*
X70428700Y-37552900D01*
X70428700Y-38722800D01*
X70408135Y-38779301D01*
X70356064Y-38809365D01*
X70340801Y-38810700D01*
X70282132Y-38810700D01*
X70207899Y-38825466D01*
X70123717Y-38881715D01*
X70123714Y-38881718D01*
X70067465Y-38965898D01*
X70052700Y-39040134D01*
X70052700Y-40715868D01*
X70065626Y-40780853D01*
X70067466Y-40790101D01*
X70123716Y-40874284D01*
X70151905Y-40893119D01*
X70207898Y-40930534D01*
X70218461Y-40932635D01*
X70282133Y-40945300D01*
X71957866Y-40945299D01*
X71957868Y-40945299D01*
X71976361Y-40941620D01*
X72032101Y-40930534D01*
X72116284Y-40874284D01*
X72172534Y-40790101D01*
X72187300Y-40715867D01*
X72187299Y-39321974D01*
X72207864Y-39265474D01*
X72213044Y-39259821D01*
X72277026Y-39195837D01*
X72327845Y-39145019D01*
X72382338Y-39119609D01*
X72440416Y-39135170D01*
X72452154Y-39145019D01*
X72659840Y-39352705D01*
X72685251Y-39407199D01*
X72675207Y-39456293D01*
X72669173Y-39467581D01*
X72669171Y-39467587D01*
X72608144Y-39668766D01*
X72608143Y-39668771D01*
X72608143Y-39668773D01*
X72587536Y-39878000D01*
X72599484Y-39999315D01*
X72608144Y-40087233D01*
X72669170Y-40288409D01*
X72669170Y-40288410D01*
X72669171Y-40288413D01*
X72669172Y-40288414D01*
X72768279Y-40473829D01*
X72901653Y-40636347D01*
X73064171Y-40769721D01*
X73249586Y-40868828D01*
X73249588Y-40868828D01*
X73249589Y-40868829D01*
X73267565Y-40874282D01*
X73450773Y-40929857D01*
X73660000Y-40950464D01*
X73869227Y-40929857D01*
X74070414Y-40868828D01*
X74255829Y-40769721D01*
X74418347Y-40636347D01*
X74551721Y-40473829D01*
X74650828Y-40288414D01*
X74711857Y-40087227D01*
X74732464Y-39878000D01*
X75127536Y-39878000D01*
X75139484Y-39999315D01*
X75148144Y-40087233D01*
X75209170Y-40288409D01*
X75209170Y-40288410D01*
X75209171Y-40288413D01*
X75209172Y-40288414D01*
X75308279Y-40473829D01*
X75441653Y-40636347D01*
X75604171Y-40769721D01*
X75789586Y-40868828D01*
X75789588Y-40868828D01*
X75789589Y-40868829D01*
X75807565Y-40874282D01*
X75990773Y-40929857D01*
X76200000Y-40950464D01*
X76409227Y-40929857D01*
X76610414Y-40868828D01*
X76795829Y-40769721D01*
X76958347Y-40636347D01*
X77091721Y-40473829D01*
X77190828Y-40288414D01*
X77251857Y-40087227D01*
X77272464Y-39878000D01*
X77667536Y-39878000D01*
X77679484Y-39999315D01*
X77688144Y-40087233D01*
X77749170Y-40288409D01*
X77749170Y-40288410D01*
X77749171Y-40288413D01*
X77749172Y-40288414D01*
X77848279Y-40473829D01*
X77981653Y-40636347D01*
X78144171Y-40769721D01*
X78329586Y-40868828D01*
X78329588Y-40868828D01*
X78329589Y-40868829D01*
X78347565Y-40874282D01*
X78530773Y-40929857D01*
X78740000Y-40950464D01*
X78949227Y-40929857D01*
X79150414Y-40868828D01*
X79335829Y-40769721D01*
X79498347Y-40636347D01*
X79631721Y-40473829D01*
X79730828Y-40288414D01*
X79791857Y-40087227D01*
X79812464Y-39878000D01*
X80207536Y-39878000D01*
X80219484Y-39999315D01*
X80228144Y-40087233D01*
X80289170Y-40288409D01*
X80289170Y-40288410D01*
X80289171Y-40288413D01*
X80289172Y-40288414D01*
X80388279Y-40473829D01*
X80521653Y-40636347D01*
X80684171Y-40769721D01*
X80869586Y-40868828D01*
X80869588Y-40868828D01*
X80869589Y-40868829D01*
X80887565Y-40874282D01*
X81070773Y-40929857D01*
X81280000Y-40950464D01*
X81489227Y-40929857D01*
X81690414Y-40868828D01*
X81875829Y-40769721D01*
X82038347Y-40636347D01*
X82171721Y-40473829D01*
X82270828Y-40288414D01*
X82310469Y-40157734D01*
X82752700Y-40157734D01*
X82752700Y-41833468D01*
X82765626Y-41898453D01*
X82767466Y-41907701D01*
X82823716Y-41991884D01*
X82851905Y-42010719D01*
X82907898Y-42048134D01*
X82918461Y-42050235D01*
X82982133Y-42062900D01*
X84657866Y-42062899D01*
X84657868Y-42062899D01*
X84676361Y-42059220D01*
X84732101Y-42048134D01*
X84816284Y-41991884D01*
X84872534Y-41907701D01*
X84887300Y-41833467D01*
X84887299Y-40195501D01*
X85293201Y-40195501D01*
X85293201Y-40715818D01*
X85307937Y-40789906D01*
X85364075Y-40873922D01*
X85364077Y-40873924D01*
X85448094Y-40930062D01*
X85522181Y-40944799D01*
X86042498Y-40944799D01*
X86042500Y-40944798D01*
X86042500Y-40195501D01*
X86042499Y-40195500D01*
X85293202Y-40195500D01*
X85293201Y-40195501D01*
X84887299Y-40195501D01*
X84887299Y-40157734D01*
X84887299Y-40157733D01*
X84887299Y-40157731D01*
X84881293Y-40127536D01*
X84872534Y-40083499D01*
X84816284Y-39999316D01*
X84815898Y-39999058D01*
X84732101Y-39943065D01*
X84678992Y-39932502D01*
X84657867Y-39928300D01*
X84657865Y-39928300D01*
X82982131Y-39928300D01*
X82907899Y-39943066D01*
X82823717Y-39999315D01*
X82823714Y-39999318D01*
X82767465Y-40083498D01*
X82754801Y-40147170D01*
X82752701Y-40157731D01*
X82752700Y-40157734D01*
X82310469Y-40157734D01*
X82331857Y-40087227D01*
X82352464Y-39878000D01*
X82347194Y-39824496D01*
X85953600Y-39824496D01*
X85953600Y-39931504D01*
X85981295Y-40034865D01*
X86034799Y-40127536D01*
X86110464Y-40203201D01*
X86203135Y-40256705D01*
X86306496Y-40284400D01*
X86413504Y-40284400D01*
X86516865Y-40256705D01*
X86609536Y-40203201D01*
X86617236Y-40195501D01*
X86677500Y-40195501D01*
X86677500Y-40944798D01*
X86677501Y-40944799D01*
X87197818Y-40944799D01*
X87271906Y-40930062D01*
X87355922Y-40873924D01*
X87355924Y-40873922D01*
X87412062Y-40789905D01*
X87426800Y-40715815D01*
X87426800Y-40195501D01*
X87426799Y-40195500D01*
X86677501Y-40195500D01*
X86677500Y-40195501D01*
X86617236Y-40195501D01*
X86685201Y-40127536D01*
X86738705Y-40034865D01*
X86766400Y-39931504D01*
X86766400Y-39824496D01*
X86738705Y-39721135D01*
X86685201Y-39628464D01*
X86609536Y-39552799D01*
X86516865Y-39499295D01*
X86413504Y-39471600D01*
X86306496Y-39471600D01*
X86203135Y-39499295D01*
X86110464Y-39552799D01*
X86034799Y-39628464D01*
X85981295Y-39721135D01*
X85953600Y-39824496D01*
X82347194Y-39824496D01*
X82331857Y-39668773D01*
X82319629Y-39628464D01*
X82273694Y-39477034D01*
X82270828Y-39467586D01*
X82171721Y-39282171D01*
X82038347Y-39119653D01*
X81941513Y-39040184D01*
X85293200Y-39040184D01*
X85293200Y-39560499D01*
X85293201Y-39560500D01*
X86042499Y-39560500D01*
X86042500Y-39560499D01*
X86042500Y-38811201D01*
X86677500Y-38811201D01*
X86677500Y-39560499D01*
X86677501Y-39560500D01*
X87426798Y-39560500D01*
X87426799Y-39560499D01*
X87426799Y-39040181D01*
X87412062Y-38966093D01*
X87355924Y-38882077D01*
X87355922Y-38882075D01*
X87271905Y-38825937D01*
X87197815Y-38811200D01*
X86677501Y-38811200D01*
X86677500Y-38811201D01*
X86042500Y-38811201D01*
X86042499Y-38811200D01*
X85522181Y-38811200D01*
X85448093Y-38825937D01*
X85364077Y-38882075D01*
X85364075Y-38882077D01*
X85307937Y-38966094D01*
X85293200Y-39040184D01*
X81941513Y-39040184D01*
X81875829Y-38986279D01*
X81690414Y-38887172D01*
X81690413Y-38887171D01*
X81690410Y-38887170D01*
X81489233Y-38826144D01*
X81489228Y-38826143D01*
X81489227Y-38826143D01*
X81280000Y-38805536D01*
X81070773Y-38826143D01*
X81070771Y-38826143D01*
X81070766Y-38826144D01*
X80869590Y-38887170D01*
X80869589Y-38887170D01*
X80684170Y-38986279D01*
X80521655Y-39119651D01*
X80521651Y-39119655D01*
X80388279Y-39282170D01*
X80289170Y-39467589D01*
X80289170Y-39467590D01*
X80228144Y-39668766D01*
X80228143Y-39668771D01*
X80228143Y-39668773D01*
X80207536Y-39878000D01*
X79812464Y-39878000D01*
X79791857Y-39668773D01*
X79779629Y-39628464D01*
X79733694Y-39477034D01*
X79730828Y-39467586D01*
X79631721Y-39282171D01*
X79498347Y-39119653D01*
X79335829Y-38986279D01*
X79150414Y-38887172D01*
X79150413Y-38887171D01*
X79150410Y-38887170D01*
X78949233Y-38826144D01*
X78949228Y-38826143D01*
X78949227Y-38826143D01*
X78740000Y-38805536D01*
X78530773Y-38826143D01*
X78530771Y-38826143D01*
X78530766Y-38826144D01*
X78329590Y-38887170D01*
X78329589Y-38887170D01*
X78144170Y-38986279D01*
X77981655Y-39119651D01*
X77981651Y-39119655D01*
X77848279Y-39282170D01*
X77749170Y-39467589D01*
X77749170Y-39467590D01*
X77688144Y-39668766D01*
X77688143Y-39668771D01*
X77688143Y-39668773D01*
X77667536Y-39878000D01*
X77272464Y-39878000D01*
X77251857Y-39668773D01*
X77239629Y-39628464D01*
X77193694Y-39477034D01*
X77190828Y-39467586D01*
X77091721Y-39282171D01*
X76958347Y-39119653D01*
X76795829Y-38986279D01*
X76610414Y-38887172D01*
X76610413Y-38887171D01*
X76610410Y-38887170D01*
X76409233Y-38826144D01*
X76409228Y-38826143D01*
X76409227Y-38826143D01*
X76200000Y-38805536D01*
X75990773Y-38826143D01*
X75990771Y-38826143D01*
X75990766Y-38826144D01*
X75789590Y-38887170D01*
X75789589Y-38887170D01*
X75604170Y-38986279D01*
X75441655Y-39119651D01*
X75441651Y-39119655D01*
X75308279Y-39282170D01*
X75209170Y-39467589D01*
X75209170Y-39467590D01*
X75148144Y-39668766D01*
X75148143Y-39668771D01*
X75148143Y-39668773D01*
X75127536Y-39878000D01*
X74732464Y-39878000D01*
X74711857Y-39668773D01*
X74699629Y-39628464D01*
X74653694Y-39477034D01*
X74650828Y-39467586D01*
X74551721Y-39282171D01*
X74496071Y-39214361D01*
X74476125Y-39157641D01*
X74497305Y-39101368D01*
X74549701Y-39071874D01*
X74564020Y-39070700D01*
X74574397Y-39070700D01*
X74574400Y-39070700D01*
X74626976Y-39065318D01*
X74626978Y-39065317D01*
X74626980Y-39065317D01*
X74686483Y-39040133D01*
X74720221Y-39025854D01*
X74791266Y-38953712D01*
X75743522Y-37504625D01*
X75791737Y-37468703D01*
X75816980Y-37465000D01*
X87688644Y-37465000D01*
X87728550Y-37474581D01*
X87777297Y-37499419D01*
X87967490Y-37561216D01*
X88165009Y-37592500D01*
X88165010Y-37592500D01*
X88872988Y-37592500D01*
X88872991Y-37592500D01*
X88874535Y-37592255D01*
X88874986Y-37592342D01*
X88876434Y-37592229D01*
X88876465Y-37592630D01*
X88933557Y-37603716D01*
X88971406Y-37650436D01*
X88976200Y-37679070D01*
X88976200Y-46901600D01*
X88955635Y-46958101D01*
X88903564Y-46988165D01*
X88888300Y-46989500D01*
X76696252Y-46989500D01*
X76639751Y-46968935D01*
X76609687Y-46916864D01*
X76616295Y-46865084D01*
X76619054Y-46859045D01*
X76636745Y-46736000D01*
X76636745Y-46735996D01*
X76619055Y-46612961D01*
X76619054Y-46612960D01*
X76619054Y-46612955D01*
X76567413Y-46499878D01*
X76486007Y-46405930D01*
X76486005Y-46405929D01*
X76486003Y-46405927D01*
X76381432Y-46338724D01*
X76381426Y-46338721D01*
X76262159Y-46303700D01*
X76262155Y-46303700D01*
X76137845Y-46303700D01*
X76137840Y-46303700D01*
X76018573Y-46338721D01*
X76018567Y-46338724D01*
X75913996Y-46405927D01*
X75913991Y-46405931D01*
X75832586Y-46499879D01*
X75780946Y-46612955D01*
X75780944Y-46612961D01*
X75763255Y-46735996D01*
X75763255Y-46736003D01*
X75780944Y-46859038D01*
X75780945Y-46859044D01*
X75782364Y-46862150D01*
X75783704Y-46865084D01*
X75788470Y-46925021D01*
X75753594Y-46974000D01*
X75703748Y-46989500D01*
X62800500Y-46989500D01*
X62743999Y-46968935D01*
X62713935Y-46916864D01*
X62712600Y-46901600D01*
X62712600Y-43530213D01*
X64680600Y-43530213D01*
X64680600Y-43744187D01*
X64695683Y-43839423D01*
X64704780Y-43896862D01*
X64714072Y-43955527D01*
X64780194Y-44159029D01*
X64817869Y-44232971D01*
X64877336Y-44349682D01*
X65003107Y-44522790D01*
X65154409Y-44674092D01*
X65327517Y-44799863D01*
X65327519Y-44799864D01*
X65518171Y-44897006D01*
X65721673Y-44963128D01*
X65933013Y-44996600D01*
X65933015Y-44996600D01*
X66146985Y-44996600D01*
X66146987Y-44996600D01*
X66358327Y-44963128D01*
X66561829Y-44897006D01*
X66752481Y-44799864D01*
X66925590Y-44674093D01*
X67076893Y-44522790D01*
X67076893Y-44522789D01*
X67079335Y-44520348D01*
X67080674Y-44521687D01*
X67127480Y-44495160D01*
X67186609Y-44506074D01*
X67224889Y-44552441D01*
X67228870Y-44595593D01*
X67220600Y-44647811D01*
X67220600Y-44861785D01*
X67241951Y-44996599D01*
X67254072Y-45073127D01*
X67320194Y-45276629D01*
X67370514Y-45375388D01*
X67417336Y-45467282D01*
X67543107Y-45640390D01*
X67694409Y-45791692D01*
X67867517Y-45917463D01*
X67867519Y-45917464D01*
X68058171Y-46014606D01*
X68261673Y-46080728D01*
X68473013Y-46114200D01*
X68473015Y-46114200D01*
X68686985Y-46114200D01*
X68686987Y-46114200D01*
X68898327Y-46080728D01*
X69101829Y-46014606D01*
X69292481Y-45917464D01*
X69465590Y-45791693D01*
X69616893Y-45640390D01*
X69742664Y-45467281D01*
X69839806Y-45276629D01*
X69905928Y-45073127D01*
X69939400Y-44861787D01*
X69939400Y-44647813D01*
X69931129Y-44595592D01*
X69942602Y-44536572D01*
X69989329Y-44498733D01*
X70049447Y-44499782D01*
X70079790Y-44521222D01*
X70080665Y-44520348D01*
X70234409Y-44674092D01*
X70407517Y-44799863D01*
X70407519Y-44799864D01*
X70598171Y-44897006D01*
X70801673Y-44963128D01*
X71013013Y-44996600D01*
X71013015Y-44996600D01*
X71226985Y-44996600D01*
X71226987Y-44996600D01*
X71438327Y-44963128D01*
X71641829Y-44897006D01*
X71832481Y-44799864D01*
X72005590Y-44674093D01*
X72156893Y-44522790D01*
X72282664Y-44349681D01*
X72379806Y-44159029D01*
X72445928Y-43955527D01*
X72479400Y-43744187D01*
X72479400Y-43530213D01*
X79920600Y-43530213D01*
X79920600Y-43744187D01*
X79935683Y-43839423D01*
X79944780Y-43896862D01*
X79954072Y-43955527D01*
X80020194Y-44159029D01*
X80057869Y-44232971D01*
X80117336Y-44349682D01*
X80243107Y-44522790D01*
X80394409Y-44674092D01*
X80567517Y-44799863D01*
X80567519Y-44799864D01*
X80758171Y-44897006D01*
X80961673Y-44963128D01*
X81173013Y-44996600D01*
X81173015Y-44996600D01*
X81386985Y-44996600D01*
X81386987Y-44996600D01*
X81598327Y-44963128D01*
X81801829Y-44897006D01*
X81992481Y-44799864D01*
X82165590Y-44674093D01*
X82316893Y-44522790D01*
X82316893Y-44522789D01*
X82319335Y-44520348D01*
X82320674Y-44521687D01*
X82367480Y-44495160D01*
X82426609Y-44506074D01*
X82464889Y-44552441D01*
X82468870Y-44595593D01*
X82460600Y-44647811D01*
X82460600Y-44861785D01*
X82481951Y-44996599D01*
X82494072Y-45073127D01*
X82560194Y-45276629D01*
X82610514Y-45375388D01*
X82657336Y-45467282D01*
X82783107Y-45640390D01*
X82934409Y-45791692D01*
X83107517Y-45917463D01*
X83107519Y-45917464D01*
X83298171Y-46014606D01*
X83501673Y-46080728D01*
X83713013Y-46114200D01*
X83713015Y-46114200D01*
X83926985Y-46114200D01*
X83926987Y-46114200D01*
X84138327Y-46080728D01*
X84341829Y-46014606D01*
X84532481Y-45917464D01*
X84705590Y-45791693D01*
X84856893Y-45640390D01*
X84982664Y-45467281D01*
X85079806Y-45276629D01*
X85145928Y-45073127D01*
X85179400Y-44861787D01*
X85179400Y-44647813D01*
X85171129Y-44595592D01*
X85182602Y-44536572D01*
X85229329Y-44498733D01*
X85289447Y-44499782D01*
X85319790Y-44521222D01*
X85320665Y-44520348D01*
X85474409Y-44674092D01*
X85647517Y-44799863D01*
X85647519Y-44799864D01*
X85838171Y-44897006D01*
X86041673Y-44963128D01*
X86253013Y-44996600D01*
X86253015Y-44996600D01*
X86466985Y-44996600D01*
X86466987Y-44996600D01*
X86678327Y-44963128D01*
X86881829Y-44897006D01*
X87072481Y-44799864D01*
X87245590Y-44674093D01*
X87396893Y-44522790D01*
X87522664Y-44349681D01*
X87619806Y-44159029D01*
X87685928Y-43955527D01*
X87719400Y-43744187D01*
X87719400Y-43530213D01*
X87685928Y-43318873D01*
X87619806Y-43115371D01*
X87522664Y-42924719D01*
X87512166Y-42910270D01*
X87396892Y-42751609D01*
X87245590Y-42600307D01*
X87072482Y-42474536D01*
X86944450Y-42409301D01*
X86881829Y-42377394D01*
X86881826Y-42377393D01*
X86881824Y-42377392D01*
X86768661Y-42340623D01*
X86678327Y-42311272D01*
X86678325Y-42311271D01*
X86678323Y-42311271D01*
X86530758Y-42287900D01*
X86466987Y-42277800D01*
X86253013Y-42277800D01*
X86204024Y-42285558D01*
X86041676Y-42311271D01*
X85838175Y-42377392D01*
X85647517Y-42474536D01*
X85474409Y-42600307D01*
X85323107Y-42751609D01*
X85197336Y-42924717D01*
X85100192Y-43115375D01*
X85034071Y-43318876D01*
X85000600Y-43530214D01*
X85000600Y-43744187D01*
X85008870Y-43796406D01*
X84997396Y-43855428D01*
X84950668Y-43893266D01*
X84890550Y-43892216D01*
X84860212Y-43870774D01*
X84859335Y-43871652D01*
X84705590Y-43717907D01*
X84532482Y-43592136D01*
X84410950Y-43530213D01*
X84341829Y-43494994D01*
X84341826Y-43494993D01*
X84341824Y-43494992D01*
X84228661Y-43458223D01*
X84138327Y-43428872D01*
X84138325Y-43428871D01*
X84138323Y-43428871D01*
X83990758Y-43405500D01*
X83926987Y-43395400D01*
X83713013Y-43395400D01*
X83664024Y-43403158D01*
X83501676Y-43428871D01*
X83298175Y-43494992D01*
X83107517Y-43592136D01*
X82934409Y-43717907D01*
X82780665Y-43871652D01*
X82779353Y-43870340D01*
X82732377Y-43896862D01*
X82673267Y-43885852D01*
X82635063Y-43839423D01*
X82631129Y-43796407D01*
X82639400Y-43744187D01*
X82639400Y-43530213D01*
X82605928Y-43318873D01*
X82539806Y-43115371D01*
X82442664Y-42924719D01*
X82432166Y-42910270D01*
X82316892Y-42751609D01*
X82165590Y-42600307D01*
X81992482Y-42474536D01*
X81864450Y-42409301D01*
X81801829Y-42377394D01*
X81801826Y-42377393D01*
X81801824Y-42377392D01*
X81688661Y-42340623D01*
X81598327Y-42311272D01*
X81598325Y-42311271D01*
X81598323Y-42311271D01*
X81450758Y-42287900D01*
X81386987Y-42277800D01*
X81173013Y-42277800D01*
X81124024Y-42285558D01*
X80961676Y-42311271D01*
X80758175Y-42377392D01*
X80567517Y-42474536D01*
X80394409Y-42600307D01*
X80243107Y-42751609D01*
X80117336Y-42924717D01*
X80020192Y-43115375D01*
X79954071Y-43318876D01*
X79936650Y-43428872D01*
X79920600Y-43530213D01*
X72479400Y-43530213D01*
X72445928Y-43318873D01*
X72379806Y-43115371D01*
X72282664Y-42924719D01*
X72272166Y-42910270D01*
X72156892Y-42751609D01*
X72005590Y-42600307D01*
X71832482Y-42474536D01*
X71704450Y-42409301D01*
X71641829Y-42377394D01*
X71641826Y-42377393D01*
X71641824Y-42377392D01*
X71528661Y-42340623D01*
X71438327Y-42311272D01*
X71438325Y-42311271D01*
X71438323Y-42311271D01*
X71290758Y-42287900D01*
X71226987Y-42277800D01*
X71013013Y-42277800D01*
X70964024Y-42285558D01*
X70801676Y-42311271D01*
X70598175Y-42377392D01*
X70407517Y-42474536D01*
X70234409Y-42600307D01*
X70083107Y-42751609D01*
X69957336Y-42924717D01*
X69860192Y-43115375D01*
X69794071Y-43318876D01*
X69760600Y-43530214D01*
X69760600Y-43744187D01*
X69768870Y-43796406D01*
X69757396Y-43855428D01*
X69710668Y-43893266D01*
X69650550Y-43892216D01*
X69620212Y-43870774D01*
X69619335Y-43871652D01*
X69465590Y-43717907D01*
X69292482Y-43592136D01*
X69170950Y-43530213D01*
X69101829Y-43494994D01*
X69101826Y-43494993D01*
X69101824Y-43494992D01*
X68988661Y-43458223D01*
X68898327Y-43428872D01*
X68898325Y-43428871D01*
X68898323Y-43428871D01*
X68750758Y-43405500D01*
X68686987Y-43395400D01*
X68473013Y-43395400D01*
X68424024Y-43403158D01*
X68261676Y-43428871D01*
X68058175Y-43494992D01*
X67867517Y-43592136D01*
X67694409Y-43717907D01*
X67540665Y-43871652D01*
X67539353Y-43870340D01*
X67492377Y-43896862D01*
X67433267Y-43885852D01*
X67395063Y-43839423D01*
X67391129Y-43796407D01*
X67399400Y-43744187D01*
X67399400Y-43530213D01*
X67365928Y-43318873D01*
X67299806Y-43115371D01*
X67202664Y-42924719D01*
X67192166Y-42910270D01*
X67076892Y-42751609D01*
X66925590Y-42600307D01*
X66752482Y-42474536D01*
X66624450Y-42409301D01*
X66561829Y-42377394D01*
X66561826Y-42377393D01*
X66561824Y-42377392D01*
X66448661Y-42340623D01*
X66358327Y-42311272D01*
X66358325Y-42311271D01*
X66358323Y-42311271D01*
X66210758Y-42287900D01*
X66146987Y-42277800D01*
X65933013Y-42277800D01*
X65884024Y-42285558D01*
X65721676Y-42311271D01*
X65518175Y-42377392D01*
X65327517Y-42474536D01*
X65154409Y-42600307D01*
X65003107Y-42751609D01*
X64877336Y-42924717D01*
X64780192Y-43115375D01*
X64714071Y-43318876D01*
X64696650Y-43428872D01*
X64680600Y-43530213D01*
X62712600Y-43530213D01*
X62712600Y-40195501D01*
X64973201Y-40195501D01*
X64973201Y-40715818D01*
X64987937Y-40789906D01*
X65044075Y-40873922D01*
X65044077Y-40873924D01*
X65128094Y-40930062D01*
X65202181Y-40944799D01*
X65722498Y-40944799D01*
X65722500Y-40944798D01*
X65722500Y-40195501D01*
X65722499Y-40195500D01*
X64973202Y-40195500D01*
X64973201Y-40195501D01*
X62712600Y-40195501D01*
X62712600Y-39824496D01*
X65633600Y-39824496D01*
X65633600Y-39931504D01*
X65661295Y-40034865D01*
X65714799Y-40127536D01*
X65790464Y-40203201D01*
X65883135Y-40256705D01*
X65986496Y-40284400D01*
X66093504Y-40284400D01*
X66196865Y-40256705D01*
X66289536Y-40203201D01*
X66297236Y-40195501D01*
X66357500Y-40195501D01*
X66357500Y-40944798D01*
X66357501Y-40944799D01*
X66877818Y-40944799D01*
X66951906Y-40930062D01*
X67035922Y-40873924D01*
X67035924Y-40873922D01*
X67092062Y-40789905D01*
X67106800Y-40715815D01*
X67106800Y-40195501D01*
X67106799Y-40195500D01*
X66357501Y-40195500D01*
X66357500Y-40195501D01*
X66297236Y-40195501D01*
X66335003Y-40157734D01*
X67512700Y-40157734D01*
X67512700Y-41833468D01*
X67525626Y-41898453D01*
X67527466Y-41907701D01*
X67583716Y-41991884D01*
X67611905Y-42010719D01*
X67667898Y-42048134D01*
X67678461Y-42050235D01*
X67742133Y-42062900D01*
X69417866Y-42062899D01*
X69417868Y-42062899D01*
X69436361Y-42059220D01*
X69492101Y-42048134D01*
X69576284Y-41991884D01*
X69632534Y-41907701D01*
X69647300Y-41833467D01*
X69647299Y-40157734D01*
X69647299Y-40157733D01*
X69647299Y-40157731D01*
X69641293Y-40127536D01*
X69632534Y-40083499D01*
X69576284Y-39999316D01*
X69575898Y-39999058D01*
X69492101Y-39943065D01*
X69438992Y-39932502D01*
X69417867Y-39928300D01*
X69417865Y-39928300D01*
X67742131Y-39928300D01*
X67667899Y-39943066D01*
X67583717Y-39999315D01*
X67583714Y-39999318D01*
X67527465Y-40083498D01*
X67514801Y-40147170D01*
X67512701Y-40157731D01*
X67512700Y-40157734D01*
X66335003Y-40157734D01*
X66365201Y-40127536D01*
X66418705Y-40034865D01*
X66446400Y-39931504D01*
X66446400Y-39824496D01*
X66418705Y-39721135D01*
X66365201Y-39628464D01*
X66289536Y-39552799D01*
X66196865Y-39499295D01*
X66093504Y-39471600D01*
X65986496Y-39471600D01*
X65883135Y-39499295D01*
X65790464Y-39552799D01*
X65714799Y-39628464D01*
X65661295Y-39721135D01*
X65633600Y-39824496D01*
X62712600Y-39824496D01*
X62712600Y-39040184D01*
X64973200Y-39040184D01*
X64973200Y-39560499D01*
X64973201Y-39560500D01*
X65722499Y-39560500D01*
X65722500Y-39560499D01*
X65722500Y-38811201D01*
X66357500Y-38811201D01*
X66357500Y-39560499D01*
X66357501Y-39560500D01*
X67106798Y-39560500D01*
X67106799Y-39560499D01*
X67106799Y-39040181D01*
X67092062Y-38966093D01*
X67035924Y-38882077D01*
X67035922Y-38882075D01*
X66951905Y-38825937D01*
X66877815Y-38811200D01*
X66357501Y-38811200D01*
X66357500Y-38811201D01*
X65722500Y-38811201D01*
X65722499Y-38811200D01*
X65202181Y-38811200D01*
X65128093Y-38825937D01*
X65044077Y-38882075D01*
X65044075Y-38882077D01*
X64987937Y-38966094D01*
X64973200Y-39040184D01*
X62712600Y-39040184D01*
X62712600Y-38768959D01*
X62733165Y-38712458D01*
X62752977Y-38695014D01*
X62770007Y-38684070D01*
X62851413Y-38590122D01*
X62903054Y-38477045D01*
X62920745Y-38354000D01*
X62920745Y-38353996D01*
X62903055Y-38230961D01*
X62903054Y-38230960D01*
X62903054Y-38230955D01*
X62851413Y-38117878D01*
X62770007Y-38023930D01*
X62752976Y-38012985D01*
X62716564Y-37965139D01*
X62712600Y-37939040D01*
X62712600Y-37552900D01*
X62733165Y-37496399D01*
X62785236Y-37466335D01*
X62800500Y-37465000D01*
X68848336Y-37465000D01*
X68904837Y-37485565D01*
G37*
%TD.AperFunction*%
%TD*%
D38*
X55753000Y-35077400D03*
X84455000Y-28956000D03*
X71120000Y-30480000D03*
X55118000Y-34544000D03*
X60030400Y-37693600D03*
X54381400Y-36118800D03*
X58166000Y-33909000D03*
X51054000Y-46228000D03*
X76200000Y-46736000D03*
X51054000Y-43180000D03*
X58674000Y-32893000D03*
X71653400Y-38303200D03*
X50292000Y-43180000D03*
X59944000Y-38227000D03*
X58293000Y-33274000D03*
X49530000Y-45212000D03*
X94107000Y-29210000D03*
X56515000Y-33909000D03*
X90500200Y-30175200D03*
X58928000Y-34544000D03*
X49530000Y-44704000D03*
X70612000Y-30988000D03*
X75819000Y-35331400D03*
X56515000Y-34417000D03*
X51054000Y-44704000D03*
X45913000Y-30378400D03*
X57609800Y-28676600D03*
X48006000Y-37566600D03*
X50292000Y-44704000D03*
X71120000Y-30988000D03*
X70612000Y-30480000D03*
X80949800Y-32438400D03*
X78232000Y-32258000D03*
X62484000Y-38354000D03*
X56388000Y-33274000D03*
X51054000Y-45720000D03*
X61976000Y-46736000D03*
X50292000Y-45720000D03*
X58801000Y-33782000D03*
X54356000Y-35153600D03*
X54625200Y-37693600D03*
X54462800Y-34518800D03*
X56007000Y-32893000D03*
X70104000Y-30988000D03*
X48920400Y-39878000D03*
X55880000Y-33782000D03*
X77622400Y-35763200D03*
X47117000Y-44323000D03*
X74904600Y-36220400D03*
X69240400Y-37211000D03*
X54991000Y-35128200D03*
X54610000Y-38227000D03*
X55372000Y-47498000D03*
X76835000Y-29083000D03*
X75285600Y-33909000D03*
X60807600Y-34315400D03*
X58773000Y-36144200D03*
X55905400Y-36245800D03*
X55753000Y-34544000D03*
X47117000Y-46863000D03*
X51054000Y-45212000D03*
X49530000Y-44196000D03*
X62153800Y-37393200D03*
X91948000Y-34033400D03*
X53746400Y-35128200D03*
X54610000Y-37211000D03*
X59740800Y-37185600D03*
X50292000Y-44196000D03*
X73177400Y-38303200D03*
X50292000Y-43688000D03*
X50292000Y-45212000D03*
X70104000Y-30480000D03*
X53746400Y-36118800D03*
X45796200Y-37056600D03*
X51054000Y-44196000D03*
X93472000Y-46355000D03*
X73304400Y-35890200D03*
X50292000Y-46228000D03*
X45913000Y-34340800D03*
X58166000Y-34417000D03*
X47117000Y-45567600D03*
X83058000Y-32715200D03*
X51054000Y-43688000D03*
X77216000Y-34290000D03*
X83207800Y-36347400D03*
X52009000Y-42062400D03*
X77952600Y-33451800D03*
X45913000Y-32359600D03*
X61722000Y-38354000D03*
X48262600Y-36195000D03*
X58166000Y-40386000D03*
X56642000Y-40894000D03*
X57404000Y-41402000D03*
X58166000Y-41402000D03*
X58166000Y-42926000D03*
X58166000Y-40894000D03*
X58166000Y-39878000D03*
X57404000Y-42926000D03*
X57404000Y-41910000D03*
X56642000Y-41910000D03*
X57404000Y-39878000D03*
X58166000Y-42418000D03*
X56642000Y-41402000D03*
X57404000Y-40386000D03*
X57404000Y-42418000D03*
X56525200Y-37693600D03*
X58166000Y-41910000D03*
X58130400Y-37693600D03*
X57327800Y-36027400D03*
X57404000Y-40894000D03*
X59867800Y-31445200D03*
X57327800Y-31877000D03*
X50546000Y-36322000D03*
X49530000Y-31750000D03*
X50546000Y-35814000D03*
X49530000Y-33020000D03*
X50671000Y-32105600D03*
X51054000Y-36322000D03*
X51054000Y-35814000D03*
X51054000Y-35306000D03*
X50546000Y-35306000D03*
X50657200Y-31140400D03*
X49530000Y-34544000D03*
X66649600Y-34036000D03*
X63996200Y-31140400D03*
X65193000Y-33223200D03*
X66649600Y-34798000D03*
X67183000Y-34340800D03*
X70612000Y-34798000D03*
X70612000Y-34036000D03*
X70612000Y-33274000D03*
X65024000Y-34544000D03*
X65024000Y-32004000D03*
X64021600Y-33629600D03*
X55854600Y-30226000D03*
X58826400Y-30276800D03*
X64262000Y-40386000D03*
X64262000Y-42926000D03*
X63500000Y-40386000D03*
X64262000Y-41910000D03*
X63500000Y-42418000D03*
X64262000Y-41402000D03*
X63500000Y-40894000D03*
X64262000Y-42418000D03*
X64262000Y-40894000D03*
X63500000Y-42926000D03*
X63500000Y-41910000D03*
X63500000Y-41402000D03*
X46736000Y-42164000D03*
X46736000Y-41656000D03*
X53848000Y-29210000D03*
X61976000Y-29210000D03*
X80949800Y-33398400D03*
X49606200Y-37566600D03*
X49222600Y-36195000D03*
X47244000Y-42164000D03*
X47244000Y-41656000D03*
X54866000Y-29210000D03*
X60960000Y-29210000D03*
X90855800Y-31826200D03*
X84836000Y-36550600D03*
X62207600Y-42580200D03*
X62153800Y-39213200D03*
X57325500Y-45049400D03*
X61288200Y-44754800D03*
X48493400Y-37066600D03*
X53263800Y-36728400D03*
X81076800Y-35356800D03*
X49093400Y-38066600D03*
X49093400Y-37066600D03*
X91948000Y-33073400D03*
X50266600Y-37490400D03*
D39*
X41592500Y-38100000D03*
X98742500Y-38100000D03*
X86360000Y-43637200D03*
X86360000Y-39878000D03*
X68580000Y-44754800D03*
X68580000Y-40995600D03*
X66040000Y-43637200D03*
X66040000Y-39878000D03*
X83820000Y-44754800D03*
X83820000Y-40995600D03*
X71120000Y-43637200D03*
X81280000Y-43637200D03*
X71120000Y-39878000D03*
X73660000Y-39878000D03*
X76200000Y-39878000D03*
X78740000Y-39878000D03*
X81280000Y-39878000D03*
M02*
