%TF.GenerationSoftware,KiCad,Pcbnew,8.0.3*%
%TF.CreationDate,2024-09-11T14:35:31-04:00*%
%TF.ProjectId,100068622-001_Rev1,31303030-3638-4363-9232-2d3030315f52,1*%
%TF.SameCoordinates,Original*%
%TF.FileFunction,Paste,Top*%
%TF.FilePolarity,Positive*%
%FSLAX46Y46*%
G04 Gerber Fmt 4.6, Leading zero omitted, Abs format (unit mm)*
G04 Created by KiCad (PCBNEW 8.0.3) date 2024-09-11 14:35:31*
%MOMM*%
%LPD*%
G01*
G04 APERTURE LIST*
G04 Aperture macros list*
%AMRoundRect*
0 Rectangle with rounded corners*
0 $1 Rounding radius*
0 $2 $3 $4 $5 $6 $7 $8 $9 X,Y pos of 4 corners*
0 Add a 4 corners polygon primitive as box body*
4,1,4,$2,$3,$4,$5,$6,$7,$8,$9,$2,$3,0*
0 Add four circle primitives for the rounded corners*
1,1,$1+$1,$2,$3*
1,1,$1+$1,$4,$5*
1,1,$1+$1,$6,$7*
1,1,$1+$1,$8,$9*
0 Add four rect primitives between the rounded corners*
20,1,$1+$1,$2,$3,$4,$5,0*
20,1,$1+$1,$4,$5,$6,$7,0*
20,1,$1+$1,$6,$7,$8,$9,0*
20,1,$1+$1,$8,$9,$2,$3,0*%
G04 Aperture macros list end*
%ADD10C,0.254000*%
%ADD11RoundRect,0.135000X0.135000X0.185000X-0.135000X0.185000X-0.135000X-0.185000X0.135000X-0.185000X0*%
%ADD12O,2.032000X2.540000*%
%ADD13R,0.275000X0.713000*%
%ADD14O,2.540000X2.032000*%
%ADD15C,1.016000*%
%ADD16RoundRect,0.250000X0.250000X0.475000X-0.250000X0.475000X-0.250000X-0.475000X0.250000X-0.475000X0*%
%ADD17RoundRect,0.250000X0.475000X-0.250000X0.475000X0.250000X-0.475000X0.250000X-0.475000X-0.250000X0*%
%ADD18RoundRect,0.250000X-0.250000X-0.475000X0.250000X-0.475000X0.250000X0.475000X-0.250000X0.475000X0*%
%ADD19RoundRect,0.135000X-0.135000X-0.185000X0.135000X-0.185000X0.135000X0.185000X-0.135000X0.185000X0*%
%ADD20O,5.080000X3.810000*%
%ADD21RoundRect,0.140000X0.170000X-0.140000X0.170000X0.140000X-0.170000X0.140000X-0.170000X-0.140000X0*%
%ADD22RoundRect,0.140000X-0.170000X0.140000X-0.170000X-0.140000X0.170000X-0.140000X0.170000X0.140000X0*%
%ADD23R,0.225000X0.713000*%
%ADD24R,0.563000X0.225000*%
G04 APERTURE END LIST*
D10*
X61915524Y-61559052D02*
X61238191Y-61559052D01*
X61238191Y-62623433D02*
X61238191Y-60591433D01*
X61238191Y-60591433D02*
X62205810Y-60591433D01*
X64141048Y-62623433D02*
X63463715Y-61655814D01*
X62979905Y-62623433D02*
X62979905Y-60591433D01*
X62979905Y-60591433D02*
X63754000Y-60591433D01*
X63754000Y-60591433D02*
X63947524Y-60688195D01*
X63947524Y-60688195D02*
X64044286Y-60784957D01*
X64044286Y-60784957D02*
X64141048Y-60978481D01*
X64141048Y-60978481D02*
X64141048Y-61268767D01*
X64141048Y-61268767D02*
X64044286Y-61462291D01*
X64044286Y-61462291D02*
X63947524Y-61559052D01*
X63947524Y-61559052D02*
X63754000Y-61655814D01*
X63754000Y-61655814D02*
X62979905Y-61655814D01*
X65398953Y-60591433D02*
X65786000Y-60591433D01*
X65786000Y-60591433D02*
X65979524Y-60688195D01*
X65979524Y-60688195D02*
X66173048Y-60881719D01*
X66173048Y-60881719D02*
X66269810Y-61268767D01*
X66269810Y-61268767D02*
X66269810Y-61946100D01*
X66269810Y-61946100D02*
X66173048Y-62333148D01*
X66173048Y-62333148D02*
X65979524Y-62526672D01*
X65979524Y-62526672D02*
X65786000Y-62623433D01*
X65786000Y-62623433D02*
X65398953Y-62623433D01*
X65398953Y-62623433D02*
X65205429Y-62526672D01*
X65205429Y-62526672D02*
X65011905Y-62333148D01*
X65011905Y-62333148D02*
X64915143Y-61946100D01*
X64915143Y-61946100D02*
X64915143Y-61268767D01*
X64915143Y-61268767D02*
X65011905Y-60881719D01*
X65011905Y-60881719D02*
X65205429Y-60688195D01*
X65205429Y-60688195D02*
X65398953Y-60591433D01*
X67140667Y-62623433D02*
X67140667Y-60591433D01*
X67140667Y-60591433D02*
X68301810Y-62623433D01*
X68301810Y-62623433D02*
X68301810Y-60591433D01*
X68979143Y-60591433D02*
X70140286Y-60591433D01*
X69559715Y-62623433D02*
X69559715Y-60591433D01*
X72365809Y-62623433D02*
X72365809Y-60591433D01*
X72365809Y-60591433D02*
X73139904Y-60591433D01*
X73139904Y-60591433D02*
X73333428Y-60688195D01*
X73333428Y-60688195D02*
X73430190Y-60784957D01*
X73430190Y-60784957D02*
X73526952Y-60978481D01*
X73526952Y-60978481D02*
X73526952Y-61268767D01*
X73526952Y-61268767D02*
X73430190Y-61462291D01*
X73430190Y-61462291D02*
X73333428Y-61559052D01*
X73333428Y-61559052D02*
X73139904Y-61655814D01*
X73139904Y-61655814D02*
X72365809Y-61655814D01*
X74301047Y-62042862D02*
X75268666Y-62042862D01*
X74107523Y-62623433D02*
X74784857Y-60591433D01*
X74784857Y-60591433D02*
X75462190Y-62623433D01*
X76042761Y-62526672D02*
X76333047Y-62623433D01*
X76333047Y-62623433D02*
X76816856Y-62623433D01*
X76816856Y-62623433D02*
X77010380Y-62526672D01*
X77010380Y-62526672D02*
X77107142Y-62429910D01*
X77107142Y-62429910D02*
X77203904Y-62236386D01*
X77203904Y-62236386D02*
X77203904Y-62042862D01*
X77203904Y-62042862D02*
X77107142Y-61849338D01*
X77107142Y-61849338D02*
X77010380Y-61752576D01*
X77010380Y-61752576D02*
X76816856Y-61655814D01*
X76816856Y-61655814D02*
X76429809Y-61559052D01*
X76429809Y-61559052D02*
X76236285Y-61462291D01*
X76236285Y-61462291D02*
X76139523Y-61365529D01*
X76139523Y-61365529D02*
X76042761Y-61172005D01*
X76042761Y-61172005D02*
X76042761Y-60978481D01*
X76042761Y-60978481D02*
X76139523Y-60784957D01*
X76139523Y-60784957D02*
X76236285Y-60688195D01*
X76236285Y-60688195D02*
X76429809Y-60591433D01*
X76429809Y-60591433D02*
X76913618Y-60591433D01*
X76913618Y-60591433D02*
X77203904Y-60688195D01*
X77784475Y-60591433D02*
X78945618Y-60591433D01*
X78365047Y-62623433D02*
X78365047Y-60591433D01*
X79622951Y-61559052D02*
X80300284Y-61559052D01*
X80590570Y-62623433D02*
X79622951Y-62623433D01*
X79622951Y-62623433D02*
X79622951Y-60591433D01*
X79622951Y-60591433D02*
X80590570Y-60591433D01*
D11*
%TO.C,R8*%
X64021600Y-33629600D03*
X63001600Y-33629600D03*
%TD*%
D12*
%TO.C,P19*%
X47447200Y-35839400D03*
%TD*%
D13*
%TO.C,U9*%
X89924000Y-34122400D03*
X90424000Y-34122400D03*
X90924000Y-34122400D03*
X90924000Y-32984400D03*
X90424000Y-32984400D03*
X89924000Y-32984400D03*
%TD*%
D12*
%TO.C,P10*%
X50876200Y-39776400D03*
%TD*%
D14*
%TO.C,P14*%
X88519000Y-36322000D03*
%TD*%
D15*
%TO.C,FID5*%
X40894000Y-46990000D03*
%TD*%
D16*
%TO.C,C25*%
X56525200Y-37693600D03*
X54625200Y-37693600D03*
%TD*%
D14*
%TO.C,P24*%
X92456000Y-30607000D03*
%TD*%
D17*
%TO.C,C26*%
X57327800Y-36027400D03*
X57327800Y-34127400D03*
%TD*%
D14*
%TO.C,P7*%
X74523600Y-30607000D03*
%TD*%
D12*
%TO.C,P6*%
X47447200Y-31902400D03*
%TD*%
D14*
%TO.C,P23*%
X88519000Y-30607000D03*
%TD*%
D18*
%TO.C,C27*%
X58130400Y-37693600D03*
X60030400Y-37693600D03*
%TD*%
D15*
%TO.C,FID3*%
X99491800Y-29210000D03*
%TD*%
D19*
%TO.C,R7*%
X55864200Y-31165800D03*
X56884200Y-31165800D03*
%TD*%
D14*
%TO.C,P8*%
X70586600Y-34036000D03*
%TD*%
%TO.C,P13*%
X79375000Y-35839400D03*
%TD*%
D11*
%TO.C,R9*%
X63996200Y-36144200D03*
X62976200Y-36144200D03*
%TD*%
%TO.C,R5*%
X63996200Y-31140400D03*
X62976200Y-31140400D03*
%TD*%
%TO.C,R4*%
X58789200Y-31165800D03*
X57769200Y-31165800D03*
%TD*%
D19*
%TO.C,R3*%
X50657200Y-31140400D03*
X51677200Y-31140400D03*
%TD*%
%TO.C,R6*%
X50671000Y-32105600D03*
X51691000Y-32105600D03*
%TD*%
D20*
%TO.C,P16*%
X58445400Y-41402000D03*
%TD*%
D14*
%TO.C,P15*%
X92456000Y-36347400D03*
%TD*%
D21*
%TO.C,C24*%
X80949800Y-33398400D03*
X80949800Y-32438400D03*
%TD*%
D14*
%TO.C,P17*%
X82981800Y-33426400D03*
%TD*%
%TO.C,P21*%
X70586600Y-30607000D03*
%TD*%
D22*
%TO.C,C23*%
X91948000Y-33073400D03*
X91948000Y-34033400D03*
%TD*%
D14*
%TO.C,P12*%
X79375000Y-31038800D03*
%TD*%
%TO.C,P9*%
X66649600Y-34036000D03*
%TD*%
D20*
%TO.C,P22*%
X51079400Y-44678600D03*
%TD*%
D15*
%TO.C,FID1*%
X40894000Y-29210000D03*
%TD*%
D14*
%TO.C,P20*%
X66649600Y-30607000D03*
%TD*%
D23*
%TO.C,U8*%
X79371800Y-32958300D03*
X78971800Y-32958300D03*
D24*
X78403300Y-33051800D03*
X78403300Y-33451800D03*
X78403300Y-33851800D03*
D23*
X78971800Y-33945300D03*
X79371800Y-33945300D03*
D24*
X79940300Y-33851800D03*
X79940300Y-33451800D03*
X79940300Y-33051800D03*
%TD*%
D12*
%TO.C,P18*%
X47447200Y-39776400D03*
%TD*%
%TO.C,P11*%
X50876200Y-35839400D03*
%TD*%
M02*
