%TF.GenerationSoftware,KiCad,Pcbnew,8.0.3*%
%TF.CreationDate,2024-09-11T14:35:31-04:00*%
%TF.ProjectId,100068622-001_Rev1,31303030-3638-4363-9232-2d3030315f52,1*%
%TF.SameCoordinates,Original*%
%TF.FileFunction,Soldermask,Bot*%
%TF.FilePolarity,Negative*%
%FSLAX46Y46*%
G04 Gerber Fmt 4.6, Leading zero omitted, Abs format (unit mm)*
G04 Created by KiCad (PCBNEW 8.0.3) date 2024-09-11 14:35:31*
%MOMM*%
%LPD*%
G01*
G04 APERTURE LIST*
G04 Aperture macros list*
%AMRoundRect*
0 Rectangle with rounded corners*
0 $1 Rounding radius*
0 $2 $3 $4 $5 $6 $7 $8 $9 X,Y pos of 4 corners*
0 Add a 4 corners polygon primitive as box body*
4,1,4,$2,$3,$4,$5,$6,$7,$8,$9,$2,$3,0*
0 Add four circle primitives for the rounded corners*
1,1,$1+$1,$2,$3*
1,1,$1+$1,$4,$5*
1,1,$1+$1,$6,$7*
1,1,$1+$1,$8,$9*
0 Add four rect primitives between the rounded corners*
20,1,$1+$1,$2,$3,$4,$5,0*
20,1,$1+$1,$4,$5,$6,$7,0*
20,1,$1+$1,$6,$7,$8,$9,0*
20,1,$1+$1,$8,$9,$2,$3,0*%
%AMFreePoly0*
4,1,38,0.156933,1.276936,0.160469,1.275472,0.176957,1.264457,0.214457,1.226957,0.225472,1.210469,0.226936,1.206933,0.230800,1.187500,0.230800,0.000000,0.226936,-0.019433,0.225472,-0.022969,0.197984,-0.050466,0.197969,-0.050472,0.194433,-0.051936,0.175000,-0.055800,-0.175000,-0.055800,-0.194433,-0.051936,-0.197969,-0.050472,-0.225466,-0.022984,-0.225472,-0.022969,-0.226936,-0.019433,
-0.230800,0.000000,-0.230800,0.727200,-0.650000,0.727200,-0.669433,0.731064,-0.672969,0.732528,-0.700466,0.760016,-0.700472,0.760031,-0.701936,0.763567,-0.705800,0.783000,-0.705800,1.225000,-0.701936,1.244433,-0.700472,1.247969,-0.672984,1.275466,-0.672969,1.275472,-0.669433,1.276936,-0.650000,1.280800,0.137500,1.280800,0.156933,1.276936,0.156933,1.276936,$1*%
%AMFreePoly1*
4,1,27,0.397510,0.224824,0.426173,0.219123,0.444487,0.211537,0.468786,0.195300,0.482800,0.181286,0.499037,0.156987,0.506623,0.138673,0.512324,0.110010,0.513300,0.100100,0.513300,-0.100100,0.512324,-0.110010,0.506623,-0.138673,0.499037,-0.156987,0.482800,-0.181286,0.468786,-0.195300,0.444487,-0.211537,0.426173,-0.219123,0.397510,-0.224824,0.387600,-0.225800,-0.462500,-0.225800,
-0.498421,-0.210921,-0.513300,-0.175000,-0.513300,0.175000,-0.498421,0.210921,-0.462500,0.225800,0.387600,0.225800,0.397510,0.224824,0.397510,0.224824,$1*%
%AMFreePoly2*
4,1,27,0.708211,0.199824,0.732779,0.194937,0.751091,0.187351,0.771919,0.173434,0.785934,0.159419,0.799851,0.138591,0.807437,0.120279,0.812324,0.095711,0.813300,0.085800,0.813300,-0.085800,0.812324,-0.095711,0.807437,-0.120279,0.799851,-0.138591,0.785934,-0.159419,0.771919,-0.173434,0.751091,-0.187351,0.732779,-0.194937,0.708211,-0.199824,0.698300,-0.200800,-0.762500,-0.200800,
-0.798421,-0.185921,-0.813300,-0.150000,-0.813300,0.150000,-0.798421,0.185921,-0.762500,0.200800,0.698300,0.200800,0.708211,0.199824,0.708211,0.199824,$1*%
%AMFreePoly3*
4,1,45,0.381869,0.322463,0.382223,0.322317,0.387581,0.316974,0.397811,0.313651,0.422811,0.295487,0.441265,0.270087,0.450814,0.240698,0.453300,0.225000,0.453300,0.205267,0.468401,0.168808,0.496308,0.140901,0.531560,0.126300,0.700000,0.126300,0.719369,0.122463,0.719723,0.122317,0.736275,0.111275,0.773775,0.073775,0.784817,0.057223,0.784963,0.056869,0.788800,0.037500,
0.788800,-0.240000,0.784963,-0.259369,0.784817,-0.259723,0.772464,-0.277462,0.772503,-0.277504,0.735003,-0.312504,0.718920,-0.322646,0.718579,-0.322780,0.700000,-0.326300,-0.737500,-0.326300,-0.756869,-0.322463,-0.757223,-0.322317,-0.784757,-0.294866,-0.784817,-0.294723,-0.784963,-0.294369,-0.788800,-0.275000,-0.788800,0.275000,-0.784963,0.294369,-0.784817,0.294723,-0.757366,0.322257,
-0.757223,0.322317,-0.756869,0.322463,-0.737500,0.326300,0.362500,0.326300,0.381869,0.322463,0.381869,0.322463,$1*%
%AMFreePoly4*
4,1,27,0.486811,0.249824,0.519569,0.243308,0.537882,0.235722,0.565652,0.217166,0.579666,0.203152,0.598222,0.175382,0.605808,0.157069,0.612324,0.124311,0.613300,0.114400,0.613300,-0.114400,0.612324,-0.124311,0.605808,-0.157069,0.598222,-0.175382,0.579666,-0.203152,0.565652,-0.217166,0.537882,-0.235722,0.519569,-0.243308,0.486811,-0.249824,0.476900,-0.250800,-0.562500,-0.250800,
-0.598421,-0.235921,-0.613300,-0.200000,-0.613300,0.200000,-0.598421,0.235921,-0.562500,0.250800,0.476900,0.250800,0.486811,0.249824,0.486811,0.249824,$1*%
%AMFreePoly5*
4,1,54,0.729369,1.022463,0.729723,1.022317,0.757257,0.994866,0.757317,0.994723,0.757463,0.994369,0.761300,0.975000,0.761300,0.451300,1.018700,0.451300,1.018700,0.975000,1.022537,0.994369,1.022683,0.994723,1.050134,1.022257,1.050277,1.022317,1.050631,1.022463,1.070000,1.026300,1.480000,1.026300,1.499369,1.022463,1.499723,1.022317,1.527257,0.994866,1.527317,0.994723,
1.527463,0.994369,1.531300,0.975000,1.531300,-0.200000,1.527463,-0.219369,1.527317,-0.219723,1.516275,-0.236275,1.491275,-0.261275,1.474723,-0.272317,1.474369,-0.272463,1.455000,-0.276300,-0.310000,-0.276300,-0.329369,-0.272463,-0.329723,-0.272317,-0.357257,-0.244866,-0.357317,-0.244723,-0.357463,-0.244369,-0.361300,-0.225000,-0.361300,0.225000,-0.357463,0.244369,-0.357317,0.244723,
-0.329866,0.272257,-0.329723,0.272317,-0.329369,0.272463,-0.310000,0.276300,0.258700,0.276300,0.258700,0.975000,0.262537,0.994369,0.262683,0.994723,0.290134,1.022257,0.290277,1.022317,0.290631,1.022463,0.310000,1.026300,0.710000,1.026300,0.729369,1.022463,0.729369,1.022463,$1*%
%AMFreePoly6*
4,1,39,0.194369,0.359963,0.194723,0.359817,0.222257,0.332366,0.222317,0.332223,0.222463,0.331869,0.226300,0.312500,0.226300,-1.187500,0.222463,-1.206869,0.222317,-1.207223,0.211275,-1.223775,0.186275,-1.248775,0.169723,-1.259817,0.169369,-1.259963,0.150000,-1.263800,-0.045000,-1.263800,-0.064369,-1.259963,-0.064723,-1.259817,-0.081275,-1.248775,-0.106275,-1.223775,-0.117317,-1.207223,
-0.117463,-1.206869,-0.121300,-1.187500,-0.121300,-0.363800,-0.175000,-0.363800,-0.194369,-0.359963,-0.194723,-0.359817,-0.222257,-0.332366,-0.222317,-0.332223,-0.222463,-0.331869,-0.226300,-0.312500,-0.226300,0.312500,-0.222463,0.331869,-0.222317,0.332223,-0.194866,0.359757,-0.194723,0.359817,-0.194369,0.359963,-0.175000,0.363800,0.175000,0.363800,0.194369,0.359963,0.194369,0.359963,
$1*%
%AMFreePoly7*
4,1,39,0.194369,0.359963,0.194723,0.359817,0.222257,0.332366,0.222317,0.332223,0.222463,0.331869,0.226300,0.312500,0.226300,-0.312500,0.222463,-0.331869,0.222317,-0.332223,0.194866,-0.359757,0.194723,-0.359817,0.194369,-0.359963,0.175000,-0.363800,0.121300,-0.363800,0.121300,-1.187500,0.117463,-1.206869,0.117317,-1.207223,0.106275,-1.223775,0.081275,-1.248775,0.064723,-1.259817,
0.064369,-1.259963,0.045000,-1.263800,-0.150000,-1.263800,-0.169369,-1.259963,-0.169723,-1.259817,-0.186275,-1.248775,-0.211275,-1.223775,-0.222317,-1.207223,-0.222463,-1.206869,-0.226300,-1.187500,-0.226300,0.312500,-0.222463,0.331869,-0.222317,0.332223,-0.194866,0.359757,-0.194723,0.359817,-0.194369,0.359963,-0.175000,0.363800,0.175000,0.363800,0.194369,0.359963,0.194369,0.359963,
$1*%
%AMFreePoly8*
4,1,54,-1.050631,1.022463,-1.050277,1.022317,-1.022743,0.994866,-1.022683,0.994723,-1.022537,0.994369,-1.018700,0.975000,-1.018700,0.451300,-0.761300,0.451300,-0.761300,0.975000,-0.757463,0.994369,-0.757317,0.994723,-0.729866,1.022257,-0.729723,1.022317,-0.729369,1.022463,-0.710000,1.026300,-0.310000,1.026300,-0.290631,1.022463,-0.290277,1.022317,-0.262743,0.994866,-0.262683,0.994723,
-0.262537,0.994369,-0.258700,0.975000,-0.258700,0.276300,0.310000,0.276300,0.329369,0.272463,0.329723,0.272317,0.357257,0.244866,0.357317,0.244723,0.357463,0.244369,0.361300,0.225000,0.361300,-0.225000,0.357463,-0.244369,0.357317,-0.244723,0.329866,-0.272257,0.329723,-0.272317,0.329369,-0.272463,0.310000,-0.276300,-1.455000,-0.276300,-1.474369,-0.272463,-1.474723,-0.272317,
-1.491275,-0.261275,-1.516275,-0.236275,-1.527317,-0.219723,-1.527463,-0.219369,-1.531300,-0.200000,-1.531300,0.975000,-1.527463,0.994369,-1.527317,0.994723,-1.499866,1.022257,-1.499723,1.022317,-1.499369,1.022463,-1.480000,1.026300,-1.070000,1.026300,-1.050631,1.022463,-1.050631,1.022463,$1*%
%AMFreePoly9*
4,1,45,0.756869,0.322463,0.757223,0.322317,0.784757,0.294866,0.784817,0.294723,0.784963,0.294369,0.788800,0.275000,0.788800,-0.275000,0.784963,-0.294369,0.784817,-0.294723,0.757366,-0.322257,0.757223,-0.322317,0.756869,-0.322463,0.737500,-0.326300,-0.700000,-0.326300,-0.718579,-0.322780,-0.718920,-0.322646,-0.735003,-0.312504,-0.772503,-0.277504,-0.784069,-0.261427,-0.784228,-0.261078,
-0.788800,-0.240017,-0.788800,0.037500,-0.784963,0.056869,-0.784817,0.057223,-0.773775,0.073775,-0.736275,0.111275,-0.719723,0.122317,-0.719369,0.122463,-0.700000,0.126300,-0.531560,0.126300,-0.496308,0.140901,-0.468401,0.168808,-0.453300,0.205267,-0.453300,0.225000,-0.450814,0.240698,-0.441265,0.270087,-0.422811,0.295487,-0.397811,0.313651,-0.387656,0.316950,-0.382366,0.322257,
-0.382223,0.322317,-0.381869,0.322463,-0.362500,0.326300,0.737500,0.326300,0.756869,0.322463,0.756869,0.322463,$1*%
%AMFreePoly10*
4,1,38,0.669433,1.276936,0.672969,1.275472,0.700466,1.247984,0.700472,1.247969,0.701936,1.244433,0.705800,1.225000,0.705800,0.783000,0.701936,0.763567,0.700472,0.760031,0.672984,0.732534,0.672969,0.732528,0.669433,0.731064,0.650000,0.727200,0.230800,0.727200,0.230800,0.000000,0.226936,-0.019433,0.225472,-0.022969,0.197984,-0.050466,0.197969,-0.050472,0.194433,-0.051936,
0.175000,-0.055800,-0.175000,-0.055800,-0.194433,-0.051936,-0.197969,-0.050472,-0.225466,-0.022984,-0.225472,-0.022969,-0.226936,-0.019433,-0.230800,0.000000,-0.230800,1.187500,-0.226936,1.206933,-0.225472,1.210469,-0.214457,1.226957,-0.176957,1.264457,-0.160469,1.275472,-0.156933,1.276936,-0.137500,1.280800,0.650000,1.280800,0.669433,1.276936,0.669433,1.276936,$1*%
%AMFreePoly11*
4,1,27,0.084911,0.587324,0.113612,0.581615,0.131924,0.574030,0.156256,0.557772,0.170272,0.543756,0.186530,0.519424,0.194115,0.501112,0.199824,0.472411,0.200800,0.462500,0.200800,-0.537500,0.185921,-0.573421,0.150000,-0.588300,-0.150000,-0.588300,-0.185921,-0.573421,-0.200800,-0.537500,-0.200800,0.462500,-0.199824,0.472411,-0.194115,0.501112,-0.186530,0.519424,-0.170272,0.543756,
-0.156256,0.557772,-0.131924,0.574030,-0.113612,0.581615,-0.084911,0.587324,-0.075000,0.588300,0.075000,0.588300,0.084911,0.587324,0.084911,0.587324,$1*%
%AMFreePoly12*
4,1,42,0.042488,0.586050,0.042794,0.585945,0.057404,0.578064,0.181404,0.482064,0.194396,0.467127,0.194586,0.466795,0.201194,0.444782,0.201198,0.444719,0.201300,0.441500,0.201300,0.250000,0.200800,0.247476,0.200800,-0.034976,0.201300,-0.037500,0.201300,-0.537500,0.197463,-0.556869,0.197317,-0.557223,0.169866,-0.584757,0.169723,-0.584817,0.169369,-0.584963,0.150000,-0.588800,
-0.150000,-0.588800,-0.169369,-0.584963,-0.169723,-0.584817,-0.197257,-0.557366,-0.197317,-0.557223,-0.197463,-0.556869,-0.201300,-0.537500,-0.201300,-0.037500,-0.200800,-0.034976,-0.200800,0.247476,-0.201300,0.250000,-0.201300,0.462600,-0.198153,0.478484,-0.198666,0.478651,-0.184395,0.522575,-0.165941,0.547976,-0.128191,0.575403,-0.098331,0.585105,-0.093600,0.585105,-0.075000,0.588800,
0.026000,0.588800,0.042488,0.586050,0.042488,0.586050,$1*%
%AMFreePoly13*
4,1,42,0.093600,0.585105,0.098331,0.585105,0.128191,0.575403,0.165941,0.547976,0.184395,0.522575,0.198666,0.478651,0.198134,0.478478,0.201300,0.462600,0.201300,0.250000,0.200800,0.247476,0.200800,-0.034976,0.201300,-0.037500,0.201300,-0.537500,0.197463,-0.556869,0.197317,-0.557223,0.169866,-0.584757,0.169723,-0.584817,0.169369,-0.584963,0.150000,-0.588800,-0.150000,-0.588800,
-0.169369,-0.584963,-0.169723,-0.584817,-0.197257,-0.557366,-0.197317,-0.557223,-0.197463,-0.556869,-0.201300,-0.537500,-0.201300,-0.037500,-0.200800,-0.034976,-0.200800,0.247476,-0.201300,0.250000,-0.201300,0.441500,-0.197463,0.460869,-0.197317,0.461223,-0.183348,0.480481,-0.183300,0.480522,-0.181404,0.482064,-0.057404,0.578064,-0.042794,0.585945,-0.042488,0.586050,-0.026000,0.588800,
0.075000,0.588800,0.093600,0.585105,0.093600,0.585105,$1*%
%AMFreePoly14*
4,1,77,1.204369,0.447463,1.204723,0.447317,1.232257,0.419866,1.232317,0.419723,1.232463,0.419369,1.236300,0.400000,1.236300,-1.750000,1.232463,-1.769369,1.232317,-1.769723,1.204866,-1.797257,1.204723,-1.797317,1.204369,-1.797463,1.185000,-1.801300,0.765000,-1.801300,0.745631,-1.797463,0.745277,-1.797317,0.717743,-1.769866,0.717683,-1.769723,0.717537,-1.769369,0.713700,-1.750000,
0.713700,-1.351300,0.586300,-1.351300,0.586300,-1.750000,0.582463,-1.769369,0.582317,-1.769723,0.554866,-1.797257,0.554723,-1.797317,0.554369,-1.797463,0.535000,-1.801300,0.115000,-1.801300,0.095631,-1.797463,0.095277,-1.797317,0.067743,-1.769866,0.067683,-1.769723,0.067537,-1.769369,0.063700,-1.750000,0.063700,-1.351300,-0.063700,-1.351300,-0.063700,-1.750000,-0.067537,-1.769369,
-0.067683,-1.769723,-0.095134,-1.797257,-0.095277,-1.797317,-0.095631,-1.797463,-0.115000,-1.801300,-0.535000,-1.801300,-0.554369,-1.797463,-0.554723,-1.797317,-0.582257,-1.769866,-0.582317,-1.769723,-0.582463,-1.769369,-0.586300,-1.750000,-0.586300,-1.351300,-0.713700,-1.351300,-0.713700,-1.750000,-0.717537,-1.769369,-0.717683,-1.769723,-0.745134,-1.797257,-0.745277,-1.797317,-0.745631,-1.797463,
-0.765000,-1.801300,-1.185000,-1.801300,-1.204369,-1.797463,-1.204723,-1.797317,-1.232257,-1.769866,-1.232317,-1.769723,-1.232463,-1.769369,-1.236300,-1.750000,-1.236300,0.400000,-1.232463,0.419369,-1.232317,0.419723,-1.204866,0.447257,-1.204723,0.447317,-1.204369,0.447463,-1.185000,0.451300,1.185000,0.451300,1.204369,0.447463,1.204369,0.447463,$1*%
G04 Aperture macros list end*
%ADD10C,0.254000*%
%ADD11C,3.216000*%
%ADD12RoundRect,0.165400X0.165400X0.195400X-0.165400X0.195400X-0.165400X-0.195400X0.165400X-0.195400X0*%
%ADD13RoundRect,0.165400X-0.165400X-0.195400X0.165400X-0.195400X0.165400X0.195400X-0.165400X0.195400X0*%
%ADD14RoundRect,0.275400X0.275400X0.500400X-0.275400X0.500400X-0.275400X-0.500400X0.275400X-0.500400X0*%
%ADD15C,2.463800*%
%ADD16RoundRect,0.050800X-0.812800X-0.812800X0.812800X-0.812800X0.812800X0.812800X-0.812800X0.812800X0*%
%ADD17RoundRect,0.275400X-0.275400X-0.500400X0.275400X-0.500400X0.275400X0.500400X-0.275400X0.500400X0*%
%ADD18RoundRect,0.165400X0.195400X-0.165400X0.195400X0.165400X-0.195400X0.165400X-0.195400X-0.165400X0*%
%ADD19RoundRect,0.050800X-0.650000X-0.700000X0.650000X-0.700000X0.650000X0.700000X-0.650000X0.700000X0*%
%ADD20FreePoly0,180.000000*%
%ADD21FreePoly1,180.000000*%
%ADD22FreePoly2,180.000000*%
%ADD23FreePoly3,180.000000*%
%ADD24FreePoly4,180.000000*%
%ADD25FreePoly5,180.000000*%
%ADD26FreePoly6,180.000000*%
%ADD27FreePoly7,180.000000*%
%ADD28FreePoly8,180.000000*%
%ADD29FreePoly4,0.000000*%
%ADD30FreePoly9,180.000000*%
%ADD31FreePoly2,0.000000*%
%ADD32FreePoly1,0.000000*%
%ADD33FreePoly10,180.000000*%
%ADD34FreePoly11,180.000000*%
%ADD35FreePoly12,180.000000*%
%ADD36FreePoly13,180.000000*%
%ADD37RoundRect,0.050800X-0.350000X0.210000X-0.350000X-0.210000X0.350000X-0.210000X0.350000X0.210000X0*%
%ADD38FreePoly14,270.000000*%
%ADD39RoundRect,0.075400X-0.150400X-0.075400X0.150400X-0.075400X0.150400X0.075400X-0.150400X0.075400X0*%
%ADD40RoundRect,0.075400X-0.125400X-0.075400X0.125400X-0.075400X0.125400X0.075400X-0.125400X0.075400X0*%
%ADD41RoundRect,0.025400X0.225000X-0.200000X0.225000X0.200000X-0.225000X0.200000X-0.225000X-0.200000X0*%
%ADD42RoundRect,0.025400X0.560000X-0.860000X0.560000X0.860000X-0.560000X0.860000X-0.560000X-0.860000X0*%
%ADD43RoundRect,0.050800X0.175000X0.240000X-0.175000X0.240000X-0.175000X-0.240000X0.175000X-0.240000X0*%
%ADD44RoundRect,0.050800X0.825000X0.475000X-0.825000X0.475000X-0.825000X-0.475000X0.825000X-0.475000X0*%
%ADD45RoundRect,0.160400X0.160400X0.210400X-0.160400X0.210400X-0.160400X-0.210400X0.160400X-0.210400X0*%
%ADD46RoundRect,0.050800X0.490000X1.700000X-0.490000X1.700000X-0.490000X-1.700000X0.490000X-1.700000X0*%
%ADD47RoundRect,0.050800X-0.490000X-1.700000X0.490000X-1.700000X0.490000X1.700000X-0.490000X1.700000X0*%
%ADD48RoundRect,0.050800X0.125000X0.200000X-0.125000X0.200000X-0.125000X-0.200000X0.125000X-0.200000X0*%
%ADD49RoundRect,0.025400X-0.125000X-0.200000X0.125000X-0.200000X0.125000X0.200000X-0.125000X0.200000X0*%
%ADD50RoundRect,0.050800X0.350000X0.200000X-0.350000X0.200000X-0.350000X-0.200000X0.350000X-0.200000X0*%
%ADD51C,1.524000*%
%ADD52RoundRect,0.160400X-0.160400X-0.210400X0.160400X-0.210400X0.160400X0.210400X-0.160400X0.210400X0*%
%ADD53RoundRect,0.175400X0.612900X0.175400X-0.612900X0.175400X-0.612900X-0.175400X0.612900X-0.175400X0*%
%ADD54RoundRect,0.165100X-0.330200X-0.457200X0.330200X-0.457200X0.330200X0.457200X-0.330200X0.457200X0*%
%ADD55RoundRect,0.182795X-0.312505X-0.249005X0.312505X-0.249005X0.312505X0.249005X-0.312505X0.249005X0*%
%ADD56RoundRect,0.143933X-0.351367X-0.287867X0.351367X-0.287867X0.351367X0.287867X-0.351367X0.287867X0*%
%ADD57RoundRect,0.160400X0.210400X-0.160400X0.210400X0.160400X-0.210400X0.160400X-0.210400X-0.160400X0*%
%ADD58RoundRect,0.125400X-0.312900X-0.125400X0.312900X-0.125400X0.312900X0.125400X-0.312900X0.125400X0*%
%ADD59RoundRect,0.050800X-0.750000X-1.150000X0.750000X-1.150000X0.750000X1.150000X-0.750000X1.150000X0*%
%ADD60RoundRect,0.160400X-0.210400X0.160400X-0.210400X-0.160400X0.210400X-0.160400X0.210400X0.160400X0*%
%ADD61RoundRect,0.050800X-0.400000X-0.800000X0.400000X-0.800000X0.400000X0.800000X-0.400000X0.800000X0*%
%ADD62RoundRect,0.025400X-0.812800X-0.812800X0.812800X-0.812800X0.812800X0.812800X-0.812800X0.812800X0*%
%ADD63C,1.727200*%
%ADD64RoundRect,0.050800X-0.889000X-1.905000X0.889000X-1.905000X0.889000X1.905000X-0.889000X1.905000X0*%
G04 APERTURE END LIST*
D10*
X63318571Y-61559052D02*
X63608857Y-61655814D01*
X63608857Y-61655814D02*
X63705619Y-61752576D01*
X63705619Y-61752576D02*
X63802381Y-61946100D01*
X63802381Y-61946100D02*
X63802381Y-62236386D01*
X63802381Y-62236386D02*
X63705619Y-62429910D01*
X63705619Y-62429910D02*
X63608857Y-62526672D01*
X63608857Y-62526672D02*
X63415333Y-62623433D01*
X63415333Y-62623433D02*
X62641238Y-62623433D01*
X62641238Y-62623433D02*
X62641238Y-60591433D01*
X62641238Y-60591433D02*
X63318571Y-60591433D01*
X63318571Y-60591433D02*
X63512095Y-60688195D01*
X63512095Y-60688195D02*
X63608857Y-60784957D01*
X63608857Y-60784957D02*
X63705619Y-60978481D01*
X63705619Y-60978481D02*
X63705619Y-61172005D01*
X63705619Y-61172005D02*
X63608857Y-61365529D01*
X63608857Y-61365529D02*
X63512095Y-61462291D01*
X63512095Y-61462291D02*
X63318571Y-61559052D01*
X63318571Y-61559052D02*
X62641238Y-61559052D01*
X64576476Y-62042862D02*
X65544095Y-62042862D01*
X64382952Y-62623433D02*
X65060286Y-60591433D01*
X65060286Y-60591433D02*
X65737619Y-62623433D01*
X67576095Y-62429910D02*
X67479333Y-62526672D01*
X67479333Y-62526672D02*
X67189047Y-62623433D01*
X67189047Y-62623433D02*
X66995523Y-62623433D01*
X66995523Y-62623433D02*
X66705238Y-62526672D01*
X66705238Y-62526672D02*
X66511714Y-62333148D01*
X66511714Y-62333148D02*
X66414952Y-62139624D01*
X66414952Y-62139624D02*
X66318190Y-61752576D01*
X66318190Y-61752576D02*
X66318190Y-61462291D01*
X66318190Y-61462291D02*
X66414952Y-61075243D01*
X66414952Y-61075243D02*
X66511714Y-60881719D01*
X66511714Y-60881719D02*
X66705238Y-60688195D01*
X66705238Y-60688195D02*
X66995523Y-60591433D01*
X66995523Y-60591433D02*
X67189047Y-60591433D01*
X67189047Y-60591433D02*
X67479333Y-60688195D01*
X67479333Y-60688195D02*
X67576095Y-60784957D01*
X68446952Y-62623433D02*
X68446952Y-60591433D01*
X69608095Y-62623433D02*
X68737238Y-61462291D01*
X69608095Y-60591433D02*
X68446952Y-61752576D01*
X72027142Y-62623433D02*
X72027142Y-60591433D01*
X72027142Y-60591433D02*
X72704475Y-62042862D01*
X72704475Y-62042862D02*
X73381809Y-60591433D01*
X73381809Y-60591433D02*
X73381809Y-62623433D01*
X74252666Y-62042862D02*
X75220285Y-62042862D01*
X74059142Y-62623433D02*
X74736476Y-60591433D01*
X74736476Y-60591433D02*
X75413809Y-62623433D01*
X75994380Y-62526672D02*
X76284666Y-62623433D01*
X76284666Y-62623433D02*
X76768475Y-62623433D01*
X76768475Y-62623433D02*
X76961999Y-62526672D01*
X76961999Y-62526672D02*
X77058761Y-62429910D01*
X77058761Y-62429910D02*
X77155523Y-62236386D01*
X77155523Y-62236386D02*
X77155523Y-62042862D01*
X77155523Y-62042862D02*
X77058761Y-61849338D01*
X77058761Y-61849338D02*
X76961999Y-61752576D01*
X76961999Y-61752576D02*
X76768475Y-61655814D01*
X76768475Y-61655814D02*
X76381428Y-61559052D01*
X76381428Y-61559052D02*
X76187904Y-61462291D01*
X76187904Y-61462291D02*
X76091142Y-61365529D01*
X76091142Y-61365529D02*
X75994380Y-61172005D01*
X75994380Y-61172005D02*
X75994380Y-60978481D01*
X75994380Y-60978481D02*
X76091142Y-60784957D01*
X76091142Y-60784957D02*
X76187904Y-60688195D01*
X76187904Y-60688195D02*
X76381428Y-60591433D01*
X76381428Y-60591433D02*
X76865237Y-60591433D01*
X76865237Y-60591433D02*
X77155523Y-60688195D01*
X78026380Y-62623433D02*
X78026380Y-60591433D01*
X79187523Y-62623433D02*
X78316666Y-61462291D01*
X79187523Y-60591433D02*
X78026380Y-61752576D01*
D11*
%TO.C,REF\u002A\u002A*%
X41592500Y-38100000D03*
%TD*%
%TO.C,REF\u002A\u002A*%
X98742500Y-38100000D03*
%TD*%
D12*
%TO.C,C4*%
X56842600Y-36245800D03*
X55882600Y-36245800D03*
%TD*%
D13*
%TO.C,C7*%
X57813000Y-36245800D03*
X58773000Y-36245800D03*
%TD*%
D14*
%TO.C,C1*%
X56525200Y-37693600D03*
X54625200Y-37693600D03*
%TD*%
D15*
%TO.C,P5*%
X86360000Y-43637200D03*
D16*
X86360000Y-39878000D03*
%TD*%
D12*
%TO.C,C2*%
X58569800Y-28676600D03*
X57609800Y-28676600D03*
%TD*%
D15*
%TO.C,P2*%
X68580000Y-44754800D03*
D16*
X68580000Y-40995600D03*
%TD*%
D14*
%TO.C,C3*%
X53909000Y-42062400D03*
X52009000Y-42062400D03*
%TD*%
D17*
%TO.C,C19*%
X66893400Y-34340800D03*
X68793400Y-34340800D03*
%TD*%
D18*
%TO.C,C11*%
X61290200Y-33373000D03*
X61290200Y-32413000D03*
%TD*%
D19*
%TO.C,D2*%
X81328600Y-37871400D03*
X84228600Y-37871400D03*
%TD*%
D18*
%TO.C,C8*%
X50342800Y-40511200D03*
X50342800Y-39551200D03*
%TD*%
D20*
%TO.C,U3*%
X59847800Y-30403800D03*
D21*
X60040300Y-32043800D03*
D22*
X59740300Y-32593800D03*
D23*
X59765300Y-33218800D03*
D24*
X59940300Y-33893800D03*
D25*
X60192800Y-34518800D03*
D26*
X57602800Y-35181300D03*
D27*
X57052800Y-35181300D03*
D28*
X54462800Y-34518800D03*
D29*
X54715300Y-33893800D03*
D30*
X54890300Y-33218800D03*
D31*
X54915300Y-32593800D03*
D32*
X54615300Y-32043800D03*
D33*
X54807800Y-30403800D03*
D34*
X55327800Y-30943800D03*
X55827800Y-30943800D03*
D35*
X56327800Y-30943800D03*
D34*
X56827800Y-30943800D03*
X57327800Y-30943800D03*
X57827800Y-30943800D03*
D36*
X58327800Y-30943800D03*
D34*
X58827800Y-30943800D03*
X59327800Y-30943800D03*
%TD*%
D13*
%TO.C,C20*%
X82247800Y-36347400D03*
X83207800Y-36347400D03*
%TD*%
D12*
%TO.C,C5*%
X57757000Y-29616400D03*
X56797000Y-29616400D03*
%TD*%
D15*
%TO.C,P1*%
X66040000Y-43637200D03*
D16*
X66040000Y-39878000D03*
%TD*%
D37*
%TO.C,Q1*%
X62207600Y-40630200D03*
X62207600Y-41280200D03*
X62207600Y-41930200D03*
X62207600Y-42580200D03*
D38*
X60807600Y-41605200D03*
%TD*%
D39*
%TO.C,U7*%
X48518400Y-38066600D03*
D40*
X48493400Y-37566600D03*
X48493400Y-37066600D03*
X49093400Y-37066600D03*
X49093400Y-37566600D03*
X49093400Y-38066600D03*
%TD*%
D13*
%TO.C,C12*%
X55755600Y-28676600D03*
X56715600Y-28676600D03*
%TD*%
D14*
%TO.C,C14*%
X47813000Y-30378400D03*
X45913000Y-30378400D03*
%TD*%
D18*
%TO.C,C10*%
X53365400Y-33398400D03*
X53365400Y-32438400D03*
%TD*%
D19*
%TO.C,D1*%
X65883800Y-37515800D03*
X68783800Y-37515800D03*
%TD*%
D41*
%TO.C,U2*%
X51221200Y-40706600D03*
X51221200Y-40056600D03*
X51221200Y-39406600D03*
X53071200Y-39406600D03*
X53071200Y-40056600D03*
X53071200Y-40706600D03*
D42*
X52146200Y-40056600D03*
%TD*%
D17*
%TO.C,C16*%
X66893400Y-30378400D03*
X68793400Y-30378400D03*
%TD*%
D14*
%TO.C,C17*%
X47813000Y-34340800D03*
X45913000Y-34340800D03*
%TD*%
D43*
%TO.C,U5*%
X62803800Y-39213200D03*
X62153800Y-39213200D03*
X61503800Y-39213200D03*
X61503800Y-37393200D03*
X62153800Y-37393200D03*
X62803800Y-37393200D03*
D44*
X62153800Y-38303200D03*
%TD*%
D45*
%TO.C,R14*%
X63019400Y-46659800D03*
X61999400Y-46659800D03*
%TD*%
D46*
%TO.C,L1*%
X51883400Y-33223200D03*
X49513400Y-33223200D03*
%TD*%
D15*
%TO.C,P4*%
X83820000Y-44754800D03*
D16*
X83820000Y-40995600D03*
%TD*%
D14*
%TO.C,C15*%
X47813000Y-32359600D03*
X45913000Y-32359600D03*
%TD*%
D18*
%TO.C,C9*%
X49377600Y-40511200D03*
X49377600Y-39551200D03*
%TD*%
D47*
%TO.C,L2*%
X62823000Y-33223200D03*
X65193000Y-33223200D03*
%TD*%
D48*
%TO.C,U1*%
X72640400Y-39313600D03*
D49*
X72190400Y-39313600D03*
D50*
X72415400Y-38613600D03*
%TD*%
D51*
%TO.C,FID2*%
X40894000Y-29210000D03*
%TD*%
%TO.C,FID6*%
X40894000Y-46990000D03*
%TD*%
D52*
%TO.C,R1*%
X60958000Y-29641800D03*
X61978000Y-29641800D03*
%TD*%
D12*
%TO.C,C22*%
X49222600Y-36195000D03*
X48262600Y-36195000D03*
%TD*%
D53*
%TO.C,Q2*%
X57325500Y-45049400D03*
X57325500Y-46949400D03*
X55450500Y-45999400D03*
%TD*%
D52*
%TO.C,R2*%
X53846000Y-29641800D03*
X54866000Y-29641800D03*
%TD*%
D54*
%TO.C,U6*%
X45770800Y-41008300D03*
D55*
X45770800Y-39268400D03*
D56*
X48310800Y-39268400D03*
X48310800Y-41198800D03*
%TD*%
D12*
%TO.C,C13*%
X60424000Y-28676600D03*
X59464000Y-28676600D03*
%TD*%
D57*
%TO.C,R13*%
X45796200Y-38076600D03*
X45796200Y-37056600D03*
%TD*%
D58*
%TO.C,U4*%
X85044300Y-32633000D03*
X85044300Y-31683000D03*
X85044300Y-30733000D03*
X88019300Y-30733000D03*
X88019300Y-31683000D03*
X88019300Y-32633000D03*
D59*
X86531800Y-31683000D03*
%TD*%
D45*
%TO.C,R11*%
X62308200Y-44754800D03*
X61288200Y-44754800D03*
%TD*%
D51*
%TO.C,FID4*%
X99491800Y-29210000D03*
%TD*%
D17*
%TO.C,C6*%
X58130400Y-37693600D03*
X60030400Y-37693600D03*
%TD*%
D60*
%TO.C,R10*%
X83864800Y-31681000D03*
X83864800Y-32701000D03*
%TD*%
D17*
%TO.C,C18*%
X66893400Y-32359600D03*
X68793400Y-32359600D03*
%TD*%
D61*
%TO.C,L3*%
X82253600Y-34654800D03*
X84053600Y-34654800D03*
%TD*%
D15*
%TO.C,P3*%
X71120000Y-43637200D03*
X81280000Y-43637200D03*
D62*
X71120000Y-39878000D03*
D63*
X73660000Y-39878000D03*
X76200000Y-39878000D03*
X78740000Y-39878000D03*
X81280000Y-39878000D03*
%TD*%
D64*
%TO.C,R12*%
X47117000Y-45567600D03*
X53263800Y-45567600D03*
%TD*%
D12*
%TO.C,C21*%
X62989400Y-36449000D03*
X62029400Y-36449000D03*
%TD*%
M02*
