%TF.GenerationSoftware,KiCad,Pcbnew,8.0.3*%
%TF.CreationDate,2024-09-11T14:35:31-04:00*%
%TF.ProjectId,100068622-001_Rev1,31303030-3638-4363-9232-2d3030315f52,1*%
%TF.SameCoordinates,Original*%
%TF.FileFunction,Copper,L3,Inr*%
%TF.FilePolarity,Positive*%
%FSLAX46Y46*%
G04 Gerber Fmt 4.6, Leading zero omitted, Abs format (unit mm)*
G04 Created by KiCad (PCBNEW 8.0.3) date 2024-09-11 14:35:31*
%MOMM*%
%LPD*%
G01*
G04 APERTURE LIST*
%ADD10C,0.254000*%
%TA.AperFunction,NonConductor*%
%ADD11C,0.254000*%
%TD*%
%TA.AperFunction,ComponentPad*%
%ADD12R,1.625600X1.625600*%
%TD*%
%TA.AperFunction,ComponentPad*%
%ADD13C,1.625600*%
%TD*%
%TA.AperFunction,ViaPad*%
%ADD14C,0.355600*%
%TD*%
%TA.AperFunction,Conductor*%
%ADD15C,0.177800*%
%TD*%
%ADD16C,0.152400*%
%ADD17C,0.350000*%
G04 APERTURE END LIST*
D10*
D11*
X58238572Y-62623433D02*
X58238572Y-60591433D01*
X59206191Y-62623433D02*
X59206191Y-60591433D01*
X59206191Y-60591433D02*
X60367334Y-62623433D01*
X60367334Y-62623433D02*
X60367334Y-60591433D01*
X61334953Y-62623433D02*
X61334953Y-60591433D01*
X61334953Y-60591433D02*
X62496096Y-62623433D01*
X62496096Y-62623433D02*
X62496096Y-60591433D01*
X63463715Y-61559052D02*
X64141048Y-61559052D01*
X64431334Y-62623433D02*
X63463715Y-62623433D01*
X63463715Y-62623433D02*
X63463715Y-60591433D01*
X63463715Y-60591433D02*
X64431334Y-60591433D01*
X66463334Y-62623433D02*
X65786001Y-61655814D01*
X65302191Y-62623433D02*
X65302191Y-60591433D01*
X65302191Y-60591433D02*
X66076286Y-60591433D01*
X66076286Y-60591433D02*
X66269810Y-60688195D01*
X66269810Y-60688195D02*
X66366572Y-60784957D01*
X66366572Y-60784957D02*
X66463334Y-60978481D01*
X66463334Y-60978481D02*
X66463334Y-61268767D01*
X66463334Y-61268767D02*
X66366572Y-61462291D01*
X66366572Y-61462291D02*
X66269810Y-61559052D01*
X66269810Y-61559052D02*
X66076286Y-61655814D01*
X66076286Y-61655814D02*
X65302191Y-61655814D01*
X68785619Y-60784957D02*
X68882381Y-60688195D01*
X68882381Y-60688195D02*
X69075905Y-60591433D01*
X69075905Y-60591433D02*
X69559714Y-60591433D01*
X69559714Y-60591433D02*
X69753238Y-60688195D01*
X69753238Y-60688195D02*
X69850000Y-60784957D01*
X69850000Y-60784957D02*
X69946762Y-60978481D01*
X69946762Y-60978481D02*
X69946762Y-61172005D01*
X69946762Y-61172005D02*
X69850000Y-61462291D01*
X69850000Y-61462291D02*
X68688857Y-62623433D01*
X68688857Y-62623433D02*
X69946762Y-62623433D01*
X73526952Y-62429910D02*
X73430190Y-62526672D01*
X73430190Y-62526672D02*
X73139904Y-62623433D01*
X73139904Y-62623433D02*
X72946380Y-62623433D01*
X72946380Y-62623433D02*
X72656095Y-62526672D01*
X72656095Y-62526672D02*
X72462571Y-62333148D01*
X72462571Y-62333148D02*
X72365809Y-62139624D01*
X72365809Y-62139624D02*
X72269047Y-61752576D01*
X72269047Y-61752576D02*
X72269047Y-61462291D01*
X72269047Y-61462291D02*
X72365809Y-61075243D01*
X72365809Y-61075243D02*
X72462571Y-60881719D01*
X72462571Y-60881719D02*
X72656095Y-60688195D01*
X72656095Y-60688195D02*
X72946380Y-60591433D01*
X72946380Y-60591433D02*
X73139904Y-60591433D01*
X73139904Y-60591433D02*
X73430190Y-60688195D01*
X73430190Y-60688195D02*
X73526952Y-60784957D01*
X74784857Y-60591433D02*
X75171904Y-60591433D01*
X75171904Y-60591433D02*
X75365428Y-60688195D01*
X75365428Y-60688195D02*
X75558952Y-60881719D01*
X75558952Y-60881719D02*
X75655714Y-61268767D01*
X75655714Y-61268767D02*
X75655714Y-61946100D01*
X75655714Y-61946100D02*
X75558952Y-62333148D01*
X75558952Y-62333148D02*
X75365428Y-62526672D01*
X75365428Y-62526672D02*
X75171904Y-62623433D01*
X75171904Y-62623433D02*
X74784857Y-62623433D01*
X74784857Y-62623433D02*
X74591333Y-62526672D01*
X74591333Y-62526672D02*
X74397809Y-62333148D01*
X74397809Y-62333148D02*
X74301047Y-61946100D01*
X74301047Y-61946100D02*
X74301047Y-61268767D01*
X74301047Y-61268767D02*
X74397809Y-60881719D01*
X74397809Y-60881719D02*
X74591333Y-60688195D01*
X74591333Y-60688195D02*
X74784857Y-60591433D01*
X76526571Y-62623433D02*
X76526571Y-60591433D01*
X76526571Y-60591433D02*
X77300666Y-60591433D01*
X77300666Y-60591433D02*
X77494190Y-60688195D01*
X77494190Y-60688195D02*
X77590952Y-60784957D01*
X77590952Y-60784957D02*
X77687714Y-60978481D01*
X77687714Y-60978481D02*
X77687714Y-61268767D01*
X77687714Y-61268767D02*
X77590952Y-61462291D01*
X77590952Y-61462291D02*
X77494190Y-61559052D01*
X77494190Y-61559052D02*
X77300666Y-61655814D01*
X77300666Y-61655814D02*
X76526571Y-61655814D01*
X78558571Y-62623433D02*
X78558571Y-60591433D01*
X78558571Y-60591433D02*
X79332666Y-60591433D01*
X79332666Y-60591433D02*
X79526190Y-60688195D01*
X79526190Y-60688195D02*
X79622952Y-60784957D01*
X79622952Y-60784957D02*
X79719714Y-60978481D01*
X79719714Y-60978481D02*
X79719714Y-61268767D01*
X79719714Y-61268767D02*
X79622952Y-61462291D01*
X79622952Y-61462291D02*
X79526190Y-61559052D01*
X79526190Y-61559052D02*
X79332666Y-61655814D01*
X79332666Y-61655814D02*
X78558571Y-61655814D01*
X80590571Y-61559052D02*
X81267904Y-61559052D01*
X81558190Y-62623433D02*
X80590571Y-62623433D01*
X80590571Y-62623433D02*
X80590571Y-60591433D01*
X80590571Y-60591433D02*
X81558190Y-60591433D01*
X83590190Y-62623433D02*
X82912857Y-61655814D01*
X82429047Y-62623433D02*
X82429047Y-60591433D01*
X82429047Y-60591433D02*
X83203142Y-60591433D01*
X83203142Y-60591433D02*
X83396666Y-60688195D01*
X83396666Y-60688195D02*
X83493428Y-60784957D01*
X83493428Y-60784957D02*
X83590190Y-60978481D01*
X83590190Y-60978481D02*
X83590190Y-61268767D01*
X83590190Y-61268767D02*
X83493428Y-61462291D01*
X83493428Y-61462291D02*
X83396666Y-61559052D01*
X83396666Y-61559052D02*
X83203142Y-61655814D01*
X83203142Y-61655814D02*
X82429047Y-61655814D01*
D12*
%TO.N,/Block Diagram/VBATT*%
%TO.C,P5*%
X86360000Y-39878000D03*
%TD*%
%TO.N,GND*%
%TO.C,P2*%
X68580000Y-40995600D03*
%TD*%
%TO.N,/Block Diagram/VBATT*%
%TO.C,P1*%
X66040000Y-39878000D03*
%TD*%
%TO.N,GND*%
%TO.C,P4*%
X83820000Y-40995600D03*
%TD*%
%TO.N,/Block Diagram/USB_D+*%
%TO.C,P3*%
X71120000Y-39878000D03*
D13*
%TO.N,/Block Diagram/USB_D-*%
X73660000Y-39878000D03*
%TO.N,/Block Diagram/GPIO1*%
X76200000Y-39878000D03*
%TO.N,/Block Diagram/GPIO0*%
X78740000Y-39878000D03*
%TO.N,/Block Diagram/DETECT*%
X81280000Y-39878000D03*
%TD*%
D14*
%TO.N,GND*%
X55753000Y-35077400D03*
X84455000Y-28956000D03*
X71120000Y-30480000D03*
X55118000Y-34544000D03*
X60030400Y-37693600D03*
X54381400Y-36118800D03*
X58166000Y-33909000D03*
X51054000Y-46228000D03*
X76200000Y-46736000D03*
X51054000Y-43180000D03*
X58674000Y-32893000D03*
X71653400Y-38303200D03*
X50292000Y-43180000D03*
X59944000Y-38227000D03*
X58293000Y-33274000D03*
X49530000Y-45212000D03*
X94107000Y-29210000D03*
X56515000Y-33909000D03*
X90500200Y-30175200D03*
X58928000Y-34544000D03*
X49530000Y-44704000D03*
X70612000Y-30988000D03*
X75819000Y-35331400D03*
X56515000Y-34417000D03*
X51054000Y-44704000D03*
X45913000Y-30378400D03*
X57609800Y-28676600D03*
X48006000Y-37566600D03*
X50292000Y-44704000D03*
X71120000Y-30988000D03*
X70612000Y-30480000D03*
X80949800Y-32438400D03*
X78232000Y-32258000D03*
X62484000Y-38354000D03*
X56388000Y-33274000D03*
X51054000Y-45720000D03*
X61976000Y-46736000D03*
X50292000Y-45720000D03*
X58801000Y-33782000D03*
X54356000Y-35153600D03*
X54625200Y-37693600D03*
X54462800Y-34518800D03*
X56007000Y-32893000D03*
X70104000Y-30988000D03*
X48920400Y-39878000D03*
X55880000Y-33782000D03*
X77622400Y-35763200D03*
X47117000Y-44323000D03*
X74904600Y-36220400D03*
X69240400Y-37211000D03*
X54991000Y-35128200D03*
X54610000Y-38227000D03*
X55372000Y-47498000D03*
X76835000Y-29083000D03*
X75285600Y-33909000D03*
X60807600Y-34315400D03*
X58773000Y-36144200D03*
X55905400Y-36245800D03*
X55753000Y-34544000D03*
X47117000Y-46863000D03*
X51054000Y-45212000D03*
X49530000Y-44196000D03*
X62153800Y-37393200D03*
X91948000Y-34033400D03*
X53746400Y-35128200D03*
X54610000Y-37211000D03*
X59740800Y-37185600D03*
X50292000Y-44196000D03*
X73177400Y-38303200D03*
X50292000Y-43688000D03*
X50292000Y-45212000D03*
X70104000Y-30480000D03*
X53746400Y-36118800D03*
X45796200Y-37056600D03*
X51054000Y-44196000D03*
X93472000Y-46355000D03*
X73304400Y-35890200D03*
X50292000Y-46228000D03*
X45913000Y-34340800D03*
X58166000Y-34417000D03*
X47117000Y-45567600D03*
X83058000Y-32715200D03*
X51054000Y-43688000D03*
X77216000Y-34290000D03*
X83207800Y-36347400D03*
X52009000Y-42062400D03*
X77952600Y-33451800D03*
X45913000Y-32359600D03*
X61722000Y-38354000D03*
X48262600Y-36195000D03*
%TO.N,VBATT_PROT*%
X58166000Y-40386000D03*
X56642000Y-40894000D03*
X57404000Y-41402000D03*
X58166000Y-41402000D03*
X58166000Y-42926000D03*
X58166000Y-40894000D03*
X58166000Y-39878000D03*
X57404000Y-42926000D03*
X57404000Y-41910000D03*
X56642000Y-41910000D03*
X57404000Y-39878000D03*
X58166000Y-42418000D03*
X56642000Y-41402000D03*
X57404000Y-40386000D03*
X57404000Y-42418000D03*
X56525200Y-37693600D03*
X58166000Y-41910000D03*
X58130400Y-37693600D03*
X57327800Y-36027400D03*
X57404000Y-40894000D03*
%TO.N,GNDA*%
X59867800Y-31445200D03*
X57327800Y-31877000D03*
%TO.N,/Block Diagram/VOUT1*%
X50546000Y-36322000D03*
X49530000Y-31750000D03*
X50546000Y-35814000D03*
X49530000Y-33020000D03*
X50671000Y-32105600D03*
X51054000Y-36322000D03*
X51054000Y-35814000D03*
X51054000Y-35306000D03*
X50546000Y-35306000D03*
X50657200Y-31140400D03*
X49530000Y-34544000D03*
%TO.N,/Block Diagram/VOUT2*%
X66649600Y-34036000D03*
X63996200Y-31140400D03*
X65193000Y-33223200D03*
X66649600Y-34798000D03*
X67183000Y-34340800D03*
X70612000Y-34798000D03*
X70612000Y-34036000D03*
X70612000Y-33274000D03*
X65024000Y-34544000D03*
X65024000Y-32004000D03*
X64021600Y-33629600D03*
%TO.N,Net-(JP1-A)*%
X55854600Y-30226000D03*
%TO.N,Net-(JP2-A)*%
X58826400Y-30276800D03*
%TO.N,/Block Diagram/VBATT*%
X64262000Y-40386000D03*
X64262000Y-42926000D03*
X63500000Y-40386000D03*
X64262000Y-41910000D03*
X63500000Y-42418000D03*
X64262000Y-41402000D03*
X63500000Y-40894000D03*
X64262000Y-42418000D03*
X64262000Y-40894000D03*
X63500000Y-42926000D03*
X63500000Y-41910000D03*
X63500000Y-41402000D03*
%TO.N,/Block Diagram/Power Supplies/P3V3_AUX*%
X46736000Y-42164000D03*
X46736000Y-41656000D03*
X53848000Y-29210000D03*
X61976000Y-29210000D03*
X80949800Y-33398400D03*
X49606200Y-37566600D03*
X49222600Y-36195000D03*
X47244000Y-42164000D03*
X47244000Y-41656000D03*
%TO.N,/Block Diagram/PGOOD1*%
X54866000Y-29210000D03*
%TO.N,/Block Diagram/PGOOD2*%
X60960000Y-29210000D03*
%TO.N,/Block Diagram/GPIO0*%
X90855800Y-31826200D03*
%TO.N,/Block Diagram/GPIO1*%
X84836000Y-36550600D03*
%TO.N,Net-(Q1-G)*%
X62207600Y-42580200D03*
X62153800Y-39213200D03*
%TO.N,Net-(Q2-G)*%
X57325500Y-45049400D03*
X61288200Y-44754800D03*
%TO.N,/Block Diagram/Data Switches/RESET*%
X48493400Y-37066600D03*
X53263800Y-36728400D03*
X81076800Y-35356800D03*
X49093400Y-38066600D03*
%TO.N,Net-(U7-2Y)*%
X49093400Y-37066600D03*
X91948000Y-33073400D03*
X50266600Y-37490400D03*
%TD*%
D15*
%TO.N,GNDA*%
X59436000Y-31877000D02*
X59867800Y-31445200D01*
X57327800Y-31877000D02*
X59436000Y-31877000D01*
%TO.N,/Block Diagram/GPIO0*%
X84785200Y-38404800D02*
X91465400Y-38404800D01*
X91465400Y-38404800D02*
X94284800Y-35585400D01*
X91084400Y-31597600D02*
X90855800Y-31826200D01*
X78740000Y-39878000D02*
X80010000Y-38608000D01*
X84582000Y-38608000D02*
X84785200Y-38404800D01*
X93726000Y-31597600D02*
X91084400Y-31597600D01*
X80010000Y-38608000D02*
X84582000Y-38608000D01*
X94284800Y-32156400D02*
X93726000Y-31597600D01*
X94284800Y-35585400D02*
X94284800Y-32156400D01*
%TO.N,/Block Diagram/GPIO1*%
X83743800Y-37642800D02*
X78435200Y-37642800D01*
X78435200Y-37642800D02*
X76200000Y-39878000D01*
X84836000Y-36550600D02*
X83743800Y-37642800D01*
%TO.N,/Block Diagram/Data Switches/RESET*%
X81076800Y-35382200D02*
X79730600Y-36728400D01*
X81076800Y-35356800D02*
X81076800Y-35382200D01*
X79730600Y-36728400D02*
X53263800Y-36728400D01*
%TO.N,Net-(U7-2Y)*%
X50901600Y-37490400D02*
X50266600Y-37490400D01*
X52806600Y-35585400D02*
X50901600Y-37490400D01*
X71475600Y-35585400D02*
X52806600Y-35585400D01*
X91948000Y-33073400D02*
X90223400Y-34798000D01*
X90223400Y-34798000D02*
X72263000Y-34798000D01*
X72263000Y-34798000D02*
X71475600Y-35585400D01*
%TD*%
%TA.AperFunction,Conductor*%
%TO.N,GND*%
G36*
X98427866Y-27940688D02*
G01*
X98667842Y-27956416D01*
X98679233Y-27957916D01*
X98912271Y-28004270D01*
X98923374Y-28007245D01*
X99148371Y-28083621D01*
X99158978Y-28088014D01*
X99372094Y-28193112D01*
X99382024Y-28198845D01*
X99579596Y-28330857D01*
X99588711Y-28337851D01*
X99767353Y-28494516D01*
X99775483Y-28502646D01*
X99932148Y-28681288D01*
X99939143Y-28690405D01*
X100071151Y-28887970D01*
X100076890Y-28897910D01*
X100143911Y-29033815D01*
X100181981Y-29111013D01*
X100186381Y-29121636D01*
X100262753Y-29346624D01*
X100265729Y-29357730D01*
X100312082Y-29590762D01*
X100313583Y-29602161D01*
X100329312Y-29842133D01*
X100329500Y-29847882D01*
X100329500Y-37299599D01*
X100308935Y-37356100D01*
X100256864Y-37386164D01*
X100197650Y-37375723D01*
X100166653Y-37345527D01*
X100047830Y-37151627D01*
X100047829Y-37151626D01*
X100047828Y-37151624D01*
X99883398Y-36959102D01*
X99690876Y-36794672D01*
X99690874Y-36794670D01*
X99690872Y-36794669D01*
X99475009Y-36662388D01*
X99475006Y-36662386D01*
X99475002Y-36662384D01*
X99429325Y-36643464D01*
X99241091Y-36565494D01*
X98994911Y-36506392D01*
X98994904Y-36506391D01*
X98742500Y-36486526D01*
X98490095Y-36506391D01*
X98490088Y-36506392D01*
X98243908Y-36565494D01*
X98010000Y-36662383D01*
X98009990Y-36662388D01*
X97794127Y-36794669D01*
X97601602Y-36959102D01*
X97437169Y-37151627D01*
X97304888Y-37367490D01*
X97304883Y-37367500D01*
X97207994Y-37601408D01*
X97148892Y-37847588D01*
X97148891Y-37847595D01*
X97129026Y-38099999D01*
X97129026Y-38100000D01*
X97148891Y-38352404D01*
X97148892Y-38352411D01*
X97207994Y-38598591D01*
X97262869Y-38731069D01*
X97302250Y-38826144D01*
X97304883Y-38832499D01*
X97304888Y-38832509D01*
X97437169Y-39048372D01*
X97437170Y-39048374D01*
X97437172Y-39048376D01*
X97601602Y-39240898D01*
X97794124Y-39405328D01*
X97794126Y-39405329D01*
X97794127Y-39405330D01*
X97895726Y-39467590D01*
X98009998Y-39537616D01*
X98157579Y-39598746D01*
X98243908Y-39634505D01*
X98490088Y-39693607D01*
X98490089Y-39693607D01*
X98490097Y-39693609D01*
X98742500Y-39713474D01*
X98994903Y-39693609D01*
X99241091Y-39634505D01*
X99475002Y-39537616D01*
X99690876Y-39405328D01*
X99883398Y-39240898D01*
X100047828Y-39048376D01*
X100147985Y-38884935D01*
X100166653Y-38854472D01*
X100213709Y-38817042D01*
X100273816Y-38818616D01*
X100318848Y-38858458D01*
X100329500Y-38900400D01*
X100329500Y-46352133D01*
X100329312Y-46357875D01*
X100313624Y-46597527D01*
X100312127Y-46608912D01*
X100265893Y-46841655D01*
X100262925Y-46852748D01*
X100186744Y-47077479D01*
X100182355Y-47088089D01*
X100077532Y-47300970D01*
X100071797Y-47310919D01*
X99940118Y-47508316D01*
X99933136Y-47517432D01*
X99776841Y-47695987D01*
X99768729Y-47704115D01*
X99590497Y-47860768D01*
X99581395Y-47867769D01*
X99384267Y-47999848D01*
X99374331Y-48005603D01*
X99161664Y-48110861D01*
X99151061Y-48115272D01*
X98926477Y-48191911D01*
X98915391Y-48194901D01*
X98682748Y-48241607D01*
X98671366Y-48243127D01*
X98431779Y-48259300D01*
X98425859Y-48259500D01*
X92382388Y-48259500D01*
X92325887Y-48238935D01*
X92295823Y-48186864D01*
X92295736Y-48186362D01*
X92293069Y-48170588D01*
X92276246Y-48113415D01*
X92244154Y-48004345D01*
X92241922Y-47996760D01*
X92170547Y-47830214D01*
X92161694Y-47814877D01*
X92161649Y-47814785D01*
X92154505Y-47802412D01*
X92125255Y-47751750D01*
X92125255Y-47751749D01*
X92068133Y-47652810D01*
X91925670Y-47474168D01*
X91758174Y-47318754D01*
X91644939Y-47241553D01*
X91569381Y-47190038D01*
X91363524Y-47090903D01*
X91320004Y-47077479D01*
X91145181Y-47023554D01*
X91145179Y-47023553D01*
X91145177Y-47023553D01*
X91016740Y-47004194D01*
X90919241Y-46989499D01*
X90919239Y-46989499D01*
X90804995Y-46989500D01*
X61480747Y-46989500D01*
X61254816Y-47023554D01*
X61254813Y-47023554D01*
X61254812Y-47023555D01*
X61036473Y-47090905D01*
X61036467Y-47090907D01*
X60830614Y-47190040D01*
X60830604Y-47190046D01*
X60641823Y-47318756D01*
X60474330Y-47474167D01*
X60331867Y-47652810D01*
X60274745Y-47751749D01*
X60274744Y-47751750D01*
X60238796Y-47814010D01*
X60238745Y-47814113D01*
X60229455Y-47830208D01*
X60229450Y-47830218D01*
X60158078Y-47996756D01*
X60158078Y-47996757D01*
X60158077Y-47996760D01*
X60106932Y-48170583D01*
X60106929Y-48170593D01*
X60104279Y-48186261D01*
X60074578Y-48238541D01*
X60018222Y-48259498D01*
X60017610Y-48259500D01*
X41912879Y-48259500D01*
X41907130Y-48259312D01*
X41667157Y-48243582D01*
X41655757Y-48242081D01*
X41422726Y-48195728D01*
X41411621Y-48192752D01*
X41186634Y-48116380D01*
X41176011Y-48111980D01*
X41158659Y-48103423D01*
X40962911Y-48006891D01*
X40952965Y-48001148D01*
X40755402Y-47869140D01*
X40746281Y-47862141D01*
X40730672Y-47848452D01*
X40567639Y-47705477D01*
X40559522Y-47697360D01*
X40402857Y-47518717D01*
X40395859Y-47509597D01*
X40371672Y-47473399D01*
X40263848Y-47312029D01*
X40258111Y-47302093D01*
X40153015Y-47088980D01*
X40148622Y-47078373D01*
X40072246Y-46853377D01*
X40069271Y-46842273D01*
X40022918Y-46609242D01*
X40021417Y-46597842D01*
X40021396Y-46597527D01*
X40005688Y-46357870D01*
X40005500Y-46352121D01*
X40005500Y-45049396D01*
X56888755Y-45049396D01*
X56888755Y-45049403D01*
X56906444Y-45172438D01*
X56906445Y-45172443D01*
X56906446Y-45172445D01*
X56958087Y-45285522D01*
X57039493Y-45379470D01*
X57144070Y-45446677D01*
X57144072Y-45446677D01*
X57144073Y-45446678D01*
X57263340Y-45481699D01*
X57263344Y-45481700D01*
X57263345Y-45481700D01*
X57387656Y-45481700D01*
X57387659Y-45481699D01*
X57447292Y-45464188D01*
X57506930Y-45446677D01*
X57611507Y-45379470D01*
X57692913Y-45285522D01*
X57744554Y-45172445D01*
X57747482Y-45152078D01*
X57762245Y-45049403D01*
X57762245Y-45049396D01*
X57744555Y-44926361D01*
X57744554Y-44926360D01*
X57744554Y-44926355D01*
X57692913Y-44813278D01*
X57642238Y-44754796D01*
X60851455Y-44754796D01*
X60851455Y-44754803D01*
X60869144Y-44877838D01*
X60869145Y-44877843D01*
X60869146Y-44877845D01*
X60920787Y-44990922D01*
X61002193Y-45084870D01*
X61106770Y-45152077D01*
X61106772Y-45152077D01*
X61106773Y-45152078D01*
X61226040Y-45187099D01*
X61226044Y-45187100D01*
X61226045Y-45187100D01*
X61350356Y-45187100D01*
X61350359Y-45187099D01*
X61409992Y-45169588D01*
X61469630Y-45152077D01*
X61574207Y-45084870D01*
X61655613Y-44990922D01*
X61707254Y-44877845D01*
X61724945Y-44754800D01*
X61724945Y-44754796D01*
X61707255Y-44631761D01*
X61707254Y-44631760D01*
X61707254Y-44631755D01*
X61655613Y-44518678D01*
X61574207Y-44424730D01*
X61574205Y-44424729D01*
X61574203Y-44424727D01*
X61469632Y-44357524D01*
X61469626Y-44357521D01*
X61350359Y-44322500D01*
X61350355Y-44322500D01*
X61226045Y-44322500D01*
X61226040Y-44322500D01*
X61106773Y-44357521D01*
X61106767Y-44357524D01*
X61002196Y-44424727D01*
X61002191Y-44424731D01*
X60920786Y-44518679D01*
X60869146Y-44631755D01*
X60869144Y-44631761D01*
X60851455Y-44754796D01*
X57642238Y-44754796D01*
X57611507Y-44719330D01*
X57611505Y-44719329D01*
X57611503Y-44719327D01*
X57506932Y-44652124D01*
X57506926Y-44652121D01*
X57387659Y-44617100D01*
X57387655Y-44617100D01*
X57263345Y-44617100D01*
X57263340Y-44617100D01*
X57144073Y-44652121D01*
X57144067Y-44652124D01*
X57039496Y-44719327D01*
X57039491Y-44719331D01*
X56958086Y-44813279D01*
X56906446Y-44926355D01*
X56906444Y-44926361D01*
X56888755Y-45049396D01*
X40005500Y-45049396D01*
X40005500Y-43273400D01*
X40026065Y-43216899D01*
X40078136Y-43186835D01*
X40093400Y-43185500D01*
X47664110Y-43185500D01*
X47686689Y-43184514D01*
X47686690Y-43184513D01*
X47686710Y-43184513D01*
X47701974Y-43183178D01*
X47713238Y-43181945D01*
X47809117Y-43149397D01*
X47861188Y-43119333D01*
X47922758Y-43069918D01*
X47975285Y-42983356D01*
X47995850Y-42926855D01*
X48011500Y-42838100D01*
X48011500Y-40893996D01*
X56205255Y-40893996D01*
X56205255Y-40894003D01*
X56222944Y-41017038D01*
X56222946Y-41017044D01*
X56266075Y-41111485D01*
X56270840Y-41171423D01*
X56266075Y-41184515D01*
X56222946Y-41278955D01*
X56222944Y-41278961D01*
X56205255Y-41401996D01*
X56205255Y-41402003D01*
X56222944Y-41525038D01*
X56222946Y-41525044D01*
X56266075Y-41619485D01*
X56270840Y-41679423D01*
X56266075Y-41692515D01*
X56222946Y-41786955D01*
X56222944Y-41786961D01*
X56205255Y-41909996D01*
X56205255Y-41910003D01*
X56222944Y-42033038D01*
X56222945Y-42033043D01*
X56222946Y-42033045D01*
X56274587Y-42146122D01*
X56355993Y-42240070D01*
X56460570Y-42307277D01*
X56460572Y-42307277D01*
X56460573Y-42307278D01*
X56579840Y-42342299D01*
X56579844Y-42342300D01*
X56579845Y-42342300D01*
X56704156Y-42342300D01*
X56704159Y-42342299D01*
X56763792Y-42324788D01*
X56823430Y-42307277D01*
X56837517Y-42298223D01*
X56896164Y-42284975D01*
X56949608Y-42312524D01*
X56972840Y-42367982D01*
X56972046Y-42384676D01*
X56967255Y-42418002D01*
X56967255Y-42418003D01*
X56984944Y-42541038D01*
X56984946Y-42541044D01*
X57028075Y-42635485D01*
X57032840Y-42695423D01*
X57028075Y-42708515D01*
X56984946Y-42802955D01*
X56984944Y-42802961D01*
X56967255Y-42925996D01*
X56967255Y-42926003D01*
X56984944Y-43049038D01*
X56984945Y-43049043D01*
X56984946Y-43049045D01*
X57036587Y-43162122D01*
X57089431Y-43223107D01*
X57117989Y-43256066D01*
X57117993Y-43256070D01*
X57222570Y-43323277D01*
X57222572Y-43323277D01*
X57222573Y-43323278D01*
X57341840Y-43358299D01*
X57341844Y-43358300D01*
X57341845Y-43358300D01*
X57466156Y-43358300D01*
X57466159Y-43358299D01*
X57525792Y-43340788D01*
X57585430Y-43323277D01*
X57690007Y-43256070D01*
X57718569Y-43223106D01*
X57771111Y-43193873D01*
X57830152Y-43205252D01*
X57851431Y-43223107D01*
X57879989Y-43256066D01*
X57879993Y-43256070D01*
X57984570Y-43323277D01*
X57984572Y-43323277D01*
X57984573Y-43323278D01*
X58103840Y-43358299D01*
X58103844Y-43358300D01*
X58103845Y-43358300D01*
X58228156Y-43358300D01*
X58228159Y-43358299D01*
X58287792Y-43340788D01*
X58347430Y-43323277D01*
X58452007Y-43256070D01*
X58533413Y-43162122D01*
X58585054Y-43049045D01*
X58590308Y-43012500D01*
X58602745Y-42926003D01*
X58602745Y-42925996D01*
X58585055Y-42802961D01*
X58585054Y-42802960D01*
X58585054Y-42802955D01*
X58541923Y-42708514D01*
X58537159Y-42648577D01*
X58541924Y-42635485D01*
X58547000Y-42624370D01*
X58567174Y-42580196D01*
X61770855Y-42580196D01*
X61770855Y-42580203D01*
X61788544Y-42703238D01*
X61788545Y-42703243D01*
X61788546Y-42703245D01*
X61840187Y-42816322D01*
X61921593Y-42910270D01*
X61921595Y-42910271D01*
X61921596Y-42910272D01*
X61944073Y-42924717D01*
X62026170Y-42977477D01*
X62026172Y-42977477D01*
X62026173Y-42977478D01*
X62145440Y-43012499D01*
X62145444Y-43012500D01*
X62145445Y-43012500D01*
X62269756Y-43012500D01*
X62269759Y-43012499D01*
X62369008Y-42983356D01*
X62389030Y-42977477D01*
X62493607Y-42910270D01*
X62575013Y-42816322D01*
X62626654Y-42703245D01*
X62634514Y-42648577D01*
X62644345Y-42580203D01*
X62644345Y-42580196D01*
X62626655Y-42457161D01*
X62626654Y-42457160D01*
X62626654Y-42457155D01*
X62575013Y-42344078D01*
X62493607Y-42250130D01*
X62493605Y-42250129D01*
X62493603Y-42250127D01*
X62389032Y-42182924D01*
X62389026Y-42182921D01*
X62269759Y-42147900D01*
X62269755Y-42147900D01*
X62145445Y-42147900D01*
X62145440Y-42147900D01*
X62026173Y-42182921D01*
X62026167Y-42182924D01*
X61921596Y-42250127D01*
X61921591Y-42250131D01*
X61840186Y-42344079D01*
X61788546Y-42457155D01*
X61788544Y-42457161D01*
X61770855Y-42580196D01*
X58567174Y-42580196D01*
X58585054Y-42541045D01*
X58585315Y-42539228D01*
X58602745Y-42418003D01*
X58602745Y-42417996D01*
X58585055Y-42294961D01*
X58585054Y-42294960D01*
X58585054Y-42294955D01*
X58541923Y-42200514D01*
X58537159Y-42140577D01*
X58541924Y-42127485D01*
X58547000Y-42116370D01*
X58585054Y-42033045D01*
X58602745Y-41910000D01*
X58602745Y-41909996D01*
X58585055Y-41786961D01*
X58585054Y-41786960D01*
X58585054Y-41786955D01*
X58541923Y-41692514D01*
X58537159Y-41632577D01*
X58541924Y-41619485D01*
X58547000Y-41608370D01*
X58585054Y-41525045D01*
X58602745Y-41402000D01*
X58602745Y-41401996D01*
X58585055Y-41278961D01*
X58585054Y-41278960D01*
X58585054Y-41278955D01*
X58541923Y-41184514D01*
X58537159Y-41124577D01*
X58541924Y-41111485D01*
X58547000Y-41100370D01*
X58585054Y-41017045D01*
X58594627Y-40950463D01*
X58602745Y-40894003D01*
X58602745Y-40893996D01*
X58585055Y-40770961D01*
X58585054Y-40770960D01*
X58585054Y-40770955D01*
X58541923Y-40676514D01*
X58537159Y-40616577D01*
X58541924Y-40603485D01*
X58548448Y-40589200D01*
X58585054Y-40509045D01*
X58585524Y-40505777D01*
X58602745Y-40386003D01*
X58602745Y-40385996D01*
X63063255Y-40385996D01*
X63063255Y-40386003D01*
X63080944Y-40509038D01*
X63080945Y-40509043D01*
X63080946Y-40509045D01*
X63098111Y-40546632D01*
X63124075Y-40603485D01*
X63128840Y-40663423D01*
X63124075Y-40676515D01*
X63080946Y-40770955D01*
X63080944Y-40770961D01*
X63063255Y-40893996D01*
X63063255Y-40894003D01*
X63080944Y-41017038D01*
X63080946Y-41017044D01*
X63124075Y-41111485D01*
X63128840Y-41171423D01*
X63124075Y-41184515D01*
X63080946Y-41278955D01*
X63080944Y-41278961D01*
X63063255Y-41401996D01*
X63063255Y-41402003D01*
X63080944Y-41525038D01*
X63080946Y-41525044D01*
X63124075Y-41619485D01*
X63128840Y-41679423D01*
X63124075Y-41692515D01*
X63080946Y-41786955D01*
X63080944Y-41786961D01*
X63063255Y-41909996D01*
X63063255Y-41910003D01*
X63080944Y-42033038D01*
X63080945Y-42033043D01*
X63080946Y-42033045D01*
X63094351Y-42062398D01*
X63124075Y-42127485D01*
X63128840Y-42187423D01*
X63124075Y-42200515D01*
X63080946Y-42294955D01*
X63080944Y-42294961D01*
X63063255Y-42417996D01*
X63063255Y-42418003D01*
X63080944Y-42541038D01*
X63080946Y-42541044D01*
X63124075Y-42635485D01*
X63128840Y-42695423D01*
X63124075Y-42708515D01*
X63080946Y-42802955D01*
X63080944Y-42802961D01*
X63063255Y-42925996D01*
X63063255Y-42926003D01*
X63080944Y-43049038D01*
X63080945Y-43049043D01*
X63080946Y-43049045D01*
X63132587Y-43162122D01*
X63185431Y-43223107D01*
X63213989Y-43256066D01*
X63213993Y-43256070D01*
X63318570Y-43323277D01*
X63318572Y-43323277D01*
X63318573Y-43323278D01*
X63437840Y-43358299D01*
X63437844Y-43358300D01*
X63437845Y-43358300D01*
X63562156Y-43358300D01*
X63562159Y-43358299D01*
X63621792Y-43340788D01*
X63681430Y-43323277D01*
X63786007Y-43256070D01*
X63814569Y-43223106D01*
X63867111Y-43193873D01*
X63926152Y-43205252D01*
X63947431Y-43223107D01*
X63975989Y-43256066D01*
X63975993Y-43256070D01*
X64080570Y-43323277D01*
X64080572Y-43323277D01*
X64080573Y-43323278D01*
X64199840Y-43358299D01*
X64199844Y-43358300D01*
X64199845Y-43358300D01*
X64324156Y-43358300D01*
X64324159Y-43358299D01*
X64383792Y-43340788D01*
X64443430Y-43323277D01*
X64548007Y-43256070D01*
X64562523Y-43239317D01*
X64615063Y-43210083D01*
X64674104Y-43221460D01*
X64712019Y-43268126D01*
X64714330Y-43315417D01*
X64714612Y-43315462D01*
X64714398Y-43316809D01*
X64714427Y-43317389D01*
X64714073Y-43318862D01*
X64696650Y-43428872D01*
X64680600Y-43530213D01*
X64680600Y-43744187D01*
X64695683Y-43839423D01*
X64704780Y-43896862D01*
X64714072Y-43955527D01*
X64780194Y-44159029D01*
X64817869Y-44232971D01*
X64877336Y-44349682D01*
X65003107Y-44522790D01*
X65154409Y-44674092D01*
X65327517Y-44799863D01*
X65327519Y-44799864D01*
X65518171Y-44897006D01*
X65721673Y-44963128D01*
X65933013Y-44996600D01*
X65933015Y-44996600D01*
X66146985Y-44996600D01*
X66146987Y-44996600D01*
X66358327Y-44963128D01*
X66561829Y-44897006D01*
X66752481Y-44799864D01*
X66925590Y-44674093D01*
X67076893Y-44522790D01*
X67076893Y-44522789D01*
X67079335Y-44520348D01*
X67080674Y-44521687D01*
X67127480Y-44495160D01*
X67186609Y-44506074D01*
X67224889Y-44552441D01*
X67228870Y-44595593D01*
X67228870Y-44595595D01*
X67220600Y-44647813D01*
X67220600Y-44861787D01*
X67226178Y-44897006D01*
X67250314Y-45049403D01*
X67254072Y-45073127D01*
X67320194Y-45276629D01*
X67370514Y-45375388D01*
X67417336Y-45467282D01*
X67543107Y-45640390D01*
X67694409Y-45791692D01*
X67867517Y-45917463D01*
X67867519Y-45917464D01*
X68058171Y-46014606D01*
X68261673Y-46080728D01*
X68473013Y-46114200D01*
X68473015Y-46114200D01*
X68686985Y-46114200D01*
X68686987Y-46114200D01*
X68898327Y-46080728D01*
X69101829Y-46014606D01*
X69292481Y-45917464D01*
X69465590Y-45791693D01*
X69616893Y-45640390D01*
X69742664Y-45467281D01*
X69839806Y-45276629D01*
X69905928Y-45073127D01*
X69939400Y-44861787D01*
X69939400Y-44647813D01*
X69931129Y-44595592D01*
X69942602Y-44536572D01*
X69989329Y-44498733D01*
X70049447Y-44499782D01*
X70079790Y-44521222D01*
X70080665Y-44520348D01*
X70234409Y-44674092D01*
X70407517Y-44799863D01*
X70407519Y-44799864D01*
X70598171Y-44897006D01*
X70801673Y-44963128D01*
X71013013Y-44996600D01*
X71013015Y-44996600D01*
X71226985Y-44996600D01*
X71226987Y-44996600D01*
X71438327Y-44963128D01*
X71641829Y-44897006D01*
X71832481Y-44799864D01*
X72005590Y-44674093D01*
X72156893Y-44522790D01*
X72282664Y-44349681D01*
X72379806Y-44159029D01*
X72445928Y-43955527D01*
X72479400Y-43744187D01*
X72479400Y-43530213D01*
X79920600Y-43530213D01*
X79920600Y-43744187D01*
X79935683Y-43839423D01*
X79944780Y-43896862D01*
X79954072Y-43955527D01*
X80020194Y-44159029D01*
X80057869Y-44232971D01*
X80117336Y-44349682D01*
X80243107Y-44522790D01*
X80394409Y-44674092D01*
X80567517Y-44799863D01*
X80567519Y-44799864D01*
X80758171Y-44897006D01*
X80961673Y-44963128D01*
X81173013Y-44996600D01*
X81173015Y-44996600D01*
X81386985Y-44996600D01*
X81386987Y-44996600D01*
X81598327Y-44963128D01*
X81801829Y-44897006D01*
X81992481Y-44799864D01*
X82165590Y-44674093D01*
X82316893Y-44522790D01*
X82316893Y-44522789D01*
X82319335Y-44520348D01*
X82320674Y-44521687D01*
X82367480Y-44495160D01*
X82426609Y-44506074D01*
X82464889Y-44552441D01*
X82468870Y-44595593D01*
X82468870Y-44595595D01*
X82460600Y-44647813D01*
X82460600Y-44861787D01*
X82466178Y-44897006D01*
X82490314Y-45049403D01*
X82494072Y-45073127D01*
X82560194Y-45276629D01*
X82610514Y-45375388D01*
X82657336Y-45467282D01*
X82783107Y-45640390D01*
X82934409Y-45791692D01*
X83107517Y-45917463D01*
X83107519Y-45917464D01*
X83298171Y-46014606D01*
X83501673Y-46080728D01*
X83713013Y-46114200D01*
X83713015Y-46114200D01*
X83926985Y-46114200D01*
X83926987Y-46114200D01*
X84138327Y-46080728D01*
X84341829Y-46014606D01*
X84532481Y-45917464D01*
X84705590Y-45791693D01*
X84856893Y-45640390D01*
X84982664Y-45467281D01*
X85079806Y-45276629D01*
X85145928Y-45073127D01*
X85179400Y-44861787D01*
X85179400Y-44647813D01*
X85171129Y-44595592D01*
X85182602Y-44536572D01*
X85229329Y-44498733D01*
X85289447Y-44499782D01*
X85319790Y-44521222D01*
X85320665Y-44520348D01*
X85474409Y-44674092D01*
X85647517Y-44799863D01*
X85647519Y-44799864D01*
X85838171Y-44897006D01*
X86041673Y-44963128D01*
X86253013Y-44996600D01*
X86253015Y-44996600D01*
X86466985Y-44996600D01*
X86466987Y-44996600D01*
X86678327Y-44963128D01*
X86881829Y-44897006D01*
X87072481Y-44799864D01*
X87245590Y-44674093D01*
X87396893Y-44522790D01*
X87522664Y-44349681D01*
X87619806Y-44159029D01*
X87685928Y-43955527D01*
X87719400Y-43744187D01*
X87719400Y-43530213D01*
X87685928Y-43318873D01*
X87619806Y-43115371D01*
X87522664Y-42924719D01*
X87522663Y-42924717D01*
X87396892Y-42751609D01*
X87245590Y-42600307D01*
X87072482Y-42474536D01*
X86980588Y-42427714D01*
X86881829Y-42377394D01*
X86881826Y-42377393D01*
X86881824Y-42377392D01*
X86768661Y-42340623D01*
X86678327Y-42311272D01*
X86678325Y-42311271D01*
X86678323Y-42311271D01*
X86512289Y-42284975D01*
X86466987Y-42277800D01*
X86253013Y-42277800D01*
X86207711Y-42284975D01*
X86041676Y-42311271D01*
X85838175Y-42377392D01*
X85647517Y-42474536D01*
X85474409Y-42600307D01*
X85323107Y-42751609D01*
X85197336Y-42924717D01*
X85100192Y-43115375D01*
X85034071Y-43318876D01*
X85000600Y-43530214D01*
X85000600Y-43744187D01*
X85008870Y-43796406D01*
X84997396Y-43855428D01*
X84950668Y-43893266D01*
X84890550Y-43892216D01*
X84860212Y-43870774D01*
X84859335Y-43871652D01*
X84705590Y-43717907D01*
X84532482Y-43592136D01*
X84410950Y-43530213D01*
X84341829Y-43494994D01*
X84341826Y-43494993D01*
X84341824Y-43494992D01*
X84228661Y-43458223D01*
X84138327Y-43428872D01*
X84138325Y-43428871D01*
X84138323Y-43428871D01*
X83990758Y-43405500D01*
X83926987Y-43395400D01*
X83713013Y-43395400D01*
X83664024Y-43403158D01*
X83501676Y-43428871D01*
X83298175Y-43494992D01*
X83107517Y-43592136D01*
X82934409Y-43717907D01*
X82780665Y-43871652D01*
X82779353Y-43870340D01*
X82732377Y-43896862D01*
X82673267Y-43885852D01*
X82635063Y-43839423D01*
X82631129Y-43796407D01*
X82639400Y-43744187D01*
X82639400Y-43530213D01*
X82605928Y-43318873D01*
X82539806Y-43115371D01*
X82442664Y-42924719D01*
X82442663Y-42924717D01*
X82316892Y-42751609D01*
X82165590Y-42600307D01*
X81992482Y-42474536D01*
X81900588Y-42427714D01*
X81801829Y-42377394D01*
X81801826Y-42377393D01*
X81801824Y-42377392D01*
X81688661Y-42340623D01*
X81598327Y-42311272D01*
X81598325Y-42311271D01*
X81598323Y-42311271D01*
X81432289Y-42284975D01*
X81386987Y-42277800D01*
X81173013Y-42277800D01*
X81127711Y-42284975D01*
X80961676Y-42311271D01*
X80758175Y-42377392D01*
X80567517Y-42474536D01*
X80394409Y-42600307D01*
X80243107Y-42751609D01*
X80117336Y-42924717D01*
X80020192Y-43115375D01*
X79954071Y-43318876D01*
X79936650Y-43428872D01*
X79920600Y-43530213D01*
X72479400Y-43530213D01*
X72445928Y-43318873D01*
X72379806Y-43115371D01*
X72282664Y-42924719D01*
X72282663Y-42924717D01*
X72156892Y-42751609D01*
X72005590Y-42600307D01*
X71832482Y-42474536D01*
X71740588Y-42427714D01*
X71641829Y-42377394D01*
X71641826Y-42377393D01*
X71641824Y-42377392D01*
X71528661Y-42340623D01*
X71438327Y-42311272D01*
X71438325Y-42311271D01*
X71438323Y-42311271D01*
X71272289Y-42284975D01*
X71226987Y-42277800D01*
X71013013Y-42277800D01*
X70967711Y-42284975D01*
X70801676Y-42311271D01*
X70598175Y-42377392D01*
X70407517Y-42474536D01*
X70234409Y-42600307D01*
X70083107Y-42751609D01*
X69957336Y-42924717D01*
X69860192Y-43115375D01*
X69794071Y-43318876D01*
X69760600Y-43530214D01*
X69760600Y-43744187D01*
X69768870Y-43796406D01*
X69757396Y-43855428D01*
X69710668Y-43893266D01*
X69650550Y-43892216D01*
X69620212Y-43870774D01*
X69619335Y-43871652D01*
X69465590Y-43717907D01*
X69292482Y-43592136D01*
X69170950Y-43530213D01*
X69101829Y-43494994D01*
X69101826Y-43494993D01*
X69101824Y-43494992D01*
X68988661Y-43458223D01*
X68898327Y-43428872D01*
X68898325Y-43428871D01*
X68898323Y-43428871D01*
X68750758Y-43405500D01*
X68686987Y-43395400D01*
X68473013Y-43395400D01*
X68424024Y-43403158D01*
X68261676Y-43428871D01*
X68058175Y-43494992D01*
X67867517Y-43592136D01*
X67694409Y-43717907D01*
X67540665Y-43871652D01*
X67539353Y-43870340D01*
X67492377Y-43896862D01*
X67433267Y-43885852D01*
X67395063Y-43839423D01*
X67391129Y-43796407D01*
X67399400Y-43744187D01*
X67399400Y-43530213D01*
X67365928Y-43318873D01*
X67299806Y-43115371D01*
X67202664Y-42924719D01*
X67202663Y-42924717D01*
X67076892Y-42751609D01*
X66925590Y-42600307D01*
X66752482Y-42474536D01*
X66660588Y-42427714D01*
X66561829Y-42377394D01*
X66561826Y-42377393D01*
X66561824Y-42377392D01*
X66448661Y-42340623D01*
X66358327Y-42311272D01*
X66358325Y-42311271D01*
X66358323Y-42311271D01*
X66192289Y-42284975D01*
X66146987Y-42277800D01*
X65933013Y-42277800D01*
X65887711Y-42284975D01*
X65721676Y-42311271D01*
X65518175Y-42377392D01*
X65327517Y-42474536D01*
X65154409Y-42600307D01*
X65003107Y-42751609D01*
X64877336Y-42924718D01*
X64877330Y-42924727D01*
X64863773Y-42951336D01*
X64819799Y-42992343D01*
X64759754Y-42995489D01*
X64711735Y-42959303D01*
X64698449Y-42923939D01*
X64681055Y-42802961D01*
X64681054Y-42802960D01*
X64681054Y-42802955D01*
X64637923Y-42708514D01*
X64633159Y-42648577D01*
X64637924Y-42635485D01*
X64643000Y-42624370D01*
X64681054Y-42541045D01*
X64681315Y-42539228D01*
X64698745Y-42418003D01*
X64698745Y-42417996D01*
X64681055Y-42294961D01*
X64681054Y-42294960D01*
X64681054Y-42294955D01*
X64637923Y-42200514D01*
X64633159Y-42140577D01*
X64637924Y-42127485D01*
X64643000Y-42116370D01*
X64681054Y-42033045D01*
X64698745Y-41910000D01*
X64698745Y-41909996D01*
X64681055Y-41786961D01*
X64681054Y-41786960D01*
X64681054Y-41786955D01*
X64637923Y-41692514D01*
X64633159Y-41632577D01*
X64637924Y-41619485D01*
X64643000Y-41608370D01*
X64681054Y-41525045D01*
X64698745Y-41402000D01*
X64698745Y-41401996D01*
X64685964Y-41313101D01*
X67513201Y-41313101D01*
X67513201Y-41833418D01*
X67527937Y-41907506D01*
X67584075Y-41991522D01*
X67584077Y-41991524D01*
X67668094Y-42047662D01*
X67742181Y-42062399D01*
X68262498Y-42062399D01*
X68262500Y-42062398D01*
X68262500Y-41313101D01*
X68262499Y-41313100D01*
X67513202Y-41313100D01*
X67513201Y-41313101D01*
X64685964Y-41313101D01*
X64681055Y-41278961D01*
X64681054Y-41278960D01*
X64681054Y-41278955D01*
X64637923Y-41184514D01*
X64633159Y-41124577D01*
X64637924Y-41111485D01*
X64643000Y-41100370D01*
X64681054Y-41017045D01*
X64690627Y-40950463D01*
X64698745Y-40894003D01*
X64698745Y-40893996D01*
X64681055Y-40770961D01*
X64681054Y-40770960D01*
X64681054Y-40770955D01*
X64637923Y-40676514D01*
X64633159Y-40616577D01*
X64637924Y-40603485D01*
X64644448Y-40589200D01*
X64681054Y-40509045D01*
X64681524Y-40505777D01*
X64698745Y-40386003D01*
X64698745Y-40385996D01*
X64681055Y-40262961D01*
X64681054Y-40262960D01*
X64681054Y-40262955D01*
X64629413Y-40149878D01*
X64548007Y-40055930D01*
X64548005Y-40055929D01*
X64548003Y-40055927D01*
X64443432Y-39988724D01*
X64443426Y-39988721D01*
X64324159Y-39953700D01*
X64324155Y-39953700D01*
X64199845Y-39953700D01*
X64199840Y-39953700D01*
X64080573Y-39988721D01*
X64080567Y-39988724D01*
X63975996Y-40055927D01*
X63975990Y-40055932D01*
X63947430Y-40088893D01*
X63894888Y-40118126D01*
X63835847Y-40106746D01*
X63814570Y-40088893D01*
X63786009Y-40055932D01*
X63786003Y-40055927D01*
X63681432Y-39988724D01*
X63681426Y-39988721D01*
X63562159Y-39953700D01*
X63562155Y-39953700D01*
X63437845Y-39953700D01*
X63437840Y-39953700D01*
X63318573Y-39988721D01*
X63318567Y-39988724D01*
X63213996Y-40055927D01*
X63213991Y-40055931D01*
X63132586Y-40149879D01*
X63080946Y-40262955D01*
X63080944Y-40262961D01*
X63063255Y-40385996D01*
X58602745Y-40385996D01*
X58585055Y-40262961D01*
X58585054Y-40262960D01*
X58585054Y-40262955D01*
X58541923Y-40168514D01*
X58537159Y-40108577D01*
X58541924Y-40095485D01*
X58585054Y-40001045D01*
X58585315Y-39999228D01*
X58602745Y-39878003D01*
X58602745Y-39877996D01*
X58585055Y-39754961D01*
X58585054Y-39754960D01*
X58585054Y-39754955D01*
X58533413Y-39641878D01*
X58452007Y-39547930D01*
X58452005Y-39547929D01*
X58452003Y-39547927D01*
X58347432Y-39480724D01*
X58347426Y-39480721D01*
X58228159Y-39445700D01*
X58228155Y-39445700D01*
X58103845Y-39445700D01*
X58103840Y-39445700D01*
X57984573Y-39480721D01*
X57984567Y-39480724D01*
X57879996Y-39547927D01*
X57879990Y-39547932D01*
X57851430Y-39580893D01*
X57798888Y-39610126D01*
X57739847Y-39598746D01*
X57718570Y-39580893D01*
X57690009Y-39547932D01*
X57690003Y-39547927D01*
X57585432Y-39480724D01*
X57585426Y-39480721D01*
X57466159Y-39445700D01*
X57466155Y-39445700D01*
X57341845Y-39445700D01*
X57341840Y-39445700D01*
X57222573Y-39480721D01*
X57222567Y-39480724D01*
X57117996Y-39547927D01*
X57117991Y-39547931D01*
X57036586Y-39641879D01*
X56984946Y-39754955D01*
X56984944Y-39754961D01*
X56967255Y-39877996D01*
X56967255Y-39878003D01*
X56984944Y-40001038D01*
X56984946Y-40001044D01*
X57028075Y-40095485D01*
X57032840Y-40155423D01*
X57028075Y-40168515D01*
X56984946Y-40262955D01*
X56984944Y-40262961D01*
X56967255Y-40385996D01*
X56967255Y-40386004D01*
X56972045Y-40419323D01*
X56959730Y-40478175D01*
X56912467Y-40515343D01*
X56852370Y-40513434D01*
X56837524Y-40505780D01*
X56823430Y-40496723D01*
X56823429Y-40496722D01*
X56823428Y-40496722D01*
X56823426Y-40496721D01*
X56704159Y-40461700D01*
X56704155Y-40461700D01*
X56579845Y-40461700D01*
X56579840Y-40461700D01*
X56460573Y-40496721D01*
X56460567Y-40496724D01*
X56355996Y-40563927D01*
X56355991Y-40563931D01*
X56274586Y-40657879D01*
X56222946Y-40770955D01*
X56222944Y-40770961D01*
X56205255Y-40893996D01*
X48011500Y-40893996D01*
X48011500Y-39213196D01*
X61717055Y-39213196D01*
X61717055Y-39213203D01*
X61734744Y-39336238D01*
X61734745Y-39336243D01*
X61734746Y-39336245D01*
X61786387Y-39449322D01*
X61867793Y-39543270D01*
X61972370Y-39610477D01*
X61972372Y-39610477D01*
X61972373Y-39610478D01*
X62091640Y-39645499D01*
X62091644Y-39645500D01*
X62091645Y-39645500D01*
X62215956Y-39645500D01*
X62215959Y-39645499D01*
X62275592Y-39627988D01*
X62335230Y-39610477D01*
X62439807Y-39543270D01*
X62521213Y-39449322D01*
X62572854Y-39336245D01*
X62590545Y-39213200D01*
X62590545Y-39213196D01*
X62572855Y-39090161D01*
X62572854Y-39090160D01*
X62572854Y-39090155D01*
X62550010Y-39040134D01*
X64972700Y-39040134D01*
X64972700Y-40715868D01*
X64983658Y-40770955D01*
X64987466Y-40790101D01*
X65043716Y-40874284D01*
X65071905Y-40893119D01*
X65127898Y-40930534D01*
X65138461Y-40932635D01*
X65202133Y-40945300D01*
X66877866Y-40945299D01*
X66877868Y-40945299D01*
X66893968Y-40942096D01*
X68173600Y-40942096D01*
X68173600Y-41049104D01*
X68201295Y-41152465D01*
X68254799Y-41245136D01*
X68330464Y-41320801D01*
X68423135Y-41374305D01*
X68526496Y-41402000D01*
X68633504Y-41402000D01*
X68736865Y-41374305D01*
X68829536Y-41320801D01*
X68837236Y-41313101D01*
X68897500Y-41313101D01*
X68897500Y-42062398D01*
X68897501Y-42062399D01*
X69417818Y-42062399D01*
X69491906Y-42047662D01*
X69575922Y-41991524D01*
X69575924Y-41991522D01*
X69632062Y-41907505D01*
X69646800Y-41833415D01*
X69646800Y-41313101D01*
X82753201Y-41313101D01*
X82753201Y-41833418D01*
X82767937Y-41907506D01*
X82824075Y-41991522D01*
X82824077Y-41991524D01*
X82908094Y-42047662D01*
X82982181Y-42062399D01*
X83502498Y-42062399D01*
X83502500Y-42062398D01*
X83502500Y-41313101D01*
X83502499Y-41313100D01*
X82753202Y-41313100D01*
X82753201Y-41313101D01*
X69646800Y-41313101D01*
X69646799Y-41313100D01*
X68897501Y-41313100D01*
X68897500Y-41313101D01*
X68837236Y-41313101D01*
X68905201Y-41245136D01*
X68958705Y-41152465D01*
X68986400Y-41049104D01*
X68986400Y-40942096D01*
X68958705Y-40838735D01*
X68905201Y-40746064D01*
X68829536Y-40670399D01*
X68736865Y-40616895D01*
X68633504Y-40589200D01*
X68526496Y-40589200D01*
X68423135Y-40616895D01*
X68330464Y-40670399D01*
X68254799Y-40746064D01*
X68201295Y-40838735D01*
X68173600Y-40942096D01*
X66893968Y-40942096D01*
X66896361Y-40941620D01*
X66952101Y-40930534D01*
X67036284Y-40874284D01*
X67092534Y-40790101D01*
X67107300Y-40715867D01*
X67107300Y-40157784D01*
X67513200Y-40157784D01*
X67513200Y-40678099D01*
X67513201Y-40678100D01*
X68262499Y-40678100D01*
X68262500Y-40678099D01*
X68262500Y-39928801D01*
X68897500Y-39928801D01*
X68897500Y-40678099D01*
X68897501Y-40678100D01*
X69646798Y-40678100D01*
X69646799Y-40678099D01*
X69646799Y-40157781D01*
X69632062Y-40083693D01*
X69575924Y-39999677D01*
X69575922Y-39999675D01*
X69491905Y-39943537D01*
X69417815Y-39928800D01*
X68897501Y-39928800D01*
X68897500Y-39928801D01*
X68262500Y-39928801D01*
X68262499Y-39928800D01*
X67742181Y-39928800D01*
X67668093Y-39943537D01*
X67584077Y-39999675D01*
X67584075Y-39999677D01*
X67527937Y-40083694D01*
X67513200Y-40157784D01*
X67107300Y-40157784D01*
X67107299Y-39040134D01*
X70052700Y-39040134D01*
X70052700Y-40715868D01*
X70063658Y-40770955D01*
X70067466Y-40790101D01*
X70123716Y-40874284D01*
X70151905Y-40893119D01*
X70207898Y-40930534D01*
X70218461Y-40932635D01*
X70282133Y-40945300D01*
X71957866Y-40945299D01*
X71957868Y-40945299D01*
X71976361Y-40941620D01*
X72032101Y-40930534D01*
X72116284Y-40874284D01*
X72172534Y-40790101D01*
X72187300Y-40715867D01*
X72187299Y-39878000D01*
X72587536Y-39878000D01*
X72605060Y-40055927D01*
X72608144Y-40087233D01*
X72669170Y-40288409D01*
X72669170Y-40288410D01*
X72669171Y-40288413D01*
X72669172Y-40288414D01*
X72768279Y-40473829D01*
X72901653Y-40636347D01*
X73064171Y-40769721D01*
X73249586Y-40868828D01*
X73249588Y-40868828D01*
X73249589Y-40868829D01*
X73332567Y-40894000D01*
X73450773Y-40929857D01*
X73660000Y-40950464D01*
X73869227Y-40929857D01*
X74070414Y-40868828D01*
X74255829Y-40769721D01*
X74418347Y-40636347D01*
X74551721Y-40473829D01*
X74650828Y-40288414D01*
X74711857Y-40087227D01*
X74732464Y-39878000D01*
X75127536Y-39878000D01*
X75145060Y-40055927D01*
X75148144Y-40087233D01*
X75209170Y-40288409D01*
X75209170Y-40288410D01*
X75209171Y-40288413D01*
X75209172Y-40288414D01*
X75308279Y-40473829D01*
X75441653Y-40636347D01*
X75604171Y-40769721D01*
X75789586Y-40868828D01*
X75789588Y-40868828D01*
X75789589Y-40868829D01*
X75872567Y-40894000D01*
X75990773Y-40929857D01*
X76200000Y-40950464D01*
X76409227Y-40929857D01*
X76610414Y-40868828D01*
X76795829Y-40769721D01*
X76958347Y-40636347D01*
X77091721Y-40473829D01*
X77190828Y-40288414D01*
X77251857Y-40087227D01*
X77272464Y-39878000D01*
X77667536Y-39878000D01*
X77685060Y-40055927D01*
X77688144Y-40087233D01*
X77749170Y-40288409D01*
X77749170Y-40288410D01*
X77749171Y-40288413D01*
X77749172Y-40288414D01*
X77848279Y-40473829D01*
X77981653Y-40636347D01*
X78144171Y-40769721D01*
X78329586Y-40868828D01*
X78329588Y-40868828D01*
X78329589Y-40868829D01*
X78412567Y-40894000D01*
X78530773Y-40929857D01*
X78740000Y-40950464D01*
X78949227Y-40929857D01*
X79150414Y-40868828D01*
X79335829Y-40769721D01*
X79498347Y-40636347D01*
X79631721Y-40473829D01*
X79730828Y-40288414D01*
X79791857Y-40087227D01*
X79812464Y-39878000D01*
X79791857Y-39668773D01*
X79730828Y-39467586D01*
X79728546Y-39463318D01*
X79720048Y-39403797D01*
X79743910Y-39359729D01*
X80126496Y-38977145D01*
X80180990Y-38951734D01*
X80188651Y-38951400D01*
X80481006Y-38951400D01*
X80537507Y-38971965D01*
X80567571Y-39024036D01*
X80557130Y-39083250D01*
X80536770Y-39107247D01*
X80521656Y-39119650D01*
X80521651Y-39119655D01*
X80388279Y-39282170D01*
X80289170Y-39467589D01*
X80289170Y-39467590D01*
X80228144Y-39668766D01*
X80228143Y-39668771D01*
X80228143Y-39668773D01*
X80207536Y-39878000D01*
X80225060Y-40055927D01*
X80228144Y-40087233D01*
X80289170Y-40288409D01*
X80289170Y-40288410D01*
X80289171Y-40288413D01*
X80289172Y-40288414D01*
X80388279Y-40473829D01*
X80521653Y-40636347D01*
X80684171Y-40769721D01*
X80869586Y-40868828D01*
X80869588Y-40868828D01*
X80869589Y-40868829D01*
X80952567Y-40894000D01*
X81070773Y-40929857D01*
X81280000Y-40950464D01*
X81364962Y-40942096D01*
X83413600Y-40942096D01*
X83413600Y-41049104D01*
X83441295Y-41152465D01*
X83494799Y-41245136D01*
X83570464Y-41320801D01*
X83663135Y-41374305D01*
X83766496Y-41402000D01*
X83873504Y-41402000D01*
X83976865Y-41374305D01*
X84069536Y-41320801D01*
X84077236Y-41313101D01*
X84137500Y-41313101D01*
X84137500Y-42062398D01*
X84137501Y-42062399D01*
X84657818Y-42062399D01*
X84731906Y-42047662D01*
X84815922Y-41991524D01*
X84815924Y-41991522D01*
X84872062Y-41907505D01*
X84886800Y-41833415D01*
X84886800Y-41313101D01*
X84886799Y-41313100D01*
X84137501Y-41313100D01*
X84137500Y-41313101D01*
X84077236Y-41313101D01*
X84145201Y-41245136D01*
X84198705Y-41152465D01*
X84226400Y-41049104D01*
X84226400Y-40942096D01*
X84198705Y-40838735D01*
X84145201Y-40746064D01*
X84069536Y-40670399D01*
X83976865Y-40616895D01*
X83873504Y-40589200D01*
X83766496Y-40589200D01*
X83663135Y-40616895D01*
X83570464Y-40670399D01*
X83494799Y-40746064D01*
X83441295Y-40838735D01*
X83413600Y-40942096D01*
X81364962Y-40942096D01*
X81489227Y-40929857D01*
X81690414Y-40868828D01*
X81875829Y-40769721D01*
X82038347Y-40636347D01*
X82171721Y-40473829D01*
X82270828Y-40288414D01*
X82310454Y-40157784D01*
X82753200Y-40157784D01*
X82753200Y-40678099D01*
X82753201Y-40678100D01*
X83502499Y-40678100D01*
X83502500Y-40678099D01*
X83502500Y-39928801D01*
X84137500Y-39928801D01*
X84137500Y-40678099D01*
X84137501Y-40678100D01*
X84886798Y-40678100D01*
X84886799Y-40678099D01*
X84886799Y-40157781D01*
X84872062Y-40083693D01*
X84815924Y-39999677D01*
X84815922Y-39999675D01*
X84731905Y-39943537D01*
X84657815Y-39928800D01*
X84137501Y-39928800D01*
X84137500Y-39928801D01*
X83502500Y-39928801D01*
X83502499Y-39928800D01*
X82982181Y-39928800D01*
X82908093Y-39943537D01*
X82824077Y-39999675D01*
X82824075Y-39999677D01*
X82767937Y-40083694D01*
X82753200Y-40157784D01*
X82310454Y-40157784D01*
X82331857Y-40087227D01*
X82352464Y-39878000D01*
X82331857Y-39668773D01*
X82270828Y-39467586D01*
X82171721Y-39282171D01*
X82038347Y-39119653D01*
X82023229Y-39107246D01*
X81992601Y-39055506D01*
X82002396Y-38996182D01*
X82048032Y-38957034D01*
X82078994Y-38951400D01*
X84627208Y-38951400D01*
X84627209Y-38951400D01*
X84691146Y-38934268D01*
X84714548Y-38927998D01*
X84792853Y-38882788D01*
X84870105Y-38805536D01*
X84901697Y-38773945D01*
X84956190Y-38748534D01*
X84963851Y-38748200D01*
X85288479Y-38748200D01*
X85344980Y-38768765D01*
X85375044Y-38820836D01*
X85364603Y-38880050D01*
X85361565Y-38884935D01*
X85307466Y-38965898D01*
X85307466Y-38965899D01*
X85292701Y-39040131D01*
X85292700Y-39040134D01*
X85292700Y-40715868D01*
X85303658Y-40770955D01*
X85307466Y-40790101D01*
X85363716Y-40874284D01*
X85391905Y-40893119D01*
X85447898Y-40930534D01*
X85458461Y-40932635D01*
X85522133Y-40945300D01*
X87197866Y-40945299D01*
X87197868Y-40945299D01*
X87216361Y-40941620D01*
X87272101Y-40930534D01*
X87356284Y-40874284D01*
X87412534Y-40790101D01*
X87427300Y-40715867D01*
X87427299Y-39040134D01*
X87427299Y-39040133D01*
X87427299Y-39040131D01*
X87416587Y-38986279D01*
X87412534Y-38965899D01*
X87358435Y-38884935D01*
X87344143Y-38826531D01*
X87370737Y-38772604D01*
X87425772Y-38748388D01*
X87431521Y-38748200D01*
X91510608Y-38748200D01*
X91510609Y-38748200D01*
X91574546Y-38731068D01*
X91597948Y-38724798D01*
X91676253Y-38679588D01*
X94559588Y-35796253D01*
X94604798Y-35717948D01*
X94628200Y-35630609D01*
X94628200Y-35540190D01*
X94628200Y-32111191D01*
X94613524Y-32056420D01*
X94604798Y-32023852D01*
X94559588Y-31945547D01*
X93936853Y-31322812D01*
X93858548Y-31277602D01*
X93858546Y-31277601D01*
X93835143Y-31271330D01*
X93835143Y-31271329D01*
X93771210Y-31254200D01*
X93771209Y-31254200D01*
X91039191Y-31254200D01*
X90951852Y-31277601D01*
X90951852Y-31277602D01*
X90936617Y-31286398D01*
X90936616Y-31286397D01*
X90873548Y-31322810D01*
X90873542Y-31322815D01*
X90821985Y-31374372D01*
X90784596Y-31396556D01*
X90674373Y-31428921D01*
X90674367Y-31428924D01*
X90569796Y-31496127D01*
X90569791Y-31496131D01*
X90488386Y-31590079D01*
X90436746Y-31703155D01*
X90436744Y-31703161D01*
X90419055Y-31826196D01*
X90419055Y-31826203D01*
X90436744Y-31949238D01*
X90436745Y-31949243D01*
X90436746Y-31949245D01*
X90488387Y-32062322D01*
X90569793Y-32156270D01*
X90674370Y-32223477D01*
X90674372Y-32223477D01*
X90674373Y-32223478D01*
X90793640Y-32258499D01*
X90793644Y-32258500D01*
X90793645Y-32258500D01*
X90917956Y-32258500D01*
X90917959Y-32258499D01*
X91022977Y-32227662D01*
X91037230Y-32223477D01*
X91141807Y-32156270D01*
X91223213Y-32062322D01*
X91255152Y-31992384D01*
X91297330Y-31949533D01*
X91335109Y-31941000D01*
X93547349Y-31941000D01*
X93603850Y-31961565D01*
X93609504Y-31966745D01*
X93915655Y-32272896D01*
X93941066Y-32327390D01*
X93941400Y-32335051D01*
X93941400Y-35406749D01*
X93920835Y-35463250D01*
X93915655Y-35468904D01*
X91348904Y-38035655D01*
X91294410Y-38061066D01*
X91286749Y-38061400D01*
X84739991Y-38061400D01*
X84652652Y-38084801D01*
X84652652Y-38084802D01*
X84645433Y-38088970D01*
X84645432Y-38088969D01*
X84574348Y-38130010D01*
X84574347Y-38130011D01*
X84465504Y-38238855D01*
X84411010Y-38264266D01*
X84403349Y-38264600D01*
X79964791Y-38264600D01*
X79877454Y-38288001D01*
X79851958Y-38302722D01*
X79799145Y-38333213D01*
X79258271Y-38874086D01*
X79203777Y-38899497D01*
X79154685Y-38889454D01*
X79150419Y-38887174D01*
X79150409Y-38887170D01*
X78949233Y-38826144D01*
X78949228Y-38826143D01*
X78949227Y-38826143D01*
X78740000Y-38805536D01*
X78530773Y-38826143D01*
X78530771Y-38826143D01*
X78530766Y-38826144D01*
X78329590Y-38887170D01*
X78329589Y-38887170D01*
X78144170Y-38986279D01*
X77981655Y-39119651D01*
X77981651Y-39119655D01*
X77848279Y-39282170D01*
X77749170Y-39467589D01*
X77749170Y-39467590D01*
X77688144Y-39668766D01*
X77688143Y-39668771D01*
X77688143Y-39668773D01*
X77667536Y-39878000D01*
X77272464Y-39878000D01*
X77251857Y-39668773D01*
X77190828Y-39467586D01*
X77188546Y-39463318D01*
X77180048Y-39403797D01*
X77203910Y-39359729D01*
X78551696Y-38011945D01*
X78606190Y-37986534D01*
X78613851Y-37986200D01*
X83789008Y-37986200D01*
X83789009Y-37986200D01*
X83852946Y-37969068D01*
X83876348Y-37962798D01*
X83954653Y-37917588D01*
X84869815Y-37002425D01*
X84907204Y-36980243D01*
X85017424Y-36947879D01*
X85017425Y-36947878D01*
X85017430Y-36947877D01*
X85122007Y-36880670D01*
X85203413Y-36786722D01*
X85255054Y-36673645D01*
X85255315Y-36671828D01*
X85272745Y-36550603D01*
X85272745Y-36550596D01*
X85255055Y-36427561D01*
X85255054Y-36427560D01*
X85255054Y-36427555D01*
X85203413Y-36314478D01*
X85122007Y-36220530D01*
X85122005Y-36220529D01*
X85122003Y-36220527D01*
X85017432Y-36153324D01*
X85017426Y-36153321D01*
X84898159Y-36118300D01*
X84898155Y-36118300D01*
X84773845Y-36118300D01*
X84773840Y-36118300D01*
X84654573Y-36153321D01*
X84654567Y-36153324D01*
X84549996Y-36220527D01*
X84549991Y-36220531D01*
X84468586Y-36314479D01*
X84416946Y-36427554D01*
X84411628Y-36464536D01*
X84386778Y-36514179D01*
X83627304Y-37273655D01*
X83572810Y-37299066D01*
X83565149Y-37299400D01*
X78389991Y-37299400D01*
X78340478Y-37312667D01*
X78340477Y-37312667D01*
X78302654Y-37322801D01*
X78224349Y-37368010D01*
X76718271Y-38874086D01*
X76663777Y-38899497D01*
X76614685Y-38889454D01*
X76610419Y-38887174D01*
X76610409Y-38887170D01*
X76409233Y-38826144D01*
X76409228Y-38826143D01*
X76409227Y-38826143D01*
X76200000Y-38805536D01*
X75990773Y-38826143D01*
X75990771Y-38826143D01*
X75990766Y-38826144D01*
X75789590Y-38887170D01*
X75789589Y-38887170D01*
X75604170Y-38986279D01*
X75441655Y-39119651D01*
X75441651Y-39119655D01*
X75308279Y-39282170D01*
X75209170Y-39467589D01*
X75209170Y-39467590D01*
X75148144Y-39668766D01*
X75148143Y-39668771D01*
X75148143Y-39668773D01*
X75127536Y-39878000D01*
X74732464Y-39878000D01*
X74711857Y-39668773D01*
X74650828Y-39467586D01*
X74551721Y-39282171D01*
X74418347Y-39119653D01*
X74255829Y-38986279D01*
X74070414Y-38887172D01*
X74070413Y-38887171D01*
X74070410Y-38887170D01*
X73869233Y-38826144D01*
X73869228Y-38826143D01*
X73869227Y-38826143D01*
X73660000Y-38805536D01*
X73450773Y-38826143D01*
X73450771Y-38826143D01*
X73450766Y-38826144D01*
X73249590Y-38887170D01*
X73249589Y-38887170D01*
X73064170Y-38986279D01*
X72901655Y-39119651D01*
X72901651Y-39119655D01*
X72768279Y-39282170D01*
X72669170Y-39467589D01*
X72669170Y-39467590D01*
X72608144Y-39668766D01*
X72608143Y-39668771D01*
X72608143Y-39668773D01*
X72587536Y-39878000D01*
X72187299Y-39878000D01*
X72187299Y-39040134D01*
X72187299Y-39040133D01*
X72187299Y-39040131D01*
X72176587Y-38986279D01*
X72172534Y-38965899D01*
X72116284Y-38881716D01*
X72104865Y-38874086D01*
X72032101Y-38825465D01*
X71978992Y-38814902D01*
X71957867Y-38810700D01*
X71957865Y-38810700D01*
X70282131Y-38810700D01*
X70207899Y-38825466D01*
X70123717Y-38881715D01*
X70123714Y-38881718D01*
X70067465Y-38965898D01*
X70055902Y-39024036D01*
X70052701Y-39040131D01*
X70052700Y-39040134D01*
X67107299Y-39040134D01*
X67107299Y-39040133D01*
X67107299Y-39040131D01*
X67096587Y-38986279D01*
X67092534Y-38965899D01*
X67036284Y-38881716D01*
X67024865Y-38874086D01*
X66952101Y-38825465D01*
X66898992Y-38814902D01*
X66877867Y-38810700D01*
X66877865Y-38810700D01*
X65202131Y-38810700D01*
X65127899Y-38825466D01*
X65043717Y-38881715D01*
X65043714Y-38881718D01*
X64987465Y-38965898D01*
X64975902Y-39024036D01*
X64972701Y-39040131D01*
X64972700Y-39040134D01*
X62550010Y-39040134D01*
X62521213Y-38977078D01*
X62439807Y-38883130D01*
X62439805Y-38883129D01*
X62439803Y-38883127D01*
X62335232Y-38815924D01*
X62335226Y-38815921D01*
X62215959Y-38780900D01*
X62215955Y-38780900D01*
X62091645Y-38780900D01*
X62091640Y-38780900D01*
X61972373Y-38815921D01*
X61972367Y-38815924D01*
X61867796Y-38883127D01*
X61867791Y-38883131D01*
X61786386Y-38977079D01*
X61734746Y-39090155D01*
X61734744Y-39090161D01*
X61717055Y-39213196D01*
X48011500Y-39213196D01*
X48011500Y-39209400D01*
X48032065Y-39152899D01*
X48084136Y-39122835D01*
X48099400Y-39121500D01*
X49983669Y-39121500D01*
X49983675Y-39121500D01*
X50036377Y-39116092D01*
X50071336Y-39108841D01*
X50111356Y-39097118D01*
X50197049Y-39043186D01*
X50240710Y-39001847D01*
X50294399Y-38929462D01*
X50680284Y-38157691D01*
X50691876Y-38130815D01*
X50698679Y-38112224D01*
X50704263Y-38095158D01*
X50712883Y-37994274D01*
X50709371Y-37962797D01*
X50705874Y-37931446D01*
X50720047Y-37873013D01*
X50768465Y-37837361D01*
X50793232Y-37833800D01*
X50946808Y-37833800D01*
X50946809Y-37833800D01*
X51023884Y-37813148D01*
X51034148Y-37810398D01*
X51112453Y-37765188D01*
X51184045Y-37693596D01*
X56088455Y-37693596D01*
X56088455Y-37693603D01*
X56106144Y-37816638D01*
X56106145Y-37816643D01*
X56106146Y-37816645D01*
X56157787Y-37929722D01*
X56239193Y-38023670D01*
X56343770Y-38090877D01*
X56343772Y-38090877D01*
X56343773Y-38090878D01*
X56463040Y-38125899D01*
X56463044Y-38125900D01*
X56463045Y-38125900D01*
X56587356Y-38125900D01*
X56587359Y-38125899D01*
X56646992Y-38108388D01*
X56706630Y-38090877D01*
X56811207Y-38023670D01*
X56892613Y-37929722D01*
X56944254Y-37816645D01*
X56956861Y-37728960D01*
X56961945Y-37693603D01*
X56961945Y-37693596D01*
X57693655Y-37693596D01*
X57693655Y-37693603D01*
X57711344Y-37816638D01*
X57711345Y-37816643D01*
X57711346Y-37816645D01*
X57762987Y-37929722D01*
X57844393Y-38023670D01*
X57948970Y-38090877D01*
X57948972Y-38090877D01*
X57948973Y-38090878D01*
X58068240Y-38125899D01*
X58068244Y-38125900D01*
X58068245Y-38125900D01*
X58192556Y-38125900D01*
X58192559Y-38125899D01*
X58252192Y-38108388D01*
X58311830Y-38090877D01*
X58416407Y-38023670D01*
X58497813Y-37929722D01*
X58549454Y-37816645D01*
X58562061Y-37728960D01*
X58567145Y-37693603D01*
X58567145Y-37693596D01*
X58549455Y-37570561D01*
X58549454Y-37570560D01*
X58549454Y-37570555D01*
X58497813Y-37457478D01*
X58416407Y-37363530D01*
X58416405Y-37363529D01*
X58416403Y-37363527D01*
X58311832Y-37296324D01*
X58311826Y-37296321D01*
X58192559Y-37261300D01*
X58192555Y-37261300D01*
X58068245Y-37261300D01*
X58068240Y-37261300D01*
X57948973Y-37296321D01*
X57948967Y-37296324D01*
X57844396Y-37363527D01*
X57844391Y-37363531D01*
X57762986Y-37457479D01*
X57711346Y-37570555D01*
X57711344Y-37570561D01*
X57693655Y-37693596D01*
X56961945Y-37693596D01*
X56944255Y-37570561D01*
X56944254Y-37570560D01*
X56944254Y-37570555D01*
X56892613Y-37457478D01*
X56811207Y-37363530D01*
X56811205Y-37363529D01*
X56811203Y-37363527D01*
X56706632Y-37296324D01*
X56706626Y-37296321D01*
X56587359Y-37261300D01*
X56587355Y-37261300D01*
X56463045Y-37261300D01*
X56463040Y-37261300D01*
X56343773Y-37296321D01*
X56343767Y-37296324D01*
X56239196Y-37363527D01*
X56239191Y-37363531D01*
X56157786Y-37457479D01*
X56106146Y-37570555D01*
X56106144Y-37570561D01*
X56088455Y-37693596D01*
X51184045Y-37693596D01*
X52923096Y-35954545D01*
X52977590Y-35929134D01*
X52985251Y-35928800D01*
X56803790Y-35928800D01*
X56860291Y-35949365D01*
X56890355Y-36001436D01*
X56890666Y-36021114D01*
X56891055Y-36021114D01*
X56891055Y-36027403D01*
X56908744Y-36150438D01*
X56908745Y-36150443D01*
X56908746Y-36150445D01*
X56956804Y-36255676D01*
X56959046Y-36260585D01*
X56963811Y-36320523D01*
X56928934Y-36369501D01*
X56879089Y-36385000D01*
X53554874Y-36385000D01*
X53507352Y-36371046D01*
X53445232Y-36331124D01*
X53445226Y-36331121D01*
X53325959Y-36296100D01*
X53325955Y-36296100D01*
X53201645Y-36296100D01*
X53201640Y-36296100D01*
X53082373Y-36331121D01*
X53082367Y-36331124D01*
X52977796Y-36398327D01*
X52977791Y-36398331D01*
X52896386Y-36492279D01*
X52844746Y-36605355D01*
X52844744Y-36605361D01*
X52827055Y-36728396D01*
X52827055Y-36728403D01*
X52844744Y-36851438D01*
X52844746Y-36851444D01*
X52888784Y-36947875D01*
X52896387Y-36964522D01*
X52912312Y-36982900D01*
X52974498Y-37054668D01*
X52977793Y-37058470D01*
X53082370Y-37125677D01*
X53082372Y-37125677D01*
X53082373Y-37125678D01*
X53201640Y-37160699D01*
X53201644Y-37160700D01*
X53201645Y-37160700D01*
X53325956Y-37160700D01*
X53325959Y-37160699D01*
X53385592Y-37143188D01*
X53445230Y-37125677D01*
X53507352Y-37085754D01*
X53554874Y-37071800D01*
X79775808Y-37071800D01*
X79775809Y-37071800D01*
X79839746Y-37054668D01*
X79863148Y-37048398D01*
X79941453Y-37003188D01*
X81146574Y-35798065D01*
X81183958Y-35775884D01*
X81258230Y-35754077D01*
X81362807Y-35686870D01*
X81444213Y-35592922D01*
X81495854Y-35479845D01*
X81501129Y-35443159D01*
X81513545Y-35356803D01*
X81513545Y-35356796D01*
X81497013Y-35241809D01*
X81509327Y-35182956D01*
X81556591Y-35145789D01*
X81584018Y-35141400D01*
X90268608Y-35141400D01*
X90268609Y-35141400D01*
X90332546Y-35124268D01*
X90355948Y-35117998D01*
X90434253Y-35072788D01*
X91981815Y-33525225D01*
X92019204Y-33503043D01*
X92129424Y-33470679D01*
X92129425Y-33470678D01*
X92129430Y-33470677D01*
X92234007Y-33403470D01*
X92315413Y-33309522D01*
X92367054Y-33196445D01*
X92370847Y-33170063D01*
X92384745Y-33073403D01*
X92384745Y-33073396D01*
X92367055Y-32950361D01*
X92367054Y-32950360D01*
X92367054Y-32950355D01*
X92315413Y-32837278D01*
X92234007Y-32743330D01*
X92234005Y-32743329D01*
X92234003Y-32743327D01*
X92129432Y-32676124D01*
X92129426Y-32676121D01*
X92010159Y-32641100D01*
X92010155Y-32641100D01*
X91885845Y-32641100D01*
X91885840Y-32641100D01*
X91766573Y-32676121D01*
X91766567Y-32676124D01*
X91661996Y-32743327D01*
X91661991Y-32743331D01*
X91580586Y-32837279D01*
X91528946Y-32950355D01*
X91523629Y-32987334D01*
X91498779Y-33036979D01*
X90106904Y-34428855D01*
X90052410Y-34454266D01*
X90044749Y-34454600D01*
X81627400Y-34454600D01*
X81570899Y-34434035D01*
X81540835Y-34381964D01*
X81539500Y-34366700D01*
X81539500Y-32901074D01*
X81539500Y-32901044D01*
X81539426Y-32894845D01*
X81539326Y-32890660D01*
X81519249Y-32796597D01*
X81496018Y-32741139D01*
X81454789Y-32673804D01*
X81454786Y-32673801D01*
X81375578Y-32610748D01*
X81375570Y-32610743D01*
X81322131Y-32583196D01*
X81322130Y-32583195D01*
X81322127Y-32583194D01*
X81322120Y-32583191D01*
X81322116Y-32583190D01*
X81247272Y-32558117D01*
X81247271Y-32558116D01*
X81247269Y-32558116D01*
X81247268Y-32558116D01*
X81146048Y-32560728D01*
X81087402Y-32573975D01*
X81059049Y-32585851D01*
X81049865Y-32589112D01*
X81044670Y-32590638D01*
X81044656Y-32590640D01*
X81044657Y-32590641D01*
X81022321Y-32597200D01*
X80986769Y-32607639D01*
X80962005Y-32611200D01*
X80937594Y-32611200D01*
X80912829Y-32607639D01*
X80889402Y-32600760D01*
X80866649Y-32590369D01*
X80846101Y-32577164D01*
X80827197Y-32560782D01*
X80811213Y-32542335D01*
X80797688Y-32521290D01*
X80787543Y-32499076D01*
X80780494Y-32475070D01*
X80777020Y-32450904D01*
X80777020Y-32425893D01*
X80780495Y-32401724D01*
X80787542Y-32377725D01*
X80795820Y-32359599D01*
X80797688Y-32355507D01*
X80811211Y-32334465D01*
X80827199Y-32316013D01*
X80846103Y-32299632D01*
X80866649Y-32286428D01*
X80889406Y-32276037D01*
X80912829Y-32269160D01*
X80937591Y-32265600D01*
X80962009Y-32265600D01*
X80986774Y-32269161D01*
X81050764Y-32287951D01*
X81057043Y-32290055D01*
X81079788Y-32298641D01*
X81103088Y-32307437D01*
X81162302Y-32317878D01*
X81162301Y-32317878D01*
X81241235Y-32319600D01*
X81241235Y-32319599D01*
X81241238Y-32319600D01*
X81337117Y-32287052D01*
X81389188Y-32256988D01*
X81450758Y-32207573D01*
X81503285Y-32121011D01*
X81523850Y-32064510D01*
X81539500Y-31975755D01*
X81539500Y-28028400D01*
X81560065Y-27971899D01*
X81612136Y-27941835D01*
X81627400Y-27940500D01*
X98358052Y-27940500D01*
X98422117Y-27940500D01*
X98427866Y-27940688D01*
G37*
%TD.AperFunction*%
%TA.AperFunction,Conductor*%
G36*
X48195852Y-37403019D02*
G01*
X48208167Y-37461872D01*
X48204674Y-37476790D01*
X48184782Y-37537357D01*
X48184781Y-37537362D01*
X48175304Y-37603271D01*
X48168255Y-37627275D01*
X48158111Y-37649487D01*
X48144586Y-37670534D01*
X48128601Y-37688982D01*
X48109693Y-37705366D01*
X48089152Y-37718567D01*
X48066397Y-37728959D01*
X48042973Y-37735838D01*
X48018205Y-37739400D01*
X47993794Y-37739400D01*
X47969029Y-37735839D01*
X47945602Y-37728960D01*
X47922847Y-37718567D01*
X47902306Y-37705367D01*
X47883399Y-37688984D01*
X47873589Y-37677662D01*
X47867408Y-37670529D01*
X47853887Y-37649487D01*
X47843743Y-37627275D01*
X47836694Y-37603270D01*
X47833220Y-37579104D01*
X47833220Y-37554093D01*
X47836695Y-37529924D01*
X47843742Y-37505925D01*
X47853888Y-37483707D01*
X47867411Y-37462665D01*
X47883399Y-37444213D01*
X47902305Y-37427832D01*
X47922847Y-37414630D01*
X47945601Y-37404238D01*
X47985912Y-37392401D01*
X47993335Y-37390568D01*
X48069991Y-37375167D01*
X48088492Y-37367759D01*
X48148589Y-37365851D01*
X48195852Y-37403019D01*
G37*
%TD.AperFunction*%
%TA.AperFunction,Conductor*%
G36*
X80626083Y-35161965D02*
G01*
X80656147Y-35214036D01*
X80656587Y-35241810D01*
X80648163Y-35300399D01*
X80623313Y-35350044D01*
X79614104Y-36359255D01*
X79559610Y-36384666D01*
X79551949Y-36385000D01*
X57776511Y-36385000D01*
X57720010Y-36364435D01*
X57689946Y-36312364D01*
X57696554Y-36260585D01*
X57698796Y-36255676D01*
X57746854Y-36150445D01*
X57751476Y-36118300D01*
X57764545Y-36027403D01*
X57764545Y-36021114D01*
X57766501Y-36021114D01*
X57777115Y-35970363D01*
X57824376Y-35933191D01*
X57851810Y-35928800D01*
X71520808Y-35928800D01*
X71520809Y-35928800D01*
X71584746Y-35911668D01*
X71608148Y-35905398D01*
X71686453Y-35860188D01*
X72379496Y-35167145D01*
X72433990Y-35141734D01*
X72441651Y-35141400D01*
X80569582Y-35141400D01*
X80626083Y-35161965D01*
G37*
%TD.AperFunction*%
%TA.AperFunction,Conductor*%
G36*
X48299569Y-36025759D02*
G01*
X48322995Y-36032637D01*
X48345750Y-36043030D01*
X48366292Y-36056232D01*
X48385199Y-36072615D01*
X48401186Y-36091065D01*
X48414709Y-36112107D01*
X48424855Y-36134321D01*
X48431902Y-36158322D01*
X48435377Y-36182489D01*
X48435377Y-36207513D01*
X48431902Y-36231675D01*
X48424854Y-36255675D01*
X48414712Y-36277884D01*
X48401186Y-36298932D01*
X48368019Y-36337209D01*
X48368016Y-36337213D01*
X48363175Y-36344879D01*
X48315617Y-36381669D01*
X48255537Y-36379281D01*
X48249822Y-36376698D01*
X48223310Y-36363557D01*
X48202203Y-36357359D01*
X48179451Y-36346969D01*
X48158910Y-36333769D01*
X48139931Y-36317304D01*
X48139829Y-36317186D01*
X48139782Y-36317130D01*
X48124010Y-36298930D01*
X48110485Y-36277884D01*
X48100340Y-36255671D01*
X48093294Y-36231671D01*
X48089820Y-36207504D01*
X48089820Y-36182493D01*
X48093295Y-36158324D01*
X48100342Y-36134325D01*
X48110488Y-36112107D01*
X48124011Y-36091065D01*
X48139999Y-36072613D01*
X48158903Y-36056232D01*
X48179449Y-36043028D01*
X48202206Y-36032637D01*
X48225629Y-36025760D01*
X48250391Y-36022200D01*
X48274811Y-36022200D01*
X48299569Y-36025759D01*
G37*
%TD.AperFunction*%
%TA.AperFunction,Conductor*%
G36*
X56043969Y-32723759D02*
G01*
X56067395Y-32730637D01*
X56090150Y-32741030D01*
X56110692Y-32754232D01*
X56129598Y-32770614D01*
X56145583Y-32789061D01*
X56159111Y-32810110D01*
X56178094Y-32851678D01*
X56183218Y-32866109D01*
X56185307Y-32874161D01*
X56185309Y-32874166D01*
X56199127Y-32910337D01*
X56199132Y-32910349D01*
X56219425Y-32951916D01*
X56251795Y-32987383D01*
X56287683Y-33026704D01*
X56336101Y-33062354D01*
X56416852Y-33102376D01*
X56448398Y-33111639D01*
X56471144Y-33122026D01*
X56491695Y-33135233D01*
X56510594Y-33151610D01*
X56526588Y-33170067D01*
X56540109Y-33191107D01*
X56550255Y-33213321D01*
X56557302Y-33237322D01*
X56560777Y-33261488D01*
X56560777Y-33286511D01*
X56557302Y-33310676D01*
X56550255Y-33334677D01*
X56537056Y-33363580D01*
X56535382Y-33367324D01*
X56534247Y-33369916D01*
X56534246Y-33369918D01*
X56512757Y-33461748D01*
X56509924Y-33521800D01*
X56509924Y-33521806D01*
X56518245Y-33600319D01*
X56518246Y-33600321D01*
X56562710Y-33691287D01*
X56562713Y-33691291D01*
X56562712Y-33691291D01*
X56584916Y-33720437D01*
X56587530Y-33728831D01*
X56604890Y-33748865D01*
X56604890Y-33748866D01*
X56653586Y-33805065D01*
X56653588Y-33805067D01*
X56667111Y-33826110D01*
X56677254Y-33848319D01*
X56684302Y-33872322D01*
X56687777Y-33896489D01*
X56687777Y-33921510D01*
X56684303Y-33945671D01*
X56677256Y-33969674D01*
X56667648Y-33990712D01*
X56661627Y-34003898D01*
X56661627Y-34003899D01*
X56661626Y-34003899D01*
X56654876Y-34018678D01*
X56647077Y-34037718D01*
X56642303Y-34050838D01*
X56639298Y-34059578D01*
X56627475Y-34160138D01*
X56632238Y-34220074D01*
X56649661Y-34287224D01*
X56654874Y-34307315D01*
X56654876Y-34307320D01*
X56677254Y-34356320D01*
X56684303Y-34380326D01*
X56687777Y-34404487D01*
X56687777Y-34429508D01*
X56684302Y-34453675D01*
X56677254Y-34477679D01*
X56667112Y-34499887D01*
X56653587Y-34520933D01*
X56649384Y-34525784D01*
X56637601Y-34539382D01*
X56618693Y-34555766D01*
X56598152Y-34568967D01*
X56575397Y-34579359D01*
X56551973Y-34586238D01*
X56527205Y-34589800D01*
X56502795Y-34589800D01*
X56478030Y-34586239D01*
X56454603Y-34579360D01*
X56431850Y-34568969D01*
X56406544Y-34552706D01*
X56351118Y-34525782D01*
X56351114Y-34525780D01*
X56311964Y-34512230D01*
X56311965Y-34512230D01*
X56287256Y-34506288D01*
X56262992Y-34500453D01*
X56262991Y-34500453D01*
X56161905Y-34506274D01*
X56103702Y-34521376D01*
X56031191Y-34552597D01*
X56031190Y-34552598D01*
X55957502Y-34622027D01*
X55957494Y-34622036D01*
X55922621Y-34671008D01*
X55887140Y-34741543D01*
X55875320Y-34842107D01*
X55880085Y-34902031D01*
X55880087Y-34902043D01*
X55902721Y-34989276D01*
X55915254Y-35016720D01*
X55922302Y-35040721D01*
X55925777Y-35064884D01*
X55925778Y-35089904D01*
X55923656Y-35104662D01*
X55923655Y-35104668D01*
X55921048Y-35145698D01*
X55921160Y-35152704D01*
X55901495Y-35209524D01*
X55849908Y-35240411D01*
X55833271Y-35242000D01*
X53656902Y-35242000D01*
X53600401Y-35221435D01*
X53570337Y-35169364D01*
X53569897Y-35141592D01*
X53577094Y-35091531D01*
X53584142Y-35067525D01*
X53594288Y-35045307D01*
X53607811Y-35024265D01*
X53623799Y-35005813D01*
X53642703Y-34989432D01*
X53663249Y-34976228D01*
X53686006Y-34965837D01*
X53709429Y-34958960D01*
X53734191Y-34955400D01*
X53758610Y-34955400D01*
X53783374Y-34958960D01*
X53857875Y-34980837D01*
X53857878Y-34980838D01*
X53935107Y-34991318D01*
X53935111Y-34991317D01*
X53935112Y-34991318D01*
X53958830Y-34990941D01*
X53987299Y-34990490D01*
X54053321Y-34980865D01*
X54100027Y-34957137D01*
X54143585Y-34935010D01*
X54143586Y-34935008D01*
X54143592Y-34935006D01*
X54190855Y-34897839D01*
X54244771Y-34840161D01*
X54284445Y-34747005D01*
X54296760Y-34688152D01*
X54299620Y-34598075D01*
X54290020Y-34531305D01*
X54290020Y-34506294D01*
X54293495Y-34482123D01*
X54300542Y-34458125D01*
X54310688Y-34435907D01*
X54324211Y-34414865D01*
X54340199Y-34396413D01*
X54359103Y-34380032D01*
X54379649Y-34366828D01*
X54402406Y-34356437D01*
X54425829Y-34349560D01*
X54450591Y-34346000D01*
X54475011Y-34346000D01*
X54499767Y-34349558D01*
X54523200Y-34356439D01*
X54545950Y-34366829D01*
X54608513Y-34407036D01*
X54610754Y-34408476D01*
X54610787Y-34408497D01*
X54613616Y-34410317D01*
X54614126Y-34410643D01*
X54625691Y-34418076D01*
X54627168Y-34419894D01*
X54627566Y-34420109D01*
X54628518Y-34420208D01*
X54642348Y-34426392D01*
X54642356Y-34426396D01*
X54646690Y-34428333D01*
X54646702Y-34428338D01*
X54691694Y-34448456D01*
X54691699Y-34448458D01*
X54691706Y-34448461D01*
X54753582Y-34467299D01*
X54852379Y-34464752D01*
X54854801Y-34464690D01*
X54884125Y-34458067D01*
X54913450Y-34451444D01*
X54996576Y-34416626D01*
X55034851Y-34392028D01*
X55057598Y-34381639D01*
X55081031Y-34374758D01*
X55105788Y-34371200D01*
X55130209Y-34371200D01*
X55154968Y-34374759D01*
X55178397Y-34381638D01*
X55201148Y-34392029D01*
X55244995Y-34420208D01*
X55247683Y-34421935D01*
X55299223Y-34447479D01*
X55318788Y-34454600D01*
X55335613Y-34460724D01*
X55350532Y-34464690D01*
X55380320Y-34472609D01*
X55380320Y-34472608D01*
X55380321Y-34472609D01*
X55430930Y-34471304D01*
X55481540Y-34470000D01*
X55522606Y-34460725D01*
X55540189Y-34456754D01*
X55623315Y-34421936D01*
X55650467Y-34404487D01*
X55660199Y-34398233D01*
X55660209Y-34398226D01*
X55660214Y-34398223D01*
X55692948Y-34373311D01*
X55713648Y-34354791D01*
X55734697Y-34333658D01*
X55785846Y-34246276D01*
X55805513Y-34189456D01*
X55819687Y-34111783D01*
X55802699Y-34011967D01*
X55781241Y-33955799D01*
X55734946Y-33878472D01*
X55734940Y-33878466D01*
X55733850Y-33876644D01*
X55729314Y-33868014D01*
X55717739Y-33842667D01*
X55710694Y-33818668D01*
X55707220Y-33794504D01*
X55707220Y-33769493D01*
X55710695Y-33745323D01*
X55717742Y-33721325D01*
X55718148Y-33720437D01*
X55727888Y-33699107D01*
X55741411Y-33678065D01*
X55757399Y-33659613D01*
X55776306Y-33643231D01*
X55810816Y-33621053D01*
X55823571Y-33614267D01*
X55826200Y-33613136D01*
X55908088Y-33553585D01*
X55948883Y-33509414D01*
X55993002Y-33443944D01*
X56017454Y-33345689D01*
X56020313Y-33285630D01*
X56012025Y-33207107D01*
X55967598Y-33116123D01*
X55937431Y-33076489D01*
X55937386Y-33076345D01*
X55936362Y-33075084D01*
X55931186Y-33068284D01*
X55931185Y-33068283D01*
X55931182Y-33068279D01*
X55930006Y-33067193D01*
X55923227Y-33060194D01*
X55868411Y-32996931D01*
X55854886Y-32975886D01*
X55846312Y-32957112D01*
X55844742Y-32953675D01*
X55837694Y-32929671D01*
X55834916Y-32910349D01*
X55834220Y-32905504D01*
X55834220Y-32880493D01*
X55837695Y-32856324D01*
X55844742Y-32832325D01*
X55854888Y-32810107D01*
X55868411Y-32789065D01*
X55884399Y-32770613D01*
X55903303Y-32754232D01*
X55923849Y-32741028D01*
X55946606Y-32730637D01*
X55970029Y-32723760D01*
X55994791Y-32720200D01*
X56019211Y-32720200D01*
X56043969Y-32723759D01*
G37*
%TD.AperFunction*%
%TA.AperFunction,Conductor*%
G36*
X58710969Y-32723759D02*
G01*
X58734395Y-32730637D01*
X58757150Y-32741030D01*
X58777692Y-32754232D01*
X58796599Y-32770615D01*
X58812586Y-32789065D01*
X58826109Y-32810107D01*
X58836255Y-32832321D01*
X58843302Y-32856322D01*
X58846777Y-32880488D01*
X58846777Y-32905510D01*
X58843302Y-32929676D01*
X58836254Y-32953680D01*
X58826113Y-32975886D01*
X58812586Y-32996934D01*
X58786165Y-33027425D01*
X58775846Y-33037522D01*
X58772487Y-33040307D01*
X58772476Y-33040318D01*
X58710677Y-33120511D01*
X58710674Y-33120515D01*
X58683968Y-33174388D01*
X58668468Y-33223198D01*
X58668467Y-33223201D01*
X58660070Y-33249638D01*
X58664278Y-33350800D01*
X58664279Y-33350804D01*
X58677051Y-33403470D01*
X58678452Y-33409244D01*
X58708512Y-33482239D01*
X58773617Y-33553585D01*
X58776763Y-33557032D01*
X58813024Y-33583735D01*
X58815986Y-33585916D01*
X58816342Y-33586451D01*
X58816902Y-33586811D01*
X58821497Y-33589975D01*
X58822869Y-33590985D01*
X58822869Y-33590984D01*
X58823186Y-33591217D01*
X58823186Y-33591218D01*
X58825149Y-33592664D01*
X58825151Y-33592665D01*
X58844204Y-33606696D01*
X58849431Y-33607747D01*
X58851207Y-33608859D01*
X58855025Y-33611313D01*
X58883479Y-33629599D01*
X58904691Y-33643231D01*
X58923595Y-33659610D01*
X58939585Y-33678064D01*
X58953109Y-33699109D01*
X58963253Y-33721321D01*
X58970302Y-33745323D01*
X58973777Y-33769485D01*
X58973777Y-33794510D01*
X58970302Y-33818675D01*
X58963254Y-33842676D01*
X58952085Y-33867134D01*
X58942911Y-33882738D01*
X58921672Y-33911582D01*
X58907029Y-33935181D01*
X58907022Y-33935193D01*
X58892777Y-33961402D01*
X58892773Y-33961413D01*
X58868319Y-34059659D01*
X58868318Y-34059668D01*
X58865458Y-34119711D01*
X58865458Y-34119723D01*
X58873742Y-34198239D01*
X58873744Y-34198243D01*
X58918162Y-34289221D01*
X58918165Y-34289226D01*
X58918166Y-34289227D01*
X58931932Y-34307315D01*
X58938083Y-34315396D01*
X58938084Y-34315398D01*
X58954579Y-34337072D01*
X59020781Y-34398219D01*
X59031687Y-34405228D01*
X59050594Y-34421610D01*
X59066583Y-34440061D01*
X59080110Y-34461108D01*
X59087677Y-34477677D01*
X59090255Y-34483321D01*
X59097303Y-34507326D01*
X59100777Y-34531487D01*
X59100777Y-34556507D01*
X59097302Y-34580675D01*
X59090254Y-34604679D01*
X59082330Y-34622032D01*
X59080113Y-34626886D01*
X59066587Y-34647933D01*
X59050601Y-34666382D01*
X59031692Y-34682766D01*
X59011149Y-34695968D01*
X58988395Y-34706360D01*
X58964974Y-34713238D01*
X58940206Y-34716800D01*
X58915794Y-34716800D01*
X58891029Y-34713239D01*
X58867605Y-34706361D01*
X58844846Y-34695967D01*
X58824306Y-34682766D01*
X58805400Y-34666384D01*
X58761593Y-34615829D01*
X58758486Y-34612034D01*
X58757210Y-34610383D01*
X58752595Y-34604680D01*
X58750090Y-34601584D01*
X58750088Y-34601582D01*
X58750087Y-34601581D01*
X58709118Y-34568967D01*
X58670875Y-34538522D01*
X58617432Y-34510970D01*
X58617428Y-34510968D01*
X58617419Y-34510964D01*
X58542571Y-34485888D01*
X58441351Y-34488496D01*
X58382709Y-34501741D01*
X58382699Y-34501744D01*
X58299571Y-34536564D01*
X58299568Y-34536566D01*
X58249152Y-34568967D01*
X58226397Y-34579359D01*
X58202969Y-34586239D01*
X58178205Y-34589800D01*
X58153794Y-34589800D01*
X58129029Y-34586239D01*
X58105602Y-34579360D01*
X58082847Y-34568967D01*
X58062309Y-34555769D01*
X58043402Y-34539386D01*
X58027412Y-34520933D01*
X58013885Y-34499885D01*
X58003743Y-34477677D01*
X57996695Y-34453676D01*
X57993220Y-34429503D01*
X57993220Y-34404493D01*
X57996694Y-34380324D01*
X58003743Y-34356323D01*
X58026125Y-34307315D01*
X58033926Y-34288268D01*
X58038691Y-34275176D01*
X58041703Y-34266417D01*
X58053524Y-34165858D01*
X58053069Y-34160138D01*
X58048760Y-34105931D01*
X58048759Y-34105929D01*
X58048759Y-34105920D01*
X58026124Y-34018684D01*
X58003741Y-33969674D01*
X57996695Y-33945676D01*
X57993220Y-33921503D01*
X57993220Y-33896493D01*
X57996695Y-33872324D01*
X58003742Y-33848325D01*
X58003745Y-33848319D01*
X58013888Y-33826107D01*
X58027411Y-33805065D01*
X58076109Y-33748866D01*
X58076108Y-33748865D01*
X58078109Y-33746557D01*
X58078423Y-33746380D01*
X58080009Y-33744364D01*
X58092668Y-33729754D01*
X58094455Y-33723393D01*
X58111747Y-33699110D01*
X58124040Y-33681848D01*
X58159523Y-33611314D01*
X58171344Y-33510755D01*
X58171237Y-33509414D01*
X58166580Y-33450828D01*
X58166579Y-33450826D01*
X58166579Y-33450817D01*
X58143944Y-33363581D01*
X58135773Y-33345689D01*
X58130743Y-33334675D01*
X58123694Y-33310670D01*
X58123529Y-33309520D01*
X58120220Y-33286504D01*
X58120220Y-33261493D01*
X58123695Y-33237324D01*
X58130742Y-33213325D01*
X58140888Y-33191107D01*
X58154411Y-33170065D01*
X58170399Y-33151613D01*
X58189303Y-33135232D01*
X58209849Y-33122028D01*
X58232606Y-33111637D01*
X58264148Y-33102376D01*
X58317204Y-33080153D01*
X58351048Y-33061323D01*
X58389308Y-33035317D01*
X58453618Y-32957112D01*
X58482014Y-32904113D01*
X58488315Y-32884922D01*
X58491859Y-32875862D01*
X58521886Y-32810110D01*
X58535409Y-32789069D01*
X58537462Y-32786698D01*
X58551400Y-32770613D01*
X58570307Y-32754230D01*
X58590849Y-32741028D01*
X58613606Y-32730637D01*
X58637029Y-32723760D01*
X58661791Y-32720200D01*
X58686211Y-32720200D01*
X58710969Y-32723759D01*
G37*
%TD.AperFunction*%
%TA.AperFunction,Conductor*%
G36*
X75322569Y-33739759D02*
G01*
X75345995Y-33746637D01*
X75368750Y-33757030D01*
X75389292Y-33770232D01*
X75408199Y-33786615D01*
X75424186Y-33805065D01*
X75437709Y-33826107D01*
X75447854Y-33848319D01*
X75454902Y-33872322D01*
X75458377Y-33896488D01*
X75458377Y-33921510D01*
X75454902Y-33945676D01*
X75447854Y-33969680D01*
X75437713Y-33991886D01*
X75424187Y-34012932D01*
X75419206Y-34018682D01*
X75408201Y-34031382D01*
X75389294Y-34047765D01*
X75352066Y-34071690D01*
X75352067Y-34071691D01*
X75347778Y-34074447D01*
X75347769Y-34074453D01*
X75341321Y-34079778D01*
X75284658Y-34099893D01*
X75228323Y-34078880D01*
X75225718Y-34076568D01*
X75224247Y-34075209D01*
X75223419Y-34074445D01*
X75223417Y-34074443D01*
X75223414Y-34074441D01*
X75208503Y-34064859D01*
X75208503Y-34064858D01*
X75208500Y-34064857D01*
X75181909Y-34047769D01*
X75162999Y-34031384D01*
X75147010Y-34012931D01*
X75133487Y-33991887D01*
X75123343Y-33969675D01*
X75116294Y-33945670D01*
X75114788Y-33935193D01*
X75112820Y-33921504D01*
X75112820Y-33896493D01*
X75116295Y-33872324D01*
X75123342Y-33848325D01*
X75123345Y-33848319D01*
X75133488Y-33826107D01*
X75147011Y-33805065D01*
X75162999Y-33786613D01*
X75181903Y-33770232D01*
X75202449Y-33757028D01*
X75225206Y-33746637D01*
X75248629Y-33739760D01*
X75273391Y-33736200D01*
X75297811Y-33736200D01*
X75322569Y-33739759D01*
G37*
%TD.AperFunction*%
%TA.AperFunction,Conductor*%
G36*
X70140970Y-30310759D02*
G01*
X70173760Y-30320387D01*
X70188014Y-30325963D01*
X70221731Y-30342673D01*
X70258121Y-30355917D01*
X70258129Y-30355919D01*
X70302805Y-30367796D01*
X70302809Y-30367796D01*
X70302811Y-30367797D01*
X70302811Y-30367796D01*
X70302812Y-30367797D01*
X70353420Y-30366494D01*
X70404030Y-30365192D01*
X70437580Y-30357616D01*
X70462673Y-30351950D01*
X70462675Y-30351949D01*
X70462680Y-30351948D01*
X70523668Y-30326403D01*
X70532831Y-30323150D01*
X70575029Y-30310759D01*
X70599790Y-30307200D01*
X70624209Y-30307200D01*
X70648970Y-30310759D01*
X70681760Y-30320387D01*
X70696014Y-30325963D01*
X70729731Y-30342673D01*
X70766121Y-30355917D01*
X70766129Y-30355919D01*
X70810805Y-30367796D01*
X70810809Y-30367796D01*
X70810811Y-30367797D01*
X70810811Y-30367796D01*
X70810812Y-30367797D01*
X70861420Y-30366494D01*
X70912030Y-30365192D01*
X70945580Y-30357616D01*
X70970673Y-30351950D01*
X70970675Y-30351949D01*
X70970680Y-30351948D01*
X71031668Y-30326403D01*
X71040831Y-30323150D01*
X71083029Y-30310759D01*
X71107790Y-30307200D01*
X71132211Y-30307200D01*
X71156969Y-30310759D01*
X71180395Y-30317637D01*
X71203150Y-30328030D01*
X71223692Y-30341232D01*
X71242598Y-30357614D01*
X71251421Y-30367796D01*
X71258586Y-30376065D01*
X71272109Y-30397107D01*
X71282255Y-30419321D01*
X71289302Y-30443322D01*
X71292777Y-30467489D01*
X71292777Y-30492511D01*
X71289303Y-30516671D01*
X71282256Y-30540673D01*
X71259869Y-30589695D01*
X71252078Y-30608718D01*
X71247303Y-30621838D01*
X71244298Y-30630578D01*
X71232475Y-30731138D01*
X71237238Y-30791074D01*
X71254661Y-30858224D01*
X71259874Y-30878315D01*
X71259876Y-30878320D01*
X71282254Y-30927320D01*
X71289303Y-30951326D01*
X71292777Y-30975487D01*
X71292777Y-31000508D01*
X71289302Y-31024675D01*
X71282254Y-31048679D01*
X71272112Y-31070887D01*
X71258586Y-31091934D01*
X71242600Y-31110383D01*
X71223691Y-31126767D01*
X71203153Y-31139966D01*
X71180401Y-31150358D01*
X71168684Y-31153799D01*
X71168678Y-31153801D01*
X71156970Y-31157239D01*
X71132204Y-31160800D01*
X71107794Y-31160800D01*
X71083029Y-31157239D01*
X71050244Y-31147612D01*
X71035978Y-31142031D01*
X71002280Y-31125330D01*
X71002272Y-31125327D01*
X71002270Y-31125326D01*
X70965875Y-31112080D01*
X70921169Y-31100197D01*
X70819948Y-31102809D01*
X70761299Y-31116057D01*
X70700352Y-31141586D01*
X70691158Y-31144850D01*
X70648966Y-31157239D01*
X70624201Y-31160800D01*
X70599794Y-31160800D01*
X70575029Y-31157239D01*
X70542244Y-31147612D01*
X70527978Y-31142031D01*
X70494280Y-31125330D01*
X70494272Y-31125327D01*
X70494270Y-31125326D01*
X70457875Y-31112080D01*
X70413169Y-31100197D01*
X70311948Y-31102809D01*
X70253299Y-31116057D01*
X70192352Y-31141586D01*
X70183158Y-31144850D01*
X70140966Y-31157239D01*
X70116201Y-31160800D01*
X70091794Y-31160800D01*
X70067029Y-31157239D01*
X70043605Y-31150361D01*
X70020847Y-31139967D01*
X70000305Y-31126765D01*
X69981402Y-31110386D01*
X69965409Y-31091929D01*
X69951887Y-31070887D01*
X69941743Y-31048675D01*
X69934694Y-31024670D01*
X69931220Y-31000504D01*
X69931220Y-30975493D01*
X69934694Y-30951324D01*
X69941743Y-30927323D01*
X69964125Y-30878315D01*
X69971926Y-30859268D01*
X69976691Y-30846176D01*
X69979703Y-30837417D01*
X69991524Y-30736858D01*
X69991069Y-30731138D01*
X69986759Y-30676920D01*
X69964125Y-30589686D01*
X69941742Y-30540674D01*
X69934694Y-30516670D01*
X69933783Y-30510334D01*
X69931220Y-30492504D01*
X69931220Y-30467493D01*
X69934695Y-30443324D01*
X69941742Y-30419325D01*
X69951888Y-30397107D01*
X69965411Y-30376065D01*
X69981399Y-30357613D01*
X70000303Y-30341232D01*
X70020849Y-30328028D01*
X70043606Y-30317637D01*
X70067029Y-30310760D01*
X70091791Y-30307200D01*
X70116209Y-30307200D01*
X70140970Y-30310759D01*
G37*
%TD.AperFunction*%
%TD*%
%TA.AperFunction,Conductor*%
%TO.N,/Block Diagram/Power Supplies/P3V3_AUX*%
G36*
X81248601Y-27961065D02*
G01*
X81278665Y-28013136D01*
X81280000Y-28028400D01*
X81280000Y-31975755D01*
X81259435Y-32032256D01*
X81207364Y-32062320D01*
X81148150Y-32051879D01*
X81144603Y-32049717D01*
X81131230Y-32041123D01*
X81131227Y-32041122D01*
X81131226Y-32041121D01*
X81011959Y-32006100D01*
X81011955Y-32006100D01*
X80887645Y-32006100D01*
X80887640Y-32006100D01*
X80768373Y-32041121D01*
X80768367Y-32041124D01*
X80663796Y-32108327D01*
X80663791Y-32108331D01*
X80582386Y-32202279D01*
X80530746Y-32315355D01*
X80530744Y-32315361D01*
X80513055Y-32438396D01*
X80513055Y-32438403D01*
X80530744Y-32561438D01*
X80530745Y-32561443D01*
X80530746Y-32561445D01*
X80582387Y-32674522D01*
X80595739Y-32689931D01*
X80653748Y-32756878D01*
X80663793Y-32768470D01*
X80663795Y-32768471D01*
X80663796Y-32768472D01*
X80687770Y-32783879D01*
X80768370Y-32835677D01*
X80768372Y-32835677D01*
X80768373Y-32835678D01*
X80887640Y-32870699D01*
X80887644Y-32870700D01*
X80887645Y-32870700D01*
X81011956Y-32870700D01*
X81011959Y-32870699D01*
X81111736Y-32841401D01*
X81131230Y-32835677D01*
X81144578Y-32827098D01*
X81203225Y-32813851D01*
X81256669Y-32841401D01*
X81279900Y-32896859D01*
X81280000Y-32901044D01*
X81280000Y-34366700D01*
X81259435Y-34423201D01*
X81207364Y-34453265D01*
X81192100Y-34454600D01*
X77730521Y-34454600D01*
X77674020Y-34434035D01*
X77643956Y-34381964D01*
X77643516Y-34354190D01*
X77652745Y-34290001D01*
X77652745Y-34289996D01*
X77635055Y-34166961D01*
X77635054Y-34166960D01*
X77635054Y-34166955D01*
X77583413Y-34053878D01*
X77502007Y-33959930D01*
X77502005Y-33959929D01*
X77502003Y-33959927D01*
X77397432Y-33892724D01*
X77397426Y-33892721D01*
X77278159Y-33857700D01*
X77278155Y-33857700D01*
X77153845Y-33857700D01*
X77153840Y-33857700D01*
X77034573Y-33892721D01*
X77034567Y-33892724D01*
X76929996Y-33959927D01*
X76929991Y-33959931D01*
X76848586Y-34053879D01*
X76796946Y-34166955D01*
X76796944Y-34166961D01*
X76779255Y-34289996D01*
X76779255Y-34290001D01*
X76788484Y-34354190D01*
X76776170Y-34413043D01*
X76728907Y-34450211D01*
X76701479Y-34454600D01*
X75535594Y-34454600D01*
X75479093Y-34434035D01*
X75449029Y-34381964D01*
X75459470Y-34322750D01*
X75488072Y-34292754D01*
X75492356Y-34290001D01*
X75571607Y-34239070D01*
X75653013Y-34145122D01*
X75704654Y-34032045D01*
X75706656Y-34018122D01*
X75722345Y-33909003D01*
X75722345Y-33908996D01*
X75704655Y-33785961D01*
X75704654Y-33785960D01*
X75704654Y-33785955D01*
X75653013Y-33672878D01*
X75571607Y-33578930D01*
X75571605Y-33578929D01*
X75571603Y-33578927D01*
X75467032Y-33511724D01*
X75467026Y-33511721D01*
X75347759Y-33476700D01*
X75347755Y-33476700D01*
X75223445Y-33476700D01*
X75223440Y-33476700D01*
X75104173Y-33511721D01*
X75104167Y-33511724D01*
X74999596Y-33578927D01*
X74999591Y-33578931D01*
X74918186Y-33672879D01*
X74866546Y-33785955D01*
X74866544Y-33785961D01*
X74848855Y-33908996D01*
X74848855Y-33909003D01*
X74866544Y-34032038D01*
X74866545Y-34032043D01*
X74866546Y-34032045D01*
X74918187Y-34145122D01*
X74968883Y-34203629D01*
X74981123Y-34217755D01*
X74999593Y-34239070D01*
X75078844Y-34290001D01*
X75083128Y-34292754D01*
X75119542Y-34340600D01*
X75116681Y-34400659D01*
X75075885Y-34444828D01*
X75035606Y-34454600D01*
X72217791Y-34454600D01*
X72130453Y-34478001D01*
X72052149Y-34523210D01*
X71359104Y-35216255D01*
X71304610Y-35241666D01*
X71296949Y-35242000D01*
X70991760Y-35242000D01*
X70935259Y-35221435D01*
X70905195Y-35169364D01*
X70915636Y-35110150D01*
X70925329Y-35096538D01*
X70979413Y-35034122D01*
X71031054Y-34921045D01*
X71031315Y-34919228D01*
X71048745Y-34798003D01*
X71048745Y-34797996D01*
X71031055Y-34674961D01*
X71031054Y-34674960D01*
X71031054Y-34674955D01*
X70979413Y-34561878D01*
X70979412Y-34561877D01*
X70979412Y-34561876D01*
X70906734Y-34478002D01*
X70903752Y-34474560D01*
X70882294Y-34418395D01*
X70901960Y-34361575D01*
X70903733Y-34359461D01*
X70979413Y-34272122D01*
X71031054Y-34159045D01*
X71031315Y-34157228D01*
X71048745Y-34036003D01*
X71048745Y-34035996D01*
X71031055Y-33912961D01*
X71031054Y-33912960D01*
X71031054Y-33912955D01*
X70979413Y-33799878D01*
X70979412Y-33799877D01*
X70979412Y-33799876D01*
X70938480Y-33752638D01*
X70903752Y-33712560D01*
X70882294Y-33656395D01*
X70901960Y-33599575D01*
X70903733Y-33597461D01*
X70979413Y-33510122D01*
X71006050Y-33451796D01*
X77515855Y-33451796D01*
X77515855Y-33451803D01*
X77533544Y-33574838D01*
X77533545Y-33574843D01*
X77533546Y-33574845D01*
X77585187Y-33687922D01*
X77666593Y-33781870D01*
X77771170Y-33849077D01*
X77771172Y-33849077D01*
X77771173Y-33849078D01*
X77890440Y-33884099D01*
X77890444Y-33884100D01*
X77890445Y-33884100D01*
X78014756Y-33884100D01*
X78014759Y-33884099D01*
X78104663Y-33857700D01*
X78134030Y-33849077D01*
X78238607Y-33781870D01*
X78320013Y-33687922D01*
X78371654Y-33574845D01*
X78377912Y-33531320D01*
X78389345Y-33451803D01*
X78389345Y-33451796D01*
X78371655Y-33328761D01*
X78371654Y-33328760D01*
X78371654Y-33328755D01*
X78320013Y-33215678D01*
X78238607Y-33121730D01*
X78238605Y-33121729D01*
X78238603Y-33121727D01*
X78134032Y-33054524D01*
X78134026Y-33054521D01*
X78014759Y-33019500D01*
X78014755Y-33019500D01*
X77890445Y-33019500D01*
X77890440Y-33019500D01*
X77771173Y-33054521D01*
X77771167Y-33054524D01*
X77666596Y-33121727D01*
X77666591Y-33121731D01*
X77585186Y-33215679D01*
X77533546Y-33328755D01*
X77533544Y-33328761D01*
X77515855Y-33451796D01*
X71006050Y-33451796D01*
X71031054Y-33397045D01*
X71031567Y-33393478D01*
X71048745Y-33274003D01*
X71048745Y-33273996D01*
X71031055Y-33150961D01*
X71031054Y-33150960D01*
X71031054Y-33150955D01*
X70979413Y-33037878D01*
X70898007Y-32943930D01*
X70898005Y-32943929D01*
X70898003Y-32943927D01*
X70793432Y-32876724D01*
X70793426Y-32876721D01*
X70674159Y-32841700D01*
X70674155Y-32841700D01*
X70549845Y-32841700D01*
X70549840Y-32841700D01*
X70430573Y-32876721D01*
X70430567Y-32876724D01*
X70325996Y-32943927D01*
X70325991Y-32943931D01*
X70244586Y-33037879D01*
X70192946Y-33150955D01*
X70192944Y-33150961D01*
X70175255Y-33273996D01*
X70175255Y-33274003D01*
X70192944Y-33397038D01*
X70192945Y-33397043D01*
X70192946Y-33397045D01*
X70244587Y-33510122D01*
X70281973Y-33553268D01*
X70320246Y-33597438D01*
X70341704Y-33653606D01*
X70322038Y-33710426D01*
X70320246Y-33712562D01*
X70244586Y-33799879D01*
X70192946Y-33912955D01*
X70192944Y-33912961D01*
X70175255Y-34035996D01*
X70175255Y-34036003D01*
X70192944Y-34159038D01*
X70192945Y-34159043D01*
X70192946Y-34159045D01*
X70244587Y-34272122D01*
X70282090Y-34315403D01*
X70320246Y-34359438D01*
X70341704Y-34415606D01*
X70322038Y-34472426D01*
X70320246Y-34474562D01*
X70244586Y-34561879D01*
X70192946Y-34674955D01*
X70192944Y-34674961D01*
X70175255Y-34797996D01*
X70175255Y-34798003D01*
X70192944Y-34921038D01*
X70192945Y-34921043D01*
X70192946Y-34921045D01*
X70244587Y-35034122D01*
X70298671Y-35096538D01*
X70320129Y-35152706D01*
X70300463Y-35209526D01*
X70248875Y-35240412D01*
X70232240Y-35242000D01*
X67029360Y-35242000D01*
X66972859Y-35221435D01*
X66942795Y-35169364D01*
X66953236Y-35110150D01*
X66962929Y-35096538D01*
X67017013Y-35034122D01*
X67068654Y-34921045D01*
X67068809Y-34919962D01*
X67079086Y-34848491D01*
X67107482Y-34795492D01*
X67163302Y-34773144D01*
X67166091Y-34773100D01*
X67245156Y-34773100D01*
X67245159Y-34773099D01*
X67314320Y-34752791D01*
X67364430Y-34738077D01*
X67469007Y-34670870D01*
X67550413Y-34576922D01*
X67602054Y-34463845D01*
X67613827Y-34381964D01*
X67619745Y-34340803D01*
X67619745Y-34340796D01*
X67602055Y-34217761D01*
X67602054Y-34217760D01*
X67602054Y-34217755D01*
X67550413Y-34104678D01*
X67469007Y-34010730D01*
X67469005Y-34010729D01*
X67469003Y-34010727D01*
X67364432Y-33943524D01*
X67364426Y-33943521D01*
X67245159Y-33908500D01*
X67245155Y-33908500D01*
X67123109Y-33908500D01*
X67066608Y-33887935D01*
X67043152Y-33857115D01*
X67039481Y-33849077D01*
X67017013Y-33799878D01*
X66935607Y-33705930D01*
X66935605Y-33705929D01*
X66935603Y-33705927D01*
X66831032Y-33638724D01*
X66831026Y-33638721D01*
X66711759Y-33603700D01*
X66711755Y-33603700D01*
X66587445Y-33603700D01*
X66587440Y-33603700D01*
X66468173Y-33638721D01*
X66468167Y-33638724D01*
X66363596Y-33705927D01*
X66363591Y-33705931D01*
X66282186Y-33799879D01*
X66230546Y-33912955D01*
X66230544Y-33912961D01*
X66212855Y-34035996D01*
X66212855Y-34036003D01*
X66230544Y-34159038D01*
X66230545Y-34159043D01*
X66230546Y-34159045D01*
X66282187Y-34272122D01*
X66319690Y-34315403D01*
X66357846Y-34359438D01*
X66379304Y-34415606D01*
X66359638Y-34472426D01*
X66357846Y-34474562D01*
X66282186Y-34561879D01*
X66230546Y-34674955D01*
X66230544Y-34674961D01*
X66212855Y-34797996D01*
X66212855Y-34798003D01*
X66230544Y-34921038D01*
X66230545Y-34921043D01*
X66230546Y-34921045D01*
X66282187Y-35034122D01*
X66336271Y-35096538D01*
X66357729Y-35152706D01*
X66338063Y-35209526D01*
X66286475Y-35240412D01*
X66269840Y-35242000D01*
X56267521Y-35242000D01*
X56211020Y-35221435D01*
X56180956Y-35169364D01*
X56180516Y-35141590D01*
X56189745Y-35077401D01*
X56189745Y-35077396D01*
X56172055Y-34954361D01*
X56172054Y-34954359D01*
X56172054Y-34954355D01*
X56172052Y-34954352D01*
X56172052Y-34954349D01*
X56138770Y-34881473D01*
X56134004Y-34821535D01*
X56168881Y-34772557D01*
X56227081Y-34757456D01*
X56266247Y-34771011D01*
X56333570Y-34814277D01*
X56333572Y-34814277D01*
X56333573Y-34814278D01*
X56452840Y-34849299D01*
X56452844Y-34849300D01*
X56452845Y-34849300D01*
X56577156Y-34849300D01*
X56577159Y-34849299D01*
X56671712Y-34821535D01*
X56696430Y-34814277D01*
X56801007Y-34747070D01*
X56882413Y-34653122D01*
X56934054Y-34540045D01*
X56936474Y-34523212D01*
X56951745Y-34417003D01*
X56951745Y-34416996D01*
X56934055Y-34293961D01*
X56934054Y-34293960D01*
X56934054Y-34293955D01*
X56890923Y-34199514D01*
X56886159Y-34139577D01*
X56890924Y-34126485D01*
X56897676Y-34111700D01*
X56934054Y-34032045D01*
X56936056Y-34018122D01*
X56951745Y-33909003D01*
X56951745Y-33908996D01*
X57729255Y-33908996D01*
X57729255Y-33909003D01*
X57746944Y-34032038D01*
X57746945Y-34032043D01*
X57746946Y-34032045D01*
X57764111Y-34069632D01*
X57790075Y-34126485D01*
X57794840Y-34186423D01*
X57790075Y-34199515D01*
X57746946Y-34293955D01*
X57746944Y-34293961D01*
X57729255Y-34416996D01*
X57729255Y-34417003D01*
X57746944Y-34540038D01*
X57746945Y-34540043D01*
X57746946Y-34540045D01*
X57790312Y-34635003D01*
X57795091Y-34645468D01*
X57798587Y-34653122D01*
X57850192Y-34712678D01*
X57872200Y-34738077D01*
X57879993Y-34747070D01*
X57879995Y-34747071D01*
X57879996Y-34747072D01*
X57892211Y-34754922D01*
X57984570Y-34814277D01*
X57984572Y-34814277D01*
X57984573Y-34814278D01*
X58103840Y-34849299D01*
X58103844Y-34849300D01*
X58103845Y-34849300D01*
X58228156Y-34849300D01*
X58228159Y-34849299D01*
X58322712Y-34821535D01*
X58347430Y-34814277D01*
X58439871Y-34754868D01*
X58498521Y-34741622D01*
X58551964Y-34769174D01*
X58559156Y-34778470D01*
X58560586Y-34780120D01*
X58560587Y-34780122D01*
X58641993Y-34874070D01*
X58746570Y-34941277D01*
X58746572Y-34941277D01*
X58746573Y-34941278D01*
X58865840Y-34976299D01*
X58865844Y-34976300D01*
X58865845Y-34976300D01*
X58990156Y-34976300D01*
X58990159Y-34976299D01*
X59064912Y-34954349D01*
X59109430Y-34941277D01*
X59214007Y-34874070D01*
X59295413Y-34780122D01*
X59347054Y-34667045D01*
X59351661Y-34635003D01*
X59364745Y-34544003D01*
X59364745Y-34543996D01*
X59347055Y-34420961D01*
X59347054Y-34420960D01*
X59347054Y-34420955D01*
X59298846Y-34315396D01*
X60370855Y-34315396D01*
X60370855Y-34315403D01*
X60388544Y-34438438D01*
X60388545Y-34438443D01*
X60388546Y-34438445D01*
X60440187Y-34551522D01*
X60521593Y-34645470D01*
X60626170Y-34712677D01*
X60626172Y-34712677D01*
X60626173Y-34712678D01*
X60745440Y-34747699D01*
X60745444Y-34747700D01*
X60745445Y-34747700D01*
X60869756Y-34747700D01*
X60869759Y-34747699D01*
X60929392Y-34730188D01*
X60989030Y-34712677D01*
X61093607Y-34645470D01*
X61175013Y-34551522D01*
X61178450Y-34543996D01*
X64587255Y-34543996D01*
X64587255Y-34544003D01*
X64604944Y-34667038D01*
X64604945Y-34667043D01*
X64604946Y-34667045D01*
X64641780Y-34747699D01*
X64655832Y-34778470D01*
X64656587Y-34780122D01*
X64737993Y-34874070D01*
X64842570Y-34941277D01*
X64842572Y-34941277D01*
X64842573Y-34941278D01*
X64961840Y-34976299D01*
X64961844Y-34976300D01*
X64961845Y-34976300D01*
X65086156Y-34976300D01*
X65086159Y-34976299D01*
X65160912Y-34954349D01*
X65205430Y-34941277D01*
X65310007Y-34874070D01*
X65391413Y-34780122D01*
X65443054Y-34667045D01*
X65447661Y-34635003D01*
X65460745Y-34544003D01*
X65460745Y-34543996D01*
X65443055Y-34420961D01*
X65443054Y-34420960D01*
X65443054Y-34420955D01*
X65391413Y-34307878D01*
X65310007Y-34213930D01*
X65310004Y-34213928D01*
X65310003Y-34213927D01*
X65205432Y-34146724D01*
X65205426Y-34146721D01*
X65086159Y-34111700D01*
X65086155Y-34111700D01*
X64961845Y-34111700D01*
X64961840Y-34111700D01*
X64842573Y-34146721D01*
X64842567Y-34146724D01*
X64737996Y-34213927D01*
X64737991Y-34213931D01*
X64656586Y-34307879D01*
X64604946Y-34420955D01*
X64604944Y-34420961D01*
X64587255Y-34543996D01*
X61178450Y-34543996D01*
X61226654Y-34438445D01*
X61234775Y-34381964D01*
X61244345Y-34315403D01*
X61244345Y-34315396D01*
X61226655Y-34192361D01*
X61226654Y-34192360D01*
X61226654Y-34192355D01*
X61175013Y-34079278D01*
X61093607Y-33985330D01*
X61093605Y-33985329D01*
X61093603Y-33985327D01*
X60989032Y-33918124D01*
X60989026Y-33918121D01*
X60869759Y-33883100D01*
X60869755Y-33883100D01*
X60745445Y-33883100D01*
X60745440Y-33883100D01*
X60626173Y-33918121D01*
X60626167Y-33918124D01*
X60521596Y-33985327D01*
X60521591Y-33985331D01*
X60440186Y-34079279D01*
X60388546Y-34192355D01*
X60388544Y-34192361D01*
X60370855Y-34315396D01*
X59298846Y-34315396D01*
X59295413Y-34307878D01*
X59214007Y-34213930D01*
X59161077Y-34179914D01*
X59124664Y-34132069D01*
X59127525Y-34072010D01*
X59142170Y-34048408D01*
X59168413Y-34018122D01*
X59220054Y-33905045D01*
X59220315Y-33903228D01*
X59237745Y-33782003D01*
X59237745Y-33781996D01*
X59220055Y-33658961D01*
X59220054Y-33658960D01*
X59220054Y-33658955D01*
X59206646Y-33629596D01*
X63584855Y-33629596D01*
X63584855Y-33629603D01*
X63602544Y-33752638D01*
X63602545Y-33752643D01*
X63602546Y-33752645D01*
X63617761Y-33785961D01*
X63646584Y-33849075D01*
X63654187Y-33865722D01*
X63735593Y-33959670D01*
X63735595Y-33959671D01*
X63735596Y-33959672D01*
X63735999Y-33959931D01*
X63840170Y-34026877D01*
X63840172Y-34026877D01*
X63840173Y-34026878D01*
X63959440Y-34061899D01*
X63959444Y-34061900D01*
X63959445Y-34061900D01*
X64083756Y-34061900D01*
X64083759Y-34061899D01*
X64171950Y-34036003D01*
X64203030Y-34026877D01*
X64307607Y-33959670D01*
X64389013Y-33865722D01*
X64440654Y-33752645D01*
X64446724Y-33710426D01*
X64458345Y-33629603D01*
X64458345Y-33629596D01*
X64440655Y-33506561D01*
X64440654Y-33506560D01*
X64440654Y-33506555D01*
X64389013Y-33393478D01*
X64307607Y-33299530D01*
X64307605Y-33299529D01*
X64307603Y-33299527D01*
X64203032Y-33232324D01*
X64203026Y-33232321D01*
X64171950Y-33223196D01*
X64756255Y-33223196D01*
X64756255Y-33223203D01*
X64773944Y-33346238D01*
X64773945Y-33346243D01*
X64773946Y-33346245D01*
X64825587Y-33459322D01*
X64906993Y-33553270D01*
X65011570Y-33620477D01*
X65011572Y-33620477D01*
X65011573Y-33620478D01*
X65130840Y-33655499D01*
X65130844Y-33655500D01*
X65130845Y-33655500D01*
X65255156Y-33655500D01*
X65255159Y-33655499D01*
X65343350Y-33629603D01*
X65374430Y-33620477D01*
X65479007Y-33553270D01*
X65560413Y-33459322D01*
X65612054Y-33346245D01*
X65615065Y-33325300D01*
X65629745Y-33223203D01*
X65629745Y-33223196D01*
X65612055Y-33100161D01*
X65612054Y-33100160D01*
X65612054Y-33100155D01*
X65560413Y-32987078D01*
X65489875Y-32905673D01*
X65479008Y-32893131D01*
X65479003Y-32893127D01*
X65374432Y-32825924D01*
X65374426Y-32825921D01*
X65255159Y-32790900D01*
X65255155Y-32790900D01*
X65130845Y-32790900D01*
X65130840Y-32790900D01*
X65011573Y-32825921D01*
X65011567Y-32825924D01*
X64906996Y-32893127D01*
X64906991Y-32893131D01*
X64825586Y-32987079D01*
X64773946Y-33100155D01*
X64773944Y-33100161D01*
X64756255Y-33223196D01*
X64171950Y-33223196D01*
X64083759Y-33197300D01*
X64083755Y-33197300D01*
X63959445Y-33197300D01*
X63959440Y-33197300D01*
X63840173Y-33232321D01*
X63840167Y-33232324D01*
X63735596Y-33299527D01*
X63735591Y-33299531D01*
X63654186Y-33393479D01*
X63602546Y-33506555D01*
X63602544Y-33506561D01*
X63584855Y-33629596D01*
X59206646Y-33629596D01*
X59168413Y-33545878D01*
X59087007Y-33451930D01*
X59087005Y-33451929D01*
X59087003Y-33451927D01*
X58982432Y-33384724D01*
X58982423Y-33384720D01*
X58979055Y-33383731D01*
X58977092Y-33382285D01*
X58976710Y-33382111D01*
X58976746Y-33382030D01*
X58930640Y-33348077D01*
X58916469Y-33289644D01*
X58943175Y-33235772D01*
X58956295Y-33225455D01*
X58960007Y-33223070D01*
X59041413Y-33129122D01*
X59093054Y-33016045D01*
X59097219Y-32987078D01*
X59110745Y-32893003D01*
X59110745Y-32892996D01*
X59093055Y-32769961D01*
X59093054Y-32769960D01*
X59093054Y-32769955D01*
X59041413Y-32656878D01*
X58960007Y-32562930D01*
X58960005Y-32562929D01*
X58960003Y-32562927D01*
X58855432Y-32495724D01*
X58855426Y-32495721D01*
X58736159Y-32460700D01*
X58736155Y-32460700D01*
X58611845Y-32460700D01*
X58611840Y-32460700D01*
X58492573Y-32495721D01*
X58492567Y-32495724D01*
X58387996Y-32562927D01*
X58387991Y-32562931D01*
X58306586Y-32656879D01*
X58254944Y-32769959D01*
X58253277Y-32781559D01*
X58224881Y-32834558D01*
X58191037Y-32853388D01*
X58111574Y-32876721D01*
X58111567Y-32876724D01*
X58006996Y-32943927D01*
X58006991Y-32943931D01*
X57925586Y-33037879D01*
X57873946Y-33150955D01*
X57873944Y-33150961D01*
X57856255Y-33273996D01*
X57856255Y-33274003D01*
X57873944Y-33397038D01*
X57873945Y-33397043D01*
X57873946Y-33397045D01*
X57907895Y-33471382D01*
X57912660Y-33531320D01*
X57883065Y-33572879D01*
X57884743Y-33574815D01*
X57879991Y-33578931D01*
X57798586Y-33672879D01*
X57746946Y-33785955D01*
X57746944Y-33785961D01*
X57729255Y-33908996D01*
X56951745Y-33908996D01*
X56934055Y-33785961D01*
X56934054Y-33785960D01*
X56934054Y-33785955D01*
X56882413Y-33672878D01*
X56801007Y-33578930D01*
X56801006Y-33578929D01*
X56796257Y-33574815D01*
X56798356Y-33572391D01*
X56769137Y-33534035D01*
X56771970Y-33473975D01*
X56773105Y-33471382D01*
X56807054Y-33397045D01*
X56807567Y-33393478D01*
X56824745Y-33274003D01*
X56824745Y-33273996D01*
X56807055Y-33150961D01*
X56807054Y-33150960D01*
X56807054Y-33150955D01*
X56755413Y-33037878D01*
X56674007Y-32943930D01*
X56674005Y-32943929D01*
X56674003Y-32943927D01*
X56569432Y-32876724D01*
X56569426Y-32876721D01*
X56489962Y-32853388D01*
X56441544Y-32817738D01*
X56427722Y-32781556D01*
X56426054Y-32769955D01*
X56374413Y-32656878D01*
X56293007Y-32562930D01*
X56293005Y-32562929D01*
X56293003Y-32562927D01*
X56188432Y-32495724D01*
X56188426Y-32495721D01*
X56069159Y-32460700D01*
X56069155Y-32460700D01*
X55944845Y-32460700D01*
X55944840Y-32460700D01*
X55825573Y-32495721D01*
X55825567Y-32495724D01*
X55720996Y-32562927D01*
X55720991Y-32562931D01*
X55639586Y-32656879D01*
X55587946Y-32769955D01*
X55587944Y-32769961D01*
X55570255Y-32892996D01*
X55570255Y-32893003D01*
X55587944Y-33016038D01*
X55587945Y-33016043D01*
X55587946Y-33016045D01*
X55639587Y-33129122D01*
X55658511Y-33150961D01*
X55720989Y-33223066D01*
X55720993Y-33223070D01*
X55724691Y-33225447D01*
X55761107Y-33273291D01*
X55758248Y-33333350D01*
X55717453Y-33377521D01*
X55701946Y-33383731D01*
X55698574Y-33384721D01*
X55698567Y-33384724D01*
X55593996Y-33451927D01*
X55593991Y-33451931D01*
X55512586Y-33545879D01*
X55460946Y-33658955D01*
X55460944Y-33658961D01*
X55443255Y-33781996D01*
X55443255Y-33782003D01*
X55460944Y-33905038D01*
X55460945Y-33905043D01*
X55460946Y-33905045D01*
X55478519Y-33943524D01*
X55512587Y-34018123D01*
X55538829Y-34048408D01*
X55560287Y-34104576D01*
X55540620Y-34161396D01*
X55519920Y-34179916D01*
X55483021Y-34203629D01*
X55424371Y-34216875D01*
X55387977Y-34203628D01*
X55299432Y-34146724D01*
X55299426Y-34146721D01*
X55180159Y-34111700D01*
X55180155Y-34111700D01*
X55055845Y-34111700D01*
X55055840Y-34111700D01*
X54936573Y-34146721D01*
X54936569Y-34146723D01*
X54856282Y-34198319D01*
X54797632Y-34211565D01*
X54754111Y-34192105D01*
X54754096Y-34192129D01*
X54753939Y-34192028D01*
X54751201Y-34190804D01*
X54748808Y-34188730D01*
X54644232Y-34121524D01*
X54644226Y-34121521D01*
X54524959Y-34086500D01*
X54524955Y-34086500D01*
X54400645Y-34086500D01*
X54400640Y-34086500D01*
X54281373Y-34121521D01*
X54281367Y-34121524D01*
X54176796Y-34188727D01*
X54176791Y-34188731D01*
X54095386Y-34282679D01*
X54043746Y-34395755D01*
X54043744Y-34395761D01*
X54026055Y-34518796D01*
X54026055Y-34518803D01*
X54042761Y-34635003D01*
X54030446Y-34693856D01*
X53983183Y-34731023D01*
X53930991Y-34731851D01*
X53808559Y-34695900D01*
X53808555Y-34695900D01*
X53684245Y-34695900D01*
X53684240Y-34695900D01*
X53564973Y-34730921D01*
X53564967Y-34730924D01*
X53460396Y-34798127D01*
X53460391Y-34798131D01*
X53378986Y-34892079D01*
X53327346Y-35005155D01*
X53327344Y-35005161D01*
X53309655Y-35128196D01*
X53309655Y-35128201D01*
X53311580Y-35141590D01*
X53299266Y-35200443D01*
X53252003Y-35237611D01*
X53224575Y-35242000D01*
X52761387Y-35242000D01*
X52692510Y-35260454D01*
X52692511Y-35260455D01*
X52674053Y-35265401D01*
X52674048Y-35265403D01*
X52595750Y-35310609D01*
X51626682Y-36279675D01*
X51572188Y-36305086D01*
X51514110Y-36289523D01*
X51479622Y-36240270D01*
X51477522Y-36230028D01*
X51473055Y-36198961D01*
X51473054Y-36198960D01*
X51473054Y-36198955D01*
X51429923Y-36104514D01*
X51425159Y-36044577D01*
X51429924Y-36031485D01*
X51431790Y-36027400D01*
X51473054Y-35937045D01*
X51480358Y-35886245D01*
X51490745Y-35814003D01*
X51490745Y-35813996D01*
X51473055Y-35690961D01*
X51473054Y-35690960D01*
X51473054Y-35690955D01*
X51429923Y-35596514D01*
X51425159Y-35536577D01*
X51429924Y-35523485D01*
X51473054Y-35429045D01*
X51473315Y-35427228D01*
X51490745Y-35306003D01*
X51490745Y-35305996D01*
X51473055Y-35182961D01*
X51473054Y-35182960D01*
X51473054Y-35182955D01*
X51421413Y-35069878D01*
X51340007Y-34975930D01*
X51340005Y-34975929D01*
X51340003Y-34975927D01*
X51235432Y-34908724D01*
X51235426Y-34908721D01*
X51116159Y-34873700D01*
X51116155Y-34873700D01*
X50991845Y-34873700D01*
X50991840Y-34873700D01*
X50872573Y-34908721D01*
X50872570Y-34908723D01*
X50847520Y-34924821D01*
X50788870Y-34938065D01*
X50752480Y-34924821D01*
X50743739Y-34919204D01*
X50727430Y-34908723D01*
X50727428Y-34908722D01*
X50727426Y-34908721D01*
X50608159Y-34873700D01*
X50608155Y-34873700D01*
X50483845Y-34873700D01*
X50483840Y-34873700D01*
X50364573Y-34908721D01*
X50364567Y-34908724D01*
X50259996Y-34975927D01*
X50259991Y-34975931D01*
X50178586Y-35069879D01*
X50126946Y-35182955D01*
X50126944Y-35182961D01*
X50109255Y-35305996D01*
X50109255Y-35306003D01*
X50126944Y-35429038D01*
X50126946Y-35429044D01*
X50170075Y-35523485D01*
X50174840Y-35583423D01*
X50170075Y-35596515D01*
X50126946Y-35690955D01*
X50126944Y-35690961D01*
X50109255Y-35813996D01*
X50109255Y-35814003D01*
X50126944Y-35937038D01*
X50126945Y-35937043D01*
X50126946Y-35937045D01*
X50144111Y-35974632D01*
X50170075Y-36031485D01*
X50174840Y-36091423D01*
X50170075Y-36104515D01*
X50126946Y-36198955D01*
X50126944Y-36198961D01*
X50109255Y-36321996D01*
X50109255Y-36322003D01*
X50126944Y-36445038D01*
X50126945Y-36445043D01*
X50126946Y-36445045D01*
X50178587Y-36558122D01*
X50259993Y-36652070D01*
X50259995Y-36652071D01*
X50259996Y-36652072D01*
X50276040Y-36662383D01*
X50364570Y-36719277D01*
X50364572Y-36719277D01*
X50364573Y-36719278D01*
X50483840Y-36754299D01*
X50483844Y-36754300D01*
X50483845Y-36754300D01*
X50608156Y-36754300D01*
X50608159Y-36754299D01*
X50668683Y-36736527D01*
X50727430Y-36719277D01*
X50752478Y-36703179D01*
X50811125Y-36689932D01*
X50847520Y-36703178D01*
X50872567Y-36719275D01*
X50872570Y-36719277D01*
X50973546Y-36748927D01*
X51021964Y-36784577D01*
X51036139Y-36843009D01*
X51010936Y-36895420D01*
X50785104Y-37121254D01*
X50730610Y-37146665D01*
X50722949Y-37147000D01*
X50557674Y-37147000D01*
X50510152Y-37133046D01*
X50448032Y-37093124D01*
X50448026Y-37093121D01*
X50328759Y-37058100D01*
X50328755Y-37058100D01*
X50204445Y-37058100D01*
X50204440Y-37058100D01*
X50085173Y-37093121D01*
X50085167Y-37093124D01*
X49980596Y-37160327D01*
X49980591Y-37160331D01*
X49899186Y-37254279D01*
X49847546Y-37367355D01*
X49847544Y-37367361D01*
X49829855Y-37490396D01*
X49829855Y-37490403D01*
X49847544Y-37613438D01*
X49847545Y-37613443D01*
X49847546Y-37613445D01*
X49899187Y-37726522D01*
X49907860Y-37736531D01*
X49980244Y-37820068D01*
X49980593Y-37820470D01*
X50085170Y-37887677D01*
X50085172Y-37887677D01*
X50085173Y-37887678D01*
X50204440Y-37922699D01*
X50204444Y-37922700D01*
X50204445Y-37922700D01*
X50328756Y-37922700D01*
X50328758Y-37922699D01*
X50331817Y-37921801D01*
X50344792Y-37917991D01*
X50404798Y-37921801D01*
X50448316Y-37963292D01*
X50454983Y-38023048D01*
X50448180Y-38041639D01*
X50062295Y-38813410D01*
X50018634Y-38854749D01*
X49983675Y-38862000D01*
X47752000Y-38862000D01*
X47752000Y-38862001D01*
X47752000Y-42838100D01*
X47731435Y-42894601D01*
X47679364Y-42924665D01*
X47664100Y-42926000D01*
X40093400Y-42926000D01*
X40036899Y-42905435D01*
X40006835Y-42853364D01*
X40005500Y-42838100D01*
X40005500Y-38900400D01*
X40026065Y-38843899D01*
X40078136Y-38813835D01*
X40137350Y-38824276D01*
X40168347Y-38854472D01*
X40287169Y-39048372D01*
X40287170Y-39048374D01*
X40287172Y-39048376D01*
X40451602Y-39240898D01*
X40644124Y-39405328D01*
X40644126Y-39405329D01*
X40644127Y-39405330D01*
X40745720Y-39467586D01*
X40859998Y-39537616D01*
X41015938Y-39602208D01*
X41093908Y-39634505D01*
X41340088Y-39693607D01*
X41340089Y-39693607D01*
X41340097Y-39693609D01*
X41592500Y-39713474D01*
X41844903Y-39693609D01*
X42091091Y-39634505D01*
X42325002Y-39537616D01*
X42540876Y-39405328D01*
X42733398Y-39240898D01*
X42897828Y-39048376D01*
X43030116Y-38832502D01*
X43127005Y-38598591D01*
X43186109Y-38352403D01*
X43205974Y-38100000D01*
X43186109Y-37847597D01*
X43182797Y-37833800D01*
X43127005Y-37601408D01*
X43112585Y-37566596D01*
X47569255Y-37566596D01*
X47569255Y-37566603D01*
X47586944Y-37689638D01*
X47586945Y-37689643D01*
X47586946Y-37689645D01*
X47638587Y-37802722D01*
X47677471Y-37847597D01*
X47712200Y-37887677D01*
X47719993Y-37896670D01*
X47824570Y-37963877D01*
X47824572Y-37963877D01*
X47824573Y-37963878D01*
X47943840Y-37998899D01*
X47943844Y-37998900D01*
X47943845Y-37998900D01*
X48068156Y-37998900D01*
X48068159Y-37998899D01*
X48155918Y-37973130D01*
X48187430Y-37963877D01*
X48292007Y-37896670D01*
X48373413Y-37802722D01*
X48425054Y-37689645D01*
X48430075Y-37654724D01*
X48441640Y-37574291D01*
X48470036Y-37521291D01*
X48525856Y-37498944D01*
X48528645Y-37498900D01*
X48555556Y-37498900D01*
X48555559Y-37498899D01*
X48671005Y-37465000D01*
X48674830Y-37463877D01*
X48745880Y-37418215D01*
X48804526Y-37404970D01*
X48840919Y-37418216D01*
X48878576Y-37442416D01*
X48880023Y-37443346D01*
X48916436Y-37491193D01*
X48920400Y-37517292D01*
X48920400Y-37615908D01*
X48899835Y-37672409D01*
X48880022Y-37689854D01*
X48807396Y-37736527D01*
X48807391Y-37736531D01*
X48725986Y-37830479D01*
X48674346Y-37943555D01*
X48674344Y-37943561D01*
X48656655Y-38066596D01*
X48656655Y-38066603D01*
X48674344Y-38189638D01*
X48674345Y-38189643D01*
X48674346Y-38189645D01*
X48725987Y-38302722D01*
X48807393Y-38396670D01*
X48911970Y-38463877D01*
X48911972Y-38463877D01*
X48911973Y-38463878D01*
X49031240Y-38498899D01*
X49031244Y-38498900D01*
X49031245Y-38498900D01*
X49155556Y-38498900D01*
X49155559Y-38498899D01*
X49229985Y-38477045D01*
X49274830Y-38463877D01*
X49379407Y-38396670D01*
X49460813Y-38302722D01*
X49512454Y-38189645D01*
X49521619Y-38125900D01*
X49530145Y-38066603D01*
X49530145Y-38066596D01*
X49512455Y-37943561D01*
X49512454Y-37943560D01*
X49512454Y-37943555D01*
X49460813Y-37830478D01*
X49379407Y-37736530D01*
X49367175Y-37728669D01*
X49330763Y-37680820D01*
X49326800Y-37654724D01*
X49326800Y-37478475D01*
X49347365Y-37421974D01*
X49367181Y-37404527D01*
X49379405Y-37396671D01*
X49379404Y-37396671D01*
X49379407Y-37396670D01*
X49460813Y-37302722D01*
X49512454Y-37189645D01*
X49517921Y-37151624D01*
X49530145Y-37066603D01*
X49530145Y-37066596D01*
X49512455Y-36943561D01*
X49512454Y-36943560D01*
X49512454Y-36943555D01*
X49460813Y-36830478D01*
X49379407Y-36736530D01*
X49379405Y-36736529D01*
X49379403Y-36736527D01*
X49274832Y-36669324D01*
X49274826Y-36669321D01*
X49155559Y-36634300D01*
X49155555Y-36634300D01*
X49031245Y-36634300D01*
X49031240Y-36634300D01*
X48911973Y-36669321D01*
X48911973Y-36669322D01*
X48911970Y-36669323D01*
X48840920Y-36714983D01*
X48782272Y-36728229D01*
X48745880Y-36714983D01*
X48674830Y-36669323D01*
X48674827Y-36669322D01*
X48605797Y-36649052D01*
X48557379Y-36613401D01*
X48543205Y-36554969D01*
X48564131Y-36507153D01*
X48630013Y-36431122D01*
X48681654Y-36318045D01*
X48692610Y-36241845D01*
X48699345Y-36195003D01*
X48699345Y-36194996D01*
X48681655Y-36071961D01*
X48681654Y-36071960D01*
X48681654Y-36071955D01*
X48630013Y-35958878D01*
X48548607Y-35864930D01*
X48548605Y-35864929D01*
X48548603Y-35864927D01*
X48444032Y-35797724D01*
X48444026Y-35797721D01*
X48324759Y-35762700D01*
X48324755Y-35762700D01*
X48200445Y-35762700D01*
X48200440Y-35762700D01*
X48081173Y-35797721D01*
X48081167Y-35797724D01*
X47976596Y-35864927D01*
X47976591Y-35864931D01*
X47895186Y-35958879D01*
X47843546Y-36071955D01*
X47843544Y-36071961D01*
X47825855Y-36194996D01*
X47825855Y-36195003D01*
X47843544Y-36318038D01*
X47843545Y-36318043D01*
X47843546Y-36318045D01*
X47895187Y-36431122D01*
X47943195Y-36486526D01*
X47960408Y-36506392D01*
X47976593Y-36525070D01*
X48081170Y-36592277D01*
X48081172Y-36592277D01*
X48081173Y-36592278D01*
X48150201Y-36612547D01*
X48198619Y-36648197D01*
X48212794Y-36706629D01*
X48191867Y-36754448D01*
X48125986Y-36830479D01*
X48074346Y-36943555D01*
X48074344Y-36943561D01*
X48057760Y-37058909D01*
X48029364Y-37111909D01*
X47973544Y-37134256D01*
X47970755Y-37134300D01*
X47943840Y-37134300D01*
X47824573Y-37169321D01*
X47824567Y-37169324D01*
X47719996Y-37236527D01*
X47719991Y-37236531D01*
X47638586Y-37330479D01*
X47586946Y-37443555D01*
X47586944Y-37443561D01*
X47569255Y-37566596D01*
X43112585Y-37566596D01*
X43081025Y-37490403D01*
X43030116Y-37367498D01*
X42897828Y-37151624D01*
X42816666Y-37056596D01*
X45359455Y-37056596D01*
X45359455Y-37056603D01*
X45377144Y-37179638D01*
X45377145Y-37179643D01*
X45377146Y-37179645D01*
X45428787Y-37292722D01*
X45471089Y-37341541D01*
X45506975Y-37382957D01*
X45510193Y-37386670D01*
X45614770Y-37453877D01*
X45614772Y-37453877D01*
X45614773Y-37453878D01*
X45734040Y-37488899D01*
X45734044Y-37488900D01*
X45734045Y-37488900D01*
X45858356Y-37488900D01*
X45858359Y-37488899D01*
X45965366Y-37457478D01*
X45977630Y-37453877D01*
X46082207Y-37386670D01*
X46163613Y-37292722D01*
X46215254Y-37179645D01*
X46218031Y-37160330D01*
X46232945Y-37056603D01*
X46232945Y-37056596D01*
X46215255Y-36933561D01*
X46215254Y-36933560D01*
X46215254Y-36933555D01*
X46163613Y-36820478D01*
X46082207Y-36726530D01*
X46082205Y-36726529D01*
X46082203Y-36726527D01*
X45977632Y-36659324D01*
X45977626Y-36659321D01*
X45858359Y-36624300D01*
X45858355Y-36624300D01*
X45734045Y-36624300D01*
X45734040Y-36624300D01*
X45614773Y-36659321D01*
X45614767Y-36659324D01*
X45510196Y-36726527D01*
X45510191Y-36726531D01*
X45428786Y-36820479D01*
X45377146Y-36933555D01*
X45377144Y-36933561D01*
X45359455Y-37056596D01*
X42816666Y-37056596D01*
X42733398Y-36959102D01*
X42540876Y-36794672D01*
X42540874Y-36794670D01*
X42540872Y-36794669D01*
X42325009Y-36662388D01*
X42325006Y-36662386D01*
X42325002Y-36662384D01*
X42240302Y-36627300D01*
X42091091Y-36565494D01*
X41844911Y-36506392D01*
X41844904Y-36506391D01*
X41592500Y-36486526D01*
X41340095Y-36506391D01*
X41340088Y-36506392D01*
X41093908Y-36565494D01*
X40860000Y-36662383D01*
X40859990Y-36662388D01*
X40644127Y-36794669D01*
X40451602Y-36959102D01*
X40287169Y-37151627D01*
X40168347Y-37345527D01*
X40121291Y-37382957D01*
X40061184Y-37381383D01*
X40016152Y-37341541D01*
X40005500Y-37299599D01*
X40005500Y-34340796D01*
X45476255Y-34340796D01*
X45476255Y-34340803D01*
X45493944Y-34463838D01*
X45493945Y-34463843D01*
X45493946Y-34463845D01*
X45545587Y-34576922D01*
X45554448Y-34587148D01*
X45623678Y-34667045D01*
X45626993Y-34670870D01*
X45731570Y-34738077D01*
X45731572Y-34738077D01*
X45731573Y-34738078D01*
X45850840Y-34773099D01*
X45850844Y-34773100D01*
X45850845Y-34773100D01*
X45975156Y-34773100D01*
X45975159Y-34773099D01*
X46044320Y-34752791D01*
X46094430Y-34738077D01*
X46199007Y-34670870D01*
X46280413Y-34576922D01*
X46295450Y-34543996D01*
X49093255Y-34543996D01*
X49093255Y-34544003D01*
X49110944Y-34667038D01*
X49110945Y-34667043D01*
X49110946Y-34667045D01*
X49147780Y-34747699D01*
X49161832Y-34778470D01*
X49162587Y-34780122D01*
X49243993Y-34874070D01*
X49348570Y-34941277D01*
X49348572Y-34941277D01*
X49348573Y-34941278D01*
X49467840Y-34976299D01*
X49467844Y-34976300D01*
X49467845Y-34976300D01*
X49592156Y-34976300D01*
X49592159Y-34976299D01*
X49666912Y-34954349D01*
X49711430Y-34941277D01*
X49816007Y-34874070D01*
X49897413Y-34780122D01*
X49949054Y-34667045D01*
X49953661Y-34635003D01*
X49966745Y-34544003D01*
X49966745Y-34543996D01*
X49949055Y-34420961D01*
X49949054Y-34420960D01*
X49949054Y-34420955D01*
X49897413Y-34307878D01*
X49816007Y-34213930D01*
X49816004Y-34213928D01*
X49816003Y-34213927D01*
X49711432Y-34146724D01*
X49711426Y-34146721D01*
X49592159Y-34111700D01*
X49592155Y-34111700D01*
X49467845Y-34111700D01*
X49467840Y-34111700D01*
X49348573Y-34146721D01*
X49348567Y-34146724D01*
X49243996Y-34213927D01*
X49243991Y-34213931D01*
X49162586Y-34307879D01*
X49110946Y-34420955D01*
X49110944Y-34420961D01*
X49093255Y-34543996D01*
X46295450Y-34543996D01*
X46332054Y-34463845D01*
X46343827Y-34381964D01*
X46349745Y-34340803D01*
X46349745Y-34340796D01*
X46332055Y-34217761D01*
X46332054Y-34217760D01*
X46332054Y-34217755D01*
X46280413Y-34104678D01*
X46199007Y-34010730D01*
X46199005Y-34010729D01*
X46199003Y-34010727D01*
X46094432Y-33943524D01*
X46094426Y-33943521D01*
X45975159Y-33908500D01*
X45975155Y-33908500D01*
X45850845Y-33908500D01*
X45850840Y-33908500D01*
X45731573Y-33943521D01*
X45731567Y-33943524D01*
X45626996Y-34010727D01*
X45626991Y-34010731D01*
X45545586Y-34104679D01*
X45493946Y-34217755D01*
X45493944Y-34217761D01*
X45476255Y-34340796D01*
X40005500Y-34340796D01*
X40005500Y-33019996D01*
X49093255Y-33019996D01*
X49093255Y-33020003D01*
X49110944Y-33143038D01*
X49110945Y-33143043D01*
X49110946Y-33143045D01*
X49162587Y-33256122D01*
X49200200Y-33299530D01*
X49240678Y-33346245D01*
X49243993Y-33350070D01*
X49243995Y-33350071D01*
X49243996Y-33350072D01*
X49286708Y-33377521D01*
X49348570Y-33417277D01*
X49348572Y-33417277D01*
X49348573Y-33417278D01*
X49467840Y-33452299D01*
X49467844Y-33452300D01*
X49467845Y-33452300D01*
X49592156Y-33452300D01*
X49592159Y-33452299D01*
X49651792Y-33434788D01*
X49711430Y-33417277D01*
X49816007Y-33350070D01*
X49897413Y-33256122D01*
X49949054Y-33143045D01*
X49951056Y-33129120D01*
X49966745Y-33020003D01*
X49966745Y-33019996D01*
X49949055Y-32896961D01*
X49949054Y-32896960D01*
X49949054Y-32896955D01*
X49897413Y-32783878D01*
X49816007Y-32689930D01*
X49816005Y-32689929D01*
X49816003Y-32689927D01*
X49711432Y-32622724D01*
X49711426Y-32622721D01*
X49592159Y-32587700D01*
X49592155Y-32587700D01*
X49467845Y-32587700D01*
X49467840Y-32587700D01*
X49348573Y-32622721D01*
X49348567Y-32622724D01*
X49243996Y-32689927D01*
X49243991Y-32689931D01*
X49162586Y-32783879D01*
X49110946Y-32896955D01*
X49110944Y-32896961D01*
X49093255Y-33019996D01*
X40005500Y-33019996D01*
X40005500Y-32359596D01*
X45476255Y-32359596D01*
X45476255Y-32359603D01*
X45493944Y-32482638D01*
X45493945Y-32482643D01*
X45493946Y-32482645D01*
X45529930Y-32561438D01*
X45542091Y-32588068D01*
X45545587Y-32595722D01*
X45597192Y-32655278D01*
X45613865Y-32674520D01*
X45626993Y-32689670D01*
X45626995Y-32689671D01*
X45626996Y-32689672D01*
X45627399Y-32689931D01*
X45731570Y-32756877D01*
X45731572Y-32756877D01*
X45731573Y-32756878D01*
X45850840Y-32791899D01*
X45850844Y-32791900D01*
X45850845Y-32791900D01*
X45975156Y-32791900D01*
X45975159Y-32791899D01*
X46049878Y-32769959D01*
X46094430Y-32756877D01*
X46199007Y-32689670D01*
X46280413Y-32595722D01*
X46332054Y-32482645D01*
X46338415Y-32438403D01*
X46349745Y-32359603D01*
X46349745Y-32359596D01*
X46332055Y-32236561D01*
X46332054Y-32236560D01*
X46332054Y-32236555D01*
X46280413Y-32123478D01*
X46199007Y-32029530D01*
X46199005Y-32029529D01*
X46199003Y-32029527D01*
X46094432Y-31962324D01*
X46094426Y-31962321D01*
X45975159Y-31927300D01*
X45975155Y-31927300D01*
X45850845Y-31927300D01*
X45850840Y-31927300D01*
X45731573Y-31962321D01*
X45731567Y-31962324D01*
X45626996Y-32029527D01*
X45626991Y-32029531D01*
X45545586Y-32123479D01*
X45493946Y-32236555D01*
X45493944Y-32236561D01*
X45476255Y-32359596D01*
X40005500Y-32359596D01*
X40005500Y-31749996D01*
X49093255Y-31749996D01*
X49093255Y-31750003D01*
X49110944Y-31873038D01*
X49110945Y-31873043D01*
X49110946Y-31873045D01*
X49136012Y-31927931D01*
X49157852Y-31975755D01*
X49162587Y-31986122D01*
X49243993Y-32080070D01*
X49348570Y-32147277D01*
X49348572Y-32147277D01*
X49348573Y-32147278D01*
X49467840Y-32182299D01*
X49467844Y-32182300D01*
X49467845Y-32182300D01*
X49592156Y-32182300D01*
X49592159Y-32182299D01*
X49651792Y-32164788D01*
X49711430Y-32147277D01*
X49816007Y-32080070D01*
X49897413Y-31986122D01*
X49949054Y-31873045D01*
X49949567Y-31869478D01*
X49966745Y-31750003D01*
X49966745Y-31749996D01*
X49949055Y-31626961D01*
X49949054Y-31626960D01*
X49949054Y-31626955D01*
X49897413Y-31513878D01*
X49816007Y-31419930D01*
X49816005Y-31419929D01*
X49816003Y-31419927D01*
X49711432Y-31352724D01*
X49711426Y-31352721D01*
X49592159Y-31317700D01*
X49592155Y-31317700D01*
X49467845Y-31317700D01*
X49467840Y-31317700D01*
X49348573Y-31352721D01*
X49348567Y-31352724D01*
X49243996Y-31419927D01*
X49243991Y-31419931D01*
X49162586Y-31513879D01*
X49110946Y-31626955D01*
X49110944Y-31626961D01*
X49093255Y-31749996D01*
X40005500Y-31749996D01*
X40005500Y-31140396D01*
X50220455Y-31140396D01*
X50220455Y-31140403D01*
X50238144Y-31263438D01*
X50238145Y-31263443D01*
X50238146Y-31263445D01*
X50289787Y-31376522D01*
X50371193Y-31470470D01*
X50475770Y-31537677D01*
X50475772Y-31537677D01*
X50475773Y-31537678D01*
X50486020Y-31540687D01*
X50534438Y-31576337D01*
X50548613Y-31634770D01*
X50521912Y-31688643D01*
X50494676Y-31704368D01*
X50495290Y-31705711D01*
X50489567Y-31708324D01*
X50384996Y-31775527D01*
X50384991Y-31775531D01*
X50303586Y-31869479D01*
X50251946Y-31982555D01*
X50251944Y-31982561D01*
X50234255Y-32105596D01*
X50234255Y-32105603D01*
X50251944Y-32228638D01*
X50251945Y-32228643D01*
X50251946Y-32228645D01*
X50291548Y-32315361D01*
X50300091Y-32334068D01*
X50303587Y-32341722D01*
X50384993Y-32435670D01*
X50489570Y-32502877D01*
X50489572Y-32502877D01*
X50489573Y-32502878D01*
X50608840Y-32537899D01*
X50608844Y-32537900D01*
X50608845Y-32537900D01*
X50733156Y-32537900D01*
X50733159Y-32537899D01*
X50792792Y-32520388D01*
X50852430Y-32502877D01*
X50957007Y-32435670D01*
X51038413Y-32341722D01*
X51090054Y-32228645D01*
X51096717Y-32182300D01*
X51107745Y-32105603D01*
X51107745Y-32105596D01*
X51090055Y-31982561D01*
X51090054Y-31982560D01*
X51090054Y-31982555D01*
X51041846Y-31876996D01*
X56891055Y-31876996D01*
X56891055Y-31877003D01*
X56908744Y-32000038D01*
X56908745Y-32000043D01*
X56908746Y-32000045D01*
X56952152Y-32095091D01*
X56958198Y-32108330D01*
X56960387Y-32113122D01*
X56993891Y-32151788D01*
X57037641Y-32202279D01*
X57041793Y-32207070D01*
X57146370Y-32274277D01*
X57146372Y-32274277D01*
X57146373Y-32274278D01*
X57265640Y-32309299D01*
X57265644Y-32309300D01*
X57265645Y-32309300D01*
X57389956Y-32309300D01*
X57389959Y-32309299D01*
X57449592Y-32291788D01*
X57509230Y-32274277D01*
X57571352Y-32234354D01*
X57618874Y-32220400D01*
X59481208Y-32220400D01*
X59481209Y-32220400D01*
X59548842Y-32202278D01*
X59568548Y-32196998D01*
X59646853Y-32151788D01*
X59794644Y-32003996D01*
X64587255Y-32003996D01*
X64587255Y-32004003D01*
X64604944Y-32127038D01*
X64604945Y-32127043D01*
X64604946Y-32127045D01*
X64656587Y-32240122D01*
X64737993Y-32334070D01*
X64842570Y-32401277D01*
X64842572Y-32401277D01*
X64842573Y-32401278D01*
X64961840Y-32436299D01*
X64961844Y-32436300D01*
X64961845Y-32436300D01*
X65086156Y-32436300D01*
X65086159Y-32436299D01*
X65145792Y-32418788D01*
X65205430Y-32401277D01*
X65310007Y-32334070D01*
X65375925Y-32257996D01*
X77795255Y-32257996D01*
X77795255Y-32258003D01*
X77812944Y-32381038D01*
X77812945Y-32381043D01*
X77812946Y-32381045D01*
X77864587Y-32494122D01*
X77945993Y-32588070D01*
X78050570Y-32655277D01*
X78050572Y-32655277D01*
X78050573Y-32655278D01*
X78169840Y-32690299D01*
X78169844Y-32690300D01*
X78169845Y-32690300D01*
X78294156Y-32690300D01*
X78294159Y-32690299D01*
X78407974Y-32656879D01*
X78413430Y-32655277D01*
X78518007Y-32588070D01*
X78599413Y-32494122D01*
X78651054Y-32381045D01*
X78660499Y-32315355D01*
X78668745Y-32258003D01*
X78668745Y-32257996D01*
X78651055Y-32134961D01*
X78651054Y-32134960D01*
X78651054Y-32134955D01*
X78599413Y-32021878D01*
X78518007Y-31927930D01*
X78518005Y-31927929D01*
X78518003Y-31927927D01*
X78413432Y-31860724D01*
X78413426Y-31860721D01*
X78294159Y-31825700D01*
X78294155Y-31825700D01*
X78169845Y-31825700D01*
X78169840Y-31825700D01*
X78050573Y-31860721D01*
X78050567Y-31860724D01*
X77945996Y-31927927D01*
X77945991Y-31927931D01*
X77864586Y-32021879D01*
X77812946Y-32134955D01*
X77812944Y-32134961D01*
X77795255Y-32257996D01*
X65375925Y-32257996D01*
X65391413Y-32240122D01*
X65443054Y-32127045D01*
X65454174Y-32049702D01*
X65460745Y-32004003D01*
X65460745Y-32003996D01*
X65443055Y-31880961D01*
X65443054Y-31880960D01*
X65443054Y-31880955D01*
X65391413Y-31767878D01*
X65310007Y-31673930D01*
X65310005Y-31673929D01*
X65310003Y-31673927D01*
X65205432Y-31606724D01*
X65205426Y-31606721D01*
X65086159Y-31571700D01*
X65086155Y-31571700D01*
X64961845Y-31571700D01*
X64961840Y-31571700D01*
X64842573Y-31606721D01*
X64842567Y-31606724D01*
X64737996Y-31673927D01*
X64737991Y-31673931D01*
X64656586Y-31767879D01*
X64604946Y-31880955D01*
X64604944Y-31880961D01*
X64587255Y-32003996D01*
X59794644Y-32003996D01*
X59901616Y-31897024D01*
X59939002Y-31874843D01*
X60049230Y-31842477D01*
X60153807Y-31775270D01*
X60235213Y-31681322D01*
X60286854Y-31568245D01*
X60288420Y-31557354D01*
X60304545Y-31445203D01*
X60304545Y-31445196D01*
X60286855Y-31322161D01*
X60286854Y-31322160D01*
X60286854Y-31322155D01*
X60235213Y-31209078D01*
X60175700Y-31140396D01*
X63559455Y-31140396D01*
X63559455Y-31140403D01*
X63577144Y-31263438D01*
X63577145Y-31263443D01*
X63577146Y-31263445D01*
X63628787Y-31376522D01*
X63710193Y-31470470D01*
X63814770Y-31537677D01*
X63814772Y-31537677D01*
X63814773Y-31537678D01*
X63934040Y-31572699D01*
X63934044Y-31572700D01*
X63934045Y-31572700D01*
X64058356Y-31572700D01*
X64058359Y-31572699D01*
X64146128Y-31546927D01*
X64177630Y-31537677D01*
X64282207Y-31470470D01*
X64363613Y-31376522D01*
X64415254Y-31263445D01*
X64432945Y-31140400D01*
X64432945Y-31140396D01*
X64415255Y-31017361D01*
X64415254Y-31017360D01*
X64415254Y-31017355D01*
X64363613Y-30904278D01*
X64282207Y-30810330D01*
X64282205Y-30810329D01*
X64282203Y-30810327D01*
X64177632Y-30743124D01*
X64177626Y-30743121D01*
X64058359Y-30708100D01*
X64058355Y-30708100D01*
X63934045Y-30708100D01*
X63934040Y-30708100D01*
X63814773Y-30743121D01*
X63814767Y-30743124D01*
X63710196Y-30810327D01*
X63710191Y-30810331D01*
X63628786Y-30904279D01*
X63577146Y-31017355D01*
X63577144Y-31017361D01*
X63559455Y-31140396D01*
X60175700Y-31140396D01*
X60153807Y-31115130D01*
X60153805Y-31115129D01*
X60153803Y-31115127D01*
X60049232Y-31047924D01*
X60049226Y-31047921D01*
X59929959Y-31012900D01*
X59929955Y-31012900D01*
X59805645Y-31012900D01*
X59805640Y-31012900D01*
X59686373Y-31047921D01*
X59686367Y-31047924D01*
X59581796Y-31115127D01*
X59581791Y-31115131D01*
X59500386Y-31209079D01*
X59448746Y-31322154D01*
X59443428Y-31359137D01*
X59418578Y-31408779D01*
X59319505Y-31507854D01*
X59265012Y-31533265D01*
X59257350Y-31533600D01*
X57618874Y-31533600D01*
X57571352Y-31519646D01*
X57509232Y-31479724D01*
X57509226Y-31479721D01*
X57389959Y-31444700D01*
X57389955Y-31444700D01*
X57265645Y-31444700D01*
X57265640Y-31444700D01*
X57146373Y-31479721D01*
X57146367Y-31479724D01*
X57041796Y-31546927D01*
X57041791Y-31546931D01*
X56960386Y-31640879D01*
X56908746Y-31753955D01*
X56908744Y-31753961D01*
X56891055Y-31876996D01*
X51041846Y-31876996D01*
X51038413Y-31869478D01*
X50957007Y-31775530D01*
X50957005Y-31775529D01*
X50957003Y-31775527D01*
X50852432Y-31708324D01*
X50852423Y-31708320D01*
X50842176Y-31705311D01*
X50793759Y-31669659D01*
X50779586Y-31611226D01*
X50806289Y-31557354D01*
X50833525Y-31541637D01*
X50832910Y-31540289D01*
X50838623Y-31537678D01*
X50838630Y-31537677D01*
X50943207Y-31470470D01*
X51024613Y-31376522D01*
X51076254Y-31263445D01*
X51093945Y-31140400D01*
X51093945Y-31140396D01*
X51076255Y-31017361D01*
X51076254Y-31017360D01*
X51076254Y-31017355D01*
X51024613Y-30904278D01*
X50943207Y-30810330D01*
X50943205Y-30810329D01*
X50943203Y-30810327D01*
X50838632Y-30743124D01*
X50838626Y-30743121D01*
X50719359Y-30708100D01*
X50719355Y-30708100D01*
X50595045Y-30708100D01*
X50595040Y-30708100D01*
X50475773Y-30743121D01*
X50475767Y-30743124D01*
X50371196Y-30810327D01*
X50371191Y-30810331D01*
X50289786Y-30904279D01*
X50238146Y-31017355D01*
X50238144Y-31017361D01*
X50220455Y-31140396D01*
X40005500Y-31140396D01*
X40005500Y-30378396D01*
X45476255Y-30378396D01*
X45476255Y-30378403D01*
X45493944Y-30501438D01*
X45493945Y-30501443D01*
X45493946Y-30501445D01*
X45518892Y-30556068D01*
X45542091Y-30606868D01*
X45545587Y-30614522D01*
X45626993Y-30708470D01*
X45626995Y-30708471D01*
X45626996Y-30708472D01*
X45638900Y-30716122D01*
X45731570Y-30775677D01*
X45731572Y-30775677D01*
X45731573Y-30775678D01*
X45850840Y-30810699D01*
X45850844Y-30810700D01*
X45850845Y-30810700D01*
X45975156Y-30810700D01*
X45975159Y-30810699D01*
X46034792Y-30793188D01*
X46094430Y-30775677D01*
X46199007Y-30708470D01*
X46280413Y-30614522D01*
X46332054Y-30501445D01*
X46349745Y-30378400D01*
X46349745Y-30378396D01*
X46332055Y-30255361D01*
X46332054Y-30255360D01*
X46332054Y-30255355D01*
X46318646Y-30225996D01*
X55417855Y-30225996D01*
X55417855Y-30226003D01*
X55435544Y-30349038D01*
X55435545Y-30349043D01*
X55435546Y-30349045D01*
X55487187Y-30462122D01*
X55568593Y-30556070D01*
X55673170Y-30623277D01*
X55673172Y-30623277D01*
X55673173Y-30623278D01*
X55792440Y-30658299D01*
X55792444Y-30658300D01*
X55792445Y-30658300D01*
X55916756Y-30658300D01*
X55916759Y-30658299D01*
X55976392Y-30640788D01*
X56036030Y-30623277D01*
X56140607Y-30556070D01*
X56222013Y-30462122D01*
X56273654Y-30349045D01*
X56284042Y-30276796D01*
X58389655Y-30276796D01*
X58389655Y-30276803D01*
X58407344Y-30399838D01*
X58407345Y-30399843D01*
X58407346Y-30399845D01*
X58458987Y-30512922D01*
X58496373Y-30556068D01*
X58537078Y-30603045D01*
X58540393Y-30606870D01*
X58644970Y-30674077D01*
X58644972Y-30674077D01*
X58644973Y-30674078D01*
X58764240Y-30709099D01*
X58764244Y-30709100D01*
X58764245Y-30709100D01*
X58888556Y-30709100D01*
X58888559Y-30709099D01*
X58948192Y-30691588D01*
X59007830Y-30674077D01*
X59112407Y-30606870D01*
X59193813Y-30512922D01*
X59208850Y-30479996D01*
X69667255Y-30479996D01*
X69667255Y-30480003D01*
X69684944Y-30603038D01*
X69684945Y-30603043D01*
X69684946Y-30603045D01*
X69694185Y-30623275D01*
X69728075Y-30697485D01*
X69732840Y-30757423D01*
X69728075Y-30770515D01*
X69684946Y-30864955D01*
X69684944Y-30864961D01*
X69667255Y-30987996D01*
X69667255Y-30988003D01*
X69684944Y-31111038D01*
X69684945Y-31111043D01*
X69684946Y-31111045D01*
X69736587Y-31224122D01*
X69817993Y-31318070D01*
X69922570Y-31385277D01*
X69922572Y-31385277D01*
X69922573Y-31385278D01*
X70041840Y-31420299D01*
X70041844Y-31420300D01*
X70041845Y-31420300D01*
X70166156Y-31420300D01*
X70166159Y-31420299D01*
X70210622Y-31407242D01*
X70285430Y-31385277D01*
X70310478Y-31369179D01*
X70369125Y-31355932D01*
X70405520Y-31369178D01*
X70430567Y-31385275D01*
X70430570Y-31385277D01*
X70549840Y-31420299D01*
X70549844Y-31420300D01*
X70549845Y-31420300D01*
X70674156Y-31420300D01*
X70674159Y-31420299D01*
X70718622Y-31407242D01*
X70793430Y-31385277D01*
X70818478Y-31369179D01*
X70877125Y-31355932D01*
X70913520Y-31369178D01*
X70938567Y-31385275D01*
X70938570Y-31385277D01*
X71057840Y-31420299D01*
X71057844Y-31420300D01*
X71057845Y-31420300D01*
X71182156Y-31420300D01*
X71182159Y-31420299D01*
X71241792Y-31402788D01*
X71301430Y-31385277D01*
X71406007Y-31318070D01*
X71487413Y-31224122D01*
X71539054Y-31111045D01*
X71539315Y-31109228D01*
X71556745Y-30988003D01*
X71556745Y-30987996D01*
X71539055Y-30864961D01*
X71539054Y-30864960D01*
X71539054Y-30864955D01*
X71495923Y-30770514D01*
X71491159Y-30710577D01*
X71495924Y-30697485D01*
X71539054Y-30603045D01*
X71556745Y-30480000D01*
X71556745Y-30479996D01*
X71539055Y-30356961D01*
X71539054Y-30356960D01*
X71539054Y-30356955D01*
X71487413Y-30243878D01*
X71406007Y-30149930D01*
X71406005Y-30149929D01*
X71406003Y-30149927D01*
X71301432Y-30082724D01*
X71301426Y-30082721D01*
X71182159Y-30047700D01*
X71182155Y-30047700D01*
X71057845Y-30047700D01*
X71057840Y-30047700D01*
X70938573Y-30082721D01*
X70938570Y-30082723D01*
X70913520Y-30098821D01*
X70854870Y-30112065D01*
X70818480Y-30098821D01*
X70809739Y-30093204D01*
X70793430Y-30082723D01*
X70793428Y-30082722D01*
X70793426Y-30082721D01*
X70674159Y-30047700D01*
X70674155Y-30047700D01*
X70549845Y-30047700D01*
X70549840Y-30047700D01*
X70430573Y-30082721D01*
X70430570Y-30082723D01*
X70405520Y-30098821D01*
X70346870Y-30112065D01*
X70310480Y-30098821D01*
X70301739Y-30093204D01*
X70285430Y-30082723D01*
X70285428Y-30082722D01*
X70285426Y-30082721D01*
X70166159Y-30047700D01*
X70166155Y-30047700D01*
X70041845Y-30047700D01*
X70041840Y-30047700D01*
X69922573Y-30082721D01*
X69922567Y-30082724D01*
X69817996Y-30149927D01*
X69817991Y-30149931D01*
X69736586Y-30243879D01*
X69684946Y-30356955D01*
X69684944Y-30356961D01*
X69667255Y-30479996D01*
X59208850Y-30479996D01*
X59245454Y-30399845D01*
X59263145Y-30276800D01*
X59263145Y-30276796D01*
X59245455Y-30153761D01*
X59245454Y-30153760D01*
X59245454Y-30153755D01*
X59193813Y-30040678D01*
X59112407Y-29946730D01*
X59112405Y-29946729D01*
X59112403Y-29946727D01*
X59007832Y-29879524D01*
X59007826Y-29879521D01*
X58888559Y-29844500D01*
X58888555Y-29844500D01*
X58764245Y-29844500D01*
X58764240Y-29844500D01*
X58644973Y-29879521D01*
X58644967Y-29879524D01*
X58540396Y-29946727D01*
X58540391Y-29946731D01*
X58458986Y-30040679D01*
X58407346Y-30153755D01*
X58407344Y-30153761D01*
X58389655Y-30276796D01*
X56284042Y-30276796D01*
X56287124Y-30255361D01*
X56291345Y-30226003D01*
X56291345Y-30225996D01*
X56273655Y-30102961D01*
X56273654Y-30102960D01*
X56273654Y-30102955D01*
X56222013Y-29989878D01*
X56140607Y-29895930D01*
X56140605Y-29895929D01*
X56140603Y-29895927D01*
X56036032Y-29828724D01*
X56036026Y-29828721D01*
X55916759Y-29793700D01*
X55916755Y-29793700D01*
X55792445Y-29793700D01*
X55792440Y-29793700D01*
X55673173Y-29828721D01*
X55673167Y-29828724D01*
X55568596Y-29895927D01*
X55568591Y-29895931D01*
X55487186Y-29989879D01*
X55435546Y-30102955D01*
X55435544Y-30102961D01*
X55417855Y-30225996D01*
X46318646Y-30225996D01*
X46280413Y-30142278D01*
X46199007Y-30048330D01*
X46199005Y-30048329D01*
X46199003Y-30048327D01*
X46094432Y-29981124D01*
X46094426Y-29981121D01*
X45975159Y-29946100D01*
X45975155Y-29946100D01*
X45850845Y-29946100D01*
X45850840Y-29946100D01*
X45731573Y-29981121D01*
X45731567Y-29981124D01*
X45626996Y-30048327D01*
X45626991Y-30048331D01*
X45545586Y-30142279D01*
X45493946Y-30255355D01*
X45493944Y-30255361D01*
X45476255Y-30378396D01*
X40005500Y-30378396D01*
X40005500Y-29847882D01*
X40005688Y-29842133D01*
X40016253Y-29680936D01*
X40021416Y-29602155D01*
X40022917Y-29590762D01*
X40033001Y-29540070D01*
X40069271Y-29357724D01*
X40072246Y-29346624D01*
X40118625Y-29209996D01*
X54429255Y-29209996D01*
X54429255Y-29210003D01*
X54446944Y-29333038D01*
X54446945Y-29333043D01*
X54446946Y-29333045D01*
X54498587Y-29446122D01*
X54579993Y-29540070D01*
X54684570Y-29607277D01*
X54684572Y-29607277D01*
X54684573Y-29607278D01*
X54803840Y-29642299D01*
X54803844Y-29642300D01*
X54803845Y-29642300D01*
X54928156Y-29642300D01*
X54928159Y-29642299D01*
X54987792Y-29624788D01*
X55047430Y-29607277D01*
X55152007Y-29540070D01*
X55233413Y-29446122D01*
X55285054Y-29333045D01*
X55302745Y-29210000D01*
X55302745Y-29209996D01*
X60523255Y-29209996D01*
X60523255Y-29210003D01*
X60540944Y-29333038D01*
X60540945Y-29333043D01*
X60540946Y-29333045D01*
X60592587Y-29446122D01*
X60673993Y-29540070D01*
X60778570Y-29607277D01*
X60778572Y-29607277D01*
X60778573Y-29607278D01*
X60897840Y-29642299D01*
X60897844Y-29642300D01*
X60897845Y-29642300D01*
X61022156Y-29642300D01*
X61022159Y-29642299D01*
X61081792Y-29624788D01*
X61141430Y-29607277D01*
X61246007Y-29540070D01*
X61327413Y-29446122D01*
X61379054Y-29333045D01*
X61396745Y-29210000D01*
X61396745Y-29209996D01*
X61379055Y-29086961D01*
X61379054Y-29086960D01*
X61379054Y-29086955D01*
X61377246Y-29082996D01*
X76398255Y-29082996D01*
X76398255Y-29083003D01*
X76415944Y-29206038D01*
X76415945Y-29206043D01*
X76415946Y-29206045D01*
X76467587Y-29319122D01*
X76548993Y-29413070D01*
X76653570Y-29480277D01*
X76653572Y-29480277D01*
X76653573Y-29480278D01*
X76772840Y-29515299D01*
X76772844Y-29515300D01*
X76772845Y-29515300D01*
X76897156Y-29515300D01*
X76897159Y-29515299D01*
X76956792Y-29497788D01*
X77016430Y-29480277D01*
X77121007Y-29413070D01*
X77202413Y-29319122D01*
X77254054Y-29206045D01*
X77266190Y-29121637D01*
X77271745Y-29083003D01*
X77271745Y-29082996D01*
X77254055Y-28959961D01*
X77254054Y-28959960D01*
X77254054Y-28959955D01*
X77202413Y-28846878D01*
X77121007Y-28752930D01*
X77121005Y-28752929D01*
X77121003Y-28752927D01*
X77016432Y-28685724D01*
X77016426Y-28685721D01*
X76897159Y-28650700D01*
X76897155Y-28650700D01*
X76772845Y-28650700D01*
X76772840Y-28650700D01*
X76653573Y-28685721D01*
X76653567Y-28685724D01*
X76548996Y-28752927D01*
X76548991Y-28752931D01*
X76467586Y-28846879D01*
X76415946Y-28959955D01*
X76415944Y-28959961D01*
X76398255Y-29082996D01*
X61377246Y-29082996D01*
X61327413Y-28973878D01*
X61246007Y-28879930D01*
X61246005Y-28879929D01*
X61246003Y-28879927D01*
X61141432Y-28812724D01*
X61141426Y-28812721D01*
X61022159Y-28777700D01*
X61022155Y-28777700D01*
X60897845Y-28777700D01*
X60897840Y-28777700D01*
X60778573Y-28812721D01*
X60778567Y-28812724D01*
X60673996Y-28879927D01*
X60673991Y-28879931D01*
X60592586Y-28973879D01*
X60540946Y-29086955D01*
X60540944Y-29086961D01*
X60523255Y-29209996D01*
X55302745Y-29209996D01*
X55285055Y-29086961D01*
X55285054Y-29086960D01*
X55285054Y-29086955D01*
X55233413Y-28973878D01*
X55152007Y-28879930D01*
X55152005Y-28879929D01*
X55152003Y-28879927D01*
X55047432Y-28812724D01*
X55047426Y-28812721D01*
X54928159Y-28777700D01*
X54928155Y-28777700D01*
X54803845Y-28777700D01*
X54803840Y-28777700D01*
X54684573Y-28812721D01*
X54684567Y-28812724D01*
X54579996Y-28879927D01*
X54579991Y-28879931D01*
X54498586Y-28973879D01*
X54446946Y-29086955D01*
X54446944Y-29086961D01*
X54429255Y-29209996D01*
X40118625Y-29209996D01*
X40148623Y-29121624D01*
X40153012Y-29111027D01*
X40258107Y-28897913D01*
X40263850Y-28887967D01*
X40395863Y-28690395D01*
X40402850Y-28681290D01*
X40406967Y-28676596D01*
X57173055Y-28676596D01*
X57173055Y-28676603D01*
X57190744Y-28799638D01*
X57190745Y-28799643D01*
X57190746Y-28799645D01*
X57242387Y-28912722D01*
X57323793Y-29006670D01*
X57428370Y-29073877D01*
X57428372Y-29073877D01*
X57428373Y-29073878D01*
X57547640Y-29108899D01*
X57547644Y-29108900D01*
X57547645Y-29108900D01*
X57671956Y-29108900D01*
X57671959Y-29108899D01*
X57760150Y-29083003D01*
X57791230Y-29073877D01*
X57895807Y-29006670D01*
X57977213Y-28912722D01*
X58028854Y-28799645D01*
X58032009Y-28777700D01*
X58046545Y-28676603D01*
X58046545Y-28676596D01*
X58028855Y-28553561D01*
X58028854Y-28553560D01*
X58028854Y-28553555D01*
X57977213Y-28440478D01*
X57895807Y-28346530D01*
X57895805Y-28346529D01*
X57895803Y-28346527D01*
X57791232Y-28279324D01*
X57791226Y-28279321D01*
X57671959Y-28244300D01*
X57671955Y-28244300D01*
X57547645Y-28244300D01*
X57547640Y-28244300D01*
X57428373Y-28279321D01*
X57428367Y-28279324D01*
X57323796Y-28346527D01*
X57323791Y-28346531D01*
X57242386Y-28440479D01*
X57190746Y-28553555D01*
X57190744Y-28553561D01*
X57173055Y-28676596D01*
X40406967Y-28676596D01*
X40559521Y-28502640D01*
X40567638Y-28494523D01*
X40656963Y-28416187D01*
X40746285Y-28337855D01*
X40755401Y-28330859D01*
X40952965Y-28198851D01*
X40962911Y-28193108D01*
X41176023Y-28088014D01*
X41186619Y-28083625D01*
X41411638Y-28007240D01*
X41422716Y-28004272D01*
X41655766Y-27957916D01*
X41667153Y-27956416D01*
X41907132Y-27940688D01*
X41912881Y-27940500D01*
X81192100Y-27940500D01*
X81248601Y-27961065D01*
G37*
%TD.AperFunction*%
%TD*%
D16*
X55753000Y-35077400D03*
X84455000Y-28956000D03*
X71120000Y-30480000D03*
X55118000Y-34544000D03*
X60030400Y-37693600D03*
X54381400Y-36118800D03*
X58166000Y-33909000D03*
X51054000Y-46228000D03*
X76200000Y-46736000D03*
X51054000Y-43180000D03*
X58674000Y-32893000D03*
X71653400Y-38303200D03*
X50292000Y-43180000D03*
X59944000Y-38227000D03*
X58293000Y-33274000D03*
X49530000Y-45212000D03*
X94107000Y-29210000D03*
X56515000Y-33909000D03*
X90500200Y-30175200D03*
X58928000Y-34544000D03*
X49530000Y-44704000D03*
X70612000Y-30988000D03*
X75819000Y-35331400D03*
X56515000Y-34417000D03*
X51054000Y-44704000D03*
X45913000Y-30378400D03*
X57609800Y-28676600D03*
X48006000Y-37566600D03*
X50292000Y-44704000D03*
X71120000Y-30988000D03*
X70612000Y-30480000D03*
X80949800Y-32438400D03*
X78232000Y-32258000D03*
X62484000Y-38354000D03*
X56388000Y-33274000D03*
X51054000Y-45720000D03*
X61976000Y-46736000D03*
X50292000Y-45720000D03*
X58801000Y-33782000D03*
X54356000Y-35153600D03*
X54625200Y-37693600D03*
X54462800Y-34518800D03*
X56007000Y-32893000D03*
X70104000Y-30988000D03*
X48920400Y-39878000D03*
X55880000Y-33782000D03*
X77622400Y-35763200D03*
X47117000Y-44323000D03*
X74904600Y-36220400D03*
X69240400Y-37211000D03*
X54991000Y-35128200D03*
X54610000Y-38227000D03*
X55372000Y-47498000D03*
X76835000Y-29083000D03*
X75285600Y-33909000D03*
X60807600Y-34315400D03*
X58773000Y-36144200D03*
X55905400Y-36245800D03*
X55753000Y-34544000D03*
X47117000Y-46863000D03*
X51054000Y-45212000D03*
X49530000Y-44196000D03*
X62153800Y-37393200D03*
X91948000Y-34033400D03*
X53746400Y-35128200D03*
X54610000Y-37211000D03*
X59740800Y-37185600D03*
X50292000Y-44196000D03*
X73177400Y-38303200D03*
X50292000Y-43688000D03*
X50292000Y-45212000D03*
X70104000Y-30480000D03*
X53746400Y-36118800D03*
X45796200Y-37056600D03*
X51054000Y-44196000D03*
X93472000Y-46355000D03*
X73304400Y-35890200D03*
X50292000Y-46228000D03*
X45913000Y-34340800D03*
X58166000Y-34417000D03*
X47117000Y-45567600D03*
X83058000Y-32715200D03*
X51054000Y-43688000D03*
X77216000Y-34290000D03*
X83207800Y-36347400D03*
X52009000Y-42062400D03*
X77952600Y-33451800D03*
X45913000Y-32359600D03*
X61722000Y-38354000D03*
X48262600Y-36195000D03*
X58166000Y-40386000D03*
X56642000Y-40894000D03*
X57404000Y-41402000D03*
X58166000Y-41402000D03*
X58166000Y-42926000D03*
X58166000Y-40894000D03*
X58166000Y-39878000D03*
X57404000Y-42926000D03*
X57404000Y-41910000D03*
X56642000Y-41910000D03*
X57404000Y-39878000D03*
X58166000Y-42418000D03*
X56642000Y-41402000D03*
X57404000Y-40386000D03*
X57404000Y-42418000D03*
X56525200Y-37693600D03*
X58166000Y-41910000D03*
X58130400Y-37693600D03*
X57327800Y-36027400D03*
X57404000Y-40894000D03*
X59867800Y-31445200D03*
X57327800Y-31877000D03*
X50546000Y-36322000D03*
X49530000Y-31750000D03*
X50546000Y-35814000D03*
X49530000Y-33020000D03*
X50671000Y-32105600D03*
X51054000Y-36322000D03*
X51054000Y-35814000D03*
X51054000Y-35306000D03*
X50546000Y-35306000D03*
X50657200Y-31140400D03*
X49530000Y-34544000D03*
X66649600Y-34036000D03*
X63996200Y-31140400D03*
X65193000Y-33223200D03*
X66649600Y-34798000D03*
X67183000Y-34340800D03*
X70612000Y-34798000D03*
X70612000Y-34036000D03*
X70612000Y-33274000D03*
X65024000Y-34544000D03*
X65024000Y-32004000D03*
X64021600Y-33629600D03*
X55854600Y-30226000D03*
X58826400Y-30276800D03*
X64262000Y-40386000D03*
X64262000Y-42926000D03*
X63500000Y-40386000D03*
X64262000Y-41910000D03*
X63500000Y-42418000D03*
X64262000Y-41402000D03*
X63500000Y-40894000D03*
X64262000Y-42418000D03*
X64262000Y-40894000D03*
X63500000Y-42926000D03*
X63500000Y-41910000D03*
X63500000Y-41402000D03*
X46736000Y-42164000D03*
X46736000Y-41656000D03*
X53848000Y-29210000D03*
X61976000Y-29210000D03*
X80949800Y-33398400D03*
X49606200Y-37566600D03*
X49222600Y-36195000D03*
X47244000Y-42164000D03*
X47244000Y-41656000D03*
X54866000Y-29210000D03*
X60960000Y-29210000D03*
X90855800Y-31826200D03*
X84836000Y-36550600D03*
X62207600Y-42580200D03*
X62153800Y-39213200D03*
X57325500Y-45049400D03*
X61288200Y-44754800D03*
X48493400Y-37066600D03*
X53263800Y-36728400D03*
X81076800Y-35356800D03*
X49093400Y-38066600D03*
X49093400Y-37066600D03*
X91948000Y-33073400D03*
X50266600Y-37490400D03*
D17*
X41592500Y-38100000D03*
X98742500Y-38100000D03*
X86360000Y-43637200D03*
X86360000Y-39878000D03*
X68580000Y-44754800D03*
X68580000Y-40995600D03*
X66040000Y-43637200D03*
X66040000Y-39878000D03*
X83820000Y-44754800D03*
X83820000Y-40995600D03*
X71120000Y-43637200D03*
X81280000Y-43637200D03*
X71120000Y-39878000D03*
X73660000Y-39878000D03*
X76200000Y-39878000D03*
X78740000Y-39878000D03*
X81280000Y-39878000D03*
M02*
